<svg width="30" height="30" viewBox="0 0 30 30" fill="none" xmlns="http://www.w3.org/2000/svg">
<g clip-path="url(#clip0_1169_8724)">
<path d="M14.9985 29.5605C19.9353 29.5605 23.9373 28.4182 23.9373 27.0091C23.9373 25.6 19.9353 24.4578 14.9985 24.4578C10.0616 24.4578 6.05957 25.6 6.05957 27.0091C6.05957 28.4182 10.0616 29.5605 14.9985 29.5605Z" fill="#F7F9FB"/>
<path d="M25.4916 10.933C25.4916 5.13762 20.7936 0.439575 14.9983 0.439575C9.20293 0.439575 4.50488 5.13762 4.50488 10.933C4.50488 15.4511 7.36051 19.302 11.3653 20.78C11.8876 22.8942 12.8827 24.9952 14.2989 26.6825C14.6645 27.1181 15.332 27.1181 15.6975 26.6825C17.1138 24.9952 18.1089 22.8942 18.6312 20.78C22.636 19.302 25.4916 15.4511 25.4916 10.933Z" fill="#FF7765"/>
<path d="M14.997 27.0092C14.739 27.0087 14.4811 26.8995 14.2991 26.6827C12.8828 24.995 11.8878 22.8942 11.3653 20.7799C7.36051 19.302 4.50488 15.4509 4.50488 10.9328C4.50488 5.13756 9.20281 0.439575 14.9981 0.439575C11.1742 0.439575 6.40566 5.13751 6.40566 10.9328C6.40566 15.4509 9.95809 19.3021 12.6007 20.7799C12.9454 22.8942 13.6021 24.9951 14.5367 26.6827C14.6571 26.8995 14.8273 27.0087 14.997 27.0092Z" fill="#FF523A"/>
<path d="M22.643 10.9333C22.643 13.6859 21.1878 16.0986 19.0045 17.4442C17.8396 18.1627 16.4673 18.577 14.9987 18.577C13.5302 18.577 12.1584 18.1627 10.9935 17.4442C8.80967 16.0991 7.35449 13.6859 7.35449 10.9333C7.35449 6.71152 10.777 3.28894 14.9987 3.28894C19.2205 3.28894 22.643 6.71146 22.643 10.9333Z" fill="#F7F9FB"/>
<path d="M15.9573 18.5169C15.643 18.5569 15.3232 18.5769 14.9986 18.5769C10.7769 18.5769 7.35449 15.1545 7.35449 10.9327C7.35449 6.71098 10.7769 3.28857 14.9986 3.28857C15.3232 3.28857 15.6429 3.30855 15.9573 3.34852C12.1881 3.81949 9.27174 7.03559 9.27174 10.9327C9.27174 14.8298 12.1881 18.0459 15.9573 18.5169Z" fill="#EEF2F4"/>
<path d="M19.0042 17.4442C17.8393 18.1627 16.4669 18.577 14.9984 18.577C13.5299 18.577 12.1581 18.1627 10.9932 17.4442C11.038 17.4052 11.0867 17.3699 11.1386 17.3388C11.6465 17.0347 12.1827 16.793 12.6889 16.6038C13.108 16.4466 13.5058 16.3247 13.8501 16.2333H16.1467C16.491 16.3247 16.8887 16.4466 17.3084 16.6038C17.8141 16.793 18.3509 17.0347 18.8587 17.3388C18.9106 17.3698 18.9593 17.4052 19.0042 17.4442Z" fill="#FAC600"/>
<path d="M16.1472 14.2944V16.2129C16.1472 16.8471 15.6329 17.3615 14.9986 17.3615C14.3639 17.3615 13.8496 16.8471 13.8496 16.2129V14.2944H16.1472Z" fill="#FFAB9F"/>
<path d="M15.3726 17.2989C15.2551 17.3393 15.129 17.3615 14.9976 17.3615C14.363 17.3615 13.8486 16.8471 13.8486 16.2129V14.2944H14.5987V16.2129C14.5987 16.7161 14.9222 17.1437 15.3726 17.2989Z" fill="#FFAB9F"/>
<path d="M10.1989 12.6972C9.3707 12.6972 8.69922 12.0257 8.69922 11.1975C8.69922 11.0835 8.71193 10.9725 8.73602 10.8658C8.93055 10.0041 10.1989 10.1455 10.1989 11.0288H19.7968C19.7968 10.1455 21.0652 10.0041 21.2597 10.8658C21.2838 10.9725 21.2965 11.0835 21.2965 11.1975C21.2965 12.0257 20.6251 12.6972 19.7968 12.6972" fill="#FFAB9F"/>
<path d="M13.8486 14.2946H16.1462V16.0619H13.8486V14.2946Z" fill="#FFAB9F"/>
<path d="M16.2994 15.4536H13.697C11.7652 15.4536 10.1992 13.8876 10.1992 11.9558V7.02276L14.9983 4.07251L19.7972 7.02276V11.9558C19.7972 13.8876 18.2311 15.4536 16.2994 15.4536Z" fill="#FFAB9F"/>
<path d="M19.7965 5.33476V7.39263C19.7965 7.39263 19.0968 6.24085 17.9895 6.24085C16.8827 6.24085 16.432 7.60861 14.9974 7.60861C13.5632 7.60861 13.1121 6.24085 12.0052 6.24085C10.8984 6.24085 10.1982 7.39263 10.1982 7.39263V5.33476C10.1982 4.01576 11.2678 2.94666 12.5868 2.94666H17.4079C18.7269 2.94666 19.7965 4.0157 19.7965 5.33476Z" fill="#536D82"/>
<path d="M12.5878 2.94666H14.8975C13.5785 2.94666 12.5089 4.01576 12.5089 5.33476V6.34076C12.3546 6.27818 12.1892 6.24085 12.0062 6.24085C10.8994 6.24085 10.1992 7.39263 10.1992 7.39263V5.33476C10.1992 4.0157 11.2688 2.94666 12.5878 2.94666Z" fill="#2B3B47"/>
<path d="M15.9943 15.4535H13.697C11.7653 15.4535 10.1992 13.8874 10.1992 11.9561V7.39262C10.1992 7.39262 10.8994 6.24084 12.0062 6.24084C12.1844 6.24084 12.346 6.27623 12.497 6.33594V11.9561C12.497 13.8874 14.0626 15.4535 15.9943 15.4535Z" fill="#FFAB9F"/>
<path d="M22.16 25.0131C21.0448 24.6112 19.536 24.3099 17.859 24.1502C18.3369 23.1891 18.7251 22.1626 19.0017 21.1097C20.9844 20.33 22.6823 18.9996 23.9228 17.2508C25.2375 15.3975 25.9324 13.2128 25.9324 10.933C25.9324 9.18475 25.5319 7.51412 24.7423 5.96771C24.6319 5.75156 24.3674 5.66584 24.151 5.77617C23.9349 5.88656 23.8491 6.15123 23.9595 6.36744C24.6854 7.78893 25.0534 9.32502 25.0534 10.933C25.0534 13.0296 24.4145 15.0384 23.2059 16.7423C22.0232 18.4096 20.389 19.6633 18.48 20.368C18.3432 20.4185 18.2405 20.5334 18.2055 20.6749C17.678 22.8108 16.6681 24.844 15.3616 26.4001C15.27 26.5093 15.1413 26.5695 14.9993 26.5695C14.8573 26.5695 14.7287 26.5093 14.6368 26.3998C13.3305 24.8439 12.3206 22.8108 11.7931 20.6749C11.7581 20.5334 11.6554 20.4185 11.5186 20.368C9.60955 19.6632 7.97531 18.4095 6.79271 16.7423C5.58404 15.0384 4.94519 13.0296 4.94519 10.9329C4.94531 5.38916 9.45557 0.878906 14.9994 0.878906C16.6169 0.878906 18.1611 1.25109 19.5891 1.98504C20.952 2.68553 22.1567 3.7074 23.073 4.94027C23.2178 5.1351 23.4931 5.17564 23.6879 5.0308C23.8827 4.88602 23.9232 4.61074 23.7785 4.41592C22.7824 3.07576 21.4726 1.96482 19.9909 1.20328C18.4374 0.404883 16.758 0 14.9994 0C8.97094 0 4.06641 4.90453 4.06641 10.933C4.06641 13.2128 4.76127 15.3975 6.076 17.2508C7.31643 18.9996 9.01435 20.33 10.997 21.1097C11.2737 22.1626 11.6619 23.1891 12.1398 24.1502C11.0352 24.2554 9.99732 24.4219 9.10711 24.6382C8.87133 24.6956 8.7266 24.9332 8.78385 25.169C8.83271 25.37 9.01248 25.5048 9.21053 25.5048C9.24486 25.5048 9.27978 25.5008 9.31465 25.4923C10.2622 25.262 11.3897 25.0903 12.5904 24.9926C13.0007 25.703 13.4614 26.3667 13.9636 26.9648C14.2212 27.2722 14.5988 27.4484 14.9994 27.4484C15.3999 27.4484 15.7774 27.2721 16.0349 26.965C16.5372 26.3668 16.998 25.703 17.4083 24.9925C21.561 25.3265 23.499 26.3836 23.499 27.0094C23.499 27.3439 22.8968 27.9065 21.1997 28.3908C19.5496 28.8618 17.3476 29.1211 14.9994 29.1211C12.6514 29.1211 10.4496 28.8618 8.79932 28.3908C7.10209 27.9065 6.49986 27.3439 6.49986 27.0094C6.49986 26.6511 7.14111 26.2506 7.74129 25.9952C7.96465 25.9001 8.06865 25.6421 7.97361 25.4187C7.87852 25.1954 7.62029 25.0914 7.39717 25.1865C6.21861 25.688 5.62102 26.3013 5.62102 27.0094C5.6209 28.9727 10.3389 30 14.9994 30C17.427 30 19.7146 29.7287 21.441 29.236C23.3623 28.6877 24.3779 27.9177 24.3779 27.0094C24.3779 26.2152 23.6317 25.5435 22.16 25.0131Z" fill="#2B3B47"/>
<path d="M12.7487 9.60181C12.4974 9.60181 12.293 9.9403 12.293 10.3564C12.293 10.7726 12.4974 11.1111 12.7487 11.1111C13 11.1111 13.2044 10.7725 13.2044 10.3564C13.2044 9.94036 13 9.60181 12.7487 9.60181Z" fill="#2B3B47"/>
<path d="M17.2496 9.60181C16.9984 9.60181 16.7939 9.9403 16.7939 10.3564C16.7939 10.7726 16.9984 11.1111 17.2496 11.1111C17.5009 11.1111 17.7054 10.7725 17.7054 10.3564C17.7054 9.94036 17.5009 9.60181 17.2496 9.60181Z" fill="#2B3B47"/>
<path d="M15.3319 12.6161C15.1483 12.7996 14.8497 12.7996 14.6662 12.6161C14.4946 12.4445 14.2163 12.4446 14.0447 12.6161C13.8731 12.7877 13.8731 13.066 14.0448 13.2376C14.3079 13.5007 14.6535 13.6322 14.999 13.6322C15.3446 13.6322 15.6902 13.5006 15.9533 13.2376C16.125 13.066 16.125 12.7877 15.9534 12.6161C15.7817 12.4446 15.5034 12.4445 15.3319 12.6161Z" fill="#2B3B47"/>
<path d="M20.1692 4.71999C19.8876 3.45547 18.7576 2.50696 17.4095 2.50696H12.5882C11.2401 2.50696 10.1102 3.45542 9.82855 4.71987C7.97512 6.26223 6.91504 8.51704 6.91504 10.933C6.91504 15.3901 10.5414 19.0162 14.9988 19.0162C19.4562 19.0162 23.0825 15.3901 23.0825 10.933C23.0825 8.51704 22.0225 6.26229 20.1692 4.71999ZM15.7082 15.8929V16.2126C15.7082 16.6037 15.39 16.9219 14.9989 16.9219C14.6078 16.9219 14.2895 16.6037 14.2895 16.2126V15.8929H15.7082ZM16.3002 15.0139H13.6977C12.0114 15.0139 10.6395 13.6419 10.6395 11.9557V7.52838C10.8136 7.29155 11.3291 6.68001 12.007 6.68001C12.119 6.68001 12.2267 6.70104 12.3365 6.74446C12.5624 6.83352 12.7858 7.01211 13.0224 7.20125C13.4942 7.57842 14.0812 8.04776 14.9991 8.04776C15.9166 8.04776 16.5037 7.57848 16.9754 7.20143C17.3798 6.87811 17.6453 6.68001 17.9913 6.68001C18.6714 6.68001 19.1845 7.29008 19.3584 7.5275V11.0283V11.9556C19.3584 13.6419 17.9864 15.0139 16.3002 15.0139ZM9.76609 12.1635C9.39736 11.9973 9.13967 11.6271 9.13967 11.1971C9.13967 11.1177 9.1484 11.0386 9.16562 10.9622C9.21912 10.7251 9.41213 10.7202 9.49275 10.7292C9.5732 10.7382 9.76041 10.7854 9.76041 11.0284H9.76053V11.9557C9.76059 12.0254 9.76252 12.0947 9.76609 12.1635ZM20.2373 11.9557V11.0284C20.2373 10.7854 20.4245 10.7382 20.5049 10.7292C20.5854 10.7202 20.7785 10.7249 20.832 10.9621C20.8493 11.0386 20.858 11.1176 20.858 11.1971C20.858 11.627 20.6003 11.9972 20.2317 12.1634C20.2353 12.0946 20.2373 12.0253 20.2373 11.9557ZM12.5882 3.38586H17.4095C18.4841 3.38586 19.3584 4.26014 19.3584 5.33475V6.28754C19.0037 6.02288 18.5424 5.80116 17.9913 5.80116C17.3195 5.80116 16.8451 6.18038 16.4266 6.51501C16.0059 6.85127 15.6085 7.16897 14.9991 7.16897C14.3894 7.16897 13.992 6.85127 13.5712 6.51489C13.2942 6.29346 13.0079 6.06448 12.6593 5.92713C12.4452 5.84241 12.2318 5.80122 12.0069 5.80122C11.4555 5.80122 10.994 6.02317 10.6393 6.28795V5.33469C10.6394 4.26014 11.5137 3.38586 12.5882 3.38586ZM7.79394 10.933C7.79394 9.07063 8.50059 7.3154 9.76047 5.98561V9.88754C9.70533 9.87377 9.64891 9.86235 9.5902 9.85579C8.97174 9.78676 8.44527 10.1622 8.3084 10.7686C8.27682 10.9085 8.26082 11.0526 8.26082 11.1971C8.26082 12.1767 8.99119 12.9884 9.93584 13.1178C10.4056 14.6353 11.7705 15.7623 13.4107 15.8812V15.9001C13.1141 15.9874 12.8208 16.0849 12.5355 16.1919C11.9716 16.4027 11.4528 16.6466 10.9906 16.9166C9.06414 15.6222 7.79394 13.4232 7.79394 10.933ZM11.8867 17.4299C12.185 17.2805 12.5049 17.1416 12.8436 17.015C13.0641 16.9323 13.29 16.8563 13.5182 16.7861C13.7488 17.3792 14.3253 17.8007 14.9989 17.8007C15.6724 17.8007 16.2489 17.3792 16.4795 16.7862C16.7077 16.8563 16.9338 16.9323 17.1548 17.0151C17.4935 17.1419 17.8132 17.2807 18.111 17.4298C17.1685 17.8831 16.1127 18.1373 14.9988 18.1373C13.8849 18.1373 12.8293 17.8831 11.8867 17.4299ZM19.0073 16.9165C18.5461 16.647 18.0275 16.4033 17.4629 16.192C17.1769 16.0849 16.8835 15.9873 16.5872 15.9002V15.8812C18.2274 15.7624 19.5924 14.6354 20.0621 13.1178C21.0067 12.9884 21.737 12.1767 21.737 11.1971C21.737 11.0526 21.721 10.9085 21.6894 10.7686C21.5525 10.1622 21.0255 9.78676 20.4076 9.85584C20.3489 9.86241 20.2925 9.87383 20.2373 9.8876V7.02254V5.98585C21.497 7.31557 22.2037 9.07075 22.2037 10.9331C22.2036 13.4231 20.9335 15.622 19.0073 16.9165Z" fill="#2B3B47"/>
</g>
<defs>
<clipPath id="clip0_1169_8724">
<rect width="30" height="30" fill="white"/>
</clipPath>
</defs>
</svg>
