<svg width="20" height="20" viewBox="0 0 20 20" fill="none" xmlns="http://www.w3.org/2000/svg">
<path d="M13.3575 12.8265C12.8836 12.8265 12.4981 12.4928 12.4981 12.0827C12.4981 11.6726 12.8836 11.3389 13.3575 11.3389C13.8313 11.3389 14.2169 11.6726 14.2169 12.0827C14.2169 12.2984 14.3918 12.4733 14.6075 12.4733C14.8232 12.4733 14.9981 12.2984 14.9981 12.0827C14.9981 11.3669 14.4647 10.765 13.7481 10.6017V10.3985C13.7481 10.1828 13.5732 10.0079 13.3575 10.0079C13.1418 10.0079 12.9669 10.1828 12.9669 10.3985V10.6017C12.2502 10.765 11.7169 11.3669 11.7169 12.0827C11.7169 12.9236 12.4528 13.6078 13.3575 13.6078C13.8313 13.6078 14.2169 13.9414 14.2169 14.3516C14.2169 14.7617 13.8313 15.0954 13.3575 15.0954C12.8836 15.0954 12.4981 14.7617 12.4981 14.3516C12.4981 14.1359 12.3232 13.961 12.1075 13.961C11.8918 13.961 11.7169 14.1359 11.7169 14.3516C11.7169 15.0674 12.2502 15.6693 12.9669 15.8326V16.0014C12.9669 16.2171 13.1418 16.392 13.3575 16.392C13.5732 16.392 13.7481 16.2171 13.7481 16.0014V15.8326C14.4647 15.6693 14.9981 15.0674 14.9981 14.3516C14.9981 13.5106 14.2621 12.8265 13.3575 12.8265Z" fill="white"/>
<path d="M13.3575 12.8265C12.8836 12.8265 12.4981 12.4928 12.4981 12.0827C12.4981 11.6726 12.8836 11.3389 13.3575 11.3389C13.8313 11.3389 14.2169 11.6726 14.2169 12.0827C14.2169 12.2984 14.3918 12.4733 14.6075 12.4733C14.8232 12.4733 14.9981 12.2984 14.9981 12.0827C14.9981 11.3669 14.4647 10.765 13.7481 10.6017V10.3985C13.7481 10.1828 13.5732 10.0079 13.3575 10.0079C13.1418 10.0079 12.9669 10.1828 12.9669 10.3985V10.6017C12.2502 10.765 11.7169 11.3669 11.7169 12.0827C11.7169 12.9236 12.4528 13.6078 13.3575 13.6078C13.8313 13.6078 14.2169 13.9414 14.2169 14.3516C14.2169 14.7617 13.8313 15.0954 13.3575 15.0954C12.8836 15.0954 12.4981 14.7617 12.4981 14.3516C12.4981 14.1359 12.3232 13.961 12.1075 13.961C11.8918 13.961 11.7169 14.1359 11.7169 14.3516C11.7169 15.0674 12.2502 15.6693 12.9669 15.8326V16.0014C12.9669 16.2171 13.1418 16.392 13.3575 16.392C13.5732 16.392 13.7481 16.2171 13.7481 16.0014V15.8326C14.4647 15.6693 14.9981 15.0674 14.9981 14.3516C14.9981 13.5106 14.2621 12.8265 13.3575 12.8265Z" fill="url(#paint0_radial_1115_8769)"/>
<path d="M17.6359 10.503C17.1256 9.70784 16.4067 9.07159 15.5569 8.66307C15.3624 8.56955 15.129 8.65143 15.0356 8.84588C14.9421 9.04034 15.0239 9.2737 15.2184 9.36717C16.6993 10.079 17.6561 11.6001 17.6561 13.2422C17.6561 13.9449 17.4829 14.6417 17.1553 15.2575C17.054 15.4479 17.1262 15.6845 17.3167 15.7858C17.3751 15.8169 17.4379 15.8317 17.4998 15.8317C17.6396 15.8317 17.7748 15.7564 17.845 15.6244C18.2325 14.8962 18.4374 14.0724 18.4374 13.2422C18.4374 12.2672 18.1602 11.32 17.6359 10.503Z" fill="white"/>
<path d="M17.6359 10.503C17.1256 9.70784 16.4067 9.07159 15.5569 8.66307C15.3624 8.56955 15.129 8.65143 15.0356 8.84588C14.9421 9.04034 15.0239 9.2737 15.2184 9.36717C16.6993 10.079 17.6561 11.6001 17.6561 13.2422C17.6561 13.9449 17.4829 14.6417 17.1553 15.2575C17.054 15.4479 17.1262 15.6845 17.3167 15.7858C17.3751 15.8169 17.4379 15.8317 17.4998 15.8317C17.6396 15.8317 17.7748 15.7564 17.845 15.6244C18.2325 14.8962 18.4374 14.0724 18.4374 13.2422C18.4374 12.2672 18.1602 11.32 17.6359 10.503Z" fill="url(#paint1_radial_1115_8769)"/>
<path d="M13.9716 8.16416L13.9453 8.16412C13.7296 8.16412 13.5547 8.33901 13.5547 8.55475C13.5547 8.77049 13.7296 8.94537 13.9453 8.94537L13.9679 8.94541C13.9685 8.94541 13.9691 8.94541 13.9698 8.94541C14.1847 8.94541 14.3594 8.77174 14.3604 8.55662C14.3613 8.34088 14.1873 8.16518 13.9716 8.16416Z" fill="white"/>
<path d="M13.9716 8.16416L13.9453 8.16412C13.7296 8.16412 13.5547 8.33901 13.5547 8.55475C13.5547 8.77049 13.7296 8.94537 13.9453 8.94537L13.9679 8.94541C13.9685 8.94541 13.9691 8.94541 13.9698 8.94541C14.1847 8.94541 14.3594 8.77174 14.3604 8.55662C14.3613 8.34088 14.1873 8.16518 13.9716 8.16416Z" fill="url(#paint2_radial_1115_8769)"/>
<path d="M11.5003 17.1172C10.0194 16.4053 9.06259 14.8843 9.06259 13.2422C9.06259 12.5396 9.23579 11.8427 9.56341 11.2269C9.66473 11.0365 9.59251 10.8 9.40204 10.6986C9.21165 10.5973 8.97501 10.6695 8.87372 10.86C8.48618 11.5883 8.28134 12.4121 8.28134 13.2422C8.28134 14.2172 8.55849 15.1644 9.08282 15.9815C9.59309 16.7766 10.312 17.4128 11.1618 17.8214C11.2164 17.8476 11.274 17.86 11.3308 17.86C11.4763 17.86 11.6159 17.7784 11.6831 17.6386C11.7765 17.4441 11.6947 17.2107 11.5003 17.1172Z" fill="white"/>
<path d="M11.5003 17.1172C10.0194 16.4053 9.06259 14.8843 9.06259 13.2422C9.06259 12.5396 9.23579 11.8427 9.56341 11.2269C9.66473 11.0365 9.59251 10.8 9.40204 10.6986C9.21165 10.5973 8.97501 10.6695 8.87372 10.86C8.48618 11.5883 8.28134 12.4121 8.28134 13.2422C8.28134 14.2172 8.55849 15.1644 9.08282 15.9815C9.59309 16.7766 10.312 17.4128 11.1618 17.8214C11.2164 17.8476 11.274 17.86 11.3308 17.86C11.4763 17.86 11.6159 17.7784 11.6831 17.6386C11.7765 17.4441 11.6947 17.2107 11.5003 17.1172Z" fill="url(#paint3_radial_1115_8769)"/>
<path d="M12.7734 17.539L12.7508 17.5389C12.5341 17.5386 12.3594 17.712 12.3584 17.9277C12.3574 18.1435 12.5316 18.3192 12.7473 18.3202L12.7734 18.3203C12.9891 18.3203 13.164 18.1454 13.164 17.9297C13.164 17.7139 12.9891 17.539 12.7734 17.539Z" fill="white"/>
<path d="M12.7734 17.539L12.7508 17.5389C12.5341 17.5386 12.3594 17.712 12.3584 17.9277C12.3574 18.1435 12.5316 18.3192 12.7473 18.3202L12.7734 18.3203C12.9891 18.3203 13.164 18.1454 13.164 17.9297C13.164 17.7139 12.9891 17.539 12.7734 17.539Z" fill="url(#paint4_radial_1115_8769)"/>
<path d="M15.1331 6.84249C15.0856 6.72921 15.0274 6.62245 14.9596 6.52343H15.9765C16.9673 6.52343 17.7734 5.71733 17.7734 4.72655C17.7734 3.73577 16.9673 2.92968 15.9765 2.92968H12.8484C13.0473 2.64054 13.164 2.29074 13.164 1.91406C13.164 0.92328 12.3579 0.117188 11.3672 0.117188H1.79687C0.806092 0.117188 0 0.92328 0 1.91406C0 2.90484 0.806092 3.71093 1.79687 3.71093H4.92499C4.72612 4.00007 4.60937 4.34987 4.60937 4.72655C4.60937 5.10323 4.72608 5.45304 4.92499 5.74218H3.90624C2.91546 5.74218 2.10937 6.54827 2.10937 7.53905C2.10937 8.10807 2.37554 8.61584 2.78964 8.9453C2.37554 9.27475 2.10937 9.78252 2.10937 10.3515C2.10937 10.9206 2.37554 11.4283 2.78964 11.7578C2.37554 12.0872 2.10937 12.595 2.10937 13.164C2.10937 13.7331 2.37554 14.2408 2.78964 14.5703C2.37554 14.8997 2.10937 15.4075 2.10937 15.9765C2.10937 16.9673 2.91546 17.7734 3.90624 17.7734H8.50975C9.72248 19.0705 11.4477 19.8828 13.3594 19.8828C17.021 19.8828 20 16.9038 20 13.2422C20 10.1947 17.9363 7.62042 15.1331 6.84249ZM15.9765 3.71093C16.5366 3.71093 16.9922 4.16655 16.9922 4.72655C16.9922 5.28655 16.5366 5.74218 15.9765 5.74218H13.4765H6.40624C5.8462 5.74218 5.39061 5.28655 5.39061 4.72655C5.39061 4.16655 5.8462 3.71093 6.40624 3.71093H15.9765ZM1.79687 2.92968C1.23683 2.92968 0.781249 2.47406 0.781249 1.91406C0.781249 1.35406 1.23683 0.898436 1.79687 0.898436H11.3672C11.9272 0.898436 12.3828 1.35406 12.3828 1.91406C12.3828 2.47406 11.9272 2.92968 11.3672 2.92968H1.79687ZM3.90624 6.52343H13.4765C13.6339 6.52343 13.7845 6.55999 13.9197 6.62546C13.7349 6.60995 13.5481 6.60159 13.3594 6.60159C11.5256 6.60159 9.86311 7.34881 8.66022 8.55467H3.90624C3.34624 8.55467 2.89062 8.09905 2.89062 7.53905C2.89062 6.97905 3.34624 6.52343 3.90624 6.52343ZM3.90624 9.33592H7.99276C7.54932 9.94346 7.20647 10.6287 6.98874 11.3672H3.90624C3.3462 11.3672 2.89062 10.9116 2.89062 10.3515C2.89062 9.79154 3.3462 9.33592 3.90624 9.33592ZM3.90624 12.1484H6.80936C6.7501 12.5044 6.71878 12.8697 6.71878 13.2422C6.71878 13.5604 6.74178 13.8733 6.78526 14.1797H3.90624C3.3462 14.1797 2.89062 13.7241 2.89062 13.164C2.89062 12.604 3.3462 12.1484 3.90624 12.1484ZM3.90624 16.9922C3.3462 16.9922 2.89062 16.5366 2.89062 15.9765C2.89062 15.4165 3.3462 14.9609 3.90624 14.9609H6.94475C7.14186 15.6958 7.46206 16.3807 7.88198 16.9922H3.90624ZM13.3594 19.1016C10.1285 19.1016 7.50003 16.4731 7.50003 13.2422C7.50003 10.0113 10.1285 7.38284 13.3594 7.38284C16.5902 7.38284 19.2188 10.0113 19.2188 13.2422C19.2188 16.4731 16.5902 19.1016 13.3594 19.1016Z" fill="white"/>
<path d="M15.1331 6.84249C15.0856 6.72921 15.0274 6.62245 14.9596 6.52343H15.9765C16.9673 6.52343 17.7734 5.71733 17.7734 4.72655C17.7734 3.73577 16.9673 2.92968 15.9765 2.92968H12.8484C13.0473 2.64054 13.164 2.29074 13.164 1.91406C13.164 0.92328 12.3579 0.117188 11.3672 0.117188H1.79687C0.806092 0.117188 0 0.92328 0 1.91406C0 2.90484 0.806092 3.71093 1.79687 3.71093H4.92499C4.72612 4.00007 4.60937 4.34987 4.60937 4.72655C4.60937 5.10323 4.72608 5.45304 4.92499 5.74218H3.90624C2.91546 5.74218 2.10937 6.54827 2.10937 7.53905C2.10937 8.10807 2.37554 8.61584 2.78964 8.9453C2.37554 9.27475 2.10937 9.78252 2.10937 10.3515C2.10937 10.9206 2.37554 11.4283 2.78964 11.7578C2.37554 12.0872 2.10937 12.595 2.10937 13.164C2.10937 13.7331 2.37554 14.2408 2.78964 14.5703C2.37554 14.8997 2.10937 15.4075 2.10937 15.9765C2.10937 16.9673 2.91546 17.7734 3.90624 17.7734H8.50975C9.72248 19.0705 11.4477 19.8828 13.3594 19.8828C17.021 19.8828 20 16.9038 20 13.2422C20 10.1947 17.9363 7.62042 15.1331 6.84249ZM15.9765 3.71093C16.5366 3.71093 16.9922 4.16655 16.9922 4.72655C16.9922 5.28655 16.5366 5.74218 15.9765 5.74218H13.4765H6.40624C5.8462 5.74218 5.39061 5.28655 5.39061 4.72655C5.39061 4.16655 5.8462 3.71093 6.40624 3.71093H15.9765ZM1.79687 2.92968C1.23683 2.92968 0.781249 2.47406 0.781249 1.91406C0.781249 1.35406 1.23683 0.898436 1.79687 0.898436H11.3672C11.9272 0.898436 12.3828 1.35406 12.3828 1.91406C12.3828 2.47406 11.9272 2.92968 11.3672 2.92968H1.79687ZM3.90624 6.52343H13.4765C13.6339 6.52343 13.7845 6.55999 13.9197 6.62546C13.7349 6.60995 13.5481 6.60159 13.3594 6.60159C11.5256 6.60159 9.86311 7.34881 8.66022 8.55467H3.90624C3.34624 8.55467 2.89062 8.09905 2.89062 7.53905C2.89062 6.97905 3.34624 6.52343 3.90624 6.52343ZM3.90624 9.33592H7.99276C7.54932 9.94346 7.20647 10.6287 6.98874 11.3672H3.90624C3.3462 11.3672 2.89062 10.9116 2.89062 10.3515C2.89062 9.79154 3.3462 9.33592 3.90624 9.33592ZM3.90624 12.1484H6.80936C6.7501 12.5044 6.71878 12.8697 6.71878 13.2422C6.71878 13.5604 6.74178 13.8733 6.78526 14.1797H3.90624C3.3462 14.1797 2.89062 13.7241 2.89062 13.164C2.89062 12.604 3.3462 12.1484 3.90624 12.1484ZM3.90624 16.9922C3.3462 16.9922 2.89062 16.5366 2.89062 15.9765C2.89062 15.4165 3.3462 14.9609 3.90624 14.9609H6.94475C7.14186 15.6958 7.46206 16.3807 7.88198 16.9922H3.90624ZM13.3594 19.1016C10.1285 19.1016 7.50003 16.4731 7.50003 13.2422C7.50003 10.0113 10.1285 7.38284 13.3594 7.38284C16.5902 7.38284 19.2188 10.0113 19.2188 13.2422C19.2188 16.4731 16.5902 19.1016 13.3594 19.1016Z" fill="url(#paint5_radial_1115_8769)"/>
<defs>
<radialGradient id="paint0_radial_1115_8769" cx="0" cy="0" r="1" gradientUnits="userSpaceOnUse" gradientTransform="translate(11.5589 9.13093) rotate(68.5856) scale(9.41971 9.57296)">
<stop offset="0.151042" stop-color="#33A6FF"/>
<stop offset="0.907346" stop-color="#36C27F"/>
</radialGradient>
<radialGradient id="paint1_radial_1115_8769" cx="0" cy="0" r="1" gradientUnits="userSpaceOnUse" gradientTransform="translate(14.8313 7.63438) rotate(69.9858) scale(10.5364 10.1307)">
<stop offset="0.151042" stop-color="#33A6FF"/>
<stop offset="0.907346" stop-color="#36C27F"/>
</radialGradient>
<radialGradient id="paint2_radial_1115_8769" cx="0" cy="0" r="1" gradientUnits="userSpaceOnUse" gradientTransform="translate(13.5159 8.0568) rotate(51.8003) scale(1.36563 1.98428)">
<stop offset="0.151042" stop-color="#33A6FF"/>
<stop offset="0.907346" stop-color="#36C27F"/>
</radialGradient>
<radialGradient id="paint3_radial_1115_8769" cx="0" cy="0" r="1" gradientUnits="userSpaceOnUse" gradientTransform="translate(8.11569 9.66277) rotate(69.9861) scale(10.5364 10.1305)">
<stop offset="0.151042" stop-color="#33A6FF"/>
<stop offset="0.907346" stop-color="#36C27F"/>
</radialGradient>
<radialGradient id="paint4_radial_1115_8769" cx="0" cy="0" r="1" gradientUnits="userSpaceOnUse" gradientTransform="translate(12.3196 17.4316) rotate(51.8058) scale(1.36563 1.98419)">
<stop offset="0.151042" stop-color="#33A6FF"/>
<stop offset="0.907346" stop-color="#36C27F"/>
</radialGradient>
<radialGradient id="paint5_radial_1115_8769" cx="0" cy="0" r="1" gradientUnits="userSpaceOnUse" gradientTransform="translate(-0.962964 -2.59787) rotate(52.3283) scale(34.3016 49.61)">
<stop offset="0.151042" stop-color="#33A6FF"/>
<stop offset="0.907346" stop-color="#36C27F"/>
</radialGradient>
</defs>
</svg>
