<svg width="20" height="20" viewBox="0 0 20 20" fill="none" xmlns="http://www.w3.org/2000/svg">
<g clip-path="url(#clip0_1115_8810)">
<path d="M17.4664 9.76648C17.536 9.81828 17.6179 9.84371 17.6994 9.84371C17.8001 9.84371 17.9003 9.80488 17.976 9.72902L19.8857 7.8155C19.9658 7.73519 20.0071 7.62406 19.9988 7.5109C19.9904 7.39777 19.9334 7.29382 19.8424 7.22613L17.8904 5.77418V1.87598C17.8904 1.66023 17.7155 1.48535 17.4998 1.48535H14.9998C14.7841 1.48535 14.6092 1.66023 14.6092 1.87598V3.33344L10.233 0.0782031C10.0946 -0.0247656 9.90504 -0.0247656 9.76664 0.0782031L6.34614 2.62258C6.17305 2.75133 6.13708 2.99605 6.26587 3.16914C6.39466 3.34226 6.63938 3.3782 6.81243 3.24941L9.9998 0.878476L19.0136 7.58336L17.6617 8.93804L10.233 3.41223C10.0946 3.30926 9.90504 3.30926 9.76664 3.41223L2.33798 8.93804L0.986072 7.58336L4.48892 4.97777C4.662 4.84902 4.69798 4.6043 4.56919 4.43121C4.4404 4.25808 4.19571 4.22219 4.02263 4.35094L0.157285 7.22613C0.0662695 7.29382 0.00919932 7.39777 0.000879025 7.5109C-0.00748033 7.62402 0.0338086 7.73519 0.113965 7.8155L2.02361 9.72902C2.1606 9.86629 2.37759 9.88226 2.53326 9.76648L2.81232 9.55886V12.6572H0.781073C0.350292 12.6572 -0.000175661 13.0077 -0.000175661 13.4385V19.2197C-0.000175661 19.6505 0.350292 20.001 0.781073 20.001H3.43732C3.82751 20.001 4.15087 19.7131 4.20849 19.3388L6.02524 19.9788C6.06692 19.9935 6.11079 20.001 6.15501 20.001H11.7328C12.3782 20.001 13.0048 19.7714 13.4974 19.3545L17.7228 15.7786C18.0575 15.4953 18.2558 15.0982 18.281 14.6604C18.3063 14.2226 18.1551 13.8053 17.8552 13.4854C17.6656 13.2831 17.4346 13.1417 17.1873 13.0618V9.55886L17.4664 9.76648ZM17.1092 5.19304L15.3904 3.91457V2.2666H17.1092V5.19304ZM3.43732 19.2197H0.781073V13.4385H1.71857V16.3291C1.71857 16.5448 1.89349 16.7197 2.1092 16.7197C2.3249 16.7197 2.49982 16.5448 2.49982 16.3291V13.4385H3.43732V13.7504C3.43732 13.7506 3.43732 13.7508 3.43732 13.751C3.43732 13.7512 3.43732 13.7513 3.43732 13.7515L3.43775 18.773C3.43732 18.782 3.43755 18.791 3.43775 18.7999L3.43783 19.2197C3.43783 19.2197 3.43767 19.2197 3.43732 19.2197ZM17.2851 14.0196C17.4372 14.1818 17.5139 14.3934 17.5011 14.6153C17.4883 14.8373 17.3878 15.0386 17.218 15.1823L12.9927 18.7582C12.641 19.0558 12.1936 19.2197 11.7328 19.2197H6.2218L4.21857 18.5141V14.1416H7.08399C7.47032 14.1416 7.84438 14.2548 8.16578 14.4691L10.779 16.2113C10.8957 16.2891 10.9734 16.4079 10.998 16.5459C11.0226 16.684 10.9906 16.8224 10.908 16.9356C10.7634 17.1336 10.4979 17.2008 10.2768 17.095L8.0411 16.0271C7.84633 15.9341 7.61321 16.0166 7.52024 16.2112C7.42723 16.4059 7.50965 16.6391 7.70434 16.7321L9.94 17.8C10.1183 17.8851 10.3079 17.926 10.4954 17.926C10.8973 17.926 11.2894 17.7382 11.5391 17.3961C11.7484 17.1092 11.8294 16.7586 11.7672 16.4089C11.7049 16.0593 11.5079 15.7582 11.2124 15.5612L8.59914 13.8191C8.14899 13.519 7.62504 13.3603 7.08403 13.3603H4.21462C4.18048 13.0183 3.92486 12.7405 3.59361 12.673V8.97773L9.99984 4.21246L16.4061 8.97773V13.012H16.406C16.1463 13.0607 15.8954 13.1746 15.6795 13.3561L12.57 15.9698C12.4048 16.1086 12.3835 16.355 12.5223 16.5202C12.6612 16.6853 12.9075 16.7066 13.0727 16.5678L16.1822 13.9541C16.5089 13.6795 16.9934 13.7083 17.2851 14.0196Z" fill="white"/>
<path d="M17.4664 9.76648C17.536 9.81828 17.6179 9.84371 17.6994 9.84371C17.8001 9.84371 17.9003 9.80488 17.976 9.72902L19.8857 7.8155C19.9658 7.73519 20.0071 7.62406 19.9988 7.5109C19.9904 7.39777 19.9334 7.29382 19.8424 7.22613L17.8904 5.77418V1.87598C17.8904 1.66023 17.7155 1.48535 17.4998 1.48535H14.9998C14.7841 1.48535 14.6092 1.66023 14.6092 1.87598V3.33344L10.233 0.0782031C10.0946 -0.0247656 9.90504 -0.0247656 9.76664 0.0782031L6.34614 2.62258C6.17305 2.75133 6.13708 2.99605 6.26587 3.16914C6.39466 3.34226 6.63938 3.3782 6.81243 3.24941L9.9998 0.878476L19.0136 7.58336L17.6617 8.93804L10.233 3.41223C10.0946 3.30926 9.90504 3.30926 9.76664 3.41223L2.33798 8.93804L0.986072 7.58336L4.48892 4.97777C4.662 4.84902 4.69798 4.6043 4.56919 4.43121C4.4404 4.25808 4.19571 4.22219 4.02263 4.35094L0.157285 7.22613C0.0662695 7.29382 0.00919932 7.39777 0.000879025 7.5109C-0.00748033 7.62402 0.0338086 7.73519 0.113965 7.8155L2.02361 9.72902C2.1606 9.86629 2.37759 9.88226 2.53326 9.76648L2.81232 9.55886V12.6572H0.781073C0.350292 12.6572 -0.000175661 13.0077 -0.000175661 13.4385V19.2197C-0.000175661 19.6505 0.350292 20.001 0.781073 20.001H3.43732C3.82751 20.001 4.15087 19.7131 4.20849 19.3388L6.02524 19.9788C6.06692 19.9935 6.11079 20.001 6.15501 20.001H11.7328C12.3782 20.001 13.0048 19.7714 13.4974 19.3545L17.7228 15.7786C18.0575 15.4953 18.2558 15.0982 18.281 14.6604C18.3063 14.2226 18.1551 13.8053 17.8552 13.4854C17.6656 13.2831 17.4346 13.1417 17.1873 13.0618V9.55886L17.4664 9.76648ZM17.1092 5.19304L15.3904 3.91457V2.2666H17.1092V5.19304ZM3.43732 19.2197H0.781073V13.4385H1.71857V16.3291C1.71857 16.5448 1.89349 16.7197 2.1092 16.7197C2.3249 16.7197 2.49982 16.5448 2.49982 16.3291V13.4385H3.43732V13.7504C3.43732 13.7506 3.43732 13.7508 3.43732 13.751C3.43732 13.7512 3.43732 13.7513 3.43732 13.7515L3.43775 18.773C3.43732 18.782 3.43755 18.791 3.43775 18.7999L3.43783 19.2197C3.43783 19.2197 3.43767 19.2197 3.43732 19.2197ZM17.2851 14.0196C17.4372 14.1818 17.5139 14.3934 17.5011 14.6153C17.4883 14.8373 17.3878 15.0386 17.218 15.1823L12.9927 18.7582C12.641 19.0558 12.1936 19.2197 11.7328 19.2197H6.2218L4.21857 18.5141V14.1416H7.08399C7.47032 14.1416 7.84438 14.2548 8.16578 14.4691L10.779 16.2113C10.8957 16.2891 10.9734 16.4079 10.998 16.5459C11.0226 16.684 10.9906 16.8224 10.908 16.9356C10.7634 17.1336 10.4979 17.2008 10.2768 17.095L8.0411 16.0271C7.84633 15.9341 7.61321 16.0166 7.52024 16.2112C7.42723 16.4059 7.50965 16.6391 7.70434 16.7321L9.94 17.8C10.1183 17.8851 10.3079 17.926 10.4954 17.926C10.8973 17.926 11.2894 17.7382 11.5391 17.3961C11.7484 17.1092 11.8294 16.7586 11.7672 16.4089C11.7049 16.0593 11.5079 15.7582 11.2124 15.5612L8.59914 13.8191C8.14899 13.519 7.62504 13.3603 7.08403 13.3603H4.21462C4.18048 13.0183 3.92486 12.7405 3.59361 12.673V8.97773L9.99984 4.21246L16.4061 8.97773V13.012H16.406C16.1463 13.0607 15.8954 13.1746 15.6795 13.3561L12.57 15.9698C12.4048 16.1086 12.3835 16.355 12.5223 16.5202C12.6612 16.6853 12.9075 16.7066 13.0727 16.5678L16.1822 13.9541C16.5089 13.6795 16.9934 13.7083 17.2851 14.0196Z" fill="url(#paint0_radial_1115_8810)"/>
<path d="M5.7284 3.49733C5.65578 3.42467 5.555 3.38287 5.45227 3.38287C5.34911 3.38287 5.24832 3.42467 5.17571 3.49733C5.10305 3.56998 5.06165 3.67076 5.06165 3.7735C5.06165 3.87623 5.10305 3.97701 5.17571 4.04967C5.24875 4.12233 5.34914 4.16412 5.45227 4.16412C5.555 4.16412 5.65535 4.12233 5.7284 4.04967C5.80106 3.97701 5.84289 3.87623 5.84289 3.7735C5.84289 3.67076 5.8011 3.56998 5.7284 3.49733Z" fill="white"/>
<path d="M5.7284 3.49733C5.65578 3.42467 5.555 3.38287 5.45227 3.38287C5.34911 3.38287 5.24832 3.42467 5.17571 3.49733C5.10305 3.56998 5.06165 3.67076 5.06165 3.7735C5.06165 3.87623 5.10305 3.97701 5.17571 4.04967C5.24875 4.12233 5.34914 4.16412 5.45227 4.16412C5.555 4.16412 5.65535 4.12233 5.7284 4.04967C5.80106 3.97701 5.84289 3.87623 5.84289 3.7735C5.84289 3.67076 5.8011 3.56998 5.7284 3.49733Z" fill="url(#paint1_radial_1115_8810)"/>
<path d="M11.4936 7.54855C11.3058 7.44245 11.0675 7.50874 10.9615 7.69667L8.36203 12.3012C8.25597 12.4891 8.32226 12.7274 8.51015 12.8334C8.57085 12.8677 8.63675 12.884 8.70183 12.884C8.83812 12.884 8.97054 12.8125 9.04234 12.6853L11.6418 8.08073C11.7478 7.89288 11.6815 7.6546 11.4936 7.54855Z" fill="white"/>
<path d="M11.4936 7.54855C11.3058 7.44245 11.0675 7.50874 10.9615 7.69667L8.36203 12.3012C8.25597 12.4891 8.32226 12.7274 8.51015 12.8334C8.57085 12.8677 8.63675 12.884 8.70183 12.884C8.83812 12.884 8.97054 12.8125 9.04234 12.6853L11.6418 8.08073C11.7478 7.89288 11.6815 7.6546 11.4936 7.54855Z" fill="url(#paint2_radial_1115_8810)"/>
<path d="M11.7205 10.5042C10.9882 10.5042 10.3924 11.1 10.3924 11.8323C10.3924 12.5647 10.9882 13.1605 11.7205 13.1605C12.4529 13.1605 13.0486 12.5647 13.0486 11.8323C13.0486 11.1 12.4529 10.5042 11.7205 10.5042ZM11.7205 12.3792C11.419 12.3792 11.1736 12.1339 11.1736 11.8323C11.1736 11.5308 11.419 11.2855 11.7205 11.2855C12.0221 11.2855 12.2674 11.5308 12.2674 11.8323C12.2674 12.1339 12.0221 12.3792 11.7205 12.3792Z" fill="white"/>
<path d="M11.7205 10.5042C10.9882 10.5042 10.3924 11.1 10.3924 11.8323C10.3924 12.5647 10.9882 13.1605 11.7205 13.1605C12.4529 13.1605 13.0486 12.5647 13.0486 11.8323C13.0486 11.1 12.4529 10.5042 11.7205 10.5042ZM11.7205 12.3792C11.419 12.3792 11.1736 12.1339 11.1736 11.8323C11.1736 11.5308 11.419 11.2855 11.7205 11.2855C12.0221 11.2855 12.2674 11.5308 12.2674 11.8323C12.2674 12.1339 12.0221 12.3792 11.7205 12.3792Z" fill="url(#paint3_radial_1115_8810)"/>
<path d="M8.28332 6.71924C7.55098 6.71924 6.9552 7.31502 6.9552 8.04736C6.9552 8.7797 7.55098 9.37548 8.28332 9.37548C9.01567 9.37548 9.61145 8.7797 9.61145 8.04736C9.61145 7.31502 9.01567 6.71924 8.28332 6.71924ZM8.28332 8.59423C7.98176 8.59423 7.73645 8.34892 7.73645 8.04736C7.73645 7.7458 7.98176 7.50049 8.28332 7.50049C8.58488 7.50049 8.8302 7.7458 8.8302 8.04736C8.8302 8.34892 8.58488 8.59423 8.28332 8.59423Z" fill="white"/>
<path d="M8.28332 6.71924C7.55098 6.71924 6.9552 7.31502 6.9552 8.04736C6.9552 8.7797 7.55098 9.37548 8.28332 9.37548C9.01567 9.37548 9.61145 8.7797 9.61145 8.04736C9.61145 7.31502 9.01567 6.71924 8.28332 6.71924ZM8.28332 8.59423C7.98176 8.59423 7.73645 8.34892 7.73645 8.04736C7.73645 7.7458 7.98176 7.50049 8.28332 7.50049C8.58488 7.50049 8.8302 7.7458 8.8302 8.04736C8.8302 8.34892 8.58488 8.59423 8.28332 8.59423Z" fill="url(#paint4_radial_1115_8810)"/>
<path d="M2.40504 17.595C2.33242 17.5223 2.23164 17.4805 2.12891 17.4805C2.02617 17.4805 1.92539 17.5223 1.85273 17.595C1.77969 17.6676 1.73828 17.7684 1.73828 17.8712C1.73828 17.9739 1.77969 18.0747 1.85273 18.1473C1.92539 18.22 2.02617 18.2618 2.12891 18.2618C2.23164 18.2618 2.33242 18.22 2.40504 18.1473C2.47769 18.0747 2.51953 17.9739 2.51953 17.8712C2.51953 17.7684 2.47773 17.6676 2.40504 17.595Z" fill="white"/>
<path d="M2.40504 17.595C2.33242 17.5223 2.23164 17.4805 2.12891 17.4805C2.02617 17.4805 1.92539 17.5223 1.85273 17.595C1.77969 17.6676 1.73828 17.7684 1.73828 17.8712C1.73828 17.9739 1.77969 18.0747 1.85273 18.1473C1.92539 18.22 2.02617 18.2618 2.12891 18.2618C2.23164 18.2618 2.33242 18.22 2.40504 18.1473C2.47769 18.0747 2.51953 17.9739 2.51953 17.8712C2.51953 17.7684 2.47773 17.6676 2.40504 17.595Z" fill="url(#paint5_radial_1115_8810)"/>
</g>
<defs>
<radialGradient id="paint0_radial_1115_8810" cx="0" cy="0" r="1" gradientUnits="userSpaceOnUse" gradientTransform="translate(-0.963147 -2.74627) rotate(52.6545) scale(34.557 49.8273)">
<stop offset="0.151042" stop-color="#33A6FF"/>
<stop offset="0.907346" stop-color="#36C27F"/>
</radialGradient>
<radialGradient id="paint1_radial_1115_8810" cx="0" cy="0" r="1" gradientUnits="userSpaceOnUse" gradientTransform="translate(5.02403 3.27556) rotate(52.6545) scale(1.34988 1.94637)">
<stop offset="0.151042" stop-color="#33A6FF"/>
<stop offset="0.907346" stop-color="#36C27F"/>
</radialGradient>
<radialGradient id="paint2_radial_1115_8810" cx="0" cy="0" r="1" gradientUnits="userSpaceOnUse" gradientTransform="translate(8.14871 6.75816) rotate(64.4068) scale(8.20317 9.55535)">
<stop offset="0.151042" stop-color="#33A6FF"/>
<stop offset="0.907346" stop-color="#36C27F"/>
</radialGradient>
<radialGradient id="paint3_radial_1115_8810" cx="0" cy="0" r="1" gradientUnits="userSpaceOnUse" gradientTransform="translate(10.2645 10.1393) rotate(52.6545) scale(4.58959 6.61768)">
<stop offset="0.151042" stop-color="#33A6FF"/>
<stop offset="0.907346" stop-color="#36C27F"/>
</radialGradient>
<radialGradient id="paint4_radial_1115_8810" cx="0" cy="0" r="1" gradientUnits="userSpaceOnUse" gradientTransform="translate(6.82731 6.35437) rotate(52.6545) scale(4.58959 6.61768)">
<stop offset="0.151042" stop-color="#33A6FF"/>
<stop offset="0.907346" stop-color="#36C27F"/>
</radialGradient>
<radialGradient id="paint5_radial_1115_8810" cx="0" cy="0" r="1" gradientUnits="userSpaceOnUse" gradientTransform="translate(1.70067 17.3732) rotate(52.6545) scale(1.34988 1.94638)">
<stop offset="0.151042" stop-color="#33A6FF"/>
<stop offset="0.907346" stop-color="#36C27F"/>
</radialGradient>
<clipPath id="clip0_1115_8810">
<rect width="20" height="20" fill="white"/>
</clipPath>
</defs>
</svg>
