<svg width="20" height="21" viewBox="0 0 20 21" fill="none" xmlns="http://www.w3.org/2000/svg">
<g clip-path="url(#clip0_1115_8531)">
<path d="M13.3575 13.3265C12.8836 13.3265 12.4981 12.9928 12.4981 12.5827C12.4981 12.1726 12.8836 11.8389 13.3575 11.8389C13.8313 11.8389 14.2168 12.1726 14.2168 12.5827C14.2168 12.7984 14.3918 12.9733 14.6075 12.9733C14.8232 12.9733 14.9981 12.7984 14.9981 12.5827C14.9981 11.8669 14.4647 11.265 13.7481 11.1017V10.8985C13.7481 10.6828 13.5732 10.5079 13.3575 10.5079C13.1418 10.5079 12.9668 10.6828 12.9668 10.8985V11.1017C12.2502 11.265 11.7168 11.8669 11.7168 12.5827C11.7168 13.4236 12.4528 14.1078 13.3575 14.1078C13.8313 14.1078 14.2168 14.4414 14.2168 14.8516C14.2168 15.2617 13.8313 15.5954 13.3575 15.5954C12.8836 15.5954 12.4981 15.2617 12.4981 14.8516C12.4981 14.6359 12.3232 14.461 12.1075 14.461C11.8918 14.461 11.7168 14.6359 11.7168 14.8516C11.7168 15.5674 12.2502 16.1693 12.9668 16.3326V16.5014C12.9668 16.7171 13.1418 16.892 13.3575 16.892C13.5732 16.892 13.7481 16.7171 13.7481 16.5014V16.3326C14.4647 16.1693 14.9981 15.5674 14.9981 14.8516C14.9981 14.0106 14.2621 13.3265 13.3575 13.3265Z" fill="white"/>
<path d="M13.3575 13.3265C12.8836 13.3265 12.4981 12.9928 12.4981 12.5827C12.4981 12.1726 12.8836 11.8389 13.3575 11.8389C13.8313 11.8389 14.2168 12.1726 14.2168 12.5827C14.2168 12.7984 14.3918 12.9733 14.6075 12.9733C14.8232 12.9733 14.9981 12.7984 14.9981 12.5827C14.9981 11.8669 14.4647 11.265 13.7481 11.1017V10.8985C13.7481 10.6828 13.5732 10.5079 13.3575 10.5079C13.1418 10.5079 12.9668 10.6828 12.9668 10.8985V11.1017C12.2502 11.265 11.7168 11.8669 11.7168 12.5827C11.7168 13.4236 12.4528 14.1078 13.3575 14.1078C13.8313 14.1078 14.2168 14.4414 14.2168 14.8516C14.2168 15.2617 13.8313 15.5954 13.3575 15.5954C12.8836 15.5954 12.4981 15.2617 12.4981 14.8516C12.4981 14.6359 12.3232 14.461 12.1075 14.461C11.8918 14.461 11.7168 14.6359 11.7168 14.8516C11.7168 15.5674 12.2502 16.1693 12.9668 16.3326V16.5014C12.9668 16.7171 13.1418 16.892 13.3575 16.892C13.5732 16.892 13.7481 16.7171 13.7481 16.5014V16.3326C14.4647 16.1693 14.9981 15.5674 14.9981 14.8516C14.9981 14.0106 14.2621 13.3265 13.3575 13.3265Z" fill="url(#paint0_radial_1115_8531)"/>
<path d="M17.6359 11.003C17.1256 10.2078 16.4067 9.57159 15.5569 9.16307C15.3624 9.06955 15.129 9.15143 15.0356 9.34588C14.9421 9.54034 15.0239 9.7737 15.2184 9.86717C16.6993 10.579 17.6561 12.1001 17.6561 13.7422C17.6561 14.4449 17.4829 15.1417 17.1553 15.7575C17.054 15.9479 17.1262 16.1845 17.3167 16.2858C17.3751 16.3169 17.4379 16.3317 17.4998 16.3317C17.6396 16.3317 17.7748 16.2564 17.845 16.1244C18.2325 15.3962 18.4374 14.5724 18.4374 13.7422C18.4374 12.7672 18.1602 11.82 17.6359 11.003Z" fill="white"/>
<path d="M17.6359 11.003C17.1256 10.2078 16.4067 9.57159 15.5569 9.16307C15.3624 9.06955 15.129 9.15143 15.0356 9.34588C14.9421 9.54034 15.0239 9.7737 15.2184 9.86717C16.6993 10.579 17.6561 12.1001 17.6561 13.7422C17.6561 14.4449 17.4829 15.1417 17.1553 15.7575C17.054 15.9479 17.1262 16.1845 17.3167 16.2858C17.3751 16.3169 17.4379 16.3317 17.4998 16.3317C17.6396 16.3317 17.7748 16.2564 17.845 16.1244C18.2325 15.3962 18.4374 14.5724 18.4374 13.7422C18.4374 12.7672 18.1602 11.82 17.6359 11.003Z" fill="url(#paint1_radial_1115_8531)"/>
<path d="M13.9716 8.66416L13.9453 8.66412C13.7296 8.66412 13.5547 8.83901 13.5547 9.05475C13.5547 9.27049 13.7296 9.44537 13.9453 9.44537L13.9679 9.44541C13.9685 9.44541 13.9691 9.44541 13.9698 9.44541C14.1847 9.44541 14.3594 9.27174 14.3604 9.05662C14.3614 8.84088 14.1873 8.66518 13.9716 8.66416Z" fill="white"/>
<path d="M13.9716 8.66416L13.9453 8.66412C13.7296 8.66412 13.5547 8.83901 13.5547 9.05475C13.5547 9.27049 13.7296 9.44537 13.9453 9.44537L13.9679 9.44541C13.9685 9.44541 13.9691 9.44541 13.9698 9.44541C14.1847 9.44541 14.3594 9.27174 14.3604 9.05662C14.3614 8.84088 14.1873 8.66518 13.9716 8.66416Z" fill="url(#paint2_radial_1115_8531)"/>
<path d="M11.5003 17.6172C10.0194 16.9053 9.0626 15.3843 9.0626 13.7422C9.0626 13.0396 9.23581 12.3427 9.56342 11.7269C9.66475 11.5365 9.59252 11.3 9.40206 11.1986C9.21167 11.0973 8.97503 11.1695 8.87374 11.36C8.4862 12.0883 8.28136 12.9121 8.28136 13.7422C8.28136 14.7172 8.5585 15.6644 9.08284 16.4815C9.59311 17.2766 10.312 17.9128 11.1618 18.3214C11.2164 18.3476 11.274 18.36 11.3308 18.36C11.4763 18.36 11.6159 18.2784 11.6831 18.1386C11.7765 17.9441 11.6947 17.7107 11.5003 17.6172Z" fill="white"/>
<path d="M11.5003 17.6172C10.0194 16.9053 9.0626 15.3843 9.0626 13.7422C9.0626 13.0396 9.23581 12.3427 9.56342 11.7269C9.66475 11.5365 9.59252 11.3 9.40206 11.1986C9.21167 11.0973 8.97503 11.1695 8.87374 11.36C8.4862 12.0883 8.28136 12.9121 8.28136 13.7422C8.28136 14.7172 8.5585 15.6644 9.08284 16.4815C9.59311 17.2766 10.312 17.9128 11.1618 18.3214C11.2164 18.3476 11.274 18.36 11.3308 18.36C11.4763 18.36 11.6159 18.2784 11.6831 18.1386C11.7765 17.9441 11.6947 17.7107 11.5003 17.6172Z" fill="url(#paint3_radial_1115_8531)"/>
<path d="M12.7734 18.039L12.7508 18.0389C12.5341 18.0386 12.3594 18.212 12.3584 18.4277C12.3574 18.6435 12.5316 18.8192 12.7473 18.8202L12.7734 18.8203C12.9891 18.8203 13.164 18.6454 13.164 18.4297C13.164 18.2139 12.9891 18.039 12.7734 18.039Z" fill="white"/>
<path d="M12.7734 18.039L12.7508 18.0389C12.5341 18.0386 12.3594 18.212 12.3584 18.4277C12.3574 18.6435 12.5316 18.8192 12.7473 18.8202L12.7734 18.8203C12.9891 18.8203 13.164 18.6454 13.164 18.4297C13.164 18.2139 12.9891 18.039 12.7734 18.039Z" fill="url(#paint4_radial_1115_8531)"/>
<path d="M15.1331 7.34249C15.0856 7.22921 15.0274 7.12245 14.9596 7.02343H15.9765C16.9673 7.02343 17.7734 6.21733 17.7734 5.22655C17.7734 4.23577 16.9673 3.42968 15.9765 3.42968H12.8484C13.0473 3.14054 13.164 2.79074 13.164 2.41406C13.164 1.42328 12.3579 0.617188 11.3672 0.617188H1.79687C0.806092 0.617188 0 1.42328 0 2.41406C0 3.40484 0.806092 4.21093 1.79687 4.21093H4.92499C4.72612 4.50007 4.60937 4.84987 4.60937 5.22655C4.60937 5.60323 4.72608 5.95304 4.92499 6.24218H3.90624C2.91546 6.24218 2.10937 7.04827 2.10937 8.03905C2.10937 8.60807 2.37554 9.11584 2.78964 9.4453C2.37554 9.77475 2.10937 10.2825 2.10937 10.8515C2.10937 11.4206 2.37554 11.9283 2.78964 12.2578C2.37554 12.5872 2.10937 13.095 2.10937 13.664C2.10937 14.2331 2.37554 14.7408 2.78964 15.0703C2.37554 15.3997 2.10937 15.9075 2.10937 16.4765C2.10937 17.4673 2.91546 18.2734 3.90624 18.2734H8.50975C9.72248 19.5705 11.4477 20.3828 13.3594 20.3828C17.021 20.3828 20 17.4038 20 13.7422C20 10.6947 17.9363 8.12042 15.1331 7.34249ZM15.9765 4.21093C16.5366 4.21093 16.9922 4.66655 16.9922 5.22655C16.9922 5.78655 16.5366 6.24218 15.9765 6.24218H13.4765H6.40624C5.8462 6.24218 5.39061 5.78655 5.39061 5.22655C5.39061 4.66655 5.8462 4.21093 6.40624 4.21093H15.9765ZM1.79687 3.42968C1.23683 3.42968 0.781249 2.97406 0.781249 2.41406C0.781249 1.85406 1.23683 1.39844 1.79687 1.39844H11.3672C11.9272 1.39844 12.3828 1.85406 12.3828 2.41406C12.3828 2.97406 11.9272 3.42968 11.3672 3.42968H1.79687ZM3.90624 7.02343H13.4765C13.6339 7.02343 13.7845 7.05999 13.9197 7.12546C13.7349 7.10995 13.5481 7.10159 13.3594 7.10159C11.5256 7.10159 9.86311 7.84881 8.66022 9.05467H3.90624C3.34624 9.05467 2.89062 8.59905 2.89062 8.03905C2.89062 7.47905 3.34624 7.02343 3.90624 7.02343ZM3.90624 9.83592H7.99276C7.54932 10.4435 7.20647 11.1287 6.98874 11.8672H3.90624C3.3462 11.8672 2.89062 11.4116 2.89062 10.8515C2.89062 10.2915 3.3462 9.83592 3.90624 9.83592ZM3.90624 12.6484H6.80936C6.7501 13.0044 6.71878 13.3697 6.71878 13.7422C6.71878 14.0604 6.74178 14.3733 6.78526 14.6797H3.90624C3.3462 14.6797 2.89062 14.2241 2.89062 13.664C2.89062 13.104 3.3462 12.6484 3.90624 12.6484ZM3.90624 17.4922C3.3462 17.4922 2.89062 17.0366 2.89062 16.4765C2.89062 15.9165 3.3462 15.4609 3.90624 15.4609H6.94475C7.14186 16.1958 7.46206 16.8807 7.88198 17.4922H3.90624ZM13.3594 19.6016C10.1285 19.6016 7.50002 16.9731 7.50002 13.7422C7.50002 10.5113 10.1285 7.88284 13.3594 7.88284C16.5902 7.88284 19.2188 10.5113 19.2188 13.7422C19.2188 16.9731 16.5902 19.6016 13.3594 19.6016Z" fill="white"/>
<path d="M15.1331 7.34249C15.0856 7.22921 15.0274 7.12245 14.9596 7.02343H15.9765C16.9673 7.02343 17.7734 6.21733 17.7734 5.22655C17.7734 4.23577 16.9673 3.42968 15.9765 3.42968H12.8484C13.0473 3.14054 13.164 2.79074 13.164 2.41406C13.164 1.42328 12.3579 0.617188 11.3672 0.617188H1.79687C0.806092 0.617188 0 1.42328 0 2.41406C0 3.40484 0.806092 4.21093 1.79687 4.21093H4.92499C4.72612 4.50007 4.60937 4.84987 4.60937 5.22655C4.60937 5.60323 4.72608 5.95304 4.92499 6.24218H3.90624C2.91546 6.24218 2.10937 7.04827 2.10937 8.03905C2.10937 8.60807 2.37554 9.11584 2.78964 9.4453C2.37554 9.77475 2.10937 10.2825 2.10937 10.8515C2.10937 11.4206 2.37554 11.9283 2.78964 12.2578C2.37554 12.5872 2.10937 13.095 2.10937 13.664C2.10937 14.2331 2.37554 14.7408 2.78964 15.0703C2.37554 15.3997 2.10937 15.9075 2.10937 16.4765C2.10937 17.4673 2.91546 18.2734 3.90624 18.2734H8.50975C9.72248 19.5705 11.4477 20.3828 13.3594 20.3828C17.021 20.3828 20 17.4038 20 13.7422C20 10.6947 17.9363 8.12042 15.1331 7.34249ZM15.9765 4.21093C16.5366 4.21093 16.9922 4.66655 16.9922 5.22655C16.9922 5.78655 16.5366 6.24218 15.9765 6.24218H13.4765H6.40624C5.8462 6.24218 5.39061 5.78655 5.39061 5.22655C5.39061 4.66655 5.8462 4.21093 6.40624 4.21093H15.9765ZM1.79687 3.42968C1.23683 3.42968 0.781249 2.97406 0.781249 2.41406C0.781249 1.85406 1.23683 1.39844 1.79687 1.39844H11.3672C11.9272 1.39844 12.3828 1.85406 12.3828 2.41406C12.3828 2.97406 11.9272 3.42968 11.3672 3.42968H1.79687ZM3.90624 7.02343H13.4765C13.6339 7.02343 13.7845 7.05999 13.9197 7.12546C13.7349 7.10995 13.5481 7.10159 13.3594 7.10159C11.5256 7.10159 9.86311 7.84881 8.66022 9.05467H3.90624C3.34624 9.05467 2.89062 8.59905 2.89062 8.03905C2.89062 7.47905 3.34624 7.02343 3.90624 7.02343ZM3.90624 9.83592H7.99276C7.54932 10.4435 7.20647 11.1287 6.98874 11.8672H3.90624C3.3462 11.8672 2.89062 11.4116 2.89062 10.8515C2.89062 10.2915 3.3462 9.83592 3.90624 9.83592ZM3.90624 12.6484H6.80936C6.7501 13.0044 6.71878 13.3697 6.71878 13.7422C6.71878 14.0604 6.74178 14.3733 6.78526 14.6797H3.90624C3.3462 14.6797 2.89062 14.2241 2.89062 13.664C2.89062 13.104 3.3462 12.6484 3.90624 12.6484ZM3.90624 17.4922C3.3462 17.4922 2.89062 17.0366 2.89062 16.4765C2.89062 15.9165 3.3462 15.4609 3.90624 15.4609H6.94475C7.14186 16.1958 7.46206 16.8807 7.88198 17.4922H3.90624ZM13.3594 19.6016C10.1285 19.6016 7.50002 16.9731 7.50002 13.7422C7.50002 10.5113 10.1285 7.88284 13.3594 7.88284C16.5902 7.88284 19.2188 10.5113 19.2188 13.7422C19.2188 16.9731 16.5902 19.6016 13.3594 19.6016Z" fill="url(#paint5_radial_1115_8531)"/>
</g>
<defs>
<radialGradient id="paint0_radial_1115_8531" cx="0" cy="0" r="1" gradientUnits="userSpaceOnUse" gradientTransform="translate(11.5589 9.63093) rotate(68.5856) scale(9.41971 9.57296)">
<stop offset="0.151042" stop-color="#33A6FF"/>
<stop offset="0.907346" stop-color="#36C27F"/>
</radialGradient>
<radialGradient id="paint1_radial_1115_8531" cx="0" cy="0" r="1" gradientUnits="userSpaceOnUse" gradientTransform="translate(14.8313 8.13438) rotate(69.9858) scale(10.5364 10.1307)">
<stop offset="0.151042" stop-color="#33A6FF"/>
<stop offset="0.907346" stop-color="#36C27F"/>
</radialGradient>
<radialGradient id="paint2_radial_1115_8531" cx="0" cy="0" r="1" gradientUnits="userSpaceOnUse" gradientTransform="translate(13.5159 8.5568) rotate(51.8003) scale(1.36563 1.98428)">
<stop offset="0.151042" stop-color="#33A6FF"/>
<stop offset="0.907346" stop-color="#36C27F"/>
</radialGradient>
<radialGradient id="paint3_radial_1115_8531" cx="0" cy="0" r="1" gradientUnits="userSpaceOnUse" gradientTransform="translate(8.11571 10.1628) rotate(69.9861) scale(10.5364 10.1305)">
<stop offset="0.151042" stop-color="#33A6FF"/>
<stop offset="0.907346" stop-color="#36C27F"/>
</radialGradient>
<radialGradient id="paint4_radial_1115_8531" cx="0" cy="0" r="1" gradientUnits="userSpaceOnUse" gradientTransform="translate(12.3196 17.9316) rotate(51.8058) scale(1.36563 1.98419)">
<stop offset="0.151042" stop-color="#33A6FF"/>
<stop offset="0.907346" stop-color="#36C27F"/>
</radialGradient>
<radialGradient id="paint5_radial_1115_8531" cx="0" cy="0" r="1" gradientUnits="userSpaceOnUse" gradientTransform="translate(-0.962964 -2.09787) rotate(52.3283) scale(34.3016 49.61)">
<stop offset="0.151042" stop-color="#33A6FF"/>
<stop offset="0.907346" stop-color="#36C27F"/>
</radialGradient>
<clipPath id="clip0_1115_8531">
<rect width="20" height="20" fill="white" transform="translate(0 0.5)"/>
</clipPath>
</defs>
</svg>
