<svg width="20" height="20" viewBox="0 0 20 20" fill="none" xmlns="http://www.w3.org/2000/svg">
<path d="M8.4375 15H9.0625V15.625H8.4375V15Z" fill="white"/>
<path d="M8.4375 15H9.0625V15.625H8.4375V15Z" fill="url(#paint0_radial_1115_8748)"/>
<path d="M8.4375 16.25H9.0625V16.875H8.4375V16.25Z" fill="white"/>
<path d="M8.4375 16.25H9.0625V16.875H8.4375V16.25Z" fill="url(#paint1_radial_1115_8748)"/>
<path d="M8.4375 17.5H9.0625V18.125H8.4375V17.5Z" fill="white"/>
<path d="M8.4375 17.5H9.0625V18.125H8.4375V17.5Z" fill="url(#paint2_radial_1115_8748)"/>
<path d="M17.2187 13.75C16.875 12.9687 16.2812 12.3438 15.5312 12L12.9687 10.8125C13.0937 10.625 13.2187 10.4375 13.3437 10.25L14.7812 9.09375C14.9375 8.96875 15.0312 8.78125 15.0312 8.59375V7.90625C15.0312 7.5625 14.75 7.28125 14.4062 7.28125C14.3437 7.28125 14.3125 7.28125 14.25 7.3125L14.1875 7.34375L14.5625 6.78125C14.875 6.3125 15.0312 5.78125 15.0312 5.21875V5.15625C15.0312 3.8125 14.25 2.59375 13.0625 2.03125L9.99997 0.59375L6.96872 2C5.74997 2.5625 4.99997 3.78125 4.99997 5.125V5.1875C4.99997 5.75 5.15622 6.28125 5.46872 6.75L5.84372 7.3125L5.78122 7.28125C5.43747 7.1875 5.09372 7.40625 5.03122 7.75C5.03122 7.8125 4.99997 7.84375 4.99997 7.90625V8.59375C4.99997 8.78125 5.09372 8.96875 5.24997 9.09375L6.68747 10.25C6.78122 10.4375 6.90622 10.625 7.06247 10.8125L4.49997 12C3.28122 12.5625 2.53122 13.7812 2.53122 15.125V19.375H17.2187C17.75 19.375 18.1562 18.9687 18.1562 18.4375V14.6875C18.125 14.1875 17.7187 13.7812 17.2187 13.75V13.75ZM16.5312 13.75H12.8125C12.5937 13.75 12.375 13.8125 12.2187 13.9687C12.4375 13.1562 13 12.4375 13.75 12.0625L13.9687 11.9687L15.25 12.5625C15.7812 12.8125 16.2187 13.2187 16.5312 13.75V13.75ZM13.125 6.875H12.4375C12.3125 6.5 11.9687 6.25 11.5625 6.25H10.875C10.625 6.25 10.375 6.34375 10.2187 6.53125L9.96872 6.78125L9.81247 6.59375C9.62497 6.375 9.37497 6.25 9.06247 6.25H8.43747C8.03122 6.25 7.68747 6.5 7.56247 6.875H6.87497V6.28125C6.87497 5.84375 7.15622 5.5 7.56247 5.375L9.99997 4.6875L12.4375 5.34375C12.8437 5.46875 13.125 5.8125 13.125 6.25V6.875ZM11.875 7.1875V7.5C11.875 7.6875 11.75 7.8125 11.5625 7.8125H10.9375C10.8437 7.8125 10.75 7.78125 10.6875 7.6875L10.3437 7.28125L10.6562 6.96875C10.7187 6.90625 10.7812 6.875 10.875 6.875H11.5625C11.75 6.875 11.875 7 11.875 7.1875V7.1875ZM9.49997 7.21875L8.99997 7.71875C8.93747 7.78125 8.87497 7.8125 8.78122 7.8125H8.43747C8.24997 7.8125 8.12497 7.6875 8.12497 7.5V7.1875C8.12497 7 8.24997 6.875 8.43747 6.875H9.06247C9.15622 6.875 9.24997 6.90625 9.31247 7L9.49997 7.21875ZM6.87497 7.5H7.49997C7.49997 8.03125 7.90622 8.4375 8.43747 8.4375H8.81247C9.06247 8.4375 9.31247 8.34375 9.46872 8.15625L9.90622 7.71875L10.1875 8.09375C10.375 8.3125 10.625 8.4375 10.9375 8.4375H11.5625C12.0937 8.4375 12.5 8.03125 12.5 7.5H13.125V8.5C13.125 9.78125 12.3437 10.9375 11.1562 11.4062L10.8125 11.5312C10.625 11.5938 10.4375 11.6562 10.25 11.6875C10.0937 11.7188 9.93747 11.7188 9.78122 11.6875C9.59372 11.6562 9.40622 11.625 9.21872 11.5312L8.87497 11.4062C7.65622 10.9375 6.87497 9.78125 6.87497 8.5V7.5ZM12.5 11.2812L13.25 11.625C12.5625 12.0312 12.0312 12.6562 11.75 13.4062L10.7187 12.2187C10.8437 12.1875 10.9375 12.1562 11.0625 12.125L11.4062 12C11.7812 11.8125 12.1875 11.5625 12.5 11.2812V11.2812ZM8.62497 11.9687L8.96872 12.0937C9.06247 12.125 9.18747 12.1562 9.31247 12.1875L8.28122 13.375C7.99997 12.625 7.46872 12 6.78122 11.5937L7.53122 11.25C7.81247 11.5625 8.21872 11.8125 8.62497 11.9687V11.9687ZM11.875 14.5625V14.6875V18.4375C11.875 18.5312 11.9062 18.6562 11.9375 18.75H10.3125V12.7187L11.875 14.5625ZM14.375 7.90625V8.59375L13.6875 9.15625C13.7187 8.9375 13.75 8.71875 13.75 8.5V8.0625L14.375 7.90625ZM5.62497 5.125C5.62497 4.03125 6.24997 3.03125 7.24997 2.5625L9.99997 1.28125L12.75 2.5625C13.75 3.03125 14.375 4.03125 14.375 5.125V5.1875C14.375 5.625 14.25 6.03125 14 6.40625L13.75 6.78125V6.28125C13.75 5.5625 13.2812 4.96875 12.5937 4.78125L9.99997 4.0625L7.40622 4.78125C6.71872 4.96875 6.24997 5.59375 6.24997 6.28125V6.78125L5.99997 6.40625C5.74997 6.03125 5.62497 5.625 5.62497 5.1875V5.125ZM5.62497 8.59375V7.90625L6.24997 8.0625V8.5C6.24997 8.71875 6.28122 8.9375 6.31247 9.15625L5.62497 8.59375ZM3.12497 15.125C3.12497 14.0312 3.74997 13.0312 4.74997 12.5625L6.03122 11.9687L6.24997 12.0625C7.06247 12.4687 7.65622 13.2187 7.81247 14.125L7.93747 14.75L9.68747 12.7187V18.75H6.56247V16.25H5.93747V18.75H3.12497V15.125ZM17.5 18.4375C17.5 18.625 17.375 18.75 17.1875 18.75H12.8125C12.625 18.75 12.5 18.625 12.5 18.4375V14.6875C12.5 14.5 12.625 14.375 12.8125 14.375H17.1875C17.375 14.375 17.5 14.5 17.5 14.6875V18.4375Z" fill="white"/>
<path d="M17.2187 13.75C16.875 12.9687 16.2812 12.3438 15.5312 12L12.9687 10.8125C13.0937 10.625 13.2187 10.4375 13.3437 10.25L14.7812 9.09375C14.9375 8.96875 15.0312 8.78125 15.0312 8.59375V7.90625C15.0312 7.5625 14.75 7.28125 14.4062 7.28125C14.3437 7.28125 14.3125 7.28125 14.25 7.3125L14.1875 7.34375L14.5625 6.78125C14.875 6.3125 15.0312 5.78125 15.0312 5.21875V5.15625C15.0312 3.8125 14.25 2.59375 13.0625 2.03125L9.99997 0.59375L6.96872 2C5.74997 2.5625 4.99997 3.78125 4.99997 5.125V5.1875C4.99997 5.75 5.15622 6.28125 5.46872 6.75L5.84372 7.3125L5.78122 7.28125C5.43747 7.1875 5.09372 7.40625 5.03122 7.75C5.03122 7.8125 4.99997 7.84375 4.99997 7.90625V8.59375C4.99997 8.78125 5.09372 8.96875 5.24997 9.09375L6.68747 10.25C6.78122 10.4375 6.90622 10.625 7.06247 10.8125L4.49997 12C3.28122 12.5625 2.53122 13.7812 2.53122 15.125V19.375H17.2187C17.75 19.375 18.1562 18.9687 18.1562 18.4375V14.6875C18.125 14.1875 17.7187 13.7812 17.2187 13.75V13.75ZM16.5312 13.75H12.8125C12.5937 13.75 12.375 13.8125 12.2187 13.9687C12.4375 13.1562 13 12.4375 13.75 12.0625L13.9687 11.9687L15.25 12.5625C15.7812 12.8125 16.2187 13.2187 16.5312 13.75V13.75ZM13.125 6.875H12.4375C12.3125 6.5 11.9687 6.25 11.5625 6.25H10.875C10.625 6.25 10.375 6.34375 10.2187 6.53125L9.96872 6.78125L9.81247 6.59375C9.62497 6.375 9.37497 6.25 9.06247 6.25H8.43747C8.03122 6.25 7.68747 6.5 7.56247 6.875H6.87497V6.28125C6.87497 5.84375 7.15622 5.5 7.56247 5.375L9.99997 4.6875L12.4375 5.34375C12.8437 5.46875 13.125 5.8125 13.125 6.25V6.875ZM11.875 7.1875V7.5C11.875 7.6875 11.75 7.8125 11.5625 7.8125H10.9375C10.8437 7.8125 10.75 7.78125 10.6875 7.6875L10.3437 7.28125L10.6562 6.96875C10.7187 6.90625 10.7812 6.875 10.875 6.875H11.5625C11.75 6.875 11.875 7 11.875 7.1875V7.1875ZM9.49997 7.21875L8.99997 7.71875C8.93747 7.78125 8.87497 7.8125 8.78122 7.8125H8.43747C8.24997 7.8125 8.12497 7.6875 8.12497 7.5V7.1875C8.12497 7 8.24997 6.875 8.43747 6.875H9.06247C9.15622 6.875 9.24997 6.90625 9.31247 7L9.49997 7.21875ZM6.87497 7.5H7.49997C7.49997 8.03125 7.90622 8.4375 8.43747 8.4375H8.81247C9.06247 8.4375 9.31247 8.34375 9.46872 8.15625L9.90622 7.71875L10.1875 8.09375C10.375 8.3125 10.625 8.4375 10.9375 8.4375H11.5625C12.0937 8.4375 12.5 8.03125 12.5 7.5H13.125V8.5C13.125 9.78125 12.3437 10.9375 11.1562 11.4062L10.8125 11.5312C10.625 11.5938 10.4375 11.6562 10.25 11.6875C10.0937 11.7188 9.93747 11.7188 9.78122 11.6875C9.59372 11.6562 9.40622 11.625 9.21872 11.5312L8.87497 11.4062C7.65622 10.9375 6.87497 9.78125 6.87497 8.5V7.5ZM12.5 11.2812L13.25 11.625C12.5625 12.0312 12.0312 12.6562 11.75 13.4062L10.7187 12.2187C10.8437 12.1875 10.9375 12.1562 11.0625 12.125L11.4062 12C11.7812 11.8125 12.1875 11.5625 12.5 11.2812V11.2812ZM8.62497 11.9687L8.96872 12.0937C9.06247 12.125 9.18747 12.1562 9.31247 12.1875L8.28122 13.375C7.99997 12.625 7.46872 12 6.78122 11.5937L7.53122 11.25C7.81247 11.5625 8.21872 11.8125 8.62497 11.9687V11.9687ZM11.875 14.5625V14.6875V18.4375C11.875 18.5312 11.9062 18.6562 11.9375 18.75H10.3125V12.7187L11.875 14.5625ZM14.375 7.90625V8.59375L13.6875 9.15625C13.7187 8.9375 13.75 8.71875 13.75 8.5V8.0625L14.375 7.90625ZM5.62497 5.125C5.62497 4.03125 6.24997 3.03125 7.24997 2.5625L9.99997 1.28125L12.75 2.5625C13.75 3.03125 14.375 4.03125 14.375 5.125V5.1875C14.375 5.625 14.25 6.03125 14 6.40625L13.75 6.78125V6.28125C13.75 5.5625 13.2812 4.96875 12.5937 4.78125L9.99997 4.0625L7.40622 4.78125C6.71872 4.96875 6.24997 5.59375 6.24997 6.28125V6.78125L5.99997 6.40625C5.74997 6.03125 5.62497 5.625 5.62497 5.1875V5.125ZM5.62497 8.59375V7.90625L6.24997 8.0625V8.5C6.24997 8.71875 6.28122 8.9375 6.31247 9.15625L5.62497 8.59375ZM3.12497 15.125C3.12497 14.0312 3.74997 13.0312 4.74997 12.5625L6.03122 11.9687L6.24997 12.0625C7.06247 12.4687 7.65622 13.2187 7.81247 14.125L7.93747 14.75L9.68747 12.7187V18.75H6.56247V16.25H5.93747V18.75H3.12497V15.125ZM17.5 18.4375C17.5 18.625 17.375 18.75 17.1875 18.75H12.8125C12.625 18.75 12.5 18.625 12.5 18.4375V14.6875C12.5 14.5 12.625 14.375 12.8125 14.375H17.1875C17.375 14.375 17.5 14.5 17.5 14.6875V18.4375Z" fill="url(#paint3_radial_1115_8748)"/>
<path d="M13.4375 17.1875H14.0625V18.125H13.4375V17.1875Z" fill="white"/>
<path d="M13.4375 17.1875H14.0625V18.125H13.4375V17.1875Z" fill="url(#paint4_radial_1115_8748)"/>
<path d="M14.6875 16.875H15.3125V18.125H14.6875V16.875Z" fill="white"/>
<path d="M14.6875 16.875H15.3125V18.125H14.6875V16.875Z" fill="url(#paint5_radial_1115_8748)"/>
<path d="M15.9375 16.5625H16.5625V18.125H15.9375V16.5625Z" fill="white"/>
<path d="M15.9375 16.5625H16.5625V18.125H15.9375V16.5625Z" fill="url(#paint6_radial_1115_8748)"/>
<path d="M15.0626 15.5313L14.4063 14.9063L12.9376 16L13.3126 16.5L14.3438 15.7188L14.9376 16.3438L16.7188 15.2813L16.4063 14.7188L15.0626 15.5313Z" fill="white"/>
<path d="M15.0626 15.5313L14.4063 14.9063L12.9376 16L13.3126 16.5L14.3438 15.7188L14.9376 16.3438L16.7188 15.2813L16.4063 14.7188L15.0626 15.5313Z" fill="url(#paint7_radial_1115_8748)"/>
<defs>
<radialGradient id="paint0_radial_1115_8748" cx="0" cy="0" r="1" gradientUnits="userSpaceOnUse" gradientTransform="translate(8.40741 14.9141) rotate(52.6545) scale(1.07991 1.5571)">
<stop offset="0.151042" stop-color="#33A6FF"/>
<stop offset="0.907346" stop-color="#36C27F"/>
</radialGradient>
<radialGradient id="paint1_radial_1115_8748" cx="0" cy="0" r="1" gradientUnits="userSpaceOnUse" gradientTransform="translate(8.40741 16.1641) rotate(52.6545) scale(1.07991 1.5571)">
<stop offset="0.151042" stop-color="#33A6FF"/>
<stop offset="0.907346" stop-color="#36C27F"/>
</radialGradient>
<radialGradient id="paint2_radial_1115_8748" cx="0" cy="0" r="1" gradientUnits="userSpaceOnUse" gradientTransform="translate(8.40741 17.4141) rotate(52.6545) scale(1.07991 1.5571)">
<stop offset="0.151042" stop-color="#33A6FF"/>
<stop offset="0.907346" stop-color="#36C27F"/>
</radialGradient>
<radialGradient id="paint3_radial_1115_8748" cx="0" cy="0" r="1" gradientUnits="userSpaceOnUse" gradientTransform="translate(1.7789 -1.98609) rotate(57.5919) scale(30.5577 41.3396)">
<stop offset="0.151042" stop-color="#33A6FF"/>
<stop offset="0.907346" stop-color="#36C27F"/>
</radialGradient>
<radialGradient id="paint4_radial_1115_8748" cx="0" cy="0" r="1" gradientUnits="userSpaceOnUse" gradientTransform="translate(13.4074 17.0587) rotate(63.0375) scale(1.44482 1.74574)">
<stop offset="0.151042" stop-color="#33A6FF"/>
<stop offset="0.907346" stop-color="#36C27F"/>
</radialGradient>
<radialGradient id="paint5_radial_1115_8748" cx="0" cy="0" r="1" gradientUnits="userSpaceOnUse" gradientTransform="translate(14.6574 16.7033) rotate(69.1168) scale(1.83776 1.82998)">
<stop offset="0.151042" stop-color="#33A6FF"/>
<stop offset="0.907346" stop-color="#36C27F"/>
</radialGradient>
<radialGradient id="paint6_radial_1115_8748" cx="0" cy="0" r="1" gradientUnits="userSpaceOnUse" gradientTransform="translate(15.9074 16.3479) rotate(73.0267) scale(2.24404 1.87332)">
<stop offset="0.151042" stop-color="#33A6FF"/>
<stop offset="0.907346" stop-color="#36C27F"/>
</radialGradient>
<radialGradient id="paint7_radial_1115_8748" cx="0" cy="0" r="1" gradientUnits="userSpaceOnUse" gradientTransform="translate(12.7555 14.4741) rotate(31.6893) scale(4.65774 6.22484)">
<stop offset="0.151042" stop-color="#33A6FF"/>
<stop offset="0.907346" stop-color="#36C27F"/>
</radialGradient>
</defs>
</svg>
