<svg width="20" height="20" viewBox="0 0 20 20" fill="none" xmlns="http://www.w3.org/2000/svg">
<g clip-path="url(#clip0_1115_9101)">
<path d="M3.32319 17.7708C3.25057 17.6981 3.14979 17.6563 3.04706 17.6563C2.94432 17.6563 2.84354 17.6981 2.77089 17.7708C2.69823 17.8435 2.65643 17.9442 2.65643 18.0469C2.65643 18.1497 2.69819 18.2505 2.77089 18.3231C2.84354 18.3957 2.94432 18.4376 3.04706 18.4376C3.14979 18.4376 3.25057 18.3958 3.32319 18.3231C3.39585 18.2505 3.43768 18.1497 3.43768 18.0469C3.43768 17.9442 3.39589 17.8434 3.32319 17.7708Z" fill="white"/>
<path d="M3.32319 17.7708C3.25057 17.6981 3.14979 17.6563 3.04706 17.6563C2.94432 17.6563 2.84354 17.6981 2.77089 17.7708C2.69823 17.8435 2.65643 17.9442 2.65643 18.0469C2.65643 18.1497 2.69819 18.2505 2.77089 18.3231C2.84354 18.3957 2.94432 18.4376 3.04706 18.4376C3.14979 18.4376 3.25057 18.3958 3.32319 18.3231C3.39585 18.2505 3.43768 18.1497 3.43768 18.0469C3.43768 17.9442 3.39589 17.8434 3.32319 17.7708Z" fill="url(#paint0_radial_1115_9101)"/>
<path d="M18.3407 7.14601C18.268 7.07331 18.1676 7.03156 18.0645 7.03156C17.9618 7.03156 17.861 7.07331 17.7883 7.14601C17.7157 7.21866 17.6739 7.31945 17.6739 7.42218C17.6739 7.52491 17.7157 7.6257 17.7883 7.69831C17.861 7.77097 17.9618 7.81281 18.0645 7.81281C18.1676 7.81281 18.268 7.77101 18.3407 7.69831C18.4137 7.6257 18.4555 7.52491 18.4555 7.42218C18.4555 7.31945 18.4137 7.21866 18.3407 7.14601Z" fill="white"/>
<path d="M18.3407 7.14601C18.268 7.07331 18.1676 7.03156 18.0645 7.03156C17.9618 7.03156 17.861 7.07331 17.7883 7.14601C17.7157 7.21866 17.6739 7.31945 17.6739 7.42218C17.6739 7.52491 17.7157 7.6257 17.7883 7.69831C17.861 7.77097 17.9618 7.81281 18.0645 7.81281C18.1676 7.81281 18.268 7.77101 18.3407 7.69831C18.4137 7.6257 18.4555 7.52491 18.4555 7.42218C18.4555 7.31945 18.4137 7.21866 18.3407 7.14601Z" fill="url(#paint1_radial_1115_9101)"/>
<path d="M19.8853 0.114414C19.812 0.0411719 19.7126 0 19.609 0L9.99983 0.000507813C9.78413 0.000507813 9.60925 0.17543 9.60925 0.391133V1.5082L5.90655 2.50035C5.69815 2.55621 5.57448 2.77039 5.63034 2.97875L7.54936 10.1405L5.88925 11.8007C5.67796 11.4921 5.32319 11.2893 4.9219 11.2893H1.17202C0.525847 11.2893 0.000183105 11.815 0.000183105 12.4611V18.8281C0.000183105 19.4743 0.525847 20 1.17202 20H4.92194C5.47089 20 5.93268 19.6205 6.05925 19.1102L6.5237 19.5152C6.88225 19.8279 7.34163 20 7.81737 20H19.6091C19.8248 20 19.9997 19.8251 19.9997 19.6094V0.390625C19.9996 0.287031 19.9585 0.187656 19.8853 0.114414ZM5.31249 18.8282C5.31249 19.0435 5.13725 19.2188 4.92186 19.2188H1.17198C0.956589 19.2188 0.781355 19.0436 0.781355 18.8282V12.4611C0.781355 12.2457 0.956589 12.0705 1.17198 12.0705H2.65632V16.5703C2.65632 16.786 2.83124 16.9609 3.04694 16.9609C3.26264 16.9609 3.43757 16.786 3.43757 16.5703V12.0705H4.9219C5.13729 12.0705 5.31253 12.2457 5.31253 12.4611V18.8282H5.31249ZM6.48604 3.15387L9.60925 2.31699V3.76445L9.34745 3.83461C9.24733 3.86145 9.16206 3.92687 9.11026 4.0166C9.05846 4.10633 9.0444 4.21293 9.07124 4.31301C9.22135 4.8732 8.88772 5.45105 8.32753 5.60117C8.22733 5.62805 8.1419 5.69359 8.09014 5.78352C8.03839 5.8734 8.02444 5.9802 8.05151 6.08035L9.57413 11.7186H8.79014L8.38612 10.1379C8.37327 10.0876 8.35077 10.0412 8.32065 10.0009L6.48604 3.15387ZM9.60925 5.55582V8.85195L8.89678 6.21387C9.1944 6.0602 9.43796 5.83027 9.60925 5.55582ZM15.2211 19.2188H7.81729C7.53038 19.2188 7.25331 19.1149 7.03706 18.9264L6.09374 18.1037V12.7011L7.79913 10.9957L8.10843 12.2058C8.15264 12.3787 8.30839 12.4997 8.48686 12.4997L16.1667 12.5002C16.4683 12.5002 16.7136 12.7455 16.7136 13.047C16.7136 13.3486 16.4683 13.5939 16.1667 13.5939H12.2316C12.0158 13.5939 11.8409 13.7688 11.8409 13.9845C11.8409 14.2002 12.0158 14.3752 12.2316 14.3752H17.3894C17.6909 14.3752 17.9362 14.6205 17.9362 14.922C17.9362 15.2236 17.6909 15.4689 17.3894 15.4689H12.2316C12.0158 15.4689 11.8409 15.6438 11.8409 15.8595C11.8409 16.0752 12.0158 16.2502 12.2316 16.2502H16.5535C16.8551 16.2502 17.1004 16.4955 17.1004 16.797C17.1004 17.0986 16.8551 17.3439 16.5535 17.3439H12.2316C12.0158 17.3439 11.8409 17.5188 11.8409 17.7345C11.8409 17.9502 12.0158 18.1252 12.2316 18.1252H15.2211C15.5227 18.1252 15.768 18.3705 15.768 18.672C15.768 18.9734 15.5226 19.2188 15.2211 19.2188ZM19.2184 19.2188H19.2184H16.4309C16.5067 19.0518 16.5492 18.8668 16.5492 18.6719C16.5492 18.477 16.5067 18.2919 16.4309 18.125H16.5535C17.2858 18.125 17.8816 17.5292 17.8816 16.7969C17.8816 16.5833 17.8307 16.3815 17.7407 16.2025C18.303 16.048 18.7174 15.5326 18.7174 14.922C18.7174 14.6257 18.6198 14.3518 18.4553 14.1307V9.17996C18.4553 8.96426 18.2803 8.78934 18.0646 8.78934C17.8489 8.78934 17.674 8.96426 17.674 9.17996V13.625C17.5822 13.6048 17.487 13.5939 17.3893 13.5939H17.3765C17.4522 13.427 17.4948 13.242 17.4948 13.047C17.4948 12.3147 16.899 11.7189 16.1667 11.7189H15.5387C16.2055 11.433 16.6738 10.7703 16.6738 10C16.6738 8.96918 15.8352 8.13055 14.8044 8.13055C13.7736 8.13055 12.9349 8.96918 12.9349 10C12.9349 10.7703 13.4033 11.433 14.07 11.7189H11.9347V4.29152C12.6325 4.13945 13.1832 3.58887 13.3352 2.89102H16.2735C16.4255 3.58887 16.9762 4.13945 17.674 4.29152V5.50598C17.674 5.72168 17.8489 5.8966 18.0646 5.8966C18.2803 5.8966 18.4552 5.72168 18.4552 5.50598V3.94277C18.4552 3.72707 18.2803 3.55215 18.0646 3.55215C17.4846 3.55215 17.0129 3.08031 17.0129 2.50039C17.0129 2.28469 16.838 2.10977 16.6223 2.10977H12.9865C12.7708 2.10977 12.5958 2.28469 12.5958 2.50039C12.5958 3.08035 12.1241 3.55215 11.5441 3.55215C11.3284 3.55215 11.1535 3.72707 11.1535 3.94277V11.7189H10.3905V0.78168L19.2184 0.78125V19.2188ZM14.8044 11.0882C14.2044 11.0882 13.7163 10.6 13.7163 10C13.7163 9.40004 14.2044 8.91184 14.8044 8.91184C15.4044 8.91184 15.8926 9.4 15.8926 10C15.8926 10.6 15.4045 11.0882 14.8044 11.0882Z" fill="white"/>
<path d="M19.8853 0.114414C19.812 0.0411719 19.7126 0 19.609 0L9.99983 0.000507813C9.78413 0.000507813 9.60925 0.17543 9.60925 0.391133V1.5082L5.90655 2.50035C5.69815 2.55621 5.57448 2.77039 5.63034 2.97875L7.54936 10.1405L5.88925 11.8007C5.67796 11.4921 5.32319 11.2893 4.9219 11.2893H1.17202C0.525847 11.2893 0.000183105 11.815 0.000183105 12.4611V18.8281C0.000183105 19.4743 0.525847 20 1.17202 20H4.92194C5.47089 20 5.93268 19.6205 6.05925 19.1102L6.5237 19.5152C6.88225 19.8279 7.34163 20 7.81737 20H19.6091C19.8248 20 19.9997 19.8251 19.9997 19.6094V0.390625C19.9996 0.287031 19.9585 0.187656 19.8853 0.114414ZM5.31249 18.8282C5.31249 19.0435 5.13725 19.2188 4.92186 19.2188H1.17198C0.956589 19.2188 0.781355 19.0436 0.781355 18.8282V12.4611C0.781355 12.2457 0.956589 12.0705 1.17198 12.0705H2.65632V16.5703C2.65632 16.786 2.83124 16.9609 3.04694 16.9609C3.26264 16.9609 3.43757 16.786 3.43757 16.5703V12.0705H4.9219C5.13729 12.0705 5.31253 12.2457 5.31253 12.4611V18.8282H5.31249ZM6.48604 3.15387L9.60925 2.31699V3.76445L9.34745 3.83461C9.24733 3.86145 9.16206 3.92687 9.11026 4.0166C9.05846 4.10633 9.0444 4.21293 9.07124 4.31301C9.22135 4.8732 8.88772 5.45105 8.32753 5.60117C8.22733 5.62805 8.1419 5.69359 8.09014 5.78352C8.03839 5.8734 8.02444 5.9802 8.05151 6.08035L9.57413 11.7186H8.79014L8.38612 10.1379C8.37327 10.0876 8.35077 10.0412 8.32065 10.0009L6.48604 3.15387ZM9.60925 5.55582V8.85195L8.89678 6.21387C9.1944 6.0602 9.43796 5.83027 9.60925 5.55582ZM15.2211 19.2188H7.81729C7.53038 19.2188 7.25331 19.1149 7.03706 18.9264L6.09374 18.1037V12.7011L7.79913 10.9957L8.10843 12.2058C8.15264 12.3787 8.30839 12.4997 8.48686 12.4997L16.1667 12.5002C16.4683 12.5002 16.7136 12.7455 16.7136 13.047C16.7136 13.3486 16.4683 13.5939 16.1667 13.5939H12.2316C12.0158 13.5939 11.8409 13.7688 11.8409 13.9845C11.8409 14.2002 12.0158 14.3752 12.2316 14.3752H17.3894C17.6909 14.3752 17.9362 14.6205 17.9362 14.922C17.9362 15.2236 17.6909 15.4689 17.3894 15.4689H12.2316C12.0158 15.4689 11.8409 15.6438 11.8409 15.8595C11.8409 16.0752 12.0158 16.2502 12.2316 16.2502H16.5535C16.8551 16.2502 17.1004 16.4955 17.1004 16.797C17.1004 17.0986 16.8551 17.3439 16.5535 17.3439H12.2316C12.0158 17.3439 11.8409 17.5188 11.8409 17.7345C11.8409 17.9502 12.0158 18.1252 12.2316 18.1252H15.2211C15.5227 18.1252 15.768 18.3705 15.768 18.672C15.768 18.9734 15.5226 19.2188 15.2211 19.2188ZM19.2184 19.2188H19.2184H16.4309C16.5067 19.0518 16.5492 18.8668 16.5492 18.6719C16.5492 18.477 16.5067 18.2919 16.4309 18.125H16.5535C17.2858 18.125 17.8816 17.5292 17.8816 16.7969C17.8816 16.5833 17.8307 16.3815 17.7407 16.2025C18.303 16.048 18.7174 15.5326 18.7174 14.922C18.7174 14.6257 18.6198 14.3518 18.4553 14.1307V9.17996C18.4553 8.96426 18.2803 8.78934 18.0646 8.78934C17.8489 8.78934 17.674 8.96426 17.674 9.17996V13.625C17.5822 13.6048 17.487 13.5939 17.3893 13.5939H17.3765C17.4522 13.427 17.4948 13.242 17.4948 13.047C17.4948 12.3147 16.899 11.7189 16.1667 11.7189H15.5387C16.2055 11.433 16.6738 10.7703 16.6738 10C16.6738 8.96918 15.8352 8.13055 14.8044 8.13055C13.7736 8.13055 12.9349 8.96918 12.9349 10C12.9349 10.7703 13.4033 11.433 14.07 11.7189H11.9347V4.29152C12.6325 4.13945 13.1832 3.58887 13.3352 2.89102H16.2735C16.4255 3.58887 16.9762 4.13945 17.674 4.29152V5.50598C17.674 5.72168 17.8489 5.8966 18.0646 5.8966C18.2803 5.8966 18.4552 5.72168 18.4552 5.50598V3.94277C18.4552 3.72707 18.2803 3.55215 18.0646 3.55215C17.4846 3.55215 17.0129 3.08031 17.0129 2.50039C17.0129 2.28469 16.838 2.10977 16.6223 2.10977H12.9865C12.7708 2.10977 12.5958 2.28469 12.5958 2.50039C12.5958 3.08035 12.1241 3.55215 11.5441 3.55215C11.3284 3.55215 11.1535 3.72707 11.1535 3.94277V11.7189H10.3905V0.78168L19.2184 0.78125V19.2188ZM14.8044 11.0882C14.2044 11.0882 13.7163 10.6 13.7163 10C13.7163 9.40004 14.2044 8.91184 14.8044 8.91184C15.4044 8.91184 15.8926 9.4 15.8926 10C15.8926 10.6 15.4045 11.0882 14.8044 11.0882Z" fill="url(#paint2_radial_1115_9101)"/>
</g>
<defs>
<radialGradient id="paint0_radial_1115_9101" cx="0" cy="0" r="1" gradientUnits="userSpaceOnUse" gradientTransform="translate(2.61882 17.549) rotate(52.6545) scale(1.34988 1.94638)">
<stop offset="0.151042" stop-color="#33A6FF"/>
<stop offset="0.907346" stop-color="#36C27F"/>
</radialGradient>
<radialGradient id="paint1_radial_1115_9101" cx="0" cy="0" r="1" gradientUnits="userSpaceOnUse" gradientTransform="translate(17.6363 6.92424) rotate(52.6421) scale(1.35011 1.94693)">
<stop offset="0.151042" stop-color="#33A6FF"/>
<stop offset="0.907346" stop-color="#36C27F"/>
</radialGradient>
<radialGradient id="paint2_radial_1115_9101" cx="0" cy="0" r="1" gradientUnits="userSpaceOnUse" gradientTransform="translate(-0.962756 -2.74726) rotate(52.6552) scale(34.5567 49.8265)">
<stop offset="0.151042" stop-color="#33A6FF"/>
<stop offset="0.907346" stop-color="#36C27F"/>
</radialGradient>
<clipPath id="clip0_1115_9101">
<rect width="20" height="20" fill="white"/>
</clipPath>
</defs>
</svg>
