<svg width="20" height="21" viewBox="0 0 20 21" fill="none" xmlns="http://www.w3.org/2000/svg">
<g clip-path="url(#clip0_1115_8587)">
<path d="M3.32319 18.2708C3.25057 18.1981 3.14979 18.1563 3.04706 18.1563C2.94432 18.1563 2.84354 18.1981 2.77089 18.2708C2.69823 18.3435 2.65643 18.4442 2.65643 18.5469C2.65643 18.6497 2.69819 18.7505 2.77089 18.8231C2.84354 18.8957 2.94432 18.9376 3.04706 18.9376C3.14979 18.9376 3.25057 18.8958 3.32319 18.8231C3.39585 18.7505 3.43768 18.6497 3.43768 18.5469C3.43768 18.4442 3.39589 18.3434 3.32319 18.2708Z" fill="white"/>
<path d="M3.32319 18.2708C3.25057 18.1981 3.14979 18.1563 3.04706 18.1563C2.94432 18.1563 2.84354 18.1981 2.77089 18.2708C2.69823 18.3435 2.65643 18.4442 2.65643 18.5469C2.65643 18.6497 2.69819 18.7505 2.77089 18.8231C2.84354 18.8957 2.94432 18.9376 3.04706 18.9376C3.14979 18.9376 3.25057 18.8958 3.32319 18.8231C3.39585 18.7505 3.43768 18.6497 3.43768 18.5469C3.43768 18.4442 3.39589 18.3434 3.32319 18.2708Z" fill="url(#paint0_radial_1115_8587)"/>
<path d="M18.3407 7.64601C18.268 7.57331 18.1676 7.53156 18.0645 7.53156C17.9618 7.53156 17.861 7.57331 17.7883 7.64601C17.7157 7.71866 17.6739 7.81945 17.6739 7.92218C17.6739 8.02491 17.7157 8.1257 17.7883 8.19831C17.861 8.27097 17.9618 8.31281 18.0645 8.31281C18.1676 8.31281 18.268 8.27101 18.3407 8.19831C18.4137 8.1257 18.4555 8.02491 18.4555 7.92218C18.4555 7.81945 18.4137 7.71866 18.3407 7.64601Z" fill="white"/>
<path d="M18.3407 7.64601C18.268 7.57331 18.1676 7.53156 18.0645 7.53156C17.9618 7.53156 17.861 7.57331 17.7883 7.64601C17.7157 7.71866 17.6739 7.81945 17.6739 7.92218C17.6739 8.02491 17.7157 8.1257 17.7883 8.19831C17.861 8.27097 17.9618 8.31281 18.0645 8.31281C18.1676 8.31281 18.268 8.27101 18.3407 8.19831C18.4137 8.1257 18.4555 8.02491 18.4555 7.92218C18.4555 7.81945 18.4137 7.71866 18.3407 7.64601Z" fill="url(#paint1_radial_1115_8587)"/>
<path d="M19.8853 0.614414C19.812 0.541172 19.7126 0.5 19.609 0.5L9.99983 0.500508C9.78413 0.500508 9.60925 0.67543 9.60925 0.891133V2.0082L5.90655 3.00035C5.69815 3.05621 5.57448 3.27039 5.63034 3.47875L7.54936 10.6405L5.88925 12.3007C5.67796 11.9921 5.32319 11.7893 4.9219 11.7893H1.17202C0.525847 11.7893 0.000183105 12.315 0.000183105 12.9611V19.3281C0.000183105 19.9743 0.525847 20.5 1.17202 20.5H4.92194C5.47089 20.5 5.93268 20.1205 6.05925 19.6102L6.5237 20.0152C6.88225 20.3279 7.34163 20.5 7.81737 20.5H19.6091C19.8248 20.5 19.9997 20.3251 19.9997 20.1094V0.890625C19.9996 0.787031 19.9585 0.687656 19.8853 0.614414ZM5.31249 19.3282C5.31249 19.5435 5.13725 19.7188 4.92186 19.7188H1.17198C0.956589 19.7188 0.781355 19.5436 0.781355 19.3282V12.9611C0.781355 12.7457 0.956589 12.5705 1.17198 12.5705H2.65632V17.0703C2.65632 17.286 2.83124 17.4609 3.04694 17.4609C3.26264 17.4609 3.43757 17.286 3.43757 17.0703V12.5705H4.9219C5.13729 12.5705 5.31253 12.7457 5.31253 12.9611V19.3282H5.31249ZM6.48604 3.65387L9.60925 2.81699V4.26445L9.34745 4.33461C9.24733 4.36145 9.16206 4.42687 9.11026 4.5166C9.05846 4.60633 9.0444 4.71293 9.07124 4.81301C9.22135 5.3732 8.88772 5.95105 8.32753 6.10117C8.22733 6.12805 8.1419 6.19359 8.09014 6.28352C8.03839 6.3734 8.02444 6.4802 8.05151 6.58035L9.57413 12.2186H8.79014L8.38612 10.6379C8.37327 10.5876 8.35077 10.5412 8.32065 10.5009L6.48604 3.65387ZM9.60925 6.05582V9.35195L8.89678 6.71387C9.1944 6.56019 9.43796 6.33027 9.60925 6.05582ZM15.2211 19.7188H7.81729C7.53038 19.7188 7.25331 19.6149 7.03706 19.4264L6.09374 18.6037V13.2011L7.79913 11.4957L8.10843 12.7058C8.15264 12.8787 8.30839 12.9997 8.48686 12.9997L16.1667 13.0002C16.4683 13.0002 16.7136 13.2455 16.7136 13.547C16.7136 13.8486 16.4683 14.0939 16.1667 14.0939H12.2316C12.0158 14.0939 11.8409 14.2688 11.8409 14.4845C11.8409 14.7002 12.0158 14.8752 12.2316 14.8752H17.3894C17.6909 14.8752 17.9362 15.1205 17.9362 15.422C17.9362 15.7236 17.6909 15.9689 17.3894 15.9689H12.2316C12.0158 15.9689 11.8409 16.1438 11.8409 16.3595C11.8409 16.5752 12.0158 16.7502 12.2316 16.7502H16.5535C16.8551 16.7502 17.1004 16.9955 17.1004 17.297C17.1004 17.5986 16.8551 17.8439 16.5535 17.8439H12.2316C12.0158 17.8439 11.8409 18.0188 11.8409 18.2345C11.8409 18.4502 12.0158 18.6252 12.2316 18.6252H15.2211C15.5227 18.6252 15.768 18.8705 15.768 19.172C15.768 19.4734 15.5226 19.7188 15.2211 19.7188ZM19.2184 19.7188H19.2184H16.4309C16.5067 19.5518 16.5492 19.3668 16.5492 19.1719C16.5492 18.977 16.5067 18.7919 16.4309 18.625H16.5535C17.2858 18.625 17.8816 18.0292 17.8816 17.2969C17.8816 17.0833 17.8307 16.8815 17.7407 16.7025C18.303 16.548 18.7174 16.0326 18.7174 15.422C18.7174 15.1257 18.6198 14.8518 18.4553 14.6307V9.67996C18.4553 9.46426 18.2803 9.28934 18.0646 9.28934C17.8489 9.28934 17.674 9.46426 17.674 9.67996V14.125C17.5822 14.1048 17.487 14.0939 17.3893 14.0939H17.3765C17.4522 13.927 17.4948 13.742 17.4948 13.547C17.4948 12.8147 16.899 12.2189 16.1667 12.2189H15.5387C16.2055 11.933 16.6738 11.2703 16.6738 10.5C16.6738 9.46918 15.8352 8.63055 14.8044 8.63055C13.7736 8.63055 12.9349 9.46918 12.9349 10.5C12.9349 11.2703 13.4033 11.933 14.07 12.2189H11.9347V4.79152C12.6325 4.63945 13.1832 4.08887 13.3352 3.39102H16.2735C16.4255 4.08887 16.9762 4.63945 17.674 4.79152V6.00598C17.674 6.22168 17.8489 6.3966 18.0646 6.3966C18.2803 6.3966 18.4552 6.22168 18.4552 6.00598V4.44277C18.4552 4.22707 18.2803 4.05215 18.0646 4.05215C17.4846 4.05215 17.0129 3.58031 17.0129 3.00039C17.0129 2.78469 16.838 2.60977 16.6223 2.60977H12.9865C12.7708 2.60977 12.5958 2.78469 12.5958 3.00039C12.5958 3.58035 12.1241 4.05215 11.5441 4.05215C11.3284 4.05215 11.1535 4.22707 11.1535 4.44277V12.2189H10.3905V1.28168L19.2184 1.28125V19.7188ZM14.8044 11.5882C14.2044 11.5882 13.7163 11.1 13.7163 10.5C13.7163 9.90004 14.2044 9.41184 14.8044 9.41184C15.4044 9.41184 15.8926 9.9 15.8926 10.5C15.8926 11.1 15.4045 11.5882 14.8044 11.5882Z" fill="white"/>
<path d="M19.8853 0.614414C19.812 0.541172 19.7126 0.5 19.609 0.5L9.99983 0.500508C9.78413 0.500508 9.60925 0.67543 9.60925 0.891133V2.0082L5.90655 3.00035C5.69815 3.05621 5.57448 3.27039 5.63034 3.47875L7.54936 10.6405L5.88925 12.3007C5.67796 11.9921 5.32319 11.7893 4.9219 11.7893H1.17202C0.525847 11.7893 0.000183105 12.315 0.000183105 12.9611V19.3281C0.000183105 19.9743 0.525847 20.5 1.17202 20.5H4.92194C5.47089 20.5 5.93268 20.1205 6.05925 19.6102L6.5237 20.0152C6.88225 20.3279 7.34163 20.5 7.81737 20.5H19.6091C19.8248 20.5 19.9997 20.3251 19.9997 20.1094V0.890625C19.9996 0.787031 19.9585 0.687656 19.8853 0.614414ZM5.31249 19.3282C5.31249 19.5435 5.13725 19.7188 4.92186 19.7188H1.17198C0.956589 19.7188 0.781355 19.5436 0.781355 19.3282V12.9611C0.781355 12.7457 0.956589 12.5705 1.17198 12.5705H2.65632V17.0703C2.65632 17.286 2.83124 17.4609 3.04694 17.4609C3.26264 17.4609 3.43757 17.286 3.43757 17.0703V12.5705H4.9219C5.13729 12.5705 5.31253 12.7457 5.31253 12.9611V19.3282H5.31249ZM6.48604 3.65387L9.60925 2.81699V4.26445L9.34745 4.33461C9.24733 4.36145 9.16206 4.42687 9.11026 4.5166C9.05846 4.60633 9.0444 4.71293 9.07124 4.81301C9.22135 5.3732 8.88772 5.95105 8.32753 6.10117C8.22733 6.12805 8.1419 6.19359 8.09014 6.28352C8.03839 6.3734 8.02444 6.4802 8.05151 6.58035L9.57413 12.2186H8.79014L8.38612 10.6379C8.37327 10.5876 8.35077 10.5412 8.32065 10.5009L6.48604 3.65387ZM9.60925 6.05582V9.35195L8.89678 6.71387C9.1944 6.56019 9.43796 6.33027 9.60925 6.05582ZM15.2211 19.7188H7.81729C7.53038 19.7188 7.25331 19.6149 7.03706 19.4264L6.09374 18.6037V13.2011L7.79913 11.4957L8.10843 12.7058C8.15264 12.8787 8.30839 12.9997 8.48686 12.9997L16.1667 13.0002C16.4683 13.0002 16.7136 13.2455 16.7136 13.547C16.7136 13.8486 16.4683 14.0939 16.1667 14.0939H12.2316C12.0158 14.0939 11.8409 14.2688 11.8409 14.4845C11.8409 14.7002 12.0158 14.8752 12.2316 14.8752H17.3894C17.6909 14.8752 17.9362 15.1205 17.9362 15.422C17.9362 15.7236 17.6909 15.9689 17.3894 15.9689H12.2316C12.0158 15.9689 11.8409 16.1438 11.8409 16.3595C11.8409 16.5752 12.0158 16.7502 12.2316 16.7502H16.5535C16.8551 16.7502 17.1004 16.9955 17.1004 17.297C17.1004 17.5986 16.8551 17.8439 16.5535 17.8439H12.2316C12.0158 17.8439 11.8409 18.0188 11.8409 18.2345C11.8409 18.4502 12.0158 18.6252 12.2316 18.6252H15.2211C15.5227 18.6252 15.768 18.8705 15.768 19.172C15.768 19.4734 15.5226 19.7188 15.2211 19.7188ZM19.2184 19.7188H19.2184H16.4309C16.5067 19.5518 16.5492 19.3668 16.5492 19.1719C16.5492 18.977 16.5067 18.7919 16.4309 18.625H16.5535C17.2858 18.625 17.8816 18.0292 17.8816 17.2969C17.8816 17.0833 17.8307 16.8815 17.7407 16.7025C18.303 16.548 18.7174 16.0326 18.7174 15.422C18.7174 15.1257 18.6198 14.8518 18.4553 14.6307V9.67996C18.4553 9.46426 18.2803 9.28934 18.0646 9.28934C17.8489 9.28934 17.674 9.46426 17.674 9.67996V14.125C17.5822 14.1048 17.487 14.0939 17.3893 14.0939H17.3765C17.4522 13.927 17.4948 13.742 17.4948 13.547C17.4948 12.8147 16.899 12.2189 16.1667 12.2189H15.5387C16.2055 11.933 16.6738 11.2703 16.6738 10.5C16.6738 9.46918 15.8352 8.63055 14.8044 8.63055C13.7736 8.63055 12.9349 9.46918 12.9349 10.5C12.9349 11.2703 13.4033 11.933 14.07 12.2189H11.9347V4.79152C12.6325 4.63945 13.1832 4.08887 13.3352 3.39102H16.2735C16.4255 4.08887 16.9762 4.63945 17.674 4.79152V6.00598C17.674 6.22168 17.8489 6.3966 18.0646 6.3966C18.2803 6.3966 18.4552 6.22168 18.4552 6.00598V4.44277C18.4552 4.22707 18.2803 4.05215 18.0646 4.05215C17.4846 4.05215 17.0129 3.58031 17.0129 3.00039C17.0129 2.78469 16.838 2.60977 16.6223 2.60977H12.9865C12.7708 2.60977 12.5958 2.78469 12.5958 3.00039C12.5958 3.58035 12.1241 4.05215 11.5441 4.05215C11.3284 4.05215 11.1535 4.22707 11.1535 4.44277V12.2189H10.3905V1.28168L19.2184 1.28125V19.7188ZM14.8044 11.5882C14.2044 11.5882 13.7163 11.1 13.7163 10.5C13.7163 9.90004 14.2044 9.41184 14.8044 9.41184C15.4044 9.41184 15.8926 9.9 15.8926 10.5C15.8926 11.1 15.4045 11.5882 14.8044 11.5882Z" fill="url(#paint2_radial_1115_8587)"/>
</g>
<defs>
<radialGradient id="paint0_radial_1115_8587" cx="0" cy="0" r="1" gradientUnits="userSpaceOnUse" gradientTransform="translate(2.61882 18.049) rotate(52.6545) scale(1.34988 1.94638)">
<stop offset="0.151042" stop-color="#33A6FF"/>
<stop offset="0.907346" stop-color="#36C27F"/>
</radialGradient>
<radialGradient id="paint1_radial_1115_8587" cx="0" cy="0" r="1" gradientUnits="userSpaceOnUse" gradientTransform="translate(17.6363 7.42424) rotate(52.6421) scale(1.35011 1.94693)">
<stop offset="0.151042" stop-color="#33A6FF"/>
<stop offset="0.907346" stop-color="#36C27F"/>
</radialGradient>
<radialGradient id="paint2_radial_1115_8587" cx="0" cy="0" r="1" gradientUnits="userSpaceOnUse" gradientTransform="translate(-0.962756 -2.24726) rotate(52.6552) scale(34.5567 49.8265)">
<stop offset="0.151042" stop-color="#33A6FF"/>
<stop offset="0.907346" stop-color="#36C27F"/>
</radialGradient>
<clipPath id="clip0_1115_8587">
<rect width="20" height="20" fill="white" transform="translate(0 0.5)"/>
</clipPath>
</defs>
</svg>
