<svg width="20" height="20" viewBox="0 0 20 20" fill="none" xmlns="http://www.w3.org/2000/svg">
<g clip-path="url(#clip0_1115_8851)">
<path d="M19.6093 19.2188H19.2968V7.81256C19.2968 7.59682 19.122 7.42194 18.9062 7.42194H15.7812C15.5655 7.42194 15.3906 7.59682 15.3906 7.81256V11.9923C15.3906 12.208 15.5655 12.3829 15.7812 12.3829C15.997 12.3829 16.1718 12.208 16.1718 11.9923V8.20319H18.5156V19.2188H16.1718V15.8198C16.1718 15.604 15.997 15.4292 15.7812 15.4292C15.5655 15.4292 15.3906 15.604 15.3906 15.8198V19.2188H14.4531V10.3907C14.4531 10.1749 14.2782 10.0001 14.0625 10.0001H10.9375C10.7217 10.0001 10.5469 10.1749 10.5469 10.3907V19.2188H9.45311V12.8126C9.45311 12.5968 9.27822 12.4219 9.06248 12.4219H5.93749C5.72175 12.4219 5.54686 12.5968 5.54686 12.8126V19.2188H4.60937V15.3126C4.60937 15.0968 4.43448 14.9219 4.21874 14.9219H1.09375C0.878006 14.9219 0.703124 15.0968 0.703124 15.3126V19.2188H0.390624C0.174882 19.2188 0 19.3937 0 19.6094C0 19.8252 0.174882 20.0001 0.390624 20.0001H19.6093C19.8251 20.0001 20 19.8252 20 19.6094C20 19.3937 19.8251 19.2188 19.6093 19.2188ZM3.82812 19.2188H1.48437V15.7032H3.82812V19.2188ZM8.67186 19.2188H6.32811V13.2032H8.67186V19.2188ZM13.6718 19.2188H11.3281V10.7813H13.6718V19.2188Z" fill="white"/>
<path d="M19.6093 19.2188H19.2968V7.81256C19.2968 7.59682 19.122 7.42194 18.9062 7.42194H15.7812C15.5655 7.42194 15.3906 7.59682 15.3906 7.81256V11.9923C15.3906 12.208 15.5655 12.3829 15.7812 12.3829C15.997 12.3829 16.1718 12.208 16.1718 11.9923V8.20319H18.5156V19.2188H16.1718V15.8198C16.1718 15.604 15.997 15.4292 15.7812 15.4292C15.5655 15.4292 15.3906 15.604 15.3906 15.8198V19.2188H14.4531V10.3907C14.4531 10.1749 14.2782 10.0001 14.0625 10.0001H10.9375C10.7217 10.0001 10.5469 10.1749 10.5469 10.3907V19.2188H9.45311V12.8126C9.45311 12.5968 9.27822 12.4219 9.06248 12.4219H5.93749C5.72175 12.4219 5.54686 12.5968 5.54686 12.8126V19.2188H4.60937V15.3126C4.60937 15.0968 4.43448 14.9219 4.21874 14.9219H1.09375C0.878006 14.9219 0.703124 15.0968 0.703124 15.3126V19.2188H0.390624C0.174882 19.2188 0 19.3937 0 19.6094C0 19.8252 0.174882 20.0001 0.390624 20.0001H19.6093C19.8251 20.0001 20 19.8252 20 19.6094C20 19.3937 19.8251 19.2188 19.6093 19.2188ZM3.82812 19.2188H1.48437V15.7032H3.82812V19.2188ZM8.67186 19.2188H6.32811V13.2032H8.67186V19.2188ZM13.6718 19.2188H11.3281V10.7813H13.6718V19.2188Z" fill="url(#paint0_radial_1115_8851)"/>
<path d="M16.0574 13.5477C15.9848 13.475 15.884 13.4336 15.7812 13.4336C15.6785 13.4336 15.5777 13.475 15.5051 13.5477C15.4324 13.6203 15.3906 13.7211 15.3906 13.8242C15.3906 13.927 15.4324 14.0273 15.5051 14.1004C15.5777 14.1731 15.6785 14.2148 15.7812 14.2148C15.884 14.2148 15.9848 14.173 16.0574 14.1004C16.1301 14.0273 16.1719 13.927 16.1719 13.8242C16.1719 13.7211 16.1301 13.6203 16.0574 13.5477Z" fill="white"/>
<path d="M16.0574 13.5477C15.9848 13.475 15.884 13.4336 15.7812 13.4336C15.6785 13.4336 15.5777 13.475 15.5051 13.5477C15.4324 13.6203 15.3906 13.7211 15.3906 13.8242C15.3906 13.927 15.4324 14.0273 15.5051 14.1004C15.5777 14.1731 15.6785 14.2148 15.7812 14.2148C15.884 14.2148 15.9848 14.173 16.0574 14.1004C16.1301 14.0273 16.1719 13.927 16.1719 13.8242C16.1719 13.7211 16.1301 13.6203 16.0574 13.5477Z" fill="url(#paint1_radial_1115_8851)"/>
<path d="M17.0313 0C15.3943 0 14.0626 1.33176 14.0626 2.96874C14.0626 4.60573 15.3944 5.93749 17.0313 5.93749C18.6683 5.93749 20.0001 4.60573 20.0001 2.96874C20.0001 1.33176 18.6683 0 17.0313 0ZM17.0313 4.10519C16.787 4.10519 16.5883 3.94101 16.5883 3.73925C16.5883 3.52351 16.4134 3.34863 16.1977 3.34863C15.9819 3.34863 15.8071 3.52351 15.8071 3.73925C15.8071 4.24382 16.1567 4.67304 16.6407 4.8262V5.12062C15.6203 4.93581 14.8438 4.04155 14.8438 2.96874C14.8438 1.89593 15.6203 1.00168 16.6407 0.816873V1.13918C16.1567 1.29234 15.8071 1.72156 15.8071 2.22613C15.8071 2.85871 16.3563 3.37331 17.0313 3.37331C17.2756 3.37331 17.4743 3.53745 17.4743 3.73925C17.4743 3.94105 17.2756 4.10519 17.0313 4.10519ZM17.4219 5.12062V4.8262C17.906 4.67304 18.2556 4.24382 18.2556 3.73925C18.2556 3.10671 17.7064 2.59207 17.0313 2.59207C16.7871 2.59207 16.5883 2.42789 16.5883 2.22613C16.5883 2.02437 16.787 1.86019 17.0313 1.86019C17.2756 1.86019 17.4743 2.02437 17.4743 2.22613C17.4743 2.44187 17.6492 2.61675 17.865 2.61675C18.0807 2.61675 18.2556 2.44187 18.2556 2.22613C18.2556 1.72156 17.906 1.29234 17.4219 1.13918V0.816873C18.4423 1.00168 19.2188 1.89593 19.2188 2.96874C19.2188 4.04155 18.4423 4.93581 17.4219 5.12062Z" fill="white"/>
<path d="M17.0313 0C15.3943 0 14.0626 1.33176 14.0626 2.96874C14.0626 4.60573 15.3944 5.93749 17.0313 5.93749C18.6683 5.93749 20.0001 4.60573 20.0001 2.96874C20.0001 1.33176 18.6683 0 17.0313 0ZM17.0313 4.10519C16.787 4.10519 16.5883 3.94101 16.5883 3.73925C16.5883 3.52351 16.4134 3.34863 16.1977 3.34863C15.9819 3.34863 15.8071 3.52351 15.8071 3.73925C15.8071 4.24382 16.1567 4.67304 16.6407 4.8262V5.12062C15.6203 4.93581 14.8438 4.04155 14.8438 2.96874C14.8438 1.89593 15.6203 1.00168 16.6407 0.816873V1.13918C16.1567 1.29234 15.8071 1.72156 15.8071 2.22613C15.8071 2.85871 16.3563 3.37331 17.0313 3.37331C17.2756 3.37331 17.4743 3.53745 17.4743 3.73925C17.4743 3.94105 17.2756 4.10519 17.0313 4.10519ZM17.4219 5.12062V4.8262C17.906 4.67304 18.2556 4.24382 18.2556 3.73925C18.2556 3.10671 17.7064 2.59207 17.0313 2.59207C16.7871 2.59207 16.5883 2.42789 16.5883 2.22613C16.5883 2.02437 16.787 1.86019 17.0313 1.86019C17.2756 1.86019 17.4743 2.02437 17.4743 2.22613C17.4743 2.44187 17.6492 2.61675 17.865 2.61675C18.0807 2.61675 18.2556 2.44187 18.2556 2.22613C18.2556 1.72156 17.906 1.29234 17.4219 1.13918V0.816873C18.4423 1.00168 19.2188 1.89593 19.2188 2.96874C19.2188 4.04155 18.4423 4.93581 17.4219 5.12062Z" fill="url(#paint2_radial_1115_8851)"/>
<path d="M13.9063 5.05347H12.377C12.1613 5.05347 11.9864 5.22835 11.9864 5.44409C11.9864 5.65983 12.1613 5.83472 12.377 5.83472H12.9632L8.78672 10.0113L6.66481 7.88936C6.51228 7.73686 6.26493 7.73686 6.11235 7.88936L1.86416 12.1375C1.71162 12.2901 1.71162 12.5374 1.86416 12.6899C1.94041 12.7662 2.04041 12.8044 2.14037 12.8044C2.24033 12.8044 2.34033 12.7662 2.41658 12.69L6.38857 8.71799L8.51047 10.8399C8.66301 10.9924 8.91036 10.9924 9.06293 10.8399L13.5157 6.38714V6.97338C13.5157 7.18913 13.6906 7.36401 13.9063 7.36401C14.1221 7.36401 14.2969 7.18913 14.2969 6.97338V5.44409C14.2969 5.22835 14.1221 5.05347 13.9063 5.05347Z" fill="white"/>
<path d="M13.9063 5.05347H12.377C12.1613 5.05347 11.9864 5.22835 11.9864 5.44409C11.9864 5.65983 12.1613 5.83472 12.377 5.83472H12.9632L8.78672 10.0113L6.66481 7.88936C6.51228 7.73686 6.26493 7.73686 6.11235 7.88936L1.86416 12.1375C1.71162 12.2901 1.71162 12.5374 1.86416 12.6899C1.94041 12.7662 2.04041 12.8044 2.14037 12.8044C2.24033 12.8044 2.34033 12.7662 2.41658 12.69L6.38857 8.71799L8.51047 10.8399C8.66301 10.9924 8.91036 10.9924 9.06293 10.8399L13.5157 6.38714V6.97338C13.5157 7.18913 13.6906 7.36401 13.9063 7.36401C14.1221 7.36401 14.2969 7.18913 14.2969 6.97338V5.44409C14.2969 5.22835 14.1221 5.05347 13.9063 5.05347Z" fill="url(#paint3_radial_1115_8851)"/>
<path d="M1.40074 13.1531C1.32809 13.0805 1.22731 13.0387 1.12457 13.0387C1.02184 13.0387 0.921057 13.0805 0.848401 13.1531C0.775744 13.2258 0.733948 13.3266 0.733948 13.4293C0.733948 13.5321 0.775744 13.6328 0.848401 13.7055C0.921057 13.7781 1.02184 13.8199 1.12457 13.8199C1.22731 13.8199 1.32809 13.7781 1.40074 13.7055C1.4734 13.6328 1.5152 13.5321 1.5152 13.4293C1.5152 13.3266 1.4734 13.2258 1.40074 13.1531Z" fill="white"/>
<path d="M1.40074 13.1531C1.32809 13.0805 1.22731 13.0387 1.12457 13.0387C1.02184 13.0387 0.921057 13.0805 0.848401 13.1531C0.775744 13.2258 0.733948 13.3266 0.733948 13.4293C0.733948 13.5321 0.775744 13.6328 0.848401 13.7055C0.921057 13.7781 1.02184 13.8199 1.12457 13.8199C1.22731 13.8199 1.32809 13.7781 1.40074 13.7055C1.4734 13.6328 1.5152 13.5321 1.5152 13.4293C1.5152 13.3266 1.4734 13.2258 1.40074 13.1531Z" fill="url(#paint4_radial_1115_8851)"/>
</g>
<defs>
<radialGradient id="paint0_radial_1115_8851" cx="0" cy="0" r="1" gradientUnits="userSpaceOnUse" gradientTransform="translate(-0.962962 5.69417) rotate(39.4954) scale(27.1654 39.8632)">
<stop offset="0.151042" stop-color="#33A6FF"/>
<stop offset="0.907346" stop-color="#36C27F"/>
</radialGradient>
<radialGradient id="paint1_radial_1115_8851" cx="0" cy="0" r="1" gradientUnits="userSpaceOnUse" gradientTransform="translate(15.353 13.3263) rotate(52.6544) scale(1.34988 1.94637)">
<stop offset="0.151042" stop-color="#33A6FF"/>
<stop offset="0.907346" stop-color="#36C27F"/>
</radialGradient>
<radialGradient id="paint2_radial_1115_8851" cx="0" cy="0" r="1" gradientUnits="userSpaceOnUse" gradientTransform="translate(13.7767 -0.815589) rotate(52.6544) scale(10.2591 14.7925)">
<stop offset="0.151042" stop-color="#33A6FF"/>
<stop offset="0.907346" stop-color="#36C27F"/>
</radialGradient>
<radialGradient id="paint3_radial_1115_8851" cx="0" cy="0" r="1" gradientUnits="userSpaceOnUse" gradientTransform="translate(1.14563 3.98878) rotate(38.9925) scale(16.9208 24.7413)">
<stop offset="0.151042" stop-color="#33A6FF"/>
<stop offset="0.907346" stop-color="#36C27F"/>
</radialGradient>
<radialGradient id="paint4_radial_1115_8851" cx="0" cy="0" r="1" gradientUnits="userSpaceOnUse" gradientTransform="translate(0.696332 12.9314) rotate(52.6545) scale(1.34988 1.94637)">
<stop offset="0.151042" stop-color="#33A6FF"/>
<stop offset="0.907346" stop-color="#36C27F"/>
</radialGradient>
<clipPath id="clip0_1115_8851">
<rect width="20" height="20" fill="white"/>
</clipPath>
</defs>
</svg>
