<svg width="20" height="20" viewBox="0 0 20 20" fill="none" xmlns="http://www.w3.org/2000/svg">
<g clip-path="url(#clip0_1116_1496)">
<path d="M18.7671 3.29432L18.7405 3.28967C15.704 2.75725 12.832 1.66982 10.2042 0.057676C10.0786 -0.0193553 9.92037 -0.0192381 9.79494 0.0581057C7.18552 1.66686 4.3315 2.75096 1.31212 3.28041L1.23271 3.29432C1.04583 3.32709 0.909546 3.48936 0.909546 3.67908V8.79221C0.909546 11.3965 1.80841 13.9484 3.4406 15.9778C5.07275 18.0072 7.37248 19.4324 9.91615 19.9909C9.9438 19.9969 9.97185 20 9.99998 20C10.0281 20 10.0563 19.9969 10.084 19.9909C12.6279 19.4311 14.9277 18.0047 16.5596 15.9746C18.1916 13.9444 19.0904 11.3918 19.0904 8.78701V3.67908C19.0904 3.48928 18.954 3.32701 18.7671 3.29432ZM18.3092 8.78701C18.3092 13.7381 14.8201 18.1072 9.9999 19.209C5.17986 18.1096 1.6908 13.7427 1.6908 8.79221V4.00592C4.63935 3.45904 7.43283 2.3974 10.0005 0.847832C12.5705 2.39166 15.3631 3.45283 18.3092 4.00533V8.78701Z" fill="white"/>
<path d="M18.7671 3.29432L18.7405 3.28967C15.704 2.75725 12.832 1.66982 10.2042 0.057676C10.0786 -0.0193553 9.92037 -0.0192381 9.79494 0.0581057C7.18552 1.66686 4.3315 2.75096 1.31212 3.28041L1.23271 3.29432C1.04583 3.32709 0.909546 3.48936 0.909546 3.67908V8.79221C0.909546 11.3965 1.80841 13.9484 3.4406 15.9778C5.07275 18.0072 7.37248 19.4324 9.91615 19.9909C9.9438 19.9969 9.97185 20 9.99998 20C10.0281 20 10.0563 19.9969 10.084 19.9909C12.6279 19.4311 14.9277 18.0047 16.5596 15.9746C18.1916 13.9444 19.0904 11.3918 19.0904 8.78701V3.67908C19.0904 3.48928 18.954 3.32701 18.7671 3.29432ZM18.3092 8.78701C18.3092 13.7381 14.8201 18.1072 9.9999 19.209C5.17986 18.1096 1.6908 13.7427 1.6908 8.79221V4.00592C4.63935 3.45904 7.43283 2.3974 10.0005 0.847832C12.5705 2.39166 15.3631 3.45283 18.3092 4.00533V8.78701Z" fill="url(#paint0_radial_1116_1496)"/>
<path d="M9.99111 2.8383C10.0566 2.8383 10.1229 2.82181 10.1839 2.78717L10.1879 2.78494C10.188 2.78482 10.1912 2.78306 10.1913 2.78299C10.3793 2.6774 10.4447 2.44025 10.3393 2.25221C10.2338 2.06412 9.99436 1.99799 9.80627 2.10322L9.79768 2.10807C9.61014 2.21471 9.54459 2.45318 9.65123 2.64072C9.72323 2.76728 9.85522 2.8383 9.99111 2.8383Z" fill="white"/>
<path d="M9.99111 2.8383C10.0566 2.8383 10.1229 2.82181 10.1839 2.78717L10.1879 2.78494C10.188 2.78482 10.1912 2.78306 10.1913 2.78299C10.3793 2.6774 10.4447 2.44025 10.3393 2.25221C10.2338 2.06412 9.99436 1.99799 9.80627 2.10322L9.79768 2.10807C9.61014 2.21471 9.54459 2.45318 9.65123 2.64072C9.72323 2.76728 9.85522 2.8383 9.99111 2.8383Z" fill="url(#paint1_radial_1116_1496)"/>
<path d="M8.27129 2.89932C6.58571 3.70327 4.80567 4.32448 2.98067 4.74557C2.8034 4.78647 2.67786 4.94429 2.67786 5.1262V8.78699C2.67786 9.21015 2.70641 9.63742 2.76262 10.0569C2.78887 10.2531 2.95657 10.3956 3.14926 10.3956C3.16653 10.3956 3.18403 10.3945 3.20165 10.3921C3.41547 10.3634 3.56555 10.1669 3.53688 9.95305C3.48524 9.56789 3.45907 9.17554 3.45907 8.78699V5.43507C5.23348 5.00358 6.96415 4.38835 8.60758 3.60448C8.80235 3.51163 8.88489 3.27846 8.79204 3.08374C8.69911 2.88901 8.4659 2.80651 8.27129 2.89932Z" fill="white"/>
<path d="M8.27129 2.89932C6.58571 3.70327 4.80567 4.32448 2.98067 4.74557C2.8034 4.78647 2.67786 4.94429 2.67786 5.1262V8.78699C2.67786 9.21015 2.70641 9.63742 2.76262 10.0569C2.78887 10.2531 2.95657 10.3956 3.14926 10.3956C3.16653 10.3956 3.18403 10.3945 3.20165 10.3921C3.41547 10.3634 3.56555 10.1669 3.53688 9.95305C3.48524 9.56789 3.45907 9.17554 3.45907 8.78699V5.43507C5.23348 5.00358 6.96415 4.38835 8.60758 3.60448C8.80235 3.51163 8.88489 3.27846 8.79204 3.08374C8.69911 2.88901 8.4659 2.80651 8.27129 2.89932Z" fill="url(#paint2_radial_1116_1496)"/>
<path d="M16.9315 4.7356C16.7158 4.7356 16.5409 4.91048 16.5409 5.12622V8.787C16.5409 12.2599 14.489 15.4463 11.3133 16.9048C11.1173 16.9948 11.0313 17.2267 11.1214 17.4228C11.1872 17.566 11.3287 17.6505 11.4766 17.6505C11.5312 17.6505 11.5866 17.639 11.6394 17.6147C13.3138 16.8457 14.7352 15.6146 15.7499 14.0545C16.7785 12.4731 17.3221 10.6516 17.3221 8.787V5.12622C17.3221 4.91052 17.1472 4.7356 16.9315 4.7356Z" fill="white"/>
<path d="M16.9315 4.7356C16.7158 4.7356 16.5409 4.91048 16.5409 5.12622V8.787C16.5409 12.2599 14.489 15.4463 11.3133 16.9048C11.1173 16.9948 11.0313 17.2267 11.1214 17.4228C11.1872 17.566 11.3287 17.6505 11.4766 17.6505C11.5312 17.6505 11.5866 17.639 11.6394 17.6147C13.3138 16.8457 14.7352 15.6146 15.7499 14.0545C16.7785 12.4731 17.3221 10.6516 17.3221 8.787V5.12622C17.3221 4.91052 17.1472 4.7356 16.9315 4.7356Z" fill="url(#paint3_radial_1116_1496)"/>
<path d="M9.91471 17.4088L9.89983 17.4128C9.69131 17.4681 9.56713 17.682 9.62249 17.8905C9.66889 18.0655 9.8269 18.181 9.99975 18.181C10.0329 18.181 10.0667 18.1768 10.1002 18.1679L10.1151 18.1639C10.3236 18.1086 10.4478 17.8947 10.3925 17.6862C10.3371 17.4776 10.1231 17.3535 9.91471 17.4088Z" fill="white"/>
<path d="M9.91471 17.4088L9.89983 17.4128C9.69131 17.4681 9.56713 17.682 9.62249 17.8905C9.66889 18.0655 9.8269 18.181 9.99975 18.181C10.0329 18.181 10.0667 18.1768 10.1002 18.1679L10.1151 18.1639C10.3236 18.1086 10.4478 17.8947 10.3925 17.6862C10.3371 17.4776 10.1231 17.3535 9.91471 17.4088Z" fill="url(#paint4_radial_1116_1496)"/>
<path d="M15.2385 10.0728C15.4928 9.65955 15.429 9.13322 15.0833 8.79279L14.6775 8.39299C14.6244 8.34076 14.5971 8.26826 14.6024 8.19408L14.643 7.62295C14.6776 7.13682 14.3759 6.69904 13.9093 6.55834L13.3718 6.39631C13.3001 6.37471 13.2419 6.32291 13.2121 6.2542L12.9872 5.73518C12.7951 5.29217 12.3116 5.03826 11.8381 5.13111L11.2927 5.23814C11.219 5.2526 11.1429 5.23385 11.0843 5.18654L10.6503 4.83607C10.2734 4.53189 9.72651 4.53182 9.34972 4.83607L8.91558 5.18658C8.85702 5.23389 8.78097 5.2526 8.70722 5.23814L8.16183 5.13115C7.68808 5.03814 7.20475 5.29217 7.01276 5.7351L6.78765 6.25428C6.75784 6.32291 6.69968 6.37471 6.628 6.39631L6.09061 6.55834C5.62401 6.699 5.32229 7.13678 5.3569 7.62295L5.39757 8.19404C5.40284 8.26826 5.37546 8.34076 5.32249 8.39295L4.91659 8.79279C4.57097 9.13326 4.50714 9.65959 4.7614 10.0728L5.06151 10.5604C5.10046 10.6237 5.10972 10.7006 5.08702 10.7712L4.91136 11.3174C4.76265 11.7799 4.95061 12.2763 5.36839 12.5243L5.85483 12.8131C5.91901 12.8513 5.963 12.9153 5.97554 12.9888L6.07124 13.5504C6.15343 14.0324 6.5519 14.386 7.0403 14.4103L7.59749 14.438C7.67249 14.4417 7.74159 14.4781 7.78706 14.5379L8.12675 14.9849C8.32675 15.248 8.63765 15.3926 8.9544 15.3926C9.10147 15.3926 9.24983 15.3614 9.38886 15.2963L9.89253 15.0612C9.96081 15.0293 10.0391 15.0293 10.1074 15.0612L10.611 15.2963C11.0496 15.5011 11.5804 15.3701 11.8732 14.9847L12.2128 14.5379C12.2582 14.4781 12.3273 14.4417 12.4023 14.4379L12.9596 14.4103C13.448 14.386 13.8465 14.0324 13.9287 13.5503L14.0244 12.9888C14.0369 12.9153 14.0809 12.8512 14.1451 12.8131L14.6316 12.5243C15.0493 12.2763 15.2373 11.7799 15.0885 11.3173L14.913 10.7713C14.8902 10.7006 14.8995 10.6237 14.9384 10.5605L15.2385 10.0728ZM14.5732 9.66338L14.273 10.1512C14.1144 10.409 14.0766 10.7222 14.1692 11.0105L14.3448 11.5565C14.3813 11.67 14.3352 11.7918 14.2327 11.8526L13.7462 12.1415C13.4847 12.2967 13.3054 12.5578 13.2543 12.8576L13.1586 13.4191C13.1384 13.5373 13.0407 13.6241 12.9209 13.63L12.3636 13.6577C12.0577 13.6729 11.776 13.8215 11.5908 14.0653L11.2512 14.5122C11.1794 14.6067 11.0492 14.6388 10.9416 14.5886L10.438 14.3534C10.1596 14.2234 9.84038 14.2234 9.56198 14.3534L9.05831 14.5886C8.95065 14.6388 8.82054 14.6066 8.74874 14.5122L8.40901 14.0652C8.22374 13.8214 7.9421 13.6729 7.63628 13.6577L7.07909 13.63C6.95933 13.6241 6.86159 13.5373 6.8414 13.4191L6.74569 12.8576C6.69456 12.5577 6.51526 12.2967 6.25374 12.1414L5.76729 11.8526C5.66479 11.7917 5.61866 11.67 5.65515 11.5565L5.83081 11.0104C5.92343 10.7222 5.88561 10.409 5.72694 10.1511L5.42679 9.66334C5.36444 9.56201 5.38011 9.43291 5.46487 9.34939L5.87081 8.94955C6.08683 8.7367 6.19843 8.44115 6.17686 8.13861L6.1362 7.56752C6.12772 7.44826 6.20171 7.34088 6.31616 7.30639L6.85354 7.14436C7.14581 7.05623 7.38308 6.84506 7.50444 6.56506L7.72956 6.04592C7.77015 5.95232 7.86374 5.89311 7.96319 5.89311C7.97917 5.89311 7.9953 5.89463 8.0114 5.89779L8.55675 6.00479C8.85804 6.06396 9.16761 5.98729 9.40636 5.79443L9.8405 5.44396C9.93288 5.36936 10.0671 5.36936 10.1595 5.44396L10.5936 5.79443C10.8323 5.98725 11.142 6.06385 11.4432 6.00482L11.9885 5.89779C12.1046 5.87494 12.2233 5.93732 12.2704 6.04596L12.4954 6.56498C12.6168 6.84506 12.8541 7.05627 13.1463 7.14436L13.6838 7.30639C13.7982 7.34088 13.8723 7.4483 13.8638 7.56752L13.8231 8.13865C13.8016 8.44115 13.9132 8.7367 14.1292 8.94959L14.5351 9.34943C14.6199 9.43299 14.6356 9.56205 14.5732 9.66338Z" fill="white"/>
<path d="M15.2385 10.0728C15.4928 9.65955 15.429 9.13322 15.0833 8.79279L14.6775 8.39299C14.6244 8.34076 14.5971 8.26826 14.6024 8.19408L14.643 7.62295C14.6776 7.13682 14.3759 6.69904 13.9093 6.55834L13.3718 6.39631C13.3001 6.37471 13.2419 6.32291 13.2121 6.2542L12.9872 5.73518C12.7951 5.29217 12.3116 5.03826 11.8381 5.13111L11.2927 5.23814C11.219 5.2526 11.1429 5.23385 11.0843 5.18654L10.6503 4.83607C10.2734 4.53189 9.72651 4.53182 9.34972 4.83607L8.91558 5.18658C8.85702 5.23389 8.78097 5.2526 8.70722 5.23814L8.16183 5.13115C7.68808 5.03814 7.20475 5.29217 7.01276 5.7351L6.78765 6.25428C6.75784 6.32291 6.69968 6.37471 6.628 6.39631L6.09061 6.55834C5.62401 6.699 5.32229 7.13678 5.3569 7.62295L5.39757 8.19404C5.40284 8.26826 5.37546 8.34076 5.32249 8.39295L4.91659 8.79279C4.57097 9.13326 4.50714 9.65959 4.7614 10.0728L5.06151 10.5604C5.10046 10.6237 5.10972 10.7006 5.08702 10.7712L4.91136 11.3174C4.76265 11.7799 4.95061 12.2763 5.36839 12.5243L5.85483 12.8131C5.91901 12.8513 5.963 12.9153 5.97554 12.9888L6.07124 13.5504C6.15343 14.0324 6.5519 14.386 7.0403 14.4103L7.59749 14.438C7.67249 14.4417 7.74159 14.4781 7.78706 14.5379L8.12675 14.9849C8.32675 15.248 8.63765 15.3926 8.9544 15.3926C9.10147 15.3926 9.24983 15.3614 9.38886 15.2963L9.89253 15.0612C9.96081 15.0293 10.0391 15.0293 10.1074 15.0612L10.611 15.2963C11.0496 15.5011 11.5804 15.3701 11.8732 14.9847L12.2128 14.5379C12.2582 14.4781 12.3273 14.4417 12.4023 14.4379L12.9596 14.4103C13.448 14.386 13.8465 14.0324 13.9287 13.5503L14.0244 12.9888C14.0369 12.9153 14.0809 12.8512 14.1451 12.8131L14.6316 12.5243C15.0493 12.2763 15.2373 11.7799 15.0885 11.3173L14.913 10.7713C14.8902 10.7006 14.8995 10.6237 14.9384 10.5605L15.2385 10.0728ZM14.5732 9.66338L14.273 10.1512C14.1144 10.409 14.0766 10.7222 14.1692 11.0105L14.3448 11.5565C14.3813 11.67 14.3352 11.7918 14.2327 11.8526L13.7462 12.1415C13.4847 12.2967 13.3054 12.5578 13.2543 12.8576L13.1586 13.4191C13.1384 13.5373 13.0407 13.6241 12.9209 13.63L12.3636 13.6577C12.0577 13.6729 11.776 13.8215 11.5908 14.0653L11.2512 14.5122C11.1794 14.6067 11.0492 14.6388 10.9416 14.5886L10.438 14.3534C10.1596 14.2234 9.84038 14.2234 9.56198 14.3534L9.05831 14.5886C8.95065 14.6388 8.82054 14.6066 8.74874 14.5122L8.40901 14.0652C8.22374 13.8214 7.9421 13.6729 7.63628 13.6577L7.07909 13.63C6.95933 13.6241 6.86159 13.5373 6.8414 13.4191L6.74569 12.8576C6.69456 12.5577 6.51526 12.2967 6.25374 12.1414L5.76729 11.8526C5.66479 11.7917 5.61866 11.67 5.65515 11.5565L5.83081 11.0104C5.92343 10.7222 5.88561 10.409 5.72694 10.1511L5.42679 9.66334C5.36444 9.56201 5.38011 9.43291 5.46487 9.34939L5.87081 8.94955C6.08683 8.7367 6.19843 8.44115 6.17686 8.13861L6.1362 7.56752C6.12772 7.44826 6.20171 7.34088 6.31616 7.30639L6.85354 7.14436C7.14581 7.05623 7.38308 6.84506 7.50444 6.56506L7.72956 6.04592C7.77015 5.95232 7.86374 5.89311 7.96319 5.89311C7.97917 5.89311 7.9953 5.89463 8.0114 5.89779L8.55675 6.00479C8.85804 6.06396 9.16761 5.98729 9.40636 5.79443L9.8405 5.44396C9.93288 5.36936 10.0671 5.36936 10.1595 5.44396L10.5936 5.79443C10.8323 5.98725 11.142 6.06385 11.4432 6.00482L11.9885 5.89779C12.1046 5.87494 12.2233 5.93732 12.2704 6.04596L12.4954 6.56498C12.6168 6.84506 12.8541 7.05627 13.1463 7.14436L13.6838 7.30639C13.7982 7.34088 13.8723 7.4483 13.8638 7.56752L13.8231 8.13865C13.8016 8.44115 13.9132 8.7367 14.1292 8.94959L14.5351 9.34943C14.6199 9.43299 14.6356 9.56205 14.5732 9.66338Z" fill="url(#paint5_radial_1116_1496)"/>
<path d="M11.017 8.00259C10.8292 7.89649 10.5909 7.96278 10.4848 8.15071L8.38446 11.8712C8.2784 12.0591 8.34469 12.2973 8.53259 12.4034C8.59325 12.4377 8.65919 12.4539 8.72427 12.4539C8.86059 12.4539 8.99298 12.3825 9.06477 12.2553L11.1651 8.53477C11.2712 8.34688 11.2049 8.10864 11.017 8.00259Z" fill="white"/>
<path d="M11.017 8.00259C10.8292 7.89649 10.5909 7.96278 10.4848 8.15071L8.38446 11.8712C8.2784 12.0591 8.34469 12.2973 8.53259 12.4034C8.59325 12.4377 8.65919 12.4539 8.72427 12.4539C8.86059 12.4539 8.99298 12.3825 9.06477 12.2553L11.1651 8.53477C11.2712 8.34688 11.2049 8.10864 11.017 8.00259Z" fill="url(#paint6_radial_1116_1496)"/>
<path d="M11.3649 10.3335C10.7187 10.3335 10.193 10.8592 10.193 11.5054C10.193 12.1515 10.7187 12.6772 11.3649 12.6772C12.011 12.6772 12.5367 12.1515 12.5367 11.5054C12.5367 10.8592 12.011 10.3335 11.3649 10.3335ZM11.3649 11.896C11.1495 11.896 10.9742 11.7208 10.9742 11.5054C10.9742 11.29 11.1495 11.1147 11.3649 11.1147C11.5803 11.1147 11.7555 11.29 11.7555 11.5054C11.7555 11.7208 11.5803 11.896 11.3649 11.896Z" fill="white"/>
<path d="M11.3649 10.3335C10.7187 10.3335 10.193 10.8592 10.193 11.5054C10.193 12.1515 10.7187 12.6772 11.3649 12.6772C12.011 12.6772 12.5367 12.1515 12.5367 11.5054C12.5367 10.8592 12.011 10.3335 11.3649 10.3335ZM11.3649 11.896C11.1495 11.896 10.9742 11.7208 10.9742 11.5054C10.9742 11.29 11.1495 11.1147 11.3649 11.1147C11.5803 11.1147 11.7555 11.29 11.7555 11.5054C11.7555 11.7208 11.5803 11.896 11.3649 11.896Z" fill="url(#paint7_radial_1116_1496)"/>
<path d="M8.63513 7.32275C7.98896 7.32275 7.46326 7.84846 7.46326 8.49463C7.46326 9.1408 7.98896 9.6665 8.63513 9.6665C9.2813 9.6665 9.80701 9.1408 9.80701 8.49463C9.80701 7.84842 9.2813 7.32275 8.63513 7.32275ZM8.63513 8.88525C8.41974 8.88525 8.24451 8.71002 8.24451 8.49463C8.24451 8.27924 8.41974 8.104 8.63513 8.104C8.85052 8.104 9.02576 8.27924 9.02576 8.49463C9.02576 8.71002 8.85052 8.88525 8.63513 8.88525Z" fill="white"/>
<path d="M8.63513 7.32275C7.98896 7.32275 7.46326 7.84846 7.46326 8.49463C7.46326 9.1408 7.98896 9.6665 8.63513 9.6665C9.2813 9.6665 9.80701 9.1408 9.80701 8.49463C9.80701 7.84842 9.2813 7.32275 8.63513 7.32275ZM8.63513 8.88525C8.41974 8.88525 8.24451 8.71002 8.24451 8.49463C8.24451 8.27924 8.41974 8.104 8.63513 8.104C8.85052 8.104 9.02576 8.27924 9.02576 8.49463C9.02576 8.71002 8.85052 8.88525 8.63513 8.88525Z" fill="url(#paint8_radial_1116_1496)"/>
</g>
<defs>
<radialGradient id="paint0_radial_1116_1496" cx="0" cy="0" r="1" gradientUnits="userSpaceOnUse" gradientTransform="translate(0.0341705 -2.74725) rotate(55.253) scale(33.4347 46.8155)">
<stop offset="0.151042" stop-color="#33A6FF"/>
<stop offset="0.907346" stop-color="#36C27F"/>
</radialGradient>
<radialGradient id="paint1_radial_1116_1496" cx="0" cy="0" r="1" gradientUnits="userSpaceOnUse" gradientTransform="translate(9.56208 1.94538) rotate(52.4991) scale(1.35931 1.96286)">
<stop offset="0.151042" stop-color="#33A6FF"/>
<stop offset="0.907346" stop-color="#36C27F"/>
</radialGradient>
<radialGradient id="paint2_radial_1116_1496" cx="0" cy="0" r="1" gradientUnits="userSpaceOnUse" gradientTransform="translate(2.38163 1.82626) rotate(58.0739) scale(12.1941 16.3637)">
<stop offset="0.151042" stop-color="#33A6FF"/>
<stop offset="0.907346" stop-color="#36C27F"/>
</radialGradient>
<radialGradient id="paint3_radial_1116_1496" cx="0" cy="0" r="1" gradientUnits="userSpaceOnUse" gradientTransform="translate(10.7854 2.96157) rotate(69.7726) scale(18.9062 18.3387)">
<stop offset="0.151042" stop-color="#33A6FF"/>
<stop offset="0.907346" stop-color="#36C27F"/>
</radialGradient>
<radialGradient id="paint4_radial_1116_1496" cx="0" cy="0" r="1" gradientUnits="userSpaceOnUse" gradientTransform="translate(9.57097 17.2877) rotate(52.2728) scale(1.36402 1.97377)">
<stop offset="0.151042" stop-color="#33A6FF"/>
<stop offset="0.907346" stop-color="#36C27F"/>
</radialGradient>
<radialGradient id="paint5_radial_1116_1496" cx="0" cy="0" r="1" gradientUnits="userSpaceOnUse" gradientTransform="translate(4.0872 3.1265) rotate(52.649) scale(18.6356 26.8719)">
<stop offset="0.151042" stop-color="#33A6FF"/>
<stop offset="0.907346" stop-color="#36C27F"/>
</radialGradient>
<radialGradient id="paint6_radial_1116_1496" cx="0" cy="0" r="1" gradientUnits="userSpaceOnUse" gradientTransform="translate(8.19517 7.33363) rotate(63.9672) scale(6.88221 8.11465)">
<stop offset="0.151042" stop-color="#33A6FF"/>
<stop offset="0.907346" stop-color="#36C27F"/>
</radialGradient>
<radialGradient id="paint7_radial_1116_1496" cx="0" cy="0" r="1" gradientUnits="userSpaceOnUse" gradientTransform="translate(10.0801 10.0116) rotate(52.6545) scale(4.04965 5.83914)">
<stop offset="0.151042" stop-color="#33A6FF"/>
<stop offset="0.907346" stop-color="#36C27F"/>
</radialGradient>
<radialGradient id="paint8_radial_1116_1496" cx="0" cy="0" r="1" gradientUnits="userSpaceOnUse" gradientTransform="translate(7.35041 7.00081) rotate(52.6545) scale(4.04965 5.83914)">
<stop offset="0.151042" stop-color="#33A6FF"/>
<stop offset="0.907346" stop-color="#36C27F"/>
</radialGradient>
<clipPath id="clip0_1116_1496">
<rect width="20" height="20" fill="white"/>
</clipPath>
</defs>
</svg>
