<svg width="24" height="30" viewBox="0 0 24 30" fill="none" xmlns="http://www.w3.org/2000/svg">
<path d="M11.9255 7.91602C7.81946 7.91602 4.49023 11.2452 4.49023 15.3513C4.49023 19.4573 7.81946 22.7866 11.9255 22.7866C16.0315 22.7866 19.3608 19.4203 19.3608 15.3513C19.3608 11.2822 16.0315 7.91602 11.9255 7.91602ZM11.9255 21.4549C8.55928 21.4549 5.78493 18.7175 5.78493 15.3143C5.78493 11.9111 8.55928 9.21071 11.9255 9.21071C15.2917 9.21071 18.0661 11.9481 18.0661 15.3513C18.0661 18.7545 15.2917 21.4549 11.9255 21.4549Z" fill="#231F20"/>
<path d="M23.6151 2.88533C23.4302 2.77435 23.2082 2.73736 23.0233 2.81134C21.7286 3.32922 20.4709 3.58816 19.2502 3.58816C14.9592 3.58816 12.4807 0.295931 12.4807 0.25894C12.3698 0.0739827 12.1478 0 11.9629 0C11.7409 0 11.556 0.110974 11.445 0.25894C11.408 0.295931 8.96656 3.55117 4.67556 3.58816C3.45485 3.58816 2.19714 3.32922 0.902442 2.81134C0.717485 2.73736 0.458545 2.73736 0.310579 2.88533C0.125623 2.9963 0.0146484 3.21825 0.0146484 3.4402V16.979C0.0146484 21.7139 3.71379 27.7805 11.8149 29.963C11.8519 29.963 11.9259 30 11.9999 30C12.0738 30 12.1108 30 12.1848 29.963C20.2859 27.7805 23.9851 21.7139 23.9851 16.979V3.40321C23.9111 3.18126 23.8001 2.9963 23.6151 2.88533ZM22.5794 16.942C22.5794 21.1591 19.2502 26.5598 11.9259 28.5943C4.60158 26.5598 1.27236 21.1591 1.27236 16.942V4.32799C2.41909 4.6979 3.52883 4.88286 4.63857 4.88286C8.41169 4.88286 10.9271 2.73736 11.9259 1.66461C12.9616 2.73736 15.4401 4.88286 19.2132 4.88286C20.3229 4.88286 21.4327 4.6979 22.5794 4.32799V16.942Z" fill="white"/>
<path d="M23.6151 2.88533C23.4302 2.77435 23.2082 2.73736 23.0233 2.81134C21.7286 3.32922 20.4709 3.58816 19.2502 3.58816C14.9592 3.58816 12.4807 0.295931 12.4807 0.25894C12.3698 0.0739827 12.1478 0 11.9629 0C11.7409 0 11.556 0.110974 11.445 0.25894C11.408 0.295931 8.96656 3.55117 4.67556 3.58816C3.45485 3.58816 2.19714 3.32922 0.902442 2.81134C0.717485 2.73736 0.458545 2.73736 0.310579 2.88533C0.125623 2.9963 0.0146484 3.21825 0.0146484 3.4402V16.979C0.0146484 21.7139 3.71379 27.7805 11.8149 29.963C11.8519 29.963 11.9259 30 11.9999 30C12.0738 30 12.1108 30 12.1848 29.963C20.2859 27.7805 23.9851 21.7139 23.9851 16.979V3.40321C23.9111 3.18126 23.8001 2.9963 23.6151 2.88533ZM22.5794 16.942C22.5794 21.1591 19.2502 26.5598 11.9259 28.5943C4.60158 26.5598 1.27236 21.1591 1.27236 16.942V4.32799C2.41909 4.6979 3.52883 4.88286 4.63857 4.88286C8.41169 4.88286 10.9271 2.73736 11.9259 1.66461C12.9616 2.73736 15.4401 4.88286 19.2132 4.88286C20.3229 4.88286 21.4327 4.6979 22.5794 4.32799V16.942Z" fill="url(#paint0_radial_1181_8549)"/>
<defs>
<radialGradient id="paint0_radial_1181_8549" cx="0" cy="0" r="1" gradientUnits="userSpaceOnUse" gradientTransform="translate(-1.13948 -4.12088) rotate(58.6298) scale(48.2639 64.1383)">
<stop offset="0.151042" stop-color="#33A6FF"/>
<stop offset="0.907346" stop-color="#36C27F"/>
</radialGradient>
</defs>
</svg>
