<svg width="30" height="30" viewBox="0 0 30 30" fill="none" xmlns="http://www.w3.org/2000/svg">
<g clip-path="url(#clip0_1181_8548)">
<path d="M2.35148 14.0858C1.29551 14.0858 0.439453 13.2297 0.439453 12.1738C0.439453 12.0285 0.455684 11.8869 0.486387 11.7508C0.734414 10.6523 2.35148 10.8324 2.35148 11.9587H14.5887C14.5887 10.8325 16.2057 10.6523 16.4538 11.7508C16.4845 11.8869 16.5007 12.0285 16.5007 12.1738C16.5007 13.2297 15.6446 14.0858 14.5887 14.0858" fill="#FFCBBE"/>
<path d="M10.1292 17.6002H6.81113C4.3482 17.6002 2.35156 15.6035 2.35156 13.1406V6.85107H14.5887V13.1406C14.5887 15.6036 12.5922 17.6002 10.1292 17.6002Z" fill="#FFDDCE"/>
<path d="M9.74047 17.6004H6.81107C4.34838 17.6004 2.35156 15.6035 2.35156 13.1409V6.85107H5.28096V13.1409C5.2809 15.6035 7.27736 17.6004 9.74047 17.6004Z" fill="#FFCBBE"/>
<path d="M12.5054 13.6346C13.0586 13.6346 13.507 13.3619 13.507 13.0255C13.507 12.6892 13.0586 12.4165 12.5054 12.4165C11.9523 12.4165 11.5039 12.6892 11.5039 13.0255C11.5039 13.3619 11.9523 13.6346 12.5054 13.6346Z" fill="#EAA598"/>
<path d="M4.43318 13.6346C4.98632 13.6346 5.43472 13.3619 5.43472 13.0255C5.43472 12.6892 4.98632 12.4165 4.43318 12.4165C3.88005 12.4165 3.43164 12.6892 3.43164 13.0255C3.43164 13.3619 3.88005 13.6346 4.43318 13.6346Z" fill="#EAA598"/>
<path d="M5.40352 2.48535H3.51C2.33355 2.48535 1.37988 3.43902 1.37988 4.61547V7.50016C1.37988 8.08668 1.85537 8.56211 2.44184 8.56211H3.77309C5.52662 8.56211 6.94816 7.14057 6.94816 5.38703V4.03C6.94816 3.17693 6.25664 2.48535 5.40352 2.48535Z" fill="#AA7A63"/>
<path d="M5.39209 2.48486C4.21582 2.48486 3.26215 3.43854 3.26215 4.61527V8.5618H2.44184C1.85531 8.5618 1.37988 8.08631 1.37988 7.49984V4.61527C1.37988 3.43859 2.33355 2.48486 3.50982 2.48486H5.39209Z" fill="#986B54"/>
<path d="M11.7604 8.04328H8.81162C7.21512 8.04328 5.9209 6.74906 5.9209 5.15256V3.33018C5.9209 1.73367 7.21512 0.439453 8.81162 0.439453H17.4409V2.36273C17.441 5.50002 14.8976 8.04328 11.7604 8.04328Z" fill="#AA7A63"/>
<path d="M11.3606 8.04299H8.8115C7.21482 8.04299 5.9209 6.74906 5.9209 5.15238V3.33006C5.9209 1.73338 7.21482 0.439453 8.8115 0.439453H11.3606C9.76388 0.439453 8.46996 1.73338 8.46996 3.33006V5.15238C8.46996 6.74906 9.76388 8.04299 11.3606 8.04299Z" fill="#986B54"/>
<path d="M15.4111 26.0463C14.3551 26.0463 13.499 25.1903 13.499 24.1342C13.499 23.9889 13.5153 23.8474 13.546 23.7113C13.794 22.6127 15.4111 22.7929 15.4111 23.9191H27.6484C27.6484 22.7929 29.2655 22.6127 29.5136 23.7113C29.5443 23.8474 29.5605 23.9889 29.5605 24.1342C29.5605 25.1903 28.7045 26.0463 27.6484 26.0463" fill="#FFA564"/>
<path d="M23.1888 29.5605H19.8707C17.4077 29.5605 15.4111 27.5639 15.4111 25.101V18.8113L21.53 15.0498L27.6484 18.8113V25.101C27.6484 27.5639 25.6517 29.5605 23.1888 29.5605Z" fill="#C38959"/>
<path d="M27.6488 16.659V19.2828C27.6488 19.2828 26.7568 17.8143 25.3449 17.8143C23.9338 17.8143 23.3591 19.5582 21.53 19.5582C19.7014 19.5582 19.1262 17.8143 17.715 17.8143C16.3038 17.8143 15.4111 19.2828 15.4111 19.2828V16.659C15.4111 14.9773 16.7748 13.6143 18.4565 13.6143H24.6034C26.2851 13.6142 27.6488 14.9773 27.6488 16.659Z" fill="#536D82"/>
<path d="M18.4565 13.6143H21.4014C19.7197 13.6143 18.356 14.9773 18.356 16.659V17.9416C18.1592 17.8618 17.9484 17.8143 17.715 17.8143C16.3038 17.8143 15.4111 19.2828 15.4111 19.2828V16.659C15.4111 14.9773 16.7748 13.6143 18.4565 13.6143Z" fill="#536D82"/>
<path d="M22.7998 29.5604H19.8708C17.4079 29.5604 15.4111 27.5636 15.4111 25.1013V19.2829C15.4111 19.2829 16.3038 17.8145 17.715 17.8145C17.9423 17.8145 18.1482 17.8596 18.3408 17.9357V25.1013C18.3408 27.5636 20.3369 29.5604 22.7998 29.5604Z" fill="#FFA564"/>
<path d="M18.8298 8.45902C18.886 8.97178 19.3014 9.37238 19.8161 9.40842C19.8587 9.41141 19.9009 9.41439 19.9432 9.41715C20.2571 9.43842 20.501 9.69904 20.501 10.0137V11.203C20.501 11.603 20.959 11.8301 21.2772 11.5878C21.8579 11.1454 22.6305 10.4874 23.1045 9.80521C23.2166 9.64367 23.402 9.54951 23.5987 9.55062C25.0582 9.55801 26.5176 9.51107 27.9771 9.40847C28.384 9.38012 28.7294 9.12441 28.8834 8.76471C28.9243 8.67031 28.9516 8.56824 28.9633 8.46154C29.1795 6.48711 29.1795 4.51244 28.9633 2.53777C28.9071 2.02555 28.4915 1.62681 27.9776 1.59084C25.8034 1.43826 23.6295 1.40773 21.4557 1.49914C20.9093 1.52181 20.3627 1.55234 19.8164 1.59084C19.3022 1.62687 18.8863 2.02555 18.8301 2.53777C18.614 4.51156 18.614 6.48517 18.8298 8.45902Z" fill="#57B3FF"/>
<path d="M19.387 2.48314C19.1657 4.50475 19.1657 6.52658 19.387 8.54783C19.399 8.65723 19.427 8.76158 19.4689 8.85838C19.576 9.10875 19.7737 9.3099 20.0204 9.42205C19.9524 9.41766 19.8844 9.41303 19.8165 9.40816C19.4095 9.37975 19.0641 9.1241 18.9102 8.76434C18.8692 8.66988 18.8418 8.56781 18.8302 8.46111C18.6139 6.48686 18.6139 4.51213 18.8302 2.5374C18.8864 2.02529 19.3019 1.62656 19.8158 1.59053C19.9161 1.58361 20.0165 1.57664 20.117 1.57031C19.7258 1.70502 19.434 2.05559 19.387 2.48314Z" fill="#FAC600"/>
<path d="M12.3018 25.9984C12.2444 26.5221 11.8202 26.9312 11.2945 26.968C11.2511 26.971 11.2079 26.9741 11.1646 26.9769C10.8441 26.9986 10.595 27.2648 10.595 27.5862V28.8007C10.595 29.2093 10.1274 29.4412 9.80234 29.1937C9.20925 28.742 8.42023 28.07 7.93613 27.3732C7.82158 27.2082 7.63232 27.1121 7.4314 27.1132C5.94089 27.1207 4.45039 27.0728 2.95988 26.968C2.54433 26.939 2.19148 26.6778 2.03433 26.3105C1.99255 26.2141 1.96466 26.1098 1.95265 26.0009C1.73193 23.9845 1.73193 21.9678 1.95265 19.9511C2.01007 19.428 2.43453 19.0208 2.95935 18.984C5.17976 18.8282 7.39994 18.797 9.62005 18.8904C10.178 18.9135 10.7363 18.9448 11.2942 18.984C11.8193 19.0208 12.244 19.428 12.3014 19.9511C12.5223 21.967 12.5223 23.9825 12.3018 25.9984Z" fill="#F9F6F6"/>
<path d="M2.52144 19.8955C2.29538 21.9602 2.29538 24.0251 2.52144 26.0893C2.53368 26.201 2.56228 26.3076 2.60505 26.4064C2.71444 26.6621 2.91642 26.8676 3.16825 26.9821C3.09882 26.9776 3.02944 26.9729 2.96001 26.9679C2.5444 26.9389 2.19155 26.6778 2.03446 26.3104C1.99257 26.2139 1.96462 26.1097 1.95278 26.0007C1.73188 23.9845 1.73188 21.9677 1.95278 19.951C2.01015 19.428 2.43454 19.0207 2.95931 18.984C3.06179 18.9769 3.16433 18.9698 3.26704 18.9634C2.86737 19.1009 2.56937 19.4589 2.52144 19.8955Z" fill="#57B3FF"/>
<path d="M5.60148 12.0619C5.92076 12.0619 6.18051 11.6312 6.18051 11.1017C6.18051 10.5723 5.92076 10.1416 5.60148 10.1416C5.28221 10.1416 5.02246 10.5723 5.02246 11.1017C5.02246 11.6312 5.28227 12.0619 5.60148 12.0619Z" fill="#2B3B47"/>
<path d="M11.3398 12.0619C11.659 12.0619 11.9188 11.6312 11.9188 11.1017C11.9188 10.5723 11.659 10.1416 11.3398 10.1416C11.0205 10.1416 10.7607 10.5723 10.7607 11.1017C10.7608 11.6312 11.0205 12.0619 11.3398 12.0619Z" fill="#2B3B47"/>
<path d="M6.81111 18.0405H10.1292C12.3543 18.0405 14.2363 16.5488 14.8312 14.5134C16.0143 14.3916 16.9402 13.3891 16.9402 12.1744C16.9402 11.9992 16.9207 11.8243 16.8824 11.6547C16.7219 10.9438 16.104 10.5035 15.3795 10.5844C15.2552 10.5982 15.138 10.6272 15.0281 10.668V7.53607C16.741 6.4501 17.8805 4.53754 17.8805 2.36365V0.44043C17.8805 0.197734 17.6838 0.000976562 17.4411 0.000976562H8.81174C7.42031 0.000976562 6.22617 0.859082 5.72889 2.07361C5.62184 2.05586 5.51309 2.04648 5.40287 2.04648H3.50918C2.49223 2.04648 1.56949 2.64789 1.15834 3.57871C1.06031 3.80072 1.1608 4.06018 1.38281 4.15826C1.44053 4.18375 1.50082 4.19582 1.56012 4.19582C1.72881 4.19582 1.88977 4.09809 1.96236 3.93379C2.23289 3.32119 2.8401 2.92539 3.50918 2.92539H5.40293C5.43773 2.92539 5.47225 2.92738 5.50658 2.93055C5.49076 3.06197 5.48162 3.19551 5.48162 3.33115V5.15354C5.48162 5.81693 5.67738 6.43516 6.01307 6.95488C5.50447 7.68098 4.66945 8.12324 3.77285 8.12324H2.4416C2.09818 8.12324 1.81875 7.8441 1.81875 7.50098V5.49531C1.81875 5.25262 1.62199 5.05586 1.3793 5.05586C1.1366 5.05586 0.939844 5.25262 0.939844 5.49531V7.50098C0.939844 8.14252 1.34461 8.69107 1.91221 8.90553V10.668C1.80223 10.6272 1.68498 10.5981 1.5607 10.5843C0.836367 10.5037 0.218262 10.9437 0.0577148 11.6546C0.0194531 11.8243 0 11.9992 0 12.1744C0 13.3891 0.925957 14.3917 2.10908 14.5134C2.70398 16.5488 4.58607 18.0405 6.81111 18.0405ZM15.4768 11.4578C15.5517 11.4494 15.9305 11.429 16.0251 11.8482C16.0491 11.9545 16.0613 12.0642 16.0613 12.1744C16.0613 12.841 15.6158 13.4053 15.007 13.5861C15.0202 13.4395 15.0281 13.2914 15.0281 13.1415V12.8314C15.1141 12.7461 15.2388 12.6551 15.3486 12.6627C15.5902 12.6794 15.8006 12.4967 15.8173 12.2546C15.8341 12.0125 15.6514 11.8026 15.4093 11.7859C15.278 11.7768 15.1556 11.792 15.0429 11.8228C15.1123 11.5159 15.4107 11.4652 15.4768 11.4578ZM6.36053 3.33115C6.36053 1.97951 7.46016 0.879883 8.81174 0.879883H17.0016V2.36365C17.0016 5.25361 14.6504 7.60475 11.7605 7.60475H8.81174C7.46016 7.60475 6.36053 6.50512 6.36053 5.15348V3.33115ZM6.59936 7.63973C7.18805 8.1642 7.96312 8.48371 8.81174 8.48371H11.7605C12.6075 8.48371 13.4149 8.31062 14.1492 7.99814V13.1416C14.1492 15.3582 12.3459 17.1616 10.1292 17.1616H6.81111C4.59445 17.1616 2.79111 15.3582 2.79111 13.1416V9.00215H3.77285C4.88145 9.00215 5.91996 8.49139 6.59936 7.63973ZM0.878906 12.1744C0.878906 12.0642 0.891094 11.9545 0.915059 11.8482C1.00969 11.429 1.38838 11.4494 1.46332 11.4578C1.52947 11.4652 1.82807 11.5159 1.89732 11.823C1.79256 11.7944 1.67941 11.7791 1.55842 11.7844C1.31596 11.7949 1.12793 12 1.13842 12.2424C1.14896 12.4849 1.35246 12.6722 1.5965 12.6624C1.70426 12.6569 1.82719 12.7472 1.91221 12.8315V13.1415C1.91221 13.2914 1.92006 13.4395 1.9333 13.5861C1.32445 13.4054 0.878906 12.8411 0.878906 12.1744Z" fill="#2B3B47"/>
<path d="M8.46983 15.1577C8.89715 15.1577 9.29893 14.9913 9.6011 14.6891C9.77272 14.5175 9.77272 14.2392 9.6011 14.0677C9.42948 13.8961 9.15122 13.8961 8.97965 14.0677C8.84348 14.2039 8.66243 14.2789 8.46989 14.2789C8.27735 14.2789 8.09629 14.2039 7.96012 14.0677C7.7885 13.8961 7.51024 13.8961 7.33868 14.0677C7.16706 14.2393 7.16706 14.5176 7.33868 14.6891C7.64073 14.9914 8.0425 15.1577 8.46983 15.1577Z" fill="#2B3B47"/>
<path d="M29.9999 24.1338C29.9999 23.9586 29.9804 23.7837 29.9422 23.614C29.7816 22.9031 29.1631 22.4633 28.4392 22.5437C28.315 22.5575 28.1978 22.5866 28.0879 22.6274V18.8112V16.6593C28.0879 14.7379 26.5247 13.1748 24.6034 13.1748H18.4562C16.5348 13.1748 14.9716 14.738 14.9716 16.6593V22.6273C14.8617 22.5866 14.7445 22.5575 14.6203 22.5437C13.8963 22.4631 13.2778 22.903 13.1173 23.614C13.079 23.7837 13.0596 23.9585 13.0596 24.1337C13.0596 25.3485 13.9855 26.3511 15.1687 26.4728C15.7636 28.5082 17.6456 29.9998 19.8707 29.9998H23.1889C25.414 29.9998 27.296 28.5082 27.8909 26.4728C29.074 26.351 29.9999 25.3485 29.9999 24.1338ZM18.4562 14.0537H24.6033C26.0401 14.0537 27.2089 15.2225 27.2089 16.6593V18.1238C26.7536 17.7362 26.1213 17.3748 25.345 17.3748C24.5309 17.3748 23.969 17.824 23.4255 18.2585C22.8721 18.7008 22.3493 19.1187 21.5299 19.1187C20.7102 19.1187 20.1874 18.7008 19.6339 18.2583C19.2878 17.9815 18.9298 17.6954 18.5024 17.5269C18.2438 17.4246 17.9861 17.3748 17.715 17.3748C16.9382 17.3748 16.3058 17.7364 15.8505 18.1243V16.6593C15.8506 15.2225 17.0195 14.0537 18.4562 14.0537ZM13.9385 24.1338C13.9385 24.0236 13.9507 23.9139 13.9746 23.8076C14.0693 23.3884 14.448 23.4088 14.5229 23.4172C14.5891 23.4246 14.8883 23.4755 14.9571 23.7836C14.8985 23.7675 14.8377 23.7548 14.7739 23.7483C14.5322 23.7237 14.3168 23.8996 14.2922 24.141C14.2677 24.3825 14.4435 24.5981 14.6849 24.6227C14.7854 24.633 14.8947 24.7153 14.9717 24.7913V25.101C14.9717 25.2509 14.9796 25.399 14.9928 25.5456C14.384 25.3648 13.9385 24.8005 13.9385 24.1338ZM23.1888 29.121H19.8707C17.654 29.121 15.8507 27.3176 15.8507 25.1009V19.417C16.0596 19.1241 16.7608 18.2538 17.715 18.2538C17.8735 18.2538 18.0253 18.2834 18.1796 18.3444C18.4845 18.4646 18.7762 18.6979 19.0852 18.9449C19.6719 19.4139 20.4021 19.9977 21.53 19.9977C22.6575 19.9977 23.3877 19.414 23.9743 18.9451C24.4575 18.5589 24.8391 18.2538 25.345 18.2538C26.2992 18.2538 27.0003 19.124 27.2089 19.4163V25.101C27.2089 27.3176 25.4055 29.121 23.1888 29.121ZM28.0667 25.5455C28.08 25.3989 28.0878 25.2508 28.0878 25.1009V24.791C28.169 24.7107 28.2854 24.6244 28.3901 24.6217C28.6327 24.6156 28.8245 24.4139 28.8184 24.1713C28.8123 23.9286 28.6123 23.737 28.3679 23.743C28.274 23.7454 28.1858 23.7608 28.1023 23.7837C28.1711 23.4754 28.4703 23.4245 28.5366 23.4171C28.6114 23.4088 28.9902 23.3882 29.0848 23.8075C29.1089 23.9137 29.121 24.0235 29.121 24.1337C29.121 24.8004 28.6755 25.3648 28.0667 25.5455Z" fill="#2B3B47"/>
<path d="M18.6611 24.0219C18.9808 24.0219 19.2401 23.592 19.2401 23.0617C19.2401 22.5314 18.9808 22.1016 18.6611 22.1016C18.3413 22.1016 18.082 22.5314 18.082 23.0617C18.082 23.592 18.3413 24.0219 18.6611 24.0219Z" fill="#2B3B47"/>
<path d="M24.3984 22.1016C24.0791 22.1016 23.8193 22.5323 23.8193 23.0617C23.8193 23.5912 24.0791 24.0219 24.3984 24.0219C24.7176 24.0219 24.9774 23.5912 24.9774 23.0617C24.9774 22.5323 24.7176 22.1016 24.3984 22.1016Z" fill="#2B3B47"/>
<path d="M22.0402 26.0282C21.904 26.1643 21.7229 26.2393 21.5304 26.2393C21.3379 26.2393 21.1568 26.1643 21.0206 26.0282C20.849 25.8565 20.5708 25.8565 20.3992 26.0282C20.2276 26.1998 20.2276 26.478 20.3992 26.6496C20.7014 26.9518 21.1031 27.1182 21.5305 27.1182C21.9578 27.1182 22.3596 26.9518 22.6617 26.6496C22.8334 26.478 22.8333 26.1997 22.6617 26.0282C22.4899 25.8565 22.2117 25.8565 22.0402 26.0282Z" fill="#2B3B47"/>
<path d="M19.785 9.84671L19.8238 9.84952C19.854 9.85175 19.8843 9.85398 19.9143 9.85567C19.9967 9.86235 20.0611 9.93138 20.0611 10.0136V11.203C20.0611 11.5563 20.2576 11.8732 20.5739 12.0301C20.7049 12.095 20.8452 12.127 20.9847 12.127C21.1821 12.127 21.3778 12.063 21.5426 11.9376C22.1387 11.4835 22.9561 10.7883 23.4647 10.0557C23.4934 10.0143 23.5424 9.98956 23.5955 9.99015C24.7751 9.99589 25.9625 9.9663 27.1238 9.90155C27.3661 9.88808 27.5516 9.68066 27.5381 9.43831C27.5246 9.19597 27.3163 9.01087 27.0749 9.024C25.9314 9.08769 24.7626 9.11716 23.6004 9.11118C23.2563 9.11148 22.937 9.27478 22.7428 9.55427C22.2995 10.1928 21.5557 10.8226 21.0103 11.2381C21.0027 11.2439 20.9885 11.2545 20.9643 11.2426C20.94 11.2305 20.94 11.2126 20.94 11.203V10.0135C20.94 9.47066 20.5152 9.01614 19.973 8.97864C19.971 8.97853 19.9691 8.97835 19.9671 8.97829C19.941 8.97683 19.9147 8.97484 19.8885 8.97296L19.846 8.96985C19.5433 8.94888 19.2994 8.71386 19.2662 8.41122C19.0545 6.47833 19.0545 4.51831 19.2662 2.58554C19.2993 2.28454 19.5433 2.05046 19.8465 2.02902C20.3862 1.99087 20.9334 1.96034 21.4735 1.93831C23.6207 1.84796 25.7984 1.87849 27.9461 2.02902C28.2489 2.0504 28.4927 2.28448 28.5257 2.58536C28.7376 4.51931 28.7376 6.48015 28.5257 8.41339C28.519 8.47462 28.5031 8.53497 28.4794 8.59064C28.459 8.63804 28.4329 8.68245 28.4019 8.72265C28.2536 8.91484 28.2893 9.19081 28.4815 9.339C28.6738 9.48724 28.9497 9.45161 29.0979 9.25937C29.1735 9.16134 29.2369 9.05353 29.2872 8.93704C29.3455 8.80005 29.3833 8.65614 29.3994 8.50919C29.6181 6.51237 29.6181 4.48708 29.3994 2.48956C29.3199 1.76611 28.7348 1.20366 28.0077 1.15228C25.8272 0.999524 23.6163 0.968586 21.437 1.06017C20.8889 1.08255 20.3328 1.11349 19.7845 1.15234C19.0574 1.20372 18.472 1.76616 18.3925 2.48974C18.1739 4.48609 18.1739 6.51056 18.3925 8.50702C18.4723 9.23282 19.0579 9.79626 19.785 9.84671Z" fill="#2B3B47"/>
<path d="M11.3244 18.5458C10.7651 18.5064 10.1976 18.4747 9.63778 18.4515C7.41168 18.3578 5.15413 18.3895 2.92786 18.5458C2.18987 18.5975 1.59573 19.1684 1.51504 19.9035C1.29186 21.9425 1.29186 24.0101 1.51504 26.0491C1.53174 26.2008 1.57053 26.3476 1.62954 26.4835C1.856 27.0128 2.35375 27.3664 2.92833 27.4065C4.41672 27.5112 5.93237 27.5601 7.43307 27.5528C7.49014 27.5518 7.54323 27.5791 7.57452 27.6241C8.09383 28.3716 8.92745 29.0804 9.53536 29.5435C9.70194 29.6703 9.89981 29.7351 10.0995 29.7351C10.2405 29.7351 10.3824 29.7029 10.5148 29.6372C10.8348 29.4786 11.0337 29.1582 11.0337 28.8009V27.5863C11.0337 27.4966 11.1039 27.4216 11.192 27.4156C11.2362 27.4128 11.2804 27.4096 11.3244 27.4065C12.0626 27.3549 12.6571 26.7828 12.7378 26.0464C12.7378 26.0464 12.7378 26.0464 12.7378 26.0463C12.9607 24.0078 12.9606 21.9411 12.7375 19.9033C12.6569 19.1685 12.0625 18.5975 11.3244 18.5458ZM11.8642 25.9507C11.8298 26.2643 11.577 26.5079 11.2626 26.5298C11.2202 26.5328 11.178 26.5359 11.1341 26.5386C10.5849 26.5759 10.1548 27.0361 10.1548 27.5863V28.8009C10.1548 28.8111 10.1548 28.8347 10.1246 28.8497C10.0945 28.8647 10.0758 28.8504 10.0679 28.8443C9.51028 28.4196 8.75032 27.7762 8.29639 27.1228C8.10104 26.8414 7.77907 26.674 7.43436 26.674C7.43237 26.674 7.43043 26.674 7.42844 26.674C5.95018 26.6815 4.45657 26.633 2.98979 26.5298C2.7454 26.5128 2.53381 26.3626 2.43678 26.1358C2.412 26.0787 2.39583 26.0172 2.38879 25.9533C2.17258 23.978 2.17258 21.9748 2.38879 19.9993C2.42307 19.6871 2.67567 19.4446 2.98938 19.4226C5.18307 19.2687 7.40747 19.2374 9.60116 19.3297C10.1528 19.3525 10.7117 19.3837 11.2628 19.4226C11.5768 19.4446 11.8297 19.6871 11.8639 19.9991C12.0801 21.9733 12.0801 23.9757 11.8642 25.9507Z" fill="#2B3B47"/>
<path d="M10.5625 20.0488H3.29688C3.05418 20.0488 2.85742 20.2456 2.85742 20.4883C2.85742 20.731 3.05418 20.9277 3.29688 20.9277H10.5625C10.8052 20.9277 11.002 20.731 11.002 20.4883C11.002 20.2456 10.8052 20.0488 10.5625 20.0488Z" fill="#2B3B47"/>
<path d="M10.5625 21.9307H3.29688C3.05418 21.9307 2.85742 22.1274 2.85742 22.3701C2.85742 22.6128 3.05418 22.8096 3.29688 22.8096H10.5625C10.8052 22.8096 11.002 22.6128 11.002 22.3701C11.002 22.1274 10.8052 21.9307 10.5625 21.9307Z" fill="#2B3B47"/>
<path d="M5.8893 23.8125H3.29688C3.05418 23.8125 2.85742 24.0093 2.85742 24.252C2.85742 24.4946 3.05418 24.6914 3.29688 24.6914H5.8893C6.13199 24.6914 6.32875 24.4946 6.32875 24.252C6.32875 24.0093 6.13199 23.8125 5.8893 23.8125Z" fill="#2B3B47"/>
<path d="M27.4453 2.64746H20.1797C19.937 2.64746 19.7402 2.84422 19.7402 3.08691C19.7402 3.32961 19.937 3.52637 20.1797 3.52637H27.4453C27.688 3.52637 27.8848 3.32961 27.8848 3.08691C27.8848 2.84422 27.688 2.64746 27.4453 2.64746Z" fill="#2B3B47"/>
<path d="M27.8848 4.96875C27.8848 4.72605 27.688 4.5293 27.4453 4.5293H20.1797C19.937 4.5293 19.7402 4.72605 19.7402 4.96875C19.7402 5.21145 19.937 5.4082 20.1797 5.4082H27.4453C27.688 5.4082 27.8848 5.21145 27.8848 4.96875Z" fill="#2B3B47"/>
<path d="M20.1797 6.41162C19.937 6.41162 19.7402 6.60838 19.7402 6.85107C19.7402 7.09377 19.937 7.29053 20.1797 7.29053H22.7722C23.0149 7.29053 23.2116 7.09377 23.2116 6.85107C23.2116 6.60838 23.0149 6.41162 22.7722 6.41162H20.1797Z" fill="#2B3B47"/>
</g>
<defs>
<clipPath id="clip0_1181_8548">
<rect width="30" height="30" fill="white"/>
</clipPath>
</defs>
</svg>
