<svg width="20" height="30" viewBox="0 0 20 30" fill="none" xmlns="http://www.w3.org/2000/svg">
<path d="M17.6717 0H2.36087C1.41212 0 0.626953 0.785169 0.626953 1.73392V28.2661C0.626953 29.2148 1.41212 30 2.36087 30H17.639C18.5877 30 19.3729 29.2148 19.3729 28.2661V1.76663C19.4056 0.785169 18.6204 0 17.6717 0ZM18.2278 28.2661C18.2278 28.5932 17.9661 28.855 17.639 28.855H2.36087C2.03372 28.855 1.77199 28.5932 1.77199 28.2661V1.76663C1.77199 1.43948 2.03372 1.17775 2.36087 1.17775H17.639C17.9661 1.17775 18.2278 1.43948 18.2278 1.76663V28.2661Z" fill="white"/>
<path d="M17.6717 0H2.36087C1.41212 0 0.626953 0.785169 0.626953 1.73392V28.2661C0.626953 29.2148 1.41212 30 2.36087 30H17.639C18.5877 30 19.3729 29.2148 19.3729 28.2661V1.76663C19.4056 0.785169 18.6204 0 17.6717 0ZM18.2278 28.2661C18.2278 28.5932 17.9661 28.855 17.639 28.855H2.36087C2.03372 28.855 1.77199 28.5932 1.77199 28.2661V1.76663C1.77199 1.43948 2.03372 1.17775 2.36087 1.17775H17.639C17.9661 1.17775 18.2278 1.43948 18.2278 1.76663V28.2661Z" fill="url(#paint0_radial_1180_6960)"/>
<path d="M15.3488 4.38379H4.68362C3.93116 4.38379 3.30957 5.00538 3.30957 5.75784V24.242C3.30957 24.9945 3.93116 25.6161 4.68362 25.6161H15.3488C16.1013 25.6161 16.7229 24.9945 16.7229 24.242V5.75784C16.7229 5.00538 16.1013 4.38379 15.3488 4.38379ZM15.5778 24.2747C15.5778 24.4056 15.4797 24.5037 15.3488 24.5037H4.68362C4.55275 24.5037 4.45461 24.4056 4.45461 24.2747V5.75784C4.45461 5.62697 4.55275 5.52883 4.68362 5.52883H15.3488C15.4797 5.52883 15.5778 5.62697 15.5778 5.75784V24.2747Z" fill="white"/>
<path d="M15.3488 4.38379H4.68362C3.93116 4.38379 3.30957 5.00538 3.30957 5.75784V24.242C3.30957 24.9945 3.93116 25.6161 4.68362 25.6161H15.3488C16.1013 25.6161 16.7229 24.9945 16.7229 24.242V5.75784C16.7229 5.00538 16.1013 4.38379 15.3488 4.38379ZM15.5778 24.2747C15.5778 24.4056 15.4797 24.5037 15.3488 24.5037H4.68362C4.55275 24.5037 4.45461 24.4056 4.45461 24.2747V5.75784C4.45461 5.62697 4.55275 5.52883 4.68362 5.52883H15.3488C15.4797 5.52883 15.5778 5.62697 15.5778 5.75784V24.2747Z" fill="url(#paint1_radial_1180_6960)"/>
<path d="M11.4229 26.7285H8.60938C8.28223 26.7285 8.02051 26.9902 8.02051 27.3174C8.02051 27.6445 8.28223 27.9063 8.60938 27.9063H11.4229C11.7501 27.9063 12.0118 27.6445 12.0118 27.3174C12.0118 26.9902 11.7501 26.7285 11.4229 26.7285Z" fill="white"/>
<path d="M11.4229 26.7285H8.60938C8.28223 26.7285 8.02051 26.9902 8.02051 27.3174C8.02051 27.6445 8.28223 27.9063 8.60938 27.9063H11.4229C11.7501 27.9063 12.0118 27.6445 12.0118 27.3174C12.0118 26.9902 11.7501 26.7285 11.4229 26.7285Z" fill="url(#paint2_radial_1180_6960)"/>
<path d="M9.42677 3.63137H10.6045C10.9317 3.63137 11.1934 3.36964 11.1934 3.04249C11.1934 2.71534 10.9317 2.45361 10.6045 2.45361H9.42677C9.09961 2.45361 8.83789 2.71534 8.83789 3.04249C8.83789 3.36964 9.09961 3.63137 9.42677 3.63137Z" fill="white"/>
<path d="M9.42677 3.63137H10.6045C10.9317 3.63137 11.1934 3.36964 11.1934 3.04249C11.1934 2.71534 10.9317 2.45361 10.6045 2.45361H9.42677C9.09961 2.45361 8.83789 2.71534 8.83789 3.04249C8.83789 3.36964 9.09961 3.63137 9.42677 3.63137Z" fill="url(#paint3_radial_1180_6960)"/>
<defs>
<radialGradient id="paint0_radial_1180_6960" cx="0" cy="0" r="1" gradientUnits="userSpaceOnUse" gradientTransform="translate(-0.275676 -4.12088) rotate(64.5069) scale(45.6538 53.0295)">
<stop offset="0.151042" stop-color="#33A6FF"/>
<stop offset="0.907346" stop-color="#36C27F"/>
</radialGradient>
<radialGradient id="paint1_radial_1180_6960" cx="0" cy="0" r="1" gradientUnits="userSpaceOnUse" gradientTransform="translate(2.66374 1.46727) rotate(64.2636) scale(32.377 37.8651)">
<stop offset="0.151042" stop-color="#33A6FF"/>
<stop offset="0.907346" stop-color="#36C27F"/>
</radialGradient>
<radialGradient id="paint2_radial_1180_6960" cx="0" cy="0" r="1" gradientUnits="userSpaceOnUse" gradientTransform="translate(7.82834 26.5667) rotate(21.1422) scale(4.48537 4.51141)">
<stop offset="0.151042" stop-color="#33A6FF"/>
<stop offset="0.907346" stop-color="#36C27F"/>
</radialGradient>
<radialGradient id="paint3_radial_1180_6960" cx="0" cy="0" r="1" gradientUnits="userSpaceOnUse" gradientTransform="translate(8.72448 2.29183) rotate(33.2354) scale(2.95175 4.04578)">
<stop offset="0.151042" stop-color="#33A6FF"/>
<stop offset="0.907346" stop-color="#36C27F"/>
</radialGradient>
</defs>
</svg>
