<svg width="30" height="26" viewBox="0 0 30 26" fill="none" xmlns="http://www.w3.org/2000/svg">
<path d="M27.5436 24.3729H1.0662V1.09414C1.0662 0.797969 0.829269 0.561035 0.533102 0.561035C0.236934 0.561035 0 0.797969 0 1.09414V24.906C0 25.2022 0.236934 25.4391 0.533102 25.4391H27.514C27.8101 25.4391 28.0471 25.2022 28.0471 24.906C28.0471 24.6098 27.8398 24.3729 27.5436 24.3729Z" fill="white"/>
<path d="M27.5436 24.3729H1.0662V1.09414C1.0662 0.797969 0.829269 0.561035 0.533102 0.561035C0.236934 0.561035 0 0.797969 0 1.09414V24.906C0 25.2022 0.236934 25.4391 0.533102 25.4391H27.514C27.8101 25.4391 28.0471 25.2022 28.0471 24.906C28.0471 24.6098 27.8398 24.3729 27.5436 24.3729Z" fill="url(#paint0_radial_1180_5148)"/>
<path d="M29.8247 10.3347C29.6174 10.157 29.2916 10.157 29.0843 10.3939L25.7376 14.2441L23.4571 12.2301C23.3091 12.1117 23.161 12.0524 23.0129 12.0821C22.8648 12.1117 22.7167 12.2005 22.6575 12.319L19.8735 17.0281L17.4449 16.2284C17.2376 16.1692 17.0007 16.2284 16.8526 16.4061L14.5425 19.3974L12.0251 17.8277C11.8177 17.7093 11.5808 17.7389 11.4031 17.887L8.11565 20.8486L4.76896 19.9897C4.59126 19.9305 4.38394 19.9897 4.26548 20.1378L2.45885 22.0629C2.25154 22.2702 2.28115 22.596 2.48847 22.8033C2.57732 22.8922 2.7254 22.9514 2.84387 22.9514C2.99195 22.9514 3.11042 22.8922 3.22889 22.7737L4.82819 21.0856L8.14527 21.9445C8.32297 22.0037 8.50067 21.9445 8.61914 21.826L11.8177 18.9235L14.3944 20.5228C14.6313 20.6709 14.9275 20.6117 15.0756 20.4044L17.4449 17.3242L19.9031 18.1535C20.1401 18.2424 20.4066 18.1239 20.5251 17.9166L23.2202 13.3852L25.4415 15.3399C25.5599 15.4288 25.6784 15.488 25.8265 15.4584C25.9746 15.4584 26.093 15.3991 26.1819 15.2807L29.884 11.0455C30.0617 10.8382 30.0321 10.5124 29.8247 10.3347Z" fill="white"/>
<path d="M29.8247 10.3347C29.6174 10.157 29.2916 10.157 29.0843 10.3939L25.7376 14.2441L23.4571 12.2301C23.3091 12.1117 23.161 12.0524 23.0129 12.0821C22.8648 12.1117 22.7167 12.2005 22.6575 12.319L19.8735 17.0281L17.4449 16.2284C17.2376 16.1692 17.0007 16.2284 16.8526 16.4061L14.5425 19.3974L12.0251 17.8277C11.8177 17.7093 11.5808 17.7389 11.4031 17.887L8.11565 20.8486L4.76896 19.9897C4.59126 19.9305 4.38394 19.9897 4.26548 20.1378L2.45885 22.0629C2.25154 22.2702 2.28115 22.596 2.48847 22.8033C2.57732 22.8922 2.7254 22.9514 2.84387 22.9514C2.99195 22.9514 3.11042 22.8922 3.22889 22.7737L4.82819 21.0856L8.14527 21.9445C8.32297 22.0037 8.50067 21.9445 8.61914 21.826L11.8177 18.9235L14.3944 20.5228C14.6313 20.6709 14.9275 20.6117 15.0756 20.4044L17.4449 17.3242L19.9031 18.1535C20.1401 18.2424 20.4066 18.1239 20.5251 17.9166L23.2202 13.3852L25.4415 15.3399C25.5599 15.4288 25.6784 15.488 25.8265 15.4584C25.9746 15.4584 26.093 15.3991 26.1819 15.2807L29.884 11.0455C30.0617 10.8382 30.0321 10.5124 29.8247 10.3347Z" fill="url(#paint1_radial_1180_5148)"/>
<path d="M3.16923 18.0351C3.25808 18.0351 3.34693 18.0055 3.43578 17.9759L8.17446 15.34L10.5734 16.2581C10.7807 16.347 11.0177 16.2877 11.1658 16.11L16.0821 10.6013L19.7546 12.2006C19.9619 12.2895 20.1989 12.2302 20.3469 12.0822L24.4933 7.7285L26.448 8.58739C26.7146 8.70585 27.0107 8.58739 27.1292 8.32084L29.5578 3.07867C29.6762 2.81212 29.5578 2.51595 29.2912 2.39748C29.0247 2.27902 28.7285 2.39748 28.61 2.66403L26.4184 7.43233L24.6118 6.63268C24.4044 6.54383 24.1675 6.60306 24.0194 6.75115L19.8138 11.1048L16.1118 9.50551C15.9044 9.41666 15.6675 9.47589 15.5194 9.62397L10.603 15.1623L8.32254 14.2738C8.17446 14.2146 8.02638 14.2146 7.87829 14.3034L2.90268 17.0578C2.63613 17.2059 2.54728 17.502 2.69536 17.7686C2.81383 17.9463 2.99153 18.0351 3.16923 18.0351Z" fill="white"/>
<path d="M3.16923 18.0351C3.25808 18.0351 3.34693 18.0055 3.43578 17.9759L8.17446 15.34L10.5734 16.2581C10.7807 16.347 11.0177 16.2877 11.1658 16.11L16.0821 10.6013L19.7546 12.2006C19.9619 12.2895 20.1989 12.2302 20.3469 12.0822L24.4933 7.7285L26.448 8.58739C26.7146 8.70585 27.0107 8.58739 27.1292 8.32084L29.5578 3.07867C29.6762 2.81212 29.5578 2.51595 29.2912 2.39748C29.0247 2.27902 28.7285 2.39748 28.61 2.66403L26.4184 7.43233L24.6118 6.63268C24.4044 6.54383 24.1675 6.60306 24.0194 6.75115L19.8138 11.1048L16.1118 9.50551C15.9044 9.41666 15.6675 9.47589 15.5194 9.62397L10.603 15.1623L8.32254 14.2738C8.17446 14.2146 8.02638 14.2146 7.87829 14.3034L2.90268 17.0578C2.63613 17.2059 2.54728 17.502 2.69536 17.7686C2.81383 17.9463 2.99153 18.0351 3.16923 18.0351Z" fill="url(#paint2_radial_1180_5148)"/>
<path d="M7.84881 9.50525C10.1589 9.50525 12.0248 7.63939 12.0248 5.32928C12.0248 3.01918 10.1589 1.15332 7.84881 1.15332C5.53871 1.15332 3.67285 3.01918 3.67285 5.32928C3.67285 7.63939 5.53871 9.50525 7.84881 9.50525ZM7.84881 2.18991C9.56658 2.18991 10.9586 3.58189 10.9586 5.29967C10.9586 7.01744 9.56658 8.40943 7.84881 8.40943C6.13104 8.40943 4.73905 7.01744 4.73905 5.29967C4.70944 3.61151 6.13104 2.18991 7.84881 2.18991Z" fill="white"/>
<path d="M7.84881 9.50525C10.1589 9.50525 12.0248 7.63939 12.0248 5.32928C12.0248 3.01918 10.1589 1.15332 7.84881 1.15332C5.53871 1.15332 3.67285 3.01918 3.67285 5.32928C3.67285 7.63939 5.53871 9.50525 7.84881 9.50525ZM7.84881 2.18991C9.56658 2.18991 10.9586 3.58189 10.9586 5.29967C10.9586 7.01744 9.56658 8.40943 7.84881 8.40943C6.13104 8.40943 4.73905 7.01744 4.73905 5.29967C4.70944 3.61151 6.13104 2.18991 7.84881 2.18991Z" fill="url(#paint3_radial_1180_5148)"/>
<defs>
<radialGradient id="paint0_radial_1180_5148" cx="0" cy="0" r="1" gradientUnits="userSpaceOnUse" gradientTransform="translate(-1.35042 -2.85628) rotate(49.2962) scale(45.0779 66.6321)">
<stop offset="0.151042" stop-color="#33A6FF"/>
<stop offset="0.907346" stop-color="#36C27F"/>
</radialGradient>
<radialGradient id="paint1_radial_1180_5148" cx="0" cy="0" r="1" gradientUnits="userSpaceOnUse" gradientTransform="translate(0.984483 8.45754) rotate(31.1015) scale(33.8873 44.8135)">
<stop offset="0.151042" stop-color="#33A6FF"/>
<stop offset="0.907346" stop-color="#36C27F"/>
</radialGradient>
<radialGradient id="paint2_radial_1180_5148" cx="0" cy="0" r="1" gradientUnits="userSpaceOnUse" gradientTransform="translate(1.325 0.197226) rotate(37.301) scale(35.55 51.2372)">
<stop offset="0.151042" stop-color="#33A6FF"/>
<stop offset="0.907346" stop-color="#36C27F"/>
</radialGradient>
<radialGradient id="paint3_radial_1180_5148" cx="0" cy="0" r="1" gradientUnits="userSpaceOnUse" gradientTransform="translate(3.27072 0.00607755) rotate(52.6545) scale(14.4309 20.8077)">
<stop offset="0.151042" stop-color="#33A6FF"/>
<stop offset="0.907346" stop-color="#36C27F"/>
</radialGradient>
</defs>
</svg>
