<svg width="24" height="24" viewBox="0 0 24 24" fill="none" xmlns="http://www.w3.org/2000/svg">
<path fill-rule="evenodd" clip-rule="evenodd" d="M16.084 2C19.622 2 22 4.276 22 7.665V16.334C22 19.723 19.622 22 16.084 22H7.916C4.378 22 2 19.723 2 16.334V7.665C2 4.276 4.378 2 7.916 2H16.084ZM16.084 3.5H7.916C5.233 3.5 3.5 5.135 3.5 7.665V16.334C3.5 18.864 5.233 20.5 7.916 20.5H16.084C18.767 20.5 20.5 18.864 20.5 16.334V7.665C20.5 5.135 18.767 3.5 16.084 3.5ZM12.8513 7.721L16.6086 11.4623C16.6366 11.4896 16.6626 11.519 16.6861 11.5504L16.6153 11.469C16.6507 11.5039 16.6822 11.5421 16.7096 11.5828C16.7215 11.6012 16.7331 11.6203 16.7439 11.6399C16.7527 11.6552 16.7607 11.6712 16.7682 11.6875C16.775 11.7031 16.7815 11.7188 16.7876 11.7347C16.7938 11.7503 16.7992 11.7661 16.804 11.7822C16.8209 11.8388 16.8316 11.8983 16.8348 11.9597C16.8359 11.9733 16.8363 11.9866 16.8363 12L16.833 12.039L16.829 12.1017C16.8236 12.1415 16.8151 12.1803 16.8037 12.2178C16.7992 12.2339 16.7938 12.2497 16.7879 12.2654C16.7815 12.2812 16.775 12.2969 16.7679 12.3123C16.7607 12.3288 16.7527 12.3448 16.7441 12.3605C16.7331 12.3797 16.7215 12.3988 16.7091 12.4172C16.7022 12.4282 16.6945 12.439 16.6866 12.4496C16.6647 12.4781 16.6413 12.5051 16.6161 12.5302L16.6153 12.531L12.8513 16.279C12.7053 16.425 12.5133 16.498 12.3223 16.498C12.1303 16.498 11.9373 16.425 11.7913 16.277C11.4993 15.983 11.5003 15.509 11.7933 15.217L14.27 12.75H7.9139C7.4999 12.75 7.1639 12.414 7.1639 12C7.1639 11.586 7.4999 11.25 7.9139 11.25H14.27L11.7933 8.783C11.5003 8.491 11.4993 8.017 11.7913 7.723C12.0833 7.429 12.5573 7.429 12.8513 7.721Z" fill="white"/>
<path fill-rule="evenodd" clip-rule="evenodd" d="M16.084 2C19.622 2 22 4.276 22 7.665V16.334C22 19.723 19.622 22 16.084 22H7.916C4.378 22 2 19.723 2 16.334V7.665C2 4.276 4.378 2 7.916 2H16.084ZM16.084 3.5H7.916C5.233 3.5 3.5 5.135 3.5 7.665V16.334C3.5 18.864 5.233 20.5 7.916 20.5H16.084C18.767 20.5 20.5 18.864 20.5 16.334V7.665C20.5 5.135 18.767 3.5 16.084 3.5ZM12.8513 7.721L16.6086 11.4623C16.6366 11.4896 16.6626 11.519 16.6861 11.5504L16.6153 11.469C16.6507 11.5039 16.6822 11.5421 16.7096 11.5828C16.7215 11.6012 16.7331 11.6203 16.7439 11.6399C16.7527 11.6552 16.7607 11.6712 16.7682 11.6875C16.775 11.7031 16.7815 11.7188 16.7876 11.7347C16.7938 11.7503 16.7992 11.7661 16.804 11.7822C16.8209 11.8388 16.8316 11.8983 16.8348 11.9597C16.8359 11.9733 16.8363 11.9866 16.8363 12L16.833 12.039L16.829 12.1017C16.8236 12.1415 16.8151 12.1803 16.8037 12.2178C16.7992 12.2339 16.7938 12.2497 16.7879 12.2654C16.7815 12.2812 16.775 12.2969 16.7679 12.3123C16.7607 12.3288 16.7527 12.3448 16.7441 12.3605C16.7331 12.3797 16.7215 12.3988 16.7091 12.4172C16.7022 12.4282 16.6945 12.439 16.6866 12.4496C16.6647 12.4781 16.6413 12.5051 16.6161 12.5302L16.6153 12.531L12.8513 16.279C12.7053 16.425 12.5133 16.498 12.3223 16.498C12.1303 16.498 11.9373 16.425 11.7913 16.277C11.4993 15.983 11.5003 15.509 11.7933 15.217L14.27 12.75H7.9139C7.4999 12.75 7.1639 12.414 7.1639 12C7.1639 11.586 7.4999 11.25 7.9139 11.25H14.27L11.7933 8.783C11.5003 8.491 11.4993 8.017 11.7913 7.723C12.0833 7.429 12.5573 7.429 12.8513 7.721Z" fill="url(#paint0_radial_503_547)"/>
<defs>
<radialGradient id="paint0_radial_503_547" cx="0" cy="0" r="1" gradientUnits="userSpaceOnUse" gradientTransform="translate(1.03704 -0.747253) rotate(52.6545) scale(34.557 49.8273)">
<stop offset="0.151042" stop-color="#33A6FF"/>
<stop offset="0.907346" stop-color="#36C27F"/>
</radialGradient>
</defs>
</svg>
