<svg width="25" height="25" viewBox="0 0 25 25" fill="none" xmlns="http://www.w3.org/2000/svg">
<g clip-path="url(#clip0_1140_8551)">
<path fill-rule="evenodd" clip-rule="evenodd" d="M17.4008 0.262695C21.6464 0.262695 24.5 2.9939 24.5 7.0607V17.4635C24.5 21.5303 21.6464 24.2627 17.4008 24.2627H7.5992C3.3536 24.2627 0.5 21.5303 0.5 17.4635V7.0607C0.5 2.9939 3.3536 0.262695 7.5992 0.262695H17.4008ZM17.4008 2.0627H7.5992C4.3796 2.0627 2.3 4.0247 2.3 7.0607V17.4635C2.3 20.4995 4.3796 22.4627 7.5992 22.4627H17.4008C20.6204 22.4627 22.7 20.4995 22.7 17.4635V7.0607C22.7 4.0247 20.6204 2.0627 17.4008 2.0627ZM13.5216 7.1279L18.0303 11.6174C18.064 11.6502 18.0951 11.6855 18.1233 11.7232L18.0384 11.6255C18.0809 11.6674 18.1187 11.7132 18.1515 11.7621C18.1658 11.7842 18.1797 11.8071 18.1926 11.8306C18.2032 11.849 18.2129 11.8682 18.2218 11.8877C18.23 11.9064 18.2379 11.9252 18.2451 11.9444C18.2525 11.963 18.259 11.9821 18.2648 12.0013C18.2851 12.0693 18.2979 12.1406 18.3018 12.2143C18.3031 12.2306 18.3036 12.2466 18.3036 12.2627L18.2996 12.3095L18.2949 12.3848C18.2884 12.4325 18.2781 12.479 18.2645 12.5241C18.259 12.5433 18.2525 12.5624 18.2454 12.5812C18.2379 12.6001 18.23 12.619 18.2215 12.6375C18.2129 12.6572 18.2032 12.6764 18.1929 12.6952C18.1797 12.7183 18.1658 12.7412 18.1509 12.7634C18.1426 12.7765 18.1334 12.7895 18.1239 12.8022C18.0977 12.8365 18.0696 12.8688 18.0394 12.899L18.0384 12.8999L13.5216 17.3975C13.3464 17.5727 13.116 17.6603 12.8868 17.6603C12.6564 17.6603 12.4248 17.5727 12.2496 17.3951C11.8992 17.0423 11.9004 16.4735 12.252 16.1231L15.224 13.1627H7.59668C7.09988 13.1627 6.69668 12.7595 6.69668 12.2627C6.69668 11.7659 7.09988 11.3627 7.59668 11.3627H15.224L12.252 8.4023C11.9004 8.0519 11.8992 7.4831 12.2496 7.1303C12.6 6.7775 13.1688 6.7775 13.5216 7.1279Z" fill="white"/>
<path fill-rule="evenodd" clip-rule="evenodd" d="M17.4008 0.262695C21.6464 0.262695 24.5 2.9939 24.5 7.0607V17.4635C24.5 21.5303 21.6464 24.2627 17.4008 24.2627H7.5992C3.3536 24.2627 0.5 21.5303 0.5 17.4635V7.0607C0.5 2.9939 3.3536 0.262695 7.5992 0.262695H17.4008ZM17.4008 2.0627H7.5992C4.3796 2.0627 2.3 4.0247 2.3 7.0607V17.4635C2.3 20.4995 4.3796 22.4627 7.5992 22.4627H17.4008C20.6204 22.4627 22.7 20.4995 22.7 17.4635V7.0607C22.7 4.0247 20.6204 2.0627 17.4008 2.0627ZM13.5216 7.1279L18.0303 11.6174C18.064 11.6502 18.0951 11.6855 18.1233 11.7232L18.0384 11.6255C18.0809 11.6674 18.1187 11.7132 18.1515 11.7621C18.1658 11.7842 18.1797 11.8071 18.1926 11.8306C18.2032 11.849 18.2129 11.8682 18.2218 11.8877C18.23 11.9064 18.2379 11.9252 18.2451 11.9444C18.2525 11.963 18.259 11.9821 18.2648 12.0013C18.2851 12.0693 18.2979 12.1406 18.3018 12.2143C18.3031 12.2306 18.3036 12.2466 18.3036 12.2627L18.2996 12.3095L18.2949 12.3848C18.2884 12.4325 18.2781 12.479 18.2645 12.5241C18.259 12.5433 18.2525 12.5624 18.2454 12.5812C18.2379 12.6001 18.23 12.619 18.2215 12.6375C18.2129 12.6572 18.2032 12.6764 18.1929 12.6952C18.1797 12.7183 18.1658 12.7412 18.1509 12.7634C18.1426 12.7765 18.1334 12.7895 18.1239 12.8022C18.0977 12.8365 18.0696 12.8688 18.0394 12.899L18.0384 12.8999L13.5216 17.3975C13.3464 17.5727 13.116 17.6603 12.8868 17.6603C12.6564 17.6603 12.4248 17.5727 12.2496 17.3951C11.8992 17.0423 11.9004 16.4735 12.252 16.1231L15.224 13.1627H7.59668C7.09988 13.1627 6.69668 12.7595 6.69668 12.2627C6.69668 11.7659 7.09988 11.3627 7.59668 11.3627H15.224L12.252 8.4023C11.9004 8.0519 11.8992 7.4831 12.2496 7.1303C12.6 6.7775 13.1688 6.7775 13.5216 7.1279Z" fill="url(#paint0_radial_1140_8551)"/>
</g>
<defs>
<radialGradient id="paint0_radial_1140_8551" cx="0" cy="0" r="1" gradientUnits="userSpaceOnUse" gradientTransform="translate(-0.655557 -3.03401) rotate(52.6545) scale(41.4684 59.7928)">
<stop offset="0.151042" stop-color="#33A6FF"/>
<stop offset="0.907346" stop-color="#36C27F"/>
</radialGradient>
<clipPath id="clip0_1140_8551">
<rect width="24" height="24" fill="white" transform="translate(0.5 0.262695)"/>
</clipPath>
</defs>
</svg>
