<svg width="25" height="24" viewBox="0 0 25 24" fill="none" xmlns="http://www.w3.org/2000/svg">
<path fill-rule="evenodd" clip-rule="evenodd" d="M16.584 2C20.122 2 22.5 4.276 22.5 7.665V16.334C22.5 19.723 20.122 22 16.584 22H8.416C4.878 22 2.5 19.723 2.5 16.334V7.665C2.5 4.276 4.878 2 8.416 2H16.584ZM16.584 3.5H8.416C5.733 3.5 4 5.135 4 7.665V16.334C4 18.864 5.733 20.5 8.416 20.5H16.584C19.267 20.5 21 18.864 21 16.334V7.665C21 5.135 19.267 3.5 16.584 3.5ZM13.3513 7.721L17.1086 11.4623C17.1366 11.4896 17.1626 11.519 17.1861 11.5504L17.1153 11.469C17.1507 11.5039 17.1822 11.5421 17.2096 11.5828C17.2215 11.6012 17.2331 11.6203 17.2439 11.6399C17.2527 11.6552 17.2607 11.6712 17.2682 11.6875C17.275 11.7031 17.2815 11.7188 17.2876 11.7347C17.2938 11.7503 17.2992 11.7661 17.304 11.7822C17.3209 11.8388 17.3316 11.8983 17.3348 11.9597C17.3359 11.9733 17.3363 11.9866 17.3363 12L17.333 12.039L17.3291 12.1017C17.3237 12.1415 17.3151 12.1803 17.3037 12.2178C17.2992 12.2339 17.2938 12.2497 17.2879 12.2654C17.2815 12.2812 17.275 12.2969 17.2679 12.3123C17.2607 12.3288 17.2527 12.3448 17.2441 12.3605C17.2331 12.3797 17.2215 12.3988 17.2091 12.4172C17.2022 12.4282 17.1945 12.439 17.1866 12.4496C17.1647 12.4781 17.1413 12.5051 17.1162 12.5302L17.1153 12.531L13.3513 16.279C13.2053 16.425 13.0133 16.498 12.8223 16.498C12.6303 16.498 12.4373 16.425 12.2913 16.277C11.9993 15.983 12.0003 15.509 12.2933 15.217L14.77 12.75H8.4139C7.9999 12.75 7.6639 12.414 7.6639 12C7.6639 11.586 7.9999 11.25 8.4139 11.25H14.77L12.2933 8.783C12.0003 8.491 11.9993 8.017 12.2913 7.723C12.5833 7.429 13.0573 7.429 13.3513 7.721Z" fill="white"/>
</svg>
