<svg width="20" height="20" viewBox="0 0 20 20" fill="none" xmlns="http://www.w3.org/2000/svg">
<path d="M7.17001 11.1229C7.12087 11.1229 7.07103 11.1176 7.02107 11.1065C3.81494 10.394 2.44339 8.35512 1.85736 6.77014C1.23343 5.08266 1.35968 3.5674 1.36538 3.50369C1.39683 3.15112 1.69225 2.88086 2.04626 2.88086H5.42738C5.83584 2.88086 6.16579 3.2155 6.13149 3.62255C6.102 3.97289 5.8083 4.248 5.45035 4.248H3.01907C2.85931 4.248 2.73455 4.38534 2.74939 4.54443C2.79529 5.03645 2.90509 5.67682 3.15629 6.34042C3.84365 8.15653 5.24375 9.31102 7.3177 9.7719C7.68624 9.85382 7.91862 10.219 7.83671 10.5875C7.76589 10.906 7.48336 11.1229 7.17001 11.1229Z" fill="#8BA1B1"/>
<path d="M12.83 11.1229C12.8791 11.1229 12.9289 11.1176 12.9789 11.1065C16.1851 10.394 17.5566 8.35512 18.1426 6.77014C18.7665 5.08266 18.6403 3.5674 18.6346 3.50369C18.6031 3.15112 18.3077 2.88086 17.9537 2.88086H14.5726C14.1641 2.88086 13.8342 3.2155 13.8685 3.62255C13.898 3.97289 14.1917 4.248 14.5496 4.248H16.9809C17.1407 4.248 17.2654 4.38534 17.2506 4.54443C17.2047 5.03645 17.0949 5.67682 16.8437 6.34042C16.1563 8.15653 14.7562 9.31102 12.6823 9.7719C12.3137 9.85382 12.0814 10.219 12.1633 10.5875C12.2341 10.906 12.5166 11.1229 12.83 11.1229Z" fill="#8BA1B1"/>
<path d="M14.4779 19.7071H5.5221C5.38253 19.7071 5.26937 19.5939 5.26937 19.4543V18.0782C5.26937 17.9386 5.38253 17.8254 5.5221 17.8254H14.4779C14.6175 17.8254 14.7306 17.9386 14.7306 18.0782V19.4543C14.7306 19.5939 14.6175 19.7071 14.4779 19.7071Z" fill="#5A5A5A"/>
<path d="M13.1188 17.8255H6.88127V16.9188C6.88127 16.3804 7.31778 15.9438 7.85623 15.9438H12.1438C12.6823 15.9438 13.1188 16.3804 13.1188 16.9188V17.8255Z" fill="#9C9C9C"/>
<path d="M13.1185 16.9186V17.8252H12.3502V16.9186C12.3502 16.3803 11.9135 15.9436 11.3753 15.9436H12.1436C12.6822 15.9436 13.1185 16.3803 13.1185 16.9186Z" fill="#838383"/>
<path d="M11.2685 12.3137L11.7049 11.5933H8.29496L8.73135 12.3137C9.03595 12.8165 9.19973 13.4196 9.19973 14.0384C9.19973 14.4163 9.13856 14.7908 9.01954 15.1415L8.74732 15.9438H11.2525L10.9803 15.1415C10.8612 14.7908 10.8001 14.4163 10.8001 14.0384C10.8001 13.4196 10.9639 12.8165 11.2685 12.3137Z" fill="#8BA1B1"/>
<path d="M10.9202 13.1327C10.8413 13.4237 10.8003 13.7291 10.8003 14.0385C10.8003 14.4166 10.8612 14.7908 10.9804 15.1416L11.2526 15.9439H10.4581L10.1859 15.1416C10.0671 14.7908 10.0058 14.4166 10.0058 14.0385C10.0058 13.7291 10.0468 13.4237 10.1257 13.1327C10.205 12.8416 10.3218 12.5655 10.4741 12.3139L10.9109 11.5933H11.705L11.2687 12.3139C11.1163 12.5655 10.9991 12.8416 10.9202 13.1327Z" fill="#8BA1B1"/>
<path d="M9.99995 12.191C7.16431 12.191 4.86561 9.89234 4.86561 7.0567V1.92236H15.1343V7.0567C15.1343 9.8923 12.8356 12.191 9.99995 12.191Z" fill="#8BA1B1"/>
<path d="M15.1342 1.92236V7.05694C15.1342 9.89238 12.8354 12.1911 9.99999 12.1911C9.8539 12.1911 9.70899 12.1849 9.56602 12.1732C12.1987 11.9528 14.2666 9.74629 14.2666 7.05694V1.92236H15.1342Z" fill="#8BA1B1"/>
<path d="M15.4764 1.92256H4.52346C4.32393 1.92256 4.16218 1.76081 4.16218 1.56128V0.654244C4.16218 0.454721 4.32393 0.292969 4.52346 0.292969H15.4764C15.6759 0.292969 15.8377 0.454721 15.8377 0.654244V1.56128C15.8377 1.76081 15.676 1.92256 15.4764 1.92256Z" fill="#8BA1B1"/>
<path d="M15.8377 0.654283V1.56128C15.8377 1.76088 15.676 1.9226 15.4764 1.9226H14.6459C14.8455 1.9226 15.0072 1.76088 15.0072 1.56128V0.654283C15.0072 0.455072 14.8455 0.292969 14.6459 0.292969H15.4764C15.676 0.292969 15.8377 0.455072 15.8377 0.654283Z" fill="#8BA1B1"/>
<path d="M10.3633 4.87458L10.739 5.6358C10.7981 5.75541 10.9122 5.83834 11.0442 5.85751L11.8843 5.97958C12.2167 6.0279 12.3494 6.43636 12.1089 6.67084L11.501 7.2634C11.4055 7.35652 11.3619 7.49066 11.3844 7.6221L11.5279 8.45878C11.5847 8.78987 11.2373 9.04232 10.9399 8.886L10.1886 8.49097C10.0705 8.4289 9.92946 8.4289 9.81138 8.49097L9.06 8.886C8.76267 9.04232 8.41518 8.78983 8.47198 8.45878L8.61549 7.6221C8.63803 7.49062 8.59444 7.35648 8.49893 7.2634L7.89107 6.67084C7.65053 6.4364 7.78326 6.0279 8.11567 5.97958L8.95575 5.85751C9.08774 5.83834 9.20187 5.75545 9.26089 5.6358L9.63658 4.87458C9.78517 4.57338 10.2147 4.57338 10.3633 4.87458Z" fill="#F9F7F8"/>
<path d="M11.501 7.26352C11.4053 7.35649 11.362 7.49086 11.3842 7.6221L11.528 8.45879C11.5846 8.79003 11.2374 9.04236 10.9397 8.88612L10.6308 8.72363C10.6972 8.62754 10.7292 8.50527 10.7065 8.37247L10.537 7.38383C10.5104 7.22876 10.562 7.07017 10.6749 6.96002L11.3932 6.26005C11.4901 6.16552 11.5358 6.04677 11.5381 5.9292L11.8842 5.97959C12.2166 6.02802 12.3494 6.4366 12.1088 6.67097L11.501 7.26352Z" fill="#EFEDEF"/>
</svg>
