<svg width="370" height="370" viewBox="0 0 370 370" fill="none" xmlns="http://www.w3.org/2000/svg">
<path d="M349.812 264.368C338.934 280.09 316.565 281.215 300.973 269.664C267.554 244.909 223.197 280.636 238.951 318.992C247.233 339.159 237.598 362.625 216.45 366.293C185.193 371.715 152.826 369.001 122.558 358.081C79.6138 342.588 43.9625 311.683 22.532 271.372C1.10149 231.061 -4.57761 184.222 6.59823 139.958C17.7741 95.6929 45.0067 57.1636 83.0043 31.8567C121.002 6.54972 167.051 -3.72752 212.203 3.022C257.355 9.77152 298.385 33.0657 327.321 68.3782C356.257 103.691 371.032 148.499 368.775 194.097C367.176 226.399 363.255 244.938 349.812 264.368Z" stroke="#FAC600" stroke-width="2"/>
</svg>
