<svg width="429" height="399" viewBox="0 0 429 399" fill="none" xmlns="http://www.w3.org/2000/svg">
<path d="M350 214C361.046 214 370.112 205.02 368.92 194.039C367.027 176.596 362.658 159.476 355.918 143.204C346.621 120.758 332.994 100.364 315.815 83.1852C298.636 66.0064 278.242 52.3794 255.796 43.0823C239.524 36.342 222.404 31.9732 204.961 30.08C193.98 28.8882 185 37.9543 185 49V194C185 205.046 193.954 214 205 214H350Z" fill="white"/>
<g filter="url(#filter0_d_1125_8552)">
<mask id="path-2-inside-1_1125_8552" fill="white">
<path d="M376 185C387.046 185 396.112 176.02 394.92 165.039C393.027 147.596 388.658 130.476 381.918 114.204C372.621 91.7583 358.994 71.3641 341.815 54.1852C324.636 37.0064 304.242 23.3794 281.796 14.0823C265.524 7.34197 248.404 2.97319 230.961 1.08004C219.98 -0.111785 211 8.95431 211 20L211 165C211 176.046 219.954 185 231 185H376Z"/>
</mask>
<path d="M376 185C387.046 185 396.112 176.02 394.92 165.039C393.027 147.596 388.658 130.476 381.918 114.204C372.621 91.7583 358.994 71.3641 341.815 54.1852C324.636 37.0064 304.242 23.3794 281.796 14.0823C265.524 7.34197 248.404 2.97319 230.961 1.08004C219.98 -0.111785 211 8.95431 211 20L211 165C211 176.046 219.954 185 231 185H376Z" fill="white"/>
<path d="M376 185C387.046 185 396.112 176.02 394.92 165.039C393.027 147.596 388.658 130.476 381.918 114.204C372.621 91.7583 358.994 71.3641 341.815 54.1852C324.636 37.0064 304.242 23.3794 281.796 14.0823C265.524 7.34197 248.404 2.97319 230.961 1.08004C219.98 -0.111785 211 8.95431 211 20L211 165C211 176.046 219.954 185 231 185H376Z" fill="url(#paint0_radial_1125_8552)"/>
<path d="M376 185C387.046 185 396.112 176.02 394.92 165.039C393.027 147.596 388.658 130.476 381.918 114.204C372.621 91.7583 358.994 71.3641 341.815 54.1852C324.636 37.0064 304.242 23.3794 281.796 14.0823C265.524 7.34197 248.404 2.97319 230.961 1.08004C219.98 -0.111785 211 8.95431 211 20L211 165C211 176.046 219.954 185 231 185H376Z" stroke="white" stroke-width="2" mask="url(#path-2-inside-1_1125_8552)"/>
</g>
<defs>
<filter id="filter0_d_1125_8552" x="177.578" y="0.974609" width="250.87" height="259.225" filterUnits="userSpaceOnUse" color-interpolation-filters="sRGB">
<feFlood flood-opacity="0" result="BackgroundImageFix"/>
<feColorMatrix in="SourceAlpha" type="matrix" values="0 0 0 0 0 0 0 0 0 0 0 0 0 0 0 0 0 0 127 0" result="hardAlpha"/>
<feOffset dy="41.7776"/>
<feGaussianBlur stdDeviation="16.711"/>
<feColorMatrix type="matrix" values="0 0 0 0 0 0 0 0 0 0 0 0 0 0 0 0 0 0 0.0503198 0"/>
<feBlend mode="normal" in2="BackgroundImageFix" result="effect1_dropShadow_1125_8552"/>
<feBlend mode="normal" in="SourceGraphic" in2="effect1_dropShadow_1125_8552" result="shape"/>
</filter>
<radialGradient id="paint0_radial_1125_8552" cx="0" cy="0" r="1" gradientUnits="userSpaceOnUse" gradientTransform="translate(8.18517 -50.8242) rotate(52.6545) scale(639.304 921.805)">
<stop offset="0.151042" stop-color="#33A6FF"/>
<stop offset="0.907346" stop-color="#36C27F"/>
</radialGradient>
</defs>
</svg>
