<svg width="20" height="20" viewBox="0 0 20 20" fill="none" xmlns="http://www.w3.org/2000/svg">
<g clip-path="url(#clip0_1116_3304)">
<path fill-rule="evenodd" clip-rule="evenodd" d="M9.97753 13.6781C9.02463 13.6766 8.11121 13.2973 7.43748 12.6234C6.76375 11.9495 6.38468 11.036 6.38336 10.0831C6.38446 9.12995 6.76355 8.2161 7.43748 7.54201C8.11141 6.86793 9.02517 6.48863 9.97836 6.4873C10.9317 6.48841 11.8457 6.86761 12.5198 7.54172C13.1939 8.21583 13.5731 9.1298 13.5742 10.0831C13.5729 11.0363 13.1936 11.9501 12.5195 12.624C11.8454 13.298 10.9316 13.677 9.97836 13.6781H9.97753Z" fill="#4285F4"/>
<path fill-rule="evenodd" clip-rule="evenodd" d="M11.4925 14.3167C10.7426 14.5888 9.93469 14.6608 9.14848 14.5255C8.36228 14.3901 7.62493 14.0522 7.00917 13.545C6.34531 12.9975 5.84914 12.274 5.5775 11.4575L5.57583 11.4525L1.61333 4.59082C0.192318 6.76517 -0.318197 9.41051 0.191666 11.9575C0.442042 13.2442 0.94511 14.4684 1.67176 15.5594C2.39841 16.6504 3.33421 17.5864 4.425 18.3133C5.57029 19.0832 6.86372 19.6055 8.2225 19.8467L11.4925 14.3175V14.3167Z" fill="#4AAE48"/>
<path fill-rule="evenodd" clip-rule="evenodd" d="M18.9666 5.58871C18.2171 4.08076 17.1012 2.78494 15.7212 1.81991C14.3411 0.854872 12.7411 0.251452 11.0675 0.0648964C9.39385 -0.121659 7.70019 0.114613 6.14153 0.752077C4.58288 1.38954 3.20904 2.40783 2.14581 3.71371L5.49248 9.51037C5.63022 8.43711 6.15056 7.44957 6.95794 6.72915C7.76532 6.00872 8.80552 5.60378 9.88748 5.58871H18.9666Z" fill="#EA3939"/>
<path fill-rule="evenodd" clip-rule="evenodd" d="M9.93833 19.9998C12.4467 19.9998 14.8475 19.059 16.6967 17.3515C18.5529 15.6419 19.6897 13.2906 19.8767 10.774C19.9843 9.31699 19.7727 7.85408 19.2567 6.4873H12.71C13.2554 6.91875 13.6956 7.46852 13.9973 8.09507C14.2991 8.72162 14.4544 9.40856 14.4517 10.104C14.445 11.1264 14.0985 12.1176 13.4667 12.9215L9.29333 19.9798C9.50833 19.9931 9.725 19.9998 9.93833 19.9998Z" fill="#FED14B"/>
</g>
<defs>
<clipPath id="clip0_1116_3304">
<rect width="20" height="20" fill="white"/>
</clipPath>
</defs>
</svg>
