<svg width="21" height="20" viewBox="0 0 21 20" fill="none" xmlns="http://www.w3.org/2000/svg">
<g clip-path="url(#clip0_1116_3325)">
<path d="M7.03168 15.6328C5.9223 14.3281 5.21136 12.3984 5.16449 10.2344V9.76562C5.21136 7.60156 5.93011 5.67188 7.03168 4.36719C8.46918 2.50781 10.5786 1.67188 12.9614 1.67188C14.4301 1.67188 15.8129 1.77344 16.9848 2.55469C15.227 0.96875 12.9067 0.0078125 10.3598 0H10.3207C4.7973 0 0.32074 4.47656 0.32074 10C0.32074 15.3594 4.53949 19.7422 9.84418 19.9922C10.0004 20 10.1645 20 10.3207 20C12.8832 20 15.2192 19.0391 16.9848 17.4531C15.8129 18.2344 14.5082 18.2656 13.0395 18.2656C10.6645 18.2734 8.46136 17.5 7.03168 15.6328Z" fill="url(#paint0_linear_1116_3325)"/>
<path d="M7.03174 4.36719C7.9458 3.28125 9.1333 2.63281 10.4302 2.63281C13.3442 2.63281 15.7036 5.92969 15.7036 10.0078C15.7036 14.0859 13.3442 17.3828 10.4302 17.3828C9.1333 17.3828 7.95361 16.7266 7.03174 15.6484C8.46924 17.5078 10.6021 18.6953 12.9771 18.6953C14.438 18.6953 15.813 18.25 16.9849 17.4688C19.0317 15.625 20.3208 12.9609 20.3208 10C20.3208 7.03906 19.0317 4.375 16.9849 2.54687C15.813 1.76562 14.4458 1.32031 12.9771 1.32031C10.5942 1.32031 8.46143 2.5 7.03174 4.36719Z" fill="url(#paint1_linear_1116_3325)"/>
</g>
<defs>
<linearGradient id="paint0_linear_1116_3325" x1="8.65327" y1="0.326" x2="8.65327" y2="19.709" gradientUnits="userSpaceOnUse">
<stop offset="0.3" stop-color="#FF1B2D"/>
<stop offset="0.4381" stop-color="#FA1A2C"/>
<stop offset="0.5939" stop-color="#ED1528"/>
<stop offset="0.7581" stop-color="#D60E21"/>
<stop offset="0.9272" stop-color="#B70519"/>
<stop offset="1" stop-color="#A70014"/>
</linearGradient>
<linearGradient id="paint1_linear_1116_3325" x1="13.6749" y1="1.46852" x2="13.6749" y2="18.6117" gradientUnits="userSpaceOnUse">
<stop stop-color="#9C0000"/>
<stop offset="0.7" stop-color="#FF4B4B"/>
</linearGradient>
<clipPath id="clip0_1116_3325">
<rect width="20" height="20" fill="white" transform="translate(0.32074)"/>
</clipPath>
</defs>
</svg>
