<svg width="20" height="20" viewBox="0 0 20 20" fill="none" xmlns="http://www.w3.org/2000/svg">
<g clip-path="url(#clip0_1116_3310)">
<path d="M15.6075 1.85645C15.1245 2.42248 14.8981 3.69041 15.3886 4.98097C15.8792 6.27154 16.6339 5.99229 17.1018 7.3055C17.7207 9.04135 17.4339 11.3734 17.4339 11.3734C17.4339 11.3734 18.1811 13.5319 18.7018 11.2376C19.8565 6.92814 15.6075 2.9206 15.6075 1.85645Z" fill="url(#paint0_radial_1116_3310)"/>
<path d="M9.69059 19.7513C14.6642 19.7513 18.6868 15.706 18.6868 10.7098C18.6868 5.71352 14.6566 1.67578 9.69059 1.67578C4.72456 1.67578 0.701915 5.72107 0.701915 10.7098C0.694368 15.706 4.72456 19.7513 9.69059 19.7513Z" fill="url(#paint1_radial_1116_3310)"/>
<path d="M16.4303 16.2869C16.234 16.4228 16.0303 16.5435 15.8189 16.6568C16.0982 16.2417 16.3623 15.819 16.5963 15.3813C16.785 15.17 16.9661 14.9662 17.1095 14.7398C17.1774 14.6266 17.2604 14.4983 17.3435 14.3398C17.8491 13.4266 18.4076 11.9549 18.4227 10.4454V10.3322C18.4227 9.95487 18.385 9.56997 18.3095 9.20015C18.317 9.23034 18.317 9.26053 18.3246 9.29072C18.317 9.26808 18.317 9.24544 18.3095 9.2228C18.317 9.26053 18.3246 9.30581 18.3321 9.34355C18.4378 10.219 18.3623 11.0719 17.9925 11.7058C17.985 11.7134 17.9774 11.7209 17.9774 11.736C18.1661 10.7775 18.234 9.72091 18.0227 8.66431C18.0227 8.66431 17.9397 8.1511 17.3057 6.58883C16.9435 5.69072 16.2944 4.9511 15.7284 4.41525C15.2303 3.79638 14.7699 3.38129 14.5208 3.11714C14.0001 2.56619 13.7812 2.1511 13.6906 1.88695C13.6152 1.84921 12.6114 0.875626 12.5359 0.837891C12.0982 1.51714 10.7321 3.63034 11.3812 5.60015C11.6755 6.49827 12.4227 7.42657 13.2076 7.94732C13.2453 7.98506 13.6755 8.45298 13.8793 9.50959C14.0906 10.6039 13.9774 11.4492 13.5472 12.7096C13.034 13.8115 11.7208 14.9058 10.4906 15.019C7.86421 15.2605 6.89818 13.6983 6.89818 13.6983C7.83403 14.0756 8.87554 13.9926 9.5095 13.6077C10.1435 13.2152 10.5284 12.9209 10.8453 13.0341C11.1548 13.1473 11.3963 12.8152 11.1774 12.4681C10.8303 11.9322 10.1963 11.6605 9.56988 11.7662C8.93591 11.8719 8.34723 12.3775 7.51705 11.8869C7.46421 11.8568 7.41138 11.819 7.35855 11.7813C7.30572 11.7436 7.53969 11.8341 7.47931 11.7964C7.32082 11.7058 7.02648 11.5171 6.95855 11.4492C6.94346 11.4341 7.08686 11.4945 7.07176 11.4794C6.2944 10.8379 6.39252 10.4002 6.41516 10.1285C6.4378 9.90959 6.57365 9.63034 6.81516 9.51714C6.92837 9.57751 7.00384 9.63034 7.00384 9.63034C7.00384 9.63034 6.95101 9.53223 6.92837 9.4794C6.93591 9.47185 6.94346 9.4794 6.95855 9.47185C7.05667 9.51714 7.26044 9.63789 7.37365 9.70582C7.51705 9.80393 7.56233 9.89449 7.56233 9.89449C7.56233 9.89449 7.60006 9.87185 7.56988 9.78883C7.56233 9.7511 7.51705 9.63789 7.37365 9.52468H7.3812C7.46422 9.56997 7.54723 9.63034 7.62271 9.69072C7.66044 9.54732 7.73591 9.39638 7.72082 9.12468C7.71327 8.936 7.71327 8.88317 7.68308 8.8077C7.65289 8.74732 7.69818 8.71714 7.75101 8.78506C7.74346 8.73223 7.72837 8.6794 7.70572 8.63412V8.62657C7.77365 8.40015 9.08686 7.80393 9.18497 7.736C9.34346 7.6228 9.47176 7.4794 9.56988 7.31336C9.64535 7.20015 9.69818 7.03412 9.71327 6.78506C9.72082 6.60393 9.6378 6.48317 8.30195 6.34732C7.93969 6.30959 7.72082 6.04544 7.60006 5.80393C7.57742 5.7511 7.55478 5.70581 7.53214 5.65298C7.5095 5.60015 7.4944 5.53978 7.47931 5.4794C7.69818 4.85298 8.06044 4.32468 8.60384 3.92468C8.63403 3.89449 8.48308 3.93223 8.51327 3.90204C8.55101 3.87185 8.76988 3.78129 8.81516 3.75864C8.86799 3.736 8.59629 3.61525 8.35478 3.64544C8.11327 3.67563 8.06044 3.70581 7.92459 3.75864C7.97742 3.70581 8.15101 3.63034 8.11327 3.63789C7.84912 3.67563 7.52459 3.83412 7.24535 4.0077C7.24535 3.97751 7.25289 3.94732 7.26044 3.91714C7.13214 3.96997 6.80761 4.19638 6.71705 4.38506C6.72459 4.34732 6.72459 4.30959 6.72459 4.27185C6.62648 4.35487 6.53591 4.44544 6.46044 4.5511L6.41516 4.56619C5.66044 4.26431 4.98874 4.24166 4.43025 4.37751C4.3095 4.25676 4.24912 4.34732 3.96233 3.72846C3.93969 3.69072 3.97742 3.76619 3.96233 3.72846C3.91705 3.6077 3.99252 3.88695 3.96233 3.72846C3.4944 4.10582 2.87554 4.52846 2.57365 4.8228C2.57365 4.83789 2.92082 4.72468 2.57365 4.8228C2.45289 4.86053 2.46044 4.92846 2.44535 5.58506C2.4378 5.63789 2.44535 5.69072 2.4378 5.736C2.19629 6.03789 2.0378 6.29449 1.97742 6.43034C1.66799 6.95864 1.32837 7.78883 1.00384 9.09449C1.14723 8.73978 1.32082 8.40015 1.52459 8.07563C1.25289 8.76997 0.988743 9.8643 0.935913 11.5398C1.00384 11.1926 1.08686 10.853 1.19252 10.5134C1.12459 11.9096 1.3661 13.2983 1.8944 14.5888C2.08308 15.0492 2.39252 15.7511 2.92837 16.5209C4.60384 18.2794 6.95855 19.3737 9.56988 19.3737C12.2944 19.3737 14.7472 18.1813 16.4303 16.2869Z" fill="url(#paint2_linear_1116_3310)"/>
<path d="M14.4076 17.5625C17.7057 17.1776 19.1699 13.7813 17.2906 13.7134C15.6001 13.6606 12.8453 17.7436 14.4076 17.5625Z" fill="url(#paint3_radial_1116_3310)"/>
<path d="M17.532 13.0193C19.8037 11.6985 19.2075 8.8457 19.2075 8.8457C19.2075 8.8457 18.332 9.86457 17.7358 11.4872C17.1547 13.0948 16.166 13.8193 17.532 13.0193Z" fill="url(#paint4_radial_1116_3310)"/>
<path d="M10.3244 19.2532C13.4943 20.2645 16.2112 17.7664 14.5358 16.9362C13.0112 16.1891 8.82255 18.7777 10.3244 19.2532Z" fill="url(#paint5_radial_1116_3310)"/>
<path d="M17.7735 14.2336C17.849 14.1279 17.9546 13.7807 18.0452 13.6222C18.6037 12.7166 18.6112 11.9996 18.6112 11.9845C18.9508 10.3015 18.9207 9.60715 18.7093 8.33923C18.5433 7.31281 17.8112 5.84111 17.1773 5.13923C16.5282 4.40715 16.981 4.64866 16.3546 4.11281C15.8037 3.50149 15.2603 2.89017 14.9735 2.64866C12.8603 0.882625 12.9056 0.505266 12.9508 0.444889L12.9207 0.475077C12.898 0.376964 12.8754 0.293945 12.8754 0.293945C12.8754 0.293945 11.7131 1.44111 11.4716 3.36564C11.3131 4.61847 11.781 5.93168 12.4678 6.76942C12.8225 7.20715 13.2225 7.59961 13.6603 7.94678C14.1735 8.6864 14.4603 9.59961 14.4603 10.5807C14.4603 13.0411 12.4678 15.026 10.0074 15.026C9.67537 15.026 9.33575 14.9883 9.01122 14.9128C7.84896 14.6939 7.1848 14.1053 6.84518 13.7053C6.6565 13.4789 6.57348 13.3128 6.57348 13.3128C7.61499 13.6826 8.76216 13.6072 9.46405 13.2222C10.1659 12.8298 10.5961 12.543 10.9433 12.6562C11.2829 12.7694 11.5546 12.4373 11.3131 12.0977C11.0716 11.7581 10.4527 11.2675 9.53197 11.4034C8.83009 11.509 8.18103 12.0072 7.26028 11.5241C7.1999 11.4939 7.13952 11.4562 7.08669 11.426C7.02631 11.3883 7.28292 11.4789 7.22254 11.4411C7.04141 11.3505 6.72443 11.1619 6.64141 11.0939C6.62631 11.0789 6.77726 11.1392 6.76971 11.1241C5.90933 10.4902 6.01499 10.06 6.03763 9.78828C6.06028 9.56942 6.21877 9.29772 6.48292 9.18451C6.61122 9.24489 6.68669 9.29772 6.68669 9.29772C6.68669 9.29772 6.63386 9.19961 6.60367 9.14678C6.61122 9.13923 6.62631 9.14678 6.63386 9.13923C6.73952 9.18451 6.97348 9.29772 7.09424 9.37319C7.25273 9.4713 7.30556 9.56187 7.30556 9.56187C7.30556 9.56187 7.35084 9.53923 7.31311 9.45621C7.29801 9.41847 7.25273 9.30527 7.09424 9.19206H7.10179C7.19235 9.23734 7.28292 9.29772 7.36594 9.3581C7.41122 9.2147 7.48669 9.06376 7.4716 8.79206C7.46405 8.60338 7.46405 8.55055 7.42631 8.48263C7.39613 8.42225 7.44141 8.39206 7.50179 8.45998C7.49424 8.40715 7.4716 8.36187 7.44896 8.30904V8.30149C7.52443 8.07508 8.98103 7.4864 9.08669 7.41847C9.26028 7.31281 9.40367 7.16942 9.51688 7.00338C9.5999 6.89017 9.66027 6.72413 9.67537 6.47508C9.68292 6.36187 9.64518 6.27885 9.26028 6.18828C9.02631 6.13545 8.6716 6.09017 8.11311 6.03734C7.71311 5.99961 7.4716 5.743 7.33575 5.50149C7.31311 5.44866 7.28292 5.40338 7.26028 5.3581C7.23763 5.30527 7.21499 5.24489 7.1999 5.19206C7.44141 4.5581 7.87914 4.02225 8.44518 3.65244C8.47537 3.62225 8.31688 3.65998 8.34707 3.62979C8.3848 3.59961 8.63386 3.50904 8.67914 3.4864C8.73952 3.46376 8.43763 3.35055 8.16594 3.37319C7.89424 3.40338 7.84141 3.42602 7.69046 3.4864C7.75084 3.43357 7.93952 3.36564 7.89424 3.36564C7.62254 3.39583 7.26028 3.54678 6.95084 3.72036C6.95084 3.69017 6.95839 3.65998 6.96594 3.62979C6.82254 3.68262 6.46782 3.90904 6.36216 4.09772C6.36971 4.05998 6.36971 4.02225 6.36971 3.99206C6.26405 4.07508 6.15839 4.16564 6.07537 4.2713L6.06782 4.27885C5.23009 3.97696 4.49046 3.95432 3.8716 4.09017C3.73575 3.96942 3.51688 3.78074 3.20745 3.16942C3.1848 3.13168 3.17726 3.24489 3.16216 3.20715C3.04141 2.92791 2.96594 2.46753 2.98103 2.15055C2.98103 2.15055 2.73197 2.26376 2.5282 2.73923C2.49047 2.82225 2.46782 2.87508 2.43763 2.92036C2.42254 2.93545 2.46028 2.76187 2.46028 2.77696C2.42254 2.83734 2.33197 2.92036 2.29424 3.03357C2.26405 3.11659 2.22631 3.16187 2.20367 3.25998L2.19613 3.26753C2.19613 3.23734 2.20367 3.14678 2.19613 3.16187C2.09801 3.3581 2.01499 3.56187 1.94707 3.76564C1.83386 4.12791 1.70556 4.62602 1.68292 5.27508C1.67537 5.32036 1.68292 5.38074 1.67537 5.42602C1.41122 5.72791 1.23009 5.98451 1.16216 6.11281C0.822541 6.64112 0.445182 7.45621 0.082918 8.75432C0.241409 8.39961 0.437635 8.05998 0.66405 7.743C0.362163 8.42979 0.0678236 9.51659 0.00744629 11.177C0.082918 10.8298 0.173484 10.4902 0.286692 10.1581C0.233861 11.2675 0.362163 12.6487 1.06405 14.2034C1.47914 15.1166 2.43763 16.9732 4.7848 18.4222C4.7848 18.4222 5.5848 19.0185 6.95084 19.4638C7.04895 19.5015 7.15462 19.5392 7.26028 19.5694C7.23009 19.5543 7.19235 19.5392 7.16216 19.5317C8.07537 19.8034 9.01877 19.9468 9.97726 19.9468C13.5244 19.9468 14.5735 18.5204 14.5735 18.5204L14.5659 18.5279C14.6188 18.4826 14.664 18.4298 14.7093 18.3845C14.1508 18.9128 12.8678 18.9506 12.3924 18.9128C13.2074 18.6713 13.7433 18.4675 14.7848 18.0751C14.9056 18.0298 15.0339 17.977 15.1622 17.9166L15.1999 17.8939C15.2225 17.8789 15.2527 17.8713 15.2754 17.8562C15.781 17.6147 16.264 17.3204 16.7018 16.9656C17.7508 16.1279 17.9773 15.3128 18.098 14.777C18.0829 14.8298 18.0301 14.9506 17.9923 15.026C17.7207 15.5996 17.1244 15.9619 16.4754 16.2638C16.7848 15.8562 17.0716 15.4336 17.3357 14.9958C17.5471 14.7845 17.6074 14.4524 17.7735 14.2336Z" fill="url(#paint6_radial_1116_3310)"/>
<path d="M16.4981 16.234C16.9283 15.766 17.3057 15.2226 17.6 14.6113C18.3472 13.0415 19.5019 10.4226 18.5962 7.69811C17.8792 5.53962 16.8906 4.36226 15.6377 3.20755C13.6 1.33585 13.0339 0.498113 13.0339 0C13.0339 0 10.6792 2.61887 11.6981 5.35849C12.717 8.09811 14.8075 7.99245 16.1887 10.8453C17.8189 14.2038 14.8755 17.8717 12.4377 18.8981C12.5887 18.8679 17.849 17.6755 18.1283 14.6642C18.1132 14.717 17.9924 15.5547 16.4981 16.234Z" fill="url(#paint7_radial_1116_3310)"/>
<path d="M9.67545 6.47514C9.683 6.294 9.59243 6.1808 8.12074 6.0374C7.51696 5.98457 7.283 5.42608 7.21508 5.18457C7.00376 5.74306 6.91319 6.33174 6.95847 7.04117C6.98866 7.5091 7.30564 8.00721 7.44904 8.294C7.44904 8.294 7.47923 8.24872 7.49432 8.23363C7.77357 7.93929 8.95092 7.494 9.06413 7.43363C9.19243 7.35816 9.66036 7.01853 9.67545 6.47514Z" fill="url(#paint8_linear_1116_3310)"/>
<path d="M3.20755 3.17024C3.18491 3.1325 3.17737 3.24571 3.16227 3.20797C3.04152 2.92873 2.96604 2.4759 2.98869 2.15137C2.98869 2.15137 2.73963 2.26457 2.53586 2.74005C2.49812 2.82307 2.47548 2.8759 2.44529 2.92118C2.4302 2.93627 2.46793 2.76269 2.46793 2.77778C2.4302 2.83816 2.33963 2.92118 2.30189 3.02684C2.27171 3.10986 2.23397 3.16269 2.21133 3.26835C2.20378 3.29854 2.21887 3.14005 2.21133 3.16269C1.72831 4.09099 1.63774 5.49476 1.69057 5.43439C2.71699 4.34005 3.8868 4.08344 3.8868 4.08344C3.7434 3.99288 3.47171 3.72118 3.20755 3.17024Z" fill="url(#paint9_linear_1116_3310)"/>
<path d="M7.08673 14.5965C5.67541 13.9927 4.06786 13.1399 4.12824 11.2078C4.21126 8.66439 6.5056 9.1625 6.5056 9.1625C6.42258 9.18515 6.18861 9.35118 6.1056 9.52477C6.02258 9.74364 5.86409 10.2417 6.33956 10.7625C7.09428 11.5776 4.79239 12.6946 8.33956 14.8078C8.43012 14.8531 7.50937 14.7776 7.08673 14.5965Z" fill="url(#paint10_linear_1116_3310)"/>
<path d="M6.58873 13.3279C7.5925 13.6751 8.75476 13.6147 9.45665 13.2298C9.92458 12.9657 10.5283 12.5506 10.8906 12.6562C10.5736 12.5279 10.3321 12.4676 10.0378 12.46C9.98495 12.46 9.93212 12.46 9.87929 12.4525C9.77363 12.4525 9.66797 12.46 9.56231 12.4676C9.38118 12.4826 9.18495 12.5959 9.00382 12.5808C8.99627 12.5808 9.17741 12.5053 9.16231 12.5053C9.0642 12.5279 8.95854 12.5279 8.85288 12.543C8.78495 12.5506 8.72458 12.5581 8.6491 12.5657C6.55854 12.7393 4.80005 11.4336 4.80005 11.4336C4.6491 11.9317 5.47175 12.9355 6.58873 13.3279Z" fill="url(#paint11_linear_1116_3310)"/>
<path d="M16.4904 16.2489C18.6037 14.1734 19.6678 11.6602 19.215 8.83004C19.215 8.83004 19.3961 10.2791 18.7093 11.7583C19.0414 10.3093 19.0791 8.51306 18.2037 6.64891C17.0414 4.16589 15.1244 2.85268 14.3923 2.30928C13.2829 1.47909 12.8225 0.641358 12.815 0.467773C12.4829 1.14702 11.4791 3.47155 12.7093 5.47155C13.8565 7.35079 15.6678 7.90174 16.9282 9.62249C19.2678 12.7999 16.4904 16.2489 16.4904 16.2489Z" fill="url(#paint12_linear_1116_3310)"/>
<path d="M16.1886 10.8529C15.449 9.3284 14.5283 8.66425 13.6603 7.94727C13.7584 8.09066 13.7886 8.13594 13.8415 8.23406C14.6113 9.04915 15.7358 11.0416 14.9207 13.5473C13.3735 18.2567 7.19996 16.0378 6.5509 15.419C6.81505 18.1435 11.3735 19.4492 14.3471 17.6831C16.0301 16.068 17.3962 13.351 16.1886 10.8529Z" fill="url(#paint13_linear_1116_3310)"/>
</g>
<defs>
<radialGradient id="paint0_radial_1116_3310" cx="0" cy="0" r="1" gradientUnits="userSpaceOnUse" gradientTransform="translate(18.9616 6.16084) rotate(2.2603) scale(6.95014 10.2441)">
<stop offset="0.1" stop-color="#FFEA00"/>
<stop offset="0.17" stop-color="#FFDE00"/>
<stop offset="0.28" stop-color="#FFBF00"/>
<stop offset="0.43" stop-color="#FF8E00"/>
<stop offset="0.77" stop-color="#FF272D"/>
<stop offset="0.87" stop-color="#E0255A"/>
<stop offset="0.95" stop-color="#CC2477"/>
<stop offset="1" stop-color="#C42482"/>
</radialGradient>
<radialGradient id="paint1_radial_1116_3310" cx="0" cy="0" r="1" gradientUnits="userSpaceOnUse" gradientTransform="translate(12.6498 3.08528) scale(19.7236)">
<stop stop-color="#00CCDA"/>
<stop offset="0.22" stop-color="#0083FF"/>
<stop offset="0.26" stop-color="#007AF9"/>
<stop offset="0.33" stop-color="#005FE7"/>
<stop offset="0.44" stop-color="#2639AD"/>
<stop offset="0.52" stop-color="#401E84"/>
<stop offset="0.57" stop-color="#4A1475"/>
</radialGradient>
<linearGradient id="paint2_linear_1116_3310" x1="10.9618" y1="14.7765" x2="7.0821" y2="2.08536" gradientUnits="userSpaceOnUse">
<stop stop-color="#000F43" stop-opacity="0.4"/>
<stop offset="0.48" stop-color="#001962" stop-opacity="0.17"/>
<stop offset="1" stop-color="#002079" stop-opacity="0"/>
</linearGradient>
<radialGradient id="paint3_radial_1116_3310" cx="0" cy="0" r="1" gradientUnits="userSpaceOnUse" gradientTransform="translate(19.5703 13.2694) rotate(5.61743) scale(6.6304)">
<stop stop-color="#FFEA00"/>
<stop offset="0.5" stop-color="#FF272D"/>
<stop offset="1" stop-color="#C42482"/>
</radialGradient>
<radialGradient id="paint4_radial_1116_3310" cx="0" cy="0" r="1" gradientUnits="userSpaceOnUse" gradientTransform="translate(19.5955 6.88383) rotate(5.61741) scale(11.0721)">
<stop stop-color="#FFE900"/>
<stop offset="0.16" stop-color="#FFAF0E"/>
<stop offset="0.32" stop-color="#FF7A1B"/>
<stop offset="0.47" stop-color="#FF4E26"/>
<stop offset="0.62" stop-color="#FF2C2E"/>
<stop offset="0.76" stop-color="#FF1434"/>
<stop offset="0.89" stop-color="#FF0538"/>
<stop offset="1" stop-color="#FF0039"/>
</radialGradient>
<radialGradient id="paint5_radial_1116_3310" cx="0" cy="0" r="1" gradientUnits="userSpaceOnUse" gradientTransform="translate(20.1494 17.2515) rotate(5.61742) scale(10.1598)">
<stop stop-color="#FF272D"/>
<stop offset="0.5" stop-color="#C42482"/>
<stop offset="0.99" stop-color="#620700"/>
</radialGradient>
<radialGradient id="paint6_radial_1116_3310" cx="0" cy="0" r="1" gradientUnits="userSpaceOnUse" gradientTransform="translate(14.4941 7.98497) scale(15.8518)">
<stop offset="0.16" stop-color="#FFEA00"/>
<stop offset="0.23" stop-color="#FFDE00"/>
<stop offset="0.37" stop-color="#FFBF00"/>
<stop offset="0.54" stop-color="#FF8E00"/>
<stop offset="0.76" stop-color="#FF272D"/>
<stop offset="0.8" stop-color="#F92433"/>
<stop offset="0.84" stop-color="#E91C45"/>
<stop offset="0.89" stop-color="#CF0E62"/>
<stop offset="0.94" stop-color="#B5007F"/>
</radialGradient>
<radialGradient id="paint7_radial_1116_3310" cx="0" cy="0" r="1" gradientUnits="userSpaceOnUse" gradientTransform="translate(13.5852 0.633803) scale(18.0663)">
<stop offset="0.28" stop-color="#FFEA00"/>
<stop offset="0.4" stop-color="#FFDD00"/>
<stop offset="0.63" stop-color="#FFBA00"/>
<stop offset="0.86" stop-color="#FF9100"/>
<stop offset="0.93" stop-color="#FF6711"/>
<stop offset="0.99" stop-color="#FF4A1D"/>
</radialGradient>
<linearGradient id="paint8_linear_1116_3310" x1="3.01098" y1="7.3992" x2="10.7925" y2="6.21091" gradientUnits="userSpaceOnUse">
<stop stop-color="#C42482" stop-opacity="0.5"/>
<stop offset="0.47" stop-color="#FF272D" stop-opacity="0.5"/>
<stop offset="0.49" stop-color="#FF2C2C" stop-opacity="0.51"/>
<stop offset="0.68" stop-color="#FF7A1A" stop-opacity="0.72"/>
<stop offset="0.83" stop-color="#FFB20D" stop-opacity="0.87"/>
<stop offset="0.94" stop-color="#FFD605" stop-opacity="0.96"/>
<stop offset="1" stop-color="#FFE302"/>
</linearGradient>
<linearGradient id="paint9_linear_1116_3310" x1="2.9524" y1="5.35937" x2="2.14099" y2="2.44293" gradientUnits="userSpaceOnUse">
<stop stop-color="#891551" stop-opacity="0.6"/>
<stop offset="1" stop-color="#C42482" stop-opacity="0"/>
</linearGradient>
<linearGradient id="paint10_linear_1116_3310" x1="4.4336" y1="9.4574" x2="6.10509" y2="11.7925" gradientUnits="userSpaceOnUse">
<stop offset="0.01" stop-color="#891551" stop-opacity="0.5"/>
<stop offset="0.48" stop-color="#FF272D" stop-opacity="0.5"/>
<stop offset="1" stop-color="#FF272D" stop-opacity="0"/>
</linearGradient>
<linearGradient id="paint11_linear_1116_3310" x1="7.691" y1="13.522" x2="7.84397" y2="12.0218" gradientUnits="userSpaceOnUse">
<stop stop-color="#C42482"/>
<stop offset="0.08" stop-color="#C42482" stop-opacity="0.81"/>
<stop offset="0.21" stop-color="#C42482" stop-opacity="0.57"/>
<stop offset="0.33" stop-color="#C42482" stop-opacity="0.36"/>
<stop offset="0.45" stop-color="#C42482" stop-opacity="0.2"/>
<stop offset="0.56" stop-color="#C42482" stop-opacity="0.09"/>
<stop offset="0.67" stop-color="#C42482" stop-opacity="0.02"/>
<stop offset="0.77" stop-color="#C42482" stop-opacity="0"/>
</linearGradient>
<linearGradient id="paint12_linear_1116_3310" x1="12.5728" y1="0.732981" x2="18.7672" y2="14.5845" gradientUnits="userSpaceOnUse">
<stop stop-color="#FFF14F"/>
<stop offset="0.27" stop-color="#FFEE4C"/>
<stop offset="0.45" stop-color="#FFE643"/>
<stop offset="0.61" stop-color="#FFD834"/>
<stop offset="0.76" stop-color="#FFC41E"/>
<stop offset="0.89" stop-color="#FFAB02"/>
<stop offset="0.9" stop-color="#FFA900"/>
<stop offset="0.95" stop-color="#FFA000"/>
<stop offset="1" stop-color="#FF9100"/>
</linearGradient>
<linearGradient id="paint13_linear_1116_3310" x1="13.8028" y1="8.70002" x2="10.8687" y2="16.5784" gradientUnits="userSpaceOnUse">
<stop stop-color="#FF8E00"/>
<stop offset="0.04" stop-color="#FF8E00" stop-opacity="0.86"/>
<stop offset="0.08" stop-color="#FF8E00" stop-opacity="0.73"/>
<stop offset="0.13" stop-color="#FF8E00" stop-opacity="0.63"/>
<stop offset="0.18" stop-color="#FF8E00" stop-opacity="0.56"/>
<stop offset="0.23" stop-color="#FF8E00" stop-opacity="0.51"/>
<stop offset="0.28" stop-color="#FF8E00" stop-opacity="0.5"/>
<stop offset="0.39" stop-color="#FF8E00" stop-opacity="0.48"/>
<stop offset="0.52" stop-color="#FF8E00" stop-opacity="0.42"/>
<stop offset="0.68" stop-color="#FF8E00" stop-opacity="0.31"/>
<stop offset="0.84" stop-color="#FF8E00" stop-opacity="0.17"/>
<stop offset="1" stop-color="#FF8E00" stop-opacity="0"/>
</linearGradient>
<clipPath id="clip0_1116_3310">
<rect width="19.3208" height="20" fill="white"/>
</clipPath>
</defs>
</svg>
