<svg width="17" height="16" viewBox="0 0 17 16" fill="none" xmlns="http://www.w3.org/2000/svg">
<path fill-rule="evenodd" clip-rule="evenodd" d="M11.3011 0.666687C11.5771 0.666687 11.8011 0.890687 11.8011 1.16669L11.8014 1.73189C12.7748 1.79863 13.5833 2.13205 14.1555 2.70542C14.7801 3.33275 15.1088 4.23475 15.1055 5.31675V11.3988C15.1055 13.6201 13.6948 15.0001 11.4248 15.0001H5.78614C3.51614 15.0001 2.10547 13.6008 2.10547 11.3481V5.31542C2.10547 3.22022 3.36351 1.87531 5.41526 1.73212L5.41567 1.16669C5.41567 0.890687 5.63967 0.666687 5.91567 0.666687C6.19167 0.666687 6.41567 0.890687 6.41567 1.16669L6.41547 1.71935H10.8008L10.8011 1.16669C10.8011 0.890687 11.0251 0.666687 11.3011 0.666687ZM14.1055 6.60269H3.10547V11.3481C3.10547 13.0588 4.05747 14.0001 5.78614 14.0001H11.4248C13.1535 14.0001 14.1055 13.0761 14.1055 11.3988L14.1055 6.60269ZM11.5729 10.7976C11.8489 10.7976 12.0729 11.0216 12.0729 11.2976C12.0729 11.5736 11.8489 11.7976 11.5729 11.7976C11.2969 11.7976 11.0703 11.5736 11.0703 11.2976C11.0703 11.0216 11.2909 10.7976 11.5669 10.7976H11.5729ZM8.6146 10.7976C8.8906 10.7976 9.1146 11.0216 9.1146 11.2976C9.1146 11.5736 8.8906 11.7976 8.6146 11.7976C8.3386 11.7976 8.11194 11.5736 8.11194 11.2976C8.11194 11.0216 8.3326 10.7976 8.6086 10.7976H8.6146ZM5.65007 10.7976C5.92607 10.7976 6.15007 11.0216 6.15007 11.2976C6.15007 11.5736 5.92607 11.7976 5.65007 11.7976C5.37407 11.7976 5.14674 11.5736 5.14674 11.2976C5.14674 11.0216 5.36807 10.7976 5.64407 10.7976H5.65007ZM11.5729 8.20642C11.8489 8.20642 12.0729 8.43042 12.0729 8.70642C12.0729 8.98242 11.8489 9.20642 11.5729 9.20642C11.2969 9.20642 11.0703 8.98242 11.0703 8.70642C11.0703 8.43042 11.2909 8.20642 11.5669 8.20642H11.5729ZM8.6146 8.20642C8.8906 8.20642 9.1146 8.43042 9.1146 8.70642C9.1146 8.98242 8.8906 9.20642 8.6146 9.20642C8.3386 9.20642 8.11194 8.98242 8.11194 8.70642C8.11194 8.43042 8.3326 8.20642 8.6086 8.20642H8.6146ZM5.65007 8.20642C5.92607 8.20642 6.15007 8.43042 6.15007 8.70642C6.15007 8.98242 5.92607 9.20642 5.65007 9.20642C5.37407 9.20642 5.14674 8.98242 5.14674 8.70642C5.14674 8.43042 5.36807 8.20642 5.64407 8.20642H5.65007ZM10.8008 2.71935H6.41547L6.41567 3.36069C6.41567 3.63669 6.19167 3.86069 5.91567 3.86069C5.63967 3.86069 5.41567 3.63669 5.41567 3.36069L5.41531 2.73449C3.92183 2.85995 3.10547 3.76526 3.10547 5.31542V5.60269H14.1055L14.1055 5.31542C14.1081 4.49209 13.8868 3.85209 13.4475 3.41209C13.0618 3.02529 12.498 2.79429 11.8017 2.73481L11.8011 3.36069C11.8011 3.63669 11.5771 3.86069 11.3011 3.86069C11.0251 3.86069 10.8011 3.63669 10.8011 3.36069L10.8008 2.71935Z" fill="#36C27F"/>
</svg>
