<svg width="30" height="31" viewBox="0 0 30 31" fill="none" xmlns="http://www.w3.org/2000/svg">
<path fill-rule="evenodd" clip-rule="evenodd" d="M14.6855 1.75024C18.2768 1.75024 21.6518 3.14649 24.1868 5.68274C29.4268 10.9227 29.4268 19.4477 24.1868 24.6877C21.618 27.2577 18.1593 28.6177 14.6555 28.6177C12.7455 28.6177 10.823 28.214 9.02427 27.3815C8.49427 27.169 7.99802 26.969 7.64177 26.969C7.23177 26.9715 6.68052 27.1615 6.14802 27.3452C5.05552 27.7202 3.69552 28.1877 2.68927 27.1852C1.68677 26.1815 2.14927 24.8252 2.52177 23.734C2.70552 23.1965 2.89427 22.6415 2.89427 22.2215C2.89427 21.8765 2.72802 21.4365 2.47302 20.8027C0.131768 15.7465 1.21427 9.65274 5.18552 5.68399C7.72052 3.14774 11.0943 1.75024 14.6855 1.75024ZM14.6868 3.62524C11.5955 3.62524 8.69177 4.82774 6.51052 7.01024C3.09302 10.4252 2.16302 15.669 4.19427 20.0602C4.48677 20.784 4.76927 21.489 4.76927 22.2215C4.76927 22.9527 4.51802 23.689 4.29677 24.339C4.11427 24.874 3.83802 25.6815 4.01552 25.859C4.18927 26.039 5.00177 25.7552 5.53802 25.5715C6.18177 25.3515 6.91177 25.099 7.63552 25.094C8.36052 25.094 9.04427 25.369 9.76802 25.6602C14.2018 27.7102 19.4455 26.7777 22.8618 23.3627C27.3693 18.8527 27.3693 11.5165 22.8618 7.00899C20.6793 4.82649 17.7768 3.62524 14.6868 3.62524ZM19.6204 14.4536C20.3104 14.4536 20.8704 15.0124 20.8704 15.7036C20.8704 16.3949 20.3104 16.9536 19.6204 16.9536C18.9304 16.9536 18.3654 16.3949 18.3654 15.7036C18.3654 15.0124 18.9191 14.4536 19.6091 14.4536H19.6204ZM14.6094 14.4536C15.2994 14.4536 15.8594 15.0124 15.8594 15.7036C15.8594 16.3949 15.2994 16.9536 14.6094 16.9536C13.9194 16.9536 13.3544 16.3949 13.3544 15.7036C13.3544 15.0124 13.9069 14.4536 14.5981 14.4536H14.6094ZM9.59789 14.4536C10.2879 14.4536 10.8479 15.0124 10.8479 15.7036C10.8479 16.3949 10.2879 16.9536 9.59789 16.9536C8.90789 16.9536 8.34289 16.3949 8.34289 15.7036C8.34289 15.0124 8.89664 14.4536 9.58664 14.4536H9.59789Z" fill="white"/>
</svg>
