<svg width="19" height="18" viewBox="0 0 19 18" fill="none" xmlns="http://www.w3.org/2000/svg">
<path fill-rule="evenodd" clip-rule="evenodd" d="M12.7505 1.5C15.2922 1.5 17 3.2835 17 5.937V12.063C17 14.7165 15.2923 16.5 12.7498 16.5H6.24875C3.707 16.5 2 14.7165 2 12.063V5.937C2 3.2835 3.707 1.5 6.24875 1.5H12.7505ZM12.7505 2.625H6.24875C4.35125 2.625 3.125 3.92475 3.125 5.937V12.063C3.125 14.0752 4.35125 15.375 6.24875 15.375H12.7498C14.648 15.375 15.875 14.0752 15.875 12.063V5.937C15.875 3.92475 14.648 2.625 12.7505 2.625ZM12.5671 6.82275C12.7869 7.0425 12.7869 7.398 12.5671 7.61775L9.00763 11.1772C8.89813 11.2875 8.75413 11.3422 8.61013 11.3422C8.46688 11.3422 8.32212 11.2875 8.21262 11.1772L6.43213 9.3975C6.21238 9.17775 6.21238 8.82225 6.43213 8.6025C6.65188 8.38275 7.00738 8.38275 7.22713 8.6025L8.61013 9.984L11.7721 6.82275C11.9919 6.603 12.3474 6.603 12.5671 6.82275Z" fill="white"/>
<path fill-rule="evenodd" clip-rule="evenodd" d="M12.7505 1.5C15.2922 1.5 17 3.2835 17 5.937V12.063C17 14.7165 15.2923 16.5 12.7498 16.5H6.24875C3.707 16.5 2 14.7165 2 12.063V5.937C2 3.2835 3.707 1.5 6.24875 1.5H12.7505ZM12.7505 2.625H6.24875C4.35125 2.625 3.125 3.92475 3.125 5.937V12.063C3.125 14.0752 4.35125 15.375 6.24875 15.375H12.7498C14.648 15.375 15.875 14.0752 15.875 12.063V5.937C15.875 3.92475 14.648 2.625 12.7505 2.625ZM12.5671 6.82275C12.7869 7.0425 12.7869 7.398 12.5671 7.61775L9.00763 11.1772C8.89813 11.2875 8.75413 11.3422 8.61013 11.3422C8.46688 11.3422 8.32212 11.2875 8.21262 11.1772L6.43213 9.3975C6.21238 9.17775 6.21238 8.82225 6.43213 8.6025C6.65188 8.38275 7.00738 8.38275 7.22713 8.6025L8.61013 9.984L11.7721 6.82275C11.9919 6.603 12.3474 6.603 12.5671 6.82275Z" fill="url(#paint0_radial_1101_97)"/>
<defs>
<radialGradient id="paint0_radial_1101_97" cx="0" cy="0" r="1" gradientUnits="userSpaceOnUse" gradientTransform="translate(1.27778 -0.560439) rotate(52.6545) scale(25.9177 37.3705)">
<stop offset="0.151042" stop-color="#33A6FF"/>
<stop offset="0.907346" stop-color="#36C27F"/>
</radialGradient>
</defs>
</svg>
