<svg width="24" height="24" viewBox="0 0 24 24" fill="none" xmlns="http://www.w3.org/2000/svg">
<g clip-path="url(#clip0_1111_28725)">
<path d="M0.00719505 14.386L0.00706534 14.386L0.00719505 14.386ZM4.04605 6.49256H4.35307H10.5239L10.6779 5.51688C10.5962 5.49043 10.5388 5.41395 10.5388 5.32585C10.5388 5.21484 10.6288 5.12492 10.7398 5.12492H10.9976H11.5509H12.45H13.003H13.2607C13.3717 5.12492 13.4616 5.21484 13.4616 5.32585C13.4616 5.41404 13.4042 5.49043 13.3225 5.51686L13.4765 6.49256H20.0207C20.0654 6.49256 20.1017 6.52886 20.1017 6.57357C20.1017 6.58678 20.0977 6.6026 20.0833 6.62121L20.0575 6.65446H19.3183H12.7838H12.2838V7.15446V20.5539V21.0539H12.7838H18.1892C18.5633 21.0539 18.8666 21.3572 18.8666 21.7314C18.8666 21.7652 18.8392 21.7927 18.8054 21.7927H5.19504C5.16122 21.7927 5.13378 21.7652 5.13378 21.7314C5.13378 21.3572 5.43708 21.0539 5.81127 21.0539H11.2167H11.7167V20.5539V7.15457V6.65457H11.2167H4.62604H3.94656L3.92166 6.62794C3.90507 6.61021 3.89863 6.59162 3.89863 6.57357C3.89863 6.52886 3.93493 6.49256 3.97963 6.49256H4.04403H4.04605ZM12.6951 4.23093L12.0004 4.77374L11.3053 4.23087C11.0384 4.0224 10.8687 3.70087 10.8687 3.33962C10.8687 2.71467 11.3753 2.20801 12.0003 2.20801C12.6252 2.20801 13.1319 2.71461 13.1319 3.33962C13.1319 3.70072 12.9621 4.0223 12.6951 4.23093ZM19.9552 6.99791L20.0313 7.15044L23.4947 14.0903C23.4947 14.0903 23.4947 14.0903 23.4947 14.0903C23.4973 14.0956 23.4988 14.1006 23.4996 14.1059C23.5003 14.1114 23.5004 14.1183 23.4991 14.1265L23.489 14.1882L23.4938 14.2432C23.4906 14.2755 23.4869 14.3076 23.4828 14.3395L23.1432 13.659L20.4025 8.16725L19.9552 7.27077L19.5078 8.16725L16.7671 13.659L16.4276 14.3393C16.4235 14.3075 16.4198 14.2755 16.4166 14.2433L16.4214 14.1885L16.4114 14.1267C16.41 14.1184 16.4101 14.1114 16.4109 14.1058C16.4116 14.1004 16.4131 14.0954 16.4157 14.0902C16.4157 14.0902 16.4157 14.0902 16.4157 14.0902L19.7657 7.37773L19.9552 6.99791ZM19.9552 17.4389C18.1608 17.4389 16.6762 16.1096 16.4334 14.3823H17.2145H22.6958H23.4771C23.2342 16.1096 21.7497 17.4389 19.9552 17.4389ZM4.04507 7.11016L4.17866 7.37784L7.58457 14.2025C7.58457 14.2025 7.58458 14.2025 7.58458 14.2025C7.58721 14.2078 7.5887 14.2128 7.58944 14.218C7.59022 14.2236 7.59032 14.2306 7.58896 14.2389L7.57891 14.3006L7.58371 14.3556C7.58046 14.3878 7.57678 14.4199 7.57268 14.4519L7.23298 13.7712L4.49231 8.27943L4.04492 7.38296L3.59754 8.27943L0.856872 13.7712L0.517438 14.4514C0.513366 14.4196 0.509713 14.3877 0.506487 14.3556L0.511288 14.3008L0.501238 14.2391C0.499857 14.2306 0.499967 14.2236 0.500747 14.218C0.501489 14.2128 0.502974 14.2078 0.505604 14.2025C0.505609 14.2025 0.505614 14.2025 0.505618 14.2025L4.00386 7.19274L4.04507 7.11016ZM4.04504 17.5512C2.25062 17.5512 0.76604 16.2219 0.523228 14.4945H1.30426H6.78559H7.56696C7.32414 16.2218 5.83947 17.5512 4.04504 17.5512Z" stroke="#fff"/>
</g>
<defs>
<clipPath id="clip0_1111_28725">
<rect width="24" height="24" fill="white"/>
</clipPath>
</defs>
</svg>
