<svg width="31" height="31" viewBox="0 0 31 31" fill="none" xmlns="http://www.w3.org/2000/svg">
<g clip-path="url(#clip0_809_7594)">
<path d="M26.8807 10.1198L26.857 9.99585C26.7734 9.55871 27.0425 9.13142 27.4729 9.01806L28.7968 8.6693C29.271 8.54439 29.7518 8.84723 29.844 9.32888L29.9029 9.63689C29.9951 10.1185 29.6601 10.5775 29.1732 10.6365L27.8141 10.8012C27.3722 10.8547 26.9643 10.557 26.8807 10.1198Z" fill="#73CCA1"/>
<path d="M25.0835 6.33068L25.001 6.23521C24.71 5.89847 24.7294 5.39383 25.0454 5.08049L26.0176 4.11655C26.3658 3.77124 26.9336 3.79312 27.2542 4.16417L27.4593 4.40144C27.7799 4.77249 27.7192 5.33747 27.3271 5.63193L26.2325 6.45413C25.8766 6.72138 25.3745 6.66748 25.0835 6.33068Z" fill="#73CCA1"/>
<path d="M21.6304 3.94817L21.5112 3.90671C21.0908 3.76056 20.8553 3.31387 20.9723 2.88447L21.3322 1.56355C21.4611 1.0904 21.9638 0.825447 22.427 0.986427L22.7232 1.08941C23.1864 1.25039 23.4164 1.77004 23.2241 2.22114L22.6871 3.48048C22.5126 3.88993 22.0508 4.09425 21.6304 3.94817Z" fill="#73CCA1"/>
<path d="M22.9543 10.2009C16.4258 9.68629 9.89729 9.68629 3.36871 10.2009C2.39397 10.2777 1.61523 11.0399 1.50984 12.012C0.936823 17.2962 0.936823 22.5804 1.50984 27.8647C1.61523 28.8367 2.39397 29.5989 3.36871 29.6757C9.89723 30.1903 16.4257 30.1903 22.9543 29.6757C23.9291 29.5989 24.7078 28.8367 24.8132 27.8647C25.3862 22.5804 25.3862 17.2962 24.8132 12.012C24.7078 11.0399 23.9291 10.2777 22.9543 10.2009Z" fill="#F7F9FB"/>
<path d="M3.79374 29.7077C3.65146 29.6973 3.51031 29.687 3.36856 29.6755C2.39394 29.5987 1.61496 28.8366 1.50975 27.8642C0.936853 22.5806 0.936853 17.2959 1.50975 12.0117C1.43891 12.8184 1.85318 13.8999 2.59779 15.0839C2.3187 19.4523 2.41629 23.8201 2.88996 28.1891C2.95863 28.8209 3.29989 29.367 3.79374 29.7077Z" fill="#EEF2F4"/>
<path d="M24.8136 12.0119C24.933 13.3751 23.6678 15.5228 21.7638 17.6231C21.1462 18.3039 20.4621 18.9793 19.7355 19.6214C19.3218 19.9872 18.8944 20.3421 18.4578 20.6811C16.7348 22.0198 14.8721 23.1068 13.1622 23.6176C11.4822 23.1161 9.65668 22.0586 7.95868 20.7531C6.79106 19.8542 5.68402 18.8387 4.72735 17.8052C4.67668 17.7501 4.62648 17.6961 4.57745 17.6417C2.66364 15.536 1.39081 13.379 1.51074 12.0119C1.61594 11.04 2.39487 10.278 3.36954 10.2011C9.89818 9.68655 16.4262 9.68655 22.9549 10.2011C23.9295 10.2779 24.7084 11.04 24.8136 12.0119Z" fill="#EEF2F4"/>
<path d="M22.9495 12.5718C19.6168 16.3455 16.1096 19.9432 12.4264 23.3664C11.9805 23.1963 11.5275 22.9919 11.0723 22.758C10.0274 22.2211 8.97043 21.5316 7.95816 20.7531C6.79054 19.8543 5.6835 18.8387 4.72683 17.8052C4.67616 17.7502 4.62596 17.6962 4.57693 17.6417C3.98169 16.9866 3.44802 16.3265 2.99945 15.6871C2.85717 15.4837 2.72305 15.2826 2.59826 15.0842C2.4707 14.8814 2.35294 14.6819 2.24609 14.4862C5.85527 10.556 9.66168 6.82324 13.6649 3.28719C14.0955 2.90723 14.7344 2.87785 15.1966 3.21904C18.1963 5.43376 20.8035 8.04094 23.0182 11.0406C23.3594 11.5029 23.33 12.1412 22.9495 12.5718Z" fill="#20AA68"/>
<path d="M20.2093 13.3959C20.2387 13.4258 20.2687 13.4536 20.2998 13.4809C18.7326 15.199 17.1197 16.8878 15.486 18.5214C14.0519 19.9556 12.5746 21.3734 11.0729 22.7579C10.028 22.221 8.97104 21.5315 7.95877 20.753C7.76472 20.6037 7.57283 20.4511 7.38259 20.2957C6.86639 19.8743 6.36545 19.4322 5.88791 18.9793C5.48238 18.5944 5.09427 18.2009 4.72738 17.8051C4.67671 17.7501 4.62651 17.6961 4.57749 17.6416C3.98224 16.9865 3.44857 16.3264 3 15.687C4.53608 14.0053 6.11521 12.3521 7.71616 10.7511C9.34983 9.11744 11.0385 7.50506 12.7561 5.93789C12.7839 5.96845 12.8117 5.99894 12.8411 6.02838C13.6506 6.83786 14.9627 6.83786 15.7716 6.02838C15.8898 5.9101 15.9907 5.78037 16.0746 5.64355C17.7132 7.01285 19.2247 8.52442 20.5935 10.163C20.4567 10.2469 20.3275 10.3472 20.2092 10.4655C19.3998 11.2749 19.3998 12.587 20.2093 13.3959Z" fill="#36C27F"/>
<path d="M14.3665 17.4055C16.0608 15.7111 16.1945 13.0977 14.665 11.5682C13.1355 10.0387 10.522 10.1723 8.82766 11.8667C7.13331 13.561 6.99967 16.1745 8.52917 17.704C10.0587 19.2335 12.6721 19.0998 14.3665 17.4055Z" fill="#73CCA1"/>
<path d="M7.65077 20.0992C7.56955 20.1809 7.47801 20.2464 7.38042 20.2959C6.86423 19.8746 6.36329 19.4325 5.88574 18.9795C5.937 18.8351 6.02039 18.6999 6.13592 18.5843C6.55453 18.1662 7.23264 18.1662 7.65071 18.5843C8.06944 19.003 8.06944 19.6811 7.65077 20.0992Z" fill="#73CCA1"/>
<path d="M16.3035 11.0023C16.8951 11.0023 17.3746 10.5227 17.3746 9.9312C17.3746 9.33965 16.8951 8.86011 16.3035 8.86011C15.712 8.86011 15.2324 9.33965 15.2324 9.9312C15.2324 10.5227 15.712 11.0023 16.3035 11.0023Z" fill="#73CCA1"/>
<path d="M30.3351 9.55421L30.2761 9.24627C30.2094 8.89739 29.9987 8.5888 29.6982 8.39949C29.3977 8.21019 29.0283 8.1536 28.685 8.24409L27.3611 8.59279C26.7097 8.76432 26.2986 9.41698 26.4252 10.0787L26.449 10.2025C26.5657 10.8128 27.105 11.2472 27.7129 11.2472C27.7639 11.2472 27.8154 11.2441 27.8672 11.2378L29.2263 11.0731C29.5789 11.0304 29.9012 10.8413 30.1106 10.5545C30.32 10.2677 30.4019 9.90303 30.3351 9.55421ZM29.4001 10.0358C29.3329 10.1278 29.2336 10.186 29.1205 10.1998L27.7614 10.3644C27.5501 10.3899 27.353 10.2463 27.3129 10.0371C27.3129 10.037 27.3129 10.037 27.3129 10.037L27.2892 9.91311C27.2491 9.70393 27.3791 9.49756 27.5851 9.44331L28.909 9.09461C28.9438 9.08546 28.9789 9.08095 29.0138 9.08095C29.0893 9.08095 29.1634 9.10223 29.2294 9.14375C29.3258 9.20451 29.3907 9.29957 29.4121 9.41153L29.471 9.71947C29.4925 9.83148 29.4673 9.94379 29.4001 10.0358Z" fill="#2B3B47"/>
<path d="M27.5913 5.9835C27.8753 5.77021 28.0599 5.44537 28.0978 5.09227C28.1357 4.73917 28.0243 4.38243 27.7921 4.11372L27.587 3.87645C27.3548 3.60774 27.0181 3.44582 26.6631 3.43215C26.308 3.41802 25.96 3.55408 25.7079 3.80414L24.7357 4.76808C24.2574 5.24234 24.2277 6.01305 24.6682 6.52279L24.7507 6.61827L24.7507 6.61821C25.0032 6.9105 25.3631 7.06221 25.7258 7.06221C25.9955 7.06221 26.2669 6.97823 26.4965 6.8057L27.5913 5.9835ZM25.4163 6.04302C25.4163 6.04302 25.4163 6.04302 25.4163 6.04302L25.3338 5.94755C25.1945 5.78639 25.2039 5.54266 25.3552 5.39271L26.3273 4.42876C26.4044 4.35235 26.5054 4.31083 26.6132 4.31083C26.6186 4.31083 26.624 4.31095 26.6294 4.31112C26.7432 4.31552 26.847 4.36543 26.9215 4.45164L27.1265 4.68891C27.201 4.77512 27.2353 4.88502 27.2231 4.99832C27.211 5.11162 27.1541 5.21167 27.063 5.28011L25.9683 6.10231C25.7979 6.23022 25.5556 6.20418 25.4163 6.04302Z" fill="#2B3B47"/>
<path d="M21.3689 4.32216L21.4881 4.36356C21.6264 4.41159 21.7679 4.43446 21.9075 4.43446C22.41 4.43446 22.887 4.13784 23.0937 3.6529L23.6307 2.39356C23.77 2.06685 23.7674 1.69317 23.6237 1.36839C23.4799 1.04362 23.2051 0.790507 22.8696 0.673863L22.5734 0.570941C22.2381 0.454355 21.8654 0.482446 21.5512 0.648C21.237 0.813613 21.0032 1.10514 20.9098 1.44786L20.5499 2.76871C20.3729 3.41862 20.7325 4.10095 21.3689 4.32216ZM21.3987 3.00001L21.7586 1.67915C21.7886 1.56919 21.8606 1.47935 21.9614 1.42628C22.021 1.39484 22.0855 1.37901 22.1504 1.37901C22.1954 1.37901 22.2406 1.38657 22.2847 1.40194L22.5808 1.50486C22.6884 1.54228 22.7731 1.62021 22.8192 1.72443C22.8654 1.82864 22.8661 1.94376 22.8214 2.04861L22.2845 3.30795C22.2009 3.50389 21.9781 3.60264 21.7768 3.53268C21.7768 3.53268 21.7768 3.53268 21.7767 3.53262L21.6576 3.49128C21.4564 3.42126 21.3427 3.20556 21.3987 3.00001Z" fill="#2B3B47"/>
<path d="M22.9882 9.76268C22.8483 9.75177 22.7081 9.7411 22.568 9.73042C20.5108 7.13914 18.1242 4.83346 15.4579 2.86511C14.8332 2.40369 13.9567 2.44245 13.3735 2.9573C12.0925 4.08891 10.82 5.25142 9.59116 6.41265C9.41464 6.57949 9.40673 6.85788 9.57357 7.03446C9.74042 7.21104 10.0188 7.2189 10.1954 7.05205C11.4171 5.89757 12.6823 4.74168 13.9559 3.6167C14.2301 3.37467 14.642 3.3562 14.9354 3.57277C17.8858 5.75084 20.4861 8.35115 22.6643 11.3017C22.8807 11.5949 22.8621 12.0064 22.6198 12.2804C19.3746 15.9549 15.9135 19.511 12.3295 22.8546C12.1693 22.789 12.0069 22.7185 11.843 22.6433C13.1878 21.3928 14.5156 20.1131 15.7965 18.8323C17.434 17.1948 19.0583 15.494 20.6242 13.7772C20.7038 13.6898 20.745 13.5742 20.7384 13.4562C20.7317 13.3382 20.678 13.2278 20.5891 13.1499C20.5633 13.1272 20.5421 13.1074 20.5196 13.0846C20.2113 12.7764 20.0414 12.3666 20.0414 11.9307C20.0414 11.4946 20.2113 11.0846 20.5197 10.7762C20.61 10.6859 20.712 10.6057 20.8229 10.5376C20.9318 10.4708 21.0063 10.3599 21.027 10.2338C21.0476 10.1077 21.0124 9.97878 20.9304 9.88073C19.5494 8.22741 18.0104 6.68822 16.3561 5.30579C16.258 5.2238 16.1291 5.18861 16.003 5.2092C15.877 5.22984 15.766 5.30432 15.6991 5.41322C15.631 5.52436 15.5505 5.62657 15.4598 5.71724C15.1517 6.02559 14.7419 6.19543 14.3059 6.19543C13.8699 6.19543 13.46 6.02559 13.1515 5.71718C13.1269 5.69261 13.1038 5.66704 13.0806 5.64153C13.002 5.5552 12.8923 5.50371 12.7758 5.49832C12.6592 5.49275 12.5452 5.53409 12.459 5.61279C10.7363 7.18465 9.03568 8.8087 7.40453 10.4399C5.93882 11.9056 4.47716 13.4306 3.05273 14.9785C3.02476 14.9352 2.9972 14.8922 2.97051 14.8497C2.90647 14.748 2.84537 14.6473 2.78725 14.5484C4.76552 12.4033 6.83122 10.288 8.93276 8.25785C9.10746 8.08907 9.11227 7.81062 8.94349 7.63592C8.77471 7.46122 8.49632 7.45635 8.32156 7.62519C7.66163 8.26272 7.00575 8.90939 6.35426 9.56188C5.35073 9.61612 4.33588 9.68333 3.33452 9.76262C2.15242 9.85581 1.20126 10.7816 1.07283 11.964C0.499162 17.255 0.499162 22.6208 1.07283 27.9124C1.20126 29.0948 2.15242 30.0206 3.33452 30.1138C6.59676 30.3712 9.88357 30.5 13.1676 30.4999C15.775 30.4999 18.3808 30.4187 20.9696 30.2562C21.212 30.2409 21.3963 30.0321 21.3811 29.7897C21.3659 29.5472 21.1566 29.3638 20.9145 29.3782C15.1062 29.7428 9.21478 29.6952 3.40372 29.2368C2.64545 29.1771 2.03501 28.5841 1.94869 27.8257C1.94869 27.8256 1.94869 27.8256 1.94869 27.8256C1.83257 26.4993 3.30502 24.0924 5.70008 21.6939C5.87173 21.522 5.8715 21.2435 5.69961 21.0719C5.52772 20.9002 5.24922 20.9004 5.07762 21.0723C3.54347 22.6088 2.39626 24.1112 1.72918 25.4191C1.45537 21.7707 1.45554 18.098 1.72971 14.4499C1.77152 14.5313 1.81451 14.6134 1.86019 14.6966C1.96915 14.8963 2.09225 15.1053 2.22608 15.318C2.35187 15.518 2.49086 15.7269 2.63946 15.9393C3.09637 16.5905 3.63871 17.2626 4.2502 17.9358C4.28961 17.9796 4.32973 18.023 4.37025 18.067L4.40415 18.1037C5.39038 19.1691 6.52656 20.2057 7.69013 21.1014C8.76363 21.927 9.83395 22.6158 10.8714 23.1489C11.3462 23.3929 11.8167 23.6042 12.269 23.7767C12.525 23.8749 12.7829 23.9629 13.0355 24.0387C13.0767 24.051 13.1192 24.0571 13.1617 24.0571C13.2041 24.0571 13.2465 24.051 13.2875 24.0387C14.9506 23.542 16.8316 22.501 18.727 21.0282C19.166 20.6873 19.6031 20.3248 20.0262 19.9508C20.7594 19.3028 21.4534 18.619 22.0891 17.9182C23.2083 16.6837 24.0571 15.5009 24.5937 14.4496C24.8682 18.0976 24.8684 21.7703 24.5943 25.4187C23.9272 24.1109 22.78 22.6085 21.2459 21.0722C21.0743 20.9003 20.7958 20.9001 20.624 21.0717C20.4521 21.2434 20.4518 21.5218 20.6235 21.6937C23.0168 24.0906 24.4889 26.4957 24.3751 27.8226C24.2905 28.5825 23.6793 29.1768 22.9185 29.2368C22.8328 29.2438 22.747 29.2502 22.6612 29.2565C22.4189 29.2745 22.2371 29.4855 22.2551 29.7277C22.2722 29.9589 22.4652 30.135 22.6933 30.135C22.7042 30.135 22.7152 30.1346 22.7263 30.1338C22.8141 30.1273 22.9019 30.1207 22.9887 30.1137C24.1715 30.0205 25.1227 29.0945 25.2505 27.9123C25.8247 22.6207 25.8247 17.2549 25.2505 11.9641C25.1227 10.7819 24.1714 9.85592 22.9882 9.76268ZM3.40378 10.6397C4.07515 10.5865 4.7525 10.5393 5.4285 10.4971C4.38597 11.5593 3.35898 12.6363 2.35369 13.7218C2.05044 13.0579 1.91068 12.4878 1.94822 12.0529C2.03372 11.2934 2.64462 10.6995 3.40378 10.6397ZM7.39052 19.7318C7.06967 19.4624 6.75381 19.1836 6.4454 18.8985C6.44645 18.8974 6.44733 18.8962 6.44839 18.8951C6.69475 18.6491 7.09536 18.649 7.34143 18.895C7.46083 19.0144 7.52657 19.1729 7.52657 19.3415C7.52651 19.4848 7.47866 19.6203 7.39052 19.7318ZM8.07432 20.2859C8.28925 20.0188 8.40619 19.6893 8.40619 19.3416C8.40619 18.938 8.2489 18.5585 7.96336 18.273C7.37462 17.6842 6.41613 17.6841 5.82652 18.273C5.82065 18.2788 5.81526 18.285 5.80945 18.291C5.54819 18.0327 5.29443 17.7708 5.05035 17.5071L5.01669 17.4705C4.97857 17.4293 4.94086 17.3884 4.90245 17.3458C4.40415 16.7972 3.95598 16.2519 3.56564 15.7206C5.0242 14.1314 6.52328 12.5653 8.02658 11.062C9.55363 9.53502 11.1417 8.01436 12.7519 6.53721C13.1932 6.88603 13.7351 7.07522 14.306 7.07522C14.977 7.07522 15.6078 6.81384 16.0821 6.33928C16.1024 6.31899 16.1224 6.29829 16.142 6.27724C17.5075 7.4489 18.7886 8.73023 19.9592 10.0949C19.9383 10.1144 19.9178 10.1342 19.8977 10.1544C19.4231 10.6289 19.1618 11.2598 19.1618 11.9308C19.1618 12.5026 19.3515 13.0451 19.6995 13.4848C18.2277 15.0897 16.707 16.6778 15.1744 18.2104C13.8243 19.5605 12.4216 20.9092 11.0019 22.2235C10.0962 21.7361 9.164 21.1254 8.22656 20.4045C8.17565 20.3653 8.12499 20.3256 8.07432 20.2859ZM21.4375 17.3275C20.8236 18.0043 20.1527 18.6651 19.4436 19.2918C19.0344 19.6535 18.6118 20.0041 18.1874 20.3336C16.5033 21.6421 14.8447 22.5887 13.3658 23.0896C16.8151 19.8461 20.1471 16.4091 23.2788 12.8629C23.7941 12.2802 23.8332 11.4038 23.3718 10.7791C23.3596 10.7625 23.3468 10.7462 23.3345 10.7296C23.893 10.9321 24.3069 11.4389 24.3751 12.0545C24.4724 13.2011 23.3473 15.2208 21.4375 17.3275Z" fill="#2B3B47"/>
<path d="M14.6818 17.7171C15.5785 16.8203 16.1065 15.6592 16.1684 14.4476C16.2312 13.219 15.8093 12.0859 14.9803 11.2569C13.2815 9.55811 10.3835 9.69205 8.52012 11.5554C7.62338 12.4522 7.09546 13.6133 7.03347 14.8249C6.97066 16.0535 7.39261 17.1866 8.22161 18.0156C9.01953 18.8136 10.0818 19.2071 11.1774 19.2071C12.4142 19.2071 13.6936 18.7052 14.6818 17.7171ZM7.91203 14.8698C7.96287 13.8761 8.39972 12.9199 9.14216 12.1774C10.6625 10.6571 13.0025 10.5231 14.3583 11.8789C15.009 12.5296 15.3399 13.4259 15.2899 14.4026C15.2391 15.3964 14.8022 16.3525 14.0598 17.095C13.2424 17.9124 12.1885 18.329 11.1777 18.329C10.3082 18.3289 9.47057 18.0205 8.84366 17.3936C8.19294 16.7429 7.86206 15.8466 7.91203 14.8698Z" fill="#2B3B47"/>
<path d="M16.3052 11.4411C16.6921 11.4411 17.0791 11.2938 17.3736 10.9993C17.9627 10.4102 17.9627 9.45157 17.3736 8.86243C16.7845 8.2734 15.8259 8.2734 15.2368 8.86243C14.6476 9.45151 14.6476 10.4101 15.2368 10.9993C15.5313 11.2938 15.9182 11.4411 16.3052 11.4411ZM15.8588 9.48453C15.9819 9.36143 16.1435 9.29992 16.3052 9.29992C16.4668 9.29992 16.6285 9.36143 16.7515 9.48447C16.9977 9.7306 16.9977 10.1311 16.7515 10.3773C16.5054 10.6234 16.1049 10.6234 15.8587 10.3773C15.6125 10.1311 15.6126 9.7306 15.8588 9.48453Z" fill="#2B3B47"/>
<path d="M12.789 14.6977C12.9503 14.9115 12.9365 15.3261 12.5929 15.6734C12.2634 16.0066 12.1346 16.1065 11.7449 16.2245C11.534 16.2884 11.3908 16.4939 11.4234 16.7118C11.4572 16.9384 11.6491 17.0894 11.8588 17.0894C11.9006 17.0894 11.9431 17.0834 11.9852 17.0708C12.4033 16.9455 12.6505 16.8059 12.897 16.596L12.9844 16.6835C13.0703 16.7694 13.1829 16.8124 13.2954 16.8124C13.4046 16.8124 13.5138 16.772 13.5986 16.6912C13.7781 16.5202 13.7684 16.2236 13.5931 16.0482L13.4937 15.9488C13.8977 15.3144 13.8227 14.6073 13.491 14.1677C13.0869 13.6323 12.3872 13.5271 11.7083 13.8997C11.313 14.1168 10.8663 14.3478 10.5505 14.4158C10.4557 14.436 10.3925 14.3796 10.3561 14.3285C10.2825 14.2256 10.2483 14.0418 10.373 13.8349C10.5248 13.5829 10.7103 13.4371 10.8602 13.3539C11.0194 13.2654 11.1109 13.091 11.0848 12.9108L11.0829 12.8972C11.0399 12.5992 10.7134 12.4355 10.4488 12.5791C10.3841 12.6142 10.3167 12.6552 10.2481 12.703L10.1876 12.6426C10.0174 12.4723 9.73764 12.455 9.56229 12.6201C9.38085 12.791 9.37762 13.0766 9.55256 13.2516L9.64363 13.3427C9.6356 13.3555 9.62739 13.3679 9.61947 13.381C9.33563 13.8522 9.34378 14.4248 9.64023 14.8399C9.89669 15.1989 10.3162 15.3657 10.7355 15.2758C11.0794 15.2018 11.4838 15.0265 12.1318 14.6709C12.3 14.5786 12.6091 14.4592 12.789 14.6977Z" fill="#2B3B47"/>
</g>
<defs>
<clipPath id="clip0_809_7594">
<rect width="30" height="30" fill="white" transform="translate(0.5 0.5)"/>
</clipPath>
</defs>
</svg>
