<svg width="283" height="91" viewBox="0 0 283 91" fill="none" xmlns="http://www.w3.org/2000/svg">
<path d="M51.0173 41.674C49.255 39.9254 46.3182 37.3024 43.0872 36.1367C39.8564 34.6795 36.0384 33.8052 32.514 33.8052C18.1223 33.8052 7.84262 45.1709 7.84262 59.1595C7.84262 75.7707 21.3531 84.222 32.8076 84.222C36.9196 84.222 41.0315 83.0563 44.2622 81.3076C47.7866 79.559 50.1362 77.2278 51.311 76.0621V84.5134C44.2622 89.4675 37.5068 90.3418 32.8076 90.3418C14.0104 90.3418 0.5 76.645 0.5 58.868C0.5 40.5082 14.3041 27.1025 32.8076 27.1025C36.6257 27.1025 43.6747 27.6854 51.0173 33.2224V41.674Z" fill="#67579C"/>
<path d="M61.8848 51.2911H68.6402V55.3709C69.5211 54.2051 72.1645 50.4168 77.1576 50.4168C79.2136 50.4168 81.2693 51.2911 83.0316 51.8739L79.8008 57.7023C78.3324 56.5366 76.8637 56.2452 75.9826 56.2452C73.3393 56.2452 71.577 57.4109 70.6959 58.5767C69.5211 60.0338 68.6402 62.6565 68.6402 68.7766V88.885H61.8848V51.2911Z" fill="#67579C"/>
<path d="M120.921 79.5594C119.746 81.5991 118.277 83.9306 116.221 85.6792C112.697 88.885 108.585 90.3422 103.592 90.3422C94.4872 90.3422 84.7949 84.8049 84.7949 70.5252C84.7949 59.1595 91.8437 50.4168 103.298 50.4168C110.935 50.4168 115.34 54.2051 117.69 57.4109C120.04 60.9081 121.508 66.4451 121.214 71.6906H91.2564C91.2564 79.5594 96.8368 84.5135 103.298 84.5135C106.235 84.5135 108.879 83.6392 111.228 81.8906C112.991 80.4337 114.459 78.3936 115.34 76.645L120.921 79.5594ZM114.459 66.1537C113.284 60.3253 108.879 56.2452 103.298 56.2452C97.7179 56.2452 93.0185 60.3253 92.1376 66.1537H114.459Z" fill="#67579C"/>
<path d="M160.571 22.4399H167.326V89.1764H160.571V83.9306C158.515 86.8449 154.109 90.3422 147.354 90.3422C137.662 90.3422 128.557 83.6392 128.557 70.2337C128.557 57.1195 137.368 50.4168 147.354 50.4168C154.697 50.4168 158.808 54.4966 160.571 56.828V22.4399ZM135.606 70.2337C135.606 78.3936 140.305 84.5135 148.235 84.5135C156.459 84.5135 160.864 77.8108 160.864 70.2337C160.864 60.3252 154.109 56.2452 148.235 56.2452C141.774 55.9537 135.606 60.9081 135.606 70.2337Z" fill="#67579C"/>
<path d="M182.303 32.0569C184.946 32.0569 187.002 34.097 187.002 36.7196C187.002 39.3425 184.946 41.3826 182.303 41.3826C179.659 41.3826 177.604 39.3425 177.604 36.7196C177.604 34.097 179.659 32.0569 182.303 32.0569ZM185.533 51.2911V89.4679H178.778V51.2911H185.533Z" fill="#67579C"/>
<path d="M204.919 57.1195V89.1764H198.164V57.1195H194.346V50.9996H198.458V37.3025H205.213V50.9996H211.968V57.1195H204.919Z" fill="#67579C"/>
<path d="M252.793 0C231.646 0 221.366 18.3598 224.303 37.8854C224.597 40.5083 226.947 47.211 229.003 52.1651C232.527 59.7424 236.933 67.3194 240.457 73.4392L266.597 28.5597H238.401V23.3141H240.457H272.765H274.527V25.354L272.765 28.2683L243.688 78.685C247.506 84.8049 250.737 88.5935 251.618 88.5935C254.261 88.5935 277.463 60.3252 281.87 37.3025C285.394 17.777 273.94 0 252.793 0Z" fill="#59C2A4"/>
</svg>
