<svg width="20" height="23" viewBox="0 0 20 23" fill="none" xmlns="http://www.w3.org/2000/svg">
<path d="M10 21.5C5.03 21.5 1 18.918 1 14.5V14.412C1 12.294 2.338 10.6 4.375 9.5C6.324 8.448 7.476 6.51 7.188 4.5L6.625 1.5L8.711 2.295C12.468 3.725 15.597 6.207 17.625 9.361C18.5167 10.7311 18.9941 12.3293 19 13.964V14.5C19 16.062 18.496 17.395 17.625 18.465" stroke="white" stroke-width="2" stroke-linecap="round" stroke-linejoin="round"/>
<path d="M10 21.5C8.343 21.5 7 20.067 7 18.3C7 16.9 8.016 15.779 8.91 14.752L10 13.5L11.09 14.752C11.984 15.78 13 16.9 13 18.3C13 20.067 11.657 21.5 10 21.5Z" stroke="white" stroke-width="2" stroke-linecap="round" stroke-linejoin="round"/>
</svg>
