<svg width="370" height="325" viewBox="0 0 370 325" fill="none" xmlns="http://www.w3.org/2000/svg">
<path d="M187.575 298.686C280.605 298.686 356.021 252.282 356.021 195.041C356.021 137.8 280.605 91.3968 187.575 91.3968C94.5448 91.3968 19.1289 137.8 19.1289 195.041C19.1289 252.282 94.5448 298.686 187.575 298.686Z" fill="#B8CBDA"/>
<path opacity="0.7" d="M187.575 298.686C280.605 298.686 356.021 252.282 356.021 195.041C356.021 137.8 280.605 91.3968 187.575 91.3968C94.5448 91.3968 19.1289 137.8 19.1289 195.041C19.1289 252.282 94.5448 298.686 187.575 298.686Z" fill="white"/>
<path opacity="0.15" d="M112.857 258.437C114.744 259.51 116.062 260.568 118.037 260.657C120.912 260.676 123.698 259.662 125.889 257.801C125.138 258.952 124.127 259.911 122.938 260.601C121.75 261.291 120.416 261.693 119.044 261.774C117.803 261.858 116.563 261.589 115.469 260.999C114.374 260.408 113.469 259.52 112.857 258.437Z" fill="black"/>
<path opacity="0.15" d="M113.153 261.471C114.029 262.145 115.034 262.632 116.106 262.901C117.178 263.169 118.294 263.214 119.384 263.032C119.384 263.032 118.43 263.891 116.091 263.499C113.753 263.106 113.153 261.471 113.153 261.471Z" fill="black"/>
<path opacity="0.15" d="M154.66 233.011C159.1 234.616 161.882 236.511 161.32 237.813C160.758 239.116 158.012 241.18 158.012 241.18C158.012 241.18 161.801 239.116 162.829 237.954C163.858 236.792 162.763 235.689 159.87 234.454C158.211 233.727 156.456 233.241 154.66 233.011Z" fill="black"/>
<path opacity="0.1" d="M125.104 264.897C131.624 262.677 138.683 257.986 144.737 254.811C151.128 251.452 157.347 247.774 163.37 243.792C165.146 242.623 167.033 241.202 167.44 239.116C167.765 237.451 167.136 236.748 165.775 235.763C163.037 233.782 160.006 232.241 156.791 231.198C155.346 230.602 153.803 230.278 152.24 230.243C150.442 230.324 148.659 230.576 146.875 230.828C144.655 231.146 142.435 232.308 140.452 233.255C138.276 234.291 136.167 235.475 134.058 236.614L120.169 244.259C115.137 247.034 112.391 248.499 106.434 252.354C105.258 253.094 102.105 255.048 102.053 256.446C102.002 257.845 103.075 259.044 104.162 259.954C109.949 264.764 118.037 267.28 125.104 264.897Z" fill="black"/>
<path d="M144.981 222.14C142.021 220.46 138.136 220.482 133.755 222.591C123.395 227.586 114.152 242.379 113.153 255.632C112.591 263.136 114.781 268.538 118.666 270.913C119.665 271.52 123.528 273.711 124.453 274.258C127.413 276.019 131.365 276.034 135.827 273.888C146.187 268.901 155.422 254.108 156.421 240.847C156.998 233.225 154.726 227.771 150.723 225.463L144.981 222.14Z" fill="#FAC600"/>
<path opacity="0.25" d="M144.981 222.14C142.021 220.46 138.136 220.482 133.755 222.591C123.395 227.586 114.152 242.379 113.153 255.632C112.591 263.136 114.781 268.538 118.666 270.913C119.665 271.52 123.528 273.711 124.453 274.258C127.413 276.019 131.365 276.034 135.827 273.888C146.187 268.901 155.422 254.108 156.421 240.847C156.998 233.225 154.726 227.771 150.723 225.463L144.981 222.14Z" fill="black"/>
<path opacity="0.1" d="M154.867 248.965L123.617 230.916C117.948 237.724 113.804 247.011 113.153 255.64C112.591 263.143 114.781 268.545 118.666 270.921C119.665 271.528 123.528 273.718 124.453 274.266C127.413 276.027 131.365 276.042 135.827 273.896C144.115 269.914 151.655 259.673 154.867 248.965Z" fill="black"/>
<path opacity="0.1" d="M114.885 246.967C113.978 249.782 113.397 252.692 113.153 255.64C112.591 263.143 114.781 268.545 118.666 270.921C119.665 271.528 123.528 273.718 124.453 274.266C127.413 276.027 131.365 276.042 135.827 273.896C139.921 271.769 143.504 268.776 146.327 265.127L114.885 246.967Z" fill="black"/>
<path d="M139.445 225.884C129.085 230.879 119.85 245.672 118.851 258.933C117.852 272.194 125.452 278.913 135.827 273.896C146.202 268.878 155.422 254.115 156.421 240.855C157.42 227.594 149.82 220.897 139.445 225.884Z" fill="#FAC600"/>
<path opacity="0.2" d="M139.445 225.884C129.085 230.879 119.85 245.672 118.851 258.933C117.852 272.194 125.452 278.913 135.827 273.896C146.202 268.878 155.422 254.115 156.421 240.855C157.42 227.594 149.82 220.897 139.445 225.884Z" fill="black"/>
<path d="M149.724 243.881C149.09 248.36 147.5 252.651 145.062 256.461C142.539 260.509 139.431 263.691 136.315 265.415C133.007 267.25 130.047 267.243 127.968 265.415C125.889 263.587 125.008 260.235 125.548 255.928C126.182 251.449 127.772 247.159 130.21 243.348C132.734 239.293 135.842 236.119 138.964 234.387C142.257 232.567 145.217 232.567 147.297 234.387C149.376 236.207 150.22 239.597 149.724 243.881Z" fill="#FAC600"/>
<path opacity="0.4" d="M149.724 243.881C149.09 248.36 147.5 252.651 145.062 256.461C142.539 260.509 139.431 263.691 136.315 265.415C133.007 267.25 130.047 267.243 127.968 265.415C125.889 263.587 125.008 260.235 125.548 255.928C126.182 251.449 127.772 247.159 130.21 243.348C132.734 239.293 135.842 236.119 138.964 234.387C142.257 232.567 145.217 232.567 147.297 234.387C149.376 236.207 150.22 239.597 149.724 243.881Z" fill="black"/>
<path d="M151.567 227.542C148.696 225.011 144.559 224.856 139.912 227.083C135.072 229.422 130.292 234.039 126.533 240.107C122.871 245.834 120.614 252.346 119.947 259.11C119.503 265.03 120.835 269.707 123.706 272.238C126.577 274.769 130.714 274.932 135.361 272.697C140.208 270.366 144.981 265.748 148.74 259.68C152.409 253.944 154.664 247.418 155.319 240.64C155.77 234.72 154.438 230.073 151.567 227.542ZM147.297 234.394C149.369 236.222 150.257 239.574 149.724 243.881C149.09 248.36 147.5 252.651 145.062 256.461C142.539 260.509 139.431 263.691 136.315 265.415C133.008 267.25 130.048 267.243 127.968 265.415C125.889 263.587 125.008 260.235 125.548 255.928C126.182 251.449 127.772 247.159 130.21 243.348C132.734 239.293 135.842 236.119 138.965 234.387C142.258 232.567 145.218 232.567 147.297 234.394Z" fill="#FAC600"/>
<path opacity="0.2" d="M145.349 254.079C149.952 245.646 150.233 236.925 145.975 234.6C141.717 232.276 134.533 237.228 129.929 245.662C125.325 254.095 125.045 262.816 129.303 265.141C133.561 267.465 140.745 262.513 145.349 254.079Z" fill="black"/>
<path d="M145.349 254.079C149.952 245.646 150.233 236.925 145.975 234.6C141.717 232.276 134.533 237.228 129.929 245.662C125.325 254.095 125.045 262.816 129.303 265.141C133.561 267.465 140.745 262.513 145.349 254.079Z" fill="#FAC600"/>
<path opacity="0.6" d="M145.349 254.079C149.952 245.646 150.233 236.925 145.975 234.6C141.717 232.276 134.533 237.228 129.929 245.662C125.325 254.095 125.045 262.816 129.303 265.141C133.561 267.465 140.745 262.513 145.349 254.079Z" fill="black"/>
<path d="M147.082 242.12C146.128 250.171 140.326 259.473 134.125 262.899C131.564 264.32 129.337 264.505 127.672 263.676C126.518 262.019 126.022 259.429 126.414 256.099C127.369 248.055 133.17 238.746 139.371 235.319C141.932 233.899 144.159 233.714 145.824 234.579C146.979 236.2 147.474 238.79 147.082 242.12Z" fill="#FAC600"/>
<path opacity="0.5" d="M147.082 242.12C146.128 250.171 140.326 259.473 134.125 262.899C131.564 264.32 129.337 264.505 127.672 263.676C126.518 262.019 126.022 259.429 126.414 256.099C127.369 248.055 133.17 238.746 139.371 235.319C141.932 233.899 144.159 233.714 145.824 234.579C146.979 236.2 147.474 238.79 147.082 242.12Z" fill="black"/>
<path d="M143.76 243.311C143.271 242.956 142.058 242.342 141.473 241.987C141.227 241.818 140.935 241.728 140.637 241.728C140.338 241.728 140.047 241.818 139.801 241.987L140.326 240.381C139.538 239.993 138.777 239.552 138.047 239.064C137.756 239.034 137.462 239.072 137.189 239.175C136.588 239.427 136.054 239.815 135.627 240.307C134.625 241.431 133.783 242.689 133.126 244.044L131.883 243.378L129.966 247.685L130.225 247.87L131.106 248.528C130.364 250.112 129.932 251.822 129.833 253.568C129.833 253.694 129.833 253.805 129.833 253.916C129.781 255.159 130.048 256.091 130.691 256.557C131.172 256.905 132.66 257.675 132.971 257.867C133.585 258.311 134.251 258.134 134.932 257.586L134.488 258.955L136.774 260.272C138.165 260.22 139.779 258.541 141.481 255.314L142.628 256.143L144.566 251.799L143.405 251C144.044 249.444 144.458 247.804 144.633 246.131V246.094C144.707 244.769 144.433 243.8 143.76 243.311Z" fill="#FAC600"/>
<path d="M132.504 249.209L133.392 249.86C132.648 251.443 132.213 253.154 132.112 254.9C132.112 255.026 132.112 255.137 132.112 255.255C132.068 256.498 132.334 257.423 132.971 257.889C133.659 258.385 134.406 258.111 135.191 257.416C135.257 257.357 135.324 257.275 135.39 257.223L135.598 257.001C135.663 256.933 135.725 256.861 135.783 256.787C135.805 256.756 135.83 256.726 135.857 256.698C135.901 256.639 135.953 256.587 135.997 256.52C136.414 255.99 136.805 255.44 137.166 254.87C137.351 254.574 137.536 254.278 137.714 253.967C137.98 253.531 138.239 253.087 138.454 252.658C138.55 252.48 138.646 252.317 138.743 252.154C139.223 251.253 139.764 250.385 140.363 249.557C140.622 249.231 140.837 249.046 141.022 249.017C141.123 249.001 141.226 249.025 141.31 249.083C141.651 249.335 141.651 250.208 140.844 252.043C140.038 253.879 139.187 254.818 138.572 254.715L136.737 260.346C138.128 260.294 139.742 258.615 141.444 255.388L142.591 256.217L144.529 251.873L143.405 251C144.044 249.444 144.458 247.804 144.633 246.131V246.094C144.707 244.769 144.433 243.8 143.76 243.311C142.28 242.209 140.519 244.614 138.891 247.352C137.411 249.92 136.241 252.347 135.509 251.792C135.057 251.451 135.272 250.312 135.908 248.921C136.922 246.656 137.884 246.175 138.38 246.301L140.326 240.381C140.035 240.356 139.743 240.394 139.468 240.492C138.867 240.745 138.333 241.132 137.906 241.624C136.874 242.809 136.003 244.125 135.316 245.539L134.169 244.695L132.245 249.002L132.504 249.209Z" fill="#FAC600"/>
<path d="M132.245 249.017L134.288 245.25L135.316 245.554L134.169 244.71L132.245 249.017Z" fill="#F5F5F5"/>
<path d="M139.801 240.862L138.38 246.323L140.326 240.403C140.035 240.378 139.743 240.416 139.468 240.514C138.867 240.767 138.333 241.154 137.906 241.646C137.536 242.046 137.195 242.472 136.885 242.919L136.9 242.86C137.644 241.918 138.655 241.222 139.801 240.862Z" fill="#F5F5F5"/>
<path d="M138.594 254.7L136.759 260.331L138.705 255.063C139.539 254.633 140.184 253.911 140.518 253.035C140.821 252.412 141.069 251.763 141.258 251.096C141.162 251.377 141.044 251.673 140.888 252.021C140.008 253.916 139.209 254.774 138.594 254.7Z" fill="#F5F5F5"/>
<path d="M141.466 255.344L142.546 255.914L144.551 251.829L142.613 256.173L141.466 255.344Z" fill="#F5F5F5"/>
<path opacity="0.3" d="M132.097 255.255C132.097 255.137 132.097 255.026 132.097 254.9C132.198 253.154 132.633 251.443 133.377 249.86L132.489 249.209L132.23 249.017L134.154 244.71L135.301 245.554C135.988 244.14 136.859 242.824 137.891 241.639C138.318 241.147 138.852 240.76 139.453 240.507C139.728 240.409 140.02 240.371 140.311 240.396L140.06 241.18L140.311 240.396C139.523 240.007 138.762 239.567 138.032 239.079C137.741 239.049 137.447 239.087 137.174 239.19C136.573 239.442 136.039 239.83 135.612 240.322C134.61 241.446 133.768 242.703 133.111 244.059L131.868 243.393L129.951 247.7L130.21 247.885L131.091 248.543C130.349 250.127 129.917 251.837 129.818 253.583C129.818 253.708 129.818 253.819 129.818 253.93C129.766 255.174 130.033 256.106 130.676 256.572C131.157 256.92 132.645 257.69 132.956 257.882C132.319 257.423 132.053 256.498 132.097 255.255Z" fill="black"/>
<path opacity="0.3" d="M140.866 251.999C141.673 250.186 141.673 249.32 141.332 249.039C141.248 248.981 141.145 248.957 141.044 248.972C140.859 248.972 140.644 249.187 140.385 249.513C139.786 250.34 139.245 251.208 138.765 252.11C138.668 252.273 138.572 252.436 138.476 252.613C138.224 253.042 137.965 253.486 137.736 253.923C137.558 254.234 137.373 254.53 137.188 254.826C136.826 255.395 136.436 255.946 136.019 256.476C135.975 256.543 135.923 256.594 135.879 256.654C135.852 256.682 135.827 256.711 135.805 256.742C135.747 256.817 135.685 256.889 135.62 256.957L135.412 257.179C135.346 257.231 135.279 257.312 135.213 257.371L134.976 257.564L134.532 258.933L136.818 260.25L138.654 254.619C139.209 254.774 140.008 253.916 140.866 251.999Z" fill="black"/>
<path opacity="0.3" d="M135.908 248.943C135.272 250.364 135.057 251.474 135.509 251.814C136.249 252.347 137.381 249.92 138.89 247.374C140.518 244.636 142.25 242.231 143.76 243.334C143.271 242.978 142.058 242.364 141.473 242.009C141.227 241.84 140.935 241.75 140.637 241.75C140.338 241.75 140.047 241.84 139.801 242.009L138.38 246.323C137.884 246.197 136.9 246.678 135.908 248.943Z" fill="black"/>
<path opacity="0.1" d="M135.908 248.943C135.272 250.364 135.057 251.474 135.509 251.814C136.249 252.347 137.381 249.92 138.89 247.374C140.518 244.636 142.25 242.231 143.76 243.334C143.271 242.978 142.058 242.364 141.473 242.009C141.227 241.84 140.935 241.75 140.637 241.75C140.338 241.75 140.047 241.84 139.801 242.009L138.38 246.323C137.884 246.197 136.9 246.678 135.908 248.943Z" fill="black"/>
<path opacity="0.4" d="M129.966 247.7L132.245 249.017L133.392 249.86L131.106 248.543L129.966 247.7Z" fill="black"/>
<path opacity="0.1" d="M132.112 254.9C132.213 253.154 132.648 251.443 133.392 249.86L131.106 248.543C130.364 250.127 129.932 251.837 129.833 253.583C129.833 253.708 129.833 253.819 129.833 253.93C129.781 255.174 130.048 256.106 130.691 256.572C131.172 256.92 132.66 257.69 132.971 257.882C132.334 257.416 132.068 256.491 132.112 255.248C132.105 255.137 132.105 255.026 132.112 254.9Z" fill="black"/>
<path opacity="0.1" d="M137.151 254.855C136.79 255.425 136.399 255.975 135.982 256.506C135.938 256.572 135.886 256.624 135.842 256.683C135.815 256.711 135.79 256.741 135.768 256.772C135.71 256.847 135.648 256.918 135.583 256.987L135.375 257.209C135.309 257.26 135.242 257.342 135.176 257.401L134.939 257.593L134.495 258.962L136.781 260.28L138.617 254.648L137.64 254.108L137.151 254.855Z" fill="black"/>
<path d="M135.19 272.268C142.391 269.034 148.74 259.688 148.74 259.688C144.958 265.756 140.208 270.373 135.361 272.704C130.713 274.924 126.577 274.776 123.706 272.245C123.706 272.238 127.864 275.561 135.19 272.268Z" fill="#F5F5F5"/>
<path d="M124.542 241.143C128.375 234.35 133.733 228.637 139.445 225.884C145.365 223.028 150.412 224.005 153.439 227.845C153.439 227.845 148.348 221.844 139.416 226.469C130.484 231.094 124.542 241.143 124.542 241.143Z" fill="#F5F5F5"/>
<path opacity="0.15" d="M56.0771 182.01C52.9543 184.837 52.0811 185.606 52.4733 186.664C52.8655 187.723 57.4165 190.32 57.4165 190.32C57.4165 190.32 53.2873 189.166 51.8517 188.056C50.4161 186.946 50.5123 186.043 51.8517 184.555C53.1911 183.068 56.0771 182.01 56.0771 182.01Z" fill="black"/>
<path opacity="0.15" d="M95.1863 161.712C99.4635 164.975 102.387 167.21 100.063 169.77C97.7393 172.331 89.1035 176.674 89.1035 176.674C89.1035 176.674 97.8503 174.025 101.58 170.858C105.31 167.691 100.884 164.59 95.1863 161.712Z" fill="black"/>
<path opacity="0.15" d="M50.3941 184.178C49.5431 185.384 49.1509 186.983 50.6087 188.366C50.6087 188.366 48.8845 187.797 48.8993 186.272C48.9361 185.821 49.0945 185.388 49.3577 185.019C49.6209 184.65 49.979 184.36 50.3941 184.178Z" fill="black"/>
<path opacity="0.1" d="M66.304 193.791C72.8308 191.571 79.883 186.886 85.9362 183.712C92.3298 180.352 98.5162 176.66 104.577 172.693C106.345 171.517 108.232 170.096 108.639 168.009C108.965 166.344 108.336 165.648 106.974 164.664C104.238 162.679 101.206 161.136 97.9908 160.091C96.5471 159.499 95.0073 159.175 93.4472 159.136C91.649 159.225 89.8582 159.469 88.0822 159.728C85.8622 160.047 83.6422 161.208 81.6516 162.156C79.4834 163.192 77.367 164.376 75.258 165.515L61.3756 173.159C56.3362 175.927 53.5982 177.392 47.6338 181.255C46.4646 181.995 43.3048 183.941 43.253 185.34C43.2012 186.738 44.2742 187.945 45.362 188.847C51.1488 193.657 59.237 196.181 66.304 193.791Z" fill="black"/>
<path d="M85.951 145.861C82.991 144.181 79.106 144.196 74.7178 146.312C64.3578 151.3 55.1226 166.092 54.1236 179.353C53.5538 186.857 55.7442 192.259 59.6366 194.627C60.6356 195.234 64.4984 197.424 65.416 197.972C68.376 199.74 72.335 199.755 76.7898 197.609C87.1498 192.614 96.3924 177.821 97.3914 164.568C97.9612 156.946 95.6968 151.492 91.6934 149.183C90.7388 148.636 86.9278 146.416 85.951 145.861Z" fill="#FAC600"/>
<path opacity="0.25" d="M85.951 145.861C82.991 144.181 79.106 144.196 74.7178 146.312C64.3578 151.3 55.1226 166.092 54.1236 179.353C53.5538 186.857 55.7442 192.259 59.6366 194.627C60.6356 195.234 64.4984 197.424 65.416 197.972C68.376 199.74 72.335 199.755 76.7898 197.609C87.1498 192.614 96.3924 177.821 97.3914 164.568C97.9612 156.946 95.6968 151.492 91.6934 149.183C90.7388 148.636 86.9278 146.416 85.951 145.861Z" fill="black"/>
<path opacity="0.1" d="M95.8374 172.671L64.5872 154.63C58.9114 161.46 54.76 170.717 54.1236 179.353C53.5538 186.857 55.7442 192.259 59.6366 194.627C60.6356 195.234 64.4984 197.424 65.416 197.972C68.376 199.74 72.335 199.755 76.7898 197.609C85.1 193.62 92.6258 183.386 95.8374 172.671Z" fill="black"/>
<path opacity="0.1" d="M55.8478 170.68C54.9467 173.497 54.3682 176.406 54.1236 179.353C53.5538 186.857 55.7442 192.259 59.6366 194.627C60.6356 195.234 64.4984 197.424 65.416 197.972C68.376 199.74 72.335 199.755 76.7898 197.609C80.8951 195.485 84.4885 192.493 87.32 188.84L55.8478 170.68Z" fill="black"/>
<path d="M80.4159 149.62C70.0559 154.608 60.8133 169.4 59.8143 182.661C58.8153 195.922 66.4151 202.641 76.7899 197.631C87.1647 192.621 96.3925 177.844 97.3915 164.59C98.3905 151.337 90.7907 144.603 80.4159 149.62Z" fill="#FAC600"/>
<path opacity="0.2" d="M80.4159 149.62C70.0559 154.608 60.8133 169.4 59.8143 182.661C58.8153 195.922 66.4151 202.641 76.7899 197.631C87.1647 192.621 96.3925 177.844 97.3915 164.59C98.3905 151.337 90.7907 144.603 80.4159 149.62Z" fill="black"/>
<path d="M90.6945 167.587C90.0555 172.066 88.4632 176.356 86.0251 180.167C83.5017 184.215 80.3937 187.397 77.2783 189.121C73.9779 190.949 71.0105 190.949 68.9385 189.121C66.8665 187.293 65.9785 183.941 66.5187 179.634C67.1466 175.155 68.7344 170.864 71.1733 167.054C73.6967 162.999 76.8047 159.825 79.9275 158.1C83.2279 156.273 86.1879 156.273 88.2599 158.1C90.3319 159.928 91.1977 163.303 90.6945 167.587Z" fill="#FAC600"/>
<path opacity="0.4" d="M90.6945 167.587C90.0555 172.066 88.4632 176.356 86.0251 180.167C83.5017 184.215 80.3937 187.397 77.2783 189.121C73.9779 190.949 71.0105 190.949 68.9385 189.121C66.8665 187.293 65.9785 183.941 66.5187 179.634C67.1466 175.155 68.7344 170.864 71.1733 167.054C73.6967 162.999 76.8047 159.825 79.9275 158.1C83.2279 156.273 86.1879 156.273 88.2599 158.1C90.3319 159.928 91.1977 163.303 90.6945 167.587Z" fill="black"/>
<path d="M92.4999 151.255C89.6361 148.725 85.4921 148.562 80.8449 150.797C76.0053 153.128 71.2249 157.753 67.4731 163.821C63.7213 169.889 61.4199 176.63 60.9167 182.816C60.4653 188.736 61.8047 193.421 64.6685 195.944C67.5323 198.467 71.6763 198.645 76.3235 196.403C81.1705 194.072 85.9435 189.454 89.7027 183.394C93.4619 177.333 95.8225 170.569 96.2887 164.383C96.7327 158.448 95.4081 153.786 92.4999 151.255ZM88.2301 158.1C90.3095 159.928 91.1901 163.28 90.6647 167.587C90.0257 172.066 88.4334 176.356 85.9953 180.167C83.4719 184.215 80.3639 187.397 77.2485 189.121C73.9481 190.949 70.9807 190.949 68.9087 189.121C66.8367 187.293 65.9487 183.941 66.4889 179.634C67.1168 175.155 68.7045 170.864 71.1435 167.054C73.6669 162.999 76.7749 159.825 79.8977 158.1C83.2277 156.28 86.1877 156.28 88.2597 158.1H88.2301Z" fill="#FAC600"/>
<path opacity="0.2" d="M86.3174 177.8C90.9212 169.366 91.2016 160.645 86.9436 158.321C82.6856 155.996 75.5016 160.949 70.8978 169.382C66.2939 177.816 66.0136 186.537 70.2716 188.861C74.5296 191.186 81.7136 186.233 86.3174 177.8Z" fill="black"/>
<path d="M86.3174 177.8C90.9212 169.366 91.2016 160.645 86.9436 158.321C82.6856 155.996 75.5016 160.949 70.8978 169.382C66.2939 177.816 66.0136 186.537 70.2716 188.861C74.5296 191.186 81.7136 186.233 86.3174 177.8Z" fill="#FAC600"/>
<path opacity="0.6" d="M86.3174 177.8C90.9212 169.366 91.2016 160.645 86.9436 158.321C82.6856 155.996 75.5016 160.949 70.8978 169.382C66.2939 177.816 66.0136 186.537 70.2716 188.861C74.5296 191.186 81.7136 186.233 86.3174 177.8Z" fill="black"/>
<path d="M88.06 165.826C87.1054 173.877 81.3038 183.179 75.11 186.613C72.5422 188.026 70.3148 188.218 68.6498 187.353C67.4954 185.702 66.9996 183.112 67.3918 179.782C68.3538 171.731 74.148 162.429 80.3492 158.996C82.9096 157.582 85.1444 157.39 86.8094 158.256C87.949 159.906 88.4448 162.496 88.06 165.826Z" fill="#FAC600"/>
<path opacity="0.5" d="M88.06 165.826C87.1054 173.877 81.3038 183.179 75.11 186.613C72.5422 188.026 70.3148 188.218 68.6498 187.353C67.4954 185.702 66.9996 183.112 67.3918 179.782C68.3538 171.731 74.148 162.429 80.3492 158.996C82.9096 157.582 85.1444 157.39 86.8094 158.256C87.949 159.906 88.4448 162.496 88.06 165.826Z" fill="black"/>
<path d="M84.7226 167.017C84.2342 166.662 83.028 166.048 82.4434 165.7C82.1971 165.532 81.9056 165.441 81.6072 165.441C81.3087 165.441 81.0172 165.532 80.771 165.7L81.2964 164.094C80.5068 163.705 79.7431 163.265 79.0098 162.777C78.7195 162.746 78.4259 162.782 78.1514 162.881C77.5542 163.139 77.0212 163.526 76.59 164.013C75.5902 165.126 74.7486 166.371 74.0888 167.713L72.853 167.047L70.929 171.354L71.188 171.546L72.076 172.197C71.3312 173.78 70.8966 175.491 70.7958 177.237C70.7958 177.363 70.7958 177.481 70.7958 177.592C70.7514 178.835 71.0178 179.768 71.6542 180.226C72.1352 180.567 73.63 181.336 73.9408 181.529C74.555 181.965 75.221 181.788 75.9018 181.248L75.4578 182.617L77.737 183.934C79.1356 183.882 80.7414 182.202 82.4434 178.968L83.5904 179.805L85.5292 175.461L84.36 174.713C85 173.155 85.4137 171.513 85.5884 169.837V169.8C85.6772 168.475 85.4034 167.513 84.7226 167.017Z" fill="#FAC600"/>
<path d="M73.4747 172.915L74.3553 173.566C73.6152 175.15 73.1832 176.86 73.0825 178.606C73.0825 178.739 73.0825 178.85 73.0825 178.961C73.0381 180.204 73.2971 181.137 73.9409 181.595C74.6217 182.084 75.3765 181.81 76.1609 181.114L76.3533 180.922L76.5679 180.7C76.6307 180.632 76.69 180.56 76.7455 180.485L76.8269 180.397L76.9675 180.226C77.3597 179.731 77.7519 179.153 78.1293 178.569C78.3143 178.28 78.4993 177.977 78.6843 177.666C78.9507 177.229 79.2097 176.785 79.4243 176.364L79.7203 175.853C80.2022 174.952 80.7436 174.085 81.3409 173.256C81.5925 172.937 81.8071 172.752 81.9995 172.723C82.0483 172.712 82.099 172.712 82.1477 172.724C82.1964 172.736 82.2418 172.758 82.2807 172.789C82.6285 173.041 82.6211 173.907 81.8219 175.712C80.9635 177.636 80.1643 178.487 79.5427 178.384L77.7001 184.015C79.0987 183.963 80.7045 182.284 82.4065 179.05L83.5535 179.886L85.4923 175.542L84.3601 174.713C85.0001 173.155 85.4138 171.513 85.5885 169.837V169.8C85.6625 168.475 85.3887 167.513 84.7079 167.017C83.2279 165.915 81.4667 168.32 79.8461 171.065C78.3661 173.626 77.1969 176.053 76.4643 175.505C76.0055 175.172 76.2275 174.062 76.8639 172.641C77.8703 170.37 78.8323 169.896 79.3355 170.014L81.2817 164.094C80.9914 164.062 80.6976 164.098 80.4233 164.198C79.8242 164.456 79.2907 164.846 78.8619 165.338C77.8285 166.52 76.9552 167.834 76.2645 169.245L75.1175 168.409L73.2009 172.708L73.4747 172.915Z" fill="#FAC600"/>
<path d="M73.2156 172.723L75.258 168.956L76.2792 169.26L75.1322 168.423L73.2156 172.723Z" fill="#F5F5F5"/>
<path d="M80.7709 164.568L79.3501 170.029L81.2963 164.109C81.006 164.077 80.7122 164.113 80.4379 164.213C79.8388 164.471 79.3053 164.861 78.8765 165.352C78.5022 165.756 78.1584 166.186 77.8479 166.64L77.8997 166.581C78.6332 165.637 79.6336 164.936 80.7709 164.568Z" fill="#F5F5F5"/>
<path d="M79.5574 178.376L77.7 184.015L79.6461 178.746C80.4793 178.317 81.1248 177.595 81.4592 176.719C81.763 176.093 82.0107 175.442 82.1992 174.773C82.103 175.054 81.9845 175.357 81.8365 175.698C80.9781 177.629 80.179 178.48 79.5574 178.376Z" fill="#F5F5F5"/>
<path d="M82.4287 179.05L83.5165 179.62L85.5145 175.542L83.5757 179.886L82.4287 179.05Z" fill="#F5F5F5"/>
<path opacity="0.3" d="M73.0677 178.961C73.0677 178.85 73.0677 178.739 73.0677 178.606C73.1684 176.86 73.6004 175.15 74.3405 173.566L73.4599 172.915L73.2009 172.723L75.1175 168.423L76.2645 169.26C76.9552 167.849 77.8285 166.535 78.8619 165.352C79.2907 164.861 79.8242 164.471 80.4233 164.213C80.6976 164.113 80.9914 164.077 81.2817 164.109L81.0227 164.886L81.2817 164.109C80.4922 163.719 79.7284 163.279 78.9951 162.792C78.7048 162.761 78.4113 162.796 78.1367 162.896C77.5396 163.154 77.0065 163.541 76.5753 164.028C75.5756 165.14 74.7339 166.385 74.0741 167.728L72.8383 167.062L70.9143 171.369L71.1733 171.561L72.0613 172.212C71.3166 173.795 70.882 175.505 70.7811 177.252C70.7811 177.377 70.7811 177.496 70.7811 177.607C70.7367 178.85 71.0031 179.782 71.6395 180.241C72.1205 180.582 73.6153 181.351 73.9261 181.544C73.2601 181.137 73.0233 180.204 73.0677 178.961Z" fill="black"/>
<path opacity="0.3" d="M81.8367 175.705C82.6359 173.899 82.6433 173.034 82.2955 172.782C82.2566 172.751 82.2112 172.728 82.1625 172.717C82.1138 172.705 82.0631 172.705 82.0143 172.715C81.8219 172.715 81.6073 172.93 81.3557 173.248C80.7584 174.077 80.217 174.945 79.7351 175.846L79.4391 176.356C79.1949 176.778 78.9359 177.222 78.6991 177.659C78.5141 177.969 78.3291 178.273 78.1441 178.561C77.7667 179.146 77.4041 179.723 76.9823 180.219L76.8417 180.389L76.7603 180.478C76.7048 180.553 76.6455 180.624 76.5827 180.693L76.3681 180.915L76.1757 181.107L75.9389 181.307L75.4949 182.676L77.7741 183.993L79.6093 178.354C80.1791 178.48 80.9783 177.629 81.8367 175.705Z" fill="black"/>
<path opacity="0.3" d="M76.8787 172.656C76.2423 174.077 76.0203 175.187 76.4791 175.52C77.2191 176.053 78.3513 173.626 79.8609 171.08C81.4815 168.335 83.2131 165.9 84.7227 167.032C84.2343 166.677 83.0281 166.063 82.4435 165.715C82.1972 165.546 81.9057 165.456 81.6073 165.456C81.3088 165.456 81.0173 165.546 80.7711 165.715L79.3503 170.029C78.8471 169.911 77.8851 170.384 76.8787 172.656Z" fill="black"/>
<path opacity="0.1" d="M76.8787 172.656C76.2423 174.077 76.0203 175.187 76.4791 175.52C77.2191 176.053 78.3513 173.626 79.8609 171.08C81.4815 168.335 83.2131 165.9 84.7227 167.032C84.2343 166.677 83.0281 166.063 82.4435 165.715C82.1972 165.546 81.9057 165.456 81.6073 165.456C81.3088 165.456 81.0173 165.546 80.7711 165.715L79.3503 170.029C78.8471 169.911 77.8851 170.384 76.8787 172.656Z" fill="black"/>
<path opacity="0.4" d="M70.929 171.406L73.2156 172.723L74.3552 173.566L72.076 172.249L70.929 171.406Z" fill="black"/>
<path opacity="0.1" d="M73.0824 178.606C73.1831 176.86 73.615 175.15 74.3552 173.566L72.076 172.249C71.3312 173.832 70.8966 175.542 70.7958 177.289C70.7958 177.414 70.7958 177.533 70.7958 177.644C70.7514 178.887 71.0178 179.819 71.6542 180.278C72.1352 180.619 73.63 181.388 73.9408 181.581C73.297 181.122 73.038 180.189 73.0824 178.946C73.0676 178.85 73.075 178.739 73.0824 178.606Z" fill="black"/>
<path opacity="0.1" d="M78.1145 178.561C77.7371 179.146 77.3745 179.723 76.9527 180.219L76.8121 180.389L76.7307 180.478C76.6752 180.553 76.6159 180.624 76.5531 180.693L76.3385 180.915L76.1461 181.107L75.9093 181.307L75.4653 182.676L77.7445 183.993L79.5797 178.354L78.5955 177.799C78.4401 178.073 78.2699 178.325 78.1145 178.561Z" fill="black"/>
<path d="M76.1609 195.981C83.3611 192.74 89.7029 183.401 89.7029 183.401C85.9215 189.462 81.1707 194.079 76.3237 196.41C71.6765 198.63 67.5473 198.49 64.6687 195.951C64.6687 195.944 68.8201 199.274 76.1609 195.981Z" fill="#F5F5F5"/>
<path d="M65.5122 164.849C69.3454 158.056 74.703 152.343 80.4158 149.598C86.3358 146.741 91.3826 147.711 94.4092 151.551C94.4092 151.551 89.3106 145.55 80.3492 150.182C71.3878 154.815 65.5122 164.849 65.5122 164.849Z" fill="#F5F5F5"/>
<path opacity="0.15" d="M102.542 165.108C104.296 166.588 105.598 168.867 103.94 170.414C103.94 170.414 105.894 169.363 105.694 168.061C105.494 166.758 102.542 165.108 102.542 165.108Z" fill="black"/>
<path opacity="0.1" d="M274.54 258.008C279.942 256.18 285.795 252.288 290.82 249.653C296.118 246.871 301.269 243.827 306.271 240.522C307.751 239.552 309.298 238.368 309.638 236.637C309.912 235.26 309.387 234.683 308.262 233.862C305.992 232.217 303.477 230.941 300.81 230.08C299.613 229.589 298.337 229.32 297.043 229.288C295.556 229.377 294.074 229.54 292.603 229.777C290.783 230.036 288.903 230.998 287.275 231.782C285.477 232.648 283.723 233.61 281.977 234.572L270.462 240.906C266.289 243.208 264.017 244.421 259.074 247.618C258.105 248.247 255.485 249.838 255.448 251.007C255.411 252.177 256.291 253.161 257.194 253.916C261.96 257.904 268.694 259.991 274.54 258.008Z" fill="black"/>
<path d="M293.92 227.557C290.96 225.87 287.075 225.892 282.687 228.001C272.327 232.996 263.092 247.788 262.093 261.049C261.523 268.553 263.714 273.947 267.606 276.323C268.605 276.93 272.468 279.12 273.385 279.668C276.345 281.429 280.304 281.444 284.759 279.305C295.119 274.31 304.362 259.517 305.361 246.257C305.931 238.635 303.666 233.188 299.663 230.872C298.708 230.324 294.897 228.112 293.92 227.557Z" fill="#FAC600"/>
<path opacity="0.25" d="M293.92 227.557C290.96 225.87 287.075 225.892 282.687 228.001C272.327 232.996 263.092 247.788 262.093 261.049C261.523 268.553 263.714 273.947 267.606 276.323C268.605 276.93 272.468 279.12 273.385 279.668C276.345 281.429 280.304 281.444 284.759 279.305C295.119 274.31 304.362 259.517 305.361 246.257C305.931 238.635 303.666 233.188 299.663 230.872C298.708 230.324 294.897 228.112 293.92 227.557Z" fill="black"/>
<path opacity="0.1" d="M303.807 254.367L272.557 236.326C266.881 243.126 262.744 252.413 262.093 261.049C261.523 268.553 263.714 273.947 267.606 276.323C268.605 276.93 272.468 279.12 273.385 279.668C276.345 281.429 280.304 281.444 284.759 279.305C293.04 275.316 300.595 265.06 303.807 254.367Z" fill="black"/>
<path opacity="0.1" d="M263.817 252.369C262.916 255.188 262.338 258.1 262.093 261.049C261.523 268.553 263.714 273.947 267.606 276.323C268.605 276.93 272.468 279.12 273.385 279.668C276.345 281.429 280.304 281.444 284.759 279.305C288.855 277.176 292.438 274.181 295.26 270.529L263.817 252.369Z" fill="black"/>
<path d="M288.385 231.294C278.025 236.281 268.783 251.074 267.784 264.335C266.785 277.596 274.384 284.315 284.759 279.305C295.134 274.295 304.362 259.517 305.361 246.257C306.36 232.996 298.76 226.299 288.385 231.294Z" fill="#FAC600"/>
<path opacity="0.2" d="M288.385 231.294C278.025 236.281 268.783 251.074 267.784 264.335C266.785 277.596 274.384 284.315 284.759 279.305C295.134 274.295 304.362 259.517 305.361 246.257C306.36 232.996 298.76 226.299 288.385 231.294Z" fill="black"/>
<path d="M298.664 249.283C298.027 253.763 296.435 258.053 293.995 261.863C291.471 265.911 288.363 269.093 285.248 270.825C281.947 272.652 278.98 272.645 276.908 270.825C274.836 269.004 273.948 265.645 274.488 261.338C275.116 256.858 276.704 252.567 279.143 248.758C281.666 244.703 284.774 241.528 287.897 239.796C291.197 237.976 294.157 237.976 296.229 239.796C298.301 241.617 299.167 244.999 298.664 249.283Z" fill="#FAC600"/>
<path opacity="0.4" d="M298.664 249.283C298.027 253.763 296.435 258.053 293.995 261.863C291.471 265.911 288.363 269.093 285.248 270.825C281.947 272.652 278.98 272.645 276.908 270.825C274.836 269.004 273.948 265.645 274.488 261.338C275.116 256.858 276.704 252.567 279.143 248.758C281.666 244.703 284.774 241.528 287.897 239.796C291.197 237.976 294.157 237.976 296.229 239.796C298.301 241.617 299.167 244.999 298.664 249.283Z" fill="black"/>
<path d="M300.499 232.944C297.635 230.421 293.491 230.258 288.844 232.485C284.004 234.824 279.224 239.449 275.472 245.509C271.72 251.57 269.352 258.326 268.886 264.512C268.435 270.432 269.774 275.109 272.638 277.64C275.502 280.171 279.646 280.334 284.293 278.099C289.14 275.768 293.913 271.15 297.672 265.082C301.431 259.014 303.792 252.265 304.258 246.072C304.702 240.144 303.4 235.46 300.499 232.944ZM296.229 239.796C298.309 241.624 299.189 244.976 298.664 249.283C298.027 253.763 296.434 258.053 293.994 261.863C291.471 265.911 288.363 269.093 285.248 270.825C281.947 272.652 278.98 272.645 276.908 270.825C274.836 269.004 273.948 265.645 274.488 261.338C275.116 256.858 276.704 252.567 279.143 248.758C281.666 244.703 284.774 241.528 287.897 239.796C291.197 237.969 294.157 237.969 296.229 239.796Z" fill="#FAC600"/>
<path opacity="0.2" d="M288.304 240.721C294.505 237.295 298.753 241.04 297.798 249.091C296.843 257.142 291.042 266.444 284.841 269.87C278.639 273.296 274.392 269.552 275.346 261.501C276.301 253.449 282.103 244.148 288.304 240.721Z" fill="black"/>
<path d="M288.304 240.721C294.505 237.295 298.753 241.04 297.798 249.091C296.843 257.142 291.042 266.444 284.841 269.87C278.639 273.296 274.392 269.552 275.346 261.501C276.301 253.449 282.103 244.148 288.304 240.721Z" fill="#FAC600"/>
<path opacity="0.6" d="M288.304 240.721C294.505 237.295 298.753 241.04 297.798 249.091C296.843 257.142 291.042 266.444 284.841 269.87C278.639 273.296 274.392 269.552 275.346 261.501C276.301 253.449 282.103 244.148 288.304 240.721Z" fill="black"/>
<path d="M296 247.522C295.045 255.573 289.244 264.875 283.05 268.301C280.482 269.722 278.255 269.907 276.59 269.078C275.435 267.421 274.94 264.831 275.332 261.501C276.294 253.457 282.088 244.148 288.289 240.721C290.849 239.301 293.084 239.116 294.749 239.981C295.918 241.602 296.414 244.192 296 247.522Z" fill="#FAC600"/>
<path opacity="0.5" d="M296 247.522C295.045 255.573 289.244 264.875 283.05 268.301C280.482 269.722 278.255 269.907 276.59 269.078C275.435 267.421 274.94 264.831 275.332 261.501C276.294 253.457 282.088 244.148 288.289 240.721C290.849 239.301 293.084 239.116 294.749 239.981C295.918 241.602 296.414 244.192 296 247.522Z" fill="black"/>
<path d="M292.692 248.713C292.204 248.358 290.997 247.744 290.413 247.396C290.167 247.228 289.875 247.137 289.577 247.137C289.278 247.137 288.987 247.228 288.74 247.396L289.266 245.79C288.476 245.398 287.712 244.956 286.979 244.466C286.688 244.441 286.396 244.479 286.121 244.577C285.52 244.83 284.986 245.217 284.559 245.709C283.557 246.833 282.715 248.091 282.058 249.446L280.822 248.78L278.898 253.087L279.157 253.279L280.045 253.93C279.301 255.513 278.866 257.224 278.765 258.97C278.765 259.096 278.765 259.207 278.765 259.325C278.721 260.568 278.987 261.493 279.624 261.959C280.105 262.307 281.599 263.077 281.91 263.269C282.524 263.706 283.19 263.528 283.871 262.988L283.427 264.35L285.706 265.667C287.105 265.622 288.711 263.935 290.413 260.709L291.56 261.538L293.499 257.201L292.352 256.365C292.992 254.809 293.406 253.169 293.58 251.496V251.459C293.647 250.171 293.373 249.209 292.692 248.713Z" fill="#FAC600"/>
<path d="M281.444 254.611L282.325 255.262C281.585 256.846 281.153 258.556 281.052 260.302C281.052 260.428 281.052 260.546 281.052 260.657C281.008 261.9 281.267 262.825 281.91 263.291C282.591 263.78 283.346 263.506 284.13 262.81L284.323 262.618L284.537 262.396C284.6 262.328 284.659 262.256 284.715 262.181L284.796 262.093L284.937 261.922C285.329 261.427 285.721 260.849 286.099 260.265C286.284 259.976 286.469 259.673 286.654 259.362C286.92 258.925 287.179 258.481 287.394 258.06L287.69 257.549C288.172 256.648 288.713 255.78 289.31 254.952C289.562 254.626 289.777 254.441 289.969 254.411C290.068 254.397 290.168 254.421 290.25 254.478C290.598 254.737 290.591 255.603 289.791 257.438C288.933 259.362 288.134 260.213 287.512 260.109L285.677 265.741C287.076 265.696 288.681 264.009 290.383 260.783L291.53 261.612L293.469 257.275L292.322 256.439C292.963 254.883 293.377 253.243 293.551 251.57V251.533C293.625 250.208 293.351 249.246 292.67 248.75C291.19 247.648 289.429 250.053 287.808 252.798C286.328 255.359 285.159 257.786 284.426 257.238C283.968 256.905 284.19 255.795 284.826 254.374C285.832 252.103 286.794 251.629 287.298 251.747L289.244 245.827C288.953 245.795 288.66 245.831 288.385 245.931C287.787 246.186 287.253 246.573 286.824 247.063C285.789 248.247 284.915 249.564 284.227 250.978L283.08 250.134L281.2 254.419L281.444 254.611Z" fill="#FAC600"/>
<path d="M281.185 254.419L283.227 250.652L284.249 250.956L283.102 250.112L281.185 254.419Z" fill="#F5F5F5"/>
<path d="M288.74 246.264L287.32 251.74L289.266 245.82C288.975 245.788 288.682 245.823 288.407 245.924C287.809 246.179 287.275 246.566 286.846 247.056C286.474 247.458 286.13 247.886 285.817 248.336C285.839 248.317 285.856 248.295 285.869 248.269C286.605 247.329 287.605 246.631 288.74 246.264Z" fill="#F5F5F5"/>
<path d="M287.527 260.072L285.692 265.704L287.638 260.442C288.471 260.013 289.116 259.291 289.451 258.415C289.755 257.789 290.002 257.138 290.191 256.469C290.095 256.75 289.976 257.046 289.828 257.394C288.948 259.325 288.148 260.176 287.527 260.072Z" fill="#F5F5F5"/>
<path d="M290.398 260.746L291.486 261.316L293.484 257.238L291.552 261.575L290.398 260.746Z" fill="#F5F5F5"/>
<path opacity="0.3" d="M281.037 260.657C281.037 260.546 281.037 260.428 281.037 260.302C281.138 258.556 281.57 256.846 282.31 255.262L281.429 254.611L281.17 254.419L283.087 250.112L284.234 250.956C284.922 249.541 285.796 248.225 286.831 247.041C287.26 246.551 287.794 246.164 288.393 245.909C288.667 245.809 288.961 245.773 289.251 245.805L288.992 246.545L289.251 245.805C288.461 245.413 287.697 244.971 286.964 244.481C286.674 244.456 286.381 244.494 286.106 244.592C285.506 244.844 284.971 245.232 284.545 245.724C283.542 246.848 282.7 248.105 282.043 249.461L280.808 248.795L278.884 253.102L279.143 253.294L280.031 253.945C279.286 255.528 278.851 257.238 278.75 258.985C278.75 259.11 278.75 259.221 278.75 259.34C278.706 260.583 278.972 261.508 279.609 261.974C280.09 262.322 281.585 263.092 281.895 263.284C281.252 262.84 280.993 261.9 281.037 260.657Z" fill="black"/>
<path opacity="0.3" d="M289.806 257.401C290.605 255.595 290.613 254.73 290.265 254.441C290.183 254.384 290.083 254.36 289.984 254.374C289.791 254.374 289.577 254.589 289.325 254.915C288.728 255.743 288.187 256.611 287.705 257.512L287.409 258.023C287.164 258.444 286.905 258.888 286.669 259.325C286.484 259.636 286.299 259.939 286.114 260.228C285.736 260.812 285.374 261.39 284.952 261.885L284.811 262.056L284.73 262.144C284.674 262.219 284.615 262.291 284.552 262.359L284.338 262.581L284.145 262.773L283.908 262.973L283.464 264.335L285.744 265.652L287.579 260.021C288.149 260.176 288.948 259.325 289.806 257.401Z" fill="black"/>
<path opacity="0.3" d="M284.848 254.352C284.212 255.773 283.99 256.883 284.449 257.216C285.189 257.749 286.321 255.322 287.83 252.776C289.451 250.031 291.183 247.596 292.692 248.728C292.204 248.373 290.998 247.759 290.413 247.411C290.167 247.242 289.875 247.152 289.577 247.152C289.278 247.152 288.987 247.242 288.741 247.411L287.32 251.74C286.817 251.607 285.855 252.08 284.848 254.352Z" fill="black"/>
<path opacity="0.1" d="M284.848 254.352C284.212 255.773 283.99 256.883 284.449 257.216C285.189 257.749 286.321 255.322 287.83 252.776C289.451 250.031 291.183 247.596 292.692 248.728C292.204 248.373 290.998 247.759 290.413 247.411C290.167 247.242 289.875 247.152 289.577 247.152C289.278 247.152 288.987 247.242 288.741 247.411L287.32 251.74C286.817 251.607 285.855 252.08 284.848 254.352Z" fill="black"/>
<path opacity="0.4" d="M278.898 253.102L281.185 254.419L282.325 255.262L280.045 253.945L278.898 253.102Z" fill="black"/>
<path opacity="0.1" d="M281.052 260.302C281.153 258.556 281.584 256.846 282.325 255.262L280.045 253.96C279.301 255.543 278.866 257.253 278.765 258.999C278.765 259.125 278.765 259.236 278.765 259.355C278.721 260.598 278.987 261.523 279.624 261.989C280.105 262.337 281.599 263.106 281.91 263.299C281.266 262.833 281.007 261.908 281.052 260.664C281.037 260.546 281.044 260.428 281.052 260.302Z" fill="black"/>
<path opacity="0.1" d="M286.084 260.257C285.706 260.842 285.344 261.419 284.922 261.915L284.781 262.085L284.7 262.174C284.644 262.249 284.585 262.32 284.522 262.389L284.308 262.611L284.115 262.803L283.879 263.003L283.435 264.364L285.714 265.682L287.549 260.05L286.565 259.488C286.38 259.769 286.239 260.013 286.084 260.257Z" fill="black"/>
<path d="M284.16 277.677C291.36 274.436 297.702 265.097 297.702 265.097C293.92 271.165 289.17 275.783 284.323 278.114C279.675 280.334 275.546 280.186 272.668 277.655C272.638 277.64 276.804 280.97 284.16 277.677Z" fill="#F5F5F5"/>
<path d="M273.482 246.56C277.315 239.767 282.672 234.054 288.385 231.309C294.305 228.452 299.352 229.422 302.379 233.262C302.379 233.262 297.28 227.261 288.319 231.886C279.357 236.511 273.482 246.56 273.482 246.56Z" fill="#F5F5F5"/>
<path opacity="0.15" d="M263.884 249.476C261.849 250.793 261.442 251.363 263.632 252.976C265.98 254.498 268.417 255.879 270.929 257.112C270.929 257.112 265.749 255.973 262.507 253.642C259.266 251.311 260.842 250.356 263.884 249.476Z" fill="black"/>
<path opacity="0.1" d="M207.104 247.256C204.092 249.52 200.555 251.318 196.788 251.377C198.373 253.382 200.29 255.099 202.456 256.454C204.646 257.81 207.235 258.371 209.79 258.045C212.75 257.571 215.244 255.655 217.256 253.464C219.269 251.274 220.957 248.765 222.955 246.597C224.701 244.725 227.017 243.015 229.563 243.26C227.839 241.767 225.944 240.485 223.916 239.441C221.082 238.109 218.137 237.998 215.614 240.011C212.713 242.327 210.078 245.013 207.104 247.256Z" fill="black"/>
<path d="M229.4 240.181C215.88 243.334 220.586 252.561 207.067 255.721L197.343 248.743C209.708 248.003 206.867 237.643 219.158 236.526L229.4 240.181Z" fill="#36C27F"/>
<path opacity="0.3" d="M223.606 240.773C216.909 244.636 216.849 249.823 210.152 253.686C209.3 253.435 208.402 253.38 207.525 253.523L202.345 249.964C202.609 249.871 202.826 249.681 202.952 249.431C202.994 249.329 203.006 249.218 202.988 249.109C202.969 249.001 202.921 248.9 202.849 248.817C211.063 245.946 208.376 240.788 216.59 237.917C217.002 238.096 217.447 238.189 217.897 238.189C218.346 238.189 218.791 238.096 219.203 237.917L224.161 239.811C223.902 239.89 223.677 240.054 223.524 240.277C223.478 240.353 223.46 240.442 223.475 240.53C223.49 240.617 223.537 240.696 223.606 240.751V240.773ZM224.568 240.714C223.961 240.477 224.19 240.011 225.256 239.767L219.24 237.547C218.872 237.749 218.464 237.865 218.045 237.888C217.626 237.911 217.207 237.84 216.82 237.68C207.777 240.418 210.966 245.998 201.924 248.736C202.53 249.143 202.323 249.705 201.302 249.905L207.2 253.96C208.155 253.687 209.177 253.765 210.078 254.182C217.515 250.223 217.16 244.703 224.605 240.744L224.568 240.714Z" fill="black"/>
<g opacity="0.3">
<path opacity="0.3" d="M210.249 243.696C210.86 242.982 211.687 242.485 212.606 242.281C213.524 242.077 214.483 242.176 215.34 242.564C216.975 243.304 217.316 245.243 216.25 246.878C215.7 247.664 214.876 248.216 213.94 248.427C213.004 248.638 212.023 248.492 211.189 248.018C210.81 247.827 210.48 247.554 210.221 247.218C209.961 246.883 209.78 246.495 209.69 246.081C209.6 245.667 209.603 245.238 209.7 244.825C209.797 244.413 209.984 244.027 210.249 243.696ZM215.658 246.575C215.873 246.307 216.026 245.994 216.106 245.66C216.185 245.326 216.19 244.978 216.119 244.642C216.049 244.306 215.904 243.99 215.696 243.716C215.489 243.443 215.223 243.218 214.918 243.06C214.229 242.749 213.457 242.673 212.721 242.842C211.985 243.012 211.324 243.419 210.841 244C210.628 244.27 210.479 244.585 210.403 244.921C210.326 245.256 210.325 245.604 210.399 245.941C210.474 246.277 210.621 246.592 210.832 246.864C211.043 247.136 211.311 247.358 211.618 247.515C212.29 247.882 213.075 247.987 213.821 247.811C214.566 247.635 215.221 247.189 215.658 246.56V246.575Z" fill="black"/>
</g>
<path opacity="0.1" d="M124.12 185.288H124.031C124.187 187.316 124.438 189.624 125.511 191.393C126.29 192.991 127.461 194.366 128.915 195.389C130.812 196.634 133.084 197.176 135.338 196.921C138.55 196.595 141.429 194.878 144.389 193.591C148.614 191.756 153.343 190.757 157.842 191.733C156.177 186.59 150.656 184.333 145.676 184.171C144.122 184.119 142.479 184.622 140.925 184.844C139.179 185.096 137.418 185.281 135.657 185.406C132.131 185.662 128.592 185.662 125.067 185.406L124.12 185.288Z" fill="black"/>
<path d="M157.834 189.084C144.514 185.281 144.122 195.626 130.773 191.822L125.652 180.996C136.833 186.331 139.371 175.927 150.664 180.915L157.834 189.084Z" fill="#36C27F"/>
<path opacity="0.3" d="M152.484 186.798C144.759 186.916 142.065 191.171 134.332 191.297C133.707 190.664 132.948 190.179 132.112 189.876C130.987 187.656 130.551 186.753 129.433 184.504C129.709 184.549 129.992 184.489 130.225 184.333C130.31 184.265 130.375 184.174 130.411 184.07C130.448 183.967 130.455 183.856 130.432 183.749C139.009 185.229 139.164 179.412 147.741 180.892C148.01 181.251 148.35 181.55 148.739 181.772C149.129 181.993 149.56 182.132 150.005 182.18L153.424 186.243C153.159 186.187 152.883 186.221 152.64 186.339C152.563 186.384 152.504 186.454 152.474 186.538C152.445 186.622 152.446 186.714 152.477 186.798H152.484ZM153.335 187.227C152.928 186.724 153.335 186.428 154.401 186.731L150.235 181.847C149.813 181.838 149.399 181.735 149.023 181.546C148.646 181.356 148.317 181.085 148.059 180.752C138.824 178.754 138.905 185.192 129.67 183.186C129.996 183.838 129.544 184.23 128.553 183.926C129.818 186.494 130.321 187.53 131.579 190.098C132.545 190.33 133.399 190.893 133.992 191.689C142.413 191.844 144.914 187.101 153.335 187.249V187.227Z" fill="black"/>
<g opacity="0.3">
<path opacity="0.3" d="M139.623 182.92C140.492 182.627 141.427 182.596 142.313 182.832C143.199 183.067 143.995 183.559 144.603 184.245C145.647 185.577 145.025 187.205 143.301 188.056C142.445 188.439 141.483 188.517 140.576 188.276C139.67 188.035 138.873 187.489 138.321 186.731C138.091 186.411 137.941 186.04 137.883 185.651C137.825 185.261 137.862 184.863 137.989 184.49C138.117 184.117 138.332 183.78 138.616 183.507C138.9 183.234 139.245 183.032 139.623 182.92ZM142.953 187.567C144.344 186.909 144.833 185.547 143.989 184.452C143.501 183.896 142.856 183.499 142.14 183.313C141.424 183.127 140.668 183.161 139.971 183.408C139.664 183.504 139.385 183.67 139.156 183.895C138.927 184.12 138.755 184.396 138.653 184.7C138.552 185.005 138.525 185.329 138.574 185.646C138.623 185.963 138.747 186.264 138.935 186.524C139.386 187.129 140.03 187.562 140.761 187.75C141.492 187.939 142.266 187.872 142.953 187.56V187.567Z" fill="black"/>
</g>
<path opacity="0.1" d="M310.193 166.736C306.175 168.438 302.482 169.866 297.99 169.267C299.263 169.437 300.469 171.798 301.15 172.752C303.267 175.749 306.019 178.465 309.912 178.584C312.401 178.57 314.847 177.929 317.023 176.719C319.243 175.587 321.271 174.158 323.402 172.893C326.362 171.132 330.166 169.252 333.666 170.673C333.355 170.547 332.748 168.912 332.526 168.571C332.033 167.823 331.468 167.124 330.839 166.485C329.634 165.244 328.221 164.222 326.665 163.465C325.289 162.799 323.602 162.022 322.04 162.067C320.338 162.111 318.562 163.014 317.023 163.665C314.722 164.627 312.494 165.759 310.193 166.736Z" fill="black"/>
<path d="M333.651 166.44C319.073 165.767 322.921 176.763 308.343 176.06C304.68 171.857 302.852 169.755 299.197 165.545C312.199 167.158 310.519 157.686 323.528 159.292L333.651 166.44Z" fill="#36C27F"/>
<g opacity="0.3">
<path opacity="0.3" d="M327.983 165.523C320.353 167.417 318.363 173.367 310.903 174.506C310.138 174.021 309.286 173.687 308.395 173.522C306.663 171.406 305.339 170.155 303.607 168.039C303.865 168.003 304.099 167.868 304.258 167.661C304.319 167.565 304.356 167.456 304.367 167.343C304.379 167.23 304.364 167.116 304.325 167.01C313.116 166.625 312.272 160.646 321.064 160.261C321.865 160.62 322.712 160.869 323.58 161.001C325.467 162.481 326.813 163.184 328.7 164.701C328.45 164.722 328.214 164.829 328.034 165.005C327.978 165.076 327.943 165.162 327.933 165.252C327.924 165.343 327.941 165.434 327.983 165.515V165.523ZM329.263 165.885C328.7 165.434 329.033 165.012 330.166 165.108C327.909 163.34 326.384 162.533 324.12 160.764C323.104 160.679 322.122 160.354 321.256 159.817C311.444 159.684 312.924 166.551 303.111 166.418C303.637 167.054 303.304 167.58 302.216 167.447C304.258 169.97 305.731 171.428 307.773 173.944C308.841 173.997 309.856 174.421 310.644 175.143C319.465 174.351 320.62 167.624 329.263 165.885Z" fill="black"/>
</g>
<g opacity="0.3">
<path opacity="0.3" d="M318.518 168.993C317.423 170.111 315.417 169.948 314.13 168.697C312.842 167.447 312.739 165.693 313.841 164.716C314.944 163.739 316.942 163.909 318.229 165.019C318.527 165.249 318.773 165.539 318.951 165.87C319.13 166.201 319.236 166.567 319.263 166.942C319.29 167.317 319.238 167.693 319.11 168.047C318.981 168.401 318.78 168.723 318.518 168.993ZM319.058 169.496C319.385 169.169 319.638 168.777 319.801 168.344C319.965 167.912 320.034 167.449 320.004 166.988C319.975 166.527 319.848 166.077 319.631 165.668C319.414 165.26 319.113 164.903 318.747 164.62C317.164 163.273 314.655 163.044 313.294 164.22C311.932 165.397 312.013 167.528 313.604 169.089C315.195 170.651 317.711 170.895 319.058 169.496Z" fill="black"/>
</g>
<path opacity="0.15" d="M218.677 170C218.677 170 213.371 173.367 215.458 179.116C215.458 179.116 212.099 176.304 213.889 172.819C214.357 171.959 215.05 171.243 215.893 170.747C216.736 170.25 217.699 169.992 218.677 170Z" fill="black"/>
<path opacity="0.15" d="M276.02 181.248C276.02 181.248 277.441 187.523 270.455 189.225C270.455 189.225 275.05 189.306 276.834 186.494C278.24 184.319 276.02 181.248 276.02 181.248Z" fill="black"/>
<path opacity="0.15" d="M248.692 166.092C248.692 166.092 267.724 163.643 278.743 172.789C289.762 181.936 284.345 189.38 284.345 189.38C284.345 189.38 292.981 179.686 280.785 171.065C264.306 159.418 248.692 166.092 248.692 166.092Z" fill="black"/>
<path opacity="0.15" d="M208.132 178.029C208.132 178.029 203.367 187.145 217.856 193.694C231.035 199.659 246.094 196.233 246.094 196.233C246.094 196.233 234.254 203.033 217.36 195.929C200.814 188.981 208.132 178.029 208.132 178.029Z" fill="black"/>
<path d="M211.277 63.151C213.564 57.971 213.009 55.3514 206.038 57.194C201.665 58.3484 198.15 61.4564 197.498 71.994C197.306 75.0132 197.424 78.506 197.498 85.573C197.536 93.2614 198.074 100.939 199.112 108.557C199.445 111.577 200.331 114.509 201.724 117.208C209.671 132.326 220.794 142.42 226.144 152.173C232.87 151.722 242.217 140.644 237.244 133.71C231.524 131.29 215.747 113.885 213.564 105.59C212.55 101.764 211.462 97.9458 210.545 94.0904C210.027 91.9074 209.553 89.7096 209.183 87.4896C208.813 85.2696 208.11 82.9904 208.983 80.9258C209.572 79.7337 210.255 78.5905 211.026 77.507C211.845 76.2561 212.514 74.9122 213.016 73.5036C213.4 72.1577 213.857 70.8336 214.385 69.5372C214.644 68.9526 214.925 68.368 215.229 67.7982C215.466 67.3542 215.821 66.851 215.584 66.3182C215.162 65.3414 213.29 66 212.691 66.481C211.739 67.3823 210.932 68.4258 210.3 69.5742C210.138 69.811 209.864 70.0774 209.605 69.9442C209.346 69.811 209.39 69.5372 209.42 69.3004C209.561 68.1721 209.834 67.0643 210.234 66C210.604 65.0602 210.855 64.0908 211.277 63.151Z" fill="#FFA8A7"/>
<path d="M210.811 95.3262C210.811 95.3262 213.305 103.94 214.215 106.678C215.125 109.416 220.364 117.4 228.66 126.162C234.979 132.822 238.628 133.355 238.628 133.355L226.048 154.941C225.737 151.366 213.586 136.552 208.362 129.211C203.137 121.87 199.659 115.632 198.786 109.971C198.192 105.647 197.876 101.289 197.839 96.9246C197.839 96.9246 204.787 98.4268 210.811 95.3262Z" fill="#F5F5F5"/>
<path d="M252.34 134.08C258.408 135.005 265.349 135.486 269.604 136.071C274.251 136.7 275.909 140.511 275.909 148.451C275.909 160.158 269.922 179.671 269.922 179.671C269.922 185.295 229.615 189.143 225.937 177.044C225.937 177.044 225.744 159.765 226.122 153.076C226.78 141.302 233.588 133.769 237.962 133.436C237.91 133.466 241.884 132.526 252.34 134.08Z" fill="white"/>
<path d="M264.32 99.559C264.32 99.559 267.495 100.662 268.205 103.363C268.82 105.708 267.414 110.763 264.905 116.15C262.396 121.537 260.413 124.63 259.288 126.029C258.551 126.873 257.518 127.403 256.402 127.509L257.882 120.849L259.044 116.246C259.044 116.246 256.876 111.569 257.209 108.165C257.646 103.777 258.896 102.201 258.896 102.201L264.32 99.559Z" fill="#263238"/>
<path d="M264.92 100.528L269.937 99.3444C269.786 98.6439 269.367 98.0301 268.77 97.6335C268.173 97.2369 267.445 97.0888 266.74 97.2206C266.401 97.3141 266.084 97.4746 265.808 97.6926C265.531 97.9107 265.302 98.1819 265.132 98.4903C264.962 98.7986 264.856 99.1378 264.82 99.4879C264.783 99.8379 264.817 100.192 264.92 100.528Z" fill="#263238"/>
<path d="M257.764 104.976C257.265 107.44 256.046 109.701 254.262 111.473C252.478 113.244 250.208 114.447 247.741 114.929C245.273 115.411 242.718 115.15 240.398 114.18C238.079 113.21 236.099 111.573 234.709 109.478C233.319 107.383 232.582 104.922 232.591 102.408C232.599 99.8936 233.353 97.4383 234.757 95.3525C236.161 93.2667 238.152 91.644 240.478 90.6896C242.805 89.7352 245.362 89.492 247.826 89.9908C249.463 90.3211 251.019 90.9709 252.404 91.903C253.79 92.8351 254.978 94.0313 255.901 95.423C256.825 96.8148 257.464 98.3749 257.784 100.014C258.103 101.653 258.097 103.339 257.764 104.976Z" fill="#263238"/>
<path d="M259.037 115.499C259.962 116.697 261.375 114.359 262.515 113.56C263.654 112.761 266.999 112.043 267.88 115.587C268.76 119.132 264.92 123.195 262.411 123.683C259.318 124.282 257.771 121.463 257.771 121.463L257.653 134.243C252.836 139.926 245.887 142.294 244.192 144.995C244.044 142.272 238.864 136.063 241.869 133.74L241.98 128.16C241.98 128.16 238.087 127.968 236.304 127.316C233.344 126.221 232.19 123.616 231.931 120.087C231.516 114.455 232.708 105.368 236.822 95.4224C240.781 93.4466 252.599 96.2586 258.889 102.26C256.558 111.31 258.104 114.3 259.037 115.499Z" fill="#FFA8A7"/>
<path d="M236.593 87.7116C236.65 87.6285 236.728 87.5617 236.819 87.5176C236.909 87.4735 237.01 87.4537 237.111 87.46C237.262 87.5063 237.394 87.5996 237.488 87.7264C238.213 88.5819 239.005 89.3786 239.856 90.1092C239.845 88.8304 240.081 87.5615 240.552 86.3722C240.833 85.6322 241.395 83.9376 242.372 83.9376C242.949 83.9376 243.341 84.5 243.682 84.9662C246.731 89.2212 251.94 88.57 256.432 89.6134C260.176 90.4866 264.431 92.9286 265.401 96.9394C265.852 98.7746 265.63 100.573 263.862 101.424C262.297 102.075 260.602 102.351 258.911 102.23C251.134 102.038 239.738 102.97 235.571 94.8304C234.964 93.6218 234.811 92.2349 235.142 90.9232C235.365 89.7606 235.851 88.6644 236.563 87.719L236.593 87.7116Z" fill="#263238"/>
<path d="M241.98 128.16C241.98 128.16 249.091 128.16 251.74 127.383C253.295 126.935 254.678 126.027 255.707 124.778C255.063 126.104 254.16 127.286 253.05 128.256C250.83 130.136 241.95 129.988 241.95 129.988L241.98 128.16Z" fill="#F28F8F"/>
<path d="M247.086 110.962C247.043 111.233 247.081 111.51 247.195 111.76C247.309 112.009 247.493 112.219 247.726 112.365C247.958 112.51 248.228 112.584 248.502 112.577C248.776 112.571 249.042 112.483 249.267 112.327C249.492 112.17 249.666 111.951 249.767 111.696C249.868 111.442 249.893 111.163 249.837 110.895C249.781 110.626 249.648 110.38 249.453 110.187C249.259 109.994 249.012 109.862 248.743 109.808C248.371 109.743 247.988 109.828 247.677 110.044C247.367 110.261 247.154 110.59 247.086 110.962Z" fill="#263238"/>
<path d="M252.814 108.18L250.594 105.583C250.251 105.894 250.041 106.325 250.008 106.787C249.974 107.248 250.121 107.705 250.416 108.062C250.563 108.231 250.743 108.368 250.945 108.466C251.146 108.564 251.366 108.62 251.59 108.631C251.813 108.642 252.037 108.608 252.248 108.531C252.458 108.453 252.65 108.334 252.814 108.18Z" fill="#263238"/>
<path d="M239.02 102.697L235.808 103.932C235.878 104.145 235.991 104.342 236.14 104.51C236.288 104.678 236.47 104.814 236.672 104.91C236.875 105.005 237.096 105.058 237.32 105.066C237.544 105.073 237.767 105.035 237.976 104.954C238.407 104.784 238.757 104.455 238.951 104.035C239.145 103.614 239.17 103.135 239.02 102.697Z" fill="#263238"/>
<path d="M235.86 108.254C235.819 108.436 235.814 108.625 235.846 108.809C235.878 108.993 235.946 109.169 236.047 109.327C236.147 109.484 236.278 109.62 236.431 109.727C236.585 109.834 236.758 109.909 236.94 109.949C237.228 110.024 237.532 110.011 237.813 109.911C238.093 109.812 238.337 109.63 238.512 109.389C238.688 109.149 238.786 108.861 238.796 108.563C238.805 108.266 238.724 107.973 238.564 107.722C238.404 107.471 238.172 107.274 237.899 107.157C237.625 107.039 237.323 107.008 237.031 107.065C236.739 107.123 236.471 107.267 236.262 107.479C236.053 107.691 235.913 107.961 235.86 108.254Z" fill="#263238"/>
<path d="M242.713 109.268L240.7 117.001L236.696 114.662L242.713 109.268Z" fill="#F28F8F"/>
<path d="M243.097 121.959C245.502 121.589 246.309 121.959 246.057 120.938C245.765 120.193 245.222 119.573 244.523 119.184C243.824 118.795 243.011 118.662 242.224 118.806C241.53 118.941 240.91 119.326 240.481 119.888C240.052 120.45 239.846 121.15 239.9 121.855C240.041 122.98 240.936 122.299 243.097 121.959Z" fill="#B16668"/>
<path d="M243.097 121.959C245.162 121.641 246.057 121.87 246.057 121.285C246.056 121.168 246.041 121.051 246.013 120.938C245.978 120.813 245.931 120.691 245.872 120.575C245.835 120.516 245.798 120.449 245.754 120.39C245.724 120.337 245.692 120.285 245.658 120.235C245.122 120.106 244.557 120.168 244.062 120.409C243.566 120.651 243.17 121.058 242.942 121.559C242.88 121.707 242.836 121.861 242.809 122.018L243.097 121.959Z" fill="#F28F8F"/>
<path d="M251.407 142.916C247.263 147.015 245.894 147.8 244.044 147.896C242.194 147.992 239.035 143.604 239.242 141.236L238.087 143.093C238.087 143.093 239.175 149.435 243.512 150.308C247.848 151.181 253.583 144.144 253.583 144.144L251.407 142.916Z" fill="#37474F"/>
<path d="M246.42 148.051C246.42 149.531 246.982 149.724 246.982 149.724C246.982 149.724 245.288 152.388 243.719 152.735C243.719 152.735 242.712 151.211 240.529 152.136C240.167 151.528 239.95 150.844 239.894 150.138C239.839 149.432 239.948 148.723 240.211 148.066C240.558 147.321 241.148 146.716 241.884 146.349C243.267 145.883 244.844 146.26 246.686 147.037C246.469 147.328 246.374 147.692 246.42 148.051Z" fill="#455A64"/>
<path d="M243.689 152.735C243.453 156.746 243.689 172.59 244.429 179.005C244.999 184.185 243.319 185.947 236.985 191.016C236.075 191.756 230.266 192.333 225.885 192.029C224.183 191.918 222.03 191.289 223.228 189.38C224.427 187.471 226.536 183.889 227.261 183.579C229.4 182.639 233.722 180.656 235.142 178.968C236.563 177.281 238.014 158.13 240.515 152.136C243.016 146.142 243.689 152.735 243.689 152.735Z" fill="#455A64"/>
<path d="M257.69 130.21C258.578 130.276 259.029 130.41 259.755 131.853C260.576 133.495 261.286 134.99 261.286 134.99C260.735 137.291 259.729 139.457 258.326 141.362C256.818 143.496 254.977 145.375 252.873 146.926C251.9 145.787 250.857 144.709 249.75 143.7C249.238 143.22 248.584 142.921 247.886 142.848C247.188 142.776 246.486 142.935 245.887 143.3C246.423 142.242 247.079 141.249 247.841 140.34C248.381 139.771 250.579 139.105 253.583 137.218C255.454 135.96 256.884 134.149 257.675 132.038L257.69 130.21Z" fill="#F0F0F0"/>
<path d="M243.512 142.775C243.512 141.162 242.505 139.956 242.239 139.43C241.462 137.95 241.876 136.751 241.869 135.486C241.861 134.221 241.921 131.379 241.921 131.379C241.359 131.377 240.813 131.563 240.368 131.906C239.923 132.249 239.605 132.73 239.464 133.273C238.827 134.857 237.488 136.803 237.488 140.37C237.488 143.582 237.784 144.166 237.784 144.166C238.727 143.311 239.748 142.546 240.833 141.88C241.061 141.732 241.319 141.637 241.588 141.603C241.857 141.569 242.131 141.596 242.388 141.682C242.645 141.768 242.88 141.911 243.075 142.1C243.269 142.289 243.419 142.52 243.512 142.775Z" fill="#F0F0F0"/>
<path d="M291.96 75.9752C291.741 73.0716 291.077 70.2189 289.991 67.517C287.697 62.337 288.26 59.7174 295.23 61.56C299.596 62.707 303.37 66.1258 304.059 76.6264C304.304 81.0637 304.282 85.5118 303.992 89.9464C303.252 98.0272 302.238 105.427 301.239 112.146C300.643 115.789 299.589 119.342 298.102 122.721C288.482 142.272 281.326 147.748 274.784 160.017C267.088 159.114 266.348 141.258 268.08 136.722C268.08 136.722 283.975 121.049 286.661 112.923C289.133 105.435 292.7 92.3588 292.515 86.091" fill="#FFA8A7"/>
<path d="M267.384 135.826C272.409 132.245 280.645 121.197 282.924 118.658C285.203 116.12 290.161 100.847 290.161 100.847C290.161 100.847 295.105 103.925 302.741 101.675C302.726 105.637 302.442 109.593 301.89 113.515C300.951 120.597 298.398 125.444 293.299 134.161C288.2 142.879 274.274 162.341 274.274 162.341C272.013 161.024 270.105 159.179 268.715 156.964C267.324 154.748 266.492 152.228 266.289 149.62C265.66 140.629 267.384 135.826 267.384 135.826Z" fill="#F5F5F5"/>
<path d="M279.453 8.75361C283.346 6.53361 288.467 6.53361 294.253 9.34561C307.914 15.9168 320.05 35.3936 321.367 52.8428C322.107 62.7218 319.228 69.8628 314.108 72.9486C312.79 73.7552 307.714 76.6486 306.5 77.3886C302.586 79.7122 297.391 79.727 291.523 76.9076C277.862 70.3364 265.726 50.8596 264.409 33.4104C263.669 23.376 266.629 16.198 271.913 13.1566C273.149 12.4092 278.166 9.48621 279.453 8.75361Z" fill="#FAC600"/>
<path opacity="0.25" d="M279.453 8.75361C283.346 6.53361 288.467 6.53361 294.253 9.34561C307.914 15.9168 320.05 35.3936 321.367 52.8428C322.107 62.7218 319.228 69.8628 314.108 72.9486C312.79 73.7552 307.714 76.6486 306.5 77.3886C302.586 79.7122 297.391 79.727 291.523 76.9076C277.862 70.3364 265.726 50.8596 264.409 33.4104C263.669 23.376 266.629 16.198 271.913 13.1566C273.149 12.4092 278.166 9.48621 279.453 8.75361Z" fill="black"/>
<path opacity="0.1" d="M266.437 44.0516L307.581 20.2976C315.047 29.259 320.494 41.4764 321.352 52.8576C322.092 62.7366 319.214 69.8776 314.093 72.9634C312.776 73.77 307.699 76.6634 306.486 77.4034C302.571 79.727 297.376 79.7418 291.508 76.9224C280.6 71.6314 270.67 58.156 266.437 44.0516Z" fill="black"/>
<path opacity="0.1" d="M319.08 41.4246C320.269 45.1321 321.031 48.9628 321.352 52.8428C322.092 62.7218 319.214 69.8628 314.093 72.9486C312.776 73.7552 307.699 76.6486 306.486 77.3886C302.571 79.7122 297.376 79.727 291.508 76.9076C286.55 74.5174 281.792 70.4252 277.685 65.3562L319.08 41.4246Z" fill="black"/>
<path d="M264.394 33.3808C265.712 50.83 277.848 70.3068 291.508 76.878C305.168 83.4492 315.188 74.658 313.856 57.1718C312.524 39.6856 300.44 20.2458 286.742 13.6746C273.045 7.10342 263.077 15.9242 264.394 33.3808Z" fill="#FAC600"/>
<path opacity="0.2" d="M264.394 33.3808C265.712 50.83 277.848 70.3068 291.508 76.878C305.168 83.4492 315.188 74.658 313.856 57.1718C312.524 39.6856 300.44 20.2458 286.742 13.6746C273.045 7.10342 263.077 15.9242 264.394 33.3808Z" fill="black"/>
<path d="M273.215 37.3546C274.054 43.2428 276.146 48.8826 279.35 53.8936C282.672 59.2216 286.75 63.41 290.872 65.6818C295.215 68.0942 299.115 68.0868 301.846 65.6818C304.576 63.2768 305.709 58.8368 305.035 53.1906C304.199 47.3052 302.11 41.6677 298.908 36.659C295.578 31.3236 291.508 27.1352 287.379 24.8634C283.035 22.4658 279.143 22.4658 276.412 24.8634C273.681 27.261 272.542 31.7158 273.215 37.3546Z" fill="#FAC600"/>
<path opacity="0.4" d="M273.215 37.3546C274.054 43.2428 276.146 48.8826 279.35 53.8936C282.672 59.2216 286.75 63.41 290.872 65.6818C295.215 68.0942 299.115 68.0868 301.846 65.6818C304.576 63.2768 305.709 58.8368 305.035 53.1906C304.199 47.3052 302.11 41.6677 298.908 36.659C295.578 31.3236 291.508 27.1352 287.379 24.8634C283.035 22.4658 279.143 22.4658 276.412 24.8634C273.681 27.261 272.542 31.7158 273.215 37.3546Z" fill="black"/>
<path d="M265.845 33.1366C266.459 41.2766 269.545 50.1566 274.51 58.1634C279.476 66.1702 285.744 72.2234 292.122 75.2944C298.242 78.2544 303.681 78.025 307.463 74.6876C311.244 71.3502 313.02 65.26 312.413 57.4086C311.792 49.2686 308.713 40.3886 303.74 32.3966C298.768 24.4046 292.507 18.3366 286.128 15.2508C280.016 12.2908 274.57 12.5276 270.788 15.8576C267.007 19.1876 265.26 25.3 265.845 33.1366ZM287.379 24.8634C291.493 27.1352 295.578 31.3236 298.908 36.659C302.11 41.6677 304.199 47.3052 305.035 53.1906C305.709 58.8368 304.577 63.2694 301.846 65.6818C299.115 68.0942 295.186 68.0942 290.872 65.6818C286.765 63.41 282.673 59.2216 279.35 53.8936C276.146 48.8826 274.054 43.2428 273.215 37.3546C272.542 31.7158 273.682 27.2758 276.412 24.8708C279.143 22.4658 283.035 22.4658 287.379 24.8634Z" fill="#FAC600"/>
<path opacity="0.2" d="M300.1 65.3866C305.703 62.3278 305.332 50.8479 299.271 39.7455C293.21 28.6431 283.755 22.1224 278.152 25.1812C272.548 28.24 272.919 39.7199 278.98 50.8223C285.041 61.9248 294.496 68.4454 300.1 65.3866Z" fill="black"/>
<path d="M300.1 65.3866C305.703 62.3278 305.332 50.8479 299.271 39.7455C293.21 28.6431 283.755 22.1224 278.152 25.1812C272.548 28.24 272.919 39.7199 278.98 50.8223C285.041 61.9248 294.496 68.4454 300.1 65.3866Z" fill="#FAC600"/>
<path opacity="0.6" d="M300.1 65.3866C305.703 62.3278 305.332 50.8479 299.271 39.7455C293.21 28.6431 283.755 22.1224 278.152 25.1812C272.548 28.24 272.919 39.7199 278.98 50.8223C285.041 61.9248 294.496 68.4454 300.1 65.3866Z" fill="black"/>
<path d="M276.693 35.0384C277.951 45.6352 285.573 57.8896 293.713 62.4184C297.088 64.2906 300.025 64.5348 302.216 63.4396C303.733 61.2566 304.391 57.8526 303.866 53.4718C302.608 42.875 294.986 30.6206 286.846 26.0918C283.472 24.227 280.541 23.9754 278.343 25.0706C276.826 27.2536 276.175 30.6576 276.693 35.0384Z" fill="#FAC600"/>
<path opacity="0.5" d="M276.693 35.0384C277.951 45.6352 285.573 57.8896 293.713 62.4184C297.088 64.2906 300.025 64.5348 302.216 63.4396C303.733 61.2566 304.391 57.8526 303.866 53.4718C302.608 42.875 294.986 30.6206 286.846 26.0918C283.472 24.227 280.541 23.9754 278.343 25.0706C276.826 27.2536 276.175 30.6576 276.693 35.0384Z" fill="black"/>
<path d="M298.116 52.5394C297.983 49.0022 296.148 46.5306 293.98 44.4808L295.016 44.7472L298.02 43.0156C297.889 42.3623 297.711 41.7193 297.487 41.0916C297.09 40.0433 296.563 39.0489 295.918 38.1316C294.863 36.6463 293.562 35.3523 292.07 34.3058L291.952 31.1904L288.252 29.037L285.24 30.776V31.5678V31.738C284.982 31.8202 284.733 31.9319 284.5 32.071L284.271 32.2338C283.923 32.4854 282.191 33.3882 281.496 33.81C281.407 33.8618 281.34 33.9136 281.266 33.9654C280.475 34.55 280.045 35.6674 280.112 37.4064C280.176 39.1117 280.686 40.7703 281.592 42.2164L281.821 42.5642L282.073 42.9268L282.31 43.2376C282.344 43.2752 282.376 43.3148 282.406 43.356C282.462 43.4371 282.524 43.5138 282.591 43.5854C283.11 44.2105 283.666 44.8035 284.256 45.3614C284.515 45.6056 284.781 45.8498 285.048 46.1014L283.679 45.761L280.741 47.5C281.596 50.796 283.595 53.6809 286.38 55.64L286.506 58.748L290.257 60.8274L293.262 59.0884L293.225 58.119C293.438 58.0642 293.642 57.9795 293.832 57.8674C294.283 57.5714 296.296 56.4688 296.792 56.1432C297.739 55.5438 298.22 54.382 298.116 52.5394Z" fill="#FAC600"/>
<path opacity="0.3" d="M298.116 52.5394C297.983 49.0022 296.148 46.5306 293.98 44.4808L295.016 44.7472L298.02 43.0156C297.889 42.3623 297.711 41.7193 297.487 41.0916C297.09 40.0433 296.563 39.0489 295.918 38.1316C294.863 36.6463 293.562 35.3523 292.07 34.3058L291.952 31.1904L288.252 29.037L285.24 30.776V31.5678V31.738C284.982 31.8202 284.733 31.9319 284.5 32.071L284.271 32.2338C283.923 32.4854 282.191 33.3882 281.496 33.81C281.407 33.8618 281.34 33.9136 281.266 33.9654C280.475 34.55 280.045 35.6674 280.112 37.4064C280.176 39.1117 280.686 40.7703 281.592 42.2164L281.821 42.5642L282.073 42.9268L282.31 43.2376C282.344 43.2752 282.376 43.3148 282.406 43.356C282.462 43.4371 282.524 43.5138 282.591 43.5854C283.11 44.2105 283.666 44.8035 284.256 45.3614C284.515 45.6056 284.781 45.8498 285.048 46.1014L283.679 45.761L280.741 47.5C281.596 50.796 283.595 53.6809 286.38 55.64L286.506 58.748L290.257 60.8274L293.262 59.0884L293.225 58.119C293.438 58.0642 293.642 57.9795 293.832 57.8674C294.283 57.5714 296.296 56.4688 296.792 56.1432C297.739 55.5438 298.22 54.382 298.116 52.5394Z" fill="black"/>
<path opacity="0.1" d="M290.28 60.8126L290.161 57.7046L293.247 58.1042L293.284 59.081L290.28 60.8126Z" fill="black"/>
<path opacity="0.1" d="M288.237 46.8858L285.233 48.6174L280.741 47.4926L283.745 45.761L288.237 46.8858Z" fill="black"/>
<path opacity="0.1" d="M288.948 32.9072L291.952 31.1682L292.071 34.2836L289.066 36.0152L288.948 32.9072Z" fill="black"/>
<path d="M285.255 31.5456L285.336 33.9506C284.78 33.5657 284.126 33.3461 283.451 33.3173C282.775 33.2885 282.105 33.4516 281.518 33.7878C281.429 33.8396 281.363 33.8914 281.289 33.9432C280.497 34.5278 280.068 35.6452 280.134 37.3842C280.198 39.0895 280.708 40.7481 281.614 42.1942L281.844 42.542L282.095 42.9046L282.332 43.2154C282.366 43.253 282.398 43.2926 282.428 43.3338C282.484 43.4149 282.546 43.4916 282.613 43.5632C283.132 44.1882 283.688 44.7813 284.278 45.3392C284.559 45.6056 284.848 45.872 285.144 46.1236C285.558 46.4936 285.98 46.8636 286.372 47.1818L286.853 47.574C287.755 48.2693 288.592 49.0445 289.355 49.8902C289.668 50.2448 289.905 50.6605 290.05 51.1112C290.117 51.3373 290.154 51.5711 290.161 51.8068C290.198 52.7466 289.658 53.2128 288.097 52.3544C287.36 51.9812 286.717 51.4479 286.214 50.7936C285.71 50.1392 285.36 49.3804 285.188 48.573L280.741 47.5C281.596 50.7959 283.595 53.6808 286.38 55.64L286.506 58.748L290.257 60.8274L290.139 57.7194C291.7 58.3336 292.973 58.4002 293.839 57.8674C294.697 57.305 295.141 56.1432 295.075 54.3006C294.919 50.2084 292.477 47.537 289.895 45.3022C287.475 43.2302 285.344 41.9426 285.27 39.952C285.225 38.7162 286.01 38.6126 287.26 39.2934C288.036 39.744 288.702 40.3593 289.214 41.0958C289.725 41.8323 290.069 42.672 290.22 43.5558L294.956 44.7768C294.827 44.1246 294.647 43.4837 294.416 42.8602C294.027 41.8095 293.503 40.8143 292.855 39.9002C291.798 38.4144 290.497 37.1183 289.007 36.067L288.888 32.9516L285.188 30.8056L285.255 31.5456Z" fill="#FAC600"/>
<path d="M285.226 30.7538L288.607 33.0848L289.066 36.0152L288.948 32.9072L285.226 30.7538Z" fill="#FAFAFA"/>
<path d="M281.636 42.2016L281.866 42.5494L282.117 42.912L282.354 43.2228C282.388 43.2605 282.421 43.3 282.45 43.3412C282.506 43.4223 282.568 43.499 282.635 43.5706C282.754 43.7186 282.88 43.8518 283.005 43.9924C280.045 40.4108 280.119 35.7266 281.289 34.5352C282.872 32.8998 285.314 33.9136 285.314 33.9136C284.758 33.5287 284.104 33.3092 283.429 33.2804C282.753 33.2515 282.083 33.4147 281.496 33.7508C281.407 33.8026 281.34 33.8544 281.266 33.9062C280.475 34.4908 280.045 35.6082 280.112 37.3472C280.181 39.0718 280.707 40.747 281.636 42.2016Z" fill="#FAFAFA"/>
<path d="M289.776 52.7984C290.124 52.7244 290.82 52.1398 290.294 50.8818C289.769 49.6238 288.999 49.1428 287.334 47.9884C288.078 48.5706 288.766 49.2196 289.392 49.9272C289.705 50.2818 289.942 50.6975 290.087 51.1482C290.154 51.3743 290.191 51.6081 290.198 51.8438C290.228 52.3174 290.08 52.68 289.776 52.7984Z" fill="#FAFAFA"/>
<path d="M286.402 55.6252L286.831 58.5408L290.28 60.8126L286.528 58.7332L286.402 55.6252Z" fill="#FAFAFA"/>
<path d="M281.274 47.9884L285.233 48.6174L280.741 47.5C281.228 49.429 282.132 51.2277 283.39 52.7688C282.323 51.3616 281.598 49.7247 281.274 47.9884Z" fill="#FAFAFA"/>
<path d="M283.605 53.0278L283.494 52.902L283.605 53.0278Z" fill="#FAFAFA"/>
<path d="M292.344 74.732C282.865 70.44 274.54 58.1634 274.54 58.1634C279.52 66.148 285.773 72.2234 292.152 75.2944C298.272 78.2544 303.711 78.025 307.492 74.6876C307.462 74.6876 301.986 79.0684 292.344 74.732Z" fill="#F5F5F5"/>
<path d="M306.36 33.7582C301.313 24.8116 294.261 17.2932 286.742 13.6746C278.928 9.91542 272.305 11.1956 268.324 16.2498C268.324 16.2498 275.028 8.34662 286.787 14.4442C298.545 20.5418 306.36 33.7582 306.36 33.7582Z" fill="#F5F5F5"/>
<path d="M292.455 87.9928C292.581 86.9568 290.657 84.204 290.072 83.3382C288.37 80.8296 288.2 78.4246 287.268 75.7976C286.528 73.7552 285.529 72.8376 285.906 72.4972C286.402 72.0162 287.808 71.4982 289.258 72.7636C289.998 73.4 291.478 75.9382 292.455 77.4108C294.076 79.4088 292.455 87.9928 292.455 87.9928Z" fill="#FFA8A7"/>
</svg>
