<svg width="370" height="242" viewBox="0 0 370 242" fill="none" xmlns="http://www.w3.org/2000/svg">
<rect width="370" height="242" rx="20" fill="#F7F9FB"/>
<path d="M95.0173 117.674C93.255 115.925 90.3182 113.302 87.0872 112.137C83.8564 110.68 80.0384 109.805 76.514 109.805C62.1223 109.805 51.8426 121.171 51.8426 135.159C51.8426 151.771 65.3531 160.222 76.8076 160.222C80.9196 160.222 85.0315 159.056 88.2622 157.308C91.7866 155.559 94.1362 153.228 95.311 152.062V160.513C88.2622 165.468 81.5068 166.342 76.8076 166.342C58.0104 166.342 44.5 152.645 44.5 134.868C44.5 116.508 58.3041 103.103 76.8076 103.103C80.6257 103.103 87.6747 103.685 95.0173 109.222V117.674Z" fill="#67579C"/>
<path d="M105.885 127.291H112.64V131.371C113.521 130.205 116.165 126.417 121.158 126.417C123.214 126.417 125.269 127.291 127.032 127.874L123.801 133.702C122.332 132.537 120.864 132.245 119.983 132.245C117.339 132.245 115.577 133.411 114.696 134.577C113.521 136.034 112.64 138.656 112.64 144.777V164.885H105.885V127.291Z" fill="#67579C"/>
<path d="M164.921 155.559C163.746 157.599 162.277 159.931 160.221 161.679C156.697 164.885 152.585 166.342 147.592 166.342C138.487 166.342 128.795 160.805 128.795 146.525C128.795 135.16 135.844 126.417 147.298 126.417C154.935 126.417 159.34 130.205 161.69 133.411C164.04 136.908 165.508 142.445 165.214 147.691H135.256C135.256 155.559 140.837 160.513 147.298 160.513C150.235 160.513 152.879 159.639 155.228 157.891C156.991 156.434 158.459 154.394 159.34 152.645L164.921 155.559ZM158.459 142.154C157.284 136.325 152.879 132.245 147.298 132.245C141.718 132.245 137.018 136.325 136.138 142.154H158.459Z" fill="#67579C"/>
<path d="M204.571 98.4399H211.326V165.176H204.571V159.931C202.515 162.845 198.109 166.342 191.354 166.342C181.662 166.342 172.557 159.639 172.557 146.234C172.557 133.119 181.368 126.417 191.354 126.417C198.697 126.417 202.808 130.497 204.571 132.828V98.4399ZM179.606 146.234C179.606 154.394 184.305 160.513 192.235 160.513C200.459 160.513 204.864 153.811 204.864 146.234C204.864 136.325 198.109 132.245 192.235 132.245C185.774 131.954 179.606 136.908 179.606 146.234Z" fill="#67579C"/>
<path d="M226.303 108.057C228.946 108.057 231.002 110.097 231.002 112.72C231.002 115.343 228.946 117.383 226.303 117.383C223.659 117.383 221.604 115.343 221.604 112.72C221.604 110.097 223.659 108.057 226.303 108.057ZM229.533 127.291V165.468H222.778V127.291H229.533Z" fill="#67579C"/>
<path d="M248.919 133.119V165.176H242.164V133.119H238.346V127H242.458V113.302H249.213V127H255.968V133.119H248.919Z" fill="#67579C"/>
<path d="M296.793 76C275.646 76 265.366 94.3598 268.303 113.885C268.597 116.508 270.947 123.211 273.003 128.165C276.527 135.742 280.933 143.319 284.457 149.439L310.597 104.56H282.401V99.3141H284.457H316.765H318.527V101.354L316.765 104.268L287.688 154.685C291.506 160.805 294.737 164.594 295.618 164.594C298.261 164.594 321.463 136.325 325.87 113.302C329.394 93.777 317.94 76 296.793 76Z" fill="#59C2A4"/>
</svg>
