<svg width="16" height="17" viewBox="0 0 16 17" fill="none" xmlns="http://www.w3.org/2000/svg">
<path d="M2 9.83008L5 9.83008L5 3.33008L2 3.33008C1.86739 3.33008 1.74022 3.38276 1.64645 3.47652C1.55268 3.57029 1.5 3.69747 1.5 3.83008L1.5 9.33008C1.5 9.46269 1.55268 9.58986 1.64645 9.68363C1.74021 9.7774 1.86739 9.83008 2 9.83008V9.83008Z" stroke="#EEF2F4" stroke-linecap="round" stroke-linejoin="round"/>
<path d="M5 9.83008L7.5 14.8301C7.76264 14.8301 8.02272 14.7783 8.26537 14.6778C8.50802 14.5773 8.7285 14.43 8.91421 14.2443C9.09993 14.0586 9.24725 13.8381 9.34776 13.5954C9.44827 13.3528 9.5 13.0927 9.5 12.8301L9.5 11.3301L13.3672 11.3301C13.509 11.3301 13.6492 11.2999 13.7784 11.2416C13.9077 11.1833 14.0231 11.0982 14.1169 10.9919C14.2107 10.8856 14.2809 10.7605 14.3227 10.6251C14.3645 10.4896 14.3771 10.3467 14.3595 10.206L13.6095 4.20604C13.5793 3.96419 13.4617 3.74171 13.279 3.5804C13.0963 3.4191 12.861 3.33008 12.6172 3.33008L5 3.33008" stroke="#EEF2F4" stroke-linecap="round" stroke-linejoin="round"/>
</svg>
