<svg width="31" height="31" viewBox="0 0 31 31" fill="none" xmlns="http://www.w3.org/2000/svg">
<path fill-rule="evenodd" clip-rule="evenodd" d="M15.8342 3.16943C16.7292 3.16943 17.5991 3.53693 18.2229 4.17568C18.8454 4.81818 19.1891 5.69943 19.1629 6.59318C19.1654 6.79443 19.2316 7.02693 19.3517 7.23068C19.5504 7.56818 19.8641 7.80568 20.2367 7.90318C20.6091 7.99568 20.9991 7.94568 21.3304 7.74943C22.9304 6.83568 24.9667 7.38318 25.8804 8.97068L26.6592 10.3194C26.6792 10.3557 26.6966 10.3907 26.7117 10.4269C27.5392 11.9907 26.9867 13.9594 25.4492 14.8582C25.2254 14.9869 25.0442 15.1669 24.9192 15.3844C24.7254 15.7207 24.6716 16.1207 24.7691 16.4882C24.8692 16.8632 25.1079 17.1744 25.4442 17.3669C26.2029 17.8032 26.7691 18.5382 26.9954 19.3869C27.2216 20.2344 27.0979 21.1544 26.6567 21.9132L25.8267 23.2957C24.9129 24.8657 22.8766 25.4094 21.2929 24.4944C21.0816 24.3732 20.8379 24.3069 20.5954 24.3007H20.5879C20.2267 24.3007 19.8554 24.4544 19.5854 24.7232C19.3116 24.9969 19.1616 25.3619 19.1642 25.7494C19.1554 27.5857 17.6617 29.0707 15.8342 29.0707H14.2679C12.4317 29.0707 10.9379 27.5782 10.9379 25.7419C10.9354 25.5157 10.8704 25.2807 10.7491 25.0769C10.5529 24.7344 10.2354 24.4894 9.86915 24.3919C9.5054 24.2944 9.10665 24.3482 8.77915 24.5382C7.99415 24.9757 7.0704 25.0819 6.2254 24.8444C5.38165 24.6057 4.6529 24.0257 4.2254 23.2569L3.44415 21.9107C2.5304 20.3257 3.07415 18.2944 4.65665 17.3794C5.1054 17.1207 5.38415 16.6382 5.38415 16.1207C5.38415 15.6032 5.1054 15.1194 4.65665 14.8607C3.0729 13.9407 2.5304 11.9044 3.4429 10.3194L4.2904 8.92818C5.19165 7.36068 7.22915 6.80818 8.8179 7.72068C9.03415 7.84943 9.26915 7.91443 9.5079 7.91693C10.2866 7.91693 10.9379 7.27443 10.9504 6.48443C10.9454 5.61318 11.2891 4.77693 11.9154 4.14568C12.5441 3.51568 13.3792 3.16943 14.2679 3.16943H15.8342ZM15.8342 5.04443H14.2679C13.8804 5.04443 13.5179 5.19568 13.2442 5.46818C12.9717 5.74193 12.8229 6.10568 12.8254 6.49318C12.7991 8.32068 11.3054 9.79193 9.49665 9.79193C8.91665 9.78568 8.3579 9.62943 7.8729 9.33943C7.19165 8.95193 6.30165 9.19068 5.9029 9.88443L5.05665 11.2757C4.66915 11.9482 4.90665 12.8369 5.59665 13.2382C6.6204 13.8307 7.25915 14.9357 7.25915 16.1207C7.25915 17.3057 6.6204 18.4094 5.59415 19.0032C4.9079 19.4007 4.6704 20.2844 5.0679 20.9719L5.85665 22.3319C6.05165 22.6832 6.3704 22.9369 6.73915 23.0407C7.10665 23.1432 7.51165 23.0994 7.84915 22.9119C8.3454 22.6207 8.9229 22.4694 9.5029 22.4694C9.78915 22.4694 10.0754 22.5057 10.3554 22.5807C11.2004 22.8082 11.9341 23.3732 12.3692 24.1319C12.6516 24.6082 12.8079 25.1644 12.8129 25.7319C12.8129 26.5444 13.4654 27.1957 14.2679 27.1957H15.8342C16.6329 27.1957 17.2854 26.5482 17.2892 25.7494C17.2842 24.8669 17.6292 24.0282 18.2604 23.3969C18.8829 22.7744 19.7529 22.4007 20.6229 22.4257C21.1929 22.4394 21.7417 22.5932 22.2254 22.8682C22.9216 23.2669 23.8104 23.0294 24.2129 22.3419L25.0429 20.9582C25.2279 20.6394 25.2817 20.2394 25.1829 19.8707C25.0854 19.5019 24.8404 19.1819 24.5104 18.9932C23.7379 18.5482 23.1866 17.8307 22.9579 16.9707C22.7316 16.1269 22.8554 15.2057 23.2966 14.4469C23.5842 13.9469 24.0054 13.5257 24.5104 13.2357C25.1879 12.8394 25.4254 11.9532 25.0317 11.2632C25.0154 11.2357 25.0004 11.2069 24.9879 11.1769L24.2554 9.90693C23.8566 9.21318 22.9692 8.97443 22.2729 9.37068C21.5204 9.81568 20.6254 9.94318 19.7654 9.71693C18.9067 9.49443 18.1867 8.95068 17.7379 8.18318C17.4504 7.70318 17.2942 7.14443 17.2892 6.57568C17.3004 6.14818 17.1504 5.76443 16.8779 5.48318C16.6066 5.20318 16.2254 5.04443 15.8342 5.04443ZM15.0565 11.8871C17.3903 11.8871 19.289 13.7871 19.289 16.1208C19.289 18.4546 17.3903 20.3521 15.0565 20.3521C12.7228 20.3521 10.824 18.4546 10.824 16.1208C10.824 13.7871 12.7228 11.8871 15.0565 11.8871ZM15.0565 13.7621C13.7565 13.7621 12.699 14.8208 12.699 16.1208C12.699 17.4208 13.7565 18.4771 15.0565 18.4771C16.3565 18.4771 17.414 17.4208 17.414 16.1208C17.414 14.8208 16.3565 13.7621 15.0565 13.7621Z" fill="#036FC9"/>
</svg>
