<svg width="20" height="21" viewBox="0 0 20 21" fill="none" xmlns="http://www.w3.org/2000/svg">
<g clip-path="url(#clip0_1165_5269)">
<path d="M13.3574 13.4951C12.8836 13.4951 12.498 13.1615 12.498 12.7514C12.498 12.3412 12.8836 12.0075 13.3574 12.0075C13.8313 12.0075 14.2168 12.3412 14.2168 12.7514C14.2168 12.9671 14.3917 13.142 14.6074 13.142C14.8231 13.142 14.998 12.9671 14.998 12.7514C14.998 12.0355 14.4647 11.4337 13.748 11.2703V11.0671C13.748 10.8514 13.5731 10.6765 13.3574 10.6765C13.1417 10.6765 12.9668 10.8514 12.9668 11.0671V11.2703C12.2502 11.4337 11.7168 12.0355 11.7168 12.7514C11.7168 13.5923 12.4528 14.2764 13.3574 14.2764C13.8313 14.2764 14.2168 14.6101 14.2168 15.0202C14.2168 15.4304 13.8313 15.764 13.3574 15.764C12.8836 15.764 12.498 15.4304 12.498 15.0202C12.498 14.8045 12.3231 14.6296 12.1074 14.6296C11.8917 14.6296 11.7168 14.8045 11.7168 15.0202C11.7168 15.736 12.2502 16.3379 12.9668 16.5013V16.67C12.9668 16.8857 13.1417 17.0606 13.3574 17.0606C13.5731 17.0606 13.748 16.8857 13.748 16.67V16.5013C14.4647 16.3379 14.998 15.736 14.998 15.0202C14.998 14.1793 14.2621 13.4951 13.3574 13.4951Z" fill="white"/>
<path d="M13.3574 13.4951C12.8836 13.4951 12.498 13.1615 12.498 12.7514C12.498 12.3412 12.8836 12.0075 13.3574 12.0075C13.8313 12.0075 14.2168 12.3412 14.2168 12.7514C14.2168 12.9671 14.3917 13.142 14.6074 13.142C14.8231 13.142 14.998 12.9671 14.998 12.7514C14.998 12.0355 14.4647 11.4337 13.748 11.2703V11.0671C13.748 10.8514 13.5731 10.6765 13.3574 10.6765C13.1417 10.6765 12.9668 10.8514 12.9668 11.0671V11.2703C12.2502 11.4337 11.7168 12.0355 11.7168 12.7514C11.7168 13.5923 12.4528 14.2764 13.3574 14.2764C13.8313 14.2764 14.2168 14.6101 14.2168 15.0202C14.2168 15.4304 13.8313 15.764 13.3574 15.764C12.8836 15.764 12.498 15.4304 12.498 15.0202C12.498 14.8045 12.3231 14.6296 12.1074 14.6296C11.8917 14.6296 11.7168 14.8045 11.7168 15.0202C11.7168 15.736 12.2502 16.3379 12.9668 16.5013V16.67C12.9668 16.8857 13.1417 17.0606 13.3574 17.0606C13.5731 17.0606 13.748 16.8857 13.748 16.67V16.5013C14.4647 16.3379 14.998 15.736 14.998 15.0202C14.998 14.1793 14.2621 13.4951 13.3574 13.4951Z" fill="url(#paint0_radial_1165_5269)"/>
<path d="M17.636 11.1715C17.1258 10.3764 16.4069 9.74016 15.5571 9.33165C15.3626 9.23813 15.1292 9.32001 15.0357 9.51446C14.9423 9.70892 15.0241 9.94227 15.2185 10.0358C16.6994 10.7476 17.6563 12.2687 17.6563 13.9108C17.6563 14.6134 17.4831 15.3103 17.1555 15.9261C17.0541 16.1165 17.1264 16.3531 17.3168 16.4544C17.3753 16.4855 17.4381 16.5002 17.5 16.5002C17.6397 16.5002 17.7749 16.425 17.8451 16.293C18.2327 15.5647 18.4375 14.7409 18.4375 13.9108C18.4375 12.9358 18.1604 11.9886 17.636 11.1715Z" fill="white"/>
<path d="M17.636 11.1715C17.1258 10.3764 16.4069 9.74016 15.5571 9.33165C15.3626 9.23813 15.1292 9.32001 15.0357 9.51446C14.9423 9.70892 15.0241 9.94227 15.2185 10.0358C16.6994 10.7476 17.6563 12.2687 17.6563 13.9108C17.6563 14.6134 17.4831 15.3103 17.1555 15.9261C17.0541 16.1165 17.1264 16.3531 17.3168 16.4544C17.3753 16.4855 17.4381 16.5002 17.5 16.5002C17.6397 16.5002 17.7749 16.425 17.8451 16.293C18.2327 15.5647 18.4375 14.7409 18.4375 13.9108C18.4375 12.9358 18.1604 11.9886 17.636 11.1715Z" fill="url(#paint1_radial_1165_5269)"/>
<path d="M13.9716 8.8328L13.9453 8.83276C13.7296 8.83276 13.5547 9.00765 13.5547 9.22339C13.5547 9.43913 13.7296 9.61401 13.9453 9.61401L13.9679 9.61405C13.9686 9.61405 13.9691 9.61405 13.9698 9.61405C14.1847 9.61405 14.3594 9.44038 14.3604 9.22526C14.3614 9.00952 14.1873 8.83382 13.9716 8.8328Z" fill="white"/>
<path d="M13.9716 8.8328L13.9453 8.83276C13.7296 8.83276 13.5547 9.00765 13.5547 9.22339C13.5547 9.43913 13.7296 9.61401 13.9453 9.61401L13.9679 9.61405C13.9686 9.61405 13.9691 9.61405 13.9698 9.61405C14.1847 9.61405 14.3594 9.44038 14.3604 9.22526C14.3614 9.00952 14.1873 8.83382 13.9716 8.8328Z" fill="url(#paint2_radial_1165_5269)"/>
<path d="M11.5002 17.786C10.0193 17.0741 9.0625 15.553 9.0625 13.911C9.0625 13.2083 9.2357 12.5115 9.56332 11.8957C9.66464 11.7053 9.59242 11.4687 9.40195 11.3674C9.21156 11.2661 8.97492 11.3383 8.87363 11.5288C8.48609 12.2571 8.28125 13.0808 8.28125 13.911C8.28125 14.886 8.5584 15.8332 9.08273 16.6502C9.593 17.4453 10.3119 18.0816 11.1617 18.4901C11.2163 18.5164 11.2739 18.5288 11.3307 18.5288C11.4762 18.5288 11.6158 18.4472 11.683 18.3073C11.7764 18.1129 11.6946 17.8795 11.5002 17.786Z" fill="white"/>
<path d="M11.5002 17.786C10.0193 17.0741 9.0625 15.553 9.0625 13.911C9.0625 13.2083 9.2357 12.5115 9.56332 11.8957C9.66464 11.7053 9.59242 11.4687 9.40195 11.3674C9.21156 11.2661 8.97492 11.3383 8.87363 11.5288C8.48609 12.2571 8.28125 13.0808 8.28125 13.911C8.28125 14.886 8.5584 15.8332 9.08273 16.6502C9.593 17.4453 10.3119 18.0816 11.1617 18.4901C11.2163 18.5164 11.2739 18.5288 11.3307 18.5288C11.4762 18.5288 11.6158 18.4472 11.683 18.3073C11.7764 18.1129 11.6946 17.8795 11.5002 17.786Z" fill="url(#paint3_radial_1165_5269)"/>
<path d="M12.7734 18.2076L12.7508 18.2075C12.5341 18.2071 12.3594 18.3805 12.3584 18.5963C12.3574 18.8121 12.5315 18.9878 12.7472 18.9888L12.7734 18.9889C12.9891 18.9889 13.164 18.8139 13.164 18.5982C13.164 18.3825 12.9891 18.2076 12.7734 18.2076Z" fill="white"/>
<path d="M12.7734 18.2076L12.7508 18.2075C12.5341 18.2071 12.3594 18.3805 12.3584 18.5963C12.3574 18.8121 12.5315 18.9878 12.7472 18.9888L12.7734 18.9889C12.9891 18.9889 13.164 18.8139 13.164 18.5982C13.164 18.3825 12.9891 18.2076 12.7734 18.2076Z" fill="url(#paint4_radial_1165_5269)"/>
<path d="M15.1331 7.51119C15.0856 7.39791 15.0274 7.29115 14.9596 7.19213H15.9765C16.9673 7.19213 17.7734 6.38603 17.7734 5.39526C17.7734 4.40448 16.9673 3.59838 15.9765 3.59838H12.8484C13.0473 3.30924 13.164 2.95944 13.164 2.58276C13.164 1.59198 12.3579 0.785889 11.3672 0.785889H1.79687C0.806092 0.785889 0 1.59198 0 2.58276C0 3.57354 0.806092 4.37963 1.79687 4.37963H4.92499C4.72612 4.66877 4.60937 5.01858 4.60937 5.39526C4.60937 5.77193 4.72608 6.12174 4.92499 6.41088H3.90624C2.91546 6.41088 2.10937 7.21697 2.10937 8.20775C2.10937 8.77677 2.37554 9.28454 2.78964 9.614C2.37554 9.94345 2.10937 10.4512 2.10937 11.0202C2.10937 11.5893 2.37554 12.097 2.78964 12.4265C2.37554 12.7559 2.10937 13.2637 2.10937 13.8327C2.10937 14.4018 2.37554 14.9095 2.78964 15.239C2.37554 15.5684 2.10937 16.0762 2.10937 16.6452C2.10937 17.636 2.91546 18.4421 3.90624 18.4421H8.50975C9.72248 19.7393 11.4477 20.5515 13.3594 20.5515C17.021 20.5515 20 17.5725 20 13.9109C20 10.8634 17.9363 8.28912 15.1331 7.51119ZM15.9765 4.37963C16.5366 4.37963 16.9922 4.83526 16.9922 5.39526C16.9922 5.95525 16.5366 6.41088 15.9765 6.41088H13.4765H6.40624C5.8462 6.41088 5.39061 5.95525 5.39061 5.39526C5.39061 4.83526 5.8462 4.37963 6.40624 4.37963H15.9765ZM1.79687 3.59838C1.23683 3.59838 0.781249 3.14276 0.781249 2.58276C0.781249 2.02276 1.23683 1.56714 1.79687 1.56714H11.3672C11.9272 1.56714 12.3828 2.02276 12.3828 2.58276C12.3828 3.14276 11.9272 3.59838 11.3672 3.59838H1.79687ZM3.90624 7.19213H13.4765C13.6339 7.19213 13.7845 7.22869 13.9197 7.29416C13.7349 7.27865 13.5481 7.27029 13.3594 7.27029C11.5256 7.27029 9.86311 8.01752 8.66022 9.22337H3.90624C3.34624 9.22337 2.89062 8.76775 2.89062 8.20775C2.89062 7.64775 3.34624 7.19213 3.90624 7.19213ZM3.90624 10.0046H7.99276C7.54932 10.6122 7.20647 11.2974 6.98874 12.0359H3.90624C3.3462 12.0359 2.89062 11.5803 2.89062 11.0202C2.89062 10.4602 3.3462 10.0046 3.90624 10.0046ZM3.90624 12.8171H6.80936C6.7501 13.1731 6.71878 13.5384 6.71878 13.9109C6.71878 14.2291 6.74178 14.542 6.78526 14.8484H3.90624C3.3462 14.8484 2.89062 14.3928 2.89062 13.8327C2.89062 13.2727 3.3462 12.8171 3.90624 12.8171ZM3.90624 17.6609C3.3462 17.6609 2.89062 17.2053 2.89062 16.6452C2.89062 16.0852 3.3462 15.6296 3.90624 15.6296H6.94475C7.14186 16.3645 7.46206 17.0494 7.88198 17.6609H3.90624ZM13.3594 19.7703C10.1285 19.7703 7.50002 17.1418 7.50002 13.9109C7.50002 10.68 10.1285 8.05154 13.3594 8.05154C16.5902 8.05154 19.2188 10.68 19.2188 13.9109C19.2188 17.1418 16.5902 19.7703 13.3594 19.7703Z" fill="white"/>
<path d="M15.1331 7.51119C15.0856 7.39791 15.0274 7.29115 14.9596 7.19213H15.9765C16.9673 7.19213 17.7734 6.38603 17.7734 5.39526C17.7734 4.40448 16.9673 3.59838 15.9765 3.59838H12.8484C13.0473 3.30924 13.164 2.95944 13.164 2.58276C13.164 1.59198 12.3579 0.785889 11.3672 0.785889H1.79687C0.806092 0.785889 0 1.59198 0 2.58276C0 3.57354 0.806092 4.37963 1.79687 4.37963H4.92499C4.72612 4.66877 4.60937 5.01858 4.60937 5.39526C4.60937 5.77193 4.72608 6.12174 4.92499 6.41088H3.90624C2.91546 6.41088 2.10937 7.21697 2.10937 8.20775C2.10937 8.77677 2.37554 9.28454 2.78964 9.614C2.37554 9.94345 2.10937 10.4512 2.10937 11.0202C2.10937 11.5893 2.37554 12.097 2.78964 12.4265C2.37554 12.7559 2.10937 13.2637 2.10937 13.8327C2.10937 14.4018 2.37554 14.9095 2.78964 15.239C2.37554 15.5684 2.10937 16.0762 2.10937 16.6452C2.10937 17.636 2.91546 18.4421 3.90624 18.4421H8.50975C9.72248 19.7393 11.4477 20.5515 13.3594 20.5515C17.021 20.5515 20 17.5725 20 13.9109C20 10.8634 17.9363 8.28912 15.1331 7.51119ZM15.9765 4.37963C16.5366 4.37963 16.9922 4.83526 16.9922 5.39526C16.9922 5.95525 16.5366 6.41088 15.9765 6.41088H13.4765H6.40624C5.8462 6.41088 5.39061 5.95525 5.39061 5.39526C5.39061 4.83526 5.8462 4.37963 6.40624 4.37963H15.9765ZM1.79687 3.59838C1.23683 3.59838 0.781249 3.14276 0.781249 2.58276C0.781249 2.02276 1.23683 1.56714 1.79687 1.56714H11.3672C11.9272 1.56714 12.3828 2.02276 12.3828 2.58276C12.3828 3.14276 11.9272 3.59838 11.3672 3.59838H1.79687ZM3.90624 7.19213H13.4765C13.6339 7.19213 13.7845 7.22869 13.9197 7.29416C13.7349 7.27865 13.5481 7.27029 13.3594 7.27029C11.5256 7.27029 9.86311 8.01752 8.66022 9.22337H3.90624C3.34624 9.22337 2.89062 8.76775 2.89062 8.20775C2.89062 7.64775 3.34624 7.19213 3.90624 7.19213ZM3.90624 10.0046H7.99276C7.54932 10.6122 7.20647 11.2974 6.98874 12.0359H3.90624C3.3462 12.0359 2.89062 11.5803 2.89062 11.0202C2.89062 10.4602 3.3462 10.0046 3.90624 10.0046ZM3.90624 12.8171H6.80936C6.7501 13.1731 6.71878 13.5384 6.71878 13.9109C6.71878 14.2291 6.74178 14.542 6.78526 14.8484H3.90624C3.3462 14.8484 2.89062 14.3928 2.89062 13.8327C2.89062 13.2727 3.3462 12.8171 3.90624 12.8171ZM3.90624 17.6609C3.3462 17.6609 2.89062 17.2053 2.89062 16.6452C2.89062 16.0852 3.3462 15.6296 3.90624 15.6296H6.94475C7.14186 16.3645 7.46206 17.0494 7.88198 17.6609H3.90624ZM13.3594 19.7703C10.1285 19.7703 7.50002 17.1418 7.50002 13.9109C7.50002 10.68 10.1285 8.05154 13.3594 8.05154C16.5902 8.05154 19.2188 10.68 19.2188 13.9109C19.2188 17.1418 16.5902 19.7703 13.3594 19.7703Z" fill="url(#paint5_radial_1165_5269)"/>
</g>
<defs>
<radialGradient id="paint0_radial_1165_5269" cx="0" cy="0" r="1" gradientUnits="userSpaceOnUse" gradientTransform="translate(11.5588 9.79957) rotate(68.5856) scale(9.41971 9.57296)">
<stop offset="0.151042" stop-color="#33A6FF"/>
<stop offset="0.907346" stop-color="#36C27F"/>
</radialGradient>
<radialGradient id="paint1_radial_1165_5269" cx="0" cy="0" r="1" gradientUnits="userSpaceOnUse" gradientTransform="translate(14.8314 8.30296) rotate(69.9858) scale(10.5364 10.1307)">
<stop offset="0.151042" stop-color="#33A6FF"/>
<stop offset="0.907346" stop-color="#36C27F"/>
</radialGradient>
<radialGradient id="paint2_radial_1165_5269" cx="0" cy="0" r="1" gradientUnits="userSpaceOnUse" gradientTransform="translate(13.5159 8.72544) rotate(51.8003) scale(1.36563 1.98428)">
<stop offset="0.151042" stop-color="#33A6FF"/>
<stop offset="0.907346" stop-color="#36C27F"/>
</radialGradient>
<radialGradient id="paint3_radial_1165_5269" cx="0" cy="0" r="1" gradientUnits="userSpaceOnUse" gradientTransform="translate(8.1156 10.3315) rotate(69.9861) scale(10.5364 10.1305)">
<stop offset="0.151042" stop-color="#33A6FF"/>
<stop offset="0.907346" stop-color="#36C27F"/>
</radialGradient>
<radialGradient id="paint4_radial_1165_5269" cx="0" cy="0" r="1" gradientUnits="userSpaceOnUse" gradientTransform="translate(12.3196 18.1002) rotate(51.8058) scale(1.36563 1.98419)">
<stop offset="0.151042" stop-color="#33A6FF"/>
<stop offset="0.907346" stop-color="#36C27F"/>
</radialGradient>
<radialGradient id="paint5_radial_1165_5269" cx="0" cy="0" r="1" gradientUnits="userSpaceOnUse" gradientTransform="translate(-0.962964 -1.92917) rotate(52.3283) scale(34.3016 49.61)">
<stop offset="0.151042" stop-color="#33A6FF"/>
<stop offset="0.907346" stop-color="#36C27F"/>
</radialGradient>
<clipPath id="clip0_1165_5269">
<rect width="20" height="20" fill="white" transform="translate(0 0.668701)"/>
</clipPath>
</defs>
</svg>
