<svg width="20" height="21" viewBox="0 0 20 21" fill="none" xmlns="http://www.w3.org/2000/svg">
<g clip-path="url(#clip0_1165_5290)">
<path d="M3.32301 18.4394C3.25039 18.3667 3.14961 18.325 3.04688 18.325C2.94414 18.325 2.84336 18.3667 2.7707 18.4394C2.69805 18.5121 2.65625 18.6128 2.65625 18.7156C2.65625 18.8183 2.69801 18.9191 2.7707 18.9917C2.84336 19.0644 2.94414 19.1062 3.04688 19.1062C3.14961 19.1062 3.25039 19.0644 3.32301 18.9917C3.39566 18.9191 3.4375 18.8183 3.4375 18.7156C3.4375 18.6128 3.3957 18.5121 3.32301 18.4394Z" fill="white"/>
<path d="M3.32301 18.4394C3.25039 18.3667 3.14961 18.325 3.04688 18.325C2.94414 18.325 2.84336 18.3667 2.7707 18.4394C2.69805 18.5121 2.65625 18.6128 2.65625 18.7156C2.65625 18.8183 2.69801 18.9191 2.7707 18.9917C2.84336 19.0644 2.94414 19.1062 3.04688 19.1062C3.14961 19.1062 3.25039 19.0644 3.32301 18.9917C3.39566 18.9191 3.4375 18.8183 3.4375 18.7156C3.4375 18.6128 3.3957 18.5121 3.32301 18.4394Z" fill="url(#paint0_radial_1165_5290)"/>
<path d="M18.3406 7.81465C18.268 7.74195 18.1676 7.7002 18.0645 7.7002C17.9617 7.7002 17.8609 7.74195 17.7883 7.81465C17.7157 7.8873 17.6738 7.98809 17.6738 8.09082C17.6738 8.19355 17.7156 8.29434 17.7883 8.36695C17.8609 8.43961 17.9617 8.48145 18.0645 8.48145C18.1676 8.48145 18.268 8.43965 18.3406 8.36695C18.4136 8.29434 18.4554 8.19355 18.4554 8.09082C18.4554 7.98809 18.4136 7.8873 18.3406 7.81465Z" fill="white"/>
<path d="M18.3406 7.81465C18.268 7.74195 18.1676 7.7002 18.0645 7.7002C17.9617 7.7002 17.8609 7.74195 17.7883 7.81465C17.7157 7.8873 17.6738 7.98809 17.6738 8.09082C17.6738 8.19355 17.7156 8.29434 17.7883 8.36695C17.8609 8.43961 17.9617 8.48145 18.0645 8.48145C18.1676 8.48145 18.268 8.43965 18.3406 8.36695C18.4136 8.29434 18.4554 8.19355 18.4554 8.09082C18.4554 7.98809 18.4136 7.8873 18.3406 7.81465Z" fill="url(#paint1_radial_1165_5290)"/>
<path d="M19.8851 0.783115C19.8118 0.709873 19.7124 0.668701 19.6088 0.668701L9.99965 0.669209C9.78395 0.669209 9.60906 0.844131 9.60906 1.05983V2.1769L5.90637 3.16905C5.69797 3.22491 5.5743 3.43909 5.63016 3.64745L7.54918 10.8092L5.88906 12.4694C5.67777 12.1608 5.32301 11.958 4.92172 11.958H1.17184C0.525664 11.958 0 12.4837 0 13.1298V19.4968C0 20.143 0.525664 20.6687 1.17184 20.6687H4.92176C5.4707 20.6687 5.9325 20.2892 6.05906 19.7789L6.52352 20.1839C6.88207 20.4966 7.34144 20.6687 7.81719 20.6687H19.6089C19.8246 20.6687 19.9995 20.4938 19.9995 20.2781V1.05933C19.9994 0.955732 19.9583 0.856357 19.8851 0.783115ZM5.3123 19.4969C5.3123 19.7122 5.13707 19.8875 4.92168 19.8875H1.1718C0.956406 19.8875 0.781172 19.7123 0.781172 19.4969V13.1298C0.781172 12.9144 0.956406 12.7392 1.1718 12.7392H2.65613V17.239C2.65613 17.4547 2.83105 17.6296 3.04676 17.6296C3.26246 17.6296 3.43738 17.4547 3.43738 17.239V12.7392H4.92172C5.13711 12.7392 5.31234 12.9144 5.31234 13.1298V19.4969H5.3123ZM6.48586 3.82257L9.60906 2.98569V4.43315L9.34727 4.50331C9.24715 4.53015 9.16187 4.59558 9.11008 4.6853C9.05828 4.77503 9.04422 4.88163 9.07105 4.98171C9.22117 5.5419 8.88754 6.11976 8.32734 6.26987C8.22715 6.29675 8.14172 6.36229 8.08996 6.45222C8.0382 6.5421 8.02426 6.6489 8.05133 6.74905L9.57395 12.3873H8.78996L8.38594 10.8066C8.37309 10.7563 8.35059 10.71 8.32047 10.6696L6.48586 3.82257ZM9.60906 6.22452V9.52065L8.8966 6.88257C9.19422 6.7289 9.43777 6.49897 9.60906 6.22452ZM15.2209 19.8875H7.81711C7.5302 19.8875 7.25312 19.7836 7.03687 19.5951L6.09355 18.7724V13.3698L7.79895 11.6644L8.10824 12.8745C8.15246 13.0475 8.3082 13.1684 8.48668 13.1684L16.1665 13.1689C16.4681 13.1689 16.7134 13.4142 16.7134 13.7157C16.7134 14.0173 16.4681 14.2626 16.1665 14.2626H12.2314C12.0157 14.2626 11.8407 14.4375 11.8407 14.6532C11.8407 14.8689 12.0157 15.0439 12.2314 15.0439H17.3892C17.6907 15.0439 17.9361 15.2892 17.9361 15.5907C17.9361 15.8923 17.6907 16.1376 17.3892 16.1376H12.2314C12.0157 16.1376 11.8407 16.3125 11.8407 16.5282C11.8407 16.7439 12.0157 16.9189 12.2314 16.9189H16.5534C16.8549 16.9189 17.1002 17.1642 17.1002 17.4657C17.1002 17.7673 16.8549 18.0126 16.5534 18.0126H12.2314C12.0157 18.0126 11.8407 18.1875 11.8407 18.4032C11.8407 18.6189 12.0157 18.7939 12.2314 18.7939H15.2209C15.5225 18.7939 15.7678 19.0392 15.7678 19.3407C15.7678 19.6421 15.5225 19.8875 15.2209 19.8875ZM19.2182 19.8875H19.2182H16.4307C16.5065 19.7205 16.549 19.5355 16.549 19.3406C16.549 19.1457 16.5065 18.9606 16.4307 18.7937H16.5534C17.2857 18.7937 17.8814 18.1979 17.8814 17.4656C17.8814 17.252 17.8305 17.0502 17.7405 16.8712C18.3028 16.7167 18.7172 16.2013 18.7172 15.5907C18.7172 15.2944 18.6196 15.0205 18.4551 14.7994V9.84866C18.4551 9.63296 18.2802 9.45804 18.0645 9.45804C17.8488 9.45804 17.6738 9.63296 17.6738 9.84866V14.2937C17.582 14.2735 17.4868 14.2626 17.3891 14.2626H17.3763C17.452 14.0957 17.4946 13.9107 17.4946 13.7157C17.4946 12.9834 16.8988 12.3876 16.1665 12.3876H15.5386C16.2053 12.1017 16.6736 11.439 16.6736 10.6687C16.6736 9.63788 15.835 8.79925 14.8042 8.79925C13.7734 8.79925 12.9348 9.63788 12.9348 10.6687C12.9348 11.439 13.4031 12.1017 14.0698 12.3876H11.9345V4.96022C12.6323 4.80815 13.183 4.25757 13.335 3.55972H16.2733C16.4254 4.25757 16.976 4.80815 17.6738 4.96022V6.17468C17.6738 6.39038 17.8487 6.5653 18.0644 6.5653C18.2801 6.5653 18.455 6.39038 18.455 6.17468V4.61147C18.455 4.39577 18.2801 4.22085 18.0644 4.22085C17.4845 4.22085 17.0127 3.74901 17.0127 3.16909C17.0127 2.95339 16.8378 2.77847 16.6221 2.77847H12.9863C12.7706 2.77847 12.5957 2.95339 12.5957 3.16909C12.5957 3.74905 12.1239 4.22085 11.5439 4.22085C11.3282 4.22085 11.1533 4.39577 11.1533 4.61147V12.3876H10.3904V1.45038L19.2182 1.44995V19.8875ZM14.8043 11.7569C14.2042 11.7569 13.7161 11.2687 13.7161 10.6687C13.7161 10.0687 14.2043 9.58054 14.8043 9.58054C15.4043 9.58054 15.8924 10.0687 15.8924 10.6687C15.8924 11.2687 15.4043 11.7569 14.8043 11.7569Z" fill="white"/>
<path d="M19.8851 0.783115C19.8118 0.709873 19.7124 0.668701 19.6088 0.668701L9.99965 0.669209C9.78395 0.669209 9.60906 0.844131 9.60906 1.05983V2.1769L5.90637 3.16905C5.69797 3.22491 5.5743 3.43909 5.63016 3.64745L7.54918 10.8092L5.88906 12.4694C5.67777 12.1608 5.32301 11.958 4.92172 11.958H1.17184C0.525664 11.958 0 12.4837 0 13.1298V19.4968C0 20.143 0.525664 20.6687 1.17184 20.6687H4.92176C5.4707 20.6687 5.9325 20.2892 6.05906 19.7789L6.52352 20.1839C6.88207 20.4966 7.34144 20.6687 7.81719 20.6687H19.6089C19.8246 20.6687 19.9995 20.4938 19.9995 20.2781V1.05933C19.9994 0.955732 19.9583 0.856357 19.8851 0.783115ZM5.3123 19.4969C5.3123 19.7122 5.13707 19.8875 4.92168 19.8875H1.1718C0.956406 19.8875 0.781172 19.7123 0.781172 19.4969V13.1298C0.781172 12.9144 0.956406 12.7392 1.1718 12.7392H2.65613V17.239C2.65613 17.4547 2.83105 17.6296 3.04676 17.6296C3.26246 17.6296 3.43738 17.4547 3.43738 17.239V12.7392H4.92172C5.13711 12.7392 5.31234 12.9144 5.31234 13.1298V19.4969H5.3123ZM6.48586 3.82257L9.60906 2.98569V4.43315L9.34727 4.50331C9.24715 4.53015 9.16187 4.59558 9.11008 4.6853C9.05828 4.77503 9.04422 4.88163 9.07105 4.98171C9.22117 5.5419 8.88754 6.11976 8.32734 6.26987C8.22715 6.29675 8.14172 6.36229 8.08996 6.45222C8.0382 6.5421 8.02426 6.6489 8.05133 6.74905L9.57395 12.3873H8.78996L8.38594 10.8066C8.37309 10.7563 8.35059 10.71 8.32047 10.6696L6.48586 3.82257ZM9.60906 6.22452V9.52065L8.8966 6.88257C9.19422 6.7289 9.43777 6.49897 9.60906 6.22452ZM15.2209 19.8875H7.81711C7.5302 19.8875 7.25312 19.7836 7.03687 19.5951L6.09355 18.7724V13.3698L7.79895 11.6644L8.10824 12.8745C8.15246 13.0475 8.3082 13.1684 8.48668 13.1684L16.1665 13.1689C16.4681 13.1689 16.7134 13.4142 16.7134 13.7157C16.7134 14.0173 16.4681 14.2626 16.1665 14.2626H12.2314C12.0157 14.2626 11.8407 14.4375 11.8407 14.6532C11.8407 14.8689 12.0157 15.0439 12.2314 15.0439H17.3892C17.6907 15.0439 17.9361 15.2892 17.9361 15.5907C17.9361 15.8923 17.6907 16.1376 17.3892 16.1376H12.2314C12.0157 16.1376 11.8407 16.3125 11.8407 16.5282C11.8407 16.7439 12.0157 16.9189 12.2314 16.9189H16.5534C16.8549 16.9189 17.1002 17.1642 17.1002 17.4657C17.1002 17.7673 16.8549 18.0126 16.5534 18.0126H12.2314C12.0157 18.0126 11.8407 18.1875 11.8407 18.4032C11.8407 18.6189 12.0157 18.7939 12.2314 18.7939H15.2209C15.5225 18.7939 15.7678 19.0392 15.7678 19.3407C15.7678 19.6421 15.5225 19.8875 15.2209 19.8875ZM19.2182 19.8875H19.2182H16.4307C16.5065 19.7205 16.549 19.5355 16.549 19.3406C16.549 19.1457 16.5065 18.9606 16.4307 18.7937H16.5534C17.2857 18.7937 17.8814 18.1979 17.8814 17.4656C17.8814 17.252 17.8305 17.0502 17.7405 16.8712C18.3028 16.7167 18.7172 16.2013 18.7172 15.5907C18.7172 15.2944 18.6196 15.0205 18.4551 14.7994V9.84866C18.4551 9.63296 18.2802 9.45804 18.0645 9.45804C17.8488 9.45804 17.6738 9.63296 17.6738 9.84866V14.2937C17.582 14.2735 17.4868 14.2626 17.3891 14.2626H17.3763C17.452 14.0957 17.4946 13.9107 17.4946 13.7157C17.4946 12.9834 16.8988 12.3876 16.1665 12.3876H15.5386C16.2053 12.1017 16.6736 11.439 16.6736 10.6687C16.6736 9.63788 15.835 8.79925 14.8042 8.79925C13.7734 8.79925 12.9348 9.63788 12.9348 10.6687C12.9348 11.439 13.4031 12.1017 14.0698 12.3876H11.9345V4.96022C12.6323 4.80815 13.183 4.25757 13.335 3.55972H16.2733C16.4254 4.25757 16.976 4.80815 17.6738 4.96022V6.17468C17.6738 6.39038 17.8487 6.5653 18.0644 6.5653C18.2801 6.5653 18.455 6.39038 18.455 6.17468V4.61147C18.455 4.39577 18.2801 4.22085 18.0644 4.22085C17.4845 4.22085 17.0127 3.74901 17.0127 3.16909C17.0127 2.95339 16.8378 2.77847 16.6221 2.77847H12.9863C12.7706 2.77847 12.5957 2.95339 12.5957 3.16909C12.5957 3.74905 12.1239 4.22085 11.5439 4.22085C11.3282 4.22085 11.1533 4.39577 11.1533 4.61147V12.3876H10.3904V1.45038L19.2182 1.44995V19.8875ZM14.8043 11.7569C14.2042 11.7569 13.7161 11.2687 13.7161 10.6687C13.7161 10.0687 14.2043 9.58054 14.8043 9.58054C15.4043 9.58054 15.8924 10.0687 15.8924 10.6687C15.8924 11.2687 15.4043 11.7569 14.8043 11.7569Z" fill="url(#paint2_radial_1165_5290)"/>
</g>
<defs>
<radialGradient id="paint0_radial_1165_5290" cx="0" cy="0" r="1" gradientUnits="userSpaceOnUse" gradientTransform="translate(2.61863 18.2176) rotate(52.6545) scale(1.34988 1.94638)">
<stop offset="0.151042" stop-color="#33A6FF"/>
<stop offset="0.907346" stop-color="#36C27F"/>
</radialGradient>
<radialGradient id="paint1_radial_1165_5290" cx="0" cy="0" r="1" gradientUnits="userSpaceOnUse" gradientTransform="translate(17.6362 7.59288) rotate(52.6421) scale(1.35011 1.94693)">
<stop offset="0.151042" stop-color="#33A6FF"/>
<stop offset="0.907346" stop-color="#36C27F"/>
</radialGradient>
<radialGradient id="paint2_radial_1165_5290" cx="0" cy="0" r="1" gradientUnits="userSpaceOnUse" gradientTransform="translate(-0.962939 -2.07856) rotate(52.6552) scale(34.5567 49.8265)">
<stop offset="0.151042" stop-color="#33A6FF"/>
<stop offset="0.907346" stop-color="#36C27F"/>
</radialGradient>
<clipPath id="clip0_1165_5290">
<rect width="20" height="20" fill="white" transform="translate(0 0.668701)"/>
</clipPath>
</defs>
</svg>
