<svg width="21" height="20" viewBox="0 0 21 20" fill="none" xmlns="http://www.w3.org/2000/svg">
<g clip-path="url(#clip0_1116_3297)">
<path d="M20.4243 5.88005C20.3775 4.81738 20.2056 4.0868 19.9595 3.45374C19.7055 2.78176 19.3148 2.18014 18.8029 1.68002C18.3028 1.1721 17.6972 0.777435 17.033 0.527447C16.3963 0.281274 15.6695 0.109427 14.6069 0.0625732C13.5363 0.0117516 13.1964 0 10.481 0C7.76564 0 7.42576 0.0117516 6.35911 0.0586052C5.29644 0.105459 4.56586 0.277459 3.93295 0.523479C3.26082 0.777435 2.65921 1.16814 2.15908 1.68002C1.65117 2.18014 1.25665 2.78573 1.00651 3.44992C0.760339 4.0868 0.588492 4.81341 0.541638 5.87609C0.490816 6.9467 0.479065 7.28658 0.479065 10.002C0.479065 12.7173 0.490816 13.0572 0.53767 14.1239C0.584524 15.1865 0.756524 15.9171 1.0027 16.5502C1.25665 17.2221 1.65117 17.8238 2.15908 18.3239C2.65921 18.8318 3.26479 19.2265 3.92898 19.4765C4.56586 19.7226 5.29247 19.8945 6.3553 19.9413C7.42179 19.9883 7.76182 19.9999 10.4772 19.9999C13.1926 19.9999 13.5324 19.9883 14.5991 19.9413C15.6618 19.8945 16.3923 19.7226 17.0252 19.4765C18.3694 18.9568 19.432 17.8941 19.9517 16.5502C20.1977 15.9133 20.3697 15.1865 20.4166 14.1239C20.4634 13.0572 20.4752 12.7173 20.4752 10.002C20.4752 7.28658 20.4712 6.9467 20.4243 5.88005ZM18.6233 14.0457C18.5803 15.0225 18.4162 15.5499 18.2795 15.9015C17.9434 16.7728 17.2519 17.4643 16.3806 17.8004C16.029 17.9372 15.4977 18.1012 14.5248 18.1441C13.4699 18.1911 13.1535 18.2027 10.485 18.2027C7.81646 18.2027 7.49611 18.1911 6.44504 18.1441C5.46828 18.1012 4.94084 17.9372 4.58921 17.8004C4.15562 17.6402 3.76095 17.3862 3.44061 17.0541C3.10851 16.7298 2.85456 16.3391 2.69431 15.9055C2.55756 15.5539 2.3935 15.0225 2.35061 14.0497C2.30361 12.9948 2.29201 12.6783 2.29201 10.0097C2.29201 7.34122 2.30361 7.02087 2.35061 5.96995C2.3935 4.99319 2.55756 4.46575 2.69431 4.11412C2.85456 3.68038 3.10851 3.28586 3.44458 2.96536C3.76874 2.63327 4.15944 2.37931 4.59318 2.21921C4.94481 2.08247 5.47622 1.9184 6.44901 1.87537C7.5039 1.82851 7.82043 1.81676 10.4888 1.81676C13.1613 1.81676 13.4777 1.82851 14.5287 1.87537C15.5055 1.9184 16.0329 2.08247 16.3846 2.21921C16.8181 2.37931 17.2128 2.63327 17.5332 2.96536C17.8653 3.28967 18.1192 3.68038 18.2795 4.11412C18.4162 4.46575 18.5803 4.99701 18.6233 5.96995C18.6702 7.02484 18.6819 7.34122 18.6819 10.0097C18.6819 12.6783 18.6702 12.9908 18.6233 14.0457Z" fill="#BB6BD9"/>
<path d="M10.4804 4.86426C7.64403 4.86426 5.34271 7.16543 5.34271 10.002C5.34271 12.8385 7.64403 15.1397 10.4804 15.1397C13.317 15.1397 15.6182 12.8385 15.6182 10.002C15.6182 7.16543 13.317 4.86426 10.4804 4.86426ZM10.4804 13.3347C8.64032 13.3347 7.14772 11.8422 7.14772 10.002C7.14772 8.16172 8.64032 6.66927 10.4804 6.66927C12.3207 6.66927 13.8131 8.16172 13.8131 10.002C13.8131 11.8422 12.3207 13.3347 10.4804 13.3347Z" fill="#BB6BD9"/>
<path d="M17.0202 4.66134C17.0202 5.3237 16.4831 5.86077 15.8206 5.86077C15.1582 5.86077 14.6212 5.3237 14.6212 4.66134C14.6212 3.99882 15.1582 3.46191 15.8206 3.46191C16.4831 3.46191 17.0202 3.99882 17.0202 4.66134Z" fill="#BB6BD9"/>
</g>
<defs>
<clipPath id="clip0_1116_3297">
<rect width="20" height="20" fill="white" transform="translate(0.444458)"/>
</clipPath>
</defs>
</svg>
