<svg width="20" height="20" viewBox="0 0 20 20" fill="none" xmlns="http://www.w3.org/2000/svg">
<g clip-path="url(#clip0_1116_3284)">
<path d="M19.8217 14.4723C19.768 14.3823 19.4354 13.6597 17.8353 12.1746C16.1602 10.6195 16.3852 10.872 18.4029 8.18309C19.6317 6.54547 20.123 5.54539 19.9692 5.11786C19.823 4.71033 18.9192 4.81784 18.9192 4.81784L15.9139 4.83534C15.9139 4.83534 15.6914 4.80534 15.5252 4.9041C15.3639 5.0016 15.2601 5.22662 15.2601 5.22662C15.2601 5.22662 14.7839 6.49421 14.1488 7.57179C12.81 9.84571 12.2737 9.96572 12.0549 9.82446C11.5461 9.49569 11.6736 8.50186 11.6736 7.79681C11.6736 5.5929 12.0074 4.67408 11.0223 4.43656C10.6948 4.35781 10.4548 4.3053 9.61848 4.29655C8.5459 4.2853 7.63709 4.3003 7.1233 4.55157C6.78077 4.71908 6.517 5.09286 6.67827 5.11411C6.87703 5.14036 7.32706 5.23537 7.56583 5.5604C7.8746 5.97918 7.86335 6.92175 7.86335 6.92175C7.86335 6.92175 8.04087 9.51569 7.44957 9.83821C7.04329 10.0595 6.487 9.6082 5.29316 7.54429C4.68187 6.48796 4.21934 5.31913 4.21934 5.31913C4.21934 5.31913 4.13058 5.10161 3.97182 4.98535C3.7793 4.84409 3.50929 4.79909 3.50929 4.79909L0.651577 4.81659C0.651577 4.81659 0.222795 4.82909 0.0652838 5.01536C-0.0747264 5.18162 0.054033 5.52414 0.054033 5.52414C0.054033 5.52414 2.2917 10.7583 4.82438 13.3972C7.1483 15.8162 9.78599 15.6574 9.78599 15.6574H10.9811C10.9811 15.6574 11.3424 15.6174 11.5261 15.4186C11.6961 15.2361 11.6899 14.8936 11.6899 14.8936C11.6899 14.8936 11.6661 13.2897 12.4112 13.0535C13.145 12.8209 14.0876 14.6036 15.0864 15.2899C15.8414 15.8087 16.4152 15.6949 16.4152 15.6949L19.0867 15.6574C19.0867 15.6574 20.4843 15.5711 19.8217 14.4723Z" fill="#036FC9"/>
</g>
<defs>
<clipPath id="clip0_1116_3284">
<rect width="20" height="20" fill="white"/>
</clipPath>
</defs>
</svg>
