<svg width="21" height="20" viewBox="0 0 21 20" fill="none" xmlns="http://www.w3.org/2000/svg">
<g clip-path="url(#clip0_1116_3295)">
<path d="M0.444458 10.0002C0.444458 14.095 2.9068 17.6128 6.43032 19.1595C6.40219 18.4612 6.42532 17.6229 6.60438 16.8631C6.79665 16.0513 7.8911 11.4141 7.8911 11.4141C7.8911 11.4141 7.57165 10.7755 7.57165 9.83187C7.57165 8.34992 8.43055 7.24312 9.50024 7.24312C10.4098 7.24312 10.8493 7.92633 10.8493 8.74445C10.8493 9.65883 10.2661 11.0266 9.96618 12.2934C9.71563 13.3541 10.4981 14.2194 11.5445 14.2194C13.4392 14.2194 14.7153 11.7859 14.7153 8.90258C14.7153 6.71086 13.2391 5.07039 10.5542 5.07039C7.52079 5.07039 5.63102 7.33258 5.63102 9.85945C5.63102 10.7307 5.8879 11.3451 6.29024 11.8209C6.47524 12.0394 6.50094 12.1273 6.43399 12.3782C6.38602 12.5622 6.27586 13.0052 6.23024 13.1807C6.16368 13.434 5.95844 13.5245 5.72954 13.431C4.33235 12.8606 3.68165 11.3305 3.68165 9.61055C3.68165 6.76984 6.07743 3.36359 10.8287 3.36359C14.6466 3.36359 17.1595 6.12641 17.1595 9.09211C17.1595 13.015 14.9786 15.9457 11.7638 15.9457C10.6841 15.9457 9.6686 15.3621 9.32071 14.6992C9.32071 14.6992 8.74016 17.0033 8.61719 17.4482C8.40516 18.2192 7.99016 18.9898 7.61071 19.5905C8.53083 19.8625 9.48535 20.0006 10.4448 20.0005C15.967 20.0005 20.4445 15.5233 20.4445 10.0002C20.4445 4.47727 15.967 0 10.4448 0C4.92211 0 0.444458 4.47727 0.444458 10.0002Z" fill="#CB1F27"/>
</g>
<defs>
<clipPath id="clip0_1116_3295">
<rect width="20" height="20" fill="white" transform="translate(0.444458)"/>
</clipPath>
</defs>
</svg>
