<svg width="21" height="20" viewBox="0 0 21 20" fill="none" xmlns="http://www.w3.org/2000/svg">
<g clip-path="url(#clip0_1116_3293)">
<path d="M10.4445 0.3125C5.09258 0.3125 0.756958 4.64875 0.756958 10C0.756958 15.3512 5.09321 19.6875 10.4445 19.6875C15.7963 19.6875 20.132 15.3512 20.132 10C20.132 4.64875 15.7957 0.3125 10.4445 0.3125ZM15.2026 6.94938L13.6126 14.4419C13.4951 14.9731 13.1788 15.1019 12.7376 14.8519L10.3157 13.0669L9.14758 14.1919C9.01883 14.3206 8.90946 14.43 8.65946 14.43L8.83133 11.965L13.3195 7.91C13.5151 7.73812 13.2763 7.64062 13.0182 7.8125L7.47133 11.3044L5.08071 10.5581C4.56133 10.3944 4.54946 10.0387 5.19008 9.78875L14.5301 6.18688C14.9638 6.03063 15.3426 6.2925 15.202 6.94875L15.2026 6.94938Z" fill="#288FE6"/>
</g>
<defs>
<clipPath id="clip0_1116_3293">
<rect width="20" height="20" fill="white" transform="translate(0.444458)"/>
</clipPath>
</defs>
</svg>
