<svg width="29" height="20" viewBox="0 0 29 20" fill="none" xmlns="http://www.w3.org/2000/svg">
<g clip-path="url(#clip0_1116_3290)">
<path d="M27.8161 3.11944C27.6529 2.51651 27.3347 1.96683 26.893 1.52514C26.4513 1.08346 25.9017 0.765179 25.2987 0.602C23.0914 0 14.2076 0 14.2076 0C14.2076 0 5.32339 0.0182222 3.11606 0.620222C2.51312 0.783411 1.96344 1.10171 1.52178 1.54341C1.08011 1.98512 0.761863 2.53482 0.598727 3.13778C-0.0689395 7.05978 -0.32794 13.036 0.61706 16.8011C0.780213 17.4041 1.09847 17.9537 1.54013 18.3954C1.9818 18.8371 2.53146 19.1554 3.13439 19.3186C5.34173 19.9206 14.2257 19.9206 14.2257 19.9206C14.2257 19.9206 23.1096 19.9206 25.3168 19.3186C25.9198 19.1554 26.4695 18.8371 26.9112 18.3954C27.3528 17.9538 27.6711 17.4041 27.8343 16.8011C28.5385 12.8736 28.7555 6.90111 27.8161 3.11956V3.11944Z" fill="#FF0000"/>
<path d="M11.3799 14.2287L18.7498 9.96007L11.3801 5.69141L11.3799 14.2287Z" fill="white"/>
</g>
<defs>
<clipPath id="clip0_1116_3290">
<rect width="28.4444" height="20" fill="white"/>
</clipPath>
</defs>
</svg>
