<svg width="472" height="588" viewBox="0 0 472 588" fill="none" xmlns="http://www.w3.org/2000/svg">
<g opacity="0.2">
<path d="M236 522.224C333.231 522.224 412.052 517.623 412.052 511.946C412.052 506.269 333.231 501.667 236 501.667C138.769 501.667 59.9478 506.269 59.9478 511.946C59.9478 517.623 138.769 522.224 236 522.224Z" fill="#536D82"/>
</g>
<g opacity="0.2">
<path opacity="0.2" d="M169.153 250.224L168.735 250.987L161.362 264.18C161.135 263.926 160.926 263.681 160.727 263.426L167.809 250.769L168.363 249.788L169.153 250.224Z" fill="black"/>
</g>
<g opacity="0.2">
<path opacity="0.2" d="M174.728 255.608L167.128 269.228L166.384 268.702L173.938 255.191L174.728 255.608Z" fill="black"/>
</g>
<g opacity="0.2">
<path opacity="0.2" d="M188.702 263.417L181.52 276.284L180.612 275.975L187.876 262.936L188.702 263.417Z" fill="black"/>
</g>
<g opacity="0.2">
<path opacity="0.2" d="M182.201 259.785L174.565 273.469L173.729 273.069L181.411 259.304L182.201 259.785Z" fill="black"/>
</g>
<g opacity="0.2">
<path opacity="0.2" d="M197.174 265.905L190.173 278.417C189.855 278.417 189.538 278.318 189.211 278.263L196.375 265.451L197.174 265.905Z" fill="black"/>
</g>
<g opacity="0.2">
<path opacity="0.2" d="M227.328 248.807L227.782 249.552L235.555 262.509C235.228 262.582 234.91 262.636 234.592 262.682L227.138 250.224L226.557 249.316L227.328 248.807Z" fill="black"/>
</g>
<g opacity="0.2">
<path opacity="0.2" d="M234.765 246.646L242.774 259.994C242.492 260.139 242.22 260.257 241.956 260.385L233.984 247.11L234.765 246.646Z" fill="black"/>
</g>
<g opacity="0.2">
<path opacity="0.2" d="M248.485 238.42L256.067 251.059L255.367 251.668L247.704 238.883L248.485 238.42Z" fill="black"/>
</g>
<g opacity="0.2">
<path opacity="0.2" d="M242.111 242.243L250.174 255.672C249.929 255.854 249.665 256.026 249.42 256.199L241.321 242.706L242.111 242.243Z" fill="black"/>
</g>
<g opacity="0.2">
<path opacity="0.2" d="M254.859 232.291L262.232 244.594C262.041 244.849 261.832 245.094 261.624 245.348L254.078 232.763L254.859 232.291Z" fill="black"/>
</g>
<g opacity="0.2">
<path opacity="0.2" d="M177.397 192.003L177.107 192.956L172.058 209.609C171.741 209.382 171.45 209.155 171.15 208.919L175.999 192.947L176.38 191.703L177.397 192.003Z" fill="black"/>
</g>
<g opacity="0.2">
<path opacity="0.2" d="M184.988 196.652L179.786 213.804C179.45 213.677 179.132 213.532 178.814 213.405L183.99 196.334L184.988 196.652Z" fill="black"/>
</g>
<g opacity="0.2">
<path opacity="0.2" d="M202.631 202.027L197.7 218.271L196.638 218.135L201.623 201.719L202.631 202.027Z" fill="black"/>
</g>
<g opacity="0.2">
<path opacity="0.2" d="M194.431 199.539L189.192 216.791C188.847 216.719 188.502 216.628 188.157 216.546L193.424 199.213L194.431 199.539Z" fill="black"/>
</g>
<g opacity="0.2">
<path opacity="0.2" d="M212.773 202.736L207.97 218.544C207.598 218.544 207.234 218.544 206.853 218.607L211.765 202.436L212.773 202.736Z" fill="black"/>
</g>
<path d="M229.757 157.357C227.75 162.233 215.937 161.897 203.561 156.794C191.185 151.691 182.768 143.601 184.774 138.725C185.246 137.599 186.59 133.377 187.934 132.796C192.547 130.844 201.327 135.229 210.834 139.152C219.687 142.784 229.811 145.154 231.382 149.957C232.326 152.881 230.329 155.968 229.757 157.357Z" fill="#FAC600"/>
<path opacity="0.2" d="M231.382 149.957C232.136 153.78 230.474 155.614 229.757 157.357C229.039 159.101 226.942 160.245 224.009 160.644C223.642 160.707 223.273 160.749 222.901 160.772C220.652 160.904 218.396 160.785 216.173 160.417C215.855 160.417 215.538 160.318 215.211 160.263C212.602 159.795 210.031 159.133 207.52 158.284L206.612 157.975C205.604 157.621 204.569 157.23 203.534 156.804C202.499 156.377 201.518 155.896 200.546 155.469L199.711 155.069C197.422 153.937 195.216 152.645 193.11 151.201L192.365 150.675C190.527 149.375 188.842 147.87 187.344 146.189C187.117 145.935 186.908 145.69 186.709 145.435C184.756 142.966 183.985 140.605 184.756 138.725C185.265 137.518 186.354 133.386 187.916 132.787C189.837 132.246 191.87 132.246 193.791 132.787L194.699 133.005C199.239 134.167 204.959 136.755 210.798 139.161C217.68 142.003 225.825 144.954 229.82 148.359C230.058 148.559 230.285 148.771 230.501 148.995C230.82 149.292 231.115 149.613 231.382 149.957Z" fill="black"/>
<path d="M231.328 153.108C229.321 157.984 217.653 157.793 205.268 152.681C192.883 147.569 184.475 139.488 186.491 134.612C188.506 129.736 200.165 129.936 212.55 135.039C224.935 140.142 233.334 148.205 231.328 153.108Z" fill="#FAC600"/>
<path opacity="0.2" d="M227.114 151.337C225.698 154.779 216.6 154.297 206.802 150.257C197.005 146.216 190.213 140.142 191.63 136.7C193.046 133.259 202.144 133.74 211.951 137.781C221.757 141.822 228.54 147.896 227.114 151.337Z" fill="white"/>
<path d="M292.336 113.283C295.569 117.451 289.413 127.539 278.816 135.738C268.22 143.937 257.024 147.206 253.801 143.002C253.056 142.039 250.042 138.816 250.223 137.309C250.832 132.342 258.994 126.912 267.13 120.611C274.703 114.745 281.776 107.136 286.725 108.162C289.73 108.825 291.419 112.103 292.336 113.283Z" fill="#FAC600"/>
<path opacity="0.2" d="M286.725 108.198C290.42 109.451 291.183 111.83 292.336 113.283C293.489 114.736 293.444 117.16 292.336 119.912C292.209 120.247 292.055 120.583 291.891 120.928C290.896 122.947 289.678 124.848 288.259 126.594C288.069 126.849 287.86 127.094 287.651 127.348C285.943 129.385 284.086 131.291 282.094 133.05L281.395 133.659C280.587 134.358 279.733 135.057 278.852 135.738C277.972 136.419 277.091 137.064 276.201 137.672C275.956 137.854 275.693 138.026 275.447 138.199C273.326 139.622 271.105 140.89 268.801 141.994C268.519 142.139 268.247 142.257 267.984 142.385C265.937 143.331 263.789 144.044 261.582 144.509C261.255 144.582 260.938 144.636 260.62 144.682C257.505 145.145 255.072 144.682 253.828 143.038C253.029 142.003 249.987 138.998 250.25 137.354C250.725 135.411 251.735 133.64 253.165 132.242C253.365 132.015 253.583 131.788 253.81 131.552C257.088 128.156 262.163 124.515 267.157 120.656C273.05 116.116 279.661 110.496 284.591 108.734C284.889 108.625 285.192 108.531 285.499 108.453C285.901 108.338 286.311 108.253 286.725 108.198Z" fill="black"/>
<path d="M276.067 131.174C286.656 122.972 292.624 112.945 289.397 108.779C286.169 104.612 274.969 107.883 264.379 116.085C253.79 124.287 247.822 134.314 251.049 138.481C254.277 142.648 265.477 139.377 276.067 131.174Z" fill="#FAC600"/>
<path opacity="0.2" d="M274.754 128.647C283.135 122.156 288.079 114.505 285.798 111.559C283.516 108.614 274.872 111.488 266.491 117.98C258.11 124.472 253.166 132.122 255.447 135.068C257.729 138.014 266.373 135.139 274.754 128.647Z" fill="white"/>
<path d="M248.507 92.7611C247.472 98.7357 234.07 101.26 218.888 98.536C203.706 95.812 192.256 88.7931 193.319 82.8185C193.564 81.4293 193.99 76.3717 195.416 75.3638C200.129 72.0405 211.079 74.819 222.738 76.8893C233.634 78.8233 245.556 78.9776 248.507 83.9989C250.296 87.0861 248.806 91.054 248.507 92.7611Z" fill="#FAC600"/>
<path opacity="0.2" d="M248.507 84.008C250.323 88.1303 248.879 90.591 248.507 92.7339C248.134 94.8768 246.055 96.6655 242.859 97.8459C242.469 98.0003 242.06 98.1274 241.642 98.2545C239.142 98.9572 236.572 99.3805 233.979 99.5166C233.606 99.5166 233.243 99.5166 232.862 99.5802C229.807 99.6925 226.748 99.5802 223.709 99.2442L222.647 99.108C221.421 98.9537 220.159 98.7721 218.897 98.5451C217.635 98.3181 216.409 98.0638 215.201 97.7824C214.856 97.7097 214.511 97.6189 214.166 97.5372C211.313 96.8328 208.516 95.9224 205.794 94.8132C205.459 94.6861 205.141 94.5408 204.823 94.4137C202.435 93.3971 200.169 92.1148 198.067 90.591C197.75 90.364 197.459 90.137 197.159 89.9009C194.345 87.6037 192.901 85.1339 193.309 82.8367C193.582 81.3476 193.8 76.4807 195.398 75.382C196.996 74.2833 199.284 73.9383 202.008 73.9292H203.098C208.546 74.1108 215.565 75.6272 222.729 76.8984C231.173 78.4056 241.061 79.7222 246.382 82.5734C246.694 82.7388 246.997 82.9206 247.29 83.1182C247.718 83.3826 248.125 83.6802 248.507 84.008Z" fill="black"/>
<path d="M249.214 87.5447C250.277 81.5707 238.828 74.537 223.641 71.8346C208.454 69.1321 195.281 71.7843 194.218 77.7583C193.155 83.7322 204.604 90.7659 219.791 93.4683C234.978 96.1708 248.151 93.5187 249.214 87.5447Z" fill="#FAC600"/>
<path opacity="0.2" d="M244.046 86.6314C244.797 82.4101 235.664 77.2546 223.647 75.1161C211.63 72.9777 201.279 74.6663 200.528 78.8875C199.777 83.1088 208.91 88.2644 220.927 90.4028C232.944 92.5412 243.294 90.8527 244.046 86.6314Z" fill="white"/>
<path d="M324.557 245.759L199.93 253.025C195.528 253.285 191.208 254.335 187.178 256.126L51.8098 316.677C49.4346 317.721 47.4896 319.548 46.2994 321.854C45.1092 324.159 44.7459 326.803 45.2702 329.344L67.6379 435.127C68.016 436.831 68.7787 438.425 69.8676 439.789C70.9564 441.152 72.3426 442.249 73.9202 442.994C75.4978 443.74 77.225 444.115 78.9698 444.09C80.7145 444.066 82.4306 443.643 83.9868 442.854L217.599 376.15L340.979 372.021C342.497 371.98 343.989 371.617 345.356 370.955C346.723 370.292 347.933 369.347 348.905 368.18C349.878 367.014 350.591 365.654 350.997 364.19C351.403 362.727 351.493 361.193 351.26 359.693L334.754 258.402C333.894 253.171 329.922 245.602 324.557 245.759Z" fill="#57B3FF"/>
<path opacity="0.1" d="M324.557 245.759L199.93 253.025C195.528 253.285 191.208 254.335 187.178 256.126L51.8098 316.677C49.4346 317.721 47.4896 319.548 46.2994 321.854C45.1092 324.159 44.7459 326.803 45.2702 329.344L67.6379 435.127C68.016 436.831 68.7787 438.425 69.8676 439.789C70.9564 441.152 72.3426 442.249 73.9202 442.994C75.4978 443.74 77.225 444.115 78.9698 444.09C80.7145 444.066 82.4306 443.643 83.9868 442.854L217.599 376.15L340.979 372.021C342.497 371.98 343.989 371.617 345.356 370.955C346.723 370.292 347.933 369.347 348.905 368.18C349.878 367.014 350.591 365.654 350.997 364.19C351.403 362.727 351.493 361.193 351.26 359.693L334.754 258.402C333.894 253.171 329.922 245.602 324.557 245.759Z" fill="black"/>
<path d="M74.4063 176.882L9.00415 237.169L126.371 364.492L191.773 304.204L74.4063 176.882Z" fill="#57B3FF"/>
<path d="M191.756 304.215L126.348 364.5L9 237.185L51.9188 197.621L74.4075 176.888L78.1496 180.957L191.756 304.215Z" fill="#5CE9A5"/>
<path d="M74.8263 184.665L17.1174 237.861L126.9 356.957L184.609 303.76L74.8263 184.665Z" stroke="#57B3FF" stroke-miterlimit="10"/>
<path d="M113.848 284.911C120.468 278.809 119.63 267.133 111.978 258.832C104.326 250.531 92.7573 248.748 86.138 254.85C79.5188 260.951 80.356 272.627 88.008 280.928C95.66 289.229 107.229 291.012 113.848 284.911Z" fill="#20AA68"/>
<path opacity="0.1" d="M125.658 312.826L102.419 320.855L51.9189 197.621L74.4077 176.888L78.1498 180.957L125.658 312.826Z" fill="black"/>
<path d="M130.186 127L46.5635 157.32L105.59 320.114L189.213 289.794L130.186 127Z" fill="#57B3FF"/>
<path d="M130.186 127L46.5635 157.32L105.59 320.114L189.213 289.794L130.186 127Z" fill="#5CE9A5"/>
<path d="M127.557 134.341L53.7715 161.095L108.984 313.369L182.77 286.615L127.557 134.341Z" stroke="#57B3FF" stroke-miterlimit="10"/>
<path d="M124.812 241.869C133.275 238.8 137.016 227.708 133.168 217.094C129.319 206.481 119.339 200.364 110.875 203.433C102.412 206.502 98.671 217.593 102.519 228.207C106.368 238.821 116.348 244.937 124.812 241.869Z" fill="#20AA68"/>
<path d="M325.368 250.058L202.449 256.985C198.092 257.224 193.817 258.271 189.842 260.074L56.46 320.286C54.1106 321.348 52.1939 323.179 51.0269 325.478C49.8598 327.777 49.5122 330.406 50.0416 332.929L72.4092 438.76C72.7695 440.453 73.5131 442.041 74.5829 443.402C75.6526 444.763 77.0201 445.86 78.5802 446.61C80.1403 447.359 81.8515 447.741 83.5823 447.726C85.3131 447.711 87.0174 447.3 88.5643 446.523L220.203 380.195L341.887 376.344C343.393 376.296 344.872 375.928 346.225 375.263C347.577 374.599 348.773 373.653 349.731 372.49C350.689 371.326 351.388 369.972 351.781 368.517C352.174 367.062 352.253 365.54 352.011 364.052L335.456 262.774C334.596 257.494 330.673 249.913 325.368 250.058Z" fill="#20C1EA"/>
<path opacity="0.2" d="M207.451 275.514L312.919 269.023" stroke="black" stroke-width="2" stroke-linecap="round" stroke-linejoin="round"/>
<path opacity="0.2" d="M194.82 278.239L214.087 366.741" stroke="black" stroke-width="2" stroke-linecap="round" stroke-linejoin="round"/>
<path opacity="0.2" d="M66.3542 358.142L79.9419 426.214C79.9419 426.214 90.3568 399.208 66.3542 358.142Z" fill="#FAFAFA"/>
<path opacity="0.2" d="M68.1345 358.942C68.6068 360.153 188.825 308.563 188.825 308.563C189.151 320.259 186.227 331.817 180.377 341.951C174.528 352.084 165.983 360.398 155.692 365.966C119.506 386.25 68.1345 358.942 68.1345 358.942Z" fill="#FAFAFA"/>
<path d="M147.989 360.952C150.865 360.952 153.197 358.621 153.197 355.745C153.197 352.869 150.865 350.537 147.989 350.537C145.113 350.537 142.782 352.869 142.782 355.745C142.782 358.621 145.113 360.952 147.989 360.952Z" fill="#57B3FF"/>
<path opacity="0.2" d="M188.886 308.563C188.886 308.563 203.793 331.003 200.185 369.223L188.886 308.563Z" fill="black"/>
<g opacity="0.2">
<path opacity="0.2" d="M60.6018 331.403L63.375 330.18" stroke="#FAFAFA" stroke-linecap="round" stroke-linejoin="round"/>
<path opacity="0.2" d="M69.1274 327.637L181.39 278.009" stroke="#FAFAFA" stroke-linecap="round" stroke-linejoin="round" stroke-dasharray="5.2 5.2"/>
<path opacity="0.2" d="M184.272 276.737L187.033 275.514" stroke="#FAFAFA" stroke-linecap="round" stroke-linejoin="round"/>
</g>
<path opacity="0.2" d="M210.987 295.411L316.455 288.908" stroke="black" stroke-width="2" stroke-linecap="round" stroke-linejoin="round"/>
<path opacity="0.2" d="M215.734 320.225L321.203 313.722" stroke="black" stroke-width="2" stroke-linecap="round" stroke-linejoin="round"/>
<path d="M288.803 231.614C288.803 231.614 286.412 257.093 276.943 259.288C271.079 260.554 264.966 259.943 259.469 257.54L251.77 251.621L248.013 264.727C248.013 264.727 252.119 270.307 260.692 266.441C260.692 266.441 275.982 273.169 284.435 266.441C292.888 259.714 295.596 241.257 295.596 241.257L288.803 231.614Z" fill="#FFAB9F"/>
<path d="M296.415 219.273C296.415 219.273 289.808 208.013 292.811 187.601C295.815 167.189 312.928 164.667 319.535 166.141C326.143 167.615 331.549 173.961 336.048 186.039C340.548 198.118 342.208 201.264 349.711 199.145C357.214 197.026 377.178 190.408 382.736 196.294C384.335 197.902 385.514 199.879 386.167 202.051C386.82 204.222 386.929 206.521 386.482 208.745C386.482 208.745 414.255 201.995 411.852 226.765C409.45 251.534 369.369 274.654 331.243 250.18C293.117 225.705 296.415 219.273 296.415 219.273Z" fill="#263238"/>
<path d="M296.11 279.219C296.11 279.219 288.563 344.124 288.814 374.561C289.065 404.998 299.877 476.729 299.877 476.729H313.212C313.212 476.729 311.454 419.371 311.705 399.745C311.956 380.12 315.473 347.651 315.473 347.651C315.473 347.651 319.743 376.833 324.778 387.142C329.812 397.452 357.738 433.94 377.112 445.265L386.166 436.954C386.166 436.954 366.038 412.053 358.491 399.723C350.945 387.393 344.163 383.899 341.389 360.964C338.615 338.03 343.409 301.345 335.36 279.208L296.11 279.219Z" fill="#263238"/>
<path opacity="0.2" d="M315.473 347.651L309.674 306.511C309.674 306.511 305.098 331.237 314.108 361.434L315.473 347.651Z" fill="black"/>
<path d="M302.619 480.366L303.066 493.111L312.011 493.853L312.459 492.663V479.47L302.619 480.366Z" fill="#FFAB9F"/>
<path d="M298.37 475.517L299.189 480.289L314.545 480.66L315.517 474.927L298.37 475.517Z" fill="#57B3FF"/>
<path d="M372.908 446.15L387.138 432.891L390.272 437.882L378.052 449.065L372.908 446.15Z" fill="#57B3FF"/>
<path d="M379.766 446.15L389.158 454.056L395.187 446.969L387.476 438.996L379.766 446.15Z" fill="#FFAB9F"/>
<path d="M397.011 446.423L402.69 449.917C402.948 450.077 403.169 450.291 403.336 450.545C403.504 450.798 403.614 451.086 403.658 451.386C403.703 451.687 403.682 451.994 403.595 452.285C403.509 452.577 403.36 452.846 403.159 453.074C399.042 457.726 388.525 469.543 387.476 470.373C386.177 471.465 384.604 469.63 384.2 467.992C384.2 467.992 387.181 464.038 387.476 461.505C387.6 459.548 387.6 457.586 387.476 455.629C387.453 455.139 387.617 454.659 387.935 454.286L394.28 446.838C394.608 446.449 395.065 446.193 395.567 446.117C396.07 446.041 396.582 446.149 397.011 446.423Z" fill="#263238"/>
<path d="M314.195 494.203L315.375 500.756C315.429 501.055 315.417 501.363 315.339 501.658C315.262 501.952 315.121 502.226 314.926 502.46C314.732 502.694 314.488 502.883 314.213 503.013C313.937 503.143 313.637 503.211 313.332 503.213C307.118 503.213 291.304 503.278 289.983 503.06C288.334 502.787 288.629 500.428 289.601 499.052C289.601 499.052 294.526 498.637 296.59 497.141C298.125 495.936 299.584 494.638 300.959 493.253C301.31 492.909 301.778 492.71 302.269 492.696L312.044 492.466C312.551 492.448 313.049 492.613 313.444 492.933C313.839 493.252 314.106 493.703 314.195 494.203Z" fill="#263238"/>
<path d="M336.791 243.223L350.421 233.656C350.421 233.656 346.795 219.153 341.422 218.432C336.048 217.711 309.379 212.633 292.418 218.432C292.418 218.432 286.324 220.168 284.446 237.282L291.697 239.597C291.697 239.597 294.297 271.64 295.902 276.576H334.607C334.607 276.576 335.044 249.022 336.791 243.223Z" fill="#FAC600"/>
<path d="M339.729 241.159C339.729 241.159 344.895 255.902 345.812 263.831C345.812 263.831 333.537 258.938 330.37 256.7L327.967 248.072L319.842 244.107L317.428 250.66L324.21 259.069C324.21 259.069 342.7 276.369 352.07 272.415C361.44 268.462 348.368 235.13 348.368 235.13L339.729 241.159Z" fill="#FFAB9F"/>
<path d="M305.054 176.604C305.054 176.604 300.325 186.039 300.686 193.717C301.046 201.395 304.923 204.529 312.295 205.61C312.295 205.61 315.44 215.439 307.184 216.433C306.55 216.51 306.332 219.011 306.376 219.415C306.594 221.009 308.178 221.883 309.652 222.254C311.205 222.598 312.79 222.774 314.381 222.778C316.051 222.836 317.712 222.513 319.239 221.834C320.766 221.154 322.119 220.137 323.194 218.858C323.369 218.65 325.029 216.531 325.029 216.531C325.029 216.531 321.086 214.577 322.473 201.777C324.355 200.552 325.8 198.763 326.602 196.666C327.355 196.266 328.021 195.72 328.561 195.06C329.101 194.4 329.504 193.639 329.747 192.821C330.337 190.266 328.076 186.727 323.948 190.266C323.948 190.266 316.172 186.334 313.223 172.563C311.037 174.796 308.156 176.221 305.054 176.604Z" fill="#FFAB9F"/>
<path d="M307.271 191.62L307.937 186.575L304.366 190.528C304.734 190.92 305.188 191.223 305.692 191.412C306.195 191.601 306.736 191.672 307.271 191.62Z" fill="#A24E3F"/>
<path d="M309.346 195.311C309.346 195.311 313.114 195.89 314.927 193.477" stroke="#222221" stroke-width="0.75" stroke-linecap="round" stroke-linejoin="round"/>
<path d="M313.114 179.509C313.969 179.265 314.874 179.258 315.734 179.487C316.593 179.715 317.375 180.172 317.996 180.808" stroke="#222221" stroke-linecap="round" stroke-linejoin="round"/>
<path d="M306.594 178.416C306.594 178.416 304.41 178.078 303.438 179.312" stroke="#222221" stroke-linecap="round" stroke-linejoin="round"/>
<path d="M314.632 186.149C314.534 186.913 314.042 187.47 313.54 187.405C313.038 187.339 312.699 186.673 312.797 185.908C312.896 185.144 313.387 184.587 313.889 184.652C314.392 184.718 314.73 185.384 314.632 186.149Z" fill="#222221"/>
<path d="M305.914 184.458C306.012 183.699 305.68 183.029 305.172 182.963C304.663 182.897 304.171 183.46 304.073 184.219C303.974 184.979 304.306 185.648 304.815 185.714C305.323 185.78 305.815 185.218 305.914 184.458Z" fill="#222221"/>
<path d="M313.9 184.652L312.175 183.899C312.198 184.088 312.269 184.267 312.383 184.42C312.496 184.573 312.648 184.693 312.822 184.769C312.996 184.845 313.188 184.875 313.377 184.854C313.566 184.834 313.746 184.764 313.9 184.652Z" fill="#222221"/>
<path d="M305.338 183.036L303.613 182.283C303.635 182.471 303.707 182.651 303.82 182.804C303.934 182.956 304.085 183.077 304.26 183.153C304.434 183.229 304.625 183.258 304.814 183.238C305.004 183.217 305.184 183.148 305.338 183.036Z" fill="#222221"/>
<path d="M294.548 274.872V279.427L336.485 279.776L335.36 274.359L294.548 274.872Z" fill="#57B3FF"/>
<path opacity="0.4" d="M294.548 274.872V279.427L336.485 279.776L335.36 274.359L294.548 274.872Z" fill="white"/>
</svg>
