<svg width="20" height="21" viewBox="0 0 20 21" fill="none" xmlns="http://www.w3.org/2000/svg">
<g clip-path="url(#clip0_1165_8583)">
<path d="M9.84375 20.5H8.28125C7.50582 20.5 6.875 19.8692 6.875 19.0938V9.40625C6.875 8.63082 7.50582 8 8.28125 8H9.84375C10.6192 8 11.25 8.63082 11.25 9.40625V19.0938C11.25 19.8692 10.6191 20.5 9.84375 20.5ZM8.28125 9.25C8.19508 9.25 8.125 9.32008 8.125 9.40625V19.0938C8.125 19.1799 8.19508 19.25 8.28125 19.25H9.84375C9.92992 19.25 10 19.1799 10 19.0938V9.40625C10 9.32008 9.92992 9.25 9.84375 9.25H8.28125Z" fill="white"/>
<path d="M9.84375 20.5H8.28125C7.50582 20.5 6.875 19.8692 6.875 19.0938V9.40625C6.875 8.63082 7.50582 8 8.28125 8H9.84375C10.6192 8 11.25 8.63082 11.25 9.40625V19.0938C11.25 19.8692 10.6191 20.5 9.84375 20.5ZM8.28125 9.25C8.19508 9.25 8.125 9.32008 8.125 9.40625V19.0938C8.125 19.1799 8.19508 19.25 8.28125 19.25H9.84375C9.92992 19.25 10 19.1799 10 19.0938V9.40625C10 9.32008 9.92992 9.25 9.84375 9.25H8.28125Z" fill="url(#paint0_radial_1165_8583)"/>
<path d="M3.90625 20.5H2.34375C1.56832 20.5 0.9375 19.8692 0.9375 19.0938V12.5312C0.9375 11.7558 1.56832 11.125 2.34375 11.125H3.90625C4.68168 11.125 5.3125 11.7558 5.3125 12.5312V19.0938C5.3125 19.8692 4.68164 20.5 3.90625 20.5ZM2.34375 12.375C2.25758 12.375 2.1875 12.4451 2.1875 12.5312V19.0938C2.1875 19.1799 2.25758 19.25 2.34375 19.25H3.90625C3.99242 19.25 4.0625 19.1799 4.0625 19.0938V12.5312C4.0625 12.4451 3.99242 12.375 3.90625 12.375H2.34375Z" fill="white"/>
<path d="M3.90625 20.5H2.34375C1.56832 20.5 0.9375 19.8692 0.9375 19.0938V12.5312C0.9375 11.7558 1.56832 11.125 2.34375 11.125H3.90625C4.68168 11.125 5.3125 11.7558 5.3125 12.5312V19.0938C5.3125 19.8692 4.68164 20.5 3.90625 20.5ZM2.34375 12.375C2.25758 12.375 2.1875 12.4451 2.1875 12.5312V19.0938C2.1875 19.1799 2.25758 19.25 2.34375 19.25H3.90625C3.99242 19.25 4.0625 19.1799 4.0625 19.0938V12.5312C4.0625 12.4451 3.99242 12.375 3.90625 12.375H2.34375Z" fill="url(#paint1_radial_1165_8583)"/>
<path d="M15.7812 20.5H14.2187C13.4433 20.5 12.8125 19.8692 12.8125 19.0938V6.125H11.9539C11.5525 6.125 11.1989 5.89844 11.0312 5.53375C10.8634 5.16906 10.9215 4.7532 11.1828 4.4484C11.1857 4.44492 11.1888 4.44145 11.1918 4.43805L14.5345 0.707891C14.6531 0.575586 14.8223 0.5 15 0.5C15.1776 0.5 15.3469 0.575586 15.4655 0.707891L18.8082 4.43805C18.8112 4.44145 18.8143 4.44492 18.8172 4.4484C19.0785 4.75316 19.1366 5.16906 18.9688 5.53375C18.8011 5.89844 18.4475 6.125 18.0461 6.125H17.1875V19.0938C17.1875 19.8692 16.5566 20.5 15.7812 20.5ZM12.4787 4.875H13.4375C13.7826 4.875 14.0625 5.15484 14.0625 5.5V19.0938C14.0625 19.1799 14.1326 19.25 14.2187 19.25H15.7812C15.8674 19.25 15.9375 19.1799 15.9375 19.0938V5.5C15.9375 5.15484 16.2173 4.875 16.5625 4.875H17.5212L15 2.06152L12.4787 4.875Z" fill="white"/>
<path d="M15.7812 20.5H14.2187C13.4433 20.5 12.8125 19.8692 12.8125 19.0938V6.125H11.9539C11.5525 6.125 11.1989 5.89844 11.0312 5.53375C10.8634 5.16906 10.9215 4.7532 11.1828 4.4484C11.1857 4.44492 11.1888 4.44145 11.1918 4.43805L14.5345 0.707891C14.6531 0.575586 14.8223 0.5 15 0.5C15.1776 0.5 15.3469 0.575586 15.4655 0.707891L18.8082 4.43805C18.8112 4.44145 18.8143 4.44492 18.8172 4.4484C19.0785 4.75316 19.1366 5.16906 18.9688 5.53375C18.8011 5.89844 18.4475 6.125 18.0461 6.125H17.1875V19.0938C17.1875 19.8692 16.5566 20.5 15.7812 20.5ZM12.4787 4.875H13.4375C13.7826 4.875 14.0625 5.15484 14.0625 5.5V19.0938C14.0625 19.1799 14.1326 19.25 14.2187 19.25H15.7812C15.8674 19.25 15.9375 19.1799 15.9375 19.0938V5.5C15.9375 5.15484 16.2173 4.875 16.5625 4.875H17.5212L15 2.06152L12.4787 4.875Z" fill="url(#paint2_radial_1165_8583)"/>
</g>
<defs>
<radialGradient id="paint0_radial_1165_8583" cx="0" cy="0" r="1" gradientUnits="userSpaceOnUse" gradientTransform="translate(6.66435 6.28297) rotate(75.0471) scale(17.7721 13.2462)">
<stop offset="0.151042" stop-color="#33A6FF"/>
<stop offset="0.907346" stop-color="#36C27F"/>
</radialGradient>
<radialGradient id="paint1_radial_1165_8583" cx="0" cy="0" r="1" gradientUnits="userSpaceOnUse" gradientTransform="translate(0.726851 9.83723) rotate(70.3996) scale(13.6698 12.916)">
<stop offset="0.151042" stop-color="#33A6FF"/>
<stop offset="0.907346" stop-color="#36C27F"/>
</radialGradient>
<radialGradient id="paint2_radial_1165_8583" cx="0" cy="0" r="1" gradientUnits="userSpaceOnUse" gradientTransform="translate(10.5452 -2.24725) rotate(72.7732) scale(28.7628 24.3259)">
<stop offset="0.151042" stop-color="#33A6FF"/>
<stop offset="0.907346" stop-color="#36C27F"/>
</radialGradient>
<clipPath id="clip0_1165_8583">
<rect width="20" height="20" fill="white" transform="translate(0 0.5)"/>
</clipPath>
</defs>
</svg>
