<svg width="20" height="21" viewBox="0 0 20 21" fill="none" xmlns="http://www.w3.org/2000/svg">
<g clip-path="url(#clip0_1165_8523)">
<path d="M17.2697 9.35602V3.71266C17.2697 2.7389 16.4067 2.05284 15.4329 2.05284H13.9501V0.857833C13.9767 0.688776 13.8611 0.530266 13.692 0.503749C13.6602 0.49875 13.6278 0.49875 13.5961 0.503749H11.4936C11.2502 0.503749 11.0731 0.614392 11.0731 0.857833V2.05288H6.20439V0.857833C6.20439 0.614392 5.91668 0.503749 5.67324 0.503749H3.57081C3.32736 0.503749 3.10608 0.614392 3.10608 0.857833V2.05288H1.75612C0.782358 2.05288 0.0078125 2.73894 0.0078125 3.7127V16.5485C0.0078125 17.5223 0.7824 18.2083 1.75612 18.2083H9.14779C11.2434 20.8362 15.0726 21.2677 17.7005 19.172C19.1397 18.0243 19.9821 16.2869 19.9918 14.4461C19.956 12.4103 18.943 10.5161 17.2697 9.35602ZM11.9584 1.38894H13.0649V3.38069H11.9584V1.38894ZM3.99131 1.38894H5.31916V3.38069H3.99131V1.38894ZM0.893001 3.71266C0.893001 3.22578 1.26924 2.93807 1.75612 2.93807H3.10608V3.77904C3.11629 4.03523 3.31542 4.24381 3.57081 4.26592H5.67324C5.94256 4.2483 6.16342 4.04582 6.20439 3.77904V2.93811H11.0732V3.77908C11.0602 4.02781 11.2456 4.24258 11.4937 4.26596H13.5961C13.8395 4.26596 13.9502 4.02252 13.9502 3.77908V2.93811H15.4329C15.9198 2.93811 16.3845 3.22582 16.3845 3.7127V6.47904H0.893001V3.71266ZM1.75612 17.3231C1.26924 17.3231 0.893001 17.0354 0.893001 16.5485V7.36423H16.3845V8.89125C15.6069 8.5594 14.7732 8.37916 13.928 8.3601C10.5668 8.36417 7.84531 11.0922 7.84938 14.4534C7.85061 15.4549 8.09892 16.4405 8.57233 17.3231H1.75612V17.3231ZM13.8838 19.6247C11.0115 19.6369 8.67319 17.3183 8.66099 14.4461C8.64879 11.5738 10.9673 9.2355 13.8396 9.2233C16.7118 9.21111 19.0501 11.5297 19.0623 14.4019C19.0624 14.4166 19.0624 14.4313 19.0623 14.4461C19.0623 17.3062 16.7438 19.6247 13.8838 19.6247Z" fill="white"/>
<path d="M17.2697 9.35602V3.71266C17.2697 2.7389 16.4067 2.05284 15.4329 2.05284H13.9501V0.857833C13.9767 0.688776 13.8611 0.530266 13.692 0.503749C13.6602 0.49875 13.6278 0.49875 13.5961 0.503749H11.4936C11.2502 0.503749 11.0731 0.614392 11.0731 0.857833V2.05288H6.20439V0.857833C6.20439 0.614392 5.91668 0.503749 5.67324 0.503749H3.57081C3.32736 0.503749 3.10608 0.614392 3.10608 0.857833V2.05288H1.75612C0.782358 2.05288 0.0078125 2.73894 0.0078125 3.7127V16.5485C0.0078125 17.5223 0.7824 18.2083 1.75612 18.2083H9.14779C11.2434 20.8362 15.0726 21.2677 17.7005 19.172C19.1397 18.0243 19.9821 16.2869 19.9918 14.4461C19.956 12.4103 18.943 10.5161 17.2697 9.35602ZM11.9584 1.38894H13.0649V3.38069H11.9584V1.38894ZM3.99131 1.38894H5.31916V3.38069H3.99131V1.38894ZM0.893001 3.71266C0.893001 3.22578 1.26924 2.93807 1.75612 2.93807H3.10608V3.77904C3.11629 4.03523 3.31542 4.24381 3.57081 4.26592H5.67324C5.94256 4.2483 6.16342 4.04582 6.20439 3.77904V2.93811H11.0732V3.77908C11.0602 4.02781 11.2456 4.24258 11.4937 4.26596H13.5961C13.8395 4.26596 13.9502 4.02252 13.9502 3.77908V2.93811H15.4329C15.9198 2.93811 16.3845 3.22582 16.3845 3.7127V6.47904H0.893001V3.71266ZM1.75612 17.3231C1.26924 17.3231 0.893001 17.0354 0.893001 16.5485V7.36423H16.3845V8.89125C15.6069 8.5594 14.7732 8.37916 13.928 8.3601C10.5668 8.36417 7.84531 11.0922 7.84938 14.4534C7.85061 15.4549 8.09892 16.4405 8.57233 17.3231H1.75612V17.3231ZM13.8838 19.6247C11.0115 19.6369 8.67319 17.3183 8.66099 14.4461C8.64879 11.5738 10.9673 9.2355 13.8396 9.2233C16.7118 9.21111 19.0501 11.5297 19.0623 14.4019C19.0624 14.4166 19.0624 14.4313 19.0623 14.4461C19.0623 17.3062 16.7438 19.6247 13.8838 19.6247Z" fill="url(#paint0_radial_1165_8523)"/>
<path d="M15.9636 14.446H13.9497V11.7904C13.9497 11.5459 13.7515 11.3477 13.5071 11.3477C13.2626 11.3477 13.0645 11.5459 13.0645 11.7904V14.8887C13.1081 15.147 13.3336 15.3349 13.5956 15.3313H15.9636C16.208 15.3313 16.4062 15.1331 16.4062 14.8887C16.4062 14.6442 16.208 14.446 15.9636 14.446Z" fill="white"/>
<path d="M15.9636 14.446H13.9497V11.7904C13.9497 11.5459 13.7515 11.3477 13.5071 11.3477C13.2626 11.3477 13.0645 11.5459 13.0645 11.7904V14.8887C13.1081 15.147 13.3336 15.3349 13.5956 15.3313H15.9636C16.208 15.3313 16.4062 15.1331 16.4062 14.8887C16.4062 14.6442 16.208 14.446 15.9636 14.446Z" fill="url(#paint1_radial_1165_8523)"/>
</g>
<defs>
<radialGradient id="paint0_radial_1165_8523" cx="0" cy="0" r="1" gradientUnits="userSpaceOnUse" gradientTransform="translate(-0.954382 -2.24725) rotate(52.6765) scale(34.5468 49.8021)">
<stop offset="0.151042" stop-color="#33A6FF"/>
<stop offset="0.907346" stop-color="#36C27F"/>
</radialGradient>
<radialGradient id="paint1_radial_1165_8523" cx="0" cy="0" r="1" gradientUnits="userSpaceOnUse" gradientTransform="translate(12.9036 10.8006) rotate(57.3763) scale(6.49698 8.82021)">
<stop offset="0.151042" stop-color="#33A6FF"/>
<stop offset="0.907346" stop-color="#36C27F"/>
</radialGradient>
<clipPath id="clip0_1165_8523">
<rect width="20" height="20" fill="white" transform="translate(0 0.5)"/>
</clipPath>
</defs>
</svg>
