<svg width="20" height="21" viewBox="0 0 20 21" fill="none" xmlns="http://www.w3.org/2000/svg">
<g clip-path="url(#clip0_1165_8540)">
<path d="M10.0005 3.97824C8.32227 3.97824 6.95703 5.34344 6.95703 7.02173C6.95703 8.70002 8.32223 10.0652 10.0005 10.0652C11.6788 10.0652 13.044 8.69998 13.044 7.02173C13.044 5.34348 11.6788 3.97824 10.0005 3.97824ZM10.0005 9.19563C8.80227 9.19563 7.82662 8.21998 7.82662 7.02173C7.82662 5.82348 8.80227 4.84783 10.0005 4.84783C11.1988 4.84783 12.1744 5.82348 12.1744 7.02173C12.1744 8.21998 11.1988 9.19563 10.0005 9.19563Z" fill="white"/>
<path d="M10.0005 3.97824C8.32227 3.97824 6.95703 5.34344 6.95703 7.02173C6.95703 8.70002 8.32223 10.0652 10.0005 10.0652C11.6788 10.0652 13.044 8.69998 13.044 7.02173C13.044 5.34348 11.6788 3.97824 10.0005 3.97824ZM10.0005 9.19563C8.80227 9.19563 7.82662 8.21998 7.82662 7.02173C7.82662 5.82348 8.80227 4.84783 10.0005 4.84783C11.1988 4.84783 12.1744 5.82348 12.1744 7.02173C12.1744 8.21998 11.1988 9.19563 10.0005 9.19563Z" fill="url(#paint0_radial_1165_8540)"/>
<path d="M16.087 7.45651C14.8887 7.45651 13.9131 8.43217 13.9131 9.63041C13.9131 10.8287 14.8887 11.8043 16.087 11.8043C17.2852 11.8043 18.2609 10.8287 18.2609 9.63041C18.2609 8.43217 17.2852 7.45651 16.087 7.45651ZM16.087 10.9348C15.3678 10.9348 14.7826 10.3496 14.7826 9.63041C14.7826 8.91127 15.3678 8.32606 16.087 8.32606C16.8061 8.32606 17.3913 8.91127 17.3913 9.63041C17.3913 10.3496 16.8061 10.9348 16.087 10.9348Z" fill="white"/>
<path d="M16.087 7.45651C14.8887 7.45651 13.9131 8.43217 13.9131 9.63041C13.9131 10.8287 14.8887 11.8043 16.087 11.8043C17.2852 11.8043 18.2609 10.8287 18.2609 9.63041C18.2609 8.43217 17.2852 7.45651 16.087 7.45651ZM16.087 10.9348C15.3678 10.9348 14.7826 10.3496 14.7826 9.63041C14.7826 8.91127 15.3678 8.32606 16.087 8.32606C16.8061 8.32606 17.3913 8.91127 17.3913 9.63041C17.3913 10.3496 16.8061 10.9348 16.087 10.9348Z" fill="url(#paint1_radial_1165_8540)"/>
<path d="M3.97468 7.45651C2.77554 7.45651 1.80078 8.43217 1.80078 9.63041C1.80078 10.8287 2.77643 11.8043 3.97468 11.8043C5.17293 11.8043 6.14858 10.8287 6.14858 9.63041C6.14858 8.43217 5.17378 7.45651 3.97468 7.45651ZM3.97468 10.9348C3.25554 10.9348 2.67033 10.3496 2.67033 9.63041C2.67033 8.91127 3.25554 8.32606 3.97468 8.32606C4.69382 8.32606 5.27903 8.91127 5.27903 9.63041C5.27903 10.3496 4.69378 10.9348 3.97468 10.9348Z" fill="white"/>
<path d="M3.97468 7.45651C2.77554 7.45651 1.80078 8.43217 1.80078 9.63041C1.80078 10.8287 2.77643 11.8043 3.97468 11.8043C5.17293 11.8043 6.14858 10.8287 6.14858 9.63041C6.14858 8.43217 5.17378 7.45651 3.97468 7.45651ZM3.97468 10.9348C3.25554 10.9348 2.67033 10.3496 2.67033 9.63041C2.67033 8.91127 3.25554 8.32606 3.97468 8.32606C4.69382 8.32606 5.27903 8.91127 5.27903 9.63041C5.27903 10.3496 4.69378 10.9348 3.97468 10.9348Z" fill="url(#paint2_radial_1165_8540)"/>
<path d="M9.99984 10.9348C6.88331 10.9348 4.34766 13.4704 4.34766 16.5869C4.34766 16.8269 4.54245 17.0217 4.78245 17.0217C5.02245 17.0217 5.21725 16.8269 5.21725 16.5869C5.21725 13.9495 7.36245 11.8043 9.99984 11.8043C12.6372 11.8043 14.7824 13.9495 14.7824 16.5869C14.7824 16.8269 14.9772 17.0217 15.2172 17.0217C15.4572 17.0217 15.652 16.8269 15.652 16.5869C15.652 13.4704 13.1164 10.9348 9.99984 10.9348Z" fill="white"/>
<path d="M9.99984 10.9348C6.88331 10.9348 4.34766 13.4704 4.34766 16.5869C4.34766 16.8269 4.54245 17.0217 4.78245 17.0217C5.02245 17.0217 5.21725 16.8269 5.21725 16.5869C5.21725 13.9495 7.36245 11.8043 9.99984 11.8043C12.6372 11.8043 14.7824 13.9495 14.7824 16.5869C14.7824 16.8269 14.9772 17.0217 15.2172 17.0217C15.4572 17.0217 15.652 16.8269 15.652 16.5869C15.652 13.4704 13.1164 10.9348 9.99984 10.9348Z" fill="url(#paint3_radial_1165_8540)"/>
<path d="M16.0865 12.6739C15.3708 12.6739 14.67 12.8695 14.0595 13.2391C13.8552 13.3643 13.7891 13.6313 13.9134 13.8365C14.0395 14.0417 14.3056 14.107 14.5108 13.9826C14.9847 13.6947 15.5291 13.5434 16.0865 13.5434C17.7647 13.5434 19.13 14.9086 19.13 16.5869C19.13 16.8269 19.3248 17.0217 19.5648 17.0217C19.8048 17.0217 19.9996 16.8269 19.9996 16.5869C19.9995 14.4295 18.2439 12.6739 16.0865 12.6739Z" fill="white"/>
<path d="M16.0865 12.6739C15.3708 12.6739 14.67 12.8695 14.0595 13.2391C13.8552 13.3643 13.7891 13.6313 13.9134 13.8365C14.0395 14.0417 14.3056 14.107 14.5108 13.9826C14.9847 13.6947 15.5291 13.5434 16.0865 13.5434C17.7647 13.5434 19.13 14.9086 19.13 16.5869C19.13 16.8269 19.3248 17.0217 19.5648 17.0217C19.8048 17.0217 19.9996 16.8269 19.9996 16.5869C19.9995 14.4295 18.2439 12.6739 16.0865 12.6739Z" fill="url(#paint4_radial_1165_8540)"/>
<path d="M5.93914 13.2382C5.32956 12.8695 4.62872 12.6739 3.91304 12.6739C1.75565 12.6739 0 14.4295 0 16.5869C0 16.8269 0.194796 17.0217 0.434796 17.0217C0.674796 17.0217 0.869592 16.8269 0.869592 16.5869C0.869551 14.9086 2.23479 13.5434 3.91304 13.5434C4.47045 13.5434 5.01477 13.6947 5.48784 13.9817C5.69217 14.1061 5.96001 14.0408 6.08523 13.8356C6.21044 13.6304 6.14433 13.3634 5.93914 13.2382Z" fill="white"/>
<path d="M5.93914 13.2382C5.32956 12.8695 4.62872 12.6739 3.91304 12.6739C1.75565 12.6739 0 14.4295 0 16.5869C0 16.8269 0.194796 17.0217 0.434796 17.0217C0.674796 17.0217 0.869592 16.8269 0.869592 16.5869C0.869551 14.9086 2.23479 13.5434 3.91304 13.5434C4.47045 13.5434 5.01477 13.6947 5.48784 13.9817C5.69217 14.1061 5.96001 14.0408 6.08523 13.8356C6.21044 13.6304 6.14433 13.3634 5.93914 13.2382Z" fill="url(#paint5_radial_1165_8540)"/>
</g>
<defs>
<radialGradient id="paint0_radial_1165_8540" cx="0" cy="0" r="1" gradientUnits="userSpaceOnUse" gradientTransform="translate(6.66395 3.14212) rotate(52.6545) scale(10.5174 15.1649)">
<stop offset="0.151042" stop-color="#33A6FF"/>
<stop offset="0.907346" stop-color="#36C27F"/>
</radialGradient>
<radialGradient id="paint1_radial_1165_8540" cx="0" cy="0" r="1" gradientUnits="userSpaceOnUse" gradientTransform="translate(13.7037 6.85929) rotate(52.6545) scale(7.51235 10.832)">
<stop offset="0.151042" stop-color="#33A6FF"/>
<stop offset="0.907346" stop-color="#36C27F"/>
</radialGradient>
<radialGradient id="paint2_radial_1165_8540" cx="0" cy="0" r="1" gradientUnits="userSpaceOnUse" gradientTransform="translate(1.59144 6.85929) rotate(52.6545) scale(7.51235 10.832)">
<stop offset="0.151042" stop-color="#33A6FF"/>
<stop offset="0.907346" stop-color="#36C27F"/>
</radialGradient>
<radialGradient id="paint3_radial_1165_8540" cx="0" cy="0" r="1" gradientUnits="userSpaceOnUse" gradientTransform="translate(3.80337 10.0986) rotate(35.2094) scale(14.5017 20.4254)">
<stop offset="0.151042" stop-color="#33A6FF"/>
<stop offset="0.907346" stop-color="#36C27F"/>
</radialGradient>
<radialGradient id="paint4_radial_1165_8540" cx="0" cy="0" r="1" gradientUnits="userSpaceOnUse" gradientTransform="translate(13.5545 12.0767) rotate(42.8198) scale(8.78674 13.0976)">
<stop offset="0.151042" stop-color="#33A6FF"/>
<stop offset="0.907346" stop-color="#36C27F"/>
</radialGradient>
<radialGradient id="paint5_radial_1165_8540" cx="0" cy="0" r="1" gradientUnits="userSpaceOnUse" gradientTransform="translate(-0.296047 12.0767) rotate(42.8213) scale(8.7865 13.0973)">
<stop offset="0.151042" stop-color="#33A6FF"/>
<stop offset="0.907346" stop-color="#36C27F"/>
</radialGradient>
<clipPath id="clip0_1165_8540">
<rect width="20" height="20" fill="white" transform="translate(0 0.5)"/>
</clipPath>
</defs>
</svg>
