<svg width="370" height="370" viewBox="0 0 370 370" fill="none" xmlns="http://www.w3.org/2000/svg">
<path d="M146.656 111.525C134.967 107.429 139.643 74.5062 111.525 92.1963C105.155 96.2092 97.4241 122.569 102.762 128.644C110.227 137.195 160.453 116.357 146.656 111.525Z" fill="#263238"/>
<path d="M113.743 142.781C113.513 143.223 113.365 143.453 113.181 143.766L112.648 144.631C112.289 145.184 111.902 145.717 111.515 146.251C110.725 147.304 109.88 148.315 108.984 149.279C107.147 151.237 105.058 152.942 102.772 154.351C100.402 155.817 97.7901 156.852 95.0587 157.406C93.6832 157.685 92.2835 157.827 90.8801 157.83C90.1806 157.83 89.4903 157.83 88.7908 157.756L87.7692 157.637L87.2537 157.572L86.5358 157.443C84.8092 157.016 83.2234 156.147 81.9338 154.921C80.8847 153.934 79.9577 152.825 79.1727 151.617C77.7917 149.462 76.6498 147.163 75.7672 144.76C74.0712 140.215 72.8708 135.5 72.1868 130.697L76.1445 129.776C77.5986 134.037 79.3327 138.197 81.3356 142.229C82.2762 144.114 83.3949 145.905 84.6766 147.577C85.2122 148.277 85.8302 148.911 86.5174 149.463C86.9373 149.825 87.4454 150.07 87.9901 150.172L89.205 150.237C89.6744 150.237 90.1254 150.237 90.604 150.181C91.5355 150.115 92.4594 149.967 93.3652 149.74C95.1821 149.253 96.9097 148.479 98.4826 147.448C100.131 146.361 101.631 145.064 102.947 143.591C103.641 142.856 104.293 142.082 104.898 141.272C105.202 140.867 105.496 140.453 105.772 140.039L106.177 139.422L106.499 138.897L113.743 142.781Z" fill="#FF8B7B"/>
<path d="M115.97 133.218C107.687 133.218 101.161 140.876 101.161 140.876L111.285 154.498C111.285 154.498 119.449 146.822 120.324 142.478C121.189 137.949 120.94 133.191 115.97 133.218Z" fill="#036FC9"/>
<path d="M75.7488 131.773L79.3567 125.791L70.9903 126.002C70.9903 126.002 70.3276 129.951 72.5366 132.445L75.7488 131.773Z" fill="#FF8B7B"/>
<path d="M79.0254 118.787L72.8403 120.103L70.9903 126.002L79.3567 125.791L79.0254 118.787Z" fill="#FF8B7B"/>
<path d="M157.48 339.627L149.574 340.382L145.543 321.955L153.449 321.201L157.48 339.627Z" fill="#FF8B7B"/>
<path d="M229.253 315.77L223.261 321.099L209.004 308.941L214.987 303.612L229.253 315.77Z" fill="#FF8B7B"/>
<path d="M221.098 320.078L224.577 311.794C224.635 311.65 224.744 311.531 224.883 311.462C225.022 311.392 225.182 311.376 225.332 311.417L232.299 313.211C232.472 313.264 232.633 313.353 232.77 313.471C232.907 313.59 233.017 313.736 233.094 313.9C233.171 314.064 233.213 314.242 233.218 314.423C233.222 314.604 233.188 314.784 233.118 314.951C231.857 317.823 231.103 319.148 229.575 322.802C228.654 325.048 226.887 330.165 225.59 333.267C224.292 336.369 221.153 335.246 221.411 333.838C222.589 327.524 221.862 324.164 221.043 321.523C220.89 321.05 220.91 320.538 221.098 320.078Z" fill="#263238"/>
<path d="M148.58 337.989H158.088C158.259 337.99 158.426 338.048 158.562 338.152C158.698 338.257 158.796 338.403 158.842 338.568L160.904 346.088C160.956 346.266 160.966 346.454 160.932 346.636C160.898 346.819 160.821 346.99 160.708 347.138C160.595 347.285 160.449 347.403 160.281 347.483C160.114 347.563 159.93 347.602 159.744 347.598C156.422 347.542 154.802 347.349 150.623 347.349C148.046 347.349 141.419 347.616 137.848 347.616C134.277 347.616 133.642 344.1 135.087 343.778C141.53 342.36 145.211 340.391 147.236 338.513C147.6 338.172 148.081 337.984 148.58 337.989Z" fill="#263238"/>
<path opacity="0.2" d="M145.543 321.964L147.623 331.463H155.695L153.458 321.21L145.543 321.964Z" fill="black"/>
<path opacity="0.2" d="M214.996 303.612L209.004 308.941L216.358 315.209L222.35 309.88L214.996 303.612Z" fill="black"/>
<path d="M108.239 135.437C108.239 135.437 104.916 137.756 124.898 181.015L156.256 172.28C152.179 159.671 149.97 151.801 148.773 123.913C144.13 124.226 139.515 124.878 134.967 125.864C130.132 126.843 125.373 128.168 120.729 129.831C114.774 132.086 108.239 135.437 108.239 135.437Z" fill="#036FC9"/>
<path d="M129.095 110.227C129.472 115.059 130.936 123.701 134.976 125.874C135.235 129.423 134.792 132.989 133.672 136.367C132.553 139.745 130.778 142.869 128.451 145.561C117.572 139.91 120.738 129.841 120.738 129.841C125.505 127.199 124.318 123.444 122.431 120.13L129.095 110.227Z" fill="#FF8B7B"/>
<path opacity="0.2" d="M130.77 119.412L125.303 117.572C125.382 118.649 125.657 119.703 126.113 120.683C127.033 122.477 130.08 123.149 132.252 122.928C131.63 121.815 131.133 120.635 130.77 119.412Z" fill="black"/>
<path d="M113.209 105.174C115.326 112.841 116.053 116.127 120.811 119.293C127.981 124.042 136.937 119.771 137.158 111.626C137.36 104.263 133.872 92.9878 125.616 91.4968C123.797 91.159 121.921 91.2921 120.168 91.8834C118.414 92.4747 116.841 93.5046 115.598 94.8751C114.355 96.2456 113.483 97.9113 113.064 99.7139C112.646 101.516 112.696 103.396 113.209 105.174Z" fill="#FF8B7B"/>
<path d="M124.668 90.245C124.042 95.4545 120.158 113.365 112.832 113.255C106.785 107.981 109.767 98.05 111.644 94.0094C113.522 89.9689 124.668 90.245 124.668 90.245Z" fill="#263238"/>
<path d="M121.585 93.9358C125.266 95.8963 132.51 96.7522 131.359 93.7609C130.209 90.7696 130.54 88.2386 125.551 88.349C120.563 88.4595 121.585 93.9358 121.585 93.9358Z" fill="#263238"/>
<path d="M113.504 112.436C113.739 113.16 114.116 113.831 114.612 114.409C115.108 114.987 115.713 115.462 116.394 115.804C118.234 116.725 119.514 115.179 119.33 113.255C119.164 111.525 118.013 108.966 116.025 108.855C115.591 108.84 115.159 108.933 114.77 109.126C114.38 109.32 114.045 109.607 113.795 109.962C113.544 110.318 113.386 110.73 113.336 111.162C113.285 111.594 113.342 112.032 113.504 112.436Z" fill="#FF8B7B"/>
<path d="M124.898 181.015C124.898 181.015 123.057 244.356 128.165 268.268C133.439 293.119 143.748 328.702 143.748 328.702L158.769 327.975C158.769 327.975 151.497 282.875 149.73 263.639C147.3 237.131 147.89 174.618 147.89 174.618L124.898 181.015Z" fill="#407BFF"/>
<path d="M124.898 181.015C124.898 181.015 123.057 244.356 128.165 268.268C133.439 293.119 143.748 328.702 143.748 328.702L158.769 327.975C158.769 327.975 151.497 282.875 149.73 263.639C147.3 237.131 147.89 174.618 147.89 174.618L124.898 181.015Z" fill="#536D82"/>
<path opacity="0.2" d="M147.816 198.447C145.478 192.584 143.426 189.353 143.214 195.198C142.68 207.559 144.834 221.687 148.202 228.691C147.945 218.217 147.862 207.522 147.816 198.447Z" fill="black"/>
<path d="M159.818 328.702L142.689 329.521L140.674 323.262L159.229 321.817L159.818 328.702Z" fill="#263238"/>
<path d="M133.182 178.704C133.182 178.704 152.409 230.449 165.396 259.018C175.86 282.102 212.962 314.344 212.962 314.344L221.393 307.22C221.393 307.22 194.572 270.459 187.338 254.757C164.162 204.66 170.209 183.435 156.274 172.234L133.182 178.704Z" fill="#407BFF"/>
<path d="M133.182 178.704C133.182 178.704 152.409 230.449 165.396 259.018C175.86 282.102 212.962 314.344 212.962 314.344L221.393 307.22C221.393 307.22 194.572 270.459 187.338 254.757C164.162 204.66 170.209 183.435 156.274 172.234L133.182 178.704Z" fill="#536D82"/>
<path d="M222.074 307.137L212.649 315.457L207.853 311.987L218.963 302.516L222.074 307.137Z" fill="#263238"/>
<path d="M156.21 170.274L158.41 172.685C158.575 172.878 158.41 173.173 158.014 173.265L125.137 182.469C124.852 182.552 124.576 182.469 124.511 182.303L123.444 179.542C123.37 179.349 123.573 179.119 123.886 179.027L155.63 170.191C155.726 170.154 155.829 170.142 155.931 170.156C156.032 170.171 156.129 170.211 156.21 170.274Z" fill="#407BFF"/>
<path d="M152.933 175.05L153.789 174.811C153.955 174.765 154.056 174.646 154.019 174.535L152.602 171.001C152.602 170.9 152.39 170.853 152.225 170.9L151.369 171.139C151.203 171.185 151.093 171.304 151.139 171.415L152.556 174.949C152.593 175.05 152.786 175.097 152.933 175.05Z" fill="#263238"/>
<path d="M127.604 182.101L128.46 181.861C128.626 181.815 128.736 181.696 128.69 181.585L127.273 178.051C127.273 177.95 127.061 177.904 126.895 177.95L126.039 178.189C125.874 178.235 125.772 178.355 125.809 178.465L127.227 182C127.263 182.101 127.438 182.147 127.604 182.101Z" fill="#263238"/>
<path d="M140.269 178.557L141.125 178.318C141.29 178.318 141.392 178.152 141.355 178.042L139.9 174.526C139.9 174.425 139.689 174.379 139.523 174.425L138.667 174.664C138.501 174.664 138.4 174.83 138.437 174.94L139.854 178.474C139.9 178.557 140.103 178.622 140.269 178.557Z" fill="#263238"/>
<path d="M125.478 104.861C125.607 105.496 126.058 105.938 126.463 105.846C126.868 105.754 127.107 105.174 126.978 104.548C126.849 103.922 126.398 103.471 125.984 103.554C125.57 103.637 125.34 104.226 125.478 104.861Z" fill="#263238"/>
<path d="M132.629 103.351C132.758 103.987 133.2 104.428 133.614 104.346C134.028 104.263 134.258 103.674 134.12 103.039C133.982 102.403 133.55 101.962 133.136 102.054C132.721 102.146 132.537 102.726 132.629 103.351Z" fill="#263238"/>
<path d="M132.961 102.164L134.387 101.409C134.387 101.409 133.853 102.716 132.961 102.164Z" fill="#263238"/>
<path d="M130.963 104.843C131.832 106.167 132.879 107.365 134.074 108.404C133.803 108.709 133.467 108.949 133.092 109.108C132.716 109.267 132.31 109.341 131.902 109.325L130.963 104.843Z" fill="#FF5652"/>
<path d="M130.273 112.233C130.303 112.212 130.327 112.182 130.34 112.148C130.353 112.114 130.355 112.076 130.347 112.04C130.344 112.015 130.335 111.991 130.322 111.969C130.309 111.948 130.291 111.93 130.27 111.916C130.249 111.902 130.225 111.892 130.201 111.888C130.176 111.884 130.15 111.886 130.126 111.893C129.342 112.074 128.526 112.069 127.744 111.877C126.962 111.685 126.236 111.312 125.625 110.788C125.61 110.764 125.589 110.743 125.564 110.728C125.54 110.713 125.512 110.703 125.483 110.7C125.454 110.697 125.425 110.7 125.398 110.71C125.371 110.72 125.346 110.735 125.326 110.756C125.305 110.776 125.289 110.801 125.28 110.828C125.27 110.855 125.267 110.884 125.27 110.913C125.273 110.942 125.283 110.97 125.298 110.994C125.313 111.019 125.334 111.04 125.358 111.055C126.008 111.632 126.788 112.043 127.631 112.253C128.474 112.463 129.355 112.465 130.2 112.261L130.273 112.233Z" fill="#263238"/>
<path d="M122.974 102.947C123.031 102.912 123.076 102.86 123.103 102.799C123.295 102.363 123.586 101.979 123.954 101.676C124.322 101.374 124.755 101.163 125.22 101.06C125.27 101.053 125.317 101.037 125.361 101.012C125.404 100.986 125.442 100.953 125.472 100.913C125.503 100.874 125.525 100.828 125.538 100.78C125.55 100.732 125.554 100.681 125.547 100.632C125.54 100.582 125.524 100.534 125.499 100.491C125.474 100.448 125.44 100.41 125.401 100.38C125.361 100.349 125.316 100.327 125.267 100.314C125.219 100.301 125.168 100.298 125.119 100.305C124.527 100.423 123.972 100.683 123.501 101.061C123.03 101.439 122.657 101.925 122.413 102.477C122.376 102.553 122.366 102.638 122.384 102.721C122.402 102.803 122.446 102.877 122.511 102.931C122.575 102.984 122.656 103.015 122.74 103.018C122.824 103.021 122.906 102.996 122.974 102.947Z" fill="#263238"/>
<path d="M135.299 99.3202H135.354C135.425 99.2478 135.465 99.1503 135.465 99.0487C135.465 98.947 135.425 98.8495 135.354 98.7771C134.93 98.3478 134.41 98.0248 133.838 97.8345C133.265 97.6442 132.655 97.5919 132.059 97.6819C131.96 97.7038 131.874 97.7642 131.819 97.8496C131.765 97.935 131.747 98.0386 131.769 98.1375C131.791 98.2363 131.851 98.3224 131.937 98.3768C132.022 98.4312 132.126 98.4494 132.224 98.4274C132.699 98.3617 133.183 98.4109 133.634 98.5711C134.086 98.7313 134.493 98.9977 134.82 99.3478C134.891 99.3993 134.977 99.4248 135.064 99.4197C135.151 99.4147 135.234 99.3795 135.299 99.3202Z" fill="#263238"/>
<path d="M154.406 131.148C155.115 131.967 155.998 132.924 156.827 133.817C157.655 134.709 158.548 135.593 159.431 136.458C161.208 138.179 163.03 139.864 164.954 141.428C168.647 144.555 172.727 147.193 177.094 149.279C181.144 151.12 186.068 151.902 191.01 152.252C193.495 152.436 196.017 152.501 198.548 152.455C201.079 152.409 203.656 152.307 206.123 152.114L206.869 156.109C201.65 157.449 196.302 158.223 190.918 158.419C188.153 158.525 185.384 158.424 182.635 158.115C179.762 157.804 176.939 157.136 174.231 156.127C171.606 155.118 169.072 153.886 166.656 152.446C164.285 151.041 162.013 149.475 159.855 147.761C157.713 146.077 155.661 144.283 153.706 142.386C152.722 141.465 151.774 140.462 150.835 139.468C149.896 138.474 148.994 137.498 148.074 136.32L154.406 131.148Z" fill="#FF8B7B"/>
<path d="M205.092 156.468L213.017 155.225L206.482 148.994C206.482 148.994 203.371 151.516 203.371 154.848L205.092 156.468Z" fill="#FF8B7B"/>
<path d="M217.288 148.948L211.774 145.837L206.473 149.04L213.017 155.262L217.288 148.948Z" fill="#FF8B7B"/>
<path d="M148.773 123.913C152.188 123.996 158.971 133.761 158.971 133.761L149.206 145.865C149.206 145.865 143.518 137.894 143.683 133.467C143.904 128.856 144.889 123.821 148.773 123.913Z" fill="#036FC9"/>
<path d="M219.589 324.431C219.493 324.396 219.401 324.353 219.312 324.302C219.208 324.25 219.12 324.17 219.059 324.071C218.997 323.972 218.964 323.857 218.963 323.741C218.963 322.719 221.319 321.081 221.595 320.897C221.625 320.877 221.66 320.866 221.696 320.866C221.732 320.866 221.767 320.877 221.797 320.897C221.829 320.917 221.855 320.946 221.871 320.98C221.887 321.014 221.894 321.052 221.89 321.09C221.715 322.139 221.282 323.971 220.362 324.394C220.242 324.452 220.112 324.485 219.979 324.492C219.846 324.498 219.713 324.477 219.589 324.431ZM221.429 321.477C220.509 322.158 219.331 323.198 219.34 323.732C219.34 323.805 219.34 323.888 219.506 323.971C219.603 324.045 219.718 324.091 219.84 324.106C219.961 324.12 220.084 324.102 220.196 324.054C220.702 323.824 221.144 322.876 221.429 321.477Z" fill="#407BFF"/>
<path d="M218.41 322.01C218.336 321.984 218.266 321.95 218.199 321.909C218.074 321.822 217.983 321.696 217.939 321.551C217.896 321.405 217.903 321.249 217.959 321.108C217.998 320.969 218.066 320.84 218.16 320.73C218.254 320.621 218.371 320.533 218.502 320.473C219.552 319.967 221.687 320.842 221.77 320.878C221.801 320.891 221.829 320.912 221.849 320.939C221.87 320.965 221.884 320.997 221.888 321.031C221.893 321.064 221.889 321.099 221.876 321.13C221.863 321.161 221.843 321.189 221.816 321.21C220.811 321.87 219.604 322.153 218.41 322.01ZM221.218 321.09C220.417 320.736 219.525 320.642 218.668 320.823C218.582 320.859 218.506 320.914 218.445 320.984C218.385 321.055 218.341 321.138 218.318 321.228C218.254 321.458 218.318 321.55 218.41 321.596C218.88 321.909 220.426 321.596 221.282 321.108L221.218 321.09Z" fill="#407BFF"/>
<path d="M144.364 339.562C143.72 339.606 143.078 339.452 142.524 339.121C142.379 339.013 142.261 338.875 142.178 338.715C142.096 338.556 142.05 338.38 142.045 338.2C142.034 338.101 142.051 338 142.093 337.909C142.135 337.819 142.201 337.741 142.284 337.685C143.14 337.105 146.38 338.605 147.024 338.872C147.059 338.891 147.087 338.919 147.106 338.954C147.124 338.989 147.131 339.029 147.126 339.068C147.121 339.107 147.104 339.143 147.078 339.172C147.051 339.202 147.017 339.222 146.978 339.231C146.121 339.434 145.245 339.545 144.364 339.562ZM142.846 337.924C142.719 337.914 142.591 337.94 142.478 337.998C142.432 337.998 142.395 338.071 142.404 338.182C142.405 338.306 142.435 338.429 142.493 338.54C142.55 338.65 142.634 338.745 142.735 338.817C143.297 339.24 144.576 339.296 146.306 338.973C145.214 338.448 144.046 338.094 142.846 337.924Z" fill="#407BFF"/>
<path d="M146.923 339.24H146.849C145.782 338.798 143.61 337.068 143.739 336.166C143.739 335.973 143.895 335.724 144.383 335.669C146.224 335.439 147.07 338.872 147.144 339.019C147.152 339.054 147.151 339.091 147.139 339.125C147.128 339.159 147.107 339.19 147.08 339.213C147.057 339.228 147.031 339.239 147.004 339.243C146.977 339.248 146.95 339.247 146.923 339.24ZM144.558 336.019H144.429C144.226 336.019 144.125 336.102 144.107 336.194C144.042 336.709 145.533 338.081 146.629 338.688C146.343 337.869 145.699 336.019 144.558 336.019Z" fill="#407BFF"/>
<path d="M125.809 103.628L127.236 102.873C127.236 102.873 126.711 104.226 125.809 103.628Z" fill="#263238"/>
<path d="M172.97 190.053C172.97 190.053 156.615 203.408 162.699 232.805C166.288 250.136 177.103 258.954 186.574 257.03C196.045 255.107 202.57 242.773 199.11 225.415C193.284 195.98 172.97 190.053 172.97 190.053Z" fill="#407BFF"/>
<path d="M172.97 190.053C172.97 190.053 156.615 203.408 162.699 232.805C166.288 250.136 177.103 258.954 186.574 257.03C196.045 255.107 202.57 242.773 199.11 225.415C193.284 195.98 172.97 190.053 172.97 190.053Z" fill="#36C27F"/>
<path d="M276.119 133.025C276.119 133.025 246.087 126.352 217.923 159.79C201.355 179.514 200.978 199.837 211.71 208.939C222.442 218.042 242.442 214.407 259.193 194.811C287.56 161.576 276.119 133.025 276.119 133.025Z" fill="#36C27F"/>
<path d="M236.634 0.30368C236.634 0.30368 229.925 2.14447 227.845 11.8179C226.611 17.5243 228.701 21.6201 231.811 22.3012C234.922 22.9823 238.53 20.1383 239.801 14.4502C241.954 4.79522 236.634 0.30368 236.634 0.30368Z" fill="#36C27F"/>
<path d="M183.435 297.832C179.58 284.149 177.769 269.972 178.06 255.76C178.361 241.974 180.383 228.28 184.08 214.996C185.868 208.501 187.987 202.102 190.43 195.824C191.636 192.704 192.925 189.63 194.268 186.62C194.913 185.083 195.649 183.601 196.33 182.091L197.361 179.901L198.364 177.784C203.73 166.509 208.838 155.161 213.45 143.646C218.093 132.169 222.126 120.454 225.534 108.552C228.95 96.685 231.336 84.5461 232.667 72.2696C234.032 59.9779 233.648 47.5547 231.526 35.3708C229.308 23.0168 224.595 11.2445 217.674 0.773071C225.876 10.6257 231.983 22.0473 235.622 34.34C239.267 46.7705 241.127 59.6562 241.144 72.6101C241.19 85.5642 240.116 98.498 237.932 111.267C235.79 123.988 232.967 136.585 229.474 149.003C226.05 161.41 222.11 173.642 217.932 185.727L217.15 187.991L216.754 189.123L216.395 190.191C215.935 191.627 215.419 193.035 214.996 194.471C214.075 197.333 213.265 200.196 212.511 203.077C210.991 208.784 209.762 214.566 208.829 220.398C206.99 231.774 206.579 243.335 207.605 254.812C208.612 265.878 211.251 276.734 215.438 287.026L183.435 297.832Z" fill="#407BFF"/>
<path d="M183.435 297.832C179.58 284.149 177.769 269.972 178.06 255.76C178.361 241.974 180.383 228.28 184.08 214.996C185.868 208.501 187.987 202.102 190.43 195.824C191.636 192.704 192.925 189.63 194.268 186.62C194.913 185.083 195.649 183.601 196.33 182.091L197.361 179.901L198.364 177.784C203.73 166.509 208.838 155.161 213.45 143.646C218.093 132.169 222.126 120.454 225.534 108.552C228.95 96.685 231.336 84.5461 232.667 72.2696C234.032 59.9779 233.648 47.5547 231.526 35.3708C229.308 23.0168 224.595 11.2445 217.674 0.773071C225.876 10.6257 231.983 22.0473 235.622 34.34C239.267 46.7705 241.127 59.6562 241.144 72.6101C241.19 85.5642 240.116 98.498 237.932 111.267C235.79 123.988 232.967 136.585 229.474 149.003C226.05 161.41 222.11 173.642 217.932 185.727L217.15 187.991L216.754 189.123L216.395 190.191C215.935 191.627 215.419 193.035 214.996 194.471C214.075 197.333 213.265 200.196 212.511 203.077C210.991 208.784 209.762 214.566 208.829 220.398C206.99 231.774 206.579 243.335 207.605 254.812C208.612 265.878 211.251 276.734 215.438 287.026L183.435 297.832Z" fill="#20AA68"/>
<path d="M246.878 264.927L245.958 275.457L239.828 343.87C239.725 345.034 239.189 346.116 238.327 346.905C237.465 347.694 236.339 348.131 235.171 348.131H157.434C156.266 348.129 155.141 347.691 154.28 346.903C153.418 346.114 152.882 345.033 152.777 343.87L146.656 275.457L145.736 264.927H246.878Z" fill="#407BFF"/>
<path d="M245.764 302.972L243.568 327.531L244.485 327.613L246.681 303.054L245.764 302.972Z" fill="#407BFF"/>
<path d="M248.499 289.114L247.974 294.94L248.895 295.023L249.419 289.197L248.499 289.114Z" fill="#407BFF"/>
<path d="M181.024 48.1828C181.024 48.1828 163.665 71.294 181.364 108.349C191.802 130.199 209.059 138.363 221.006 132.712C232.953 127.061 237.573 108.533 227.32 86.6094C209.897 49.4253 181.024 48.1828 181.024 48.1828Z" fill="#407BFF"/>
<path d="M181.024 48.1828C181.024 48.1828 163.665 71.294 181.364 108.349C191.802 130.199 209.059 138.363 221.006 132.712C232.953 127.061 237.573 108.533 227.32 86.6094C209.897 49.4253 181.024 48.1828 181.024 48.1828Z" fill="#20AA68"/>
<path opacity="0.2" d="M246.878 264.927L245.93 275.457H146.656L145.708 264.927H246.878Z" fill="black"/>
<path d="M252.889 251.94H139.689C138.474 251.94 137.489 252.925 137.489 254.14V267.992C137.489 269.207 138.474 270.192 139.689 270.192H252.889C254.103 270.192 255.088 269.207 255.088 267.992V254.14C255.088 252.925 254.103 251.94 252.889 251.94Z" fill="#407BFF"/>
<path d="M296.766 100.562C313.029 88.325 316.293 65.2205 304.055 48.9571C291.818 32.6938 268.713 29.4302 252.45 41.6677C236.187 53.9052 232.923 77.0098 245.161 93.2731C257.398 109.536 280.503 112.8 296.766 100.562Z" fill="#FAC600"/>
<path opacity="0.1" d="M304.164 80.2495C305.413 75.3462 305.409 70.2077 304.153 65.3063C302.897 60.4048 300.429 55.8977 296.977 52.199C293.524 48.5003 289.197 45.7288 284.393 44.1391C279.59 42.5494 274.464 42.1925 269.486 43.1013C264.509 44.0101 259.84 46.1553 255.908 49.3399C251.976 52.5245 248.908 56.6463 246.985 61.3264C245.062 66.0066 244.346 71.0949 244.903 76.1239C245.46 81.1529 247.273 85.9612 250.173 90.1069C246.904 85.908 244.773 80.9371 243.985 75.6743C243.197 70.4114 243.779 65.0343 245.676 60.0621C247.572 55.0899 250.718 50.6905 254.81 47.2887C258.902 43.8869 263.802 41.5976 269.037 40.6418C274.272 39.6861 279.665 40.0961 284.696 41.8323C289.726 43.5685 294.224 46.5723 297.755 50.5536C301.285 54.535 303.73 59.3594 304.853 64.5611C305.976 69.7629 305.738 75.1662 304.164 80.2495Z" fill="black"/>
<path d="M285.958 76.4482L282.277 84.244C282.137 84.5404 281.937 84.8047 281.69 85.0201C281.443 85.2355 281.154 85.3975 280.841 85.4957C280.53 85.6136 280.198 85.6662 279.865 85.6504C279.533 85.6346 279.207 85.5506 278.908 85.4037L272.051 82.1639L269.456 87.6863C269.321 87.986 269.125 88.2544 268.881 88.4747C268.637 88.6949 268.35 88.8621 268.038 88.9656C267.732 89.0767 267.407 89.1259 267.081 89.1101C266.756 89.0942 266.436 89.0139 266.142 88.8736C265.837 88.7368 265.562 88.54 265.335 88.2949C265.107 88.0499 264.931 87.7615 264.817 87.4469C264.698 87.1393 264.644 86.8105 264.658 86.4811C264.673 86.1516 264.755 85.8287 264.9 85.5325L267.523 80.0101L260.721 76.7979C260.127 76.513 259.669 76.0054 259.447 75.3851C259.225 74.7648 259.256 74.0819 259.534 73.4845C259.815 72.8893 260.321 72.43 260.94 72.2074C261.56 71.9848 262.242 72.0171 262.838 72.2972L278.752 79.8076L280.28 76.5678L264.44 69.0298C264.14 68.8943 263.871 68.7003 263.648 68.4591C263.426 68.218 263.253 67.9346 263.142 67.6257C263.03 67.3168 262.982 66.9887 262.999 66.6608C263.016 66.3328 263.099 66.0117 263.243 65.7164L266.925 57.9482C267.062 57.6507 267.257 57.3835 267.499 57.1622C267.74 56.9409 268.024 56.7701 268.332 56.6595C268.641 56.549 268.968 56.501 269.295 56.5184C269.623 56.5358 269.943 56.6182 270.238 56.7609L276.985 59.9455L279.58 54.4231C279.719 54.1182 279.919 53.8451 280.168 53.6206C280.417 53.3961 280.709 53.2251 281.026 53.1181C281.344 53.0111 281.68 52.9705 282.014 52.9986C282.348 53.0268 282.672 53.1231 282.967 53.2818C283.261 53.4147 283.525 53.6066 283.742 53.8457C283.959 54.0848 284.124 54.3659 284.228 54.6716C284.343 54.9787 284.394 55.3061 284.378 55.6337C284.363 55.9613 284.28 56.2822 284.136 56.5768L281.541 62.0992L288.453 65.3574C288.756 65.4955 289.027 65.6941 289.25 65.9411C289.473 66.188 289.644 66.478 289.75 66.7932C289.874 67.0972 289.933 67.4236 289.923 67.7516C289.914 68.0796 289.836 68.4021 289.695 68.6984C289.399 69.3034 288.878 69.7688 288.244 69.9957C287.61 70.2226 286.912 70.193 286.299 69.9134L270.385 62.4029L268.876 65.6151L284.725 73.0979C285.029 73.236 285.302 73.4344 285.526 73.6813C285.751 73.9282 285.923 74.2182 286.032 74.5338C286.156 74.8398 286.214 75.1688 286.201 75.4989C286.189 75.829 286.106 76.1526 285.958 76.4482Z" fill="#FAFAFA"/>
</svg>
