<svg width="320" height="426" viewBox="0 0 320 426" fill="none" xmlns="http://www.w3.org/2000/svg">
<path d="M3.43359 3.65039C4.29688 3.65039 4.98047 3.87891 5.48438 4.33594C5.98828 4.79297 6.24023 5.41602 6.24023 6.20508C6.24023 7.11914 5.95312 7.83398 5.37891 8.34961C4.80859 8.86133 3.99609 9.11719 2.94141 9.11719C1.98438 9.11719 1.23242 8.96289 0.685547 8.6543V7.40625C1.00195 7.58594 1.36523 7.72461 1.77539 7.82227C2.18555 7.91992 2.56641 7.96875 2.91797 7.96875C3.53906 7.96875 4.01172 7.83008 4.33594 7.55273C4.66016 7.27539 4.82227 6.86914 4.82227 6.33398C4.82227 5.31055 4.16992 4.79883 2.86523 4.79883C2.68164 4.79883 2.45508 4.81836 2.18555 4.85742C1.91602 4.89258 1.67969 4.93359 1.47656 4.98047L0.861328 4.61719L1.18945 0.433594H5.64258V1.6582H2.40234L2.20898 3.7793C2.3457 3.75586 2.51172 3.72852 2.70703 3.69727C2.90625 3.66602 3.14844 3.65039 3.43359 3.65039ZM13.1895 4.7168C13.1895 6.20508 12.9492 7.31055 12.4688 8.0332C11.9922 8.75586 11.2617 9.11719 10.2773 9.11719C9.32422 9.11719 8.60156 8.74414 8.10938 7.99805C7.61719 7.25195 7.37109 6.1582 7.37109 4.7168C7.37109 3.20508 7.60938 2.0918 8.08594 1.37695C8.56641 0.658203 9.29688 0.298828 10.2773 0.298828C11.2344 0.298828 11.959 0.673828 12.4512 1.42383C12.9434 2.17383 13.1895 3.27148 13.1895 4.7168ZM8.76562 4.7168C8.76562 5.88477 8.88477 6.71875 9.12305 7.21875C9.36523 7.71875 9.75 7.96875 10.2773 7.96875C10.8047 7.96875 11.1895 7.71484 11.4316 7.20703C11.6777 6.69922 11.8008 5.86914 11.8008 4.7168C11.8008 3.56836 11.6777 2.73828 11.4316 2.22656C11.1895 1.71094 10.8047 1.45312 10.2773 1.45312C9.75 1.45312 9.36523 1.70508 9.12305 2.20898C8.88477 2.71289 8.76562 3.54883 8.76562 4.7168ZM6.63867 45.1309H5.48438V47H4.14258V45.1309H0.228516V44.0703L4.14258 38.4102H5.48438V43.9883H6.63867V45.1309ZM4.14258 43.9883V41.8379C4.14258 41.0723 4.16211 40.4453 4.20117 39.957H4.1543C4.04492 40.2148 3.87305 40.5273 3.63867 40.8945L1.51172 43.9883H4.14258ZM10.2891 41.6504C11.1523 41.6504 11.8359 41.8789 12.3398 42.3359C12.8438 42.793 13.0957 43.416 13.0957 44.2051C13.0957 45.1191 12.8086 45.834 12.2344 46.3496C11.6641 46.8613 10.8516 47.1172 9.79688 47.1172C8.83984 47.1172 8.08789 46.9629 7.54102 46.6543V45.4062C7.85742 45.5859 8.2207 45.7246 8.63086 45.8223C9.04102 45.9199 9.42188 45.9688 9.77344 45.9688C10.3945 45.9688 10.8672 45.8301 11.1914 45.5527C11.5156 45.2754 11.6777 44.8691 11.6777 44.334C11.6777 43.3105 11.0254 42.7988 9.7207 42.7988C9.53711 42.7988 9.31055 42.8184 9.04102 42.8574C8.77148 42.8926 8.53516 42.9336 8.33203 42.9805L7.7168 42.6172L8.04492 38.4336H12.498V39.6582H9.25781L9.06445 41.7793C9.20117 41.7559 9.36719 41.7285 9.5625 41.6973C9.76172 41.666 10.0039 41.6504 10.2891 41.6504ZM6.63867 83.1309H5.48438V85H4.14258V83.1309H0.228516V82.0703L4.14258 76.4102H5.48438V81.9883H6.63867V83.1309ZM4.14258 81.9883V79.8379C4.14258 79.0723 4.16211 78.4453 4.20117 77.957H4.1543C4.04492 78.2148 3.87305 78.5273 3.63867 78.8945L1.51172 81.9883H4.14258ZM13.1895 80.7168C13.1895 82.2051 12.9492 83.3105 12.4688 84.0332C11.9922 84.7559 11.2617 85.1172 10.2773 85.1172C9.32422 85.1172 8.60156 84.7441 8.10938 83.998C7.61719 83.252 7.37109 82.1582 7.37109 80.7168C7.37109 79.2051 7.60938 78.0918 8.08594 77.377C8.56641 76.6582 9.29688 76.2988 10.2773 76.2988C11.2344 76.2988 11.959 76.6738 12.4512 77.4238C12.9434 78.1738 13.1895 79.2715 13.1895 80.7168ZM8.76562 80.7168C8.76562 81.8848 8.88477 82.7188 9.12305 83.2188C9.36523 83.7188 9.75 83.9688 10.2773 83.9688C10.8047 83.9688 11.1895 83.7148 11.4316 83.207C11.6777 82.6992 11.8008 81.8691 11.8008 80.7168C11.8008 79.5684 11.6777 78.7383 11.4316 78.2266C11.1895 77.7109 10.8047 77.4531 10.2773 77.4531C9.75 77.4531 9.36523 77.7051 9.12305 78.209C8.88477 78.7129 8.76562 79.5488 8.76562 80.7168ZM6.01172 116.402C6.01172 116.945 5.85352 117.398 5.53711 117.762C5.2207 118.121 4.77539 118.363 4.20117 118.488V118.535C4.88867 118.621 5.4043 118.836 5.74805 119.18C6.0918 119.52 6.26367 119.973 6.26367 120.539C6.26367 121.363 5.97266 122 5.39062 122.449C4.80859 122.895 3.98047 123.117 2.90625 123.117C1.95703 123.117 1.15625 122.963 0.503906 122.654V121.43C0.867188 121.609 1.25195 121.748 1.6582 121.846C2.06445 121.943 2.45508 121.992 2.83008 121.992C3.49414 121.992 3.99023 121.869 4.31836 121.623C4.64648 121.377 4.81055 120.996 4.81055 120.48C4.81055 120.023 4.62891 119.688 4.26562 119.473C3.90234 119.258 3.33203 119.15 2.55469 119.15H1.81055V118.031H2.56641C3.93359 118.031 4.61719 117.559 4.61719 116.613C4.61719 116.246 4.49805 115.963 4.25977 115.764C4.02148 115.564 3.66992 115.465 3.20508 115.465C2.88086 115.465 2.56836 115.512 2.26758 115.605C1.9668 115.695 1.61133 115.873 1.20117 116.139L0.527344 115.178C1.3125 114.6 2.22461 114.311 3.26367 114.311C4.12695 114.311 4.80078 114.496 5.28516 114.867C5.76953 115.238 6.01172 115.75 6.01172 116.402ZM10.2891 117.65C11.1523 117.65 11.8359 117.879 12.3398 118.336C12.8438 118.793 13.0957 119.416 13.0957 120.205C13.0957 121.119 12.8086 121.834 12.2344 122.35C11.6641 122.861 10.8516 123.117 9.79688 123.117C8.83984 123.117 8.08789 122.963 7.54102 122.654V121.406C7.85742 121.586 8.2207 121.725 8.63086 121.822C9.04102 121.92 9.42188 121.969 9.77344 121.969C10.3945 121.969 10.8672 121.83 11.1914 121.553C11.5156 121.275 11.6777 120.869 11.6777 120.334C11.6777 119.311 11.0254 118.799 9.7207 118.799C9.53711 118.799 9.31055 118.818 9.04102 118.857C8.77148 118.893 8.53516 118.934 8.33203 118.98L7.7168 118.617L8.04492 114.434H12.498V115.658H9.25781L9.06445 117.779C9.20117 117.756 9.36719 117.729 9.5625 117.697C9.76172 117.666 10.0039 117.65 10.2891 117.65ZM6.01172 154.402C6.01172 154.945 5.85352 155.398 5.53711 155.762C5.2207 156.121 4.77539 156.363 4.20117 156.488V156.535C4.88867 156.621 5.4043 156.836 5.74805 157.18C6.0918 157.52 6.26367 157.973 6.26367 158.539C6.26367 159.363 5.97266 160 5.39062 160.449C4.80859 160.895 3.98047 161.117 2.90625 161.117C1.95703 161.117 1.15625 160.963 0.503906 160.654V159.43C0.867188 159.609 1.25195 159.748 1.6582 159.846C2.06445 159.943 2.45508 159.992 2.83008 159.992C3.49414 159.992 3.99023 159.869 4.31836 159.623C4.64648 159.377 4.81055 158.996 4.81055 158.48C4.81055 158.023 4.62891 157.688 4.26562 157.473C3.90234 157.258 3.33203 157.15 2.55469 157.15H1.81055V156.031H2.56641C3.93359 156.031 4.61719 155.559 4.61719 154.613C4.61719 154.246 4.49805 153.963 4.25977 153.764C4.02148 153.564 3.66992 153.465 3.20508 153.465C2.88086 153.465 2.56836 153.512 2.26758 153.605C1.9668 153.695 1.61133 153.873 1.20117 154.139L0.527344 153.178C1.3125 152.6 2.22461 152.311 3.26367 152.311C4.12695 152.311 4.80078 152.496 5.28516 152.867C5.76953 153.238 6.01172 153.75 6.01172 154.402ZM13.1895 156.717C13.1895 158.205 12.9492 159.311 12.4688 160.033C11.9922 160.756 11.2617 161.117 10.2773 161.117C9.32422 161.117 8.60156 160.744 8.10938 159.998C7.61719 159.252 7.37109 158.158 7.37109 156.717C7.37109 155.205 7.60938 154.092 8.08594 153.377C8.56641 152.658 9.29688 152.299 10.2773 152.299C11.2344 152.299 11.959 152.674 12.4512 153.424C12.9434 154.174 13.1895 155.271 13.1895 156.717ZM8.76562 156.717C8.76562 157.885 8.88477 158.719 9.12305 159.219C9.36523 159.719 9.75 159.969 10.2773 159.969C10.8047 159.969 11.1895 159.715 11.4316 159.207C11.6777 158.699 11.8008 157.869 11.8008 156.717C11.8008 155.568 11.6777 154.738 11.4316 154.227C11.1895 153.711 10.8047 153.453 10.2773 153.453C9.75 153.453 9.36523 153.705 9.12305 154.209C8.88477 154.713 8.76562 155.549 8.76562 156.717ZM6.33398 199H0.527344V197.957L2.73633 195.736C3.38867 195.068 3.82031 194.596 4.03125 194.318C4.24609 194.037 4.40234 193.773 4.5 193.527C4.59766 193.281 4.64648 193.018 4.64648 192.736C4.64648 192.35 4.5293 192.045 4.29492 191.822C4.06445 191.6 3.74414 191.488 3.33398 191.488C3.00586 191.488 2.6875 191.549 2.37891 191.67C2.07422 191.791 1.7207 192.01 1.31836 192.326L0.574219 191.418C1.05078 191.016 1.51367 190.73 1.96289 190.562C2.41211 190.395 2.89062 190.311 3.39844 190.311C4.19531 190.311 4.83398 190.52 5.31445 190.938C5.79492 191.352 6.03516 191.91 6.03516 192.613C6.03516 193 5.96484 193.367 5.82422 193.715C5.6875 194.062 5.47461 194.422 5.18555 194.793C4.90039 195.16 4.42383 195.658 3.75586 196.287L2.26758 197.729V197.787H6.33398V199ZM10.2891 193.65C11.1523 193.65 11.8359 193.879 12.3398 194.336C12.8438 194.793 13.0957 195.416 13.0957 196.205C13.0957 197.119 12.8086 197.834 12.2344 198.35C11.6641 198.861 10.8516 199.117 9.79688 199.117C8.83984 199.117 8.08789 198.963 7.54102 198.654V197.406C7.85742 197.586 8.2207 197.725 8.63086 197.822C9.04102 197.92 9.42188 197.969 9.77344 197.969C10.3945 197.969 10.8672 197.83 11.1914 197.553C11.5156 197.275 11.6777 196.869 11.6777 196.334C11.6777 195.311 11.0254 194.799 9.7207 194.799C9.53711 194.799 9.31055 194.818 9.04102 194.857C8.77148 194.893 8.53516 194.934 8.33203 194.98L7.7168 194.617L8.04492 190.434H12.498V191.658H9.25781L9.06445 193.779C9.20117 193.756 9.36719 193.729 9.5625 193.697C9.76172 193.666 10.0039 193.65 10.2891 193.65ZM6.33398 237H0.527344V235.957L2.73633 233.736C3.38867 233.068 3.82031 232.596 4.03125 232.318C4.24609 232.037 4.40234 231.773 4.5 231.527C4.59766 231.281 4.64648 231.018 4.64648 230.736C4.64648 230.35 4.5293 230.045 4.29492 229.822C4.06445 229.6 3.74414 229.488 3.33398 229.488C3.00586 229.488 2.6875 229.549 2.37891 229.67C2.07422 229.791 1.7207 230.01 1.31836 230.326L0.574219 229.418C1.05078 229.016 1.51367 228.73 1.96289 228.562C2.41211 228.395 2.89062 228.311 3.39844 228.311C4.19531 228.311 4.83398 228.52 5.31445 228.938C5.79492 229.352 6.03516 229.91 6.03516 230.613C6.03516 231 5.96484 231.367 5.82422 231.715C5.6875 232.062 5.47461 232.422 5.18555 232.793C4.90039 233.16 4.42383 233.658 3.75586 234.287L2.26758 235.729V235.787H6.33398V237ZM13.1895 232.717C13.1895 234.205 12.9492 235.311 12.4688 236.033C11.9922 236.756 11.2617 237.117 10.2773 237.117C9.32422 237.117 8.60156 236.744 8.10938 235.998C7.61719 235.252 7.37109 234.158 7.37109 232.717C7.37109 231.205 7.60938 230.092 8.08594 229.377C8.56641 228.658 9.29688 228.299 10.2773 228.299C11.2344 228.299 11.959 228.674 12.4512 229.424C12.9434 230.174 13.1895 231.271 13.1895 232.717ZM8.76562 232.717C8.76562 233.885 8.88477 234.719 9.12305 235.219C9.36523 235.719 9.75 235.969 10.2773 235.969C10.8047 235.969 11.1895 235.715 11.4316 235.207C11.6777 234.699 11.8008 233.869 11.8008 232.717C11.8008 231.568 11.6777 230.738 11.4316 230.227C11.1895 229.711 10.8047 229.453 10.2773 229.453C9.75 229.453 9.36523 229.705 9.12305 230.209C8.88477 230.713 8.76562 231.549 8.76562 232.717ZM4.57031 275H3.19336V269.469C3.19336 268.809 3.20898 268.285 3.24023 267.898C3.15039 267.992 3.03906 268.096 2.90625 268.209C2.77734 268.322 2.33984 268.682 1.59375 269.287L0.902344 268.414L3.42188 266.434H4.57031V275ZM10.2891 269.65C11.1523 269.65 11.8359 269.879 12.3398 270.336C12.8438 270.793 13.0957 271.416 13.0957 272.205C13.0957 273.119 12.8086 273.834 12.2344 274.35C11.6641 274.861 10.8516 275.117 9.79688 275.117C8.83984 275.117 8.08789 274.963 7.54102 274.654V273.406C7.85742 273.586 8.2207 273.725 8.63086 273.822C9.04102 273.92 9.42188 273.969 9.77344 273.969C10.3945 273.969 10.8672 273.83 11.1914 273.553C11.5156 273.275 11.6777 272.869 11.6777 272.334C11.6777 271.311 11.0254 270.799 9.7207 270.799C9.53711 270.799 9.31055 270.818 9.04102 270.857C8.77148 270.893 8.53516 270.934 8.33203 270.98L7.7168 270.617L8.04492 266.434H12.498V267.658H9.25781L9.06445 269.779C9.20117 269.756 9.36719 269.729 9.5625 269.697C9.76172 269.666 10.0039 269.65 10.2891 269.65ZM4.57031 313H3.19336V307.469C3.19336 306.809 3.20898 306.285 3.24023 305.898C3.15039 305.992 3.03906 306.096 2.90625 306.209C2.77734 306.322 2.33984 306.682 1.59375 307.287L0.902344 306.414L3.42188 304.434H4.57031V313ZM13.1895 308.717C13.1895 310.205 12.9492 311.311 12.4688 312.033C11.9922 312.756 11.2617 313.117 10.2773 313.117C9.32422 313.117 8.60156 312.744 8.10938 311.998C7.61719 311.252 7.37109 310.158 7.37109 308.717C7.37109 307.205 7.60938 306.092 8.08594 305.377C8.56641 304.658 9.29688 304.299 10.2773 304.299C11.2344 304.299 11.959 304.674 12.4512 305.424C12.9434 306.174 13.1895 307.271 13.1895 308.717ZM8.76562 308.717C8.76562 309.885 8.88477 310.719 9.12305 311.219C9.36523 311.719 9.75 311.969 10.2773 311.969C10.8047 311.969 11.1895 311.715 11.4316 311.207C11.6777 310.699 11.8008 309.869 11.8008 308.717C11.8008 307.568 11.6777 306.738 11.4316 306.227C11.1895 305.711 10.8047 305.453 10.2773 305.453C9.75 305.453 9.36523 305.705 9.12305 306.209C8.88477 306.713 8.76562 307.549 8.76562 308.717ZM3.43359 345.65C4.29688 345.65 4.98047 345.879 5.48438 346.336C5.98828 346.793 6.24023 347.416 6.24023 348.205C6.24023 349.119 5.95312 349.834 5.37891 350.35C4.80859 350.861 3.99609 351.117 2.94141 351.117C1.98438 351.117 1.23242 350.963 0.685547 350.654V349.406C1.00195 349.586 1.36523 349.725 1.77539 349.822C2.18555 349.92 2.56641 349.969 2.91797 349.969C3.53906 349.969 4.01172 349.83 4.33594 349.553C4.66016 349.275 4.82227 348.869 4.82227 348.334C4.82227 347.311 4.16992 346.799 2.86523 346.799C2.68164 346.799 2.45508 346.818 2.18555 346.857C1.91602 346.893 1.67969 346.934 1.47656 346.98L0.861328 346.617L1.18945 342.434H5.64258V343.658H2.40234L2.20898 345.779C2.3457 345.756 2.51172 345.729 2.70703 345.697C2.90625 345.666 3.14844 345.65 3.43359 345.65ZM6.33398 384.717C6.33398 386.205 6.09375 387.311 5.61328 388.033C5.13672 388.756 4.40625 389.117 3.42188 389.117C2.46875 389.117 1.74609 388.744 1.25391 387.998C0.761719 387.252 0.515625 386.158 0.515625 384.717C0.515625 383.205 0.753906 382.092 1.23047 381.377C1.71094 380.658 2.44141 380.299 3.42188 380.299C4.37891 380.299 5.10352 380.674 5.5957 381.424C6.08789 382.174 6.33398 383.271 6.33398 384.717ZM1.91016 384.717C1.91016 385.885 2.0293 386.719 2.26758 387.219C2.50977 387.719 2.89453 387.969 3.42188 387.969C3.94922 387.969 4.33398 387.715 4.57617 387.207C4.82227 386.699 4.94531 385.869 4.94531 384.717C4.94531 383.568 4.82227 382.738 4.57617 382.227C4.33398 381.711 3.94922 381.453 3.42188 381.453C2.89453 381.453 2.50977 381.705 2.26758 382.209C2.0293 382.713 1.91016 383.549 1.91016 384.717Z" fill="white"/>
<path d="M6.33398 423H0.527344V421.957L2.73633 419.736C3.38867 419.068 3.82031 418.596 4.03125 418.318C4.24609 418.037 4.40234 417.773 4.5 417.527C4.59766 417.281 4.64648 417.018 4.64648 416.736C4.64648 416.35 4.5293 416.045 4.29492 415.822C4.06445 415.6 3.74414 415.488 3.33398 415.488C3.00586 415.488 2.6875 415.549 2.37891 415.67C2.07422 415.791 1.7207 416.01 1.31836 416.326L0.574219 415.418C1.05078 415.016 1.51367 414.73 1.96289 414.562C2.41211 414.395 2.89062 414.311 3.39844 414.311C4.19531 414.311 4.83398 414.52 5.31445 414.938C5.79492 415.352 6.03516 415.91 6.03516 416.613C6.03516 417 5.96484 417.367 5.82422 417.715C5.6875 418.062 5.47461 418.422 5.18555 418.793C4.90039 419.16 4.42383 419.658 3.75586 420.287L2.26758 421.729V421.787H6.33398V423ZM13.1895 418.717C13.1895 420.205 12.9492 421.311 12.4688 422.033C11.9922 422.756 11.2617 423.117 10.2773 423.117C9.32422 423.117 8.60156 422.744 8.10938 421.998C7.61719 421.252 7.37109 420.158 7.37109 418.717C7.37109 417.205 7.60938 416.092 8.08594 415.377C8.56641 414.658 9.29688 414.299 10.2773 414.299C11.2344 414.299 11.959 414.674 12.4512 415.424C12.9434 416.174 13.1895 417.271 13.1895 418.717ZM8.76562 418.717C8.76562 419.885 8.88477 420.719 9.12305 421.219C9.36523 421.719 9.75 421.969 10.2773 421.969C10.8047 421.969 11.1895 421.715 11.4316 421.207C11.6777 420.699 11.8008 419.869 11.8008 418.717C11.8008 417.568 11.6777 416.738 11.4316 416.227C11.1895 415.711 10.8047 415.453 10.2773 415.453C9.75 415.453 9.36523 415.705 9.12305 416.209C8.88477 416.713 8.76562 417.549 8.76562 418.717ZM20.0449 423H14.2383V421.957L16.4473 419.736C17.0996 419.068 17.5312 418.596 17.7422 418.318C17.957 418.037 18.1133 417.773 18.2109 417.527C18.3086 417.281 18.3574 417.018 18.3574 416.736C18.3574 416.35 18.2402 416.045 18.0059 415.822C17.7754 415.6 17.4551 415.488 17.0449 415.488C16.7168 415.488 16.3984 415.549 16.0898 415.67C15.7852 415.791 15.4316 416.01 15.0293 416.326L14.2852 415.418C14.7617 415.016 15.2246 414.73 15.6738 414.562C16.123 414.395 16.6016 414.311 17.1094 414.311C17.9062 414.311 18.5449 414.52 19.0254 414.938C19.5059 415.352 19.7461 415.91 19.7461 416.613C19.7461 417 19.6758 417.367 19.5352 417.715C19.3984 418.062 19.1855 418.422 18.8965 418.793C18.6113 419.16 18.1348 419.658 17.4668 420.287L15.9785 421.729V421.787H20.0449V423ZM25.1367 423H23.7598V417.469C23.7598 416.809 23.7754 416.285 23.8066 415.898C23.7168 415.992 23.6055 416.096 23.4727 416.209C23.3438 416.322 22.9062 416.682 22.1602 417.287L21.4688 416.414L23.9883 414.434H25.1367V423Z" fill="white"/>
<path d="M82.6309 420.686H82.748C83.4512 420.686 84 420.498 84.3945 420.123C84.793 419.744 84.9922 419.219 84.9922 418.547C84.9922 417.922 84.8066 417.426 84.4355 417.059C84.0684 416.691 83.5625 416.508 82.918 416.508H82.6309V420.686ZM81.3066 423.117V421.799H81.1133C80.4141 421.799 79.7988 421.672 79.2676 421.418C78.7402 421.16 78.3262 420.775 78.0254 420.264C77.7246 419.752 77.5742 419.184 77.5742 418.559C77.5742 417.953 77.7109 417.408 77.9844 416.924C78.2578 416.436 78.6504 416.055 79.1621 415.781C79.6738 415.504 80.2734 415.365 80.9609 415.365H81.3066V414.311H82.6309V415.365H82.9883C83.6797 415.365 84.2793 415.502 84.7871 415.775C85.2988 416.049 85.6875 416.428 85.9531 416.912C86.2227 417.393 86.3574 417.941 86.3574 418.559C86.3574 419.195 86.207 419.768 85.9062 420.275C85.6055 420.783 85.1914 421.164 84.6641 421.418C84.1406 421.672 83.5254 421.799 82.8184 421.799H82.6309V423.117H81.3066ZM81.3066 416.508H81.0195C80.3711 416.508 79.8633 416.693 79.4961 417.064C79.1289 417.432 78.9453 417.926 78.9453 418.547C78.9453 419.211 79.1426 419.734 79.5371 420.117C79.9316 420.496 80.4863 420.686 81.2012 420.686H81.3066V416.508ZM90.7637 423.117C89.7559 423.117 88.9668 422.824 88.3965 422.238C87.8301 421.648 87.5469 420.838 87.5469 419.807C87.5469 418.748 87.8105 417.916 88.3379 417.311C88.8652 416.705 89.5898 416.402 90.5117 416.402C91.3672 416.402 92.043 416.662 92.5391 417.182C93.0352 417.701 93.2832 418.416 93.2832 419.326V420.07H88.9648C88.9844 420.699 89.1543 421.184 89.4746 421.523C89.7949 421.859 90.2461 422.027 90.8281 422.027C91.2109 422.027 91.5664 421.992 91.8945 421.922C92.2266 421.848 92.582 421.727 92.9609 421.559V422.678C92.625 422.838 92.2852 422.951 91.9414 423.018C91.5977 423.084 91.2051 423.117 90.7637 423.117ZM90.5117 417.445C90.0742 417.445 89.7227 417.584 89.457 417.861C89.1953 418.139 89.0391 418.543 88.9883 419.074H91.9297C91.9219 418.539 91.793 418.135 91.543 417.861C91.293 417.584 90.9492 417.445 90.5117 417.445ZM100.473 418.178C100.473 418.943 100.025 419.406 99.1309 419.566V419.613C99.6309 419.672 100.014 419.83 100.279 420.088C100.545 420.346 100.678 420.68 100.678 421.09C100.678 421.703 100.443 422.176 99.9746 422.508C99.5098 422.836 98.832 423 97.9414 423H94.8477V416.52H97.9297C99.625 416.52 100.473 417.072 100.473 418.178ZM99.2656 421.008C99.2656 420.695 99.1445 420.475 98.9023 420.346C98.6602 420.213 98.2969 420.146 97.8125 420.146H96.2246V421.98H97.8477C98.793 421.98 99.2656 421.656 99.2656 421.008ZM99.0957 418.295C99.0957 418.037 98.9941 417.852 98.791 417.738C98.5918 417.621 98.293 417.562 97.8945 417.562H96.2246V419.121H97.6895C98.1504 419.121 98.5 419.062 98.7383 418.945C98.9766 418.824 99.0957 418.607 99.0957 418.295ZM105.389 423.117C104.568 423.117 103.932 422.822 103.479 422.232H103.396C103.451 422.779 103.479 423.111 103.479 423.229V425.883H102.102V416.52H103.215C103.246 416.641 103.311 416.93 103.408 417.387H103.479C103.908 416.73 104.553 416.402 105.412 416.402C106.221 416.402 106.85 416.695 107.299 417.281C107.752 417.867 107.979 418.689 107.979 419.748C107.979 420.807 107.748 421.633 107.287 422.227C106.83 422.82 106.197 423.117 105.389 423.117ZM105.055 417.527C104.508 417.527 104.107 417.688 103.854 418.008C103.604 418.328 103.479 418.84 103.479 419.543V419.748C103.479 420.537 103.604 421.109 103.854 421.465C104.104 421.816 104.512 421.992 105.078 421.992C105.555 421.992 105.922 421.797 106.18 421.406C106.438 421.016 106.566 420.459 106.566 419.736C106.566 419.01 106.438 418.461 106.18 418.09C105.926 417.715 105.551 417.527 105.055 417.527Z" fill="white"/>
<path d="M131.834 423L129.35 415.846H129.303C129.369 416.908 129.402 417.904 129.402 418.834V423H128.131V414.434H130.105L132.484 421.248H132.52L134.969 414.434H136.949V423H135.602V418.764C135.602 418.338 135.611 417.783 135.631 417.1C135.654 416.416 135.674 416.002 135.689 415.857H135.643L133.07 423H131.834ZM143.113 423L142.838 422.098H142.791C142.479 422.492 142.164 422.762 141.848 422.906C141.531 423.047 141.125 423.117 140.629 423.117C139.992 423.117 139.494 422.945 139.135 422.602C138.779 422.258 138.602 421.771 138.602 421.143C138.602 420.475 138.85 419.971 139.346 419.631C139.842 419.291 140.598 419.105 141.613 419.074L142.732 419.039V418.693C142.732 418.279 142.635 417.971 142.439 417.768C142.248 417.561 141.949 417.457 141.543 417.457C141.211 417.457 140.893 417.506 140.588 417.604C140.283 417.701 139.99 417.816 139.709 417.949L139.264 416.965C139.615 416.781 140 416.643 140.418 416.549C140.836 416.451 141.23 416.402 141.602 416.402C142.426 416.402 143.047 416.582 143.465 416.941C143.887 417.301 144.098 417.865 144.098 418.635V423H143.113ZM141.062 422.062C141.562 422.062 141.963 421.924 142.264 421.646C142.568 421.365 142.721 420.973 142.721 420.469V419.906L141.889 419.941C141.24 419.965 140.768 420.074 140.471 420.27C140.178 420.461 140.031 420.756 140.031 421.154C140.031 421.443 140.117 421.668 140.289 421.828C140.461 421.984 140.719 422.062 141.062 422.062ZM149.307 423.117C148.486 423.117 147.85 422.822 147.396 422.232H147.314C147.369 422.779 147.396 423.111 147.396 423.229V425.883H146.02V416.52H147.133C147.164 416.641 147.229 416.93 147.326 417.387H147.396C147.826 416.73 148.471 416.402 149.33 416.402C150.139 416.402 150.768 416.695 151.217 417.281C151.67 417.867 151.896 418.689 151.896 419.748C151.896 420.807 151.666 421.633 151.205 422.227C150.748 422.82 150.115 423.117 149.307 423.117ZM148.973 417.527C148.426 417.527 148.025 417.688 147.771 418.008C147.521 418.328 147.396 418.84 147.396 419.543V419.748C147.396 420.537 147.521 421.109 147.771 421.465C148.021 421.816 148.43 421.992 148.996 421.992C149.473 421.992 149.84 421.797 150.098 421.406C150.355 421.016 150.484 420.459 150.484 419.736C150.484 419.01 150.355 418.461 150.098 418.09C149.844 417.715 149.469 417.527 148.973 417.527ZM158.365 416.52V417.598H156.256V423H154.873V417.598H152.764V416.52H158.365Z" fill="white"/>
<path d="M190.445 423L189.59 420.621H186.314L185.477 423H184L187.205 414.398H188.729L191.934 423H190.445ZM189.221 419.414L188.418 417.082C188.359 416.926 188.277 416.68 188.172 416.344C188.07 416.008 188 415.762 187.961 415.605C187.855 416.086 187.701 416.611 187.498 417.182L186.725 419.414H189.221ZM198.584 416.52V423H197.201V417.609H194.295V423H192.918V416.52H198.584ZM203.846 423.117C203.025 423.117 202.389 422.822 201.936 422.232H201.854C201.908 422.779 201.936 423.111 201.936 423.229V425.883H200.559V416.52H201.672C201.703 416.641 201.768 416.93 201.865 417.387H201.936C202.365 416.73 203.01 416.402 203.869 416.402C204.678 416.402 205.307 416.695 205.756 417.281C206.209 417.867 206.436 418.689 206.436 419.748C206.436 420.807 206.205 421.633 205.744 422.227C205.287 422.82 204.654 423.117 203.846 423.117ZM203.512 417.527C202.965 417.527 202.564 417.688 202.311 418.008C202.061 418.328 201.936 418.84 201.936 419.543V419.748C201.936 420.537 202.061 421.109 202.311 421.465C202.561 421.816 202.969 421.992 203.535 421.992C204.012 421.992 204.379 421.797 204.637 421.406C204.895 421.016 205.023 420.459 205.023 419.736C205.023 419.01 204.895 418.461 204.637 418.09C204.383 417.715 204.008 417.527 203.512 417.527Z" fill="white"/>
<path d="M237.834 423L235.35 415.846H235.303C235.369 416.908 235.402 417.904 235.402 418.834V423H234.131V414.434H236.105L238.484 421.248H238.52L240.969 414.434H242.949V423H241.602V418.764C241.602 418.338 241.611 417.783 241.631 417.1C241.654 416.416 241.674 416.002 241.689 415.857H241.643L239.07 423H237.834ZM249.113 423L248.838 422.098H248.791C248.479 422.492 248.164 422.762 247.848 422.906C247.531 423.047 247.125 423.117 246.629 423.117C245.992 423.117 245.494 422.945 245.135 422.602C244.779 422.258 244.602 421.771 244.602 421.143C244.602 420.475 244.85 419.971 245.346 419.631C245.842 419.291 246.598 419.105 247.613 419.074L248.732 419.039V418.693C248.732 418.279 248.635 417.971 248.439 417.768C248.248 417.561 247.949 417.457 247.543 417.457C247.211 417.457 246.893 417.506 246.588 417.604C246.283 417.701 245.99 417.816 245.709 417.949L245.264 416.965C245.615 416.781 246 416.643 246.418 416.549C246.836 416.451 247.23 416.402 247.602 416.402C248.426 416.402 249.047 416.582 249.465 416.941C249.887 417.301 250.098 417.865 250.098 418.635V423H249.113ZM247.062 422.062C247.562 422.062 247.963 421.924 248.264 421.646C248.568 421.365 248.721 420.973 248.721 420.469V419.906L247.889 419.941C247.24 419.965 246.768 420.074 246.471 420.27C246.178 420.461 246.031 420.756 246.031 421.154C246.031 421.443 246.117 421.668 246.289 421.828C246.461 421.984 246.719 422.062 247.062 422.062ZM253.338 416.52V419.842C253.338 420.229 253.307 420.797 253.244 421.547L256.496 416.52H258.178V423H256.854V419.736C256.854 419.557 256.863 419.266 256.883 418.863C256.906 418.461 256.926 418.168 256.941 417.984L253.701 423H252.02V416.52H253.338ZM255.055 415.729C254.227 415.729 253.619 415.58 253.232 415.283C252.85 414.982 252.637 414.482 252.594 413.783H253.842C253.865 414.064 253.918 414.283 254 414.439C254.086 414.596 254.207 414.709 254.363 414.779C254.523 414.846 254.766 414.879 255.09 414.879C255.473 414.879 255.764 414.795 255.963 414.627C256.162 414.455 256.283 414.174 256.326 413.783H257.598C257.539 414.455 257.303 414.947 256.889 415.26C256.475 415.572 255.863 415.729 255.055 415.729Z" fill="white"/>
<path d="M284.74 414.434H286.023V418.887C286.023 419.352 286.012 419.822 285.988 420.299C285.965 420.771 285.947 421.092 285.936 421.26H285.988L290.365 414.434H292V423H290.711V418.582C290.711 417.906 290.748 417.086 290.822 416.121H290.775L286.381 423H284.74V414.434ZM302.752 419.748C302.752 420.811 302.492 421.639 301.973 422.232C301.457 422.822 300.736 423.117 299.811 423.117C298.959 423.117 298.281 422.867 297.777 422.367C297.277 421.863 296.986 421.143 296.904 420.205H295.475V423H294.098V416.52H295.475V419.121H296.916C297.014 418.262 297.314 417.594 297.818 417.117C298.326 416.641 298.998 416.402 299.834 416.402C300.732 416.402 301.443 416.705 301.967 417.311C302.49 417.912 302.752 418.725 302.752 419.748ZM298.311 419.748C298.311 420.486 298.428 421.045 298.662 421.424C298.9 421.803 299.287 421.992 299.822 421.992C300.354 421.992 300.738 421.803 300.977 421.424C301.215 421.045 301.334 420.486 301.334 419.748C301.334 419.018 301.215 418.465 300.977 418.09C300.738 417.715 300.354 417.527 299.822 417.527C299.287 417.527 298.9 417.715 298.662 418.09C298.428 418.465 298.311 419.018 298.311 419.748ZM305.729 416.52V419.121H308.781V416.52H310.158V423H308.781V420.205H305.729V423H304.352V416.52H305.729ZM313.51 419.109H315.133C316.941 419.109 317.846 419.734 317.846 420.984C317.846 421.645 317.615 422.146 317.154 422.49C316.693 422.83 316.02 423 315.133 423H312.133V416.52H313.51V419.109ZM316.463 421.02C316.463 420.695 316.34 420.469 316.094 420.34C315.848 420.211 315.5 420.146 315.051 420.146H313.51V421.98H315.074C315.527 421.98 315.871 421.898 316.105 421.734C316.344 421.57 316.463 421.332 316.463 421.02Z" fill="white"/>
<g opacity="0.2">
<line x1="40.5" y1="385" x2="40.5" y2="9" stroke="#EEF2F4"/>
<line x1="92.5" y1="385" x2="92.5" y2="9" stroke="#EEF2F4"/>
<line x1="144.5" y1="385" x2="144.5" y2="9" stroke="#EEF2F4"/>
<line x1="196.5" y1="385" x2="196.5" y2="9" stroke="#EEF2F4"/>
<line x1="248.5" y1="385" x2="248.5" y2="9" stroke="#EEF2F4"/>
<line x1="300.5" y1="385" x2="300.5" y2="9" stroke="#EEF2F4"/>
<line x1="41" y1="387.5" x2="301" y2="387.5" stroke="#EEF2F4"/>
<line x1="301" y1="350.5" x2="41" y2="350.5" stroke="#EEF2F4"/>
<line x1="301" y1="312.5" x2="41" y2="312.5" stroke="#EEF2F4"/>
<line x1="301" y1="274.5" x2="41" y2="274.5" stroke="#EEF2F4"/>
<line x1="301" y1="236.5" x2="41" y2="236.5" stroke="#EEF2F4"/>
<line x1="301" y1="198.5" x2="41" y2="198.5" stroke="#EEF2F4"/>
<line x1="301" y1="160.5" x2="41" y2="160.5" stroke="#EEF2F4"/>
<line x1="301" y1="122.5" x2="41" y2="122.5" stroke="#EEF2F4"/>
<line x1="301" y1="84.4995" x2="41" y2="84.4995" stroke="#EEF2F4"/>
<line x1="301" y1="46.4995" x2="41" y2="46.4995" stroke="#EEF2F4"/>
<line x1="301" y1="8.49951" x2="41" y2="8.49955" stroke="#EEF2F4"/>
</g>
<path d="M106 256C84 353 37 241 37 388H302V206.955C302 180.67 267.889 170.378 253.35 192.275C240.738 211.271 211.624 206.569 205.633 184.569L183.126 101.923C175.444 73.7127 136.54 70.8934 124.871 97.7011C123.631 100.551 122.827 103.571 122.486 106.66L106 256Z" fill="url(#paint0_linear_1158_8551)"/>
<defs>
<linearGradient id="paint0_linear_1158_8551" x1="167.477" y1="46" x2="167.477" y2="388" gradientUnits="userSpaceOnUse">
<stop stop-color="white"/>
<stop offset="1" stop-color="white" stop-opacity="0"/>
</linearGradient>
</defs>
</svg>
