<svg width="370" height="623" viewBox="0 0 370 623" fill="none" xmlns="http://www.w3.org/2000/svg">
<path d="M3.43359 164.65C4.29688 164.65 4.98047 164.879 5.48438 165.336C5.98828 165.793 6.24023 166.416 6.24023 167.205C6.24023 168.119 5.95312 168.834 5.37891 169.35C4.80859 169.861 3.99609 170.117 2.94141 170.117C1.98438 170.117 1.23242 169.963 0.685547 169.654V168.406C1.00195 168.586 1.36523 168.725 1.77539 168.822C2.18555 168.92 2.56641 168.969 2.91797 168.969C3.53906 168.969 4.01172 168.83 4.33594 168.553C4.66016 168.275 4.82227 167.869 4.82227 167.334C4.82227 166.311 4.16992 165.799 2.86523 165.799C2.68164 165.799 2.45508 165.818 2.18555 165.857C1.91602 165.893 1.67969 165.934 1.47656 165.98L0.861328 165.617L1.18945 161.434H5.64258V162.658H2.40234L2.20898 164.779C2.3457 164.756 2.51172 164.729 2.70703 164.697C2.90625 164.666 3.14844 164.65 3.43359 164.65ZM13.1895 165.717C13.1895 167.205 12.9492 168.311 12.4688 169.033C11.9922 169.756 11.2617 170.117 10.2773 170.117C9.32422 170.117 8.60156 169.744 8.10938 168.998C7.61719 168.252 7.37109 167.158 7.37109 165.717C7.37109 164.205 7.60938 163.092 8.08594 162.377C8.56641 161.658 9.29688 161.299 10.2773 161.299C11.2344 161.299 11.959 161.674 12.4512 162.424C12.9434 163.174 13.1895 164.271 13.1895 165.717ZM8.76562 165.717C8.76562 166.885 8.88477 167.719 9.12305 168.219C9.36523 168.719 9.75 168.969 10.2773 168.969C10.8047 168.969 11.1895 168.715 11.4316 168.207C11.6777 167.699 11.8008 166.869 11.8008 165.717C11.8008 164.568 11.6777 163.738 11.4316 163.227C11.1895 162.711 10.8047 162.453 10.2773 162.453C9.75 162.453 9.36523 162.705 9.12305 163.209C8.88477 163.713 8.76562 164.549 8.76562 165.717ZM6.63867 206.131H5.48438V208H4.14258V206.131H0.228516V205.07L4.14258 199.41H5.48438V204.988H6.63867V206.131ZM4.14258 204.988V202.838C4.14258 202.072 4.16211 201.445 4.20117 200.957H4.1543C4.04492 201.215 3.87305 201.527 3.63867 201.895L1.51172 204.988H4.14258ZM10.2891 202.65C11.1523 202.65 11.8359 202.879 12.3398 203.336C12.8438 203.793 13.0957 204.416 13.0957 205.205C13.0957 206.119 12.8086 206.834 12.2344 207.35C11.6641 207.861 10.8516 208.117 9.79688 208.117C8.83984 208.117 8.08789 207.963 7.54102 207.654V206.406C7.85742 206.586 8.2207 206.725 8.63086 206.822C9.04102 206.92 9.42188 206.969 9.77344 206.969C10.3945 206.969 10.8672 206.83 11.1914 206.553C11.5156 206.275 11.6777 205.869 11.6777 205.334C11.6777 204.311 11.0254 203.799 9.7207 203.799C9.53711 203.799 9.31055 203.818 9.04102 203.857C8.77148 203.893 8.53516 203.934 8.33203 203.98L7.7168 203.617L8.04492 199.434H12.498V200.658H9.25781L9.06445 202.779C9.20117 202.756 9.36719 202.729 9.5625 202.697C9.76172 202.666 10.0039 202.65 10.2891 202.65ZM6.63867 244.131H5.48438V246H4.14258V244.131H0.228516V243.07L4.14258 237.41H5.48438V242.988H6.63867V244.131ZM4.14258 242.988V240.838C4.14258 240.072 4.16211 239.445 4.20117 238.957H4.1543C4.04492 239.215 3.87305 239.527 3.63867 239.895L1.51172 242.988H4.14258ZM13.1895 241.717C13.1895 243.205 12.9492 244.311 12.4688 245.033C11.9922 245.756 11.2617 246.117 10.2773 246.117C9.32422 246.117 8.60156 245.744 8.10938 244.998C7.61719 244.252 7.37109 243.158 7.37109 241.717C7.37109 240.205 7.60938 239.092 8.08594 238.377C8.56641 237.658 9.29688 237.299 10.2773 237.299C11.2344 237.299 11.959 237.674 12.4512 238.424C12.9434 239.174 13.1895 240.271 13.1895 241.717ZM8.76562 241.717C8.76562 242.885 8.88477 243.719 9.12305 244.219C9.36523 244.719 9.75 244.969 10.2773 244.969C10.8047 244.969 11.1895 244.715 11.4316 244.207C11.6777 243.699 11.8008 242.869 11.8008 241.717C11.8008 240.568 11.6777 239.738 11.4316 239.227C11.1895 238.711 10.8047 238.453 10.2773 238.453C9.75 238.453 9.36523 238.705 9.12305 239.209C8.88477 239.713 8.76562 240.549 8.76562 241.717ZM6.01172 277.402C6.01172 277.945 5.85352 278.398 5.53711 278.762C5.2207 279.121 4.77539 279.363 4.20117 279.488V279.535C4.88867 279.621 5.4043 279.836 5.74805 280.18C6.0918 280.52 6.26367 280.973 6.26367 281.539C6.26367 282.363 5.97266 283 5.39062 283.449C4.80859 283.895 3.98047 284.117 2.90625 284.117C1.95703 284.117 1.15625 283.963 0.503906 283.654V282.43C0.867188 282.609 1.25195 282.748 1.6582 282.846C2.06445 282.943 2.45508 282.992 2.83008 282.992C3.49414 282.992 3.99023 282.869 4.31836 282.623C4.64648 282.377 4.81055 281.996 4.81055 281.48C4.81055 281.023 4.62891 280.688 4.26562 280.473C3.90234 280.258 3.33203 280.15 2.55469 280.15H1.81055V279.031H2.56641C3.93359 279.031 4.61719 278.559 4.61719 277.613C4.61719 277.246 4.49805 276.963 4.25977 276.764C4.02148 276.564 3.66992 276.465 3.20508 276.465C2.88086 276.465 2.56836 276.512 2.26758 276.605C1.9668 276.695 1.61133 276.873 1.20117 277.139L0.527344 276.178C1.3125 275.6 2.22461 275.311 3.26367 275.311C4.12695 275.311 4.80078 275.496 5.28516 275.867C5.76953 276.238 6.01172 276.75 6.01172 277.402ZM10.2891 278.65C11.1523 278.65 11.8359 278.879 12.3398 279.336C12.8438 279.793 13.0957 280.416 13.0957 281.205C13.0957 282.119 12.8086 282.834 12.2344 283.35C11.6641 283.861 10.8516 284.117 9.79688 284.117C8.83984 284.117 8.08789 283.963 7.54102 283.654V282.406C7.85742 282.586 8.2207 282.725 8.63086 282.822C9.04102 282.92 9.42188 282.969 9.77344 282.969C10.3945 282.969 10.8672 282.83 11.1914 282.553C11.5156 282.275 11.6777 281.869 11.6777 281.334C11.6777 280.311 11.0254 279.799 9.7207 279.799C9.53711 279.799 9.31055 279.818 9.04102 279.857C8.77148 279.893 8.53516 279.934 8.33203 279.98L7.7168 279.617L8.04492 275.434H12.498V276.658H9.25781L9.06445 278.779C9.20117 278.756 9.36719 278.729 9.5625 278.697C9.76172 278.666 10.0039 278.65 10.2891 278.65ZM6.01172 315.402C6.01172 315.945 5.85352 316.398 5.53711 316.762C5.2207 317.121 4.77539 317.363 4.20117 317.488V317.535C4.88867 317.621 5.4043 317.836 5.74805 318.18C6.0918 318.52 6.26367 318.973 6.26367 319.539C6.26367 320.363 5.97266 321 5.39062 321.449C4.80859 321.895 3.98047 322.117 2.90625 322.117C1.95703 322.117 1.15625 321.963 0.503906 321.654V320.43C0.867188 320.609 1.25195 320.748 1.6582 320.846C2.06445 320.943 2.45508 320.992 2.83008 320.992C3.49414 320.992 3.99023 320.869 4.31836 320.623C4.64648 320.377 4.81055 319.996 4.81055 319.48C4.81055 319.023 4.62891 318.688 4.26562 318.473C3.90234 318.258 3.33203 318.15 2.55469 318.15H1.81055V317.031H2.56641C3.93359 317.031 4.61719 316.559 4.61719 315.613C4.61719 315.246 4.49805 314.963 4.25977 314.764C4.02148 314.564 3.66992 314.465 3.20508 314.465C2.88086 314.465 2.56836 314.512 2.26758 314.605C1.9668 314.695 1.61133 314.873 1.20117 315.139L0.527344 314.178C1.3125 313.6 2.22461 313.311 3.26367 313.311C4.12695 313.311 4.80078 313.496 5.28516 313.867C5.76953 314.238 6.01172 314.75 6.01172 315.402ZM13.1895 317.717C13.1895 319.205 12.9492 320.311 12.4688 321.033C11.9922 321.756 11.2617 322.117 10.2773 322.117C9.32422 322.117 8.60156 321.744 8.10938 320.998C7.61719 320.252 7.37109 319.158 7.37109 317.717C7.37109 316.205 7.60938 315.092 8.08594 314.377C8.56641 313.658 9.29688 313.299 10.2773 313.299C11.2344 313.299 11.959 313.674 12.4512 314.424C12.9434 315.174 13.1895 316.271 13.1895 317.717ZM8.76562 317.717C8.76562 318.885 8.88477 319.719 9.12305 320.219C9.36523 320.719 9.75 320.969 10.2773 320.969C10.8047 320.969 11.1895 320.715 11.4316 320.207C11.6777 319.699 11.8008 318.869 11.8008 317.717C11.8008 316.568 11.6777 315.738 11.4316 315.227C11.1895 314.711 10.8047 314.453 10.2773 314.453C9.75 314.453 9.36523 314.705 9.12305 315.209C8.88477 315.713 8.76562 316.549 8.76562 317.717ZM6.33398 360H0.527344V358.957L2.73633 356.736C3.38867 356.068 3.82031 355.596 4.03125 355.318C4.24609 355.037 4.40234 354.773 4.5 354.527C4.59766 354.281 4.64648 354.018 4.64648 353.736C4.64648 353.35 4.5293 353.045 4.29492 352.822C4.06445 352.6 3.74414 352.488 3.33398 352.488C3.00586 352.488 2.6875 352.549 2.37891 352.67C2.07422 352.791 1.7207 353.01 1.31836 353.326L0.574219 352.418C1.05078 352.016 1.51367 351.73 1.96289 351.562C2.41211 351.395 2.89062 351.311 3.39844 351.311C4.19531 351.311 4.83398 351.52 5.31445 351.938C5.79492 352.352 6.03516 352.91 6.03516 353.613C6.03516 354 5.96484 354.367 5.82422 354.715C5.6875 355.062 5.47461 355.422 5.18555 355.793C4.90039 356.16 4.42383 356.658 3.75586 357.287L2.26758 358.729V358.787H6.33398V360ZM10.2891 354.65C11.1523 354.65 11.8359 354.879 12.3398 355.336C12.8438 355.793 13.0957 356.416 13.0957 357.205C13.0957 358.119 12.8086 358.834 12.2344 359.35C11.6641 359.861 10.8516 360.117 9.79688 360.117C8.83984 360.117 8.08789 359.963 7.54102 359.654V358.406C7.85742 358.586 8.2207 358.725 8.63086 358.822C9.04102 358.92 9.42188 358.969 9.77344 358.969C10.3945 358.969 10.8672 358.83 11.1914 358.553C11.5156 358.275 11.6777 357.869 11.6777 357.334C11.6777 356.311 11.0254 355.799 9.7207 355.799C9.53711 355.799 9.31055 355.818 9.04102 355.857C8.77148 355.893 8.53516 355.934 8.33203 355.98L7.7168 355.617L8.04492 351.434H12.498V352.658H9.25781L9.06445 354.779C9.20117 354.756 9.36719 354.729 9.5625 354.697C9.76172 354.666 10.0039 354.65 10.2891 354.65ZM6.33398 398H0.527344V396.957L2.73633 394.736C3.38867 394.068 3.82031 393.596 4.03125 393.318C4.24609 393.037 4.40234 392.773 4.5 392.527C4.59766 392.281 4.64648 392.018 4.64648 391.736C4.64648 391.35 4.5293 391.045 4.29492 390.822C4.06445 390.6 3.74414 390.488 3.33398 390.488C3.00586 390.488 2.6875 390.549 2.37891 390.67C2.07422 390.791 1.7207 391.01 1.31836 391.326L0.574219 390.418C1.05078 390.016 1.51367 389.73 1.96289 389.562C2.41211 389.395 2.89062 389.311 3.39844 389.311C4.19531 389.311 4.83398 389.52 5.31445 389.938C5.79492 390.352 6.03516 390.91 6.03516 391.613C6.03516 392 5.96484 392.367 5.82422 392.715C5.6875 393.062 5.47461 393.422 5.18555 393.793C4.90039 394.16 4.42383 394.658 3.75586 395.287L2.26758 396.729V396.787H6.33398V398ZM13.1895 393.717C13.1895 395.205 12.9492 396.311 12.4688 397.033C11.9922 397.756 11.2617 398.117 10.2773 398.117C9.32422 398.117 8.60156 397.744 8.10938 396.998C7.61719 396.252 7.37109 395.158 7.37109 393.717C7.37109 392.205 7.60938 391.092 8.08594 390.377C8.56641 389.658 9.29688 389.299 10.2773 389.299C11.2344 389.299 11.959 389.674 12.4512 390.424C12.9434 391.174 13.1895 392.271 13.1895 393.717ZM8.76562 393.717C8.76562 394.885 8.88477 395.719 9.12305 396.219C9.36523 396.719 9.75 396.969 10.2773 396.969C10.8047 396.969 11.1895 396.715 11.4316 396.207C11.6777 395.699 11.8008 394.869 11.8008 393.717C11.8008 392.568 11.6777 391.738 11.4316 391.227C11.1895 390.711 10.8047 390.453 10.2773 390.453C9.75 390.453 9.36523 390.705 9.12305 391.209C8.88477 391.713 8.76562 392.549 8.76562 393.717ZM4.57031 436H3.19336V430.469C3.19336 429.809 3.20898 429.285 3.24023 428.898C3.15039 428.992 3.03906 429.096 2.90625 429.209C2.77734 429.322 2.33984 429.682 1.59375 430.287L0.902344 429.414L3.42188 427.434H4.57031V436ZM10.2891 430.65C11.1523 430.65 11.8359 430.879 12.3398 431.336C12.8438 431.793 13.0957 432.416 13.0957 433.205C13.0957 434.119 12.8086 434.834 12.2344 435.35C11.6641 435.861 10.8516 436.117 9.79688 436.117C8.83984 436.117 8.08789 435.963 7.54102 435.654V434.406C7.85742 434.586 8.2207 434.725 8.63086 434.822C9.04102 434.92 9.42188 434.969 9.77344 434.969C10.3945 434.969 10.8672 434.83 11.1914 434.553C11.5156 434.275 11.6777 433.869 11.6777 433.334C11.6777 432.311 11.0254 431.799 9.7207 431.799C9.53711 431.799 9.31055 431.818 9.04102 431.857C8.77148 431.893 8.53516 431.934 8.33203 431.98L7.7168 431.617L8.04492 427.434H12.498V428.658H9.25781L9.06445 430.779C9.20117 430.756 9.36719 430.729 9.5625 430.697C9.76172 430.666 10.0039 430.65 10.2891 430.65ZM4.57031 474H3.19336V468.469C3.19336 467.809 3.20898 467.285 3.24023 466.898C3.15039 466.992 3.03906 467.096 2.90625 467.209C2.77734 467.322 2.33984 467.682 1.59375 468.287L0.902344 467.414L3.42188 465.434H4.57031V474ZM13.1895 469.717C13.1895 471.205 12.9492 472.311 12.4688 473.033C11.9922 473.756 11.2617 474.117 10.2773 474.117C9.32422 474.117 8.60156 473.744 8.10938 472.998C7.61719 472.252 7.37109 471.158 7.37109 469.717C7.37109 468.205 7.60938 467.092 8.08594 466.377C8.56641 465.658 9.29688 465.299 10.2773 465.299C11.2344 465.299 11.959 465.674 12.4512 466.424C12.9434 467.174 13.1895 468.271 13.1895 469.717ZM8.76562 469.717C8.76562 470.885 8.88477 471.719 9.12305 472.219C9.36523 472.719 9.75 472.969 10.2773 472.969C10.8047 472.969 11.1895 472.715 11.4316 472.207C11.6777 471.699 11.8008 470.869 11.8008 469.717C11.8008 468.568 11.6777 467.738 11.4316 467.227C11.1895 466.711 10.8047 466.453 10.2773 466.453C9.75 466.453 9.36523 466.705 9.12305 467.209C8.88477 467.713 8.76562 468.549 8.76562 469.717ZM3.43359 506.65C4.29688 506.65 4.98047 506.879 5.48438 507.336C5.98828 507.793 6.24023 508.416 6.24023 509.205C6.24023 510.119 5.95312 510.834 5.37891 511.35C4.80859 511.861 3.99609 512.117 2.94141 512.117C1.98438 512.117 1.23242 511.963 0.685547 511.654V510.406C1.00195 510.586 1.36523 510.725 1.77539 510.822C2.18555 510.92 2.56641 510.969 2.91797 510.969C3.53906 510.969 4.01172 510.83 4.33594 510.553C4.66016 510.275 4.82227 509.869 4.82227 509.334C4.82227 508.311 4.16992 507.799 2.86523 507.799C2.68164 507.799 2.45508 507.818 2.18555 507.857C1.91602 507.893 1.67969 507.934 1.47656 507.98L0.861328 507.617L1.18945 503.434H5.64258V504.658H2.40234L2.20898 506.779C2.3457 506.756 2.51172 506.729 2.70703 506.697C2.90625 506.666 3.14844 506.65 3.43359 506.65ZM6.33398 545.717C6.33398 547.205 6.09375 548.311 5.61328 549.033C5.13672 549.756 4.40625 550.117 3.42188 550.117C2.46875 550.117 1.74609 549.744 1.25391 548.998C0.761719 548.252 0.515625 547.158 0.515625 545.717C0.515625 544.205 0.753906 543.092 1.23047 542.377C1.71094 541.658 2.44141 541.299 3.42188 541.299C4.37891 541.299 5.10352 541.674 5.5957 542.424C6.08789 543.174 6.33398 544.271 6.33398 545.717ZM1.91016 545.717C1.91016 546.885 2.0293 547.719 2.26758 548.219C2.50977 548.719 2.89453 548.969 3.42188 548.969C3.94922 548.969 4.33398 548.715 4.57617 548.207C4.82227 547.699 4.94531 546.869 4.94531 545.717C4.94531 544.568 4.82227 543.738 4.57617 543.227C4.33398 542.711 3.94922 542.453 3.42188 542.453C2.89453 542.453 2.50977 542.705 2.26758 543.209C2.0293 543.713 1.91016 544.549 1.91016 545.717Z" fill="white"/>
<path d="M6.33398 584H0.527344V582.957L2.73633 580.736C3.38867 580.068 3.82031 579.596 4.03125 579.318C4.24609 579.037 4.40234 578.773 4.5 578.527C4.59766 578.281 4.64648 578.018 4.64648 577.736C4.64648 577.35 4.5293 577.045 4.29492 576.822C4.06445 576.6 3.74414 576.488 3.33398 576.488C3.00586 576.488 2.6875 576.549 2.37891 576.67C2.07422 576.791 1.7207 577.01 1.31836 577.326L0.574219 576.418C1.05078 576.016 1.51367 575.73 1.96289 575.562C2.41211 575.395 2.89062 575.311 3.39844 575.311C4.19531 575.311 4.83398 575.52 5.31445 575.938C5.79492 576.352 6.03516 576.91 6.03516 577.613C6.03516 578 5.96484 578.367 5.82422 578.715C5.6875 579.062 5.47461 579.422 5.18555 579.793C4.90039 580.16 4.42383 580.658 3.75586 581.287L2.26758 582.729V582.787H6.33398V584ZM13.1895 579.717C13.1895 581.205 12.9492 582.311 12.4688 583.033C11.9922 583.756 11.2617 584.117 10.2773 584.117C9.32422 584.117 8.60156 583.744 8.10938 582.998C7.61719 582.252 7.37109 581.158 7.37109 579.717C7.37109 578.205 7.60938 577.092 8.08594 576.377C8.56641 575.658 9.29688 575.299 10.2773 575.299C11.2344 575.299 11.959 575.674 12.4512 576.424C12.9434 577.174 13.1895 578.271 13.1895 579.717ZM8.76562 579.717C8.76562 580.885 8.88477 581.719 9.12305 582.219C9.36523 582.719 9.75 582.969 10.2773 582.969C10.8047 582.969 11.1895 582.715 11.4316 582.207C11.6777 581.699 11.8008 580.869 11.8008 579.717C11.8008 578.568 11.6777 577.738 11.4316 577.227C11.1895 576.711 10.8047 576.453 10.2773 576.453C9.75 576.453 9.36523 576.705 9.12305 577.209C8.88477 577.713 8.76562 578.549 8.76562 579.717ZM20.0449 584H14.2383V582.957L16.4473 580.736C17.0996 580.068 17.5312 579.596 17.7422 579.318C17.957 579.037 18.1133 578.773 18.2109 578.527C18.3086 578.281 18.3574 578.018 18.3574 577.736C18.3574 577.35 18.2402 577.045 18.0059 576.822C17.7754 576.6 17.4551 576.488 17.0449 576.488C16.7168 576.488 16.3984 576.549 16.0898 576.67C15.7852 576.791 15.4316 577.01 15.0293 577.326L14.2852 576.418C14.7617 576.016 15.2246 575.73 15.6738 575.562C16.123 575.395 16.6016 575.311 17.1094 575.311C17.9062 575.311 18.5449 575.52 19.0254 575.938C19.5059 576.352 19.7461 576.91 19.7461 577.613C19.7461 578 19.6758 578.367 19.5352 578.715C19.3984 579.062 19.1855 579.422 18.8965 579.793C18.6113 580.16 18.1348 580.658 17.4668 581.287L15.9785 582.729V582.787H20.0449V584ZM25.1367 584H23.7598V578.469C23.7598 577.809 23.7754 577.285 23.8066 576.898C23.7168 576.992 23.6055 577.096 23.4727 577.209C23.3438 577.322 22.9062 577.682 22.1602 578.287L21.4688 577.414L23.9883 575.434H25.1367V584Z" fill="white"/>
<path d="M82.6309 581.686H82.748C83.4512 581.686 84 581.498 84.3945 581.123C84.793 580.744 84.9922 580.219 84.9922 579.547C84.9922 578.922 84.8066 578.426 84.4355 578.059C84.0684 577.691 83.5625 577.508 82.918 577.508H82.6309V581.686ZM81.3066 584.117V582.799H81.1133C80.4141 582.799 79.7988 582.672 79.2676 582.418C78.7402 582.16 78.3262 581.775 78.0254 581.264C77.7246 580.752 77.5742 580.184 77.5742 579.559C77.5742 578.953 77.7109 578.408 77.9844 577.924C78.2578 577.436 78.6504 577.055 79.1621 576.781C79.6738 576.504 80.2734 576.365 80.9609 576.365H81.3066V575.311H82.6309V576.365H82.9883C83.6797 576.365 84.2793 576.502 84.7871 576.775C85.2988 577.049 85.6875 577.428 85.9531 577.912C86.2227 578.393 86.3574 578.941 86.3574 579.559C86.3574 580.195 86.207 580.768 85.9062 581.275C85.6055 581.783 85.1914 582.164 84.6641 582.418C84.1406 582.672 83.5254 582.799 82.8184 582.799H82.6309V584.117H81.3066ZM81.3066 577.508H81.0195C80.3711 577.508 79.8633 577.693 79.4961 578.064C79.1289 578.432 78.9453 578.926 78.9453 579.547C78.9453 580.211 79.1426 580.734 79.5371 581.117C79.9316 581.496 80.4863 581.686 81.2012 581.686H81.3066V577.508ZM90.7637 584.117C89.7559 584.117 88.9668 583.824 88.3965 583.238C87.8301 582.648 87.5469 581.838 87.5469 580.807C87.5469 579.748 87.8105 578.916 88.3379 578.311C88.8652 577.705 89.5898 577.402 90.5117 577.402C91.3672 577.402 92.043 577.662 92.5391 578.182C93.0352 578.701 93.2832 579.416 93.2832 580.326V581.07H88.9648C88.9844 581.699 89.1543 582.184 89.4746 582.523C89.7949 582.859 90.2461 583.027 90.8281 583.027C91.2109 583.027 91.5664 582.992 91.8945 582.922C92.2266 582.848 92.582 582.727 92.9609 582.559V583.678C92.625 583.838 92.2852 583.951 91.9414 584.018C91.5977 584.084 91.2051 584.117 90.7637 584.117ZM90.5117 578.445C90.0742 578.445 89.7227 578.584 89.457 578.861C89.1953 579.139 89.0391 579.543 88.9883 580.074H91.9297C91.9219 579.539 91.793 579.135 91.543 578.861C91.293 578.584 90.9492 578.445 90.5117 578.445ZM100.473 579.178C100.473 579.943 100.025 580.406 99.1309 580.566V580.613C99.6309 580.672 100.014 580.83 100.279 581.088C100.545 581.346 100.678 581.68 100.678 582.09C100.678 582.703 100.443 583.176 99.9746 583.508C99.5098 583.836 98.832 584 97.9414 584H94.8477V577.52H97.9297C99.625 577.52 100.473 578.072 100.473 579.178ZM99.2656 582.008C99.2656 581.695 99.1445 581.475 98.9023 581.346C98.6602 581.213 98.2969 581.146 97.8125 581.146H96.2246V582.98H97.8477C98.793 582.98 99.2656 582.656 99.2656 582.008ZM99.0957 579.295C99.0957 579.037 98.9941 578.852 98.791 578.738C98.5918 578.621 98.293 578.562 97.8945 578.562H96.2246V580.121H97.6895C98.1504 580.121 98.5 580.062 98.7383 579.945C98.9766 579.824 99.0957 579.607 99.0957 579.295ZM105.389 584.117C104.568 584.117 103.932 583.822 103.479 583.232H103.396C103.451 583.779 103.479 584.111 103.479 584.229V586.883H102.102V577.52H103.215C103.246 577.641 103.311 577.93 103.408 578.387H103.479C103.908 577.73 104.553 577.402 105.412 577.402C106.221 577.402 106.85 577.695 107.299 578.281C107.752 578.867 107.979 579.689 107.979 580.748C107.979 581.807 107.748 582.633 107.287 583.227C106.83 583.82 106.197 584.117 105.389 584.117ZM105.055 578.527C104.508 578.527 104.107 578.688 103.854 579.008C103.604 579.328 103.479 579.84 103.479 580.543V580.748C103.479 581.537 103.604 582.109 103.854 582.465C104.104 582.816 104.512 582.992 105.078 582.992C105.555 582.992 105.922 582.797 106.18 582.406C106.438 582.016 106.566 581.459 106.566 580.736C106.566 580.01 106.438 579.461 106.18 579.09C105.926 578.715 105.551 578.527 105.055 578.527Z" fill="white"/>
<path d="M131.834 584L129.35 576.846H129.303C129.369 577.908 129.402 578.904 129.402 579.834V584H128.131V575.434H130.105L132.484 582.248H132.52L134.969 575.434H136.949V584H135.602V579.764C135.602 579.338 135.611 578.783 135.631 578.1C135.654 577.416 135.674 577.002 135.689 576.857H135.643L133.07 584H131.834ZM143.113 584L142.838 583.098H142.791C142.479 583.492 142.164 583.762 141.848 583.906C141.531 584.047 141.125 584.117 140.629 584.117C139.992 584.117 139.494 583.945 139.135 583.602C138.779 583.258 138.602 582.771 138.602 582.143C138.602 581.475 138.85 580.971 139.346 580.631C139.842 580.291 140.598 580.105 141.613 580.074L142.732 580.039V579.693C142.732 579.279 142.635 578.971 142.439 578.768C142.248 578.561 141.949 578.457 141.543 578.457C141.211 578.457 140.893 578.506 140.588 578.604C140.283 578.701 139.99 578.816 139.709 578.949L139.264 577.965C139.615 577.781 140 577.643 140.418 577.549C140.836 577.451 141.23 577.402 141.602 577.402C142.426 577.402 143.047 577.582 143.465 577.941C143.887 578.301 144.098 578.865 144.098 579.635V584H143.113ZM141.062 583.062C141.562 583.062 141.963 582.924 142.264 582.646C142.568 582.365 142.721 581.973 142.721 581.469V580.906L141.889 580.941C141.24 580.965 140.768 581.074 140.471 581.27C140.178 581.461 140.031 581.756 140.031 582.154C140.031 582.443 140.117 582.668 140.289 582.828C140.461 582.984 140.719 583.062 141.062 583.062ZM149.307 584.117C148.486 584.117 147.85 583.822 147.396 583.232H147.314C147.369 583.779 147.396 584.111 147.396 584.229V586.883H146.02V577.52H147.133C147.164 577.641 147.229 577.93 147.326 578.387H147.396C147.826 577.73 148.471 577.402 149.33 577.402C150.139 577.402 150.768 577.695 151.217 578.281C151.67 578.867 151.896 579.689 151.896 580.748C151.896 581.807 151.666 582.633 151.205 583.227C150.748 583.82 150.115 584.117 149.307 584.117ZM148.973 578.527C148.426 578.527 148.025 578.688 147.771 579.008C147.521 579.328 147.396 579.84 147.396 580.543V580.748C147.396 581.537 147.521 582.109 147.771 582.465C148.021 582.816 148.43 582.992 148.996 582.992C149.473 582.992 149.84 582.797 150.098 582.406C150.355 582.016 150.484 581.459 150.484 580.736C150.484 580.01 150.355 579.461 150.098 579.09C149.844 578.715 149.469 578.527 148.973 578.527ZM158.365 577.52V578.598H156.256V584H154.873V578.598H152.764V577.52H158.365Z" fill="white"/>
<path d="M190.445 584L189.59 581.621H186.314L185.477 584H184L187.205 575.398H188.729L191.934 584H190.445ZM189.221 580.414L188.418 578.082C188.359 577.926 188.277 577.68 188.172 577.344C188.07 577.008 188 576.762 187.961 576.605C187.855 577.086 187.701 577.611 187.498 578.182L186.725 580.414H189.221ZM198.584 577.52V584H197.201V578.609H194.295V584H192.918V577.52H198.584ZM203.846 584.117C203.025 584.117 202.389 583.822 201.936 583.232H201.854C201.908 583.779 201.936 584.111 201.936 584.229V586.883H200.559V577.52H201.672C201.703 577.641 201.768 577.93 201.865 578.387H201.936C202.365 577.73 203.01 577.402 203.869 577.402C204.678 577.402 205.307 577.695 205.756 578.281C206.209 578.867 206.436 579.689 206.436 580.748C206.436 581.807 206.205 582.633 205.744 583.227C205.287 583.82 204.654 584.117 203.846 584.117ZM203.512 578.527C202.965 578.527 202.564 578.688 202.311 579.008C202.061 579.328 201.936 579.84 201.936 580.543V580.748C201.936 581.537 202.061 582.109 202.311 582.465C202.561 582.816 202.969 582.992 203.535 582.992C204.012 582.992 204.379 582.797 204.637 582.406C204.895 582.016 205.023 581.459 205.023 580.736C205.023 580.01 204.895 579.461 204.637 579.09C204.383 578.715 204.008 578.527 203.512 578.527Z" fill="white"/>
<path d="M237.834 584L235.35 576.846H235.303C235.369 577.908 235.402 578.904 235.402 579.834V584H234.131V575.434H236.105L238.484 582.248H238.52L240.969 575.434H242.949V584H241.602V579.764C241.602 579.338 241.611 578.783 241.631 578.1C241.654 577.416 241.674 577.002 241.689 576.857H241.643L239.07 584H237.834ZM249.113 584L248.838 583.098H248.791C248.479 583.492 248.164 583.762 247.848 583.906C247.531 584.047 247.125 584.117 246.629 584.117C245.992 584.117 245.494 583.945 245.135 583.602C244.779 583.258 244.602 582.771 244.602 582.143C244.602 581.475 244.85 580.971 245.346 580.631C245.842 580.291 246.598 580.105 247.613 580.074L248.732 580.039V579.693C248.732 579.279 248.635 578.971 248.439 578.768C248.248 578.561 247.949 578.457 247.543 578.457C247.211 578.457 246.893 578.506 246.588 578.604C246.283 578.701 245.99 578.816 245.709 578.949L245.264 577.965C245.615 577.781 246 577.643 246.418 577.549C246.836 577.451 247.23 577.402 247.602 577.402C248.426 577.402 249.047 577.582 249.465 577.941C249.887 578.301 250.098 578.865 250.098 579.635V584H249.113ZM247.062 583.062C247.562 583.062 247.963 582.924 248.264 582.646C248.568 582.365 248.721 581.973 248.721 581.469V580.906L247.889 580.941C247.24 580.965 246.768 581.074 246.471 581.27C246.178 581.461 246.031 581.756 246.031 582.154C246.031 582.443 246.117 582.668 246.289 582.828C246.461 582.984 246.719 583.062 247.062 583.062ZM253.338 577.52V580.842C253.338 581.229 253.307 581.797 253.244 582.547L256.496 577.52H258.178V584H256.854V580.736C256.854 580.557 256.863 580.266 256.883 579.863C256.906 579.461 256.926 579.168 256.941 578.984L253.701 584H252.02V577.52H253.338ZM255.055 576.729C254.227 576.729 253.619 576.58 253.232 576.283C252.85 575.982 252.637 575.482 252.594 574.783H253.842C253.865 575.064 253.918 575.283 254 575.439C254.086 575.596 254.207 575.709 254.363 575.779C254.523 575.846 254.766 575.879 255.09 575.879C255.473 575.879 255.764 575.795 255.963 575.627C256.162 575.455 256.283 575.174 256.326 574.783H257.598C257.539 575.455 257.303 575.947 256.889 576.26C256.475 576.572 255.863 576.729 255.055 576.729Z" fill="white"/>
<path d="M284.74 575.434H286.023V579.887C286.023 580.352 286.012 580.822 285.988 581.299C285.965 581.771 285.947 582.092 285.936 582.26H285.988L290.365 575.434H292V584H290.711V579.582C290.711 578.906 290.748 578.086 290.822 577.121H290.775L286.381 584H284.74V575.434ZM302.752 580.748C302.752 581.811 302.492 582.639 301.973 583.232C301.457 583.822 300.736 584.117 299.811 584.117C298.959 584.117 298.281 583.867 297.777 583.367C297.277 582.863 296.986 582.143 296.904 581.205H295.475V584H294.098V577.52H295.475V580.121H296.916C297.014 579.262 297.314 578.594 297.818 578.117C298.326 577.641 298.998 577.402 299.834 577.402C300.732 577.402 301.443 577.705 301.967 578.311C302.49 578.912 302.752 579.725 302.752 580.748ZM298.311 580.748C298.311 581.486 298.428 582.045 298.662 582.424C298.9 582.803 299.287 582.992 299.822 582.992C300.354 582.992 300.738 582.803 300.977 582.424C301.215 582.045 301.334 581.486 301.334 580.748C301.334 580.018 301.215 579.465 300.977 579.09C300.738 578.715 300.354 578.527 299.822 578.527C299.287 578.527 298.9 578.715 298.662 579.09C298.428 579.465 298.311 580.018 298.311 580.748ZM305.729 577.52V580.121H308.781V577.52H310.158V584H308.781V581.205H305.729V584H304.352V577.52H305.729ZM313.51 580.109H315.133C316.941 580.109 317.846 580.734 317.846 581.984C317.846 582.645 317.615 583.146 317.154 583.49C316.693 583.83 316.02 584 315.133 584H312.133V577.52H313.51V580.109ZM316.463 582.02C316.463 581.695 316.34 581.469 316.094 581.34C315.848 581.211 315.5 581.146 315.051 581.146H313.51V582.98H315.074C315.527 582.98 315.871 582.898 316.105 582.734C316.344 582.57 316.463 582.332 316.463 582.02Z" fill="white"/>
<g opacity="0.2">
<line x1="70.5" y1="546" x2="70.5" y2="170" stroke="#EEF2F4"/>
<line x1="122.5" y1="546" x2="122.5" y2="170" stroke="#EEF2F4"/>
<line x1="174.5" y1="546" x2="174.5" y2="170" stroke="#EEF2F4"/>
<line x1="226.5" y1="546" x2="226.5" y2="170" stroke="#EEF2F4"/>
<line x1="278.5" y1="546" x2="278.5" y2="170" stroke="#EEF2F4"/>
<line x1="330.5" y1="546" x2="330.5" y2="170" stroke="#EEF2F4"/>
<line x1="71" y1="548.5" x2="331" y2="548.5" stroke="#EEF2F4"/>
<line x1="331" y1="511.5" x2="71" y2="511.5" stroke="#EEF2F4"/>
<line x1="331" y1="473.5" x2="71" y2="473.5" stroke="#EEF2F4"/>
<line x1="331" y1="435.5" x2="71" y2="435.5" stroke="#EEF2F4"/>
<line x1="331" y1="397.5" x2="71" y2="397.5" stroke="#EEF2F4"/>
<line x1="331" y1="359.5" x2="71" y2="359.5" stroke="#EEF2F4"/>
<line x1="331" y1="321.5" x2="71" y2="321.5" stroke="#EEF2F4"/>
<line x1="331" y1="283.5" x2="71" y2="283.5" stroke="#EEF2F4"/>
<line x1="331" y1="245.5" x2="71" y2="245.5" stroke="#EEF2F4"/>
<line x1="331" y1="207.5" x2="71" y2="207.5" stroke="#EEF2F4"/>
<line x1="331" y1="169.5" x2="71" y2="169.5" stroke="#EEF2F4"/>
</g>
<path d="M259.898 388.571L230.881 191.564C229.226 180.326 219.584 172 208.225 172C196.672 172 186.928 180.606 185.5 192.07L169.94 316.996C166.982 340.744 132.9 341.677 128.648 318.125C124.318 294.147 89.4255 295.724 87.2765 319.995L67 549H332V473V445V415.758C332 396.903 309.27 387.386 295.836 400.616C283.441 412.823 262.433 405.781 259.898 388.571Z" fill="url(#paint0_linear_1162_8511)"/>
<defs>
<linearGradient id="paint0_linear_1162_8511" x1="197.477" y1="207" x2="197.477" y2="549" gradientUnits="userSpaceOnUse">
<stop stop-color="white"/>
<stop offset="1" stop-color="white" stop-opacity="0"/>
</linearGradient>
</defs>
</svg>
