<svg width="50" height="50" viewBox="0 0 50 50" fill="none" xmlns="http://www.w3.org/2000/svg">
<path d="M39.8292 13.8037C39.701 13.7609 39.6155 13.7182 39.5301 13.6755L39.4019 13.59V13.419L39.4873 12.6071L39.5301 12.3079L39.7865 12.4361C39.8292 12.4361 39.8719 12.4789 39.9147 12.4789C39.9574 12.4789 40.0001 12.5216 40.0429 12.5216C40.1284 12.5643 40.2566 12.6071 40.342 12.6071C40.4275 12.6498 40.5557 12.6498 40.6412 12.6926C40.7266 12.6926 40.8121 12.7353 40.8976 12.7353C40.9831 12.7353 41.0685 12.7353 41.154 12.778C41.1967 12.778 41.2822 12.778 41.3249 12.778C41.3677 12.778 41.4531 12.778 41.4959 12.778C41.5813 12.778 41.6668 12.778 41.7095 12.7353C41.795 12.7353 41.8378 12.6926 41.9232 12.6498C42.0087 12.6071 42.0514 12.5643 42.0942 12.5216C42.1369 12.4789 42.1796 12.4361 42.2224 12.3507C42.2651 12.3079 42.2651 12.2225 42.3078 12.1797C42.3078 12.0943 42.3078 12.0515 42.3078 11.9661C42.3078 11.8806 42.3078 11.8379 42.2651 11.7524C42.2224 11.7096 42.2224 11.6242 42.1796 11.5814C42.1369 11.5387 42.0942 11.496 42.0514 11.4532C42.0087 11.4105 41.966 11.3678 41.8805 11.325C41.8378 11.2823 41.7523 11.2396 41.7095 11.2396C41.6668 11.1968 41.5813 11.1968 41.4959 11.1541C41.3677 11.1114 41.2395 11.0686 41.1113 10.9831C40.9831 10.9404 40.8548 10.8549 40.7266 10.8122C40.5984 10.7695 40.4702 10.684 40.3848 10.5985C40.2993 10.5131 40.1711 10.4703 40.0856 10.3421C40.0001 10.2567 39.9147 10.1712 39.8292 10.0857C39.7437 10.0002 39.701 9.87204 39.6155 9.78657C39.5728 9.65836 39.5301 9.53016 39.4873 9.40195C39.4446 9.27375 39.4446 9.14554 39.4446 9.01733C39.4446 8.84639 39.4446 8.71819 39.4873 8.54725C39.5301 8.41904 39.5728 8.2481 39.6155 8.1199C39.6583 7.99169 39.7437 7.86349 39.8292 7.73528C39.9147 7.60708 40.0001 7.52161 40.1284 7.3934C40.2566 7.30793 40.342 7.22246 40.4702 7.13699C40.5984 7.05152 40.7266 7.00879 40.8548 6.96605H40.8976V6.23955V6.02588H41.1113H41.795H42.0087V6.23955V6.92332H42.0942C42.1796 6.92332 42.2224 6.96605 42.3078 6.96605C42.3933 6.96605 42.4788 7.00879 42.5215 7.00879C42.5643 7.00879 42.6497 7.05152 42.6925 7.05152C42.7352 7.05152 42.7779 7.09426 42.8634 7.09426L43.0343 7.13699L42.9916 7.30793L42.9061 8.07716L42.8634 8.33357L42.607 8.2481C42.5642 8.2481 42.5215 8.20537 42.436 8.20537C42.3933 8.20537 42.3506 8.16263 42.2651 8.16263C42.1796 8.16263 42.0942 8.1199 42.0087 8.1199C41.9232 8.1199 41.8378 8.07716 41.7523 8.07716C41.7095 8.07716 41.6241 8.07716 41.5813 8.07716C41.5386 8.07716 41.4959 8.07716 41.4104 8.07716C41.3249 8.07716 41.2395 8.07716 41.154 8.1199C41.0685 8.16263 41.0258 8.16263 40.9403 8.20537C40.8976 8.2481 40.8121 8.29084 40.7694 8.33357C40.7266 8.37631 40.6839 8.46178 40.6839 8.50451C40.6412 8.54725 40.6412 8.63272 40.6412 8.71819C40.6412 8.80366 40.6412 8.84639 40.6412 8.93186C40.6412 9.01733 40.6839 9.06007 40.6839 9.14554C40.7266 9.18827 40.7266 9.27374 40.7694 9.31648C40.8121 9.35921 40.8548 9.40195 40.8976 9.44469C40.9403 9.48742 41.0258 9.53016 41.0685 9.57289C41.1113 9.61563 41.1967 9.61563 41.2395 9.65836C41.3249 9.7011 41.3677 9.7011 41.4531 9.74383C41.5813 9.78657 41.7096 9.8293 41.8378 9.91477C41.966 9.95751 42.0942 10.043 42.2224 10.0857C42.3506 10.1284 42.436 10.2139 42.5642 10.2994C42.6925 10.3849 42.7779 10.4703 42.8634 10.5558C42.9489 10.6413 43.0343 10.7267 43.1198 10.8122C43.2053 10.8977 43.248 11.0259 43.2907 11.1114C43.3335 11.2396 43.3762 11.3678 43.419 11.4532C43.4617 11.5814 43.4617 11.7096 43.4617 11.8379C43.4617 12.0088 43.4617 12.137 43.419 12.3079C43.3762 12.4789 43.3335 12.6071 43.2907 12.7353C43.248 12.8635 43.1625 12.9917 43.0771 13.1199C42.9916 13.2481 42.9061 13.3336 42.7779 13.419C42.6497 13.5045 42.5215 13.59 42.3933 13.6755C42.2651 13.7609 42.0942 13.8037 41.966 13.8464H41.9232V14.5729V14.7866H41.7095H41.0258H40.8121V14.5729V13.8891H40.7266C40.5984 13.8891 40.4702 13.8464 40.342 13.8464C40.2138 13.8037 40.0856 13.8037 40.0001 13.7609C40.0429 13.8464 39.9147 13.8037 39.8292 13.8037Z" fill="black"/>
<path d="M41.4956 17.3505C45.299 17.3505 48.3759 14.2736 48.3759 10.4702C48.3759 6.66677 45.299 3.58984 41.4956 3.58984C37.6922 3.58984 34.6152 6.7095 34.6152 10.5129C34.6152 14.3163 37.6922 17.3505 41.4956 17.3505ZM41.4956 5.17104C44.4443 5.17104 46.8375 7.5642 46.8375 10.5129C46.8375 13.4616 44.4443 15.8548 41.4956 15.8548C38.5469 15.8548 36.1537 13.4616 36.1537 10.5129C36.1537 7.5642 38.5469 5.17104 41.4956 5.17104Z" fill="white"/>
<path d="M41.4956 17.3505C45.299 17.3505 48.3759 14.2736 48.3759 10.4702C48.3759 6.66677 45.299 3.58984 41.4956 3.58984C37.6922 3.58984 34.6152 6.7095 34.6152 10.5129C34.6152 14.3163 37.6922 17.3505 41.4956 17.3505ZM41.4956 5.17104C44.4443 5.17104 46.8375 7.5642 46.8375 10.5129C46.8375 13.4616 44.4443 15.8548 41.4956 15.8548C38.5469 15.8548 36.1537 13.4616 36.1537 10.5129C36.1537 7.5642 38.5469 5.17104 41.4956 5.17104Z" fill="url(#paint0_radial_1185_3967)"/>
<path d="M8.80353 29.0603C8.97447 29.0603 9.10268 29.0176 9.23088 28.9321L19.4446 21.6244L29.3163 25.727C29.5728 25.8124 29.8719 25.8124 30.0856 25.6415L38.0343 19.3595C38.3762 19.1031 38.4189 18.633 38.1625 18.2911C37.9061 17.9492 37.436 17.9065 37.0941 18.1629L29.4873 24.1885L19.6582 20.086C19.4018 20.0005 19.1454 20.0005 18.9317 20.1714L8.37618 27.6928C8.0343 27.9492 7.94883 28.4193 8.20524 28.7612C8.33345 28.9748 8.58986 29.0603 8.80353 29.0603Z" fill="white"/>
<path d="M8.80353 29.0603C8.97447 29.0603 9.10268 29.0176 9.23088 28.9321L19.4446 21.6244L29.3163 25.727C29.5728 25.8124 29.8719 25.8124 30.0856 25.6415L38.0343 19.3595C38.3762 19.1031 38.4189 18.633 38.1625 18.2911C37.9061 17.9492 37.436 17.9065 37.0941 18.1629L29.4873 24.1885L19.6582 20.086C19.4018 20.0005 19.1454 20.0005 18.9317 20.1714L8.37618 27.6928C8.0343 27.9492 7.94883 28.4193 8.20524 28.7612C8.33345 28.9748 8.58986 29.0603 8.80353 29.0603Z" fill="url(#paint1_radial_1185_3967)"/>
<path d="M49.2308 44.0597H45.7265V22.2648C45.7265 21.8375 45.3846 21.4956 44.9573 21.4956H38.0342C37.6068 21.4956 37.265 21.8375 37.265 22.2648V44.0597H34.7009V29.7862C34.7009 29.3589 34.359 29.017 33.9316 29.017H27.0513C26.6239 29.017 26.2821 29.3589 26.2821 29.7862V44.0597H23.7179V28.6751C23.7179 28.2477 23.3761 27.9059 22.9487 27.9059H16.0256C15.5983 27.9059 15.2564 28.2477 15.2564 28.6751V44.0597H12.6923V33.0768C12.6923 32.6495 12.3504 32.3076 11.9231 32.3076H5.04274C4.61538 32.3076 4.2735 32.6495 4.2735 33.0768V44.0597H0.769231C0.34188 44.0597 0 44.4016 0 44.829C0 45.2563 0.34188 45.5982 0.769231 45.5982H5.04274H11.9658H16.0256H22.9487H27.0085H33.9744H38.0342H44.9573H49.2308C49.6581 45.5982 50 45.2563 50 44.829C50 44.4016 49.6154 44.0597 49.2308 44.0597ZM38.8034 22.9913H44.2308V44.0597H38.8034V22.9913ZM27.7778 30.5554H33.2051V44.0597H27.7778V30.5554ZM16.7949 29.4016H22.2222V44.017H16.7949V29.4016ZM5.81197 33.8033H11.2393V44.017H5.81197V33.8033Z" fill="white"/>
<path d="M49.2308 44.0597H45.7265V22.2648C45.7265 21.8375 45.3846 21.4956 44.9573 21.4956H38.0342C37.6068 21.4956 37.265 21.8375 37.265 22.2648V44.0597H34.7009V29.7862C34.7009 29.3589 34.359 29.017 33.9316 29.017H27.0513C26.6239 29.017 26.2821 29.3589 26.2821 29.7862V44.0597H23.7179V28.6751C23.7179 28.2477 23.3761 27.9059 22.9487 27.9059H16.0256C15.5983 27.9059 15.2564 28.2477 15.2564 28.6751V44.0597H12.6923V33.0768C12.6923 32.6495 12.3504 32.3076 11.9231 32.3076H5.04274C4.61538 32.3076 4.2735 32.6495 4.2735 33.0768V44.0597H0.769231C0.34188 44.0597 0 44.4016 0 44.829C0 45.2563 0.34188 45.5982 0.769231 45.5982H5.04274H11.9658H16.0256H22.9487H27.0085H33.9744H38.0342H44.9573H49.2308C49.6581 45.5982 50 45.2563 50 44.829C50 44.4016 49.6154 44.0597 49.2308 44.0597ZM38.8034 22.9913H44.2308V44.0597H38.8034V22.9913ZM27.7778 30.5554H33.2051V44.0597H27.7778V30.5554ZM16.7949 29.4016H22.2222V44.017H16.7949V29.4016ZM5.81197 33.8033H11.2393V44.017H5.81197V33.8033Z" fill="url(#paint2_radial_1185_3967)"/>
<defs>
<radialGradient id="paint0_radial_1185_3967" cx="0" cy="0" r="1" gradientUnits="userSpaceOnUse" gradientTransform="translate(33.9527 1.69964) rotate(52.6545) scale(23.7764 34.2829)">
<stop offset="0.151042" stop-color="#33A6FF"/>
<stop offset="0.907346" stop-color="#36C27F"/>
</radialGradient>
<radialGradient id="paint1_radial_1185_3967" cx="0" cy="0" r="1" gradientUnits="userSpaceOnUse" gradientTransform="translate(6.59865 16.4785) rotate(25.5905) scale(35.1797 40.9755)">
<stop offset="0.151042" stop-color="#33A6FF"/>
<stop offset="0.907346" stop-color="#36C27F"/>
</radialGradient>
<radialGradient id="paint2_radial_1185_3967" cx="0" cy="0" r="1" gradientUnits="userSpaceOnUse" gradientTransform="translate(-2.40741 18.1848) rotate(32.2823) scale(61.9893 83.6874)">
<stop offset="0.151042" stop-color="#33A6FF"/>
<stop offset="0.907346" stop-color="#36C27F"/>
</radialGradient>
</defs>
</svg>
