<svg width="50" height="50" viewBox="0 0 50 50" fill="none" xmlns="http://www.w3.org/2000/svg">
<path d="M22.3006 30.3708C22.1371 30.3163 21.9735 30.2072 21.8099 30.1527L21.5918 30.0437L21.6463 29.771L21.8099 28.4079L21.8644 27.9172L22.3006 28.1353C22.3552 28.1898 22.4097 28.1898 22.5187 28.2443C22.5733 28.2988 22.6278 28.2988 22.7368 28.3534C22.9004 28.4079 23.064 28.4624 23.2276 28.5169C23.3911 28.5715 23.5547 28.626 23.7183 28.626C23.8819 28.626 23.9909 28.6805 24.1545 28.6805C24.3181 28.6805 24.4271 28.735 24.5907 28.735C24.6998 28.735 24.8088 28.735 24.8633 28.735C24.9724 28.735 25.0269 28.735 25.136 28.735C25.245 28.735 25.4086 28.6805 25.5177 28.6805C25.6267 28.626 25.7358 28.626 25.8448 28.5715C25.9539 28.5169 26.0629 28.4624 26.1174 28.3534C26.172 28.2988 26.281 28.1898 26.3355 28.0807C26.3901 27.9717 26.4446 27.8626 26.4446 27.7536C26.4446 27.6445 26.4991 27.5355 26.4446 27.4264C26.4446 27.3174 26.3901 27.2083 26.3901 27.0993C26.3355 26.9902 26.281 26.8812 26.2265 26.8266C26.172 26.7176 26.1174 26.6631 26.0084 26.6085C25.9539 26.554 25.8448 26.4995 25.7358 26.445C25.6267 26.3904 25.5176 26.3359 25.4086 26.2814C25.2995 26.2269 25.1905 26.1723 25.0814 26.1723C24.8633 26.1178 24.6452 26.0088 24.4271 25.8997C24.209 25.7907 23.9909 25.6816 23.7728 25.5726C23.5547 25.4635 23.3911 25.3545 23.173 25.2454C23.0095 25.1364 22.8459 25.0273 22.6823 24.8637C22.5187 24.7547 22.4097 24.5911 22.2461 24.4275C22.1371 24.2639 22.028 24.1004 21.919 23.9368C21.8099 23.7187 21.7554 23.5551 21.7008 23.337C21.6463 23.1189 21.6463 22.9008 21.6463 22.7372C21.6463 22.4646 21.6463 22.192 21.7008 21.9739C21.7554 21.7558 21.8099 21.4831 21.919 21.265C22.028 21.0469 22.1371 20.8288 22.2461 20.6653C22.4097 20.4471 22.5187 20.2836 22.7368 20.12C22.9004 19.9564 23.1185 19.8474 23.3366 19.6838C23.5547 19.5747 23.7728 19.4657 23.9909 19.4112L24.1 19.3566V18.1571V17.7754H24.4817H25.5722H25.9539V18.1571V19.2476H26.0629C26.172 19.2476 26.281 19.3021 26.4446 19.3021C26.5536 19.3566 26.7172 19.3566 26.8263 19.4112C26.9353 19.4112 27.0444 19.4657 27.0989 19.4657C27.1534 19.4657 27.2625 19.5202 27.3715 19.5747L27.6442 19.6838L27.5896 19.9564L27.4261 21.2105L27.3715 21.6467L26.9898 21.5377C26.9353 21.5377 26.8263 21.4831 26.7172 21.4286C26.6627 21.4286 26.5536 21.3741 26.4446 21.3741C26.3355 21.3196 26.172 21.3196 26.0084 21.3196C25.8993 21.3196 25.7358 21.265 25.6267 21.265C25.5177 21.265 25.4631 21.265 25.3541 21.265C25.2995 21.265 25.1905 21.265 25.0814 21.265C24.9179 21.265 24.8088 21.3196 24.6998 21.3196C24.5907 21.3741 24.4817 21.4286 24.3726 21.4831C24.2636 21.5377 24.209 21.6467 24.1 21.7012C24.0455 21.8103 23.9909 21.8648 23.9364 21.9739C23.8819 22.0829 23.8819 22.192 23.8274 22.301C23.8274 22.4101 23.8274 22.5191 23.8274 22.6827C23.8274 22.7917 23.8819 22.9008 23.9364 23.0099C23.9909 23.1189 24.0455 23.228 24.1 23.2825C24.1545 23.337 24.2636 23.4461 24.3181 23.5006C24.4271 23.5551 24.4817 23.6096 24.5907 23.6642C24.6998 23.7187 24.8088 23.7732 24.9179 23.8277C25.0269 23.8823 25.136 23.9368 25.245 23.9368C25.4631 23.9913 25.6812 24.1004 25.8993 24.2094C26.1174 24.3185 26.3355 24.4275 26.4991 24.5366C26.6627 24.6456 26.8808 24.7547 27.0444 24.8637C27.2079 24.9728 27.3715 25.1364 27.5351 25.2454C27.6987 25.3545 27.8077 25.518 27.9168 25.6816C28.0258 25.8452 28.1349 26.0088 28.2439 26.1723C28.353 26.3359 28.4075 26.554 28.462 26.7721C28.5166 26.9902 28.5166 27.1538 28.5166 27.3719C28.5166 27.6445 28.5166 27.8626 28.462 28.1353C28.4075 28.3534 28.353 28.626 28.2439 28.8441C28.1349 29.0622 28.0258 29.2803 27.8623 29.4439C27.6987 29.6075 27.5351 29.8256 27.3715 29.9891C27.2079 30.1527 26.9898 30.2618 26.7717 30.4253C26.5536 30.5344 26.281 30.6434 26.0629 30.698L25.9539 30.7525V31.9521V32.3337H25.5722H24.4817H24.1V31.9521V30.807H23.9909C23.7728 30.807 23.6092 30.7525 23.3911 30.698C23.173 30.6434 23.0095 30.5889 22.7914 30.5344C22.6278 30.5344 22.4642 30.4799 22.3006 30.3708Z" fill="black"/>
<path d="M37.7853 0H12.2673C10.6861 0 9.37744 1.30862 9.37744 2.88986V47.1101C9.37744 48.6914 10.6861 50 12.2673 50H37.7308C39.312 50 40.6206 48.6914 40.6206 47.1101V2.94438C40.6752 1.30862 39.3666 0 37.7853 0ZM38.7122 47.1101C38.7122 47.6554 38.276 48.0916 37.7308 48.0916H12.2673C11.722 48.0916 11.2858 47.6554 11.2858 47.1101V2.94438C11.2858 2.39913 11.722 1.96292 12.2673 1.96292H37.7308C38.276 1.96292 38.7122 2.39913 38.7122 2.94438V47.1101Z" fill="white"/>
<path d="M37.7853 0H12.2673C10.6861 0 9.37744 1.30862 9.37744 2.88986V47.1101C9.37744 48.6914 10.6861 50 12.2673 50H37.7308C39.312 50 40.6206 48.6914 40.6206 47.1101V2.94438C40.6752 1.30862 39.3666 0 37.7853 0ZM38.7122 47.1101C38.7122 47.6554 38.276 48.0916 37.7308 48.0916H12.2673C11.722 48.0916 11.2858 47.6554 11.2858 47.1101V2.94438C11.2858 2.39913 11.722 1.96292 12.2673 1.96292H37.7308C38.276 1.96292 38.7122 2.39913 38.7122 2.94438V47.1101Z" fill="url(#paint0_radial_1185_8575)"/>
<path d="M33.9141 7.30664H16.1387C14.8846 7.30664 13.8486 8.34263 13.8486 9.59672V40.4037C13.8486 41.6578 14.8846 42.6938 16.1387 42.6938H33.9141C35.1682 42.6938 36.2041 41.6578 36.2041 40.4037V9.59672C36.2041 8.34263 35.1682 7.30664 33.9141 7.30664ZM34.2957 40.4582C34.2957 40.6763 34.1322 40.8399 33.9141 40.8399H16.1387C15.9206 40.8399 15.757 40.6763 15.757 40.4582V9.59672C15.757 9.37862 15.9206 9.21504 16.1387 9.21504H33.9141C34.1322 9.21504 34.2957 9.37862 34.2957 9.59672V40.4582Z" fill="white"/>
<path d="M33.9141 7.30664H16.1387C14.8846 7.30664 13.8486 8.34263 13.8486 9.59672V40.4037C13.8486 41.6578 14.8846 42.6938 16.1387 42.6938H33.9141C35.1682 42.6938 36.2041 41.6578 36.2041 40.4037V9.59672C36.2041 8.34263 35.1682 7.30664 33.9141 7.30664ZM34.2957 40.4582C34.2957 40.6763 34.1322 40.8399 33.9141 40.8399H16.1387C15.9206 40.8399 15.757 40.6763 15.757 40.4582V9.59672C15.757 9.37862 15.9206 9.21504 16.1387 9.21504H33.9141C34.1322 9.21504 34.2957 9.37862 34.2957 9.59672V40.4582Z" fill="url(#paint1_radial_1185_8575)"/>
<path d="M27.3704 44.5474H22.6812C22.1359 44.5474 21.6997 44.9836 21.6997 45.5288C21.6997 46.0741 22.1359 46.5103 22.6812 46.5103H27.3704C27.9156 46.5103 28.3518 46.0741 28.3518 45.5288C28.3518 44.9836 27.9156 44.5474 27.3704 44.5474Z" fill="white"/>
<path d="M27.3704 44.5474H22.6812C22.1359 44.5474 21.6997 44.9836 21.6997 45.5288C21.6997 46.0741 22.1359 46.5103 22.6812 46.5103H27.3704C27.9156 46.5103 28.3518 46.0741 28.3518 45.5288C28.3518 44.9836 27.9156 44.5474 27.3704 44.5474Z" fill="url(#paint2_radial_1185_8575)"/>
<path d="M24.0444 6.05228H26.0074C26.5526 6.05228 26.9888 5.61607 26.9888 5.07082C26.9888 4.52556 26.5526 4.08936 26.0074 4.08936H24.0444C23.4992 4.08936 23.063 4.52556 23.063 5.07082C23.063 5.61607 23.4992 6.05228 24.0444 6.05228Z" fill="white"/>
<path d="M24.0444 6.05228H26.0074C26.5526 6.05228 26.9888 5.61607 26.9888 5.07082C26.9888 4.52556 26.5526 4.08936 26.0074 4.08936H24.0444C23.4992 4.08936 23.063 4.52556 23.063 5.07082C23.063 5.61607 23.4992 6.05228 24.0444 6.05228Z" fill="url(#paint3_radial_1185_8575)"/>
<defs>
<radialGradient id="paint0_radial_1185_8575" cx="0" cy="0" r="1" gradientUnits="userSpaceOnUse" gradientTransform="translate(7.87306 -6.86813) rotate(64.5069) scale(76.0896 88.3824)">
<stop offset="0.151042" stop-color="#33A6FF"/>
<stop offset="0.907346" stop-color="#36C27F"/>
</radialGradient>
<radialGradient id="paint1_radial_1185_8575" cx="0" cy="0" r="1" gradientUnits="userSpaceOnUse" gradientTransform="translate(12.7723 2.44577) rotate(64.2636) scale(53.9616 63.1085)">
<stop offset="0.151042" stop-color="#33A6FF"/>
<stop offset="0.907346" stop-color="#36C27F"/>
</radialGradient>
<radialGradient id="paint2_radial_1185_8575" cx="0" cy="0" r="1" gradientUnits="userSpaceOnUse" gradientTransform="translate(21.3794 44.2777) rotate(21.1422) scale(7.47561 7.51903)">
<stop offset="0.151042" stop-color="#33A6FF"/>
<stop offset="0.907346" stop-color="#36C27F"/>
</radialGradient>
<radialGradient id="paint3_radial_1185_8575" cx="0" cy="0" r="1" gradientUnits="userSpaceOnUse" gradientTransform="translate(22.874 3.81972) rotate(33.2353) scale(4.91958 6.74297)">
<stop offset="0.151042" stop-color="#33A6FF"/>
<stop offset="0.907346" stop-color="#36C27F"/>
</radialGradient>
</defs>
</svg>
