<svg width="50" height="50" viewBox="0 0 50 50" fill="none" xmlns="http://www.w3.org/2000/svg">
<path d="M48.9879 3.92188H0.910931C0.404858 3.92188 0 4.32673 0 4.83281V41.5231C0 42.0292 0.404858 42.434 0.910931 42.434H6.88259V45.1668C6.88259 45.6729 7.28745 46.0777 7.79352 46.0777H15.1822C15.6883 46.0777 16.0931 45.6729 16.0931 45.1668V42.434H33.9069V45.1668C33.9069 45.6729 34.3117 46.0777 34.8178 46.0777H42.2065C42.7126 46.0777 43.1174 45.6729 43.1174 45.1668V42.434H49.0891C49.5951 42.434 50 42.0292 50 41.5231V4.83281C49.8482 4.32673 49.4433 3.92188 48.9879 3.92188ZM14.2713 44.2559H8.70445V42.434H14.2713V44.2559ZM41.1943 44.2559H35.6275V42.434H41.1943V44.2559ZM48.0769 40.6122H42.1053H34.7672H15.1822H7.79352H1.82186V5.69313H48.0769V40.6122Z" fill="white"/>
<path d="M48.9879 3.92188H0.910931C0.404858 3.92188 0 4.32673 0 4.83281V41.5231C0 42.0292 0.404858 42.434 0.910931 42.434H6.88259V45.1668C6.88259 45.6729 7.28745 46.0777 7.79352 46.0777H15.1822C15.6883 46.0777 16.0931 45.6729 16.0931 45.1668V42.434H33.9069V45.1668C33.9069 45.6729 34.3117 46.0777 34.8178 46.0777H42.2065C42.7126 46.0777 43.1174 45.6729 43.1174 45.1668V42.434H49.0891C49.5951 42.434 50 42.0292 50 41.5231V4.83281C49.8482 4.32673 49.4433 3.92188 48.9879 3.92188ZM14.2713 44.2559H8.70445V42.434H14.2713V44.2559ZM41.1943 44.2559H35.6275V42.434H41.1943V44.2559ZM48.0769 40.6122H42.1053H34.7672H15.1822H7.79352H1.82186V5.69313H48.0769V40.6122Z" fill="url(#paint0_radial_1185_1021)"/>
<path d="M5.31376 34.3876H6.73077V37.3228C6.73077 37.8289 7.13563 38.2337 7.6417 38.2337H44.7874C45.2935 38.2337 45.6984 37.8289 45.6984 37.3228V8.98271C45.6984 8.47664 45.2935 8.07178 44.7874 8.07178H7.59109C7.08502 8.07178 6.68016 8.47664 6.68016 8.98271V11.9179H5.31376C4.80769 11.9179 4.40283 12.3228 4.40283 12.8289V19.3572C4.40283 19.8633 4.80769 20.2681 5.31376 20.2681H6.73077V26.088H5.36437C4.8583 26.088 4.45344 26.4928 4.45344 26.9989V33.5273C4.45344 33.9827 4.8583 34.3876 5.31376 34.3876ZM8.50202 9.89364H43.8765V36.4625H8.50202V34.3876H9.86842C10.3745 34.3876 10.7793 33.9827 10.7793 33.4766V26.9989C10.7793 26.4928 10.3745 26.088 9.86842 26.088H8.50202V20.2681H9.86842C10.3745 20.2681 10.7793 19.8633 10.7793 19.3572V12.8289C10.7793 12.3228 10.3745 11.9179 9.86842 11.9179H8.50202V9.89364ZM6.22469 18.4463V13.6892H7.59109H8.95749V18.4463H7.59109H6.22469ZM6.22469 27.8592H7.59109H8.95749V32.6163H7.59109H6.22469V27.8592Z" fill="white"/>
<path d="M5.31376 34.3876H6.73077V37.3228C6.73077 37.8289 7.13563 38.2337 7.6417 38.2337H44.7874C45.2935 38.2337 45.6984 37.8289 45.6984 37.3228V8.98271C45.6984 8.47664 45.2935 8.07178 44.7874 8.07178H7.59109C7.08502 8.07178 6.68016 8.47664 6.68016 8.98271V11.9179H5.31376C4.80769 11.9179 4.40283 12.3228 4.40283 12.8289V19.3572C4.40283 19.8633 4.80769 20.2681 5.31376 20.2681H6.73077V26.088H5.36437C4.8583 26.088 4.45344 26.4928 4.45344 26.9989V33.5273C4.45344 33.9827 4.8583 34.3876 5.31376 34.3876ZM8.50202 9.89364H43.8765V36.4625H8.50202V34.3876H9.86842C10.3745 34.3876 10.7793 33.9827 10.7793 33.4766V26.9989C10.7793 26.4928 10.3745 26.088 9.86842 26.088H8.50202V20.2681H9.86842C10.3745 20.2681 10.7793 19.8633 10.7793 19.3572V12.8289C10.7793 12.3228 10.3745 11.9179 9.86842 11.9179H8.50202V9.89364ZM6.22469 18.4463V13.6892H7.59109H8.95749V18.4463H7.59109H6.22469ZM6.22469 27.8592H7.59109H8.95749V32.6163H7.59109H6.22469V27.8592Z" fill="url(#paint1_radial_1185_1021)"/>
<path d="M34.2611 29.6301C37.8036 29.6301 40.6882 26.7455 40.6882 23.203C40.6882 19.6605 37.8036 16.7759 34.2611 16.7759C30.7186 16.7759 27.834 19.6605 27.834 23.203C27.834 26.7455 30.7186 29.6301 34.2611 29.6301ZM34.2611 18.4965C36.8421 18.4965 38.917 20.5714 38.917 23.1524C38.917 25.7334 36.8421 27.8083 34.2611 27.8083C31.6801 27.8083 29.6052 25.7334 29.6052 23.1524C29.6052 20.5714 31.7307 18.4965 34.2611 18.4965Z" fill="white"/>
<path d="M34.2611 29.6301C37.8036 29.6301 40.6882 26.7455 40.6882 23.203C40.6882 19.6605 37.8036 16.7759 34.2611 16.7759C30.7186 16.7759 27.834 19.6605 27.834 23.203C27.834 26.7455 30.7186 29.6301 34.2611 29.6301ZM34.2611 18.4965C36.8421 18.4965 38.917 20.5714 38.917 23.1524C38.917 25.7334 36.8421 27.8083 34.2611 27.8083C31.6801 27.8083 29.6052 25.7334 29.6052 23.1524C29.6052 20.5714 31.7307 18.4965 34.2611 18.4965Z" fill="url(#paint2_radial_1185_1021)"/>
<path d="M34.2607 26.1894C35.9307 26.1894 37.2465 24.823 37.2465 23.2036C37.2465 21.5842 35.8801 20.2178 34.2607 20.2178C32.5907 20.2178 31.2749 21.5842 31.2749 23.2036C31.2749 24.823 32.6413 26.1894 34.2607 26.1894ZM34.2607 21.9384C34.9186 21.9384 35.4753 22.4951 35.4753 23.153C35.4753 23.8109 34.9186 24.3676 34.2607 24.3676C33.6028 24.3676 33.0462 23.8615 33.0462 23.153C33.0462 22.4951 33.6028 21.9384 34.2607 21.9384Z" fill="white"/>
<path d="M34.2607 26.1894C35.9307 26.1894 37.2465 24.823 37.2465 23.2036C37.2465 21.5842 35.8801 20.2178 34.2607 20.2178C32.5907 20.2178 31.2749 21.5842 31.2749 23.2036C31.2749 24.823 32.6413 26.1894 34.2607 26.1894ZM34.2607 21.9384C34.9186 21.9384 35.4753 22.4951 35.4753 23.153C35.4753 23.8109 34.9186 24.3676 34.2607 24.3676C33.6028 24.3676 33.0462 23.8615 33.0462 23.153C33.0462 22.4951 33.6028 21.9384 34.2607 21.9384Z" fill="url(#paint3_radial_1185_1021)"/>
<defs>
<radialGradient id="paint0_radial_1185_1021" cx="0" cy="0" r="1" gradientUnits="userSpaceOnUse" gradientTransform="translate(-2.40741 -1.86877) rotate(47.8538) scale(78.1005 116.176)">
<stop offset="0.151042" stop-color="#33A6FF"/>
<stop offset="0.907346" stop-color="#36C27F"/>
</radialGradient>
<radialGradient id="paint1_radial_1185_1021" cx="0" cy="0" r="1" gradientUnits="userSpaceOnUse" gradientTransform="translate(2.41453 3.92865) rotate(43.7472) scale(59.917 89.4862)">
<stop offset="0.151042" stop-color="#33A6FF"/>
<stop offset="0.907346" stop-color="#36C27F"/>
</radialGradient>
<radialGradient id="paint2_radial_1185_1021" cx="0" cy="0" r="1" gradientUnits="userSpaceOnUse" gradientTransform="translate(27.2151 15.0102) rotate(52.6545) scale(22.2102 32.0246)">
<stop offset="0.151042" stop-color="#33A6FF"/>
<stop offset="0.907346" stop-color="#36C27F"/>
</radialGradient>
<radialGradient id="paint3_radial_1185_1021" cx="0" cy="0" r="1" gradientUnits="userSpaceOnUse" gradientTransform="translate(30.9874 19.3975) rotate(52.6546) scale(10.3181 14.8775)">
<stop offset="0.151042" stop-color="#33A6FF"/>
<stop offset="0.907346" stop-color="#36C27F"/>
</radialGradient>
</defs>
</svg>
