<svg width="370" height="317" viewBox="0 0 370 317" fill="none" xmlns="http://www.w3.org/2000/svg">
<g clip-path="url(#clip0_1182_8890)">
<path d="M205.553 139.97H138.445V316.563H205.553V139.97Z" fill="#57B3FF"/>
<path opacity="0.5" d="M205.767 139.97H155.725V316.563H205.767V139.97Z" fill="black"/>
<path d="M293.225 200.176H226.117V316.553H293.225V200.176Z" fill="#57B3FF"/>
<path opacity="0.3" d="M293.225 199.902H243.183V316.563H293.225V199.902Z" fill="black"/>
<path d="M117.454 171.46H50.3462V316.553H117.454V171.46Z" fill="#57B3FF"/>
<path opacity="0.4" d="M117.455 171.105H67.4131V316.553H117.455V171.105Z" fill="black"/>
<path d="M76.4697 316.746C76.3782 318.912 83.2191 320.955 91.7169 321.321C100.215 321.687 107.239 320.223 107.33 318.058C107.422 315.893 100.581 313.86 92.0828 313.494C83.585 313.128 76.5611 314.591 76.4697 316.746Z" fill="#FAC600"/>
<path d="M76.6361 312.824L76.4702 316.734L107.364 318.045L107.53 314.135L76.6361 312.824Z" fill="#FAC600"/>
<path d="M76.6327 312.833C76.5413 314.998 83.3822 317.041 91.88 317.407C100.378 317.773 107.402 316.309 107.493 314.144C107.585 311.979 100.744 309.946 92.2459 309.58C83.7481 309.214 76.7242 310.678 76.6327 312.833Z" fill="#FAC600"/>
<path opacity="0.4" d="M76.6327 312.833C76.5413 314.998 83.3822 317.041 91.88 317.407C100.378 317.773 107.402 316.309 107.493 314.144C107.585 311.979 100.744 309.946 92.2459 309.58C83.7481 309.214 76.7242 310.678 76.6327 312.833Z" fill="white"/>
<path d="M78.6045 312.772C78.6045 312.912 78.651 313.048 78.7366 313.158C79.7531 311.888 85.4149 311.125 92.1644 311.42C98.9138 311.715 104.494 312.935 105.379 314.287C105.479 314.187 105.538 314.052 105.541 313.91C105.602 312.447 99.6254 310.983 92.1745 310.668C84.7237 310.353 78.6655 311.308 78.6045 312.772Z" fill="#FAC600"/>
<path opacity="0.4" d="M78.6045 312.772C78.6045 312.912 78.651 313.048 78.7366 313.158C79.7531 311.888 85.4149 311.125 92.1644 311.42C98.9138 311.715 104.494 312.935 105.379 314.287C105.479 314.187 105.538 314.052 105.541 313.91C105.602 312.447 99.6254 310.983 92.1745 310.668C84.7237 310.353 78.6655 311.308 78.6045 312.772Z" fill="#FAC600"/>
<path opacity="0.4" d="M78.7368 313.158C79.6618 314.51 85.222 315.73 91.9511 316.015C98.6802 316.299 104.362 315.557 105.379 314.287C104.474 312.935 98.914 311.715 92.1646 311.42C85.4151 311.125 79.7736 311.888 78.7368 313.158Z" fill="#FAC600"/>
<path d="M73.1865 310.82C73.095 312.985 79.9359 315.029 88.4337 315.395C96.9315 315.76 103.955 314.297 104.047 312.142C104.138 309.987 97.2974 307.934 88.7996 307.568C80.3018 307.202 73.3186 308.665 73.1865 310.82Z" fill="#FAC600"/>
<path d="M73.3935 306.918L73.2275 310.828L104.121 312.139L104.287 308.229L73.3935 306.918Z" fill="#FAC600"/>
<path d="M73.3901 306.917C73.2986 309.072 80.1395 311.115 88.6373 311.481C97.1351 311.847 104.159 310.383 104.251 308.228C104.342 306.073 97.5011 304.02 89.0033 303.654C80.5055 303.288 73.4816 304.752 73.3901 306.917Z" fill="#FAC600"/>
<path opacity="0.4" d="M73.3901 306.917C73.2986 309.072 80.1395 311.115 88.6373 311.481C97.1351 311.847 104.159 310.383 104.251 308.228C104.342 306.073 97.5011 304.02 89.0033 303.654C80.5055 303.288 73.4816 304.752 73.3901 306.917Z" fill="white"/>
<path d="M75.3621 306.846C75.3578 306.986 75.4048 307.124 75.4942 307.232C76.5107 305.962 82.1725 305.199 88.922 305.504C95.6714 305.809 101.252 307.009 102.136 308.36C102.229 308.259 102.286 308.131 102.299 307.995C102.36 306.531 96.383 305.057 88.9321 304.742C81.4813 304.427 75.4231 305.382 75.3621 306.846Z" fill="#FAC600"/>
<path opacity="0.4" d="M75.3621 306.846C75.3578 306.986 75.4048 307.124 75.4942 307.232C76.5107 305.962 82.1725 305.199 88.922 305.504C95.6714 305.809 101.252 307.009 102.136 308.36C102.229 308.259 102.286 308.131 102.299 307.995C102.36 306.531 96.383 305.057 88.9321 304.742C81.4813 304.427 75.4231 305.382 75.3621 306.846Z" fill="#FAC600"/>
<path opacity="0.4" d="M75.4941 307.232C76.409 308.584 81.9793 309.804 88.7084 310.088C95.4375 310.373 101.12 309.631 102.136 308.36C101.231 307.009 95.6713 305.789 88.9219 305.504C82.1724 305.22 76.5208 305.962 75.4941 307.232Z" fill="#FAC600"/>
<path d="M73.644 303.685C73.5525 305.85 80.3934 307.893 88.8912 308.259C97.389 308.625 104.413 307.161 104.504 304.996C104.596 302.831 97.755 300.798 89.2572 300.432C80.7594 300.066 73.7355 301.53 73.644 303.685Z" fill="#FAC600"/>
<path d="M73.8139 299.775L73.6479 303.685L104.542 304.996L104.708 301.086L73.8139 299.775Z" fill="#FAC600"/>
<path d="M73.8066 299.771C73.7151 301.936 80.556 303.979 89.0538 304.345C97.5516 304.711 104.565 303.248 104.657 301.093C104.748 298.938 97.9074 296.884 89.4096 296.518C80.9118 296.152 73.8981 297.616 73.8066 299.771Z" fill="#FAC600"/>
<path opacity="0.4" d="M73.8066 299.771C73.7151 301.936 80.556 303.979 89.0538 304.345C97.5516 304.711 104.565 303.248 104.657 301.093C104.748 298.938 97.9074 296.884 89.4096 296.518C80.9118 296.152 73.8981 297.616 73.8066 299.771Z" fill="white"/>
<path d="M75.7788 299.71C75.7788 299.85 75.8253 299.986 75.9109 300.096C76.9274 298.826 82.5892 298.063 89.3387 298.368C96.0881 298.673 101.669 299.873 102.553 301.225C102.653 301.129 102.712 300.997 102.716 300.859C102.777 299.395 96.7997 297.921 89.3489 297.606C81.898 297.291 75.8398 298.246 75.7788 299.71Z" fill="#FAC600"/>
<path opacity="0.4" d="M75.7788 299.71C75.7788 299.85 75.8253 299.986 75.9109 300.096C76.9274 298.826 82.5892 298.063 89.3387 298.368C96.0881 298.673 101.669 299.873 102.553 301.225C102.653 301.129 102.712 300.997 102.716 300.859C102.777 299.395 96.7997 297.921 89.3489 297.606C81.898 297.291 75.8398 298.246 75.7788 299.71Z" fill="#FAC600"/>
<path opacity="0.4" d="M75.9106 300.096C76.8356 301.448 82.3958 302.668 89.1249 302.953C95.8541 303.237 101.536 302.495 102.553 301.225C101.648 299.873 96.0879 298.653 89.3384 298.368C82.5889 298.084 76.9475 298.846 75.9106 300.096Z" fill="#FAC600"/>
<path d="M70.4013 297.769C70.3098 299.924 77.1507 301.967 85.6486 302.333C94.1464 302.699 101.17 301.235 101.262 299.08C101.353 296.925 94.5123 294.872 86.0145 294.506C77.5167 294.14 70.4928 295.604 70.4013 297.769Z" fill="#FAC600"/>
<path d="M70.5609 293.828L70.395 297.738L101.289 299.049L101.455 295.139L70.5609 293.828Z" fill="#FAC600"/>
<path d="M70.5644 293.855C70.4729 296.01 77.3138 298.053 85.8116 298.419C94.3094 298.785 101.333 297.321 101.425 295.166C101.516 293.012 94.6754 290.958 86.1776 290.592C77.6798 290.226 70.6559 291.731 70.5644 293.855Z" fill="#FAC600"/>
<path opacity="0.4" d="M70.5644 293.855C70.4729 296.01 77.3138 298.053 85.8116 298.419C94.3094 298.785 101.333 297.321 101.425 295.166C101.516 293.012 94.6754 290.958 86.1776 290.592C77.6798 290.226 70.6559 291.731 70.5644 293.855Z" fill="white"/>
<path d="M72.5362 293.764C72.53 293.905 72.5772 294.043 72.6683 294.15C73.6848 292.879 79.3466 292.117 86.0961 292.422C92.8455 292.727 98.426 293.926 99.3104 295.278C99.4029 295.177 99.46 295.049 99.473 294.912C99.534 293.449 93.5571 291.975 86.1062 291.66C78.6554 291.345 72.5972 292.32 72.5362 293.764Z" fill="#FAC600"/>
<path opacity="0.4" d="M72.5362 293.764C72.53 293.905 72.5772 294.043 72.6683 294.15C73.6848 292.879 79.3466 292.117 86.0961 292.422C92.8455 292.727 98.426 293.926 99.3104 295.278C99.4029 295.177 99.46 295.049 99.473 294.912C99.534 293.449 93.5571 291.975 86.1062 291.66C78.6554 291.345 72.5972 292.32 72.5362 293.764Z" fill="#FAC600"/>
<path opacity="0.4" d="M72.6685 294.17C73.5833 295.522 79.1536 296.742 85.8827 297.027C92.6119 297.311 98.294 296.569 99.3105 295.299C98.4058 293.947 92.8456 292.727 86.0962 292.442C79.3467 292.158 73.6951 292.9 72.6685 294.17Z" fill="#FAC600"/>
<path d="M75.352 292.747C75.2605 294.902 82.1014 296.945 90.5992 297.311C99.097 297.677 106.121 296.213 106.212 294.058C106.304 291.904 99.463 289.85 90.9652 289.484C82.4674 289.118 75.4435 290.582 75.352 292.747Z" fill="#FAC600"/>
<path d="M75.5224 288.832L75.3564 292.742L106.25 294.053L106.416 290.143L75.5224 288.832Z" fill="#FAC600"/>
<path d="M75.5248 288.834C75.4333 290.989 82.2743 293.032 90.7721 293.398C99.2699 293.764 106.294 292.3 106.385 290.145C106.477 287.99 99.6358 285.937 91.138 285.571C82.6402 285.205 75.6163 286.648 75.5248 288.834Z" fill="#FAC600"/>
<path opacity="0.4" d="M75.5248 288.834C75.4333 290.989 82.2743 293.032 90.7721 293.398C99.2699 293.764 106.294 292.3 106.385 290.145C106.477 287.99 99.6358 285.937 91.138 285.571C82.6402 285.205 75.6163 286.648 75.5248 288.834Z" fill="white"/>
<path d="M77.4863 288.763C77.4898 288.902 77.536 289.037 77.6185 289.149C78.635 287.878 84.3069 287.116 91.0462 287.421C97.7855 287.726 103.386 288.925 104.261 290.277C104.359 290.179 104.421 290.05 104.433 289.911C104.494 288.448 98.5174 286.974 91.0666 286.659C83.6157 286.343 77.5575 287.299 77.4863 288.763Z" fill="#FAC600"/>
<path opacity="0.4" d="M77.4863 288.763C77.4898 288.902 77.536 289.037 77.6185 289.149C78.635 287.878 84.3069 287.116 91.0462 287.421C97.7855 287.726 103.386 288.925 104.261 290.277C104.359 290.179 104.421 290.05 104.433 289.911C104.494 288.448 98.5174 286.974 91.0666 286.659C83.6157 286.343 77.5575 287.299 77.4863 288.763Z" fill="#FAC600"/>
<path opacity="0.4" d="M77.6187 289.149C78.5437 290.501 84.1038 291.721 90.8329 292.005C97.5621 292.29 103.254 291.548 104.261 290.277C103.366 288.925 97.7959 287.706 91.0464 287.421C84.297 287.136 78.6555 287.878 77.6187 289.149Z" fill="#FAC600"/>
<path d="M72.1093 286.821C72.0178 288.976 78.8588 291.029 87.3566 291.385C95.8544 291.741 102.878 290.287 102.97 288.132C103.061 285.977 96.2203 283.924 87.7225 283.558C79.2247 283.192 72.1703 284.615 72.1093 286.821Z" fill="#FAC600"/>
<path d="M72.2699 282.896L72.104 286.806L102.998 288.117L103.164 284.207L72.2699 282.896Z" fill="#FAC600"/>
<path d="M72.2719 282.908C72.1804 285.063 79.0214 287.116 87.5192 287.472C96.017 287.827 103.041 286.384 103.132 284.219C103.224 282.054 96.3829 280.011 87.8851 279.645C79.3873 279.279 72.3634 280.743 72.2719 282.908Z" fill="#FAC600"/>
<path opacity="0.4" d="M72.2719 282.908C72.1804 285.063 79.0214 287.116 87.5192 287.472C96.017 287.827 103.041 286.384 103.132 284.219C103.224 282.054 96.3829 280.011 87.8851 279.645C79.3873 279.279 72.3634 280.743 72.2719 282.908Z" fill="white"/>
<path d="M74.2033 282.837C74.1999 282.977 74.2468 283.114 74.3354 283.223C75.3519 281.952 81.0137 281.19 87.7632 281.495C94.5126 281.8 100.093 282.999 100.977 284.361C101.076 284.26 101.134 284.126 101.14 283.985C101.201 282.521 95.2242 281.058 87.7734 280.732C80.3225 280.407 74.3049 281.373 74.2033 282.837Z" fill="#FAC600"/>
<path opacity="0.4" d="M74.2033 282.837C74.1999 282.977 74.2468 283.114 74.3354 283.223C75.3519 281.952 81.0137 281.19 87.7632 281.495C94.5126 281.8 100.093 282.999 100.977 284.361C101.076 284.26 101.134 284.126 101.14 283.985C101.201 282.521 95.2242 281.058 87.7734 280.732C80.3225 280.407 74.3049 281.373 74.2033 282.837Z" fill="#FAC600"/>
<path opacity="0.4" d="M74.376 283.223C75.301 284.575 80.8611 285.794 87.5903 286.089C94.3194 286.384 100.002 285.632 101.018 284.361C100.113 282.999 94.5532 281.779 87.8037 281.495C81.0543 281.21 75.4128 281.952 74.376 283.223Z" fill="#FAC600"/>
<path d="M30.403 314.856C30.3013 317.021 37.1423 319.064 45.6502 319.42C54.1582 319.776 61.1618 318.332 61.2532 316.167C61.3447 314.002 54.514 311.959 46.006 311.603C37.498 311.247 30.4945 312.691 30.403 314.856Z" fill="#FAC600"/>
<path d="M30.559 310.923L30.3931 314.833L61.2867 316.144L61.4526 312.234L30.559 310.923Z" fill="#FAC600"/>
<path d="M30.5654 310.942C30.4739 313.107 37.3148 315.151 45.8126 315.516C54.3104 315.882 61.3343 314.419 61.4258 312.254C61.5173 310.088 54.6763 308.045 46.1785 307.69C37.6807 307.334 30.6568 308.777 30.5654 310.942Z" fill="#FAC600"/>
<path opacity="0.4" d="M30.5654 310.942C30.4739 313.107 37.3148 315.151 45.8126 315.516C54.3104 315.882 61.3343 314.419 61.4258 312.254C61.5173 310.088 54.6763 308.045 46.1785 307.69C37.6807 307.334 30.6568 308.777 30.5654 310.942Z" fill="white"/>
<path d="M32.5273 310.871C32.519 311.012 32.5664 311.151 32.6594 311.257C33.6759 309.987 39.3377 309.224 46.0872 309.529C52.8366 309.834 58.4171 311.044 59.3015 312.396C59.3942 312.291 59.4511 312.159 59.4641 312.02C59.5251 310.556 53.5482 309.092 46.0974 308.777C38.6465 308.462 32.5985 309.407 32.5273 310.871Z" fill="#FAC600"/>
<path opacity="0.4" d="M32.5273 310.871C32.519 311.012 32.5664 311.151 32.6594 311.257C33.6759 309.987 39.3377 309.224 46.0872 309.529C52.8366 309.834 58.4171 311.044 59.3015 312.396C59.3942 312.291 59.4511 312.159 59.4641 312.02C59.5251 310.556 53.5482 309.092 46.0974 308.777C38.6465 308.462 32.5985 309.407 32.5273 310.871Z" fill="#FAC600"/>
<path opacity="0.4" d="M32.6694 311.257C33.5843 312.609 39.1546 313.839 45.8837 314.124C52.6128 314.409 58.295 313.666 59.3115 312.396C58.4068 311.044 52.8466 309.814 46.0972 309.529C39.3477 309.245 33.6961 310.027 32.6694 311.257Z" fill="#FAC600"/>
<path d="M43.8406 311.044C43.3323 313.148 49.665 316.452 57.9697 318.424C66.2744 320.396 73.4203 320.294 73.9183 318.19C74.4164 316.086 68.0837 312.782 59.779 310.81C51.4744 308.838 44.3387 308.94 43.8406 311.044Z" fill="#FAC600"/>
<path d="M44.7435 307.256L43.8379 311.063L73.92 318.219L74.8256 314.412L44.7435 307.256Z" fill="#FAC600"/>
<path d="M44.7254 307.232C44.2171 309.336 50.5498 312.64 58.8545 314.622C67.1591 316.604 74.305 316.492 74.8031 314.388C75.3012 312.284 68.999 309.011 60.6841 306.978C52.3693 304.945 45.2438 305.128 44.7254 307.232Z" fill="#FAC600"/>
<path opacity="0.4" d="M44.7254 307.232C44.2171 309.336 50.5498 312.64 58.8545 314.622C67.1591 316.604 74.305 316.492 74.8031 314.388C75.3012 312.284 68.999 309.011 60.6841 306.978C52.3693 304.945 45.2438 305.128 44.7254 307.232Z" fill="white"/>
<path d="M46.687 307.537C46.657 307.676 46.6787 307.82 46.748 307.944C47.9983 306.927 53.6906 307.232 60.2571 308.798C66.8236 310.363 72.0788 312.62 72.709 314.114C72.8238 314.033 72.9066 313.914 72.9428 313.778C73.2782 312.355 67.6876 309.784 60.4299 308.056C53.1722 306.327 47.0326 306.114 46.687 307.537Z" fill="#FAC600"/>
<path opacity="0.4" d="M46.687 307.537C46.657 307.676 46.6787 307.82 46.748 307.944C47.9983 306.927 53.6906 307.232 60.2571 308.798C66.8236 310.363 72.0788 312.62 72.709 314.114C72.8238 314.033 72.9066 313.914 72.9428 313.778C73.2782 312.355 67.6876 309.784 60.4299 308.056C53.1722 306.327 47.0326 306.114 46.687 307.537Z" fill="#FAC600"/>
<path opacity="0.4" d="M46.7583 307.995C47.4089 309.499 52.6336 311.756 59.2102 313.311C65.7869 314.866 71.4792 315.222 72.7193 314.165C72.0891 312.67 66.8542 310.414 60.2674 308.848C53.6805 307.283 47.9984 306.887 46.7583 307.995Z" fill="#FAC600"/>
<path d="M83.0464 285.53C90.7374 285.53 96.9723 279.295 96.9723 271.604C96.9723 263.913 90.7374 257.679 83.0464 257.679C75.3554 257.679 69.1206 263.913 69.1206 271.604C69.1206 279.295 75.3554 285.53 83.0464 285.53Z" fill="#FAC600"/>
<path d="M84.7134 285.53C92.4044 285.53 98.6392 279.295 98.6392 271.604C98.6392 263.913 92.4044 257.679 84.7134 257.679C77.0224 257.679 70.7876 263.913 70.7876 271.604C70.7876 279.295 77.0224 285.53 84.7134 285.53Z" fill="#FAC600"/>
<path opacity="0.5" d="M84.7134 285.53C92.4044 285.53 98.6392 279.295 98.6392 271.604C98.6392 263.913 92.4044 257.679 84.7134 257.679C77.0224 257.679 70.7876 263.913 70.7876 271.604C70.7876 279.295 77.0224 285.53 84.7134 285.53Z" fill="white"/>
<path d="M92.0893 278.978C96.1621 274.905 96.1622 268.302 92.0893 264.229C88.0165 260.156 81.4131 260.156 77.3403 264.229C73.2675 268.302 73.2675 274.905 77.3403 278.978C81.4132 283.051 88.0165 283.051 92.0893 278.978Z" fill="#FAC600"/>
<path opacity="0.3" d="M88.9322 275.05C88.5108 275.486 88.0027 275.829 87.4407 276.057C86.8787 276.284 86.2753 276.392 85.6693 276.372C84.7409 276.402 83.8258 276.146 83.0477 275.638C82.2696 275.131 81.6661 274.397 81.3187 273.536H86.9297V272.336H81.0138C81.0037 272.153 81.0037 271.97 81.0138 271.787C81.0034 271.605 81.0034 271.421 81.0138 271.238H86.9196V270.039H81.3187C81.6666 269.176 82.2717 268.441 83.0519 267.933C83.832 267.426 84.7494 267.171 85.6795 267.203C86.2847 267.182 86.8877 267.288 87.4497 267.513C88.0116 267.739 88.5201 268.08 88.9424 268.514L89.105 268.677L90.2333 267.569L90.0808 267.406C89.5027 266.815 88.8066 266.352 88.0378 266.047C87.269 265.743 86.4447 265.603 85.6185 265.638C84.2562 265.584 82.9153 265.988 81.8098 266.786C80.7043 267.584 79.898 268.729 79.5196 270.039H77.5374V271.238H79.2858C79.2858 271.421 79.2858 271.604 79.2858 271.787C79.2858 271.97 79.2858 272.153 79.2858 272.336H77.5171V273.536H79.4992C79.8776 274.845 80.684 275.991 81.7895 276.788C82.8949 277.586 84.2359 277.991 85.5981 277.937C86.4258 277.968 87.2508 277.825 88.0196 277.517C88.7884 277.209 89.4837 276.743 90.0605 276.148L90.213 275.985L89.0847 274.877L88.9322 275.05Z" fill="white"/>
<path d="M279.807 318.657C279.726 320.812 272.753 322.317 264.215 322.012C255.676 321.707 248.835 319.704 248.906 317.549C248.977 315.395 255.971 313.88 264.499 314.185C273.027 314.49 279.889 316.492 279.807 318.657Z" fill="#FAC600"/>
<path d="M249.034 313.603L248.894 317.514L279.796 318.62L279.936 314.709L249.034 313.603Z" fill="#FAC600"/>
<path d="M279.95 314.744C279.868 316.899 272.895 318.403 264.357 318.098C255.818 317.793 248.977 315.791 249.048 313.636C249.12 311.481 256.103 309.966 264.641 310.271C273.18 310.576 280.031 312.579 279.95 314.744Z" fill="#FAC600"/>
<path opacity="0.4" d="M279.95 314.744C279.868 316.899 272.895 318.403 264.357 318.098C255.818 317.793 248.977 315.791 249.048 313.636C249.12 311.481 256.103 309.966 264.641 310.271C273.18 310.576 280.031 312.579 279.95 314.744Z" fill="white"/>
<path d="M277.988 314.52C277.982 314.662 277.924 314.796 277.825 314.896C276.9 313.545 271.33 312.355 264.611 312.121C257.892 311.888 252.199 312.66 251.193 313.931C251.104 313.825 251.054 313.693 251.051 313.555C251.112 312.091 257.15 311.095 264.631 311.359C272.112 311.623 278.038 313.077 277.988 314.52Z" fill="#FAC600"/>
<path opacity="0.4" d="M277.988 314.52C277.982 314.662 277.924 314.796 277.825 314.896C276.9 313.545 271.33 312.355 264.611 312.121C257.892 311.888 252.199 312.66 251.193 313.931C251.104 313.825 251.054 313.693 251.051 313.555C251.112 312.091 257.15 311.095 264.631 311.359C272.112 311.623 278.038 313.077 277.988 314.52Z" fill="#FAC600"/>
<path opacity="0.4" d="M277.825 314.896C276.809 316.167 271.157 316.929 264.408 316.706C257.658 316.482 252.068 315.283 251.193 313.931C252.21 312.66 257.841 311.898 264.611 312.121C271.381 312.345 276.9 313.545 277.825 314.896Z" fill="#FAC600"/>
<path d="M283.507 313.006C283.426 315.161 276.453 316.665 267.914 316.36C259.376 316.055 252.535 314.053 252.606 311.888C252.677 309.722 259.671 308.228 268.199 308.533C276.727 308.838 283.599 310.841 283.507 313.006Z" fill="#FAC600"/>
<path d="M252.766 308.006L252.625 311.917L283.527 313.029L283.667 309.118L252.766 308.006Z" fill="#FAC600"/>
<path d="M283.649 309.092C283.568 311.247 276.595 312.752 268.057 312.447C259.518 312.142 252.667 310.139 252.748 307.974C252.83 305.809 259.803 304.315 268.341 304.62C276.88 304.925 283.721 306.978 283.649 309.092Z" fill="#FAC600"/>
<path opacity="0.4" d="M283.649 309.092C283.568 311.247 276.595 312.752 268.057 312.447C259.518 312.142 252.667 310.139 252.748 307.974C252.83 305.809 259.803 304.315 268.341 304.62C276.88 304.925 283.721 306.978 283.649 309.092Z" fill="white"/>
<path d="M281.688 308.869C281.684 309.007 281.625 309.139 281.525 309.235C280.6 307.893 275.03 306.704 268.311 306.47C261.592 306.236 255.889 307.009 254.893 308.279C254.804 308.174 254.754 308.041 254.751 307.903C254.812 306.439 260.85 305.443 268.331 305.707C275.813 305.972 281.739 307.405 281.688 308.869Z" fill="#FAC600"/>
<path opacity="0.4" d="M281.688 308.869C281.684 309.007 281.625 309.139 281.525 309.235C280.6 307.893 275.03 306.704 268.311 306.47C261.592 306.236 255.889 307.009 254.893 308.279C254.804 308.174 254.754 308.041 254.751 307.903C254.812 306.439 260.85 305.443 268.331 305.707C275.813 305.972 281.739 307.405 281.688 308.869Z" fill="#FAC600"/>
<path opacity="0.4" d="M281.566 309.235C280.549 310.515 274.898 311.268 268.148 311.054C261.399 310.841 255.808 309.631 254.934 308.279C255.951 307.009 261.582 306.246 268.352 306.47C275.121 306.693 280.6 307.893 281.566 309.235Z" fill="#FAC600"/>
<path d="M283.649 305.85C283.568 308.015 276.585 309.519 268.057 309.214C259.528 308.909 252.667 306.907 252.748 304.742C252.83 302.577 259.803 301.082 268.341 301.387C276.88 301.692 283.721 303.695 283.649 305.85Z" fill="#FAC600"/>
<path d="M252.898 300.858L252.757 304.768L283.658 305.88L283.799 301.969L252.898 300.858Z" fill="#FAC600"/>
<path d="M283.792 301.896C283.711 304.061 276.727 305.565 268.199 305.26C259.671 304.955 252.81 302.953 252.891 300.788C252.972 298.623 259.945 297.128 268.474 297.433C277.002 297.738 283.863 299.781 283.792 301.896Z" fill="#FAC600"/>
<path opacity="0.4" d="M283.792 301.896C283.711 304.061 276.727 305.565 268.199 305.26C259.671 304.955 252.81 302.953 252.891 300.788C252.972 298.623 259.945 297.128 268.474 297.433C277.002 297.738 283.863 299.781 283.792 301.896Z" fill="white"/>
<path d="M281.83 301.723C281.817 301.859 281.76 301.988 281.668 302.089C280.732 300.747 275.162 299.558 268.453 299.314C261.744 299.07 256.042 299.852 255.036 301.133C254.947 301.024 254.9 300.887 254.903 300.747C254.903 299.283 261.002 298.297 268.484 298.562C275.965 298.826 281.881 300.259 281.83 301.723Z" fill="#FAC600"/>
<path opacity="0.4" d="M281.83 301.723C281.817 301.859 281.76 301.988 281.668 302.089C280.732 300.747 275.162 299.558 268.453 299.314C261.744 299.07 256.042 299.852 255.036 301.133C254.947 301.024 254.9 300.887 254.903 300.747C254.903 299.283 261.002 298.297 268.484 298.562C275.965 298.826 281.881 300.259 281.83 301.723Z" fill="#FAC600"/>
<path opacity="0.4" d="M281.668 302.089C280.651 303.369 274.999 304.122 268.25 303.908C261.5 303.695 255.91 302.485 255.036 301.133C256.052 299.852 261.683 299.1 268.453 299.314C275.223 299.527 280.732 300.747 281.668 302.089Z" fill="#FAC600"/>
<path d="M287.35 300.198C287.268 302.363 280.285 303.868 271.757 303.563C263.228 303.258 256.367 301.255 256.448 299.09C256.53 296.925 263.503 295.431 272.041 295.736C280.58 296.041 287.421 298.043 287.35 300.198Z" fill="#FAC600"/>
<path d="M256.563 295.159L256.423 299.07L287.325 300.176L287.465 296.265L256.563 295.159Z" fill="#FAC600"/>
<path d="M287.482 296.285C287.41 298.45 280.427 299.954 271.899 299.649C263.371 299.344 256.509 297.342 256.591 295.177C256.672 293.012 263.645 291.517 272.173 291.822C280.702 292.127 287.563 294.13 287.482 296.285Z" fill="#FAC600"/>
<path opacity="0.4" d="M287.482 296.285C287.41 298.45 280.427 299.954 271.899 299.649C263.371 299.344 256.509 297.342 256.591 295.177C256.672 293.012 263.645 291.517 272.173 291.822C280.702 292.127 287.563 294.13 287.482 296.285Z" fill="white"/>
<path d="M285.53 296.071C285.517 296.208 285.46 296.336 285.368 296.437C284.432 295.095 278.862 293.906 272.153 293.662C265.445 293.418 259.742 294.201 258.736 295.482C258.647 295.373 258.6 295.236 258.604 295.095C258.655 293.632 264.703 292.646 272.184 292.91C279.665 293.174 285.632 294.607 285.53 296.071Z" fill="#FAC600"/>
<path opacity="0.4" d="M285.53 296.071C285.517 296.208 285.46 296.336 285.368 296.437C284.432 295.095 278.862 293.906 272.153 293.662C265.445 293.418 259.742 294.201 258.736 295.482C258.647 295.373 258.6 295.236 258.604 295.095C258.655 293.632 264.703 292.646 272.184 292.91C279.665 293.174 285.632 294.607 285.53 296.071Z" fill="#FAC600"/>
<path opacity="0.4" d="M285.367 296.437C284.351 297.718 278.699 298.47 271.95 298.257C265.2 298.043 259.61 296.834 258.735 295.482C259.752 294.201 265.383 293.449 272.153 293.662C278.923 293.876 284.432 295.095 285.367 296.437Z" fill="#FAC600"/>
<path d="M164.67 314.307C164.579 316.472 171.41 318.515 179.918 318.881C188.426 319.247 195.429 317.783 195.521 315.618C195.612 313.453 188.781 311.41 180.273 311.054C171.765 310.698 164.731 312.152 164.67 314.307Z" fill="#FAC600"/>
<path d="M164.785 310.38L164.619 314.29L195.513 315.601L195.679 311.691L164.785 310.38Z" fill="#FAC600"/>
<path d="M164.802 310.393C164.711 312.559 171.552 314.602 180.049 314.968C188.547 315.334 195.571 313.87 195.663 311.705C195.754 309.54 188.913 307.496 180.415 307.141C171.918 306.785 164.894 308.238 164.802 310.393Z" fill="#FAC600"/>
<path opacity="0.4" d="M164.802 310.393C164.711 312.559 171.552 314.602 180.049 314.968C188.547 315.334 195.571 313.87 195.663 311.705C195.754 309.54 188.913 307.496 180.415 307.141C171.918 306.785 164.894 308.238 164.802 310.393Z" fill="white"/>
<path d="M166.774 310.332C166.769 310.47 166.816 310.605 166.907 310.709C167.923 309.438 173.585 308.676 180.334 308.98C187.084 309.285 192.664 310.495 193.549 311.847C193.641 311.742 193.698 311.61 193.711 311.471C193.772 310.007 187.795 308.543 180.344 308.228C172.894 307.913 166.835 308.869 166.774 310.332Z" fill="#FAC600"/>
<path opacity="0.4" d="M166.774 310.332C166.769 310.47 166.816 310.605 166.907 310.709C167.923 309.438 173.585 308.676 180.334 308.98C187.084 309.285 192.664 310.495 193.549 311.847C193.641 311.742 193.698 311.61 193.711 311.471C193.772 310.007 187.795 308.543 180.344 308.228C172.894 307.913 166.835 308.869 166.774 310.332Z" fill="#FAC600"/>
<path opacity="0.4" d="M166.906 310.709C167.821 312.071 173.391 313.29 180.121 313.575C186.85 313.86 192.532 313.118 193.548 311.847C192.644 310.495 187.083 309.275 180.334 308.98C173.585 308.686 167.933 309.438 166.906 310.709Z" fill="#FAC600"/>
<path d="M161.387 308.381C161.296 310.546 168.137 312.589 176.634 312.955C185.132 313.321 192.156 311.857 192.248 309.692C192.339 307.527 185.498 305.484 177 305.128C168.503 304.772 161.479 306.226 161.387 308.381Z" fill="#FAC600"/>
<path d="M161.553 304.484L161.387 308.394L192.28 309.705L192.446 305.795L161.553 304.484Z" fill="#FAC600"/>
<path d="M161.56 304.467C161.468 306.632 168.309 308.676 176.807 309.041C185.305 309.407 192.328 307.944 192.42 305.779C192.511 303.613 185.67 301.58 177.173 301.215C168.675 300.849 161.62 302.312 161.56 304.467Z" fill="#FAC600"/>
<path opacity="0.4" d="M161.56 304.467C161.468 306.632 168.309 308.676 176.807 309.041C185.305 309.407 192.328 307.944 192.42 305.779C192.511 303.613 185.67 301.58 177.173 301.215C168.675 300.849 161.62 302.312 161.56 304.467Z" fill="white"/>
<path d="M163.521 304.406C163.527 304.545 163.573 304.68 163.654 304.793C164.67 303.522 170.342 302.76 177.081 303.054C183.821 303.349 189.421 304.569 190.296 305.921C190.395 305.819 190.456 305.686 190.468 305.545C190.529 304.081 184.553 302.617 177.102 302.302C169.651 301.987 163.593 302.912 163.521 304.406Z" fill="#FAC600"/>
<path opacity="0.4" d="M163.521 304.406C163.527 304.545 163.573 304.68 163.654 304.793C164.67 303.522 170.342 302.76 177.081 303.054C183.821 303.349 189.421 304.569 190.296 305.921C190.395 305.819 190.456 305.686 190.468 305.545C190.529 304.081 184.553 302.617 177.102 302.302C169.651 301.987 163.593 302.912 163.521 304.406Z" fill="#FAC600"/>
<path opacity="0.4" d="M163.654 304.793C164.579 306.145 170.139 307.364 176.868 307.649C183.597 307.934 189.29 307.191 190.296 305.921C189.401 304.569 183.831 303.349 177.082 303.054C170.332 302.76 164.67 303.522 163.654 304.793Z" fill="#FAC600"/>
<path d="M161.814 301.245C161.722 303.41 168.563 305.453 177.061 305.819C185.559 306.185 192.583 304.721 192.674 302.556C192.766 300.391 185.925 298.348 177.427 297.992C168.929 297.637 161.905 299.09 161.814 301.245Z" fill="#FAC600"/>
<path d="M161.974 297.331L161.808 301.241L192.701 302.552L192.867 298.642L161.974 297.331Z" fill="#FAC600"/>
<path d="M161.976 297.332C161.885 299.497 168.726 301.54 177.224 301.906C185.722 302.272 192.745 300.808 192.837 298.643C192.928 296.478 186.087 294.435 177.59 294.079C169.092 293.723 162.068 295.177 161.976 297.332Z" fill="#FAC600"/>
<path opacity="0.4" d="M161.976 297.332C161.885 299.497 168.726 301.54 177.224 301.906C185.722 302.272 192.745 300.808 192.837 298.643C192.928 296.478 186.087 294.435 177.59 294.079C169.092 293.723 162.068 295.177 161.976 297.332Z" fill="white"/>
<path d="M163.949 297.271C163.943 297.408 163.99 297.543 164.081 297.647C165.097 296.386 170.759 295.614 177.509 295.919C184.258 296.224 189.839 297.433 190.723 298.785C190.816 298.68 190.873 298.549 190.886 298.409C190.947 296.945 184.97 295.482 177.519 295.166C170.068 294.851 164.01 295.797 163.949 297.271Z" fill="#FAC600"/>
<path opacity="0.4" d="M163.949 297.271C163.943 297.408 163.99 297.543 164.081 297.647C165.097 296.386 170.759 295.614 177.509 295.919C184.258 296.224 189.839 297.433 190.723 298.785C190.816 298.68 190.873 298.549 190.886 298.409C190.947 296.945 184.97 295.482 177.519 295.166C170.068 294.851 164.01 295.797 163.949 297.271Z" fill="#FAC600"/>
<path opacity="0.4" d="M164.081 297.647C164.995 299.009 170.566 300.229 177.295 300.513C184.024 300.798 189.706 300.056 190.723 298.785C189.818 297.433 184.258 296.213 177.508 295.919C170.759 295.624 165.107 296.386 164.081 297.647Z" fill="#FAC600"/>
<path d="M158.571 295.319C158.48 297.484 165.321 299.527 173.818 299.893C182.316 300.259 189.34 298.795 189.432 296.63C189.523 294.465 182.682 292.432 174.184 292.066C165.687 291.7 158.653 293.164 158.571 295.319Z" fill="#FAC600"/>
<path d="M158.72 291.395L158.554 295.305L189.448 296.616L189.614 292.706L158.72 291.395Z" fill="#FAC600"/>
<path d="M158.734 291.405C158.642 293.571 165.483 295.614 173.981 295.98C182.479 296.346 189.503 294.882 189.594 292.717C189.686 290.552 182.845 288.519 174.347 288.153C165.849 287.787 158.825 289.251 158.734 291.405Z" fill="#FAC600"/>
<path opacity="0.4" d="M158.734 291.405C158.642 293.571 165.483 295.614 173.981 295.98C182.479 296.346 189.503 294.882 189.594 292.717C189.686 290.552 182.845 288.519 174.347 288.153C165.849 287.787 158.825 289.251 158.734 291.405Z" fill="white"/>
<path d="M160.706 291.345C160.702 291.483 160.745 291.619 160.828 291.731C161.844 290.46 167.516 289.698 174.266 290.003C181.015 290.308 186.596 291.507 187.48 292.859C187.575 292.755 187.632 292.623 187.643 292.483C187.704 291.029 181.727 289.555 174.276 289.24C166.825 288.925 160.767 289.881 160.706 291.345Z" fill="#FAC600"/>
<path opacity="0.4" d="M160.706 291.345C160.702 291.483 160.745 291.619 160.828 291.731C161.844 290.46 167.516 289.698 174.266 290.003C181.015 290.308 186.596 291.507 187.48 292.859C187.575 292.755 187.632 292.623 187.643 292.483C187.704 291.029 181.727 289.555 174.276 289.24C166.825 288.925 160.767 289.881 160.706 291.345Z" fill="#FAC600"/>
<path opacity="0.4" d="M160.828 291.731C161.753 293.083 167.313 294.302 174.042 294.587C180.772 294.872 186.464 294.13 187.48 292.859C186.576 291.507 181.005 290.287 174.266 290.003C167.527 289.718 161.865 290.46 160.828 291.731Z" fill="#FAC600"/>
<path d="M163.521 290.298C163.43 292.463 170.271 294.506 178.769 294.872C187.266 295.238 194.29 293.774 194.382 291.609C194.473 289.444 187.632 287.411 179.135 287.045C170.637 286.679 163.654 288.143 163.521 290.298Z" fill="#FAC600"/>
<path d="M163.692 286.389L163.526 290.299L194.42 291.61L194.586 287.7L163.692 286.389Z" fill="#FAC600"/>
<path d="M163.654 286.384C163.562 288.549 170.403 290.592 178.901 290.958C187.399 291.324 194.423 289.86 194.514 287.695C194.606 285.53 187.765 283.497 179.267 283.131C170.769 282.765 163.776 284.229 163.654 286.384Z" fill="#FAC600"/>
<path opacity="0.4" d="M163.654 286.384C163.562 288.549 170.403 290.592 178.901 290.958C187.399 291.324 194.423 289.86 194.514 287.695C194.606 285.53 187.765 283.497 179.267 283.131C170.769 282.765 163.776 284.229 163.654 286.384Z" fill="white"/>
<path d="M165.687 286.323C165.686 286.463 165.733 286.599 165.819 286.709C166.835 285.439 172.497 284.676 179.246 284.981C185.996 285.286 191.576 286.486 192.461 287.838C192.511 287.789 192.552 287.731 192.58 287.666C192.608 287.601 192.623 287.532 192.623 287.462C192.684 286.008 186.707 284.534 179.257 284.219C171.806 283.904 165.687 284.859 165.687 286.323Z" fill="#FAC600"/>
<path opacity="0.4" d="M165.687 286.323C165.686 286.463 165.733 286.599 165.819 286.709C166.835 285.439 172.497 284.676 179.246 284.981C185.996 285.286 191.576 286.486 192.461 287.838C192.511 287.789 192.552 287.731 192.58 287.666C192.608 287.601 192.623 287.532 192.623 287.462C192.684 286.008 186.707 284.534 179.257 284.219C171.806 283.904 165.687 284.859 165.687 286.323Z" fill="#FAC600"/>
<path opacity="0.4" d="M165.788 286.709C166.713 288.061 172.273 289.281 179.002 289.566C185.731 289.85 191.414 289.108 192.43 287.838C191.525 286.486 185.965 285.266 179.216 284.981C172.466 284.697 166.825 285.439 165.788 286.709Z" fill="#FAC600"/>
<path d="M160.279 284.382C160.188 286.537 167.029 288.58 175.526 288.946C184.024 289.312 191.038 287.848 191.14 285.693C191.241 283.538 184.39 281.485 175.892 281.119C167.395 280.753 160.371 282.216 160.279 284.382Z" fill="#FAC600"/>
<path d="M160.429 280.453L160.263 284.363L191.157 285.674L191.323 281.764L160.429 280.453Z" fill="#FAC600"/>
<path d="M160.442 280.468C160.35 282.623 167.191 284.666 175.689 285.032C184.187 285.398 191.211 283.934 191.302 281.779C191.394 279.624 184.553 277.571 176.055 277.205C167.557 276.839 160.533 278.303 160.442 280.468Z" fill="#FAC600"/>
<path opacity="0.4" d="M160.442 280.468C160.35 282.623 167.191 284.666 175.689 285.032C184.187 285.398 191.211 283.934 191.302 281.779C191.394 279.624 184.553 277.571 176.055 277.205C167.557 276.839 160.533 278.303 160.442 280.468Z" fill="white"/>
<path d="M162.414 280.397C162.407 280.538 162.455 280.676 162.546 280.783C163.562 279.513 169.224 278.75 175.974 279.055C182.723 279.36 188.303 280.56 189.188 281.912C189.28 281.81 189.337 281.682 189.35 281.546C189.411 280.082 183.435 278.608 175.984 278.293C168.533 277.978 162.475 278.933 162.414 280.397Z" fill="#FAC600"/>
<path opacity="0.4" d="M162.414 280.397C162.407 280.538 162.455 280.676 162.546 280.783C163.562 279.513 169.224 278.75 175.974 279.055C182.723 279.36 188.303 280.56 189.188 281.912C189.28 281.81 189.337 281.682 189.35 281.546C189.411 280.082 183.435 278.608 175.984 278.293C168.533 277.978 162.475 278.933 162.414 280.397Z" fill="#FAC600"/>
<path opacity="0.4" d="M162.546 280.783C163.461 282.135 169.031 283.355 175.76 283.64C182.489 283.924 188.171 283.182 189.188 281.912C188.283 280.56 182.723 279.34 175.974 279.055C169.224 278.771 163.573 279.533 162.546 280.783Z" fill="#FAC600"/>
<path d="M194.402 280.173C194.494 282.328 187.653 284.382 179.155 284.737C170.657 285.093 163.654 283.599 163.511 281.485C163.369 279.37 170.251 277.276 178.759 276.91C187.267 276.545 194.301 278.008 194.402 280.173Z" fill="#FAC600"/>
<path d="M193.545 277.279L162.624 278.516L162.781 282.43L193.702 281.193L193.545 277.279Z" fill="#FAC600"/>
<path d="M194.229 276.26C194.321 278.415 187.48 280.468 178.982 280.824C170.484 281.18 163.461 279.736 163.369 277.571C163.278 275.406 170.119 273.363 178.616 272.997C187.114 272.631 194.148 274.095 194.229 276.26Z" fill="#FAC600"/>
<path opacity="0.4" d="M194.229 276.26C194.321 278.415 187.48 280.468 178.982 280.824C170.484 281.18 163.461 279.736 163.369 277.571C163.278 275.406 170.119 273.363 178.616 272.997C187.114 272.631 194.148 274.095 194.229 276.26Z" fill="white"/>
<path d="M192.258 276.189C192.266 276.33 192.218 276.469 192.125 276.575C191.109 275.304 185.447 274.542 178.698 274.847C171.948 275.152 166.368 276.351 165.483 277.713C165.392 277.607 165.336 277.476 165.321 277.337C165.26 275.874 171.237 274.41 178.688 274.095C186.138 273.78 192.197 274.725 192.258 276.189Z" fill="#FAC600"/>
<path opacity="0.4" d="M192.258 276.189C192.266 276.33 192.218 276.469 192.125 276.575C191.109 275.304 185.447 274.542 178.698 274.847C171.948 275.152 166.368 276.351 165.483 277.713C165.392 277.607 165.336 277.476 165.321 277.337C165.26 275.874 171.237 274.41 178.688 274.095C186.138 273.78 192.197 274.725 192.258 276.189Z" fill="#FAC600"/>
<path opacity="0.4" d="M192.115 276.575C191.2 277.927 185.63 279.147 178.901 279.442C172.172 279.736 166.49 278.984 165.473 277.713C166.378 276.351 171.938 275.132 178.687 274.847C185.437 274.562 191.099 275.304 192.115 276.575Z" fill="#FAC600"/>
<path d="M197.645 274.247C197.737 276.412 190.896 278.456 182.398 278.811C173.9 279.167 166.876 277.724 166.785 275.559C166.693 273.393 173.534 271.35 182.032 270.995C190.53 270.639 197.554 272.082 197.645 274.247Z" fill="#FAC600"/>
<path d="M197.48 270.324L166.586 271.635L166.752 275.545L197.645 274.234L197.48 270.324Z" fill="#FAC600"/>
<path d="M197.472 270.385C197.564 272.55 190.733 274.593 182.225 274.959C173.717 275.325 166.713 273.861 166.622 271.696C166.531 269.531 173.361 267.488 181.869 267.132C190.377 266.776 197.381 268.169 197.472 270.385Z" fill="#FAC600"/>
<path opacity="0.4" d="M197.472 270.385C197.564 272.55 190.733 274.593 182.225 274.959C173.717 275.325 166.713 273.861 166.622 271.696C166.531 269.531 173.361 267.488 181.869 267.132C190.377 266.776 197.381 268.169 197.472 270.385Z" fill="white"/>
<path d="M195.51 270.263C195.508 270.402 195.462 270.537 195.378 270.649C194.362 269.378 188.69 268.616 181.95 268.921C175.211 269.226 169.61 270.435 168.736 271.787C168.635 271.688 168.577 271.553 168.573 271.411C168.502 269.948 174.489 268.484 181.93 268.169C189.371 267.854 195.439 268.799 195.51 270.263Z" fill="#FAC600"/>
<path opacity="0.4" d="M195.51 270.263C195.508 270.402 195.462 270.537 195.378 270.649C194.362 269.378 188.69 268.616 181.95 268.921C175.211 269.226 169.61 270.435 168.736 271.787C168.635 271.688 168.577 271.553 168.573 271.411C168.502 269.948 174.489 268.484 181.93 268.169C189.371 267.854 195.439 268.799 195.51 270.263Z" fill="#FAC600"/>
<path opacity="0.4" d="M195.378 270.649C194.453 272.001 188.893 273.231 182.164 273.515C175.435 273.8 169.743 273.058 168.736 271.787C169.631 270.435 175.201 269.206 181.951 268.921C188.7 268.636 194.342 269.368 195.378 270.649Z" fill="#FAC600"/>
<path d="M197.198 267.112C197.289 269.266 190.459 271.32 181.951 271.676C173.443 272.031 166.439 270.588 166.348 268.423C166.256 266.258 173.087 264.215 181.595 263.849C190.103 263.483 197.127 264.946 197.198 267.112Z" fill="#FAC600"/>
<path d="M197.055 263.202L166.162 264.513L166.328 268.423L197.221 267.112L197.055 263.202Z" fill="#FAC600"/>
<path d="M197.055 263.198C197.147 265.363 190.306 267.406 181.808 267.762C173.31 268.118 166.286 266.674 166.195 264.509C166.103 262.344 172.944 260.301 181.442 259.945C189.94 259.59 196.964 261.033 197.055 263.198Z" fill="#FAC600"/>
<path opacity="0.4" d="M197.055 263.198C197.147 265.363 190.306 267.406 181.808 267.762C173.31 268.118 166.286 266.674 166.195 264.509C166.103 262.344 172.944 260.301 181.442 259.945C189.94 259.59 196.964 261.033 197.055 263.198Z" fill="white"/>
<path d="M195.083 263.127C195.092 263.268 195.044 263.407 194.951 263.513C193.935 262.243 188.273 261.48 181.523 261.785C174.774 262.09 169.193 263.3 168.309 264.652C168.218 264.546 168.161 264.414 168.146 264.276C168.085 262.812 174.062 261.348 181.513 261.033C188.964 260.718 195.022 261.663 195.083 263.127Z" fill="#FAC600"/>
<path opacity="0.4" d="M195.083 263.127C195.092 263.268 195.044 263.407 194.951 263.513C193.935 262.243 188.273 261.48 181.523 261.785C174.774 262.09 169.193 263.3 168.309 264.652C168.218 264.546 168.161 264.414 168.146 264.276C168.085 262.812 174.062 261.348 181.513 261.033C188.964 260.718 195.022 261.663 195.083 263.127Z" fill="#FAC600"/>
<path opacity="0.4" d="M194.951 263.513C194.036 264.865 188.466 266.095 181.737 266.38C175.008 266.664 169.326 265.922 168.309 264.652C169.214 263.3 174.774 262.07 181.523 261.785C188.273 261.501 193.924 262.253 194.951 263.513Z" fill="#FAC600"/>
<path d="M200.471 261.236C200.562 263.401 193.721 265.445 185.223 265.81C176.726 266.176 169.702 264.713 169.61 262.548C169.519 260.382 176.36 258.339 184.858 257.984C193.355 257.628 200.379 259.02 200.471 261.236Z" fill="#FAC600"/>
<path d="M200.277 257.286L169.384 258.597L169.55 262.507L200.443 261.196L200.277 257.286Z" fill="#FAC600"/>
<path d="M200.298 257.272C200.389 259.437 193.548 261.48 185.051 261.846C176.553 262.212 169.529 260.748 169.437 258.583C169.346 256.418 176.187 254.375 184.685 254.019C193.182 253.663 200.247 255.137 200.298 257.272Z" fill="#FAC600"/>
<path opacity="0.4" d="M200.298 257.272C200.389 259.437 193.548 261.48 185.051 261.846C176.553 262.212 169.529 260.748 169.437 258.583C169.346 256.418 176.187 254.375 184.685 254.019C193.182 253.663 200.247 255.137 200.298 257.272Z" fill="white"/>
<path d="M198.336 257.17C198.332 257.306 198.286 257.438 198.204 257.546C197.187 256.276 191.515 255.513 184.776 255.818C178.037 256.123 172.436 257.333 171.562 258.685C171.462 258.583 171.401 258.45 171.389 258.309C171.328 256.845 177.305 255.381 184.756 255.066C192.207 254.751 198.265 255.747 198.336 257.17Z" fill="#FAC600"/>
<path opacity="0.4" d="M198.336 257.17C198.332 257.306 198.286 257.438 198.204 257.546C197.187 256.276 191.515 255.513 184.776 255.818C178.037 256.123 172.436 257.333 171.562 258.685C171.462 258.583 171.401 258.45 171.389 258.309C171.328 256.845 177.305 255.381 184.756 255.066C192.207 254.751 198.265 255.747 198.336 257.17Z" fill="#FAC600"/>
<path opacity="0.4" d="M198.214 257.587C197.289 258.949 191.729 260.169 185 260.454C178.271 260.738 172.579 259.996 171.572 258.726C172.467 257.374 178.037 256.144 184.787 255.859C191.536 255.574 197.198 256.316 198.214 257.587Z" fill="#FAC600"/>
<path d="M195.511 256.154C195.602 258.319 188.761 260.362 180.263 260.728C171.765 261.094 164.67 259.64 164.67 257.475C164.67 255.31 171.42 253.267 179.918 252.911C188.415 252.556 195.419 254.009 195.511 256.154Z" fill="#FAC600"/>
<path d="M195.353 252.246L164.459 253.557L164.625 257.467L195.519 256.155L195.353 252.246Z" fill="#FAC600"/>
<path d="M195.348 252.251C195.439 254.416 188.598 256.459 180.1 256.825C171.603 257.191 164.579 255.727 164.487 253.562C164.396 251.397 171.237 249.354 179.734 248.998C188.232 248.642 195.256 250.055 195.348 252.251Z" fill="#FAC600"/>
<path opacity="0.4" d="M195.348 252.251C195.439 254.416 188.598 256.459 180.1 256.825C171.603 257.191 164.579 255.727 164.487 253.562C164.396 251.397 171.237 249.354 179.734 248.998C188.232 248.642 195.256 250.055 195.348 252.251Z" fill="white"/>
<path d="M193.376 252.19C193.381 252.327 193.334 252.462 193.244 252.566C192.227 251.295 186.565 250.533 179.816 250.838C173.066 251.143 167.486 252.352 166.602 253.704C166.505 253.602 166.447 253.469 166.439 253.328C166.378 251.864 172.355 250.401 179.806 250.085C187.257 249.77 193.315 250.726 193.376 252.19Z" fill="#FAC600"/>
<path opacity="0.4" d="M193.376 252.19C193.381 252.327 193.334 252.462 193.244 252.566C192.227 251.295 186.565 250.533 179.816 250.838C173.066 251.143 167.486 252.352 166.602 253.704C166.505 253.602 166.447 253.469 166.439 253.328C166.378 251.864 172.355 250.401 179.806 250.085C187.257 249.77 193.315 250.726 193.376 252.19Z" fill="#FAC600"/>
<path opacity="0.4" d="M193.244 252.566C192.319 253.928 186.758 255.148 180.029 255.432C173.3 255.717 167.618 254.975 166.602 253.704C167.506 252.352 173.066 251.132 179.816 250.838C186.565 250.543 192.207 251.295 193.244 252.566Z" fill="#FAC600"/>
<path d="M198.763 250.238C198.855 252.403 192.014 254.446 183.516 254.812C175.018 255.178 168.005 253.714 167.913 251.549C167.822 249.384 174.652 247.341 183.16 246.985C191.668 246.629 198.662 248.083 198.763 250.238Z" fill="#FAC600"/>
<path d="M198.586 246.34L167.692 247.651L167.858 251.561L198.751 250.25L198.586 246.34Z" fill="#FAC600"/>
<path d="M198.59 246.324C198.682 248.49 191.841 250.533 183.343 250.899C174.845 251.265 167.821 249.801 167.73 247.636C167.638 245.471 174.479 243.438 182.977 243.072C191.475 242.706 198.499 244.17 198.59 246.324Z" fill="#FAC600"/>
<path opacity="0.4" d="M198.59 246.324C198.682 248.49 191.841 250.533 183.343 250.899C174.845 251.265 167.821 249.801 167.73 247.636C167.638 245.471 174.479 243.438 182.977 243.072C191.475 242.706 198.499 244.17 198.59 246.324Z" fill="white"/>
<path d="M196.618 246.263C196.623 246.404 196.576 246.541 196.486 246.65C195.47 245.379 189.808 244.617 183.059 244.912C176.309 245.206 170.729 246.426 169.844 247.778C169.752 247.673 169.695 247.541 169.682 247.402C169.621 245.938 175.598 244.474 183.048 244.159C190.499 243.844 196.557 244.8 196.618 246.263Z" fill="#FAC600"/>
<path opacity="0.4" d="M196.618 246.263C196.623 246.404 196.576 246.541 196.486 246.65C195.47 245.379 189.808 244.617 183.059 244.912C176.309 245.206 170.729 246.426 169.844 247.778C169.752 247.673 169.695 247.541 169.682 247.402C169.621 245.938 175.598 244.474 183.048 244.159C190.499 243.844 196.557 244.8 196.618 246.263Z" fill="#FAC600"/>
<path opacity="0.4" d="M196.486 246.65C195.571 248.002 190.001 249.221 183.272 249.506C176.543 249.791 170.861 249.049 169.844 247.778C170.749 246.426 176.309 245.206 183.059 244.912C189.808 244.617 195.46 245.379 196.486 246.65Z" fill="#FAC600"/>
<path d="M185.889 245.809C193.09 243.109 196.74 235.083 194.04 227.881C191.34 220.679 183.314 217.03 176.112 219.73C168.91 222.429 165.261 230.456 167.961 237.658C170.66 244.859 178.687 248.509 185.889 245.809Z" fill="#FAC600"/>
<path d="M193.141 242.483C198.126 236.626 197.419 227.837 191.562 222.852C185.705 217.868 176.916 218.575 171.931 224.432C166.946 230.289 167.653 239.078 173.51 244.063C179.367 249.047 188.156 248.34 193.141 242.483Z" fill="#FAC600"/>
<path opacity="0.4" d="M193.141 242.483C198.126 236.626 197.419 227.837 191.562 222.852C185.705 217.868 176.916 218.575 171.931 224.432C166.946 230.289 167.653 239.078 173.51 244.063C179.367 249.047 188.156 248.34 193.141 242.483Z" fill="white"/>
<path d="M192.024 237.745C191.17 239.62 189.78 241.2 188.028 242.285C186.277 243.37 184.243 243.911 182.184 243.841C180.125 243.77 178.133 243.09 176.46 241.888C174.787 240.685 173.508 239.014 172.785 237.085C172.062 235.155 171.927 233.055 172.398 231.049C172.868 229.044 173.922 227.222 175.428 225.815C176.933 224.409 178.822 223.48 180.855 223.146C182.888 222.813 184.974 223.09 186.85 223.941C189.366 225.087 191.324 227.184 192.294 229.773C193.264 232.361 193.167 235.229 192.024 237.745Z" fill="#FAC600"/>
<path opacity="0.3" d="M187.368 236.526C187.207 235.891 186.852 235.322 186.352 234.899C186.884 234.877 187.398 234.704 187.836 234.401C188.28 234.096 188.632 233.674 188.853 233.181C189.044 232.784 189.133 232.346 189.112 231.905C189.091 231.465 188.959 231.037 188.731 230.66C188.294 229.973 187.689 229.41 186.972 229.024L187.328 228.241L186.128 227.702L185.803 228.424L184.604 227.875L184.929 227.154L183.729 226.605L183.404 227.337L180.802 226.147L175.923 236.891L178.515 238.081L178.169 238.843L179.369 239.382L179.714 238.62L180.914 239.168L180.568 239.931L181.768 240.47L182.134 239.677C183.038 240.083 184.036 240.234 185.02 240.114C185.472 240.03 185.896 239.833 186.251 239.542C186.607 239.25 186.883 238.874 187.053 238.447C187.373 237.86 187.484 237.183 187.368 236.526ZM182.449 229.146L184.919 230.274C185.418 230.462 185.852 230.79 186.169 231.22C186.272 231.395 186.326 231.595 186.326 231.799C186.326 232.003 186.272 232.202 186.169 232.378C186.099 232.571 185.978 232.741 185.818 232.87C185.659 232.999 185.467 233.082 185.264 233.11C184.73 233.165 184.192 233.059 183.719 232.805L181.249 231.677L182.449 229.146ZM183.79 237.816C183.226 237.854 182.662 237.731 182.164 237.461L179.267 236.149L180.467 233.486L183.374 234.808C184.685 235.407 185.142 236.16 184.746 237.044C184.675 237.253 184.549 237.44 184.381 237.583C184.212 237.726 184.008 237.821 183.79 237.857V237.816Z" fill="white"/>
<path d="M313.788 312.284C313.473 313.555 309.163 313.565 304.162 312.284C299.161 311.003 295.359 308.981 295.675 307.72C295.99 306.46 300.31 306.439 305.311 307.72C310.312 309.001 314.093 311.044 313.788 312.284Z" fill="#FAC600"/>
<path d="M296.261 305.462L295.686 307.76L313.799 312.296L314.374 309.998L296.261 305.462Z" fill="#FAC600"/>
<path d="M314.368 310.027C314.043 311.298 309.733 311.308 304.732 310.027C299.731 308.747 295.939 306.734 296.254 305.463C296.569 304.193 300.879 304.183 305.88 305.463C310.881 306.744 314.683 308.726 314.368 310.027Z" fill="#FAC600"/>
<path opacity="0.4" d="M314.368 310.027C314.043 311.298 309.733 311.308 304.732 310.027C299.731 308.747 295.939 306.734 296.254 305.463C296.569 304.193 300.879 304.183 305.88 305.463C310.881 306.744 314.683 308.726 314.368 310.027Z" fill="white"/>
<path d="M313.229 309.611C313.221 309.652 313.204 309.692 313.179 309.727C313.155 309.762 313.123 309.792 313.087 309.814C312.711 308.899 309.57 307.496 305.616 306.51C301.662 305.524 298.216 305.27 297.484 305.901C297.464 305.82 297.464 305.737 297.484 305.657C297.708 304.793 301.418 304.976 305.789 306.063C310.16 307.151 313.453 308.757 313.229 309.611Z" fill="#FAC600"/>
<path opacity="0.4" d="M313.229 309.611C313.221 309.652 313.204 309.692 313.179 309.727C313.155 309.762 313.123 309.792 313.087 309.814C312.711 308.899 309.57 307.496 305.616 306.51C301.662 305.524 298.216 305.27 297.484 305.901C297.464 305.82 297.464 305.737 297.484 305.657C297.708 304.793 301.418 304.976 305.789 306.063C310.16 307.151 313.453 308.757 313.229 309.611Z" fill="#FAC600"/>
<path opacity="0.4" d="M313.077 309.814C312.315 310.434 308.889 310.19 304.945 309.204C301.001 308.218 297.83 306.805 297.464 305.901C298.226 305.27 301.652 305.514 305.596 306.51C309.54 307.507 312.711 308.899 313.077 309.814Z" fill="#FAC600"/>
<path d="M322.489 316.452C322.55 317.753 318.423 318.993 313.26 319.206C308.096 319.42 303.888 318.546 303.837 317.245C303.786 315.943 307.903 314.703 313.067 314.48C318.23 314.256 322.439 315.11 322.489 316.452Z" fill="#FAC600"/>
<path d="M322.368 314.107L303.712 314.899L303.813 317.265L322.469 316.473L322.368 314.107Z" fill="#FAC600"/>
<path d="M322.388 314.093C322.449 315.405 318.322 316.635 313.168 316.858C308.014 317.082 303.796 316.198 303.735 314.886C303.674 313.575 307.801 312.345 312.965 312.132C318.128 311.918 322.337 312.782 322.388 314.093Z" fill="#FAC600"/>
<path opacity="0.4" d="M322.388 314.093C322.449 315.405 318.322 316.635 313.168 316.858C308.014 317.082 303.796 316.198 303.735 314.886C303.674 313.575 307.801 312.345 312.965 312.132C318.128 311.918 322.337 312.782 322.388 314.093Z" fill="white"/>
<path d="M321.209 314.093C321.213 314.136 321.208 314.179 321.194 314.219C321.18 314.26 321.157 314.296 321.127 314.327C320.507 313.565 317.061 313.107 312.996 313.311C308.93 313.514 305.545 314.226 304.996 315.039C304.939 314.978 304.907 314.898 304.904 314.815C304.904 313.931 308.472 313.046 312.975 312.853C317.478 312.66 321.209 313.158 321.209 314.093Z" fill="#FAC600"/>
<path opacity="0.4" d="M321.209 314.093C321.213 314.136 321.208 314.179 321.194 314.219C321.18 314.26 321.157 314.296 321.127 314.327C320.507 313.565 317.061 313.107 312.996 313.311C308.93 313.514 305.545 314.226 304.996 315.039C304.939 314.978 304.907 314.898 304.904 314.815C304.904 313.931 308.472 313.046 312.975 312.853C317.478 312.66 321.209 313.158 321.209 314.093Z" fill="#FAC600"/>
<path opacity="0.4" d="M321.117 314.276C320.568 315.09 317.204 315.832 313.127 316.004C309.051 316.177 305.636 315.73 304.996 314.988C305.545 314.175 308.909 313.433 312.995 313.26C317.082 313.087 320.497 313.514 321.117 314.276Z" fill="#FAC600"/>
<path d="M312.672 311.794C316.892 305.364 315.101 296.731 308.672 292.51C302.242 288.29 293.608 290.081 289.388 296.511C285.168 302.94 286.959 311.574 293.389 315.794C299.818 320.015 308.452 318.224 312.672 311.794Z" fill="#FAC600"/>
<path d="M312.69 314.581C310.858 316.638 308.457 318.104 305.79 318.796C303.124 319.488 300.313 319.373 297.712 318.467C295.111 317.56 292.837 315.903 291.178 313.704C289.519 311.505 288.549 308.864 288.391 306.114C288.233 303.364 288.894 300.629 290.291 298.255C291.688 295.881 293.757 293.974 296.237 292.777C298.718 291.579 301.497 291.143 304.225 291.525C306.953 291.907 309.506 293.089 311.562 294.923C314.318 297.38 315.985 300.832 316.197 304.518C316.409 308.205 315.147 311.825 312.69 314.581Z" fill="#FAC600"/>
<path opacity="0.4" d="M312.69 314.581C310.858 316.638 308.457 318.104 305.79 318.796C303.124 319.488 300.313 319.373 297.712 318.467C295.111 317.56 292.837 315.903 291.178 313.704C289.519 311.505 288.549 308.864 288.391 306.114C288.233 303.364 288.894 300.629 290.291 298.255C291.688 295.881 293.757 293.974 296.237 292.777C298.718 291.579 301.497 291.143 304.225 291.525C306.953 291.907 309.506 293.089 311.562 294.923C314.318 297.38 315.985 300.832 316.197 304.518C316.409 308.205 315.147 311.825 312.69 314.581Z" fill="white"/>
<path d="M310.028 312.254C308.655 313.794 306.857 314.893 304.86 315.411C302.863 315.929 300.757 315.844 298.809 315.165C296.861 314.486 295.158 313.245 293.915 311.598C292.672 309.951 291.946 307.973 291.828 305.913C291.71 303.854 292.206 301.805 293.252 300.027C294.298 298.249 295.848 296.821 297.706 295.924C299.564 295.028 301.646 294.702 303.689 294.989C305.732 295.275 307.645 296.161 309.184 297.535C310.206 298.446 311.039 299.549 311.635 300.782C312.231 302.014 312.578 303.352 312.656 304.719C312.735 306.086 312.543 307.455 312.092 308.748C311.641 310.041 310.939 311.232 310.028 312.254Z" fill="#FAC600"/>
<g opacity="0.3">
<path opacity="0.3" d="M304.234 310.027C302.993 312.06 300.788 312.111 298.501 310.393L297.199 311.786L295.898 310.637L297.21 309.245C296.167 308.172 295.39 306.87 294.943 305.443L296.976 304.356C297.309 305.562 297.922 306.673 298.765 307.598L300.798 305.463C299.852 303.979 298.877 302.241 299.995 300.432C301.225 298.45 303.471 298.399 305.779 300.137L307.09 298.745L308.381 299.903L307.07 301.306C307.882 302.163 308.511 303.176 308.92 304.284L306.978 305.423C306.682 304.495 306.19 303.642 305.535 302.922L303.451 305.159C304.345 306.622 305.291 308.299 304.234 310.027ZM302.445 303.654L304.152 301.835C303.309 301.337 302.607 301.428 302.241 301.987C302.127 302.257 302.086 302.552 302.122 302.843C302.158 303.133 302.269 303.41 302.445 303.644V303.654ZM301.896 308.554C302.006 308.299 302.046 308.02 302.012 307.745C301.978 307.469 301.871 307.208 301.702 306.988L300.076 308.716C300.879 309.163 301.54 309.102 301.896 308.543V308.554Z" fill="white"/>
</g>
<path d="M129.886 317.743C129.835 319.044 133.952 320.284 139.116 320.497C144.28 320.711 148.488 319.837 148.539 318.535C148.59 317.234 144.473 315.994 139.319 315.771C134.166 315.547 129.947 316.431 129.886 317.743Z" fill="#FAC600"/>
<path d="M129.994 315.384L129.894 317.751L148.55 318.542L148.65 316.176L129.994 315.384Z" fill="#FAC600"/>
<path d="M129.988 315.374C129.927 316.685 134.054 317.915 139.218 318.139C144.381 318.363 148.59 317.478 148.64 316.167C148.691 314.856 144.575 313.626 139.411 313.412C134.247 313.199 130.039 314.093 129.988 315.374Z" fill="#FAC600"/>
<path opacity="0.4" d="M129.988 315.374C129.927 316.685 134.054 317.915 139.218 318.139C144.381 318.363 148.59 317.478 148.64 316.167C148.691 314.856 144.575 313.626 139.411 313.412C134.247 313.199 130.039 314.093 129.988 315.374Z" fill="white"/>
<path d="M131.177 315.334C131.178 315.418 131.207 315.5 131.259 315.567C131.879 314.805 135.324 314.348 139.39 314.551C143.456 314.754 146.831 315.466 147.38 316.289C147.438 316.224 147.474 316.142 147.482 316.055C147.482 315.171 143.904 314.287 139.411 314.104C134.918 313.921 131.218 314.449 131.177 315.334Z" fill="#FAC600"/>
<path opacity="0.4" d="M131.177 315.334C131.178 315.418 131.207 315.5 131.259 315.567C131.879 314.805 135.324 314.348 139.39 314.551C143.456 314.754 146.831 315.466 147.38 316.289C147.438 316.224 147.474 316.142 147.482 316.055C147.482 315.171 143.904 314.287 139.411 314.104C134.918 313.921 131.218 314.449 131.177 315.334Z" fill="#FAC600"/>
<path opacity="0.4" d="M131.258 315.567C131.817 316.391 135.172 317.123 139.248 317.295C143.324 317.468 146.75 317.021 147.38 316.279C146.831 315.456 143.476 314.724 139.39 314.541C135.304 314.358 131.878 314.805 131.258 315.567Z" fill="#FAC600"/>
<path d="M127.924 314.165C127.924 315.466 131.99 316.706 137.154 316.919C142.318 317.133 146.526 316.259 146.577 314.957C146.628 313.656 142.511 312.416 137.357 312.193C132.204 311.969 127.985 312.863 127.924 314.165Z" fill="#FAC600"/>
<path d="M128.013 311.775L127.913 314.141L146.569 314.933L146.669 312.567L128.013 311.775Z" fill="#FAC600"/>
<path d="M128.077 311.796C128.077 313.107 132.143 314.337 137.306 314.561C142.47 314.785 146.678 313.9 146.729 312.589C146.78 311.278 142.663 310.048 137.51 309.834C132.356 309.621 128.077 310.495 128.077 311.796Z" fill="#FAC600"/>
<path opacity="0.4" d="M128.077 311.796C128.077 313.107 132.143 314.337 137.306 314.561C142.47 314.785 146.678 313.9 146.729 312.589C146.78 311.278 142.663 310.048 137.51 309.834C132.356 309.621 128.077 310.495 128.077 311.796Z" fill="white"/>
<path d="M129.215 311.755C129.216 311.84 129.245 311.922 129.297 311.989C129.917 311.227 133.363 310.78 137.429 310.973C141.494 311.166 144.869 311.877 145.418 312.701C145.476 312.636 145.512 312.554 145.52 312.467C145.52 311.593 141.942 310.698 137.449 310.515C132.956 310.332 129.256 310.871 129.215 311.755Z" fill="#FAC600"/>
<path opacity="0.4" d="M129.215 311.755C129.216 311.84 129.245 311.922 129.297 311.989C129.917 311.227 133.363 310.78 137.429 310.973C141.494 311.166 144.869 311.877 145.418 312.701C145.476 312.636 145.512 312.554 145.52 312.467C145.52 311.593 141.942 310.698 137.449 310.515C132.956 310.332 129.256 310.871 129.215 311.755Z" fill="#FAC600"/>
<path opacity="0.4" d="M129.296 311.989C129.855 312.813 133.21 313.545 137.286 313.717C141.362 313.89 144.788 313.443 145.418 312.701C144.869 311.877 141.515 311.146 137.428 310.973C133.342 310.8 129.916 311.227 129.296 311.989Z" fill="#FAC600"/>
<path d="M128.178 309.855C128.178 311.156 132.244 312.396 137.408 312.609C142.572 312.823 146.78 311.949 146.831 310.648C146.882 309.346 142.765 308.106 137.611 307.883C132.458 307.659 128.239 308.554 128.178 309.855Z" fill="#FAC600"/>
<path d="M128.262 307.465L128.161 309.832L146.817 310.624L146.918 308.257L128.262 307.465Z" fill="#FAC600"/>
<path d="M128.28 307.486C128.28 308.798 132.346 310.027 137.51 310.251C142.674 310.475 146.882 309.59 146.933 308.279C146.984 306.968 142.867 305.738 137.713 305.524C132.56 305.311 128.341 306.185 128.28 307.486Z" fill="#FAC600"/>
<path opacity="0.4" d="M128.28 307.486C128.28 308.798 132.346 310.027 137.51 310.251C142.674 310.475 146.882 309.59 146.933 308.279C146.984 306.968 142.867 305.738 137.713 305.524C132.56 305.311 128.341 306.185 128.28 307.486Z" fill="white"/>
<path d="M129.469 307.446C129.47 307.53 129.499 307.613 129.551 307.679C130.171 306.917 133.616 306.47 137.682 306.663C141.748 306.856 145.123 307.568 145.672 308.391C145.73 308.326 145.766 308.244 145.774 308.157C145.774 307.283 142.196 306.388 137.703 306.205C133.21 306.023 129.51 306.571 129.469 307.446Z" fill="#FAC600"/>
<path opacity="0.4" d="M129.469 307.446C129.47 307.53 129.499 307.613 129.551 307.679C130.171 306.917 133.616 306.47 137.682 306.663C141.748 306.856 145.123 307.568 145.672 308.391C145.73 308.326 145.766 308.244 145.774 308.157C145.774 307.283 142.196 306.388 137.703 306.205C133.21 306.023 129.51 306.571 129.469 307.446Z" fill="#FAC600"/>
<path opacity="0.4" d="M129.551 307.679C130.11 308.503 133.464 309.235 137.54 309.407C141.616 309.58 145.042 309.133 145.672 308.391C145.123 307.568 141.769 306.836 137.683 306.663C133.596 306.49 130.171 306.917 129.551 307.679Z" fill="#FAC600"/>
<path d="M126.217 306.277C126.217 307.578 130.283 308.818 135.446 309.031C140.61 309.245 144.818 308.371 144.879 307.07C144.94 305.768 140.814 304.528 135.65 304.305C130.486 304.081 126.278 304.945 126.217 306.277Z" fill="#FAC600"/>
<path d="M126.312 303.897L126.211 306.263L144.867 307.055L144.968 304.688L126.312 303.897Z" fill="#FAC600"/>
<path d="M126.318 303.929C126.268 305.24 130.384 306.47 135.548 306.693C140.712 306.917 144.92 306.033 144.971 304.721C145.022 303.41 140.905 302.19 135.751 301.967C130.598 301.743 126.379 302.607 126.318 303.929Z" fill="#FAC600"/>
<path opacity="0.4" d="M126.318 303.929C126.268 305.24 130.384 306.47 135.548 306.693C140.712 306.917 144.92 306.033 144.971 304.721C145.022 303.41 140.905 302.19 135.751 301.967C130.598 301.743 126.379 302.607 126.318 303.929Z" fill="white"/>
<path d="M127.507 303.868C127.508 303.952 127.537 304.035 127.589 304.101C128.219 303.339 131.655 302.892 135.721 303.085C139.786 303.278 143.171 303.99 143.71 304.813C143.77 304.753 143.806 304.674 143.812 304.589C143.812 303.705 140.234 302.81 135.741 302.627C131.248 302.445 127.548 302.993 127.507 303.868Z" fill="#FAC600"/>
<path opacity="0.4" d="M127.507 303.868C127.508 303.952 127.537 304.035 127.589 304.101C128.219 303.339 131.655 302.892 135.721 303.085C139.786 303.278 143.171 303.99 143.71 304.813C143.77 304.753 143.806 304.674 143.812 304.589C143.812 303.705 140.234 302.81 135.741 302.627C131.248 302.445 127.548 302.993 127.507 303.868Z" fill="#FAC600"/>
<path opacity="0.4" d="M127.589 304.101C128.148 304.925 131.502 305.657 135.578 305.829C139.655 306.002 143.08 305.555 143.71 304.813C143.172 303.99 139.807 303.258 135.721 303.085C131.634 302.912 128.219 303.339 127.589 304.101Z" fill="#FAC600"/>
<path d="M129.215 303.248C129.154 304.549 133.281 305.789 138.445 306.002C143.608 306.216 147.817 305.341 147.867 304.04C147.918 302.739 143.802 301.499 138.638 301.276C133.474 301.052 129.266 301.896 129.215 303.248Z" fill="#FAC600"/>
<path d="M129.297 300.854L129.197 303.22L147.853 304.012L147.953 301.645L129.297 300.854Z" fill="#FAC600"/>
<path d="M129.317 300.879C129.256 302.19 133.383 303.42 138.537 303.644C143.69 303.868 147.909 302.983 147.97 301.672C148.031 300.361 143.904 299.131 138.74 298.917C133.576 298.704 129.368 299.578 129.317 300.879Z" fill="#FAC600"/>
<path opacity="0.4" d="M129.317 300.879C129.256 302.19 133.383 303.42 138.537 303.644C143.69 303.868 147.909 302.983 147.97 301.672C148.031 300.361 143.904 299.131 138.74 298.917C133.576 298.704 129.368 299.578 129.317 300.879Z" fill="white"/>
<path d="M130.506 300.879C130.502 300.922 130.507 300.965 130.521 301.005C130.535 301.045 130.558 301.082 130.588 301.113C131.208 300.351 134.654 299.893 138.72 300.096C142.785 300.3 146.17 301.011 146.719 301.824C146.776 301.763 146.808 301.684 146.811 301.601C146.811 300.716 143.243 299.832 138.74 299.639C134.237 299.446 130.537 299.954 130.506 300.879Z" fill="#FAC600"/>
<path opacity="0.4" d="M130.506 300.879C130.502 300.922 130.507 300.965 130.521 301.005C130.535 301.045 130.558 301.082 130.588 301.113C131.208 300.351 134.654 299.893 138.72 300.096C142.785 300.3 146.17 301.011 146.719 301.824C146.776 301.763 146.808 301.684 146.811 301.601C146.811 300.716 143.243 299.832 138.74 299.639C134.237 299.446 130.537 299.954 130.506 300.879Z" fill="#FAC600"/>
<path opacity="0.4" d="M130.587 301.072C131.136 301.885 134.501 302.627 138.577 302.8C142.653 302.973 146.068 302.526 146.709 301.784C146.16 300.971 142.795 300.229 138.709 300.056C134.623 299.883 131.207 300.31 130.587 301.072Z" fill="#FAC600"/>
<path d="M116.062 317.529C116.377 318.8 120.697 318.81 125.698 317.529C130.699 316.248 134.491 314.236 134.175 312.965C133.86 311.695 129.55 311.684 124.549 312.965C119.548 314.246 115.747 316.269 116.062 317.529Z" fill="#FAC600"/>
<path d="M133.605 310.697L115.492 315.233L116.067 317.53L134.18 312.994L133.605 310.697Z" fill="#FAC600"/>
<path d="M115.493 315.242C115.808 316.502 120.118 316.523 125.119 315.242C130.12 313.961 133.921 311.949 133.596 310.688C133.271 309.428 128.971 309.407 123.97 310.688C118.969 311.969 115.167 313.971 115.493 315.242Z" fill="#FAC600"/>
<path opacity="0.4" d="M115.493 315.242C115.808 316.502 120.118 316.523 125.119 315.242C130.12 313.961 133.921 311.949 133.596 310.688C133.271 309.428 128.971 309.407 123.97 310.688C118.969 311.969 115.167 313.971 115.493 315.242Z" fill="white"/>
<path d="M116.621 314.866C116.643 314.946 116.694 315.014 116.763 315.059C117.139 314.154 120.28 312.752 124.245 311.756C128.209 310.759 131.635 310.515 132.377 311.146C132.407 311.067 132.407 310.98 132.377 310.902C132.163 310.048 128.443 310.221 124.082 311.318C119.721 312.416 116.408 314.002 116.621 314.866Z" fill="#FAC600"/>
<path opacity="0.4" d="M116.621 314.866C116.643 314.946 116.694 315.014 116.763 315.059C117.139 314.154 120.28 312.752 124.245 311.756C128.209 310.759 131.635 310.515 132.377 311.146C132.407 311.067 132.407 310.98 132.377 310.902C132.163 310.048 128.443 310.221 124.082 311.318C119.721 312.416 116.408 314.002 116.621 314.866Z" fill="#FAC600"/>
<path opacity="0.4" d="M116.763 315.11C117.526 315.74 120.961 315.496 124.895 314.5C128.829 313.504 132.01 312.111 132.376 311.196C131.614 310.566 128.188 310.82 124.245 311.806C120.301 312.792 117.139 314.154 116.763 315.11Z" fill="#FAC600"/>
<path d="M107.412 317.743C107.412 319.044 111.478 320.284 116.641 320.497C121.805 320.711 126.013 319.837 126.064 318.535C126.115 317.234 121.998 315.994 116.845 315.771C111.691 315.547 107.473 316.431 107.412 317.743Z" fill="#FAC600"/>
<path d="M107.502 315.354L107.401 317.72L126.057 318.512L126.158 316.146L107.502 315.354Z" fill="#FAC600"/>
<path d="M107.513 315.374C107.462 316.685 111.579 317.915 116.743 318.139C121.907 318.363 126.115 317.478 126.166 316.167C126.216 314.856 122.1 313.626 116.946 313.412C111.793 313.199 107.574 314.093 107.513 315.374Z" fill="#FAC600"/>
<path opacity="0.4" d="M107.513 315.374C107.462 316.685 111.579 317.915 116.743 318.139C121.907 318.363 126.115 317.478 126.166 316.167C126.216 314.856 122.1 313.626 116.946 313.412C111.793 313.199 107.574 314.093 107.513 315.374Z" fill="white"/>
<path d="M108.703 315.334C108.703 315.418 108.732 315.5 108.784 315.567C109.404 314.805 112.85 314.348 116.916 314.551C120.982 314.754 124.356 315.466 124.905 316.289C124.963 316.224 124.999 316.142 125.007 316.055C125.007 315.171 121.429 314.287 116.936 314.104C112.443 313.921 108.764 314.449 108.703 315.334Z" fill="#FAC600"/>
<path opacity="0.4" d="M108.703 315.334C108.703 315.418 108.732 315.5 108.784 315.567C109.404 314.805 112.85 314.348 116.916 314.551C120.982 314.754 124.356 315.466 124.905 316.289C124.963 316.224 124.999 316.142 125.007 316.055C125.007 315.171 121.429 314.287 116.936 314.104C112.443 313.921 108.764 314.449 108.703 315.334Z" fill="#FAC600"/>
<path opacity="0.4" d="M108.764 315.567C109.323 316.391 112.677 317.123 116.753 317.295C120.829 317.468 124.255 317.021 124.885 316.279C124.336 315.456 120.982 314.724 116.896 314.541C112.809 314.358 109.404 314.805 108.764 315.567Z" fill="#FAC600"/>
<path d="M203.764 317.631C203.703 318.973 207.952 320.243 213.248 320.467C218.544 320.69 222.884 319.786 222.945 318.434C223.006 317.082 218.747 315.832 213.451 315.598C208.156 315.364 203.815 316.289 203.764 317.631Z" fill="#FAC600"/>
<path d="M203.846 315.17L203.743 317.598L222.927 318.412L223.03 315.985L203.846 315.17Z" fill="#FAC600"/>
<path d="M203.866 315.201C203.805 316.543 208.054 317.814 213.35 318.037C218.646 318.261 222.986 317.356 223.047 316.004C223.108 314.652 218.859 313.402 213.553 313.168C208.247 312.935 203.917 313.86 203.866 315.201Z" fill="#FAC600"/>
<path opacity="0.4" d="M203.866 315.201C203.805 316.543 208.054 317.814 213.35 318.037C218.646 318.261 222.986 317.356 223.047 316.004C223.108 314.652 218.859 313.402 213.553 313.168C208.247 312.935 203.917 313.86 203.866 315.201Z" fill="white"/>
<path d="M205.085 315.161C205.087 315.248 205.116 315.333 205.167 315.405C205.807 314.612 209.314 314.154 213.512 314.327C217.71 314.5 221.166 315.262 221.725 316.106C221.788 316.044 221.824 315.96 221.827 315.872C221.827 314.968 218.157 314.053 213.532 313.839C208.907 313.626 205.126 314.256 205.085 315.161Z" fill="#FAC600"/>
<path opacity="0.4" d="M205.085 315.161C205.087 315.248 205.116 315.333 205.167 315.405C205.807 314.612 209.314 314.154 213.512 314.327C217.71 314.5 221.166 315.262 221.725 316.106C221.788 316.044 221.824 315.96 221.827 315.872C221.827 314.968 218.157 314.053 213.532 313.839C208.907 313.626 205.126 314.256 205.085 315.161Z" fill="#FAC600"/>
<path opacity="0.4" d="M205.167 315.405C205.746 316.238 209.233 317.001 213.39 317.184C217.548 317.367 221.095 316.899 221.726 316.106C221.166 315.262 217.71 314.51 213.512 314.327C209.314 314.144 205.807 314.612 205.167 315.405Z" fill="#FAC600"/>
<path d="M201.741 313.951C201.69 315.293 205.939 316.563 211.235 316.797C216.531 317.031 220.871 316.116 220.922 314.764C220.973 313.412 216.734 312.152 211.438 311.918C206.143 311.684 201.802 312.609 201.741 313.951Z" fill="#FAC600"/>
<path d="M201.842 311.516L201.739 313.943L220.923 314.757L221.026 312.33L201.842 311.516Z" fill="#FAC600"/>
<path d="M201.853 311.522C201.792 312.863 206.041 314.134 211.337 314.368C216.633 314.602 220.973 313.687 221.034 312.335C221.095 310.983 216.836 309.723 211.54 309.489C206.244 309.255 201.904 310.18 201.853 311.522Z" fill="#FAC600"/>
<path opacity="0.4" d="M201.853 311.522C201.792 312.863 206.041 314.134 211.337 314.368C216.633 314.602 220.973 313.687 221.034 312.335C221.095 310.983 216.836 309.723 211.54 309.489C206.244 309.255 201.904 310.18 201.853 311.522Z" fill="white"/>
<path d="M203.073 311.481C203.075 311.569 203.103 311.654 203.154 311.725C203.794 310.932 207.301 310.475 211.489 310.648C215.677 310.82 219.154 311.583 219.713 312.426C219.771 312.361 219.806 312.279 219.814 312.193C219.814 311.288 216.135 310.373 211.51 310.16C206.885 309.946 203.113 310.576 203.073 311.481Z" fill="#FAC600"/>
<path opacity="0.4" d="M203.073 311.481C203.075 311.569 203.103 311.654 203.154 311.725C203.794 310.932 207.301 310.475 211.489 310.648C215.677 310.82 219.154 311.583 219.713 312.426C219.771 312.361 219.806 312.279 219.814 312.193C219.814 311.288 216.135 310.373 211.51 310.16C206.885 309.946 203.113 310.576 203.073 311.481Z" fill="#FAC600"/>
<path opacity="0.4" d="M203.154 311.725C203.724 312.559 207.22 313.321 211.367 313.504C215.515 313.687 219.083 313.219 219.713 312.426C219.154 311.583 215.698 310.83 211.489 310.648C207.281 310.465 203.795 310.932 203.154 311.725Z" fill="#FAC600"/>
<path d="M206.071 311.237C206.01 312.569 210.259 313.839 215.555 314.073C220.851 314.307 225.191 313.392 225.252 312.04C225.313 310.688 221.054 309.428 215.759 309.204C210.463 308.98 206.122 309.895 206.071 311.237Z" fill="#FAC600"/>
<path d="M206.155 308.782L206.052 311.209L225.236 312.023L225.339 309.596L206.155 308.782Z" fill="#FAC600"/>
<path d="M206.173 308.798C206.112 310.139 210.361 311.41 215.657 311.644C220.953 311.877 225.293 310.963 225.354 309.611C225.415 308.259 221.156 306.998 215.86 306.775C210.564 306.551 206.224 307.466 206.173 308.798Z" fill="#FAC600"/>
<path opacity="0.4" d="M206.173 308.798C206.112 310.139 210.361 311.41 215.657 311.644C220.953 311.877 225.293 310.963 225.354 309.611C225.415 308.259 221.156 306.998 215.86 306.775C210.564 306.551 206.224 307.466 206.173 308.798Z" fill="white"/>
<path d="M207.362 308.757C207.364 308.844 207.393 308.929 207.444 309.001C208.084 308.208 211.591 307.751 215.779 307.923C219.967 308.096 223.443 308.859 224.002 309.702C224.06 309.637 224.096 309.555 224.104 309.468C224.104 308.564 220.424 307.649 215.799 307.435C211.174 307.222 207.433 307.852 207.362 308.757Z" fill="#FAC600"/>
<path opacity="0.4" d="M207.362 308.757C207.364 308.844 207.393 308.929 207.444 309.001C208.084 308.208 211.591 307.751 215.779 307.923C219.967 308.096 223.443 308.859 224.002 309.702C224.06 309.637 224.096 309.555 224.104 309.468C224.104 308.564 220.424 307.649 215.799 307.435C211.174 307.222 207.433 307.852 207.362 308.757Z" fill="#FAC600"/>
<path opacity="0.4" d="M207.474 309.011C208.043 309.855 211.54 310.607 215.687 310.79C219.835 310.973 223.402 310.505 224.033 309.712C223.474 308.869 220.018 308.117 215.809 307.934C211.601 307.751 208.115 308.208 207.474 309.011Z" fill="#FAC600"/>
<path d="M206.122 307.557C206.061 308.899 210.31 310.17 215.606 310.393C220.902 310.617 225.242 309.712 225.303 308.36C225.364 307.009 221.105 305.748 215.809 305.524C210.513 305.301 206.173 306.216 206.122 307.557Z" fill="#FAC600"/>
<path d="M205.856 303.871L205.759 306.3L224.961 307.068L225.058 304.639L205.856 303.871Z" fill="#FAC600"/>
<path d="M206.224 305.128C206.163 306.47 210.412 307.74 215.708 307.964C221.004 308.188 225.344 307.283 225.405 305.931C225.466 304.579 221.207 303.319 215.911 303.095C210.615 302.871 206.275 303.786 206.224 305.128Z" fill="#FAC600"/>
<path opacity="0.4" d="M206.224 305.128C206.163 306.47 210.412 307.74 215.708 307.964C221.004 308.188 225.344 307.283 225.405 305.931C225.466 304.579 221.207 303.319 215.911 303.095C210.615 302.871 206.275 303.786 206.224 305.128Z" fill="white"/>
<path d="M207.444 305.087C207.446 305.172 207.474 305.254 207.525 305.321C208.166 304.528 211.672 304.071 215.86 304.244C220.048 304.416 223.525 305.189 224.084 306.022C224.146 305.96 224.182 305.877 224.185 305.789C224.185 304.884 220.516 303.969 215.881 303.756C211.246 303.542 207.485 304.173 207.444 305.087Z" fill="#FAC600"/>
<path opacity="0.4" d="M207.444 305.087C207.446 305.172 207.474 305.254 207.525 305.321C208.166 304.528 211.672 304.071 215.86 304.244C220.048 304.416 223.525 305.189 224.084 306.022C224.146 305.96 224.182 305.877 224.185 305.789C224.185 304.884 220.516 303.969 215.881 303.756C211.246 303.542 207.485 304.173 207.444 305.087Z" fill="#FAC600"/>
<path opacity="0.4" d="M207.525 305.321C208.094 306.165 211.591 306.917 215.748 307.1C219.906 307.283 223.453 306.815 224.083 306.023C223.524 305.189 220.068 304.427 215.86 304.244C211.652 304.061 208.165 304.528 207.525 305.321Z" fill="#FAC600"/>
<path d="M202.178 304.549C202.117 305.89 206.366 307.161 211.662 307.385C216.958 307.608 221.298 306.704 221.359 305.352C221.42 304 217.172 302.739 211.876 302.516C206.58 302.292 202.28 303.207 202.178 304.549Z" fill="#FAC600"/>
<path d="M202.294 302.143L202.19 304.57L221.374 305.387L221.478 302.96L202.294 302.143Z" fill="#FAC600"/>
<path d="M202.28 302.119C202.219 303.461 206.468 304.732 211.764 304.955C217.06 305.179 221.4 304.274 221.461 302.922C221.522 301.57 217.273 300.31 211.977 300.086C206.681 299.863 202.341 300.777 202.28 302.119Z" fill="#FAC600"/>
<path opacity="0.4" d="M202.28 302.119C202.219 303.461 206.468 304.732 211.764 304.955C217.06 305.179 221.4 304.274 221.461 302.922C221.522 301.57 217.273 300.31 211.977 300.086C206.681 299.863 202.341 300.777 202.28 302.119Z" fill="white"/>
<path d="M203.5 302.079C203.502 302.163 203.531 302.245 203.581 302.312C204.232 301.53 207.739 301.062 211.927 301.245C216.115 301.428 219.581 302.18 220.14 303.014C220.202 302.955 220.238 302.875 220.241 302.79C220.241 301.875 216.572 300.971 211.947 300.757C207.322 300.544 203.541 301.164 203.5 302.079Z" fill="#FAC600"/>
<path opacity="0.4" d="M203.5 302.079C203.502 302.163 203.531 302.245 203.581 302.312C204.232 301.53 207.739 301.062 211.927 301.245C216.115 301.428 219.581 302.18 220.14 303.014C220.202 302.955 220.238 302.875 220.241 302.79C220.241 301.875 216.572 300.971 211.947 300.757C207.322 300.544 203.541 301.164 203.5 302.079Z" fill="#FAC600"/>
<path opacity="0.4" d="M203.581 302.312C204.16 303.156 207.647 303.918 211.804 304.091C215.962 304.264 219.509 303.807 220.14 303.014C219.581 302.18 216.124 301.418 211.926 301.245C207.728 301.072 204.232 301.53 203.581 302.312Z" fill="#FAC600"/>
<path d="M226.94 311.867C226.381 313.057 229.715 315.791 234.381 317.966C239.046 320.141 243.285 321.016 243.834 319.796C244.383 318.576 241.059 315.882 236.393 313.697C231.728 311.512 227.489 310.688 226.94 311.867Z" fill="#FAC600"/>
<path d="M227.95 309.762L226.942 311.906L243.842 319.847L244.85 317.704L227.95 309.762Z" fill="#FAC600"/>
<path d="M227.946 309.733C227.387 310.912 230.721 313.646 235.387 315.832C240.053 318.017 244.292 318.881 244.84 317.661C245.389 316.442 242.065 313.738 237.4 311.562C232.734 309.387 228.495 308.543 227.946 309.733Z" fill="#FAC600"/>
<path opacity="0.4" d="M227.946 309.733C227.387 310.912 230.721 313.646 235.387 315.832C240.053 318.017 244.292 318.881 244.84 317.661C245.389 316.442 242.065 313.738 237.4 311.562C232.734 309.387 228.495 308.543 227.946 309.733Z" fill="white"/>
<path d="M229.054 310.149C229.024 310.228 229.024 310.315 229.054 310.393C229.918 309.936 233.242 310.83 236.932 312.569C240.622 314.307 243.448 316.289 243.641 317.255C243.717 317.219 243.778 317.158 243.814 317.082C244.19 316.279 241.201 314.032 237.125 312.152C233.049 310.271 229.43 309.357 229.054 310.149Z" fill="#FAC600"/>
<path opacity="0.4" d="M229.054 310.149C229.024 310.228 229.024 310.315 229.054 310.393C229.918 309.936 233.242 310.83 236.932 312.569C240.622 314.307 243.448 316.289 243.641 317.255C243.717 317.219 243.778 317.158 243.814 317.082C244.19 316.279 241.201 314.032 237.125 312.152C233.049 310.271 229.43 309.357 229.054 310.149Z" fill="#FAC600"/>
<path opacity="0.4" d="M229.044 310.393C229.237 311.41 232.093 313.341 235.743 315.079C239.392 316.818 242.766 317.722 243.63 317.255C243.437 316.289 240.581 314.307 236.922 312.569C233.262 310.831 229.908 309.936 229.044 310.393Z" fill="#FAC600"/>
<path d="M217.131 316.065C217.08 317.366 221.197 318.596 226.361 318.82C231.524 319.044 235.732 318.159 235.793 316.858C235.854 315.557 231.728 314.317 226.564 314.093C221.4 313.87 217.192 314.754 217.131 316.065Z" fill="#FAC600"/>
<path d="M217.22 313.664L217.119 316.03L235.775 316.822L235.876 314.455L217.22 313.664Z" fill="#FAC600"/>
<path d="M217.232 313.697C217.232 314.998 221.298 316.238 226.462 316.462C231.626 316.685 235.834 315.791 235.885 314.49C235.936 313.189 231.819 311.949 226.665 311.735C221.512 311.522 217.293 312.396 217.232 313.697Z" fill="#FAC600"/>
<path opacity="0.4" d="M217.232 313.697C217.232 314.998 221.298 316.238 226.462 316.462C231.626 316.685 235.834 315.791 235.885 314.49C235.936 313.189 231.819 311.949 226.665 311.735C221.512 311.522 217.293 312.396 217.232 313.697Z" fill="white"/>
<path d="M218.422 313.656C218.423 313.741 218.451 313.823 218.503 313.89C219.133 313.118 222.569 312.67 226.635 312.874C230.701 313.077 234.086 313.788 234.625 314.602C234.686 314.543 234.723 314.463 234.726 314.378C234.726 313.494 231.148 312.609 226.655 312.416C222.163 312.223 218.463 312.772 218.422 313.656Z" fill="#FAC600"/>
<path opacity="0.4" d="M218.422 313.656C218.423 313.741 218.451 313.823 218.503 313.89C219.133 313.118 222.569 312.67 226.635 312.874C230.701 313.077 234.086 313.788 234.625 314.602C234.686 314.543 234.723 314.463 234.726 314.378C234.726 313.494 231.148 312.609 226.655 312.416C222.163 312.223 218.463 312.772 218.422 313.656Z" fill="#FAC600"/>
<path opacity="0.4" d="M218.544 313.89C219.103 314.703 222.457 315.445 226.533 315.618C230.61 315.791 234.035 315.344 234.665 314.602C234.127 313.788 230.762 313.046 226.676 312.874C222.59 312.701 219.134 313.077 218.544 313.89Z" fill="#FAC600"/>
<path d="M166.703 59.3728C166.967 60.6333 167.222 61.7311 167.516 62.8797C167.811 64.0283 168.126 65.1058 168.462 66.2646C169.122 68.4907 169.885 70.7066 170.728 72.953C172.415 77.6192 174.723 82.0367 177.59 86.086C178.434 87.2169 179.373 88.2744 180.395 89.2473C181.542 90.3471 182.848 91.2688 184.268 91.9816C186.993 93.3067 190.018 93.8921 193.04 93.6791C195.686 93.4964 198.285 92.8853 200.735 91.8698C201.889 91.3986 203.016 90.8624 204.11 90.2637C204.657 89.9543 205.186 89.6149 205.695 89.2473C206.204 88.8712 206.712 88.5561 207.281 88.1393L204.567 83.3517L203.144 83.7277L201.65 84.0835C200.633 84.3072 199.617 84.5003 198.6 84.6324C196.767 84.9135 194.904 84.9511 193.061 84.7442C191.584 84.5943 190.167 84.0847 188.934 83.2602C188.402 82.8784 187.911 82.4424 187.47 81.9591C186.93 81.3154 186.434 80.6362 185.986 79.9261C184.954 78.3062 184.054 76.6066 183.292 74.8437C182.459 73.0039 181.727 71.0624 181.036 69.0701C180.344 67.0778 179.724 65.0041 179.104 62.9712L178.23 59.9217C177.956 58.9052 177.651 57.8278 177.437 56.9434L166.703 59.3728Z" fill="#FFAB9F"/>
<path d="M165.778 53.2129C170.393 47.3478 177.387 49.4926 181.32 58.8239C183.494 63.7871 185.222 68.9339 186.484 74.2033L170.078 79.9668C165.768 71.1539 161.041 59.2204 165.778 53.2129Z" fill="#36C27F"/>
<path opacity="0.1" d="M165.778 53.2129C170.393 47.3478 177.387 49.4926 181.32 58.8239C183.494 63.7871 185.222 68.9339 186.484 74.2033L170.078 79.9668C165.768 71.1539 161.041 59.2204 165.778 53.2129Z" fill="black"/>
<path opacity="0.3" d="M172.629 63.022C171.287 62.1072 168.512 67.4437 167.231 73.7256C168.136 75.9212 169.102 78.0253 170.067 79.9769L179.937 76.5107C178.321 70.605 175.668 65.055 172.629 63.022Z" fill="black"/>
<path d="M205.401 80.9426L208.989 78.9808L210.249 86.9907C210.249 86.9907 204.252 90.6094 202.534 87.6209L202.717 85.5879C202.813 84.6687 203.102 83.78 203.565 82.9797C204.027 82.1793 204.652 81.4853 205.401 80.9426Z" fill="#FFAB9F"/>
<path d="M213.492 78.5844L216.633 85.0289L210.219 87.0008L208.958 78.9808L213.492 78.5844Z" fill="#FFAB9F"/>
<path d="M165.686 47.9679L157.311 46.7582L146.851 47.6731C145.263 47.8116 143.765 48.4674 142.586 49.5398C141.407 50.6122 140.613 52.0419 140.325 53.6093C139.153 61.2466 138.457 68.9495 138.241 76.6733C137.875 85.3643 138.841 98.1923 140.274 109.78L175.221 105.552C175.557 75.0571 177.864 65.614 178.149 57.533C178.205 55.9451 177.738 54.3825 176.82 53.0859C175.902 51.7892 174.583 50.8302 173.066 50.3566L165.686 47.9679Z" fill="#36C27F"/>
<path d="M176.278 199.18L183.719 201.243L190.377 183.77L182.957 181.717L176.278 199.18Z" fill="#FFAB9F"/>
<path d="M187.033 198.926C186.444 198.162 185.593 197.643 184.644 197.472L176.99 195.988C176.819 195.949 176.64 195.976 176.487 196.062C176.335 196.149 176.22 196.289 176.166 196.456L173.818 203.439C173.687 203.822 173.712 204.241 173.887 204.606C174.062 204.971 174.373 205.253 174.753 205.391H174.835C177.661 206.509 179.572 206.123 183.983 206.976C186.697 207.505 192.41 209.314 196.181 209.162C199.952 209.009 199.993 205.228 198.387 204.943C192.694 204.059 188.334 200.644 187.033 198.926Z" fill="#263238"/>
<g opacity="0.2">
<path opacity="0.2" d="M190.377 183.78L186.829 193.071L179.511 190.723L182.946 181.717L190.377 183.78Z" fill="black"/>
</g>
<path d="M208.928 132.255C208.649 135.022 208.146 137.762 207.423 140.448C205.462 148.031 202.107 155.756 199.292 163.288C193.843 178.169 189.066 191.099 189.066 191.099L178.901 187.582C178.901 187.582 188.049 144.524 194.219 140.122H156.386C155.679 140.123 154.972 140.075 154.271 139.98C160.787 139.136 170.942 135.121 180.365 131.106C188.69 127.548 196.476 123.991 200.694 122.649C205.858 124.855 209.324 127.914 208.928 132.255Z" fill="#263238"/>
<path opacity="0.1" d="M208.928 132.255C208.649 135.022 208.146 137.762 207.423 140.448C205.462 148.031 202.107 155.756 199.292 163.288C193.843 178.169 189.066 191.099 189.066 191.099L178.901 187.582C178.901 187.582 188.049 144.524 194.219 140.122H156.386C155.679 140.123 154.972 140.075 154.271 139.98C160.787 139.136 170.942 135.121 180.365 131.106C188.69 127.548 196.476 123.991 200.694 122.649C205.858 124.855 209.324 127.914 208.928 132.255Z" fill="black"/>
<path opacity="0.6" d="M200.705 122.69C196.476 124.062 188.69 127.589 180.375 131.147C170.952 135.162 160.797 139.177 154.282 140.021C143.304 138.557 139.177 125.475 150.653 110.39C158.104 110.39 165.595 117.506 165.595 117.506C165.595 117.506 188.121 117.394 200.705 122.69Z" fill="black"/>
<path d="M228.089 184.167H236.403L227.692 163.288L222.041 172.873L228.089 184.167Z" fill="#FFAB9F"/>
<path d="M235.722 182.195L225.954 179.968C225.788 179.923 225.612 179.944 225.46 180.025C225.309 180.106 225.195 180.242 225.141 180.406L222.417 187.917C222.306 188.299 222.351 188.708 222.542 189.057C222.732 189.405 223.053 189.664 223.433 189.778H223.484C226.91 190.499 228.566 190.672 232.886 191.638C235.529 192.248 242.218 193.996 245.867 194.829C249.516 195.663 250.472 192.085 249.018 191.404C242.513 188.354 238.975 185.508 237.085 183.048C236.746 182.612 236.263 182.309 235.722 182.195Z" fill="#263238"/>
<g opacity="0.2">
<path opacity="0.2" d="M227.692 163.288L231.402 172.182L223.911 176.36L222.041 172.873L227.692 163.288Z" fill="black"/>
</g>
<path d="M231.514 169.021L222.366 174.561C222.366 174.561 214.732 158.531 207.434 140.448C208.156 137.762 208.659 135.022 208.938 132.255C209.335 127.914 205.889 124.855 200.725 122.7C196.496 124.072 188.71 127.599 180.395 131.157C170.973 135.172 160.818 139.187 154.302 140.031C153.554 140.131 152.8 140.186 152.046 140.193C139.523 140.193 135.202 129.215 140.254 110.593C147.705 110.593 160.462 109.79 160.462 109.79C160.462 109.79 185.081 103.874 202.799 105.887C207.003 106.383 210.941 108.2 214.047 111.077C217.152 113.954 219.264 117.742 220.079 121.897C224.643 144.503 231.514 169.021 231.514 169.021Z" fill="#263238"/>
<path d="M231.514 169.021L222.366 174.561C222.366 174.561 214.732 158.531 207.434 140.448C208.156 137.762 208.659 135.022 208.938 132.255C209.335 127.914 205.889 124.855 200.725 122.7C196.496 124.072 188.71 127.599 180.395 131.157C170.973 135.172 160.818 139.187 154.302 140.031C153.554 140.131 152.8 140.186 152.046 140.193C139.523 140.193 135.202 129.215 140.254 110.593C147.705 110.593 160.462 109.79 160.462 109.79C160.462 109.79 185.081 103.874 202.799 105.887C207.003 106.383 210.941 108.2 214.047 111.077C217.152 113.954 219.264 117.742 220.079 121.897C224.643 144.503 231.514 169.021 231.514 169.021Z" fill="#263238"/>
<path d="M165.686 47.9679L157.311 46.7582L146.851 47.6731C145.263 47.8116 143.765 48.4674 142.586 49.5398C141.407 50.6122 140.613 52.0419 140.325 53.6093C139.153 61.2466 138.457 68.9495 138.241 76.6733C137.875 85.3643 138.841 98.1923 140.274 109.78L175.221 105.552C175.557 75.0571 177.864 65.614 178.149 57.533C178.205 55.9451 177.738 54.3825 176.82 53.0859C175.902 51.7892 174.583 50.8302 173.066 50.3566L165.686 47.9679Z" fill="#36C27F"/>
<path d="M140.193 107.849L139.289 110.685C139.177 110.898 139.421 111.132 139.797 111.142L174.682 109.059C174.967 109.059 175.211 108.926 175.231 108.743L175.607 105.897C175.607 105.694 175.384 105.521 175.079 105.511L140.752 107.615C140.647 107.601 140.539 107.615 140.441 107.656C140.343 107.697 140.257 107.764 140.193 107.849Z" fill="#263238"/>
<path opacity="0.1" d="M140.193 107.849L139.289 110.685C139.177 110.898 139.421 111.132 139.797 111.142L174.682 109.059C174.967 109.059 175.211 108.926 175.231 108.743L175.607 105.897C175.607 105.694 175.384 105.521 175.079 105.511L140.752 107.615C140.647 107.601 140.539 107.615 140.441 107.656C140.343 107.697 140.257 107.764 140.193 107.849Z" fill="black"/>
<path opacity="0.3" d="M143.73 50.7632C150.693 49.5434 150.348 65.3701 147.176 76.9478C146.261 80.3022 142.297 78.8994 140.955 78.0253C136.554 75.2198 135.07 55.8253 143.73 50.7632Z" fill="black"/>
<path d="M142.887 74.2033C143.151 81.0443 140.976 84.6324 144.625 86.9195C148.274 89.2066 169.834 96.3525 170.362 95.458C169.346 97.1047 168.329 98.5075 167.313 100.174C161.099 99.2393 154.881 98.3753 148.66 97.5824C144.117 97.0132 136.788 95.8443 133.23 92.9574C129.998 90.3552 130.577 78.93 131.126 70.6965C133.982 68.9989 142.887 74.2033 142.887 74.2033Z" fill="#FFAB9F"/>
<path d="M141.027 47.978C148.142 45.8739 150.897 51.6069 148.721 61.4566C147.625 66.7687 146.05 71.9706 144.015 76.9986L129.032 72.272C130.659 62.6052 133.688 50.133 141.027 47.978Z" fill="#36C27F"/>
<path d="M151.456 47.9272C151.266 49.4462 151.654 50.981 152.543 52.2269C153.419 53.4565 154.443 54.5729 155.593 55.5508C157.006 56.8418 158.693 58.2344 160.604 57.9802C162.363 57.7464 163.369 56.8621 164.081 54.7682C165.585 57.1975 165.656 58.4072 167.313 58.5596C167.85 58.5308 168.374 58.3859 168.85 58.135C169.325 57.8841 169.741 57.533 170.068 57.1061C170.678 56.6037 171.183 55.9861 171.555 55.2885C171.926 54.5908 172.157 53.8268 172.233 53.0401C172.629 49.9907 170.139 47.1242 167.232 46.0366C164.272 45.0457 161.197 44.4377 158.083 44.2272C155.369 43.9426 151.954 44.7863 151.456 47.9272Z" fill="#36C27F"/>
<path opacity="0.3" d="M151.456 47.9272C151.266 49.4462 151.654 50.981 152.543 52.2269C153.419 53.4565 154.443 54.5729 155.593 55.5508C157.006 56.8418 158.693 58.2344 160.604 57.9802C162.363 57.7464 163.369 56.8621 164.081 54.7682C165.585 57.1975 165.656 58.4072 167.313 58.5596C167.85 58.5308 168.374 58.3859 168.85 58.135C169.325 57.8841 169.741 57.533 170.068 57.1061C170.678 56.6037 171.183 55.9861 171.555 55.2885C171.926 54.5908 172.157 53.8268 172.233 53.0401C172.629 49.9907 170.139 47.1242 167.232 46.0366C164.272 45.0457 161.197 44.4377 158.083 44.2272C155.369 43.9426 151.954 44.7863 151.456 47.9272Z" fill="black"/>
<path d="M158.734 33.178L162.525 37.5591L167.679 43.5157C167.218 44.1547 166.873 44.8706 166.662 45.63C166.312 46.4358 166.264 47.3411 166.527 48.1796C166.79 49.018 167.347 49.7333 168.096 50.194C168.878 50.5599 169.285 54.6767 164.101 54.2599C162.623 54.2344 161.166 53.9044 159.821 53.2906C158.476 52.6767 157.272 51.7921 156.284 50.692C155.339 49.4214 155.085 48.7404 156.061 47.3478C158.825 43.414 159.049 37.7116 158.734 33.178Z" fill="#FFAB9F"/>
<path opacity="0.2" d="M166.439 42.0418L163.186 37.7421C163.186 37.864 163.105 38.0063 163.064 38.1487C162.905 38.7553 162.796 39.3741 162.739 39.9987C162.546 42.1333 164.548 44.8676 166.5 46.0366L166.652 45.6096C166.893 44.8873 167.236 44.2028 167.669 43.5767C167.694 43.5413 167.725 43.5103 167.76 43.4852L166.439 42.0418Z" fill="black"/>
<path d="M159.089 25.1173C158.5 32.1819 157.849 36.2986 160.878 40.3036C165.463 46.4025 174.591 44.2272 177.254 37.4371C179.653 31.3382 180.151 20.7973 173.666 17.1074C171.382 15.8466 168.691 15.5441 166.185 16.2666C163.678 16.989 161.561 18.6771 160.299 20.9599C159.588 22.2371 159.175 23.6582 159.089 25.1173Z" fill="#FFAB9F"/>
<path d="M158.053 31.3687L161.102 32.68C162.119 32.253 162.352 31.0231 162.281 29.905C161.976 25.5951 169.752 20.3297 169.752 20.3297C169.752 20.3297 161.529 17.6259 159.059 17.2193C158.195 17.077 155.085 19.3335 154.607 20.2687C153.968 21.6409 153.724 23.1643 153.904 24.6674C154.083 26.1706 154.679 27.5937 155.623 28.7767C156.347 29.7174 157.161 30.5856 158.053 31.3687Z" fill="#263238"/>
<path d="M155.451 30.0981C155.602 31.6757 156.325 33.1435 157.484 34.225C158.988 35.6074 160.828 34.1031 161.051 32.0904C161.234 30.3014 160.33 27.689 158.5 27.0893C156.67 26.4896 155.278 28.1261 155.451 30.0981Z" fill="#FFAB9F"/>
<path d="M169.691 29.3561C169.58 29.9355 169.793 30.4742 170.169 30.5555C170.545 30.6368 170.901 30.2404 171.053 29.661C171.206 29.0816 170.942 28.5429 170.566 28.4616C170.189 28.3802 169.752 28.7665 169.691 29.3561Z" fill="#263238"/>
<path d="M176.207 30.7893C176.096 31.3789 176.309 31.9176 176.695 31.9989C177.082 32.0802 177.458 31.6736 177.569 31.1044C177.681 30.5352 177.458 29.9863 177.082 29.905C176.705 29.8236 176.319 30.2099 176.207 30.7893Z" fill="#263238"/>
<path d="M174.032 30.7588C174.236 32.4182 174.652 34.0444 175.272 35.5973C174.878 35.7391 174.458 35.7918 174.041 35.7513C173.624 35.7109 173.222 35.5784 172.863 35.3635L174.032 30.7588Z" fill="#FF7765"/>
<path d="M171.216 38.6264C170.569 38.4017 169.974 38.0467 169.469 37.5835C168.964 37.1202 168.559 36.5584 168.279 35.9327C168.262 35.8909 168.262 35.844 168.279 35.8022C168.296 35.7604 168.329 35.727 168.37 35.7091C168.415 35.6947 168.463 35.6971 168.506 35.7158C168.549 35.7345 168.584 35.7683 168.604 35.8107C168.917 36.4854 169.382 37.0786 169.962 37.5441C170.542 38.0096 171.222 38.3347 171.948 38.4942C171.971 38.4968 171.993 38.5038 172.013 38.5149C172.033 38.526 172.051 38.5409 172.065 38.5589C172.079 38.5769 172.09 38.5975 172.096 38.6195C172.102 38.6416 172.104 38.6647 172.101 38.6874C172.093 38.7342 172.068 38.7762 172.03 38.8047C171.992 38.8331 171.945 38.8457 171.897 38.8399C171.664 38.7902 171.436 38.7187 171.216 38.6264Z" fill="#263238"/>
<path d="M168.797 27.0181C168.74 27.0065 168.689 26.9739 168.655 26.9267C168.59 26.8619 168.554 26.7742 168.554 26.6827C168.554 26.5913 168.59 26.5035 168.655 26.4387C169.062 26.0727 169.554 25.8133 170.086 25.6838C170.618 25.5543 171.174 25.5588 171.704 25.6967C171.791 25.7227 171.865 25.7821 171.909 25.862C171.953 25.942 171.963 26.036 171.938 26.1236C171.908 26.2096 171.845 26.2803 171.763 26.3203C171.681 26.3603 171.587 26.3663 171.501 26.3371C171.085 26.2416 170.653 26.2462 170.239 26.3505C169.826 26.4548 169.443 26.6557 169.122 26.9368C169.081 26.9796 169.029 27.01 168.971 27.0243C168.914 27.0387 168.853 27.0366 168.797 27.0181Z" fill="#263238"/>
<path d="M176.949 27.0283C176.934 26.9718 176.934 26.9121 176.949 26.8555C176.961 26.8113 176.981 26.7699 177.009 26.7336C177.037 26.6974 177.072 26.667 177.112 26.6443C177.151 26.6217 177.195 26.6071 177.241 26.6014C177.286 26.5958 177.332 26.5992 177.376 26.6115C177.901 26.7367 178.388 26.987 178.795 27.341C179.202 27.695 179.517 28.1422 179.714 28.6445C179.74 28.7335 179.729 28.8289 179.686 28.9105C179.642 28.9921 179.568 29.0535 179.48 29.0816C179.393 29.1068 179.299 29.0964 179.219 29.0526C179.139 29.0088 179.079 28.9352 179.053 28.8478C178.896 28.4485 178.645 28.093 178.321 27.8116C177.998 27.5302 177.61 27.3312 177.193 27.2316C177.139 27.2205 177.088 27.1961 177.046 27.1607C177.003 27.1252 176.97 27.0797 176.949 27.0283Z" fill="#263238"/>
<path d="M179.104 107.117L223.707 107.249C224.485 107.236 225.231 106.94 225.806 106.416C226.38 105.892 226.744 105.176 226.828 104.403L228.861 81.8168C228.9 81.4523 228.861 81.0838 228.747 80.7355C228.633 80.3872 228.446 80.067 228.199 79.7961C227.952 79.5252 227.651 79.3098 227.315 79.164C226.978 79.0182 226.615 78.9453 226.248 78.9503L181.645 78.8181C180.867 78.8334 180.12 79.1318 179.546 79.6575C178.972 80.1833 178.609 80.9003 178.525 81.6745L176.492 104.251C176.453 104.615 176.492 104.984 176.606 105.332C176.72 105.68 176.906 106 177.153 106.271C177.4 106.542 177.702 106.758 178.038 106.903C178.374 107.049 178.738 107.122 179.104 107.117Z" fill="#36C27F"/>
<path opacity="0.3" d="M179.104 107.117L223.707 107.249C224.485 107.236 225.231 106.94 225.806 106.416C226.38 105.892 226.744 105.176 226.828 104.403L228.861 81.8168C228.9 81.4523 228.861 81.0838 228.747 80.7355C228.633 80.3872 228.446 80.067 228.199 79.7961C227.952 79.5252 227.651 79.3098 227.315 79.164C226.978 79.0182 226.615 78.9453 226.248 78.9503L181.645 78.8181C180.867 78.8334 180.12 79.1318 179.546 79.6575C178.972 80.1833 178.609 80.9003 178.525 81.6745L176.492 104.251C176.453 104.615 176.492 104.984 176.606 105.332C176.72 105.68 176.906 106 177.153 106.271C177.4 106.542 177.702 106.758 178.038 106.903C178.374 107.049 178.738 107.122 179.104 107.117Z" fill="black"/>
<path d="M180.415 107.026L225.019 107.158C225.798 107.145 226.545 106.847 227.12 106.321C227.695 105.795 228.057 105.076 228.139 104.301L230.172 81.7253C230.213 81.3614 230.175 80.9931 230.062 80.6448C229.949 80.2964 229.764 79.9761 229.518 79.705C229.272 79.4339 228.971 79.2183 228.635 79.0724C228.299 78.9265 227.936 78.8537 227.57 78.8588L182.967 78.7267C182.189 78.744 181.444 79.0432 180.87 79.5685C180.296 80.0939 179.932 80.8097 179.846 81.583L177.813 104.159C177.773 104.523 177.81 104.891 177.923 105.24C178.036 105.588 178.222 105.908 178.468 106.179C178.714 106.45 179.015 106.666 179.35 106.812C179.686 106.958 180.049 107.031 180.415 107.026Z" fill="#36C27F"/>
<path opacity="0.2" d="M180.415 107.026L225.019 107.158C225.798 107.145 226.545 106.847 227.12 106.321C227.695 105.795 228.057 105.076 228.139 104.301L230.172 81.7253C230.213 81.3614 230.175 80.9931 230.062 80.6448C229.949 80.2964 229.764 79.9761 229.518 79.705C229.272 79.4339 228.971 79.2183 228.635 79.0724C228.299 78.9265 227.936 78.8537 227.57 78.8588L182.967 78.7267C182.189 78.744 181.444 79.0432 180.87 79.5685C180.296 80.0939 179.932 80.8097 179.846 81.583L177.813 104.159C177.773 104.523 177.81 104.891 177.923 105.24C178.036 105.588 178.222 105.908 178.468 106.179C178.714 106.45 179.015 106.666 179.35 106.812C179.686 106.958 180.049 107.031 180.415 107.026Z" fill="white"/>
<path d="M207.129 93.2624C207.065 93.8823 206.819 94.4694 206.422 94.9496C206.025 95.4298 205.494 95.7814 204.897 95.9601C204.3 96.1387 203.664 96.1363 203.068 95.9533C202.472 95.7702 201.944 95.4147 201.551 94.9315C201.157 94.4484 200.916 93.8595 200.857 93.2391C200.798 92.6188 200.924 91.9949 201.22 91.4464C201.516 90.8978 201.967 90.4492 202.518 90.1573C203.068 89.8654 203.693 89.7433 204.313 89.8063C204.725 89.8483 205.124 89.9709 205.489 90.1673C205.853 90.3637 206.175 90.63 206.437 90.9509C206.698 91.2719 206.894 91.6412 207.013 92.0378C207.131 92.4344 207.171 92.8505 207.129 93.2624Z" fill="white"/>
<path d="M225.659 107.127C225.659 108.479 224.856 109.577 223.88 109.577L177.844 109.394C177.346 109.394 176.939 108.845 176.939 108.174C176.939 107.503 177.346 106.934 177.844 106.934L225.659 107.127Z" fill="#36C27F"/>
<path opacity="0.3" d="M225.659 107.127C225.659 108.479 224.856 109.577 223.88 109.577L177.844 109.394C177.346 109.394 176.939 108.845 176.939 108.174C176.939 107.503 177.346 106.934 177.844 106.934L225.659 107.127Z" fill="black"/>
<path d="M177.559 109.404H155.4C154.834 109.404 154.291 109.179 153.891 108.779C153.49 108.379 153.265 107.836 153.265 107.27C153.264 107.226 153.271 107.183 153.287 107.142C153.303 107.101 153.327 107.064 153.357 107.033C153.387 107.002 153.424 106.977 153.464 106.96C153.504 106.943 153.547 106.934 153.591 106.934H177.559C177.722 106.934 177.882 106.966 178.032 107.029C178.182 107.091 178.318 107.183 178.433 107.298C178.547 107.413 178.637 107.55 178.699 107.7C178.76 107.851 178.791 108.012 178.789 108.174C178.789 108.5 178.66 108.813 178.429 109.044C178.198 109.275 177.885 109.404 177.559 109.404Z" fill="#36C27F"/>
<path d="M165.585 92.2967L169.264 91.2192L168.929 100.276C168.929 100.276 160.939 102.157 160.441 98.4769L161.458 96.4948C162.342 94.7871 163.562 92.7948 165.585 92.2967Z" fill="#FFAB9F"/>
<path d="M174.774 93.73L173.686 98.8124L168.929 100.266L169.265 91.2192L174.774 93.73Z" fill="#FFAB9F"/>
<path d="M176.228 186.84L191.475 192.014L194.595 185.712L177.732 180.355L176.228 186.84Z" fill="#36C27F"/>
<path d="M220.028 175.811L234.086 167.964L231.504 161.428L216.226 170.352L220.028 175.811Z" fill="#36C27F"/>
<path d="M179.602 25.0462C181.696 24.9242 182.55 22.4541 182.296 21.397C181.986 20.0023 181.139 18.7861 179.938 18.0121C180.609 15.9791 179.704 13.4989 177.183 11.781C176.266 11.2509 175.241 10.9352 174.185 10.8577C173.129 10.7803 172.069 10.943 171.084 11.3338C171.084 9.49397 167.699 8.28435 165.524 10.5816C164.627 10.0273 163.575 9.77816 162.525 9.87161C161.476 9.96507 160.484 10.396 159.7 11.1C159.426 11.339 159.221 11.647 159.106 11.9921C158.992 12.3371 158.972 12.7065 159.049 13.0618C158.184 13.0724 157.338 13.3161 156.6 13.7672C155.862 14.2182 155.26 14.86 154.856 15.6249C154.452 16.3898 154.262 17.2494 154.306 18.1132C154.35 18.977 154.626 19.8129 155.105 20.533C155.786 21.5495 157.402 21.5495 158.622 21.2852C158.959 21.8646 159.412 22.3684 159.953 22.7654C160.493 23.1623 161.109 23.4439 161.763 23.5926C165.778 24.9242 171.298 23.6739 172.273 23.5926C173.249 23.4304 174.25 23.6292 175.089 24.1517C174.905 24.4078 174.666 24.62 174.39 24.7729C174.114 24.9258 173.808 25.0157 173.493 25.036C172.889 25.097 172.279 25.0661 171.684 24.9445C173.043 25.8413 174.696 26.1799 176.299 25.8898C176.986 25.5439 177.692 25.2351 178.413 24.9648C178.901 24.8937 179.653 25.1173 179.602 25.0462Z" fill="#263238"/>
</g>
<defs>
<clipPath id="clip0_1182_8890">
<rect width="370" height="317" fill="white"/>
</clipPath>
</defs>
</svg>
