<svg width="50" height="50" viewBox="0 0 50 50" fill="none" xmlns="http://www.w3.org/2000/svg">
<g clip-path="url(#clip0_1185_3952)">
<path d="M44.5294 8.55738L36.3175 4.12296L30.8429 1.16668L29.31 0.345491C27.8319 -0.420952 25.9158 0.126508 25.0946 1.60465L16.1162 18.1927H5.27656C3.90791 18.1927 2.81299 19.2876 2.81299 20.6562V25.0359V47.5365C2.81299 48.9051 3.90791 50 5.27656 50H39.9307C41.2994 50 42.3943 48.9051 42.3943 47.5365V41.2407H43.4345C43.9819 41.2407 44.4199 40.8027 44.4199 40.2553V33.0836C44.4199 32.5361 43.9819 32.0981 43.4345 32.0981H42.3943V25.0359C42.3943 23.8862 41.5731 22.9008 40.4782 22.6271L45.7885 12.7728C46.6097 11.2947 46.0623 9.37857 44.5294 8.55738ZM26.8465 2.53533C27.1202 1.98787 27.8866 1.76889 28.4341 2.04261L29.967 2.8638L19.2915 22.5723H16.0068L26.8465 2.53533ZM33.6897 4.8894L24.1639 22.5723H21.4813L31.6641 3.79448L33.6897 4.8894ZM5.27656 20.1088H15.1308L13.8169 22.5176H5.27656C5.11232 22.5176 4.89333 22.5176 4.7291 22.5723V20.6015C4.7291 20.3825 4.94808 20.1088 5.27656 20.1088ZM42.449 34.0142V39.2698H42.3943H36.7007C36.1533 39.2698 35.7153 38.8319 35.7153 38.2844V34.9449C35.7153 34.3975 36.1533 33.9595 36.7007 33.9595H42.3943H42.449V34.0142ZM36.7007 32.0981C35.1131 32.0981 33.7992 33.412 33.7992 34.9997V38.3392C33.7992 39.9268 35.1131 41.2407 36.7007 41.2407H40.4782V47.5365C40.4782 47.8102 40.2592 48.0839 39.9307 48.0839H5.27656C5.00283 48.0839 4.7291 47.865 4.7291 47.5365V25.0359C4.7291 24.7622 4.94808 24.4884 5.27656 24.4884H14.3644H18.2513H25.3136H38.8906H39.9307C40.2045 24.4884 40.4782 24.7074 40.4782 25.0359V32.0981H36.7007ZM44.0914 11.8421L38.2883 22.5723H26.3537L35.3868 5.82008L43.5987 10.2545C44.2009 10.583 44.4199 11.2947 44.0914 11.8421Z" fill="white"/>
<path d="M44.5294 8.55738L36.3175 4.12296L30.8429 1.16668L29.31 0.345491C27.8319 -0.420952 25.9158 0.126508 25.0946 1.60465L16.1162 18.1927H5.27656C3.90791 18.1927 2.81299 19.2876 2.81299 20.6562V25.0359V47.5365C2.81299 48.9051 3.90791 50 5.27656 50H39.9307C41.2994 50 42.3943 48.9051 42.3943 47.5365V41.2407H43.4345C43.9819 41.2407 44.4199 40.8027 44.4199 40.2553V33.0836C44.4199 32.5361 43.9819 32.0981 43.4345 32.0981H42.3943V25.0359C42.3943 23.8862 41.5731 22.9008 40.4782 22.6271L45.7885 12.7728C46.6097 11.2947 46.0623 9.37857 44.5294 8.55738ZM26.8465 2.53533C27.1202 1.98787 27.8866 1.76889 28.4341 2.04261L29.967 2.8638L19.2915 22.5723H16.0068L26.8465 2.53533ZM33.6897 4.8894L24.1639 22.5723H21.4813L31.6641 3.79448L33.6897 4.8894ZM5.27656 20.1088H15.1308L13.8169 22.5176H5.27656C5.11232 22.5176 4.89333 22.5176 4.7291 22.5723V20.6015C4.7291 20.3825 4.94808 20.1088 5.27656 20.1088ZM42.449 34.0142V39.2698H42.3943H36.7007C36.1533 39.2698 35.7153 38.8319 35.7153 38.2844V34.9449C35.7153 34.3975 36.1533 33.9595 36.7007 33.9595H42.3943H42.449V34.0142ZM36.7007 32.0981C35.1131 32.0981 33.7992 33.412 33.7992 34.9997V38.3392C33.7992 39.9268 35.1131 41.2407 36.7007 41.2407H40.4782V47.5365C40.4782 47.8102 40.2592 48.0839 39.9307 48.0839H5.27656C5.00283 48.0839 4.7291 47.865 4.7291 47.5365V25.0359C4.7291 24.7622 4.94808 24.4884 5.27656 24.4884H14.3644H18.2513H25.3136H38.8906H39.9307C40.2045 24.4884 40.4782 24.7074 40.4782 25.0359V32.0981H36.7007ZM44.0914 11.8421L38.2883 22.5723H26.3537L35.3868 5.82008L43.5987 10.2545C44.2009 10.583 44.4199 11.2947 44.0914 11.8421Z" fill="url(#paint0_radial_1185_3952)"/>
<path d="M40.3688 10.9116L39.876 10.6379C38.6716 9.98097 37.0292 10.4737 36.3723 11.6781L35.7701 12.8278C35.4416 13.43 35.3869 14.1417 35.5511 14.7986C35.7701 15.4556 36.2081 16.003 36.8103 16.3315L37.303 16.6052C37.6862 16.8242 38.1242 16.9337 38.5074 16.9337C39.4381 16.9337 40.314 16.441 40.8067 15.5651L41.4089 14.4154C41.7374 13.8132 41.7922 13.1015 41.6279 12.4445C41.4089 11.7876 40.971 11.2401 40.3688 10.9116ZM39.7118 13.4847L39.1096 14.6344C38.9454 14.9628 38.5621 15.0723 38.2337 14.9081L37.7409 14.6344C37.5767 14.5796 37.4672 14.4154 37.4125 14.2511C37.3577 14.0869 37.3577 13.9227 37.4672 13.7584L38.0694 12.6088C38.1789 12.3898 38.3979 12.2803 38.6169 12.2803C38.7264 12.2803 38.8359 12.2803 38.9454 12.335L39.4381 12.6088C39.6023 12.6635 39.7118 12.8278 39.7666 12.992C39.8213 13.1562 39.8213 13.3205 39.7118 13.4847Z" fill="white"/>
<path d="M40.3688 10.9116L39.876 10.6379C38.6716 9.98097 37.0292 10.4737 36.3723 11.6781L35.7701 12.8278C35.4416 13.43 35.3869 14.1417 35.5511 14.7986C35.7701 15.4556 36.2081 16.003 36.8103 16.3315L37.303 16.6052C37.6862 16.8242 38.1242 16.9337 38.5074 16.9337C39.4381 16.9337 40.314 16.441 40.8067 15.5651L41.4089 14.4154C41.7374 13.8132 41.7922 13.1015 41.6279 12.4445C41.4089 11.7876 40.971 11.2401 40.3688 10.9116ZM39.7118 13.4847L39.1096 14.6344C38.9454 14.9628 38.5621 15.0723 38.2337 14.9081L37.7409 14.6344C37.5767 14.5796 37.4672 14.4154 37.4125 14.2511C37.3577 14.0869 37.3577 13.9227 37.4672 13.7584L38.0694 12.6088C38.1789 12.3898 38.3979 12.2803 38.6169 12.2803C38.7264 12.2803 38.8359 12.2803 38.9454 12.335L39.4381 12.6088C39.6023 12.6635 39.7118 12.8278 39.7666 12.992C39.8213 13.1562 39.8213 13.3205 39.7118 13.4847Z" fill="url(#paint1_radial_1185_3952)"/>
</g>
<defs>
<radialGradient id="paint0_radial_1185_3952" cx="0" cy="0" r="1" gradientUnits="userSpaceOnUse" gradientTransform="translate(0.725468 -6.86814) rotate(56.509) scale(82.3545 113.312)">
<stop offset="0.151042" stop-color="#33A6FF"/>
<stop offset="0.907346" stop-color="#36C27F"/>
</radialGradient>
<radialGradient id="paint1_radial_1185_3952" cx="0" cy="0" r="1" gradientUnits="userSpaceOnUse" gradientTransform="translate(35.1602 9.4402) rotate(54.0742) scale(11.176 15.8763)">
<stop offset="0.151042" stop-color="#33A6FF"/>
<stop offset="0.907346" stop-color="#36C27F"/>
</radialGradient>
<clipPath id="clip0_1185_3952">
<rect width="50" height="50" fill="white"/>
</clipPath>
</defs>
</svg>
