<svg width="50" height="50" viewBox="0 0 50 50" fill="none" xmlns="http://www.w3.org/2000/svg">
<path d="M21.7942 31.6274C21.6092 31.5658 21.4242 31.4425 21.2393 31.3808L20.9927 31.2575L21.0543 30.9492L21.2393 29.4079L21.3009 28.8531L21.7942 29.0997C21.8558 29.1613 21.9175 29.1613 22.0408 29.223C22.1024 29.2846 22.1641 29.2846 22.2874 29.3463C22.4723 29.4079 22.6573 29.4696 22.8422 29.5312C23.0272 29.5929 23.2122 29.6545 23.3971 29.6545C23.5821 29.6545 23.7054 29.7162 23.8903 29.7162C24.0753 29.7162 24.1986 29.7778 24.3836 29.7778C24.5069 29.7778 24.6302 29.7778 24.6918 29.7778C24.8151 29.7778 24.8768 29.7778 25.0001 29.7778C25.1234 29.7778 25.3083 29.7162 25.4316 29.7162C25.5549 29.6545 25.6782 29.6545 25.8016 29.5929C25.9249 29.5312 26.0482 29.4696 26.1098 29.3463C26.1715 29.2846 26.2948 29.1613 26.3564 29.038C26.4181 28.9147 26.4797 28.7914 26.4797 28.6681C26.4797 28.5448 26.5414 28.4215 26.4797 28.2982C26.4797 28.1749 26.4181 28.0516 26.4181 27.9283C26.3564 27.805 26.2948 27.6817 26.2331 27.62C26.1715 27.4967 26.1098 27.4351 25.9865 27.3734C25.9249 27.3118 25.8016 27.2501 25.6783 27.1884C25.5549 27.1268 25.4316 27.0651 25.3083 27.0035C25.185 26.9418 25.0617 26.8802 24.9384 26.8802C24.6918 26.8185 24.4452 26.6952 24.1986 26.5719C23.952 26.4486 23.7054 26.3253 23.4588 26.202C23.2122 26.0787 23.0272 25.9554 22.7806 25.8321C22.5956 25.7088 22.4107 25.5855 22.2257 25.4005C22.0408 25.2772 21.9175 25.0923 21.7325 24.9073C21.6092 24.7224 21.4859 24.5374 21.3626 24.3524C21.2393 24.1058 21.1776 23.9209 21.116 23.6743C21.0543 23.4277 21.0543 23.1811 21.0543 22.9961C21.0543 22.6878 21.0543 22.3796 21.116 22.133C21.1776 21.8864 21.2393 21.5781 21.3626 21.3315C21.4859 21.0849 21.6092 20.8383 21.7325 20.6533C21.9175 20.4067 22.0408 20.2217 22.2874 20.0368C22.4723 19.8518 22.7189 19.7285 22.9655 19.5436C23.2122 19.4203 23.4588 19.297 23.7054 19.2353L23.8287 19.1737V17.8173V17.3857H24.2602H25.4933H25.9249V17.8173V19.0504H26.0482C26.1715 19.0504 26.2948 19.112 26.4797 19.112C26.603 19.1737 26.788 19.1737 26.9113 19.2353C27.0346 19.2353 27.1579 19.297 27.2196 19.297C27.2812 19.297 27.4045 19.3586 27.5278 19.4203L27.8361 19.5436L27.7744 19.8518L27.5895 21.2698L27.5278 21.7631L27.0963 21.6397C27.0346 21.6397 26.9113 21.5781 26.788 21.5164C26.7263 21.5164 26.603 21.4548 26.4797 21.4548C26.2948 21.3315 26.1098 21.2698 25.9865 21.2698C25.8632 21.2698 25.6783 21.2082 25.5549 21.2082C25.4316 21.2082 25.37 21.2082 25.2467 21.2082C25.185 21.2082 25.0617 21.2082 24.9384 21.2082C24.7535 21.2082 24.6302 21.2698 24.5069 21.2698C24.3836 21.3315 24.2602 21.3931 24.1369 21.4548C24.0136 21.5164 23.952 21.6397 23.8287 21.7014C23.767 21.8247 23.7054 21.8864 23.6437 22.0097C23.5821 22.133 23.5821 22.2563 23.5204 22.3796C23.5204 22.5029 23.5204 22.6262 23.5204 22.8111C23.5204 22.9344 23.5821 23.0577 23.6437 23.1811C23.7054 23.3044 23.767 23.4277 23.8287 23.4893C23.8903 23.551 24.0136 23.6743 24.0753 23.7359C24.1986 23.7976 24.2602 23.8592 24.3836 23.9209C24.5069 23.9825 24.6302 24.0442 24.7535 24.1058C24.8768 24.1675 25.0001 24.2291 25.1234 24.2291C25.37 24.2908 25.6166 24.4141 25.8632 24.5374C26.1098 24.6607 26.3564 24.784 26.5414 24.9073C26.7263 25.0306 26.9729 25.1539 27.1579 25.2772C27.3429 25.4005 27.5278 25.5855 27.7128 25.7088C27.8977 25.8321 28.021 26.0171 28.1443 26.202C28.2676 26.387 28.391 26.5719 28.5143 26.7569C28.6376 26.9418 28.6992 27.1884 28.7609 27.4351C28.8225 27.6817 28.8225 27.8666 28.8225 28.1132C28.8225 28.4215 28.8225 28.6681 28.7609 28.9764C28.6992 29.223 28.6376 29.5312 28.5143 29.7778C28.391 30.0245 28.2676 30.2711 28.0827 30.456C27.8977 30.641 27.7128 30.8876 27.5278 31.0725C27.3429 31.2575 27.0963 31.3808 26.8496 31.5658C26.603 31.6891 26.2948 31.8124 26.0482 31.874L25.9249 31.9357V33.292V33.7236H25.4933H24.2602H23.8287V33.292V31.9973H23.7054C23.4588 31.9973 23.2738 31.9357 23.0272 31.874C22.7806 31.8124 22.5956 31.7507 22.349 31.6891C22.1641 31.7507 21.9791 31.6891 21.7942 31.6274Z" fill="black"/>
<path d="M24.8765 13.1934C18.0331 13.1934 12.4844 18.7421 12.4844 25.5855C12.4844 32.4289 18.0331 37.9776 24.8765 37.9776C31.7199 37.9776 37.2686 32.3672 37.2686 25.5855C37.2686 18.8037 31.7199 13.1934 24.8765 13.1934ZM24.8765 35.7581C19.2661 35.7581 14.6422 31.1958 14.6422 25.5238C14.6422 19.8518 19.2661 15.3512 24.8765 15.3512C30.4868 15.3512 35.1108 19.9135 35.1108 25.5855C35.1108 31.2575 30.4868 35.7581 24.8765 35.7581Z" fill="white"/>
<path d="M24.8765 13.1934C18.0331 13.1934 12.4844 18.7421 12.4844 25.5855C12.4844 32.4289 18.0331 37.9776 24.8765 37.9776C31.7199 37.9776 37.2686 32.3672 37.2686 25.5855C37.2686 18.8037 31.7199 13.1934 24.8765 13.1934ZM24.8765 35.7581C19.2661 35.7581 14.6422 31.1958 14.6422 25.5238C14.6422 19.8518 19.2661 15.3512 24.8765 15.3512C30.4868 15.3512 35.1108 19.9135 35.1108 25.5855C35.1108 31.2575 30.4868 35.7581 24.8765 35.7581Z" fill="url(#paint0_radial_1185_8554)"/>
<path d="M44.3591 4.80888C44.0508 4.62392 43.6809 4.56227 43.3726 4.68557C41.2148 5.54871 39.1186 5.98027 37.0841 5.98027C29.9324 5.98027 25.8017 0.493218 25.8017 0.431566C25.6168 0.123305 25.2469 0 24.9386 0C24.5687 0 24.2604 0.184957 24.0755 0.431566C24.0138 0.493218 19.9448 5.91862 12.7931 5.98027C10.7586 5.98027 8.66239 5.54871 6.50456 4.68557C6.1963 4.56227 5.76473 4.56227 5.51812 4.80888C5.20986 4.99384 5.0249 5.36375 5.0249 5.73366V28.2984C5.0249 36.1899 11.1901 46.3009 24.692 49.9384C24.7536 49.9384 24.8769 50 25.0002 50C25.1235 50 25.1852 50 25.3085 49.9384C38.8104 46.3009 44.9756 36.1899 44.9756 28.2984V5.67201C44.8523 5.3021 44.6673 4.99384 44.3591 4.80888ZM42.6328 28.2367C42.6328 35.2651 37.0841 44.2663 24.8769 47.6572C12.6698 44.2663 7.12108 35.2651 7.12108 28.2367V7.21332C9.0323 7.82984 10.8819 8.1381 12.7314 8.1381C19.02 8.1381 23.2123 4.56227 24.8769 2.77435C26.6032 4.56227 30.7339 8.1381 37.0224 8.1381C38.872 8.1381 40.7216 7.82984 42.6328 7.21332V28.2367Z" fill="white"/>
<path d="M44.3591 4.80888C44.0508 4.62392 43.6809 4.56227 43.3726 4.68557C41.2148 5.54871 39.1186 5.98027 37.0841 5.98027C29.9324 5.98027 25.8017 0.493218 25.8017 0.431566C25.6168 0.123305 25.2469 0 24.9386 0C24.5687 0 24.2604 0.184957 24.0755 0.431566C24.0138 0.493218 19.9448 5.91862 12.7931 5.98027C10.7586 5.98027 8.66239 5.54871 6.50456 4.68557C6.1963 4.56227 5.76473 4.56227 5.51812 4.80888C5.20986 4.99384 5.0249 5.36375 5.0249 5.73366V28.2984C5.0249 36.1899 11.1901 46.3009 24.692 49.9384C24.7536 49.9384 24.8769 50 25.0002 50C25.1235 50 25.1852 50 25.3085 49.9384C38.8104 46.3009 44.9756 36.1899 44.9756 28.2984V5.67201C44.8523 5.3021 44.6673 4.99384 44.3591 4.80888ZM42.6328 28.2367C42.6328 35.2651 37.0841 44.2663 24.8769 47.6572C12.6698 44.2663 7.12108 35.2651 7.12108 28.2367V7.21332C9.0323 7.82984 10.8819 8.1381 12.7314 8.1381C19.02 8.1381 23.2123 4.56227 24.8769 2.77435C26.6032 4.56227 30.7339 8.1381 37.0224 8.1381C38.872 8.1381 40.7216 7.82984 42.6328 7.21332V28.2367Z" fill="url(#paint1_radial_1185_8554)"/>
<defs>
<radialGradient id="paint0_radial_1185_8554" cx="0" cy="0" r="1" gradientUnits="userSpaceOnUse" gradientTransform="translate(11.2911 9.78893) rotate(52.6545) scale(42.8234 61.7465)">
<stop offset="0.151042" stop-color="#33A6FF"/>
<stop offset="0.907346" stop-color="#36C27F"/>
</radialGradient>
<radialGradient id="paint1_radial_1185_8554" cx="0" cy="0" r="1" gradientUnits="userSpaceOnUse" gradientTransform="translate(3.10135 -6.86813) rotate(58.6298) scale(80.4399 106.897)">
<stop offset="0.151042" stop-color="#33A6FF"/>
<stop offset="0.907346" stop-color="#36C27F"/>
</radialGradient>
</defs>
</svg>
