<svg width="50" height="50" viewBox="0 0 50 50" fill="none" xmlns="http://www.w3.org/2000/svg">
<g clip-path="url(#clip0_1185_8557)">
<path d="M11.4027 15.4732C11.304 15.4239 11.2053 15.3745 11.1066 15.3251L10.9585 15.2758V15.1277L11.0572 14.2885L11.1066 13.9924L11.4027 14.1405C11.4521 14.1405 11.5015 14.1898 11.5015 14.1898C11.5508 14.1898 11.6002 14.2392 11.6496 14.2392C11.7483 14.2885 11.847 14.2885 11.9457 14.3379C12.0444 14.3873 12.1432 14.3873 12.2419 14.4366C12.3406 14.4366 12.39 14.486 12.4887 14.486C12.5874 14.486 12.6368 14.486 12.7355 14.486C12.7849 14.486 12.8836 14.486 12.9329 14.486C12.9823 14.486 13.0317 14.486 13.081 14.486C13.1798 14.486 13.2291 14.486 13.2785 14.4366C13.3278 14.4366 13.4266 14.3873 13.4759 14.3379C13.5253 14.2885 13.624 14.2392 13.6734 14.1898C13.7227 14.1405 13.7721 14.0911 13.8214 14.0417C13.8708 13.9924 13.8708 13.943 13.9202 13.8443C13.9202 13.7949 13.9202 13.6962 13.9202 13.6469C13.9202 13.5481 13.9202 13.4988 13.8708 13.4494C13.8708 13.4 13.8214 13.3507 13.7721 13.3013C13.7227 13.252 13.6734 13.2026 13.624 13.1532C13.5746 13.1039 13.5253 13.0545 13.4759 13.0545C13.4266 13.0052 13.3772 13.0052 13.2785 12.9558C13.2291 12.9064 13.1304 12.9064 13.081 12.9064C12.9329 12.8571 12.8342 12.8077 12.6861 12.7583C12.5381 12.709 12.4393 12.6596 12.2912 12.5609C12.1925 12.5115 12.0444 12.4128 11.9457 12.3635C11.847 12.3141 11.7483 12.2154 11.6496 12.1167C11.5508 12.0179 11.4521 11.9686 11.4027 11.8698C11.304 11.7711 11.2547 11.6724 11.2053 11.5737C11.1559 11.475 11.1066 11.3269 11.0572 11.1788C11.0079 11.0307 11.0079 10.932 11.0079 10.7839C11.0079 10.6358 11.0079 10.4877 11.0572 10.3396C11.1066 10.1916 11.1066 10.0435 11.2053 9.89539C11.2547 9.74731 11.3534 9.64859 11.4027 9.5005C11.5015 9.40178 11.6002 9.2537 11.6989 9.20434C11.7976 9.10561 11.9457 9.00689 12.0444 8.95753C12.1925 8.90817 12.2913 8.80945 12.4393 8.80945H12.4887V8.06903V7.87158H12.6861H13.3772H13.5746V8.06903V8.76008H13.624C13.6734 8.76008 13.7721 8.76009 13.8708 8.80945C13.9695 8.80945 14.0189 8.85881 14.1176 8.85881C14.167 8.85881 14.2163 8.90817 14.2657 8.90817C14.3151 8.90817 14.3644 8.95753 14.4138 8.95753L14.5619 9.00689V9.20434L14.4631 9.94476L14.4138 10.1916L14.167 10.0928C14.1176 10.0928 14.0683 10.0435 13.9695 10.0435C13.9202 10.0435 13.8708 9.99412 13.8214 9.99412C13.7227 9.99412 13.6734 9.94476 13.5746 9.94476C13.4759 9.94476 13.4266 9.94476 13.3278 9.89539C13.2785 9.89539 13.2291 9.89539 13.1798 9.89539C13.1304 9.89539 13.081 9.89539 13.0317 9.89539C12.9329 9.89539 12.8836 9.89539 12.7849 9.94476C12.6861 9.94476 12.6368 9.99412 12.5874 10.0435C12.5381 10.0928 12.4887 10.1422 12.4393 10.1916C12.39 10.2409 12.3406 10.2903 12.3406 10.389C12.2913 10.4384 12.2912 10.5371 12.2912 10.5865C12.2912 10.6358 12.2912 10.7345 12.2912 10.7839C12.2912 10.8333 12.3406 10.932 12.3406 10.9813C12.39 11.0307 12.39 11.0801 12.4393 11.1294C12.4887 11.1788 12.5381 11.2281 12.5874 11.2775C12.6368 11.3269 12.6861 11.3762 12.7355 11.3762C12.7849 11.4256 12.8342 11.4256 12.9329 11.475C12.9823 11.5243 13.081 11.5243 13.1304 11.5737C13.2785 11.623 13.3772 11.6724 13.5253 11.7218C13.6734 11.7711 13.7721 11.8205 13.9202 11.9192C14.0189 11.9686 14.167 12.0673 14.2657 12.1167C14.3644 12.2154 14.4631 12.2647 14.5619 12.3635C14.6606 12.4622 14.71 12.5115 14.8087 12.6103C14.858 12.709 14.9568 12.8077 15.0061 12.9064C15.0555 13.0052 15.1048 13.1532 15.1048 13.252C15.1542 13.3507 15.1542 13.4988 15.1542 13.5975C15.1542 13.7456 15.1542 13.8937 15.1048 14.0417C15.0555 14.1898 15.0061 14.3379 14.9568 14.486C14.9074 14.6341 14.8087 14.7328 14.7593 14.8809C14.6606 14.9796 14.5619 15.0783 14.4631 15.1771C14.3644 15.2758 14.2163 15.3745 14.0683 15.4239C13.9202 15.4732 13.7721 15.5719 13.624 15.5719H13.5746V16.3124V16.6085H13.3772H12.6861H12.4887V16.4111V15.72H12.4393C12.3406 15.72 12.1925 15.6707 12.0938 15.6707C11.9457 15.6213 11.847 15.6213 11.7483 15.5719C11.6002 15.5226 11.5015 15.5226 11.4027 15.4732Z" fill="black"/>
<path d="M45.906 43.955H1.77701V5.15706C1.77701 4.66344 1.38212 4.26855 0.888503 4.26855C0.39489 4.26855 0 4.66344 0 5.15706V44.8435C0 45.3371 0.39489 45.732 0.888503 45.732H45.8566C46.3502 45.732 46.7451 45.3371 46.7451 44.8435C46.7451 44.3499 46.3996 43.955 45.906 43.955Z" fill="white"/>
<path d="M45.906 43.955H1.77701V5.15706C1.77701 4.66344 1.38212 4.26855 0.888503 4.26855C0.39489 4.26855 0 4.66344 0 5.15706V44.8435C0 45.3371 0.39489 45.732 0.888503 45.732H45.8566C46.3502 45.732 46.7451 45.3371 46.7451 44.8435C46.7451 44.3499 46.3996 43.955 45.906 43.955Z" fill="url(#paint0_radial_1185_8557)"/>
<path d="M49.7069 20.5578C49.3614 20.2616 48.8184 20.2616 48.4729 20.6565L42.8951 27.0735L39.0943 23.7169C38.8474 23.5195 38.6006 23.4207 38.3538 23.4701C38.107 23.5195 37.8602 23.6676 37.7615 23.865L33.1215 31.7134L29.0739 30.3807C28.7284 30.282 28.3335 30.3807 28.0867 30.6769L24.2365 35.6623L20.0408 33.0462C19.6953 32.8488 19.3004 32.8981 19.0042 33.1449L13.5251 38.0811L7.94729 36.6496C7.65112 36.5509 7.30559 36.6496 7.10815 36.8964L4.09711 40.1049C3.75158 40.4504 3.80094 40.9934 4.14647 41.3389C4.29456 41.487 4.54136 41.5857 4.73881 41.5857C4.98561 41.5857 5.18306 41.487 5.3805 41.2895L8.04601 38.4759L13.5745 39.9074C13.8706 40.0061 14.1668 39.9074 14.3643 39.71L19.6953 34.8726L23.9897 37.5381C24.3846 37.7849 24.8782 37.6862 25.125 37.3406L29.0739 32.2071L33.1709 33.5892C33.5658 33.7373 34.01 33.5398 34.2075 33.1943L38.6994 25.642L42.4015 28.8999C42.5989 29.0479 42.7963 29.1467 43.0432 29.0973C43.29 29.0973 43.4874 28.9986 43.6355 28.8011L49.8056 21.7425C50.1018 21.3969 50.0525 20.854 49.7069 20.5578Z" fill="white"/>
<path d="M49.7069 20.5578C49.3614 20.2616 48.8184 20.2616 48.4729 20.6565L42.8951 27.0735L39.0943 23.7169C38.8474 23.5195 38.6006 23.4207 38.3538 23.4701C38.107 23.5195 37.8602 23.6676 37.7615 23.865L33.1215 31.7134L29.0739 30.3807C28.7284 30.282 28.3335 30.3807 28.0867 30.6769L24.2365 35.6623L20.0408 33.0462C19.6953 32.8488 19.3004 32.8981 19.0042 33.1449L13.5251 38.0811L7.94729 36.6496C7.65112 36.5509 7.30559 36.6496 7.10815 36.8964L4.09711 40.1049C3.75158 40.4504 3.80094 40.9934 4.14647 41.3389C4.29456 41.487 4.54136 41.5857 4.73881 41.5857C4.98561 41.5857 5.18306 41.487 5.3805 41.2895L8.04601 38.4759L13.5745 39.9074C13.8706 40.0061 14.1668 39.9074 14.3643 39.71L19.6953 34.8726L23.9897 37.5381C24.3846 37.7849 24.8782 37.6862 25.125 37.3406L29.0739 32.2071L33.1709 33.5892C33.5658 33.7373 34.01 33.5398 34.2075 33.1943L38.6994 25.642L42.4015 28.8999C42.5989 29.0479 42.7963 29.1467 43.0432 29.0973C43.29 29.0973 43.4874 28.9986 43.6355 28.8011L49.8056 21.7425C50.1018 21.3969 50.0525 20.854 49.7069 20.5578Z" fill="url(#paint1_radial_1185_8557)"/>
<path d="M5.28172 33.3917C5.42981 33.3917 5.57789 33.3424 5.72597 33.293L13.6238 28.8998L17.622 30.43C17.9676 30.5781 18.3625 30.4794 18.6093 30.1832L26.8032 21.002L32.924 23.6676C33.2696 23.8156 33.6644 23.7169 33.9113 23.4701L40.8218 16.214L44.0797 17.6455C44.5239 17.8429 45.0175 17.6455 45.215 17.2012L49.2626 8.46429C49.4601 8.02003 49.2626 7.52642 48.8184 7.32898C48.3741 7.13153 47.8805 7.32898 47.6831 7.77323L44.0303 15.7204L41.0193 14.3876C40.6738 14.2396 40.2789 14.3383 40.0321 14.5851L33.0228 21.8412L26.8526 19.1757C26.5071 19.0276 26.1122 19.1263 25.8654 19.3731L17.6714 28.6037L13.8706 27.1228C13.6238 27.0241 13.377 27.0241 13.1302 27.1722L4.83747 31.7628C4.39322 32.0096 4.24514 32.5032 4.49194 32.9475C4.68939 33.2436 4.98555 33.3917 5.28172 33.3917Z" fill="white"/>
<path d="M5.28172 33.3917C5.42981 33.3917 5.57789 33.3424 5.72597 33.293L13.6238 28.8998L17.622 30.43C17.9676 30.5781 18.3625 30.4794 18.6093 30.1832L26.8032 21.002L32.924 23.6676C33.2696 23.8156 33.6644 23.7169 33.9113 23.4701L40.8218 16.214L44.0797 17.6455C44.5239 17.8429 45.0175 17.6455 45.215 17.2012L49.2626 8.46429C49.4601 8.02003 49.2626 7.52642 48.8184 7.32898C48.3741 7.13153 47.8805 7.32898 47.6831 7.77323L44.0303 15.7204L41.0193 14.3876C40.6738 14.2396 40.2789 14.3383 40.0321 14.5851L33.0228 21.8412L26.8526 19.1757C26.5071 19.0276 26.1122 19.1263 25.8654 19.3731L17.6714 28.6037L13.8706 27.1228C13.6238 27.0241 13.377 27.0241 13.1302 27.1722L4.83747 31.7628C4.39322 32.0096 4.24514 32.5032 4.49194 32.9475C4.68939 33.2436 4.98555 33.3917 5.28172 33.3917Z" fill="url(#paint2_radial_1185_8557)"/>
<path d="M13.081 19.1757C16.9312 19.1757 20.041 16.066 20.041 12.2158C20.041 8.36562 16.9312 5.25586 13.081 5.25586C9.23085 5.25586 6.12109 8.36562 6.12109 12.2158C6.12109 16.066 9.23085 19.1757 13.081 19.1757ZM13.081 6.9835C15.944 6.9835 18.264 9.30348 18.264 12.1664C18.264 15.0294 15.944 17.3494 13.081 17.3494C10.2181 17.3494 7.8981 15.0294 7.8981 12.1664C7.84874 9.35284 10.2181 6.9835 13.081 6.9835Z" fill="white"/>
<path d="M13.081 19.1757C16.9312 19.1757 20.041 16.066 20.041 12.2158C20.041 8.36562 16.9312 5.25586 13.081 5.25586C9.23085 5.25586 6.12109 8.36562 6.12109 12.2158C6.12109 16.066 9.23085 19.1757 13.081 19.1757ZM13.081 6.9835C15.944 6.9835 18.264 9.30348 18.264 12.1664C18.264 15.0294 15.944 17.3494 13.081 17.3494C10.2181 17.3494 7.8981 15.0294 7.8981 12.1664C7.84874 9.35284 10.2181 6.9835 13.081 6.9835Z" fill="url(#paint3_radial_1185_8557)"/>
</g>
<defs>
<radialGradient id="paint0_radial_1185_8557" cx="0" cy="0" r="1" gradientUnits="userSpaceOnUse" gradientTransform="translate(-2.25069 -1.42698) rotate(49.2962) scale(75.1299 111.054)">
<stop offset="0.151042" stop-color="#33A6FF"/>
<stop offset="0.907346" stop-color="#36C27F"/>
</radialGradient>
<radialGradient id="paint1_radial_1185_8557" cx="0" cy="0" r="1" gradientUnits="userSpaceOnUse" gradientTransform="translate(1.63983 17.4292) rotate(31.1015) scale(56.4789 74.6892)">
<stop offset="0.151042" stop-color="#33A6FF"/>
<stop offset="0.907346" stop-color="#36C27F"/>
</radialGradient>
<radialGradient id="paint2_radial_1185_8557" cx="0" cy="0" r="1" gradientUnits="userSpaceOnUse" gradientTransform="translate(2.20801 3.66188) rotate(37.301) scale(59.25 85.3953)">
<stop offset="0.151042" stop-color="#33A6FF"/>
<stop offset="0.907346" stop-color="#36C27F"/>
</radialGradient>
<radialGradient id="paint3_radial_1185_8557" cx="0" cy="0" r="1" gradientUnits="userSpaceOnUse" gradientTransform="translate(5.45088 3.34379) rotate(52.6545) scale(24.0514 34.6795)">
<stop offset="0.151042" stop-color="#33A6FF"/>
<stop offset="0.907346" stop-color="#36C27F"/>
</radialGradient>
<clipPath id="clip0_1185_8557">
<rect width="50" height="50" fill="white"/>
</clipPath>
</defs>
</svg>
