<svg width="24" height="24" viewBox="0 0 24 24" fill="none" xmlns="http://www.w3.org/2000/svg">
<g clip-path="url(#clip0_628_1975)">
<path d="M4.04599 6.49246H4.35302H10.5239L10.6779 5.51677C10.5962 5.49032 10.5388 5.41385 10.5388 5.32574C10.5388 5.21474 10.6287 5.12481 10.7397 5.12481H10.9975H11.5509H12.45H13.0029H13.2606C13.3716 5.12481 13.4615 5.21474 13.4615 5.32574C13.4615 5.41394 13.4042 5.49032 13.3225 5.51675L13.4765 6.49246H20.0206C20.0653 6.49246 20.1016 6.52876 20.1016 6.57346C20.1016 6.58668 20.0976 6.60249 20.0832 6.6211L20.0575 6.65435H19.3182H12.7837H12.2837V7.15435V20.5538V21.0538H12.7837H18.1891C18.5633 21.0538 18.8666 21.3571 18.8666 21.7313C18.8666 21.7651 18.8392 21.7926 18.8053 21.7926H5.19499C5.16116 21.7926 5.13373 21.7651 5.13373 21.7313C5.13373 21.3571 5.43703 21.0538 5.81122 21.0538H11.2166H11.7166V20.5538V7.15447V6.65447H11.2166H4.62599H3.94651L3.92161 6.62784C3.90502 6.6101 3.89858 6.59151 3.89858 6.57346C3.89858 6.52876 3.93488 6.49246 3.97958 6.49246H4.04397H4.04599ZM12.6951 4.23082L12.0003 4.77364L11.3053 4.23076C11.0384 4.02229 10.8686 3.70076 10.8686 3.33951C10.8686 2.71457 11.3752 2.2079 12.0002 2.2079C12.6252 2.2079 13.1318 2.7145 13.1318 3.33951C13.1318 3.70061 12.9621 4.02219 12.6951 4.23082ZM19.9552 6.99781L20.0313 7.15034L23.4946 14.0902C23.4973 14.0955 23.4988 14.1005 23.4995 14.1057C23.5003 14.1113 23.5004 14.1182 23.499 14.1264L23.489 14.1881L23.4938 14.2431C23.4905 14.2754 23.4869 14.3075 23.4828 14.3394L23.1432 13.6589L20.4025 8.16714L19.9551 7.27067L19.5077 8.16714L16.7671 13.6589L16.4275 14.3392C16.4235 14.3074 16.4198 14.2754 16.4166 14.2432L16.4214 14.1884L16.4113 14.1266C16.4099 14.1183 16.41 14.1112 16.4108 14.1057C16.4116 14.1003 16.4131 14.0953 16.4157 14.0901C16.4157 14.0901 16.4157 14.0901 16.4157 14.0901L19.7656 7.37763L19.9552 6.99781ZM19.9551 17.4388C18.1607 17.4388 16.6762 16.1095 16.4333 14.3822H17.2144H22.6958H23.477C23.2342 16.1095 21.7496 17.4388 19.9551 17.4388ZM4.04501 7.11005L4.17861 7.37774L7.58451 14.2023C7.58452 14.2024 7.58452 14.2024 7.58453 14.2024C7.58716 14.2077 7.58865 14.2127 7.58939 14.2179C7.59017 14.2235 7.59027 14.2305 7.58891 14.2388L7.57886 14.3004L7.58365 14.3554C7.58041 14.3877 7.57673 14.4198 7.57263 14.4518L7.23292 13.7711L4.49225 8.27932L4.04487 7.38285L3.59749 8.27932L0.856819 13.7711L0.517384 14.4513C0.513312 14.4195 0.50966 14.3876 0.506433 14.3555L0.511235 14.3007L0.501185 14.239C0.499803 14.2305 0.499914 14.2235 0.500693 14.2179C0.501437 14.2126 0.502926 14.2076 0.505565 14.2023L4.0038 7.19263L4.04501 7.11005ZM4.04498 17.5511C2.25057 17.5511 0.765987 16.2218 0.523175 14.4944H1.3042H6.78554H7.5669C7.32408 16.2217 5.83941 17.5511 4.04498 17.5511Z" stroke="#536D82"/>
</g>
<defs>
<clipPath id="clip0_628_1975">
<rect width="24" height="24" fill="white"/>
</clipPath>
</defs>
</svg>
