<svg width="50" height="51" viewBox="0 0 50 51" fill="none" xmlns="http://www.w3.org/2000/svg">
<path d="M19.5312 17.0111C16.7207 17.3929 14.1435 18.7797 12.2764 20.9148C10.4093 23.05 9.37862 25.7891 9.375 28.6254V30.1879H10.9375V28.6254C10.9405 25.9328 12.0116 23.3513 13.9156 21.4473C15.8196 19.5432 18.4011 18.4722 21.0938 18.4692H28.9062C30.6887 18.4728 32.439 18.9436 33.9828 19.8347C35.5265 20.7258 36.8096 22.006 37.7042 23.5477L39.0567 22.7653C38.1573 21.2162 36.9162 19.8927 35.4279 18.8958C33.9397 17.8989 32.2436 17.2547 30.4688 17.0124V11.5505L32.2578 5.47046C32.3813 5.06919 32.3669 4.63815 32.217 4.246C32.067 3.85386 31.7902 3.52317 31.4305 3.30661C31.0708 3.09006 30.649 3.0001 30.2323 3.05107C29.8156 3.10204 29.4279 3.29101 29.131 3.58786C29.0714 3.64736 28.9905 3.68078 28.9062 3.68078C28.822 3.68078 28.7411 3.64736 28.6815 3.58786C27.7043 2.61291 26.3803 2.06537 25 2.06537C23.6197 2.06537 22.2957 2.61291 21.3185 3.58786C21.2589 3.64736 21.178 3.68078 21.0938 3.68078C21.0095 3.68078 20.9286 3.64736 20.869 3.58786C20.5727 3.29158 20.1859 3.10275 19.7701 3.05135C19.3542 2.99994 18.9331 3.08891 18.5736 3.30412C18.2141 3.51933 17.9368 3.84846 17.7856 4.23926C17.6345 4.63007 17.6182 5.06015 17.7394 5.46126L19.5312 11.5506V17.0111ZM28.9062 12.2192V13.7817H21.0938V12.2192H28.9062ZM21.0938 16.9067V15.3442H28.9062V16.9067H21.0938ZM19.3754 4.64515C19.435 4.60463 19.5072 4.58712 19.5787 4.59586C19.6502 4.6046 19.7161 4.63901 19.7641 4.69269C20.117 5.04482 20.5952 5.24258 21.0938 5.24258C21.5923 5.24258 22.0705 5.04482 22.4234 4.69269C23.1073 4.01037 24.0339 3.62718 25 3.62718C25.9661 3.62718 26.8927 4.01037 27.5766 4.69269C27.9295 5.04482 28.4077 5.24258 28.9062 5.24258C29.4048 5.24258 29.883 5.04482 30.2359 4.69269C30.2839 4.63901 30.3498 4.6046 30.4213 4.59586C30.4928 4.58711 30.565 4.60463 30.6246 4.64515C30.6893 4.68011 30.739 4.73757 30.7642 4.80667C30.7895 4.87577 30.7886 4.95173 30.7616 5.02019L29.103 10.6567H26.9352L28.0691 7.82184L26.6184 7.24153L25.2523 10.6567H24.7477L23.3816 7.24153L21.9309 7.82184L23.0648 10.6567H20.897L19.2356 5.01098C19.2106 4.94342 19.211 4.86907 19.2367 4.80177C19.2624 4.73448 19.3117 4.67882 19.3754 4.64515Z" fill="white"/>
<path d="M19.5312 17.0111C16.7207 17.3929 14.1435 18.7797 12.2764 20.9148C10.4093 23.05 9.37862 25.7891 9.375 28.6254V30.1879H10.9375V28.6254C10.9405 25.9328 12.0116 23.3513 13.9156 21.4473C15.8196 19.5432 18.4011 18.4722 21.0938 18.4692H28.9062C30.6887 18.4728 32.439 18.9436 33.9828 19.8347C35.5265 20.7258 36.8096 22.006 37.7042 23.5477L39.0567 22.7653C38.1573 21.2162 36.9162 19.8927 35.4279 18.8958C33.9397 17.8989 32.2436 17.2547 30.4688 17.0124V11.5505L32.2578 5.47046C32.3813 5.06919 32.3669 4.63815 32.217 4.246C32.067 3.85386 31.7902 3.52317 31.4305 3.30661C31.0708 3.09006 30.649 3.0001 30.2323 3.05107C29.8156 3.10204 29.4279 3.29101 29.131 3.58786C29.0714 3.64736 28.9905 3.68078 28.9062 3.68078C28.822 3.68078 28.7411 3.64736 28.6815 3.58786C27.7043 2.61291 26.3803 2.06537 25 2.06537C23.6197 2.06537 22.2957 2.61291 21.3185 3.58786C21.2589 3.64736 21.178 3.68078 21.0938 3.68078C21.0095 3.68078 20.9286 3.64736 20.869 3.58786C20.5727 3.29158 20.1859 3.10275 19.7701 3.05135C19.3542 2.99994 18.9331 3.08891 18.5736 3.30412C18.2141 3.51933 17.9368 3.84846 17.7856 4.23926C17.6345 4.63007 17.6182 5.06015 17.7394 5.46126L19.5312 11.5506V17.0111ZM28.9062 12.2192V13.7817H21.0938V12.2192H28.9062ZM21.0938 16.9067V15.3442H28.9062V16.9067H21.0938ZM19.3754 4.64515C19.435 4.60463 19.5072 4.58712 19.5787 4.59586C19.6502 4.6046 19.7161 4.63901 19.7641 4.69269C20.117 5.04482 20.5952 5.24258 21.0938 5.24258C21.5923 5.24258 22.0705 5.04482 22.4234 4.69269C23.1073 4.01037 24.0339 3.62718 25 3.62718C25.9661 3.62718 26.8927 4.01037 27.5766 4.69269C27.9295 5.04482 28.4077 5.24258 28.9062 5.24258C29.4048 5.24258 29.883 5.04482 30.2359 4.69269C30.2839 4.63901 30.3498 4.6046 30.4213 4.59586C30.4928 4.58711 30.565 4.60463 30.6246 4.64515C30.6893 4.68011 30.739 4.73757 30.7642 4.80667C30.7895 4.87577 30.7886 4.95173 30.7616 5.02019L29.103 10.6567H26.9352L28.0691 7.82184L26.6184 7.24153L25.2523 10.6567H24.7477L23.3816 7.24153L21.9309 7.82184L23.0648 10.6567H20.897L19.2356 5.01098C19.2106 4.94342 19.211 4.86907 19.2367 4.80177C19.2624 4.73448 19.3117 4.67882 19.3754 4.64515Z" fill="url(#paint0_radial_511_802)"/>
<path d="M47.656 25.5H23.4373C23.3347 25.5 23.2331 25.5202 23.1383 25.5595C23.0435 25.5987 22.9574 25.6563 22.8848 25.7288C22.8123 25.8014 22.7547 25.8875 22.7155 25.9823C22.6762 26.0771 22.656 26.1787 22.656 26.2812V31.75H7.03102C6.92843 31.75 6.82684 31.7702 6.73205 31.8095C6.63726 31.8487 6.55114 31.9063 6.47859 31.9788C6.40604 32.0514 6.3485 32.1375 6.30924 32.2323C6.26998 32.3271 6.24977 32.4287 6.24977 32.5312V36.6353C4.77685 37.0157 3.49321 37.9202 2.63945 39.1792C1.78569 40.4383 1.42041 41.9655 1.61208 43.4746C1.80376 44.9838 2.53922 46.3712 3.68063 47.3769C4.82204 48.3825 6.29103 48.9374 7.81227 48.9375H47.656C47.7586 48.9375 47.8602 48.9173 47.955 48.878C48.0498 48.8388 48.1359 48.7812 48.2085 48.7087C48.281 48.6361 48.3386 48.55 48.3778 48.4552C48.4171 48.3604 48.4373 48.2588 48.4373 48.1562V26.2812C48.4373 26.1787 48.4171 26.0771 48.3778 25.9823C48.3386 25.8875 48.281 25.8014 48.2085 25.7288C48.1359 25.6563 48.0498 25.5987 47.955 25.5595C47.8602 25.5202 47.7586 25.5 47.656 25.5ZM46.8748 33.3692C45.7072 33.5396 44.6259 34.0824 43.7915 34.9167C42.9572 35.7511 42.4144 36.8324 42.244 38H39.0623V27.0625H42.244C42.4144 28.2301 42.9572 29.3114 43.7915 30.1458C44.6259 30.9801 45.7072 31.5229 46.8748 31.6933V33.3692ZM46.8748 34.9536V38H43.8284C43.9829 37.2501 44.3538 36.5619 44.8953 36.0205C45.4367 35.4791 46.1249 35.1082 46.8748 34.9536ZM46.8748 30.1089C46.1249 29.9543 45.4367 29.5834 44.8953 29.042C44.3538 28.5006 43.9829 27.8124 43.8284 27.0625H46.8748V30.1089ZM37.4998 27.0625V38H34.3748V27.0625H37.4998ZM28.1248 34.875H18.7498V33.3125H28.1248V34.875ZM28.1248 36.4375V38H18.7498V36.4375H28.1248ZM28.1248 39.5625V41.125H18.7498V39.5625H28.1248ZM17.1873 41.125H13.8645C13.7223 40.5773 13.506 40.0516 13.2214 39.5625H17.1873V41.125ZM14.0623 42.6875H17.1873V44.25H13.8645C13.9962 43.7396 14.0626 43.2146 14.0623 42.6875ZM18.7498 42.6875H28.1248V44.25H18.7498V42.6875ZM29.6873 39.5625H32.8123V47.375H29.6873V39.5625ZM29.6873 38V32.5312C29.6873 32.4287 29.6671 32.3271 29.6278 32.2323C29.5885 32.1375 29.531 32.0514 29.4585 31.9788C29.3859 31.9063 29.2998 31.8487 29.205 31.8095C29.1102 31.7702 29.0086 31.75 28.906 31.75H24.2185V31.6933C25.3861 31.5229 26.4674 30.9801 27.3018 30.1458C28.1361 29.3114 28.6789 28.2301 28.8493 27.0625H32.8123V38H29.6873ZM27.2649 27.0625C27.1104 27.8124 26.7394 28.5006 26.198 29.042C25.6566 29.5834 24.9684 29.9543 24.2185 30.1089V27.0625H27.2649ZM17.1873 33.3125V34.875H7.81227V33.3125H17.1873ZM17.1873 36.4375V38H11.9396C10.8009 36.9924 9.33275 36.4366 7.81227 36.4375H17.1873ZM3.12477 42.6875C3.12477 41.7604 3.39969 40.8541 3.91476 40.0833C4.42983 39.3124 5.16192 38.7116 6.01844 38.3568C6.87497 38.002 7.81747 37.9092 8.72676 38.0901C9.63604 38.2709 10.4713 38.7174 11.1268 39.3729C11.7824 40.0285 12.2288 40.8637 12.4097 41.773C12.5906 42.6823 12.4977 43.6248 12.143 44.4813C11.7882 45.3379 11.1874 46.0699 10.4165 46.585C9.64565 47.1001 8.73937 47.375 7.81227 47.375C6.5695 47.3736 5.37803 46.8793 4.49926 46.0005C3.62049 45.1217 3.12618 43.9303 3.12477 42.6875ZM13.2214 45.8125H17.1873V47.375H11.9396C12.4483 46.9266 12.8811 46.399 13.2214 45.8125ZM18.7498 47.375V45.8125H28.1248V47.375H18.7498ZM34.3748 47.375V39.5625H37.4998V47.375H34.3748ZM39.0623 47.375V39.5625H46.8748V47.375H39.0623Z" fill="white"/>
<path d="M47.656 25.5H23.4373C23.3347 25.5 23.2331 25.5202 23.1383 25.5595C23.0435 25.5987 22.9574 25.6563 22.8848 25.7288C22.8123 25.8014 22.7547 25.8875 22.7155 25.9823C22.6762 26.0771 22.656 26.1787 22.656 26.2812V31.75H7.03102C6.92843 31.75 6.82684 31.7702 6.73205 31.8095C6.63726 31.8487 6.55114 31.9063 6.47859 31.9788C6.40604 32.0514 6.3485 32.1375 6.30924 32.2323C6.26998 32.3271 6.24977 32.4287 6.24977 32.5312V36.6353C4.77685 37.0157 3.49321 37.9202 2.63945 39.1792C1.78569 40.4383 1.42041 41.9655 1.61208 43.4746C1.80376 44.9838 2.53922 46.3712 3.68063 47.3769C4.82204 48.3825 6.29103 48.9374 7.81227 48.9375H47.656C47.7586 48.9375 47.8602 48.9173 47.955 48.878C48.0498 48.8388 48.1359 48.7812 48.2085 48.7087C48.281 48.6361 48.3386 48.55 48.3778 48.4552C48.4171 48.3604 48.4373 48.2588 48.4373 48.1562V26.2812C48.4373 26.1787 48.4171 26.0771 48.3778 25.9823C48.3386 25.8875 48.281 25.8014 48.2085 25.7288C48.1359 25.6563 48.0498 25.5987 47.955 25.5595C47.8602 25.5202 47.7586 25.5 47.656 25.5ZM46.8748 33.3692C45.7072 33.5396 44.6259 34.0824 43.7915 34.9167C42.9572 35.7511 42.4144 36.8324 42.244 38H39.0623V27.0625H42.244C42.4144 28.2301 42.9572 29.3114 43.7915 30.1458C44.6259 30.9801 45.7072 31.5229 46.8748 31.6933V33.3692ZM46.8748 34.9536V38H43.8284C43.9829 37.2501 44.3538 36.5619 44.8953 36.0205C45.4367 35.4791 46.1249 35.1082 46.8748 34.9536ZM46.8748 30.1089C46.1249 29.9543 45.4367 29.5834 44.8953 29.042C44.3538 28.5006 43.9829 27.8124 43.8284 27.0625H46.8748V30.1089ZM37.4998 27.0625V38H34.3748V27.0625H37.4998ZM28.1248 34.875H18.7498V33.3125H28.1248V34.875ZM28.1248 36.4375V38H18.7498V36.4375H28.1248ZM28.1248 39.5625V41.125H18.7498V39.5625H28.1248ZM17.1873 41.125H13.8645C13.7223 40.5773 13.506 40.0516 13.2214 39.5625H17.1873V41.125ZM14.0623 42.6875H17.1873V44.25H13.8645C13.9962 43.7396 14.0626 43.2146 14.0623 42.6875ZM18.7498 42.6875H28.1248V44.25H18.7498V42.6875ZM29.6873 39.5625H32.8123V47.375H29.6873V39.5625ZM29.6873 38V32.5312C29.6873 32.4287 29.6671 32.3271 29.6278 32.2323C29.5885 32.1375 29.531 32.0514 29.4585 31.9788C29.3859 31.9063 29.2998 31.8487 29.205 31.8095C29.1102 31.7702 29.0086 31.75 28.906 31.75H24.2185V31.6933C25.3861 31.5229 26.4674 30.9801 27.3018 30.1458C28.1361 29.3114 28.6789 28.2301 28.8493 27.0625H32.8123V38H29.6873ZM27.2649 27.0625C27.1104 27.8124 26.7394 28.5006 26.198 29.042C25.6566 29.5834 24.9684 29.9543 24.2185 30.1089V27.0625H27.2649ZM17.1873 33.3125V34.875H7.81227V33.3125H17.1873ZM17.1873 36.4375V38H11.9396C10.8009 36.9924 9.33275 36.4366 7.81227 36.4375H17.1873ZM3.12477 42.6875C3.12477 41.7604 3.39969 40.8541 3.91476 40.0833C4.42983 39.3124 5.16192 38.7116 6.01844 38.3568C6.87497 38.002 7.81747 37.9092 8.72676 38.0901C9.63604 38.2709 10.4713 38.7174 11.1268 39.3729C11.7824 40.0285 12.2288 40.8637 12.4097 41.773C12.5906 42.6823 12.4977 43.6248 12.143 44.4813C11.7882 45.3379 11.1874 46.0699 10.4165 46.585C9.64565 47.1001 8.73937 47.375 7.81227 47.375C6.5695 47.3736 5.37803 46.8793 4.49926 46.0005C3.62049 45.1217 3.12618 43.9303 3.12477 42.6875ZM13.2214 45.8125H17.1873V47.375H11.9396C12.4483 46.9266 12.8811 46.399 13.2214 45.8125ZM18.7498 47.375V45.8125H28.1248V47.375H18.7498ZM34.3748 47.375V39.5625H37.4998V47.375H34.3748ZM39.0623 47.375V39.5625H46.8748V47.375H39.0623Z" fill="url(#paint1_radial_511_802)"/>
<defs>
<radialGradient id="paint0_radial_511_802" cx="0" cy="0" r="1" gradientUnits="userSpaceOnUse" gradientTransform="translate(7.94588 -1.79762) rotate(51.1536) scale(49.5999 72.4446)">
<stop offset="0.151042" stop-color="#33A6FF"/>
<stop offset="0.907346" stop-color="#36C27F"/>
</radialGradient>
<radialGradient id="paint1_radial_511_802" cx="0" cy="0" r="1" gradientUnits="userSpaceOnUse" gradientTransform="translate(-0.694691 22.2806) rotate(33.2353) scale(58.7403 80.5118)">
<stop offset="0.151042" stop-color="#33A6FF"/>
<stop offset="0.907346" stop-color="#36C27F"/>
</radialGradient>
</defs>
</svg>
