<svg width="50" height="51" viewBox="0 0 50 51" fill="none" xmlns="http://www.w3.org/2000/svg">
<path d="M2.34375 41.9062H23.4375V40.3438H3.125V3.625H26.5625V10.6562H28.125V2.84375C28.125 2.63655 28.0427 2.43784 27.8962 2.29133C27.7497 2.14482 27.5509 2.06251 27.3438 2.0625H2.34375C2.13655 2.06251 1.93784 2.14482 1.79133 2.29133C1.64482 2.43784 1.56251 2.63655 1.5625 2.84375V41.125C1.56251 41.3322 1.64482 41.5309 1.79133 41.6774C1.93784 41.8239 2.13655 41.9062 2.34375 41.9062Z" fill="white"/>
<path d="M2.34375 41.9062H23.4375V40.3438H3.125V3.625H26.5625V10.6562H28.125V2.84375C28.125 2.63655 28.0427 2.43784 27.8962 2.29133C27.7497 2.14482 27.5509 2.06251 27.3438 2.0625H2.34375C2.13655 2.06251 1.93784 2.14482 1.79133 2.29133C1.64482 2.43784 1.56251 2.63655 1.5625 2.84375V41.125C1.56251 41.3322 1.64482 41.5309 1.79133 41.6774C1.93784 41.8239 2.13655 41.9062 2.34375 41.9062Z" fill="url(#paint0_radial_1110_1903)"/>
<path d="M11.7188 23.9375C12.1502 23.9375 12.5 23.5877 12.5 23.1562C12.5 22.7248 12.1502 22.375 11.7188 22.375C11.2873 22.375 10.9375 22.7248 10.9375 23.1562C10.9375 23.5877 11.2873 23.9375 11.7188 23.9375Z" fill="white"/>
<path d="M11.7188 23.9375C12.1502 23.9375 12.5 23.5877 12.5 23.1562C12.5 22.7248 12.1502 22.375 11.7188 22.375C11.2873 22.375 10.9375 22.7248 10.9375 23.1562C10.9375 23.5877 11.2873 23.9375 11.7188 23.9375Z" fill="url(#paint1_radial_1110_1903)"/>
<path d="M8.59375 23.9375C9.02522 23.9375 9.375 23.5877 9.375 23.1562C9.375 22.7248 9.02522 22.375 8.59375 22.375C8.16228 22.375 7.8125 22.7248 7.8125 23.1562C7.8125 23.5877 8.16228 23.9375 8.59375 23.9375Z" fill="white"/>
<path d="M8.59375 23.9375C9.02522 23.9375 9.375 23.5877 9.375 23.1562C9.375 22.7248 9.02522 22.375 8.59375 22.375C8.16228 22.375 7.8125 22.7248 7.8125 23.1562C7.8125 23.5877 8.16228 23.9375 8.59375 23.9375Z" fill="url(#paint2_radial_1110_1903)"/>
<path d="M14.8438 23.9375C15.2752 23.9375 15.625 23.5877 15.625 23.1562C15.625 22.7248 15.2752 22.375 14.8438 22.375C14.4123 22.375 14.0625 22.7248 14.0625 23.1562C14.0625 23.5877 14.4123 23.9375 14.8438 23.9375Z" fill="white"/>
<path d="M14.8438 23.9375C15.2752 23.9375 15.625 23.5877 15.625 23.1562C15.625 22.7248 15.2752 22.375 14.8438 22.375C14.4123 22.375 14.0625 22.7248 14.0625 23.1562C14.0625 23.5877 14.4123 23.9375 14.8438 23.9375Z" fill="url(#paint3_radial_1110_1903)"/>
<path d="M17.9688 23.9375C18.4002 23.9375 18.75 23.5877 18.75 23.1562C18.75 22.7248 18.4002 22.375 17.9688 22.375C17.5373 22.375 17.1875 22.7248 17.1875 23.1562C17.1875 23.5877 17.5373 23.9375 17.9688 23.9375Z" fill="white"/>
<path d="M17.9688 23.9375C18.4002 23.9375 18.75 23.5877 18.75 23.1562C18.75 22.7248 18.4002 22.375 17.9688 22.375C17.5373 22.375 17.1875 22.7248 17.1875 23.1562C17.1875 23.5877 17.5373 23.9375 17.9688 23.9375Z" fill="url(#paint4_radial_1110_1903)"/>
<path d="M21.0938 23.9375C21.5252 23.9375 21.875 23.5877 21.875 23.1562C21.875 22.7248 21.5252 22.375 21.0938 22.375C20.6623 22.375 20.3125 22.7248 20.3125 23.1562C20.3125 23.5877 20.6623 23.9375 21.0938 23.9375Z" fill="white"/>
<path d="M21.0938 23.9375C21.5252 23.9375 21.875 23.5877 21.875 23.1562C21.875 22.7248 21.5252 22.375 21.0938 22.375C20.6623 22.375 20.3125 22.7248 20.3125 23.1562C20.3125 23.5877 20.6623 23.9375 21.0938 23.9375Z" fill="url(#paint5_radial_1110_1903)"/>
<path d="M15.625 25.5H14.0625V38.7812H15.625V25.5Z" fill="white"/>
<path d="M15.625 25.5H14.0625V38.7812H15.625V25.5Z" fill="url(#paint6_radial_1110_1903)"/>
<path d="M12.5 29.4062H5.46875V30.9688H12.5V29.4062Z" fill="white"/>
<path d="M12.5 29.4062H5.46875V30.9688H12.5V29.4062Z" fill="url(#paint7_radial_1110_1903)"/>
<path d="M10.1562 33.3125H5.46875V34.875H10.1562V33.3125Z" fill="white"/>
<path d="M10.1562 33.3125H5.46875V34.875H10.1562V33.3125Z" fill="url(#paint8_radial_1110_1903)"/>
<path d="M11.7188 37.2188H5.46875V38.7812H11.7188V37.2188Z" fill="white"/>
<path d="M11.7188 37.2188H5.46875V38.7812H11.7188V37.2188Z" fill="url(#paint9_radial_1110_1903)"/>
<path d="M24.2188 29.4062H17.1875V30.9688H24.2188V29.4062Z" fill="white"/>
<path d="M24.2188 29.4062H17.1875V30.9688H24.2188V29.4062Z" fill="url(#paint10_radial_1110_1903)"/>
<path d="M24.2188 25.5H17.1875V27.0625H24.2188V25.5Z" fill="white"/>
<path d="M24.2188 25.5H17.1875V27.0625H24.2188V25.5Z" fill="url(#paint11_radial_1110_1903)"/>
<path d="M12.5 25.4506H5.46875V27.0131H12.5V25.4506Z" fill="white"/>
<path d="M12.5 25.4506H5.46875V27.0131H12.5V25.4506Z" fill="url(#paint12_radial_1110_1903)"/>
<path d="M39.8404 35.5814L38.2849 35.7296L39.5498 49.0108L41.1052 48.8627L39.8404 35.5814Z" fill="white"/>
<path d="M39.8404 35.5814L38.2849 35.7296L39.5498 49.0108L41.1052 48.8627L39.8404 35.5814Z" fill="url(#paint13_radial_1110_1903)"/>
<path d="M45.4738 28.4632C44.5366 27.5208 43.4217 26.7737 42.1937 26.265C40.9658 25.7564 39.6492 25.4964 38.32 25.5H36.7183V24.0523L38.2792 18.8491C38.5099 18.08 38.5577 17.2677 38.4186 16.4769C38.2795 15.6862 37.9575 14.9389 37.4782 14.2947C36.9989 13.6505 36.3757 13.1273 35.6582 12.7669C34.9408 12.4065 34.149 12.2187 33.3461 12.2188H26.562C26.0271 12.2186 25.5083 12.4015 25.0917 12.737C24.6751 13.0726 24.3859 13.5405 24.272 14.0632C24.1581 14.5858 24.2265 15.1317 24.4657 15.6101C24.705 16.0885 25.1007 16.4706 25.5872 16.6931L24.2483 21.3791C24.2151 21.4954 24.2093 21.6178 24.2314 21.7366C24.2536 21.8555 24.303 21.9676 24.3758 22.0642C24.4486 22.1607 24.5429 22.239 24.6511 22.293C24.7593 22.3469 24.8786 22.375 24.9995 22.375H25.7808V26.2812C25.7808 26.4884 25.8631 26.6872 26.0096 26.8337C26.1561 26.9802 26.3548 27.0625 26.562 27.0625H29.3634L29.3764 27.0754C26.5502 30.1603 24.9878 34.1954 24.9995 38.3791V48.9375H26.562V38.3791C26.5514 34.6173 27.9443 30.9867 30.4683 28.1973V36.7312C30.4689 39.1735 30.6422 41.6127 30.987 44.0305L31.2573 45.923C31.2752 46.048 31.3231 46.1669 31.397 46.2693C31.4708 46.3718 31.5684 46.4548 31.6813 46.5113L34.8063 48.0738C34.9766 48.159 35.1722 48.1791 35.3563 48.1302C35.5403 48.0813 35.7002 47.9669 35.8058 47.8083L37.3683 45.4646C37.4321 45.3689 37.4739 45.2604 37.4909 45.1467C37.5079 45.033 37.4996 44.9169 37.4666 44.8068L36.4698 41.4841C35.5982 38.5797 35.1555 35.5636 35.1558 32.5312V28.1674L36.2607 27.0625H38.32C40.5888 27.0625 42.7646 27.9638 44.3689 29.5681C45.9732 31.1724 46.8745 33.3482 46.8745 35.617V48.9375H48.437V35.617C48.4406 34.2878 48.1806 32.9712 47.672 31.7433C47.1633 30.5153 46.4162 29.4004 45.4738 28.4632ZM26.562 13.7812H33.3461C33.9054 13.7813 34.4569 13.9121 34.9567 14.1632C35.4565 14.4143 35.8906 14.7787 36.2245 15.2275C36.5584 15.6762 36.7827 16.1968 36.8796 16.7476C36.9765 17.2985 36.9432 17.8644 36.7825 18.4001L35.5269 22.5855C35.2719 22.2654 35.1007 21.8869 35.0289 21.484C34.9571 21.0811 34.9869 20.6667 35.1157 20.2782C35.1616 20.1406 35.1682 19.9929 35.1349 19.8517C35.1016 19.7105 35.0296 19.5814 34.927 19.4788L33.3645 17.9163C33.2179 17.7698 33.0192 17.6875 32.812 17.6875C32.6048 17.6875 32.4061 17.7698 32.2596 17.9163L32.0308 18.1452V16.125C32.0308 15.9178 31.9484 15.7191 31.8019 15.5726C31.6554 15.4261 31.4567 15.3438 31.2495 15.3438H26.562C26.3548 15.3438 26.1561 15.2614 26.0096 15.1149C25.8631 14.9684 25.7808 14.7697 25.7808 14.5625C25.7808 14.3553 25.8631 14.1566 26.0096 14.0101C26.1561 13.8636 26.3548 13.7812 26.562 13.7812ZM35.8643 44.9037L34.8883 46.3678L32.7463 45.2968L32.5338 43.8094C32.1994 41.4648 32.0313 39.0995 32.0308 36.7312V33.3125H33.6037C33.6728 36.2343 34.1334 39.1337 34.9731 41.933L35.8643 44.9037ZM33.5933 31.75H32.0308V29.7299L32.2596 29.9587C32.4061 30.1052 32.6048 30.1875 32.812 30.1875C33.0192 30.1875 33.2179 30.1052 33.3645 29.9587L33.5933 29.7299V31.75ZM32.812 28.3014L30.7919 26.2812L32.5832 24.49L31.4783 23.385L29.3633 25.5H27.3433V21.5938C27.3433 21.3866 27.2609 21.1878 27.1144 21.0413C26.9679 20.8948 26.7692 20.8125 26.562 20.8125H26.0352L27.1513 16.9062H30.4683V20.0312C30.4683 20.1858 30.5141 20.3368 30.6 20.4653C30.6858 20.5937 30.8078 20.6939 30.9506 20.753C31.0933 20.8121 31.2504 20.8276 31.402 20.7975C31.5535 20.7673 31.6927 20.693 31.802 20.5837L32.812 19.5736L33.5052 20.2669C33.3533 21.0349 33.4285 21.8305 33.7216 22.5564C34.0147 23.2822 34.5131 23.9069 35.1558 24.354V25.9577L32.812 28.3014Z" fill="white"/>
<path d="M45.4738 28.4632C44.5366 27.5208 43.4217 26.7737 42.1937 26.265C40.9658 25.7564 39.6492 25.4964 38.32 25.5H36.7183V24.0523L38.2792 18.8491C38.5099 18.08 38.5577 17.2677 38.4186 16.4769C38.2795 15.6862 37.9575 14.9389 37.4782 14.2947C36.9989 13.6505 36.3757 13.1273 35.6582 12.7669C34.9408 12.4065 34.149 12.2187 33.3461 12.2188H26.562C26.0271 12.2186 25.5083 12.4015 25.0917 12.737C24.6751 13.0726 24.3859 13.5405 24.272 14.0632C24.1581 14.5858 24.2265 15.1317 24.4657 15.6101C24.705 16.0885 25.1007 16.4706 25.5872 16.6931L24.2483 21.3791C24.2151 21.4954 24.2093 21.6178 24.2314 21.7366C24.2536 21.8555 24.303 21.9676 24.3758 22.0642C24.4486 22.1607 24.5429 22.239 24.6511 22.293C24.7593 22.3469 24.8786 22.375 24.9995 22.375H25.7808V26.2812C25.7808 26.4884 25.8631 26.6872 26.0096 26.8337C26.1561 26.9802 26.3548 27.0625 26.562 27.0625H29.3634L29.3764 27.0754C26.5502 30.1603 24.9878 34.1954 24.9995 38.3791V48.9375H26.562V38.3791C26.5514 34.6173 27.9443 30.9867 30.4683 28.1973V36.7312C30.4689 39.1735 30.6422 41.6127 30.987 44.0305L31.2573 45.923C31.2752 46.048 31.3231 46.1669 31.397 46.2693C31.4708 46.3718 31.5684 46.4548 31.6813 46.5113L34.8063 48.0738C34.9766 48.159 35.1722 48.1791 35.3563 48.1302C35.5403 48.0813 35.7002 47.9669 35.8058 47.8083L37.3683 45.4646C37.4321 45.3689 37.4739 45.2604 37.4909 45.1467C37.5079 45.033 37.4996 44.9169 37.4666 44.8068L36.4698 41.4841C35.5982 38.5797 35.1555 35.5636 35.1558 32.5312V28.1674L36.2607 27.0625H38.32C40.5888 27.0625 42.7646 27.9638 44.3689 29.5681C45.9732 31.1724 46.8745 33.3482 46.8745 35.617V48.9375H48.437V35.617C48.4406 34.2878 48.1806 32.9712 47.672 31.7433C47.1633 30.5153 46.4162 29.4004 45.4738 28.4632ZM26.562 13.7812H33.3461C33.9054 13.7813 34.4569 13.9121 34.9567 14.1632C35.4565 14.4143 35.8906 14.7787 36.2245 15.2275C36.5584 15.6762 36.7827 16.1968 36.8796 16.7476C36.9765 17.2985 36.9432 17.8644 36.7825 18.4001L35.5269 22.5855C35.2719 22.2654 35.1007 21.8869 35.0289 21.484C34.9571 21.0811 34.9869 20.6667 35.1157 20.2782C35.1616 20.1406 35.1682 19.9929 35.1349 19.8517C35.1016 19.7105 35.0296 19.5814 34.927 19.4788L33.3645 17.9163C33.2179 17.7698 33.0192 17.6875 32.812 17.6875C32.6048 17.6875 32.4061 17.7698 32.2596 17.9163L32.0308 18.1452V16.125C32.0308 15.9178 31.9484 15.7191 31.8019 15.5726C31.6554 15.4261 31.4567 15.3438 31.2495 15.3438H26.562C26.3548 15.3438 26.1561 15.2614 26.0096 15.1149C25.8631 14.9684 25.7808 14.7697 25.7808 14.5625C25.7808 14.3553 25.8631 14.1566 26.0096 14.0101C26.1561 13.8636 26.3548 13.7812 26.562 13.7812ZM35.8643 44.9037L34.8883 46.3678L32.7463 45.2968L32.5338 43.8094C32.1994 41.4648 32.0313 39.0995 32.0308 36.7312V33.3125H33.6037C33.6728 36.2343 34.1334 39.1337 34.9731 41.933L35.8643 44.9037ZM33.5933 31.75H32.0308V29.7299L32.2596 29.9587C32.4061 30.1052 32.6048 30.1875 32.812 30.1875C33.0192 30.1875 33.2179 30.1052 33.3645 29.9587L33.5933 29.7299V31.75ZM32.812 28.3014L30.7919 26.2812L32.5832 24.49L31.4783 23.385L29.3633 25.5H27.3433V21.5938C27.3433 21.3866 27.2609 21.1878 27.1144 21.0413C26.9679 20.8948 26.7692 20.8125 26.562 20.8125H26.0352L27.1513 16.9062H30.4683V20.0312C30.4683 20.1858 30.5141 20.3368 30.6 20.4653C30.6858 20.5937 30.8078 20.6939 30.9506 20.753C31.0933 20.8121 31.2504 20.8276 31.402 20.7975C31.5535 20.7673 31.6927 20.693 31.802 20.5837L32.812 19.5736L33.5052 20.2669C33.3533 21.0349 33.4285 21.8305 33.7216 22.5564C34.0147 23.2822 34.5131 23.9069 35.1558 24.354V25.9577L32.812 28.3014Z" fill="url(#paint14_radial_1110_1903)"/>
<path d="M14.8438 5.1875C13.2986 5.1875 11.7881 5.64569 10.5034 6.50414C9.2186 7.36259 8.21725 8.58274 7.62594 10.0103C7.03464 11.4378 6.87992 13.0087 7.18137 14.5241C7.48282 16.0396 8.22688 17.4317 9.31948 18.5243C10.4121 19.6169 11.8041 20.3609 13.3196 20.6624C14.8351 20.9638 16.4059 20.8091 17.8335 20.2178C19.261 19.6265 20.4812 18.6252 21.3396 17.3404C22.1981 16.0556 22.6563 14.5452 22.6563 13C22.6538 10.9287 21.83 8.943 20.3654 7.4784C18.9008 6.01379 16.915 5.18992 14.8438 5.1875ZM12.5 18.793V16.125C12.5003 15.9179 12.5827 15.7193 12.7291 15.5729C12.8756 15.4264 13.0741 15.344 13.2813 15.3437H16.4063C16.6134 15.344 16.8119 15.4264 16.9584 15.5729C17.1048 15.7193 17.1872 15.9179 17.1875 16.125V18.793C15.6844 19.4023 14.0031 19.4023 12.5 18.793ZM15.625 13C15.625 13.2072 15.5427 13.4059 15.3962 13.5524C15.2497 13.6989 15.051 13.7812 14.8438 13.7812C14.6366 13.7812 14.4378 13.6989 14.2913 13.5524C14.1448 13.4059 14.0625 13.2072 14.0625 13V11.4375H15.625V13ZM18.75 17.874V16.125C18.7494 15.6108 18.5799 15.1111 18.2676 14.7027C17.9553 14.2942 17.5175 13.9997 17.0215 13.8643C17.1316 13.5894 17.1879 13.2961 17.1875 13V10.6562C17.1875 10.5536 17.1673 10.452 17.1281 10.3572C17.0888 10.2624 17.0313 10.1763 16.9587 10.1038C16.8862 10.0312 16.8001 9.97367 16.7053 9.93441C16.6105 9.89516 16.5089 9.87497 16.4063 9.875H10.9375V11.4375H12.5V13C12.4996 13.2961 12.5559 13.5894 12.666 13.8643C12.17 13.9997 11.7322 14.2942 11.4199 14.7027C11.1076 15.1111 10.9381 15.6108 10.9375 16.125V17.874C9.92668 17.0647 9.19219 15.9614 8.83552 14.7166C8.47885 13.4718 8.51762 12.147 8.94648 10.9252C9.37534 9.70335 10.1731 8.64491 11.2295 7.89611C12.2859 7.1473 13.5489 6.74511 14.8438 6.74511C16.1386 6.74511 17.4016 7.1473 18.458 7.89611C19.5144 8.64491 20.3122 9.70335 20.741 10.9252C21.1699 12.147 21.2087 13.4718 20.852 14.7166C20.4953 15.9614 19.7608 17.0647 18.75 17.874Z" fill="white"/>
<path d="M14.8438 5.1875C13.2986 5.1875 11.7881 5.64569 10.5034 6.50414C9.2186 7.36259 8.21725 8.58274 7.62594 10.0103C7.03464 11.4378 6.87992 13.0087 7.18137 14.5241C7.48282 16.0396 8.22688 17.4317 9.31948 18.5243C10.4121 19.6169 11.8041 20.3609 13.3196 20.6624C14.8351 20.9638 16.4059 20.8091 17.8335 20.2178C19.261 19.6265 20.4812 18.6252 21.3396 17.3404C22.1981 16.0556 22.6563 14.5452 22.6563 13C22.6538 10.9287 21.83 8.943 20.3654 7.4784C18.9008 6.01379 16.915 5.18992 14.8438 5.1875ZM12.5 18.793V16.125C12.5003 15.9179 12.5827 15.7193 12.7291 15.5729C12.8756 15.4264 13.0741 15.344 13.2813 15.3437H16.4063C16.6134 15.344 16.8119 15.4264 16.9584 15.5729C17.1048 15.7193 17.1872 15.9179 17.1875 16.125V18.793C15.6844 19.4023 14.0031 19.4023 12.5 18.793ZM15.625 13C15.625 13.2072 15.5427 13.4059 15.3962 13.5524C15.2497 13.6989 15.051 13.7812 14.8438 13.7812C14.6366 13.7812 14.4378 13.6989 14.2913 13.5524C14.1448 13.4059 14.0625 13.2072 14.0625 13V11.4375H15.625V13ZM18.75 17.874V16.125C18.7494 15.6108 18.5799 15.1111 18.2676 14.7027C17.9553 14.2942 17.5175 13.9997 17.0215 13.8643C17.1316 13.5894 17.1879 13.2961 17.1875 13V10.6562C17.1875 10.5536 17.1673 10.452 17.1281 10.3572C17.0888 10.2624 17.0313 10.1763 16.9587 10.1038C16.8862 10.0312 16.8001 9.97367 16.7053 9.93441C16.6105 9.89516 16.5089 9.87497 16.4063 9.875H10.9375V11.4375H12.5V13C12.4996 13.2961 12.5559 13.5894 12.666 13.8643C12.17 13.9997 11.7322 14.2942 11.4199 14.7027C11.1076 15.1111 10.9381 15.6108 10.9375 16.125V17.874C9.92668 17.0647 9.19219 15.9614 8.83552 14.7166C8.47885 13.4718 8.51762 12.147 8.94648 10.9252C9.37534 9.70335 10.1731 8.64491 11.2295 7.89611C12.2859 7.1473 13.5489 6.74511 14.8438 6.74511C16.1386 6.74511 17.4016 7.1473 18.458 7.89611C19.5144 8.64491 20.3122 9.70335 20.741 10.9252C21.1699 12.147 21.2087 13.4718 20.852 14.7166C20.4953 15.9614 19.7608 17.0647 18.75 17.874Z" fill="url(#paint15_radial_1110_1903)"/>
<defs>
<radialGradient id="paint0_radial_1110_1903" cx="0" cy="0" r="1" gradientUnits="userSpaceOnUse" gradientTransform="translate(0.283564 -3.41054) rotate(63.0375) scale(61.4049 74.1941)">
<stop offset="0.151042" stop-color="#33A6FF"/>
<stop offset="0.907346" stop-color="#36C27F"/>
</radialGradient>
<radialGradient id="paint1_radial_1110_1903" cx="0" cy="0" r="1" gradientUnits="userSpaceOnUse" gradientTransform="translate(10.8623 22.1604) rotate(52.6545) scale(2.69976 3.89276)">
<stop offset="0.151042" stop-color="#33A6FF"/>
<stop offset="0.907346" stop-color="#36C27F"/>
</radialGradient>
<radialGradient id="paint2_radial_1110_1903" cx="0" cy="0" r="1" gradientUnits="userSpaceOnUse" gradientTransform="translate(7.73727 22.1604) rotate(52.6545) scale(2.69976 3.89276)">
<stop offset="0.151042" stop-color="#33A6FF"/>
<stop offset="0.907346" stop-color="#36C27F"/>
</radialGradient>
<radialGradient id="paint3_radial_1110_1903" cx="0" cy="0" r="1" gradientUnits="userSpaceOnUse" gradientTransform="translate(13.9873 22.1604) rotate(52.6545) scale(2.69976 3.89276)">
<stop offset="0.151042" stop-color="#33A6FF"/>
<stop offset="0.907346" stop-color="#36C27F"/>
</radialGradient>
<radialGradient id="paint4_radial_1110_1903" cx="0" cy="0" r="1" gradientUnits="userSpaceOnUse" gradientTransform="translate(17.1123 22.1604) rotate(52.6545) scale(2.69976 3.89276)">
<stop offset="0.151042" stop-color="#33A6FF"/>
<stop offset="0.907346" stop-color="#36C27F"/>
</radialGradient>
<radialGradient id="paint5_radial_1110_1903" cx="0" cy="0" r="1" gradientUnits="userSpaceOnUse" gradientTransform="translate(20.2373 22.1604) rotate(52.6545) scale(2.69976 3.89276)">
<stop offset="0.151042" stop-color="#33A6FF"/>
<stop offset="0.907346" stop-color="#36C27F"/>
</radialGradient>
<radialGradient id="paint6_radial_1110_1903" cx="0" cy="0" r="1" gradientUnits="userSpaceOnUse" gradientTransform="translate(13.9873 23.6757) rotate(84.8703) scale(18.3168 4.87699)">
<stop offset="0.151042" stop-color="#33A6FF"/>
<stop offset="0.907346" stop-color="#36C27F"/>
</radialGradient>
<radialGradient id="paint7_radial_1110_1903" cx="0" cy="0" r="1" gradientUnits="userSpaceOnUse" gradientTransform="translate(5.13021 29.1916) rotate(16.237) scale(7.67596 6.16117)">
<stop offset="0.151042" stop-color="#33A6FF"/>
<stop offset="0.907346" stop-color="#36C27F"/>
</radialGradient>
<radialGradient id="paint8_radial_1110_1903" cx="0" cy="0" r="1" gradientUnits="userSpaceOnUse" gradientTransform="translate(5.24306 33.0979) rotate(23.5977) scale(5.36153 5.88052)">
<stop offset="0.151042" stop-color="#33A6FF"/>
<stop offset="0.907346" stop-color="#36C27F"/>
</radialGradient>
<radialGradient id="paint9_radial_1110_1903" cx="0" cy="0" r="1" gradientUnits="userSpaceOnUse" gradientTransform="translate(5.16782 37.0041) rotate(18.1404) scale(6.89356 6.09817)">
<stop offset="0.151042" stop-color="#33A6FF"/>
<stop offset="0.907346" stop-color="#36C27F"/>
</radialGradient>
<radialGradient id="paint10_radial_1110_1903" cx="0" cy="0" r="1" gradientUnits="userSpaceOnUse" gradientTransform="translate(16.849 29.1916) rotate(16.237) scale(7.67596 6.16117)">
<stop offset="0.151042" stop-color="#33A6FF"/>
<stop offset="0.907346" stop-color="#36C27F"/>
</radialGradient>
<radialGradient id="paint11_radial_1110_1903" cx="0" cy="0" r="1" gradientUnits="userSpaceOnUse" gradientTransform="translate(16.849 25.2854) rotate(16.237) scale(7.67596 6.16117)">
<stop offset="0.151042" stop-color="#33A6FF"/>
<stop offset="0.907346" stop-color="#36C27F"/>
</radialGradient>
<radialGradient id="paint12_radial_1110_1903" cx="0" cy="0" r="1" gradientUnits="userSpaceOnUse" gradientTransform="translate(5.13021 25.2359) rotate(16.237) scale(7.67596 6.16117)">
<stop offset="0.151042" stop-color="#33A6FF"/>
<stop offset="0.907346" stop-color="#36C27F"/>
</radialGradient>
<radialGradient id="paint13_radial_1110_1903" cx="0" cy="0" r="1" gradientUnits="userSpaceOnUse" gradientTransform="translate(38.0363 33.9124) rotate(79.453) scale(18.399 4.87712)">
<stop offset="0.151042" stop-color="#33A6FF"/>
<stop offset="0.907346" stop-color="#36C27F"/>
</radialGradient>
<radialGradient id="paint14_radial_1110_1903" cx="0" cy="0" r="1" gradientUnits="userSpaceOnUse" gradientTransform="translate(23.0522 7.17497) rotate(63.2844) scale(56.4656 67.7952)">
<stop offset="0.151042" stop-color="#33A6FF"/>
<stop offset="0.907346" stop-color="#36C27F"/>
</radialGradient>
<radialGradient id="paint15_radial_1110_1903" cx="0" cy="0" r="1" gradientUnits="userSpaceOnUse" gradientTransform="translate(6.27893 3.04121) rotate(52.6545) scale(26.9977 38.9276)">
<stop offset="0.151042" stop-color="#33A6FF"/>
<stop offset="0.907346" stop-color="#36C27F"/>
</radialGradient>
</defs>
</svg>
