<svg width="50" height="51" viewBox="0 0 50 51" fill="none" xmlns="http://www.w3.org/2000/svg">
<path d="M49.2188 1.28125H10.1562V13.7812H7.03125C5.73906 13.7812 4.6875 14.8328 4.6875 16.125C4.6875 16.4 4.74375 16.6609 4.83125 16.9062H4.6875C2.53359 16.9062 0.78125 18.6586 0.78125 20.8125C0.78125 22.9664 2.53359 24.7188 4.6875 24.7188H10.1562V31.2094C9.6625 31.4516 9.25859 31.8625 9.03281 32.3891L7.27109 36.4992L4.20312 36.8828C2.25234 37.1266 0.78125 38.793 0.78125 40.7586V44.25C0.78125 45.5422 1.83281 46.5938 3.125 46.5938H4.17969C4.825 48.4117 6.55703 49.7188 8.59375 49.7188C10.6305 49.7188 12.3625 48.4117 13.0078 46.5938H19.8047C20.45 48.4117 22.182 49.7188 24.2188 49.7188C26.2555 49.7188 27.9875 48.4117 28.6328 46.5938H29.6875C30.7047 46.5938 31.5641 45.9383 31.8875 45.0312H49.2188V1.28125ZM6.25 16.125C6.25 15.6945 6.6 15.3438 7.03125 15.3438H13.2812C13.7125 15.3438 14.0625 15.6945 14.0625 16.125C14.0625 16.5555 13.7125 16.9062 13.2812 16.9062H7.03125C6.6 16.9062 6.25 16.5555 6.25 16.125ZM13.2812 18.4688H22.6562V23.1562H10.1562V18.4688H13.2812ZM24.2188 18.8148L28.682 20.4883C28.8164 20.5391 28.9062 20.6688 28.9062 20.8125C28.9062 20.9562 28.8164 21.0859 28.6813 21.1367L24.2188 22.8102V18.8148ZM14.8438 24.7188H23.5797L29.2297 22.6C29.9703 22.3227 30.4688 21.6039 30.4688 20.8125C30.4688 20.0211 29.9703 19.3023 29.2305 19.025L23.5797 16.9062H15.4812C15.5688 16.6609 15.625 16.4 15.625 16.125C15.625 15.4352 15.3195 14.8203 14.8438 14.3906V5.96875H32.0312V26.2812H14.8438V24.7188ZM2.34375 20.8125C2.34375 19.5203 3.39531 18.4688 4.6875 18.4688H7.03125H8.59375V23.1562H4.6875C3.39531 23.1562 2.34375 22.1047 2.34375 20.8125ZM4.39687 38.4336L8.35391 37.9383L10.468 33.0055C10.5922 32.7172 10.8734 32.5312 11.1859 32.5312H24.7508C25.0633 32.5312 25.3453 32.7172 25.4687 33.0039L27.5594 37.882L29.8766 38.4609C30.225 38.5492 30.4688 38.8609 30.4688 39.2203V41.9062H27.7031C27.1586 41.2992 26.4609 40.8336 25.668 40.5758L24.0477 34.0938H12.0172L8.88516 40.3586C8.78828 40.3523 8.69219 40.3438 8.59375 40.3438C7.21016 40.3438 5.96875 40.95 5.10938 41.9062H2.34375V40.7586C2.34375 39.5789 3.22656 38.5797 4.39687 38.4336ZM20.7344 41.9062H17.9688V35.6562H22.8273L24.0023 40.3547C22.7062 40.4141 21.5484 41 20.7344 41.9062ZM10.4477 40.7273L12.9828 35.6562H16.4062V41.9062H12.0781C11.6273 41.4047 11.0742 40.9984 10.4477 40.7273ZM3.125 45.0312C2.69375 45.0312 2.34375 44.6813 2.34375 44.25V43.4688H4.17969C4.00625 43.9586 3.90625 44.4828 3.90625 45.0312H3.125ZM8.59375 48.1562C6.87031 48.1562 5.46875 46.7547 5.46875 45.0312C5.46875 43.3078 6.87031 41.9062 8.59375 41.9062C10.3172 41.9062 11.7188 43.3078 11.7188 45.0312C11.7188 46.7547 10.3172 48.1562 8.59375 48.1562ZM13.2812 45.0312C13.2812 44.4828 13.1812 43.9586 13.0078 43.4688H19.8047C19.6313 43.9586 19.5312 44.4828 19.5312 45.0312H13.2812ZM24.2188 48.1562C22.4953 48.1562 21.0938 46.7547 21.0938 45.0312C21.0938 43.3078 22.4953 41.9062 24.2188 41.9062C25.9422 41.9062 27.3438 43.3078 27.3438 45.0312C27.3438 46.7547 25.9422 48.1562 24.2188 48.1562ZM29.6875 45.0312H28.9062C28.9062 44.4828 28.8063 43.9586 28.6328 43.4688H30.4688V44.25C30.4688 44.6813 30.1187 45.0312 29.6875 45.0312ZM47.6562 43.4688H32.0312V39.2203C32.0312 38.143 31.3008 37.2078 30.2563 36.9469L28.6906 36.5555L26.9055 32.3891C26.5352 31.5266 25.6898 30.9688 24.7516 30.9688H11.7188V24.7188H13.2812V27.8438H33.5938V4.40625H13.2812V13.7812H11.7188V2.84375H47.6562V43.4688Z" fill="white"/>
<path d="M49.2188 1.28125H10.1562V13.7812H7.03125C5.73906 13.7812 4.6875 14.8328 4.6875 16.125C4.6875 16.4 4.74375 16.6609 4.83125 16.9062H4.6875C2.53359 16.9062 0.78125 18.6586 0.78125 20.8125C0.78125 22.9664 2.53359 24.7188 4.6875 24.7188H10.1562V31.2094C9.6625 31.4516 9.25859 31.8625 9.03281 32.3891L7.27109 36.4992L4.20312 36.8828C2.25234 37.1266 0.78125 38.793 0.78125 40.7586V44.25C0.78125 45.5422 1.83281 46.5938 3.125 46.5938H4.17969C4.825 48.4117 6.55703 49.7188 8.59375 49.7188C10.6305 49.7188 12.3625 48.4117 13.0078 46.5938H19.8047C20.45 48.4117 22.182 49.7188 24.2188 49.7188C26.2555 49.7188 27.9875 48.4117 28.6328 46.5938H29.6875C30.7047 46.5938 31.5641 45.9383 31.8875 45.0312H49.2188V1.28125ZM6.25 16.125C6.25 15.6945 6.6 15.3438 7.03125 15.3438H13.2812C13.7125 15.3438 14.0625 15.6945 14.0625 16.125C14.0625 16.5555 13.7125 16.9062 13.2812 16.9062H7.03125C6.6 16.9062 6.25 16.5555 6.25 16.125ZM13.2812 18.4688H22.6562V23.1562H10.1562V18.4688H13.2812ZM24.2188 18.8148L28.682 20.4883C28.8164 20.5391 28.9062 20.6688 28.9062 20.8125C28.9062 20.9562 28.8164 21.0859 28.6813 21.1367L24.2188 22.8102V18.8148ZM14.8438 24.7188H23.5797L29.2297 22.6C29.9703 22.3227 30.4688 21.6039 30.4688 20.8125C30.4688 20.0211 29.9703 19.3023 29.2305 19.025L23.5797 16.9062H15.4812C15.5688 16.6609 15.625 16.4 15.625 16.125C15.625 15.4352 15.3195 14.8203 14.8438 14.3906V5.96875H32.0312V26.2812H14.8438V24.7188ZM2.34375 20.8125C2.34375 19.5203 3.39531 18.4688 4.6875 18.4688H7.03125H8.59375V23.1562H4.6875C3.39531 23.1562 2.34375 22.1047 2.34375 20.8125ZM4.39687 38.4336L8.35391 37.9383L10.468 33.0055C10.5922 32.7172 10.8734 32.5312 11.1859 32.5312H24.7508C25.0633 32.5312 25.3453 32.7172 25.4687 33.0039L27.5594 37.882L29.8766 38.4609C30.225 38.5492 30.4688 38.8609 30.4688 39.2203V41.9062H27.7031C27.1586 41.2992 26.4609 40.8336 25.668 40.5758L24.0477 34.0938H12.0172L8.88516 40.3586C8.78828 40.3523 8.69219 40.3438 8.59375 40.3438C7.21016 40.3438 5.96875 40.95 5.10938 41.9062H2.34375V40.7586C2.34375 39.5789 3.22656 38.5797 4.39687 38.4336ZM20.7344 41.9062H17.9688V35.6562H22.8273L24.0023 40.3547C22.7062 40.4141 21.5484 41 20.7344 41.9062ZM10.4477 40.7273L12.9828 35.6562H16.4062V41.9062H12.0781C11.6273 41.4047 11.0742 40.9984 10.4477 40.7273ZM3.125 45.0312C2.69375 45.0312 2.34375 44.6813 2.34375 44.25V43.4688H4.17969C4.00625 43.9586 3.90625 44.4828 3.90625 45.0312H3.125ZM8.59375 48.1562C6.87031 48.1562 5.46875 46.7547 5.46875 45.0312C5.46875 43.3078 6.87031 41.9062 8.59375 41.9062C10.3172 41.9062 11.7188 43.3078 11.7188 45.0312C11.7188 46.7547 10.3172 48.1562 8.59375 48.1562ZM13.2812 45.0312C13.2812 44.4828 13.1812 43.9586 13.0078 43.4688H19.8047C19.6313 43.9586 19.5312 44.4828 19.5312 45.0312H13.2812ZM24.2188 48.1562C22.4953 48.1562 21.0938 46.7547 21.0938 45.0312C21.0938 43.3078 22.4953 41.9062 24.2188 41.9062C25.9422 41.9062 27.3438 43.3078 27.3438 45.0312C27.3438 46.7547 25.9422 48.1562 24.2188 48.1562ZM29.6875 45.0312H28.9062C28.9062 44.4828 28.8063 43.9586 28.6328 43.4688H30.4688V44.25C30.4688 44.6813 30.1187 45.0312 29.6875 45.0312ZM47.6562 43.4688H32.0312V39.2203C32.0312 38.143 31.3008 37.2078 30.2563 36.9469L28.6906 36.5555L26.9055 32.3891C26.5352 31.5266 25.6898 30.9688 24.7516 30.9688H11.7188V24.7188H13.2812V27.8438H33.5938V4.40625H13.2812V13.7812H11.7188V2.84375H47.6562V43.4688Z" fill="url(#paint0_radial_1110_2324)"/>
<path d="M42.1875 21.5938H39.0625C37.7703 21.5938 36.7188 20.5422 36.7188 19.25H35.1562C35.1562 21.4039 36.9086 23.1562 39.0625 23.1562H39.8438V24.7188H41.4062V23.1562H42.1875C44.3414 23.1562 46.0938 21.4039 46.0938 19.25C46.0938 17.0961 44.3414 15.3438 42.1875 15.3438H39.0625C37.7703 15.3438 36.7188 14.2922 36.7188 13C36.7188 11.7078 37.7703 10.6562 39.0625 10.6562H42.1875C43.4797 10.6562 44.5312 11.7078 44.5312 13H46.0938C46.0938 10.8461 44.3414 9.09375 42.1875 9.09375H41.4062V7.53125H39.8438V9.09375H39.0625C36.9086 9.09375 35.1562 10.8461 35.1562 13C35.1562 15.1539 36.9086 16.9062 39.0625 16.9062H42.1875C43.4797 16.9062 44.5312 17.9578 44.5312 19.25C44.5312 20.5422 43.4797 21.5938 42.1875 21.5938Z" fill="white"/>
<path d="M42.1875 21.5938H39.0625C37.7703 21.5938 36.7188 20.5422 36.7188 19.25H35.1562C35.1562 21.4039 36.9086 23.1562 39.0625 23.1562H39.8438V24.7188H41.4062V23.1562H42.1875C44.3414 23.1562 46.0938 21.4039 46.0938 19.25C46.0938 17.0961 44.3414 15.3438 42.1875 15.3438H39.0625C37.7703 15.3438 36.7188 14.2922 36.7188 13C36.7188 11.7078 37.7703 10.6562 39.0625 10.6562H42.1875C43.4797 10.6562 44.5312 11.7078 44.5312 13H46.0938C46.0938 10.8461 44.3414 9.09375 42.1875 9.09375H41.4062V7.53125H39.8438V9.09375H39.0625C36.9086 9.09375 35.1562 10.8461 35.1562 13C35.1562 15.1539 36.9086 16.9062 39.0625 16.9062H42.1875C43.4797 16.9062 44.5312 17.9578 44.5312 19.25C44.5312 20.5422 43.4797 21.5938 42.1875 21.5938Z" fill="url(#paint1_radial_1110_2324)"/>
<path d="M17.1875 7.53125H29.6875V9.09375H17.1875V7.53125Z" fill="white"/>
<path d="M17.1875 7.53125H29.6875V9.09375H17.1875V7.53125Z" fill="url(#paint2_radial_1110_2324)"/>
<path d="M17.1875 10.6562H29.6875V12.2188H17.1875V10.6562Z" fill="white"/>
<path d="M17.1875 10.6562H29.6875V12.2188H17.1875V10.6562Z" fill="url(#paint3_radial_1110_2324)"/>
<path d="M17.1875 13.7812H29.6875V15.3438H17.1875V13.7812Z" fill="white"/>
<path d="M17.1875 13.7812H29.6875V15.3438H17.1875V13.7812Z" fill="url(#paint4_radial_1110_2324)"/>
<path d="M33.5938 40.3438H42.9688V41.9062H33.5938V40.3438Z" fill="white"/>
<path d="M33.5938 40.3438H42.9688V41.9062H33.5938V40.3438Z" fill="url(#paint5_radial_1110_2324)"/>
<path d="M44.5312 40.3438H46.0938V41.9062H44.5312V40.3438Z" fill="white"/>
<path d="M44.5312 40.3438H46.0938V41.9062H44.5312V40.3438Z" fill="url(#paint6_radial_1110_2324)"/>
<path d="M33.5938 37.2188H46.0938V38.7812H33.5938V37.2188Z" fill="white"/>
<path d="M33.5938 37.2188H46.0938V38.7812H33.5938V37.2188Z" fill="url(#paint7_radial_1110_2324)"/>
<path d="M33.5938 34.0938H35.1562V35.6562H33.5938V34.0938Z" fill="white"/>
<path d="M33.5938 34.0938H35.1562V35.6562H33.5938V34.0938Z" fill="url(#paint8_radial_1110_2324)"/>
<path d="M36.7188 34.0938H46.0938V35.6562H36.7188V34.0938Z" fill="white"/>
<path d="M36.7188 34.0938H46.0938V35.6562H36.7188V34.0938Z" fill="url(#paint9_radial_1110_2324)"/>
<path d="M33.5938 30.9688H46.0938V32.5312H33.5938V30.9688Z" fill="white"/>
<path d="M33.5938 30.9688H46.0938V32.5312H33.5938V30.9688Z" fill="url(#paint10_radial_1110_2324)"/>
<defs>
<radialGradient id="paint0_radial_1110_2324" cx="0" cy="0" r="1" gradientUnits="userSpaceOnUse" gradientTransform="translate(-1.55093 -5.37225) rotate(52.6545) scale(83.6927 120.675)">
<stop offset="0.151042" stop-color="#33A6FF"/>
<stop offset="0.907346" stop-color="#36C27F"/>
</radialGradient>
<radialGradient id="paint1_radial_1110_2324" cx="0" cy="0" r="1" gradientUnits="userSpaceOnUse" gradientTransform="translate(34.6296 5.17033) rotate(64.0998) scale(26.2454 30.8334)">
<stop offset="0.151042" stop-color="#33A6FF"/>
<stop offset="0.907346" stop-color="#36C27F"/>
</radialGradient>
<radialGradient id="paint2_radial_1110_2324" cx="0" cy="0" r="1" gradientUnits="userSpaceOnUse" gradientTransform="translate(16.5856 7.31662) rotate(9.30332) scale(13.2765 6.33272)">
<stop offset="0.151042" stop-color="#33A6FF"/>
<stop offset="0.907346" stop-color="#36C27F"/>
</radialGradient>
<radialGradient id="paint3_radial_1110_2324" cx="0" cy="0" r="1" gradientUnits="userSpaceOnUse" gradientTransform="translate(16.5856 10.4416) rotate(9.30332) scale(13.2765 6.33272)">
<stop offset="0.151042" stop-color="#33A6FF"/>
<stop offset="0.907346" stop-color="#36C27F"/>
</radialGradient>
<radialGradient id="paint4_radial_1110_2324" cx="0" cy="0" r="1" gradientUnits="userSpaceOnUse" gradientTransform="translate(16.5856 13.5666) rotate(9.30332) scale(13.2765 6.33272)">
<stop offset="0.151042" stop-color="#33A6FF"/>
<stop offset="0.907346" stop-color="#36C27F"/>
</radialGradient>
<radialGradient id="paint5_radial_1110_2324" cx="0" cy="0" r="1" gradientUnits="userSpaceOnUse" gradientTransform="translate(33.1424 40.1291) rotate(12.3211) scale(10.0581 6.26932)">
<stop offset="0.151042" stop-color="#33A6FF"/>
<stop offset="0.907346" stop-color="#36C27F"/>
</radialGradient>
<radialGradient id="paint6_radial_1110_2324" cx="0" cy="0" r="1" gradientUnits="userSpaceOnUse" gradientTransform="translate(44.456 40.1291) rotate(52.6545) scale(2.69976 3.89276)">
<stop offset="0.151042" stop-color="#33A6FF"/>
<stop offset="0.907346" stop-color="#36C27F"/>
</radialGradient>
<radialGradient id="paint7_radial_1110_2324" cx="0" cy="0" r="1" gradientUnits="userSpaceOnUse" gradientTransform="translate(32.9919 37.0041) rotate(9.30332) scale(13.2765 6.33272)">
<stop offset="0.151042" stop-color="#33A6FF"/>
<stop offset="0.907346" stop-color="#36C27F"/>
</radialGradient>
<radialGradient id="paint8_radial_1110_2324" cx="0" cy="0" r="1" gradientUnits="userSpaceOnUse" gradientTransform="translate(33.5185 33.8791) rotate(52.6545) scale(2.69976 3.89276)">
<stop offset="0.151042" stop-color="#33A6FF"/>
<stop offset="0.907346" stop-color="#36C27F"/>
</radialGradient>
<radialGradient id="paint9_radial_1110_2324" cx="0" cy="0" r="1" gradientUnits="userSpaceOnUse" gradientTransform="translate(36.2674 33.8791) rotate(12.3211) scale(10.0581 6.26932)">
<stop offset="0.151042" stop-color="#33A6FF"/>
<stop offset="0.907346" stop-color="#36C27F"/>
</radialGradient>
<radialGradient id="paint10_radial_1110_2324" cx="0" cy="0" r="1" gradientUnits="userSpaceOnUse" gradientTransform="translate(32.9919 30.7541) rotate(9.30332) scale(13.2765 6.33272)">
<stop offset="0.151042" stop-color="#33A6FF"/>
<stop offset="0.907346" stop-color="#36C27F"/>
</radialGradient>
</defs>
</svg>
