<svg width="50" height="51" viewBox="0 0 50 51" fill="none" xmlns="http://www.w3.org/2000/svg">
<path d="M46.875 34.875H44.5312V29.4062C44.5312 29.1991 44.4489 29.0003 44.3024 28.8538C44.1559 28.7073 43.9572 28.625 43.75 28.625H25.7812C25.5741 28.625 25.3753 28.7073 25.2288 28.8538C25.0823 29.0003 25 29.1991 25 29.4062V35.6562C25 35.8634 25.0823 36.0622 25.2288 36.2087C25.3753 36.3552 25.5741 36.4375 25.7812 36.4375H28.125V41.125H26.5625V38.7812C26.5625 38.574 26.4802 38.3753 26.3337 38.2288C26.1872 38.0823 25.9884 38 25.7812 38H20.3125V35.6562C20.3125 35.4491 20.2302 35.2503 20.0837 35.1038C19.9372 34.9573 19.7384 34.875 19.5312 34.875H11.7188C11.5115 34.875 11.3128 34.9573 11.1663 35.1038C11.0198 35.2503 10.9375 35.4491 10.9375 35.6562V38H2.34375C2.13655 38 1.93784 38.0823 1.79133 38.2288C1.64481 38.3753 1.5625 38.574 1.5625 38.7812V41.9062C1.5625 42.1135 1.64481 42.3122 1.79133 42.4587C1.93784 42.6052 2.13655 42.6875 2.34375 42.6875H3.125V44.25H2.34375C2.13655 44.25 1.93784 44.3323 1.79133 44.4788C1.64481 44.6253 1.5625 44.8241 1.5625 45.0312V48.1562C1.5625 48.3634 1.64481 48.5622 1.79133 48.7087C1.93784 48.8552 2.13655 48.9375 2.34375 48.9375H43.75C43.9572 48.9375 44.1559 48.8552 44.3024 48.7087C44.4489 48.5622 44.5312 48.3634 44.5312 48.1562V42.6875H46.875C47.0822 42.6875 47.2809 42.6052 47.4274 42.4587C47.5739 42.3122 47.6562 42.1135 47.6562 41.9062V35.6562C47.6562 35.4491 47.5739 35.2503 47.4274 35.1038C47.2809 34.9573 47.0822 34.875 46.875 34.875ZM42.9688 34.875H36.7188V30.1875H42.9688V34.875ZM36.7188 41.125V36.4375H38.2812V41.125H36.7188ZM20.3125 44.25V42.6875H26.5625V44.25H20.3125ZM18.75 42.6875V44.25H12.5V42.6875H18.75ZM10.9375 41.125V39.5625H17.1875V41.125H10.9375ZM10.9375 42.6875V44.25H4.6875V42.6875H10.9375ZM17.1875 45.8125V47.375H10.9375V45.8125H17.1875ZM18.75 45.8125H25V47.375H18.75V45.8125ZM26.5625 45.8125H27.3438C27.5509 45.8125 27.7497 45.7302 27.8962 45.5837C28.0427 45.4372 28.125 45.2384 28.125 45.0312V42.6875H32.0312V47.375H26.5625V45.8125ZM33.5938 42.6875H35.1562V47.375H33.5938V42.6875ZM33.5938 34.875V30.1875H35.1562V34.875H33.5938ZM26.5625 30.1875H32.0312V34.875H26.5625V30.1875ZM29.6875 36.4375H35.1562V41.125H29.6875V36.4375ZM25 41.125H18.75V39.5625H25V41.125ZM12.5 36.4375H18.75V38H12.5V36.4375ZM3.125 39.5625H9.375V41.125H3.125V39.5625ZM3.125 45.8125H9.375V47.375H3.125V45.8125ZM42.9688 47.375H36.7188V42.6875H42.9688V47.375ZM46.0938 41.125H39.8438V36.4375H46.0938V41.125Z" fill="white"/>
<path d="M46.875 34.875H44.5312V29.4062C44.5312 29.1991 44.4489 29.0003 44.3024 28.8538C44.1559 28.7073 43.9572 28.625 43.75 28.625H25.7812C25.5741 28.625 25.3753 28.7073 25.2288 28.8538C25.0823 29.0003 25 29.1991 25 29.4062V35.6562C25 35.8634 25.0823 36.0622 25.2288 36.2087C25.3753 36.3552 25.5741 36.4375 25.7812 36.4375H28.125V41.125H26.5625V38.7812C26.5625 38.574 26.4802 38.3753 26.3337 38.2288C26.1872 38.0823 25.9884 38 25.7812 38H20.3125V35.6562C20.3125 35.4491 20.2302 35.2503 20.0837 35.1038C19.9372 34.9573 19.7384 34.875 19.5312 34.875H11.7188C11.5115 34.875 11.3128 34.9573 11.1663 35.1038C11.0198 35.2503 10.9375 35.4491 10.9375 35.6562V38H2.34375C2.13655 38 1.93784 38.0823 1.79133 38.2288C1.64481 38.3753 1.5625 38.574 1.5625 38.7812V41.9062C1.5625 42.1135 1.64481 42.3122 1.79133 42.4587C1.93784 42.6052 2.13655 42.6875 2.34375 42.6875H3.125V44.25H2.34375C2.13655 44.25 1.93784 44.3323 1.79133 44.4788C1.64481 44.6253 1.5625 44.8241 1.5625 45.0312V48.1562C1.5625 48.3634 1.64481 48.5622 1.79133 48.7087C1.93784 48.8552 2.13655 48.9375 2.34375 48.9375H43.75C43.9572 48.9375 44.1559 48.8552 44.3024 48.7087C44.4489 48.5622 44.5312 48.3634 44.5312 48.1562V42.6875H46.875C47.0822 42.6875 47.2809 42.6052 47.4274 42.4587C47.5739 42.3122 47.6562 42.1135 47.6562 41.9062V35.6562C47.6562 35.4491 47.5739 35.2503 47.4274 35.1038C47.2809 34.9573 47.0822 34.875 46.875 34.875ZM42.9688 34.875H36.7188V30.1875H42.9688V34.875ZM36.7188 41.125V36.4375H38.2812V41.125H36.7188ZM20.3125 44.25V42.6875H26.5625V44.25H20.3125ZM18.75 42.6875V44.25H12.5V42.6875H18.75ZM10.9375 41.125V39.5625H17.1875V41.125H10.9375ZM10.9375 42.6875V44.25H4.6875V42.6875H10.9375ZM17.1875 45.8125V47.375H10.9375V45.8125H17.1875ZM18.75 45.8125H25V47.375H18.75V45.8125ZM26.5625 45.8125H27.3438C27.5509 45.8125 27.7497 45.7302 27.8962 45.5837C28.0427 45.4372 28.125 45.2384 28.125 45.0312V42.6875H32.0312V47.375H26.5625V45.8125ZM33.5938 42.6875H35.1562V47.375H33.5938V42.6875ZM33.5938 34.875V30.1875H35.1562V34.875H33.5938ZM26.5625 30.1875H32.0312V34.875H26.5625V30.1875ZM29.6875 36.4375H35.1562V41.125H29.6875V36.4375ZM25 41.125H18.75V39.5625H25V41.125ZM12.5 36.4375H18.75V38H12.5V36.4375ZM3.125 39.5625H9.375V41.125H3.125V39.5625ZM3.125 45.8125H9.375V47.375H3.125V45.8125ZM42.9688 47.375H36.7188V42.6875H42.9688V47.375ZM46.0938 41.125H39.8438V36.4375H46.0938V41.125Z" fill="url(#paint0_radial_1110_331)"/>
<path d="M11.7188 33.3125V24.7188C11.7187 24.5116 11.6364 24.3128 11.4899 24.1663C11.3434 24.0198 11.1447 23.9375 10.9375 23.9375H7.8125C7.6053 23.9375 7.40659 24.0198 7.26008 24.1663C7.11356 24.3128 7.03125 24.5116 7.03125 24.7188V36.4375H8.59375V25.5H10.1562V33.3125H11.7188Z" fill="white"/>
<path d="M11.7188 33.3125V24.7188C11.7187 24.5116 11.6364 24.3128 11.4899 24.1663C11.3434 24.0198 11.1447 23.9375 10.9375 23.9375H7.8125C7.6053 23.9375 7.40659 24.0198 7.26008 24.1663C7.11356 24.3128 7.03125 24.5116 7.03125 24.7188V36.4375H8.59375V25.5H10.1562V33.3125H11.7188Z" fill="url(#paint1_radial_1110_331)"/>
<path d="M19.5312 33.3125V20.8125C19.5312 20.6053 19.4489 20.4066 19.3024 20.2601C19.1559 20.1136 18.9572 20.0313 18.75 20.0312H15.625C15.4178 20.0313 15.2191 20.1136 15.0726 20.2601C14.9261 20.4066 14.8438 20.6053 14.8438 20.8125V33.3125H16.4062V21.5938H17.9688V33.3125H19.5312Z" fill="white"/>
<path d="M19.5312 33.3125V20.8125C19.5312 20.6053 19.4489 20.4066 19.3024 20.2601C19.1559 20.1136 18.9572 20.0313 18.75 20.0312H15.625C15.4178 20.0313 15.2191 20.1136 15.0726 20.2601C14.9261 20.4066 14.8438 20.6053 14.8438 20.8125V33.3125H16.4062V21.5938H17.9688V33.3125H19.5312Z" fill="url(#paint2_radial_1110_331)"/>
<path d="M27.3438 27.0625V23.1562C27.3437 22.9491 27.2614 22.7503 27.1149 22.6038C26.9684 22.4573 26.7697 22.375 26.5625 22.375H23.4375C23.2303 22.375 23.0316 22.4573 22.8851 22.6038C22.7386 22.7503 22.6563 22.9491 22.6562 23.1562V27.0625H24.2188V23.9375H25.7812V27.0625H27.3438Z" fill="white"/>
<path d="M27.3438 27.0625V23.1562C27.3437 22.9491 27.2614 22.7503 27.1149 22.6038C26.9684 22.4573 26.7697 22.375 26.5625 22.375H23.4375C23.2303 22.375 23.0316 22.4573 22.8851 22.6038C22.7386 22.7503 22.6563 22.9491 22.6562 23.1562V27.0625H24.2188V23.9375H25.7812V27.0625H27.3438Z" fill="url(#paint3_radial_1110_331)"/>
<path d="M35.1562 27.0625V20.8125C35.1562 20.6053 35.0739 20.4066 34.9274 20.2601C34.7809 20.1136 34.5822 20.0313 34.375 20.0312H31.25C31.0428 20.0313 30.8441 20.1136 30.6976 20.2601C30.5511 20.4066 30.4688 20.6053 30.4688 20.8125V27.0625H32.0312V21.5938H33.5938V27.0625H35.1562Z" fill="white"/>
<path d="M35.1562 27.0625V20.8125C35.1562 20.6053 35.0739 20.4066 34.9274 20.2601C34.7809 20.1136 34.5822 20.0313 34.375 20.0312H31.25C31.0428 20.0313 30.8441 20.1136 30.6976 20.2601C30.5511 20.4066 30.4688 20.6053 30.4688 20.8125V27.0625H32.0312V21.5938H33.5938V27.0625H35.1562Z" fill="url(#paint4_radial_1110_331)"/>
<path d="M42.9688 27.0625V14.5625C42.9687 14.3553 42.8864 14.1566 42.7399 14.0101C42.5934 13.8636 42.3947 13.7813 42.1875 13.7812H39.0625C38.8553 13.7813 38.6566 13.8636 38.5101 14.0101C38.3636 14.1566 38.2813 14.3553 38.2812 14.5625V27.0625H39.8438V15.3438H41.4062V27.0625H42.9688Z" fill="white"/>
<path d="M42.9688 27.0625V14.5625C42.9687 14.3553 42.8864 14.1566 42.7399 14.0101C42.5934 13.8636 42.3947 13.7813 42.1875 13.7812H39.0625C38.8553 13.7813 38.6566 13.8636 38.5101 14.0101C38.3636 14.1566 38.2813 14.3553 38.2812 14.5625V27.0625H39.8438V15.3438H41.4062V27.0625H42.9688Z" fill="url(#paint5_radial_1110_331)"/>
<path d="M9.60357 22.1462C9.75009 22.2927 9.94882 22.375 10.156 22.375C10.3632 22.375 10.562 22.2927 10.7085 22.1462L19.531 13.3236L26.7911 20.5837C26.9376 20.7302 27.1363 20.8125 27.3435 20.8125C27.5507 20.8125 27.7495 20.7302 27.896 20.5837L38.281 10.1986V11.4375C38.281 11.6447 38.3633 11.8434 38.5099 11.9899C38.6564 12.1364 38.8551 12.2187 39.0623 12.2188H42.1873C42.3945 12.2187 42.5932 12.1364 42.7397 11.9899C42.8862 11.8434 42.9685 11.6447 42.9685 11.4375V2.84375C42.9685 2.63655 42.8862 2.43784 42.7397 2.29133C42.5932 2.14481 42.3945 2.0625 42.1873 2.0625H33.5935C33.3863 2.0625 33.1876 2.14481 33.0411 2.29133C32.8946 2.43784 32.8123 2.63655 32.8123 2.84375V5.96875C32.8123 6.17595 32.8946 6.37466 33.0411 6.52117C33.1876 6.66769 33.3863 6.75 33.5935 6.75H34.8324L27.3435 14.2389L20.0835 6.97883C19.937 6.83233 19.7382 6.75002 19.531 6.75002C19.3238 6.75002 19.1251 6.83233 18.9786 6.97883L7.25982 18.6976C7.11331 18.8441 7.03101 19.0428 7.03101 19.25C7.03101 19.4572 7.11331 19.6559 7.25982 19.8024L9.60357 22.1462ZM19.531 8.63613L26.7911 15.8962C26.9376 16.0427 27.1363 16.125 27.3435 16.125C27.5507 16.125 27.7495 16.0427 27.896 15.8962L37.271 6.52117C37.3802 6.4119 37.4546 6.27269 37.4848 6.12115C37.5149 5.96961 37.4994 5.81253 37.4403 5.66978C37.3811 5.52704 37.281 5.40503 37.1525 5.31918C37.0241 5.23334 36.873 5.18751 36.7185 5.1875H34.3748V3.625H41.406V10.6562H39.8435V8.3125C39.8435 8.15798 39.7977 8.00693 39.7119 7.87845C39.626 7.74997 39.504 7.64983 39.3612 7.5907C39.2185 7.53157 39.0614 7.5161 38.9098 7.54625C38.7583 7.5764 38.6191 7.65082 38.5098 7.76008L27.3435 18.9264L20.0835 11.6663C19.937 11.5198 19.7382 11.4375 19.531 11.4375C19.3238 11.4375 19.1251 11.5198 18.9786 11.6663L10.156 20.4889L8.91711 19.25L19.531 8.63613Z" fill="white"/>
<path d="M9.60357 22.1462C9.75009 22.2927 9.94882 22.375 10.156 22.375C10.3632 22.375 10.562 22.2927 10.7085 22.1462L19.531 13.3236L26.7911 20.5837C26.9376 20.7302 27.1363 20.8125 27.3435 20.8125C27.5507 20.8125 27.7495 20.7302 27.896 20.5837L38.281 10.1986V11.4375C38.281 11.6447 38.3633 11.8434 38.5099 11.9899C38.6564 12.1364 38.8551 12.2187 39.0623 12.2188H42.1873C42.3945 12.2187 42.5932 12.1364 42.7397 11.9899C42.8862 11.8434 42.9685 11.6447 42.9685 11.4375V2.84375C42.9685 2.63655 42.8862 2.43784 42.7397 2.29133C42.5932 2.14481 42.3945 2.0625 42.1873 2.0625H33.5935C33.3863 2.0625 33.1876 2.14481 33.0411 2.29133C32.8946 2.43784 32.8123 2.63655 32.8123 2.84375V5.96875C32.8123 6.17595 32.8946 6.37466 33.0411 6.52117C33.1876 6.66769 33.3863 6.75 33.5935 6.75H34.8324L27.3435 14.2389L20.0835 6.97883C19.937 6.83233 19.7382 6.75002 19.531 6.75002C19.3238 6.75002 19.1251 6.83233 18.9786 6.97883L7.25982 18.6976C7.11331 18.8441 7.03101 19.0428 7.03101 19.25C7.03101 19.4572 7.11331 19.6559 7.25982 19.8024L9.60357 22.1462ZM19.531 8.63613L26.7911 15.8962C26.9376 16.0427 27.1363 16.125 27.3435 16.125C27.5507 16.125 27.7495 16.0427 27.896 15.8962L37.271 6.52117C37.3802 6.4119 37.4546 6.27269 37.4848 6.12115C37.5149 5.96961 37.4994 5.81253 37.4403 5.66978C37.3811 5.52704 37.281 5.40503 37.1525 5.31918C37.0241 5.23334 36.873 5.18751 36.7185 5.1875H34.3748V3.625H41.406V10.6562H39.8435V8.3125C39.8435 8.15798 39.7977 8.00693 39.7119 7.87845C39.626 7.74997 39.504 7.64983 39.3612 7.5907C39.2185 7.53157 39.0614 7.5161 38.9098 7.54625C38.7583 7.5764 38.6191 7.65082 38.5098 7.76008L27.3435 18.9264L20.0835 11.6663C19.937 11.5198 19.7382 11.4375 19.531 11.4375C19.3238 11.4375 19.1251 11.5198 18.9786 11.6663L10.156 20.4889L8.91711 19.25L19.531 8.63613Z" fill="url(#paint6_radial_1110_331)"/>
<defs>
<radialGradient id="paint0_radial_1110_331" cx="0" cy="0" r="1" gradientUnits="userSpaceOnUse" gradientTransform="translate(-0.656831 25.8348) rotate(30.0073) scale(55.7912 72.2408)">
<stop offset="0.151042" stop-color="#33A6FF"/>
<stop offset="0.907346" stop-color="#36C27F"/>
</radialGradient>
<radialGradient id="paint1_radial_1110_331" cx="0" cy="0" r="1" gradientUnits="userSpaceOnUse" gradientTransform="translate(6.80556 22.2205) rotate(74.0318) scale(17.8594 14.123)">
<stop offset="0.151042" stop-color="#33A6FF"/>
<stop offset="0.907346" stop-color="#36C27F"/>
</radialGradient>
<radialGradient id="paint2_radial_1110_331" cx="0" cy="0" r="1" gradientUnits="userSpaceOnUse" gradientTransform="translate(14.6181 18.2069) rotate(74.9271) scale(18.8935 14.1844)">
<stop offset="0.151042" stop-color="#33A6FF"/>
<stop offset="0.907346" stop-color="#36C27F"/>
</radialGradient>
<radialGradient id="paint3_radial_1110_331" cx="0" cy="0" r="1" gradientUnits="userSpaceOnUse" gradientTransform="translate(22.4306 21.7311) rotate(52.6545) scale(8.09929 11.6783)">
<stop offset="0.151042" stop-color="#33A6FF"/>
<stop offset="0.907346" stop-color="#36C27F"/>
</radialGradient>
<radialGradient id="paint4_radial_1110_331" cx="0" cy="0" r="1" gradientUnits="userSpaceOnUse" gradientTransform="translate(30.2431 19.0654) rotate(63.0375) scale(10.8362 13.0931)">
<stop offset="0.151042" stop-color="#33A6FF"/>
<stop offset="0.907346" stop-color="#36C27F"/>
</radialGradient>
<radialGradient id="paint5_radial_1110_331" cx="0" cy="0" r="1" gradientUnits="userSpaceOnUse" gradientTransform="translate(38.0556 11.9569) rotate(74.9271) scale(18.8935 14.1844)">
<stop offset="0.151042" stop-color="#33A6FF"/>
<stop offset="0.907346" stop-color="#36C27F"/>
</radialGradient>
<radialGradient id="paint6_radial_1110_331" cx="0" cy="0" r="1" gradientUnits="userSpaceOnUse" gradientTransform="translate(5.30068 -0.727678) rotate(36.5285) scale(46.8762 67.0351)">
<stop offset="0.151042" stop-color="#33A6FF"/>
<stop offset="0.907346" stop-color="#36C27F"/>
</radialGradient>
</defs>
</svg>
