<svg width="50" height="50" viewBox="0 0 50 50" fill="none" xmlns="http://www.w3.org/2000/svg">
<path d="M46.0938 1.5625H5.46875C5.26155 1.5625 5.06284 1.64481 4.91633 1.79133C4.76981 1.93784 4.6875 2.13655 4.6875 2.34375V14.0625C4.6875 14.2697 4.76981 14.4684 4.91633 14.6149C5.06284 14.7614 5.26155 14.8437 5.46875 14.8438H14.0625V18.75C14.0625 18.9045 14.1083 19.0556 14.1942 19.1841C14.28 19.3125 14.402 19.4127 14.5448 19.4718C14.6876 19.5309 14.8446 19.5464 14.9962 19.5162C15.1477 19.4861 15.287 19.4117 15.3962 19.3024L19.8548 14.8438H30.1452L34.6038 19.3024C34.713 19.4117 34.8522 19.4861 35.0038 19.5163C35.1554 19.5464 35.3124 19.5309 35.4552 19.4718C35.598 19.4127 35.72 19.3125 35.8058 19.1841C35.8917 19.0556 35.9375 18.9045 35.9375 18.75V14.8438H46.0938C46.3009 14.8437 46.4997 14.7614 46.6462 14.6149C46.7927 14.4684 46.875 14.2697 46.875 14.0625V2.34375C46.875 2.13655 46.7927 1.93784 46.6462 1.79133C46.4997 1.64481 46.3009 1.5625 46.0938 1.5625ZM45.3125 13.2813H35.1562C34.9491 13.2813 34.7503 13.3636 34.6038 13.5101C34.4573 13.6566 34.375 13.8553 34.375 14.0625V16.8639L31.0212 13.5101C30.8747 13.3636 30.676 13.2813 30.4688 13.2813H19.5312C19.324 13.2813 19.1253 13.3636 18.9788 13.5101L15.625 16.8639V14.0625C15.625 13.8553 15.5427 13.6566 15.3962 13.5101C15.2497 13.3636 15.051 13.2813 14.8438 13.2813H6.25V3.125H45.3125V13.2813Z" fill="white"/>
<path d="M46.0938 1.5625H5.46875C5.26155 1.5625 5.06284 1.64481 4.91633 1.79133C4.76981 1.93784 4.6875 2.13655 4.6875 2.34375V14.0625C4.6875 14.2697 4.76981 14.4684 4.91633 14.6149C5.06284 14.7614 5.26155 14.8437 5.46875 14.8438H14.0625V18.75C14.0625 18.9045 14.1083 19.0556 14.1942 19.1841C14.28 19.3125 14.402 19.4127 14.5448 19.4718C14.6876 19.5309 14.8446 19.5464 14.9962 19.5162C15.1477 19.4861 15.287 19.4117 15.3962 19.3024L19.8548 14.8438H30.1452L34.6038 19.3024C34.713 19.4117 34.8522 19.4861 35.0038 19.5163C35.1554 19.5464 35.3124 19.5309 35.4552 19.4718C35.598 19.4127 35.72 19.3125 35.8058 19.1841C35.8917 19.0556 35.9375 18.9045 35.9375 18.75V14.8438H46.0938C46.3009 14.8437 46.4997 14.7614 46.6462 14.6149C46.7927 14.4684 46.875 14.2697 46.875 14.0625V2.34375C46.875 2.13655 46.7927 1.93784 46.6462 1.79133C46.4997 1.64481 46.3009 1.5625 46.0938 1.5625ZM45.3125 13.2813H35.1562C34.9491 13.2813 34.7503 13.3636 34.6038 13.5101C34.4573 13.6566 34.375 13.8553 34.375 14.0625V16.8639L31.0212 13.5101C30.8747 13.3636 30.676 13.2813 30.4688 13.2813H19.5312C19.324 13.2813 19.1253 13.3636 18.9788 13.5101L15.625 16.8639V14.0625C15.625 13.8553 15.5427 13.6566 15.3962 13.5101C15.2497 13.3636 15.051 13.2813 14.8438 13.2813H6.25V3.125H45.3125V13.2813Z" fill="url(#paint0_radial_511_791)"/>
<path d="M14.8438 5.46875H11.7188V7.03125H14.8438V5.46875Z" fill="white"/>
<path d="M14.8438 5.46875H11.7188V7.03125H14.8438V5.46875Z" fill="url(#paint1_radial_511_791)"/>
<path d="M33.5938 5.46875H17.9688V7.03125H33.5938V5.46875Z" fill="white"/>
<path d="M33.5938 5.46875H17.9688V7.03125H33.5938V5.46875Z" fill="url(#paint2_radial_511_791)"/>
<path d="M42.9688 5.46875H35.1562V7.03125H42.9688V5.46875Z" fill="white"/>
<path d="M42.9688 5.46875H35.1562V7.03125H42.9688V5.46875Z" fill="url(#paint3_radial_511_791)"/>
<path d="M27.3438 9.375H8.59375V10.9375H27.3438V9.375Z" fill="white"/>
<path d="M27.3438 9.375H8.59375V10.9375H27.3438V9.375Z" fill="url(#paint4_radial_511_791)"/>
<path d="M39.0625 9.375H28.9062V10.9375H39.0625V9.375Z" fill="white"/>
<path d="M39.0625 9.375H28.9062V10.9375H39.0625V9.375Z" fill="url(#paint5_radial_511_791)"/>
<path d="M44.3805 32.9457C44.1703 31.6016 43.6283 30.3311 42.8036 29.2491C41.979 28.1671 40.8976 27.3077 39.6574 26.7486L37.4368 21.5672C37.3766 21.4267 37.2764 21.3069 37.1488 21.2228C37.0211 21.1386 36.8716 21.0938 36.7187 21.0938H29.6874V22.6562H31.2499V23.3413L30.4921 26.373C30.4633 26.4882 30.4611 26.6084 30.4857 26.7246C30.5103 26.8407 30.5611 26.9497 30.6342 27.0433C30.7072 27.1369 30.8007 27.2126 30.9074 27.2646C31.0141 27.3167 31.1312 27.3438 31.2499 27.3438H32.0312V28.9062C32.0313 29.1031 32.1057 29.2927 32.2397 29.4371C32.3736 29.5814 32.5571 29.6698 32.7535 29.6845L31.7488 32.1961C31.6021 32.5635 31.5121 32.9509 31.4817 33.3453L29.1919 36.093L22.5491 39.4145L17.5263 37.0964L17.7097 36.5922L21.7053 37.4814C21.8268 37.5084 21.9531 37.506 22.0735 37.4743C22.1939 37.4427 22.305 37.3827 22.3976 37.2994L28.9049 31.4429C29.3851 31.0107 29.6749 30.4061 29.7111 29.7611C29.7474 29.116 29.527 28.4828 29.0982 27.9996C28.6694 27.5164 28.0669 27.2223 27.4221 27.1816C26.7773 27.1408 26.1426 27.3567 25.6564 27.7822L24.9999 28.3565V28.125C24.9999 27.9178 24.9176 27.7191 24.7711 27.5726C24.6246 27.4261 24.4259 27.3438 24.2187 27.3438C24.0115 27.3438 23.8128 27.4261 23.6663 27.5726C23.5198 27.7191 23.4374 27.9178 23.4374 28.125V29.7235L21.0294 31.8307L17.6191 29.5572C17.7266 29.486 17.8148 29.3893 17.8758 29.2757C17.9368 29.1621 17.9687 29.0352 17.9687 28.9062V27.3438H18.7499C18.8687 27.3438 18.9858 27.3167 19.0925 27.2646C19.1992 27.2126 19.2927 27.1369 19.3657 27.0433C19.4388 26.9497 19.4896 26.8407 19.5142 26.7246C19.5388 26.6084 19.5366 26.4882 19.5078 26.373L18.7499 23.3413V22.6562H20.3124V21.0938H13.2812C13.1283 21.0938 12.9788 21.1386 12.8511 21.2228C12.7235 21.3069 12.6233 21.4267 12.5631 21.5672L10.3321 26.773L8.0089 27.9346C7.25148 28.3163 6.63818 28.9333 6.26094 29.6929C5.8837 30.4526 5.76283 31.3141 5.91645 32.1483L7.76143 41.9882C6.54148 43.62 5.81939 45.5698 5.68213 47.6026L7.241 47.7099C7.35659 45.9962 7.95969 44.3511 8.97922 42.9688H14.0624V47.6562H15.6249V42.0329L21.5967 44.5921C21.9178 44.7299 22.2638 44.8001 22.6132 44.7982C22.9626 44.7964 23.3079 44.7226 23.6275 44.5814L23.6279 44.5816L32.3586 40.5531C32.4423 40.5144 32.5185 40.4613 32.5837 40.3962L33.3828 39.597L34.3749 42.3252V47.6562H35.9374V46.2762C36.1469 46.6615 36.4565 46.9829 36.8336 47.2066C37.2107 47.4303 37.6412 47.548 38.0797 47.5471C38.1436 47.5471 38.2077 47.5446 38.2719 47.5396C38.6245 47.5122 38.9669 47.4085 39.2755 47.2358C39.5841 47.0632 39.8516 46.8256 40.0594 46.5395C40.0594 46.5395 40.8794 45.4122 40.8798 45.4116L41.773 44.1834C42.3382 45.2796 42.6737 46.4796 42.7589 47.7099L44.3178 47.6026C44.1997 45.8999 43.6732 44.2508 42.7829 42.7947L45.163 39.522C45.2842 39.3553 45.3347 39.1474 45.3034 38.9437L44.3805 32.9457ZM32.2505 25.7812L32.7891 23.627C32.8046 23.565 32.8125 23.5014 32.8124 23.4375V22.6562H36.2035L38.1665 27.2363L36.4049 29.585L35.1218 29.2643L36.4899 27.8962C36.6364 27.7496 36.7187 27.5509 36.7187 27.3437C36.7187 27.1365 36.6364 26.9378 36.4899 26.7913C36.3433 26.6448 36.1446 26.5625 35.9374 26.5625C35.7302 26.5625 35.5315 26.6448 35.385 26.7913L34.0514 28.125H33.5937V26.5625C33.5937 26.3553 33.5114 26.1566 33.3649 26.0101C33.2184 25.8636 33.0196 25.7813 32.8124 25.7812H32.2505ZM35.7034 41.4062L33.173 34.4479C32.9759 33.9065 32.9853 33.3113 33.1995 32.7764L34.0658 30.6108L35.977 31.0886L36.6649 41.4062H35.7034ZM15.331 36.0832L14.7202 35.3503L14.1478 31.0574L15.9341 30.6108L16.8004 32.7764C17.0145 33.3113 17.024 33.9063 16.8269 34.4478L16.1026 36.4393L15.331 36.0832ZM26.6853 28.958C26.8544 28.8108 27.0731 28.7331 27.2972 28.7405C27.5213 28.748 27.7343 28.8401 27.8933 28.9983C27.9782 29.0832 28.045 29.1845 28.0895 29.2961C28.134 29.4076 28.1553 29.5271 28.1521 29.6471C28.149 29.7672 28.1214 29.8853 28.0711 29.9944C28.0208 30.1035 27.9489 30.2011 27.8596 30.2815L26.4263 31.5715L25.1532 30.2985L26.6853 28.958ZM21.6082 33.4004L23.9747 31.3297L25.2633 32.6182L21.6516 35.8687L18.2482 35.1113L18.2953 34.9817C18.6238 34.0793 18.6081 33.0875 18.2511 32.1961L18.0658 31.7328L20.6603 33.4625C20.8032 33.5578 20.9735 33.6033 21.1448 33.5921C21.3161 33.5808 21.479 33.5135 21.6082 33.4004ZM13.7964 22.6562H17.1874V23.4375C17.1874 23.5014 17.1953 23.565 17.2108 23.627L17.7494 25.7812H17.1874C16.9802 25.7813 16.7815 25.8636 16.635 26.0101C16.4885 26.1566 16.4062 26.3553 16.4062 26.5625V28.125H15.9485L14.6149 26.7913C14.4684 26.6448 14.2697 26.5625 14.0625 26.5625C13.8553 26.5625 13.6566 26.6448 13.51 26.7913C13.3635 26.9378 13.2812 27.1365 13.2812 27.3437C13.2812 27.5509 13.3635 27.7496 13.51 27.8962L14.8781 29.2643L13.595 29.585L11.8334 27.2363L13.7964 22.6562ZM8.70776 29.3321L10.7037 28.3341L12.5338 30.7743L12.8437 33.0984L11.5376 31.5311L10.3373 32.5314L14.2436 37.2189C14.3178 37.308 14.411 37.3795 14.5163 37.4281L20.1321 40.0199L19.2079 41.8685L12.946 39.185L7.87475 34.1137L7.45224 31.8604C7.36004 31.3598 7.43255 30.8429 7.65891 30.3871C7.88526 29.9313 8.25327 29.5611 8.70776 29.3321ZM8.3847 36.8334L11.9475 40.3962C12.0178 40.4664 12.1008 40.5227 12.1922 40.5618L13.9386 41.3102L13.9514 41.4062H9.2421L8.3847 36.8334ZM22.2122 43.156L20.6465 42.485L21.5515 40.675L23.0154 41.3506C23.2512 41.4594 23.4347 41.6567 23.5262 41.8998C23.6176 42.1429 23.6097 42.4122 23.5042 42.6495C23.3986 42.8867 23.2038 43.0729 22.9621 43.1677C22.7203 43.2625 22.4509 43.2583 22.2122 43.156V43.156ZM31.5773 39.1928L25.1519 42.1584C25.1422 41.9009 25.0937 41.6465 25.0082 41.4035C24.86 40.9777 24.6009 40.5993 24.2576 40.3072L30.0369 37.4175C30.1332 37.3693 30.2186 37.3017 30.2876 37.2189L31.8405 35.3555L32.7936 37.9765L31.5773 39.1928ZM36.0448 43.743C36.0061 43.8011 35.9706 43.8604 35.9374 43.9207V42.9688H36.561L36.0448 43.743ZM38.1498 45.9819C38.0223 45.9927 37.894 45.9753 37.774 45.931C37.654 45.8867 37.5452 45.8166 37.4553 45.7255C37.3112 45.5807 37.2215 45.3906 37.2014 45.1873C37.1812 44.984 37.2319 44.78 37.3449 44.6097L37.8943 43.7856L39.214 45.0453L38.7958 45.6204C38.7213 45.7244 38.6247 45.8107 38.5131 45.8731C38.4014 45.9356 38.2774 45.9727 38.1498 45.9819H38.1498ZM40.1413 43.7704L38.7745 42.4658L41.275 38.7146C41.3851 38.5495 41.4282 38.3486 41.3956 38.1528L40.6144 33.4653L39.073 33.7222L39.8035 38.105L38.1738 40.5499L37.5175 30.7058L39.311 28.3144C40.2412 28.7901 41.0456 29.4793 41.6583 30.3255C42.271 31.1718 42.6746 32.1511 42.8361 33.1833L43.7101 38.8633L40.1413 43.7704Z" fill="white"/>
<path d="M44.3805 32.9457C44.1703 31.6016 43.6283 30.3311 42.8036 29.2491C41.979 28.1671 40.8976 27.3077 39.6574 26.7486L37.4368 21.5672C37.3766 21.4267 37.2764 21.3069 37.1488 21.2228C37.0211 21.1386 36.8716 21.0938 36.7187 21.0938H29.6874V22.6562H31.2499V23.3413L30.4921 26.373C30.4633 26.4882 30.4611 26.6084 30.4857 26.7246C30.5103 26.8407 30.5611 26.9497 30.6342 27.0433C30.7072 27.1369 30.8007 27.2126 30.9074 27.2646C31.0141 27.3167 31.1312 27.3438 31.2499 27.3438H32.0312V28.9062C32.0313 29.1031 32.1057 29.2927 32.2397 29.4371C32.3736 29.5814 32.5571 29.6698 32.7535 29.6845L31.7488 32.1961C31.6021 32.5635 31.5121 32.9509 31.4817 33.3453L29.1919 36.093L22.5491 39.4145L17.5263 37.0964L17.7097 36.5922L21.7053 37.4814C21.8268 37.5084 21.9531 37.506 22.0735 37.4743C22.1939 37.4427 22.305 37.3827 22.3976 37.2994L28.9049 31.4429C29.3851 31.0107 29.6749 30.4061 29.7111 29.7611C29.7474 29.116 29.527 28.4828 29.0982 27.9996C28.6694 27.5164 28.0669 27.2223 27.4221 27.1816C26.7773 27.1408 26.1426 27.3567 25.6564 27.7822L24.9999 28.3565V28.125C24.9999 27.9178 24.9176 27.7191 24.7711 27.5726C24.6246 27.4261 24.4259 27.3438 24.2187 27.3438C24.0115 27.3438 23.8128 27.4261 23.6663 27.5726C23.5198 27.7191 23.4374 27.9178 23.4374 28.125V29.7235L21.0294 31.8307L17.6191 29.5572C17.7266 29.486 17.8148 29.3893 17.8758 29.2757C17.9368 29.1621 17.9687 29.0352 17.9687 28.9062V27.3438H18.7499C18.8687 27.3438 18.9858 27.3167 19.0925 27.2646C19.1992 27.2126 19.2927 27.1369 19.3657 27.0433C19.4388 26.9497 19.4896 26.8407 19.5142 26.7246C19.5388 26.6084 19.5366 26.4882 19.5078 26.373L18.7499 23.3413V22.6562H20.3124V21.0938H13.2812C13.1283 21.0938 12.9788 21.1386 12.8511 21.2228C12.7235 21.3069 12.6233 21.4267 12.5631 21.5672L10.3321 26.773L8.0089 27.9346C7.25148 28.3163 6.63818 28.9333 6.26094 29.6929C5.8837 30.4526 5.76283 31.3141 5.91645 32.1483L7.76143 41.9882C6.54148 43.62 5.81939 45.5698 5.68213 47.6026L7.241 47.7099C7.35659 45.9962 7.95969 44.3511 8.97922 42.9688H14.0624V47.6562H15.6249V42.0329L21.5967 44.5921C21.9178 44.7299 22.2638 44.8001 22.6132 44.7982C22.9626 44.7964 23.3079 44.7226 23.6275 44.5814L23.6279 44.5816L32.3586 40.5531C32.4423 40.5144 32.5185 40.4613 32.5837 40.3962L33.3828 39.597L34.3749 42.3252V47.6562H35.9374V46.2762C36.1469 46.6615 36.4565 46.9829 36.8336 47.2066C37.2107 47.4303 37.6412 47.548 38.0797 47.5471C38.1436 47.5471 38.2077 47.5446 38.2719 47.5396C38.6245 47.5122 38.9669 47.4085 39.2755 47.2358C39.5841 47.0632 39.8516 46.8256 40.0594 46.5395C40.0594 46.5395 40.8794 45.4122 40.8798 45.4116L41.773 44.1834C42.3382 45.2796 42.6737 46.4796 42.7589 47.7099L44.3178 47.6026C44.1997 45.8999 43.6732 44.2508 42.7829 42.7947L45.163 39.522C45.2842 39.3553 45.3347 39.1474 45.3034 38.9437L44.3805 32.9457ZM32.2505 25.7812L32.7891 23.627C32.8046 23.565 32.8125 23.5014 32.8124 23.4375V22.6562H36.2035L38.1665 27.2363L36.4049 29.585L35.1218 29.2643L36.4899 27.8962C36.6364 27.7496 36.7187 27.5509 36.7187 27.3437C36.7187 27.1365 36.6364 26.9378 36.4899 26.7913C36.3433 26.6448 36.1446 26.5625 35.9374 26.5625C35.7302 26.5625 35.5315 26.6448 35.385 26.7913L34.0514 28.125H33.5937V26.5625C33.5937 26.3553 33.5114 26.1566 33.3649 26.0101C33.2184 25.8636 33.0196 25.7813 32.8124 25.7812H32.2505ZM35.7034 41.4062L33.173 34.4479C32.9759 33.9065 32.9853 33.3113 33.1995 32.7764L34.0658 30.6108L35.977 31.0886L36.6649 41.4062H35.7034ZM15.331 36.0832L14.7202 35.3503L14.1478 31.0574L15.9341 30.6108L16.8004 32.7764C17.0145 33.3113 17.024 33.9063 16.8269 34.4478L16.1026 36.4393L15.331 36.0832ZM26.6853 28.958C26.8544 28.8108 27.0731 28.7331 27.2972 28.7405C27.5213 28.748 27.7343 28.8401 27.8933 28.9983C27.9782 29.0832 28.045 29.1845 28.0895 29.2961C28.134 29.4076 28.1553 29.5271 28.1521 29.6471C28.149 29.7672 28.1214 29.8853 28.0711 29.9944C28.0208 30.1035 27.9489 30.2011 27.8596 30.2815L26.4263 31.5715L25.1532 30.2985L26.6853 28.958ZM21.6082 33.4004L23.9747 31.3297L25.2633 32.6182L21.6516 35.8687L18.2482 35.1113L18.2953 34.9817C18.6238 34.0793 18.6081 33.0875 18.2511 32.1961L18.0658 31.7328L20.6603 33.4625C20.8032 33.5578 20.9735 33.6033 21.1448 33.5921C21.3161 33.5808 21.479 33.5135 21.6082 33.4004ZM13.7964 22.6562H17.1874V23.4375C17.1874 23.5014 17.1953 23.565 17.2108 23.627L17.7494 25.7812H17.1874C16.9802 25.7813 16.7815 25.8636 16.635 26.0101C16.4885 26.1566 16.4062 26.3553 16.4062 26.5625V28.125H15.9485L14.6149 26.7913C14.4684 26.6448 14.2697 26.5625 14.0625 26.5625C13.8553 26.5625 13.6566 26.6448 13.51 26.7913C13.3635 26.9378 13.2812 27.1365 13.2812 27.3437C13.2812 27.5509 13.3635 27.7496 13.51 27.8962L14.8781 29.2643L13.595 29.585L11.8334 27.2363L13.7964 22.6562ZM8.70776 29.3321L10.7037 28.3341L12.5338 30.7743L12.8437 33.0984L11.5376 31.5311L10.3373 32.5314L14.2436 37.2189C14.3178 37.308 14.411 37.3795 14.5163 37.4281L20.1321 40.0199L19.2079 41.8685L12.946 39.185L7.87475 34.1137L7.45224 31.8604C7.36004 31.3598 7.43255 30.8429 7.65891 30.3871C7.88526 29.9313 8.25327 29.5611 8.70776 29.3321ZM8.3847 36.8334L11.9475 40.3962C12.0178 40.4664 12.1008 40.5227 12.1922 40.5618L13.9386 41.3102L13.9514 41.4062H9.2421L8.3847 36.8334ZM22.2122 43.156L20.6465 42.485L21.5515 40.675L23.0154 41.3506C23.2512 41.4594 23.4347 41.6567 23.5262 41.8998C23.6176 42.1429 23.6097 42.4122 23.5042 42.6495C23.3986 42.8867 23.2038 43.0729 22.9621 43.1677C22.7203 43.2625 22.4509 43.2583 22.2122 43.156V43.156ZM31.5773 39.1928L25.1519 42.1584C25.1422 41.9009 25.0937 41.6465 25.0082 41.4035C24.86 40.9777 24.6009 40.5993 24.2576 40.3072L30.0369 37.4175C30.1332 37.3693 30.2186 37.3017 30.2876 37.2189L31.8405 35.3555L32.7936 37.9765L31.5773 39.1928ZM36.0448 43.743C36.0061 43.8011 35.9706 43.8604 35.9374 43.9207V42.9688H36.561L36.0448 43.743ZM38.1498 45.9819C38.0223 45.9927 37.894 45.9753 37.774 45.931C37.654 45.8867 37.5452 45.8166 37.4553 45.7255C37.3112 45.5807 37.2215 45.3906 37.2014 45.1873C37.1812 44.984 37.2319 44.78 37.3449 44.6097L37.8943 43.7856L39.214 45.0453L38.7958 45.6204C38.7213 45.7244 38.6247 45.8107 38.5131 45.8731C38.4014 45.9356 38.2774 45.9727 38.1498 45.9819H38.1498ZM40.1413 43.7704L38.7745 42.4658L41.275 38.7146C41.3851 38.5495 41.4282 38.3486 41.3956 38.1528L40.6144 33.4653L39.073 33.7222L39.8035 38.105L38.1738 40.5499L37.5175 30.7058L39.311 28.3144C40.2412 28.7901 41.0456 29.4793 41.6583 30.3255C42.271 31.1718 42.6746 32.1511 42.8361 33.1833L43.7101 38.8633L40.1413 43.7704Z" fill="url(#paint6_radial_511_791)"/>
<defs>
<radialGradient id="paint0_radial_511_791" cx="0" cy="0" r="1" gradientUnits="userSpaceOnUse" gradientTransform="translate(2.65625 -0.905737) rotate(29.1697) scale(50.6411 64.4381)">
<stop offset="0.151042" stop-color="#33A6FF"/>
<stop offset="0.907346" stop-color="#36C27F"/>
</radialGradient>
<radialGradient id="paint1_radial_511_791" cx="0" cy="0" r="1" gradientUnits="userSpaceOnUse" gradientTransform="translate(11.5683 5.25412) rotate(33.2354) scale(3.91602 5.36745)">
<stop offset="0.151042" stop-color="#33A6FF"/>
<stop offset="0.907346" stop-color="#36C27F"/>
</radialGradient>
<radialGradient id="paint2_radial_511_791" cx="0" cy="0" r="1" gradientUnits="userSpaceOnUse" gradientTransform="translate(17.2164 5.25412) rotate(7.46622) scale(16.5174 6.36272)">
<stop offset="0.151042" stop-color="#33A6FF"/>
<stop offset="0.907346" stop-color="#36C27F"/>
</radialGradient>
<radialGradient id="paint3_radial_511_791" cx="0" cy="0" r="1" gradientUnits="userSpaceOnUse" gradientTransform="translate(34.7801 5.25412) rotate(14.6871) scale(8.46526 6.20744)">
<stop offset="0.151042" stop-color="#33A6FF"/>
<stop offset="0.907346" stop-color="#36C27F"/>
</radialGradient>
<radialGradient id="paint4_radial_511_791" cx="0" cy="0" r="1" gradientUnits="userSpaceOnUse" gradientTransform="translate(7.69097 9.16037) rotate(6.2326) scale(19.7696 6.3792)">
<stop offset="0.151042" stop-color="#33A6FF"/>
<stop offset="0.907346" stop-color="#36C27F"/>
</radialGradient>
<radialGradient id="paint5_radial_511_791" cx="0" cy="0" r="1" gradientUnits="userSpaceOnUse" gradientTransform="translate(28.4172 9.16037) rotate(11.3991) scale(10.8595 6.29054)">
<stop offset="0.151042" stop-color="#33A6FF"/>
<stop offset="0.907346" stop-color="#36C27F"/>
</radialGradient>
<radialGradient id="paint6_radial_511_791" cx="0" cy="0" r="1" gradientUnits="userSpaceOnUse" gradientTransform="translate(3.774 17.4377) rotate(41.3531) scale(55.3365 82.055)">
<stop offset="0.151042" stop-color="#33A6FF"/>
<stop offset="0.907346" stop-color="#36C27F"/>
</radialGradient>
</defs>
</svg>
