<svg width="47" height="47" viewBox="0 0 47 47" fill="none" xmlns="http://www.w3.org/2000/svg">
<path d="M34.9375 0.0625H6.8125C6.6053 0.0625101 6.40659 0.144823 6.26008 0.291334C6.11357 0.437845 6.03126 0.636553 6.03125 0.84375V25.0625H7.59375V1.625H34.1563V3.1875H35.7188V0.84375C35.7187 0.636553 35.6364 0.437845 35.4899 0.291334C35.3434 0.144823 35.1447 0.0625101 34.9375 0.0625Z" fill="white"/>
<path d="M34.9375 0.0625H6.8125C6.6053 0.0625101 6.40659 0.144823 6.26008 0.291334C6.11357 0.437845 6.03126 0.636553 6.03125 0.84375V25.0625H7.59375V1.625H34.1563V3.1875H35.7188V0.84375C35.7187 0.636553 35.6364 0.437845 35.4899 0.291334C35.3434 0.144823 35.1447 0.0625101 34.9375 0.0625Z" fill="url(#paint0_radial_1110_6)"/>
<path d="M32.5938 7.09375V3.96875C32.5937 3.76155 32.5114 3.56284 32.3649 3.41633C32.2184 3.26982 32.0197 3.18751 31.8125 3.1875H9.9375C9.7303 3.18751 9.53159 3.26982 9.38508 3.41633C9.23857 3.56284 9.15626 3.76155 9.15625 3.96875V7.09375C9.15626 7.30095 9.23857 7.49966 9.38508 7.64617C9.53159 7.79268 9.7303 7.87499 9.9375 7.875H31.8125C32.0197 7.87499 32.2184 7.79268 32.3649 7.64617C32.5114 7.49966 32.5937 7.30095 32.5938 7.09375ZM31.0313 6.3125H10.7188V4.75H31.0313V6.3125Z" fill="white"/>
<path d="M32.5938 7.09375V3.96875C32.5937 3.76155 32.5114 3.56284 32.3649 3.41633C32.2184 3.26982 32.0197 3.18751 31.8125 3.1875H9.9375C9.7303 3.18751 9.53159 3.26982 9.38508 3.41633C9.23857 3.56284 9.15626 3.76155 9.15625 3.96875V7.09375C9.15626 7.30095 9.23857 7.49966 9.38508 7.64617C9.53159 7.79268 9.7303 7.87499 9.9375 7.875H31.8125C32.0197 7.87499 32.2184 7.79268 32.3649 7.64617C32.5114 7.49966 32.5937 7.30095 32.5938 7.09375ZM31.0313 6.3125H10.7188V4.75H31.0313V6.3125Z" fill="url(#paint1_radial_1110_6)"/>
<path d="M13.8438 10.2188C13.8437 10.0116 13.7614 9.81284 13.6149 9.66633C13.4684 9.51982 13.2697 9.43751 13.0625 9.4375H9.9375C9.7303 9.43751 9.53159 9.51982 9.38508 9.66633C9.23857 9.81284 9.15626 10.0116 9.15625 10.2188V13.3438C9.15626 13.5509 9.23857 13.7497 9.38508 13.8962C9.53159 14.0427 9.7303 14.125 9.9375 14.125H13.0625C13.2697 14.125 13.4684 14.0427 13.6149 13.8962C13.7614 13.7497 13.8437 13.5509 13.8438 13.3438V10.2188ZM12.2812 12.5625H10.7188V11H12.2812V12.5625Z" fill="white"/>
<path d="M13.8438 10.2188C13.8437 10.0116 13.7614 9.81284 13.6149 9.66633C13.4684 9.51982 13.2697 9.43751 13.0625 9.4375H9.9375C9.7303 9.43751 9.53159 9.51982 9.38508 9.66633C9.23857 9.81284 9.15626 10.0116 9.15625 10.2188V13.3438C9.15626 13.5509 9.23857 13.7497 9.38508 13.8962C9.53159 14.0427 9.7303 14.125 9.9375 14.125H13.0625C13.2697 14.125 13.4684 14.0427 13.6149 13.8962C13.7614 13.7497 13.8437 13.5509 13.8438 13.3438V10.2188ZM12.2812 12.5625H10.7188V11H12.2812V12.5625Z" fill="url(#paint2_radial_1110_6)"/>
<path d="M20.0938 10.2188C20.0937 10.0116 20.0114 9.81284 19.8649 9.66633C19.7184 9.51982 19.5197 9.43751 19.3125 9.4375H16.1875C15.9803 9.43751 15.7816 9.51982 15.6351 9.66633C15.4886 9.81284 15.4063 10.0116 15.4062 10.2188V13.3438C15.4063 13.5509 15.4886 13.7497 15.6351 13.8962C15.7816 14.0427 15.9803 14.125 16.1875 14.125H19.3125C19.5197 14.125 19.7184 14.0427 19.8649 13.8962C20.0114 13.7497 20.0937 13.5509 20.0938 13.3438V10.2188ZM18.5312 12.5625H16.9688V11H18.5312V12.5625Z" fill="white"/>
<path d="M20.0938 10.2188C20.0937 10.0116 20.0114 9.81284 19.8649 9.66633C19.7184 9.51982 19.5197 9.43751 19.3125 9.4375H16.1875C15.9803 9.43751 15.7816 9.51982 15.6351 9.66633C15.4886 9.81284 15.4063 10.0116 15.4062 10.2188V13.3438C15.4063 13.5509 15.4886 13.7497 15.6351 13.8962C15.7816 14.0427 15.9803 14.125 16.1875 14.125H19.3125C19.5197 14.125 19.7184 14.0427 19.8649 13.8962C20.0114 13.7497 20.0937 13.5509 20.0938 13.3438V10.2188ZM18.5312 12.5625H16.9688V11H18.5312V12.5625Z" fill="url(#paint3_radial_1110_6)"/>
<path d="M26.3438 10.2188C26.3437 10.0116 26.2614 9.81284 26.1149 9.66633C25.9684 9.51982 25.7697 9.43751 25.5625 9.4375H22.4375C22.2303 9.43751 22.0316 9.51982 21.8851 9.66633C21.7386 9.81284 21.6563 10.0116 21.6562 10.2188V13.3438C21.6563 13.5509 21.7386 13.7497 21.8851 13.8962C22.0316 14.0427 22.2303 14.125 22.4375 14.125H25.5625C25.7697 14.125 25.9684 14.0427 26.1149 13.8962C26.2614 13.7497 26.3437 13.5509 26.3438 13.3438V10.2188ZM24.7812 12.5625H23.2188V11H24.7812V12.5625Z" fill="white"/>
<path d="M26.3438 10.2188C26.3437 10.0116 26.2614 9.81284 26.1149 9.66633C25.9684 9.51982 25.7697 9.43751 25.5625 9.4375H22.4375C22.2303 9.43751 22.0316 9.51982 21.8851 9.66633C21.7386 9.81284 21.6563 10.0116 21.6562 10.2188V13.3438C21.6563 13.5509 21.7386 13.7497 21.8851 13.8962C22.0316 14.0427 22.2303 14.125 22.4375 14.125H25.5625C25.7697 14.125 25.9684 14.0427 26.1149 13.8962C26.2614 13.7497 26.3437 13.5509 26.3438 13.3438V10.2188ZM24.7812 12.5625H23.2188V11H24.7812V12.5625Z" fill="url(#paint4_radial_1110_6)"/>
<path d="M26.3438 16.4688C26.3437 16.2616 26.2614 16.0628 26.1149 15.9163C25.9684 15.7698 25.7697 15.6875 25.5625 15.6875H22.4375C22.2303 15.6875 22.0316 15.7698 21.8851 15.9163C21.7386 16.0628 21.6563 16.2616 21.6562 16.4688V19.5938C21.6563 19.8009 21.7386 19.9997 21.8851 20.1462C22.0316 20.2927 22.2303 20.375 22.4375 20.375H25.5625C25.7697 20.375 25.9684 20.2927 26.1149 20.1462C26.2614 19.9997 26.3437 19.8009 26.3438 19.5938V16.4688ZM24.7812 18.8125H23.2188V17.25H24.7812V18.8125Z" fill="white"/>
<path d="M26.3438 16.4688C26.3437 16.2616 26.2614 16.0628 26.1149 15.9163C25.9684 15.7698 25.7697 15.6875 25.5625 15.6875H22.4375C22.2303 15.6875 22.0316 15.7698 21.8851 15.9163C21.7386 16.0628 21.6563 16.2616 21.6562 16.4688V19.5938C21.6563 19.8009 21.7386 19.9997 21.8851 20.1462C22.0316 20.2927 22.2303 20.375 22.4375 20.375H25.5625C25.7697 20.375 25.9684 20.2927 26.1149 20.1462C26.2614 19.9997 26.3437 19.8009 26.3438 19.5938V16.4688ZM24.7812 18.8125H23.2188V17.25H24.7812V18.8125Z" fill="url(#paint5_radial_1110_6)"/>
<path d="M27.9062 17.25V19.5938C27.9063 19.8009 27.9886 19.9997 28.1351 20.1462C28.2816 20.2927 28.4803 20.375 28.6875 20.375H30.25V18.8125H29.4688V17.25H27.9062Z" fill="white"/>
<path d="M27.9062 17.25V19.5938C27.9063 19.8009 27.9886 19.9997 28.1351 20.1462C28.2816 20.2927 28.4803 20.375 28.6875 20.375H30.25V18.8125H29.4688V17.25H27.9062Z" fill="url(#paint6_radial_1110_6)"/>
<path d="M30.25 9.4375H28.6875C28.4803 9.43751 28.2816 9.51982 28.1351 9.66633C27.9886 9.81284 27.9063 10.0116 27.9062 10.2188V12.5625H29.4688V11H30.25V9.4375Z" fill="white"/>
<path d="M30.25 9.4375H28.6875C28.4803 9.43751 28.2816 9.51982 28.1351 9.66633C27.9886 9.81284 27.9063 10.0116 27.9062 10.2188V12.5625H29.4688V11H30.25V9.4375Z" fill="url(#paint7_radial_1110_6)"/>
<path d="M13.8438 16.4688C13.8437 16.2616 13.7614 16.0628 13.6149 15.9163C13.4684 15.7698 13.2697 15.6875 13.0625 15.6875H9.9375C9.7303 15.6875 9.53159 15.7698 9.38508 15.9163C9.23857 16.0628 9.15626 16.2616 9.15625 16.4688V19.5938C9.15626 19.8009 9.23857 19.9997 9.38508 20.1462C9.53159 20.2927 9.7303 20.375 9.9375 20.375H13.0625C13.2697 20.375 13.4684 20.2927 13.6149 20.1462C13.7614 19.9997 13.8437 19.8009 13.8438 19.5938V16.4688ZM12.2812 18.8125H10.7188V17.25H12.2812V18.8125Z" fill="white"/>
<path d="M13.8438 16.4688C13.8437 16.2616 13.7614 16.0628 13.6149 15.9163C13.4684 15.7698 13.2697 15.6875 13.0625 15.6875H9.9375C9.7303 15.6875 9.53159 15.7698 9.38508 15.9163C9.23857 16.0628 9.15626 16.2616 9.15625 16.4688V19.5938C9.15626 19.8009 9.23857 19.9997 9.38508 20.1462C9.53159 20.2927 9.7303 20.375 9.9375 20.375H13.0625C13.2697 20.375 13.4684 20.2927 13.6149 20.1462C13.7614 19.9997 13.8437 19.8009 13.8438 19.5938V16.4688ZM12.2812 18.8125H10.7188V17.25H12.2812V18.8125Z" fill="url(#paint8_radial_1110_6)"/>
<path d="M20.0938 16.4688C20.0937 16.2616 20.0114 16.0628 19.8649 15.9163C19.7184 15.7698 19.5197 15.6875 19.3125 15.6875H16.1875C15.9803 15.6875 15.7816 15.7698 15.6351 15.9163C15.4886 16.0628 15.4063 16.2616 15.4062 16.4688V19.5938C15.4063 19.8009 15.4886 19.9997 15.6351 20.1462C15.7816 20.2927 15.9803 20.375 16.1875 20.375H19.3125C19.5197 20.375 19.7184 20.2927 19.8649 20.1462C20.0114 19.9997 20.0937 19.8009 20.0938 19.5938V16.4688ZM18.5312 18.8125H16.9688V17.25H18.5312V18.8125Z" fill="white"/>
<path d="M20.0938 16.4688C20.0937 16.2616 20.0114 16.0628 19.8649 15.9163C19.7184 15.7698 19.5197 15.6875 19.3125 15.6875H16.1875C15.9803 15.6875 15.7816 15.7698 15.6351 15.9163C15.4886 16.0628 15.4063 16.2616 15.4062 16.4688V19.5938C15.4063 19.8009 15.4886 19.9997 15.6351 20.1462C15.7816 20.2927 15.9803 20.375 16.1875 20.375H19.3125C19.5197 20.375 19.7184 20.2927 19.8649 20.1462C20.0114 19.9997 20.0937 19.8009 20.0938 19.5938V16.4688ZM18.5312 18.8125H16.9688V17.25H18.5312V18.8125Z" fill="url(#paint9_radial_1110_6)"/>
<path d="M13.8438 25.8438V22.7188C13.8437 22.5116 13.7614 22.3128 13.6149 22.1663C13.4684 22.0198 13.2697 21.9375 13.0625 21.9375H9.9375C9.7303 21.9375 9.53159 22.0198 9.38508 22.1663C9.23857 22.3128 9.15626 22.5116 9.15625 22.7188V25.0625H10.7188V23.5H12.2812V25.8438H13.8438Z" fill="white"/>
<path d="M13.8438 25.8438V22.7188C13.8437 22.5116 13.7614 22.3128 13.6149 22.1663C13.4684 22.0198 13.2697 21.9375 13.0625 21.9375H9.9375C9.7303 21.9375 9.53159 22.0198 9.38508 22.1663C9.23857 22.3128 9.15626 22.5116 9.15625 22.7188V25.0625H10.7188V23.5H12.2812V25.8438H13.8438Z" fill="url(#paint10_radial_1110_6)"/>
<path d="M26.3438 22.7188C26.3437 22.5116 26.2614 22.3128 26.1149 22.1663C25.9684 22.0198 25.7697 21.9375 25.5625 21.9375H22.4375C22.2303 21.9375 22.0316 22.0198 21.8851 22.1663C21.7386 22.3128 21.6563 22.5116 21.6562 22.7188V25.8438C21.6563 26.0509 21.7386 26.2497 21.8851 26.3962C22.0316 26.5427 22.2303 26.625 22.4375 26.625H25.5625C25.7697 26.625 25.9684 26.5427 26.1149 26.3962C26.2614 26.2497 26.3437 26.0509 26.3438 25.8438V22.7188ZM24.7812 25.0625H23.2188V23.5H24.7812V25.0625Z" fill="white"/>
<path d="M26.3438 22.7188C26.3437 22.5116 26.2614 22.3128 26.1149 22.1663C25.9684 22.0198 25.7697 21.9375 25.5625 21.9375H22.4375C22.2303 21.9375 22.0316 22.0198 21.8851 22.1663C21.7386 22.3128 21.6563 22.5116 21.6562 22.7188V25.8438C21.6563 26.0509 21.7386 26.2497 21.8851 26.3962C22.0316 26.5427 22.2303 26.625 22.4375 26.625H25.5625C25.7697 26.625 25.9684 26.5427 26.1149 26.3962C26.2614 26.2497 26.3437 26.0509 26.3438 25.8438V22.7188ZM24.7812 25.0625H23.2188V23.5H24.7812V25.0625Z" fill="url(#paint11_radial_1110_6)"/>
<path d="M32.5938 25.8438V22.7188C32.5937 22.5116 32.5114 22.3128 32.3649 22.1663C32.2184 22.0198 32.0197 21.9375 31.8125 21.9375H28.6875C28.4803 21.9375 28.2816 22.0198 28.1351 22.1663C27.9886 22.3128 27.9063 22.5116 27.9062 22.7188V25.8438C27.9063 26.0509 27.9886 26.2497 28.1351 26.3962C28.2816 26.5427 28.4803 26.625 28.6875 26.625H31.8125C32.0197 26.625 32.2184 26.5427 32.3649 26.3962C32.5114 26.2497 32.5937 26.0509 32.5938 25.8438ZM31.0313 25.0625H29.4688V23.5H31.0313V25.0625Z" fill="white"/>
<path d="M32.5938 25.8438V22.7188C32.5937 22.5116 32.5114 22.3128 32.3649 22.1663C32.2184 22.0198 32.0197 21.9375 31.8125 21.9375H28.6875C28.4803 21.9375 28.2816 22.0198 28.1351 22.1663C27.9886 22.3128 27.9063 22.5116 27.9062 22.7188V25.8438C27.9063 26.0509 27.9886 26.2497 28.1351 26.3962C28.2816 26.5427 28.4803 26.625 28.6875 26.625H31.8125C32.0197 26.625 32.2184 26.5427 32.3649 26.3962C32.5114 26.2497 32.5937 26.0509 32.5938 25.8438ZM31.0313 25.0625H29.4688V23.5H31.0313V25.0625Z" fill="url(#paint12_radial_1110_6)"/>
<path d="M26.3438 32.0938V28.9688C26.3437 28.7616 26.2614 28.5628 26.1149 28.4163C25.9684 28.2698 25.7697 28.1875 25.5625 28.1875H22.4375C22.2303 28.1875 22.0316 28.2698 21.8851 28.4163C21.7386 28.5628 21.6563 28.7616 21.6562 28.9688V32.0938H23.2188V29.75H24.7812V32.0938H26.3438Z" fill="white"/>
<path d="M26.3438 32.0938V28.9688C26.3437 28.7616 26.2614 28.5628 26.1149 28.4163C25.9684 28.2698 25.7697 28.1875 25.5625 28.1875H22.4375C22.2303 28.1875 22.0316 28.2698 21.8851 28.4163C21.7386 28.5628 21.6563 28.7616 21.6562 28.9688V32.0938H23.2188V29.75H24.7812V32.0938H26.3438Z" fill="url(#paint13_radial_1110_6)"/>
<path d="M20.0938 32.0938V28.9688C20.0937 28.7616 20.0114 28.5628 19.8649 28.4163C19.7184 28.2698 19.5197 28.1875 19.3125 28.1875H16.9688V29.75H18.5312V32.0938H20.0938Z" fill="white"/>
<path d="M20.0938 32.0938V28.9688C20.0937 28.7616 20.0114 28.5628 19.8649 28.4163C19.7184 28.2698 19.5197 28.1875 19.3125 28.1875H16.9688V29.75H18.5312V32.0938H20.0938Z" fill="url(#paint14_radial_1110_6)"/>
<path d="M29.4688 29.75H31.0313V28.1875H28.6875C28.4803 28.1875 28.2816 28.2698 28.1351 28.4163C27.9886 28.5628 27.9063 28.7616 27.9062 28.9688V30.5312H29.4688V29.75Z" fill="white"/>
<path d="M29.4688 29.75H31.0313V28.1875H28.6875C28.4803 28.1875 28.2816 28.2698 28.1351 28.4163C27.9886 28.5628 27.9063 28.7616 27.9062 28.9688V30.5312H29.4688V29.75Z" fill="url(#paint15_radial_1110_6)"/>
<path d="M16.7382 26.3967L17.7482 25.3866L18.7583 26.3967L19.8632 25.2918L18.8531 24.2818L19.8632 23.2717L18.7583 22.1668L17.7482 23.1769L16.7382 22.1668L15.6333 23.2717L16.6434 24.2818L15.6333 25.2918L16.7382 26.3967Z" fill="white"/>
<path d="M16.7382 26.3967L17.7482 25.3866L18.7583 26.3967L19.8632 25.2918L18.8531 24.2818L19.8632 23.2717L18.7583 22.1668L17.7482 23.1769L16.7382 22.1668L15.6333 23.2717L16.6434 24.2818L15.6333 25.2918L16.7382 26.3967Z" fill="url(#paint16_radial_1110_6)"/>
<path d="M36.4997 15.3639L34.3848 17.4788L35.4897 18.5837L37.8334 16.24C37.9799 16.0934 38.0622 15.8947 38.0622 15.6875V11.7812H36.4997V15.3639Z" fill="white"/>
<path d="M36.4997 15.3639L34.3848 17.4788L35.4897 18.5837L37.8334 16.24C37.9799 16.0934 38.0622 15.8947 38.0622 15.6875V11.7812H36.4997V15.3639Z" fill="url(#paint17_radial_1110_6)"/>
<path d="M38.8433 7.09375V5.53125H35.7183V7.09375H36.4995V8.70069C34.7136 8.90037 33.0719 9.77629 31.9116 11.1486C30.7512 12.5209 30.1604 14.2853 30.2604 16.0796C30.3604 17.8739 31.1436 19.5618 32.4492 20.7967C33.7548 22.0316 35.4837 22.7197 37.2808 22.7197C39.0778 22.7197 40.8067 22.0316 42.1123 20.7967C43.4179 19.5618 44.2011 17.8739 44.3011 16.0796C44.4011 14.2853 43.8103 12.5209 42.65 11.1486C41.4897 9.77629 39.848 8.90037 38.062 8.70069V7.09375H38.8433ZM42.7495 15.6875C42.7495 16.7691 42.4288 17.8264 41.8279 18.7258C41.227 19.6251 40.3729 20.326 39.3736 20.74C38.3743 21.1539 37.2747 21.2622 36.2139 21.0512C35.153 20.8402 34.1786 20.3193 33.4138 19.5545C32.649 18.7897 32.1281 17.8152 31.9171 16.7544C31.7061 15.6936 31.8144 14.594 32.2283 13.5947C32.6422 12.5954 33.3432 11.7413 34.2425 11.1404C35.1418 10.5395 36.1992 10.2187 37.2808 10.2187C38.7307 10.2204 40.1207 10.7971 41.146 11.8223C42.1712 12.8475 42.7479 14.2376 42.7495 15.6875Z" fill="white"/>
<path d="M38.8433 7.09375V5.53125H35.7183V7.09375H36.4995V8.70069C34.7136 8.90037 33.0719 9.77629 31.9116 11.1486C30.7512 12.5209 30.1604 14.2853 30.2604 16.0796C30.3604 17.8739 31.1436 19.5618 32.4492 20.7967C33.7548 22.0316 35.4837 22.7197 37.2808 22.7197C39.0778 22.7197 40.8067 22.0316 42.1123 20.7967C43.4179 19.5618 44.2011 17.8739 44.3011 16.0796C44.4011 14.2853 43.8103 12.5209 42.65 11.1486C41.4897 9.77629 39.848 8.90037 38.062 8.70069V7.09375H38.8433ZM42.7495 15.6875C42.7495 16.7691 42.4288 17.8264 41.8279 18.7258C41.227 19.6251 40.3729 20.326 39.3736 20.74C38.3743 21.1539 37.2747 21.2622 36.2139 21.0512C35.153 20.8402 34.1786 20.3193 33.4138 19.5545C32.649 18.7897 32.1281 17.8152 31.9171 16.7544C31.7061 15.6936 31.8144 14.594 32.2283 13.5947C32.6422 12.5954 33.3432 11.7413 34.2425 11.1404C35.1418 10.5395 36.1992 10.2187 37.2808 10.2187C38.7307 10.2204 40.1207 10.7971 41.146 11.8223C42.1712 12.8475 42.7479 14.2376 42.7495 15.6875Z" fill="url(#paint18_radial_1110_6)"/>
<path d="M35.7188 24.2812H34.1562V28.9688H35.7188V24.2812Z" fill="white"/>
<path d="M35.7188 24.2812H34.1562V28.9688H35.7188V24.2812Z" fill="url(#paint19_radial_1110_6)"/>
<path d="M40.4061 28.9688V29.75H38.0624C37.8552 29.75 37.6565 29.8323 37.51 29.9788C37.3635 30.1254 37.2812 30.3241 37.2811 30.5313V31.3056C36.0799 30.622 34.6876 30.3513 33.3178 30.535C31.9479 30.7187 30.6761 31.3466 29.6974 32.3225L28.3638 33.6563H18.9218C18.4776 33.6561 18.0374 33.7406 17.6249 33.9052L15.6555 29.5287C15.448 29.0674 15.1388 28.6591 14.751 28.3342C14.3633 28.0094 13.9071 27.7765 13.4166 27.653C12.9261 27.5295 12.4141 27.5185 11.9187 27.621C11.4234 27.7234 10.9577 27.9366 10.5564 28.2446L10.2252 27.8002C9.93159 27.4061 9.54694 27.089 9.10411 26.8759C8.66129 26.6627 8.17345 26.56 7.68228 26.5763C7.19111 26.5927 6.7112 26.7277 6.28355 26.9699C5.85591 27.212 5.49323 27.5541 5.22651 27.9669C4.60055 27.5912 3.85883 27.4575 3.1411 27.5908C2.42336 27.7241 1.77916 28.1153 1.32988 28.6907C0.88059 29.2661 0.657235 29.9859 0.701895 30.7146C0.746555 31.4432 1.05615 32.1304 1.57234 32.6466L10.1107 41.1847C13.6911 44.7657 18.5164 46.8253 23.5792 46.9336C28.6419 47.0419 33.5509 45.1904 37.2811 41.7658V43.8125C37.2812 44.0197 37.3635 44.2184 37.51 44.365C37.6565 44.5115 37.8552 44.5938 38.0624 44.5938H40.4061V46.1563C40.4062 46.3635 40.4885 46.5622 40.635 46.7087C40.7815 46.8552 40.9802 46.9375 41.1874 46.9375H46.6561V45.375H41.9686V29.75H46.6561V28.1875H41.1874C40.9802 28.1875 40.7815 28.2698 40.635 28.4163C40.4885 28.5628 40.4062 28.7616 40.4061 28.9688ZM11.7969 29.3031C12.0127 29.1952 12.2481 29.132 12.489 29.1174C12.7298 29.1027 12.9712 29.1369 13.1985 29.2179C13.4258 29.2988 13.6344 29.4249 13.8118 29.5885C13.9891 29.7521 14.1316 29.9499 14.2306 30.1699L16.3191 34.811C16.1557 34.9913 16.0113 35.188 15.8884 35.398L11.4906 29.4979C11.5859 29.4228 11.6885 29.3575 11.7969 29.3031ZM7.02067 28.3487C7.33562 28.1585 7.71016 28.0926 8.07111 28.1639C8.43205 28.2351 8.75344 28.4384 8.97246 28.7341L15.4064 37.366C14.3874 36.7825 13.4507 36.0659 12.621 35.235L6.42225 29.0362C6.54428 28.7497 6.75373 28.509 7.02068 28.3487H7.02067ZM36.7843 40.0795C33.3937 43.4701 28.795 45.375 24 45.375C19.2049 45.3751 14.6063 43.4703 11.2156 40.0797L2.67716 31.5417C2.41036 31.2735 2.26079 30.9105 2.26127 30.5322C2.26174 30.154 2.41222 29.7913 2.6797 29.5238C2.94718 29.2564 3.30982 29.1059 3.68809 29.1054C4.06636 29.1049 4.42938 29.2545 4.69753 29.5213L11.5161 36.3399C12.8972 37.7237 14.5395 38.8192 16.3476 39.5629C16.676 39.9177 17.0741 40.2008 17.5171 40.3943C17.9601 40.5878 18.4383 40.6877 18.9218 40.6875H28.6874V39.125H18.9218C18.4038 39.125 17.907 38.9192 17.5407 38.553C17.1744 38.1867 16.9686 37.6899 16.9686 37.1719C16.9686 36.6539 17.1744 36.1571 17.5407 35.7908C17.907 35.4245 18.4038 35.2188 18.9218 35.2188H28.6874C28.8946 35.2188 29.0933 35.1365 29.2399 34.99L30.8024 33.4275C31.6543 32.5777 32.7971 32.083 33.9998 32.0436C35.2025 32.0041 36.3753 32.4227 37.2811 33.2148V39.5826L36.7843 40.0795ZM38.8436 43.0313V31.3125H40.4061V43.0313H38.8436Z" fill="white"/>
<path d="M40.4061 28.9688V29.75H38.0624C37.8552 29.75 37.6565 29.8323 37.51 29.9788C37.3635 30.1254 37.2812 30.3241 37.2811 30.5313V31.3056C36.0799 30.622 34.6876 30.3513 33.3178 30.535C31.9479 30.7187 30.6761 31.3466 29.6974 32.3225L28.3638 33.6563H18.9218C18.4776 33.6561 18.0374 33.7406 17.6249 33.9052L15.6555 29.5287C15.448 29.0674 15.1388 28.6591 14.751 28.3342C14.3633 28.0094 13.9071 27.7765 13.4166 27.653C12.9261 27.5295 12.4141 27.5185 11.9187 27.621C11.4234 27.7234 10.9577 27.9366 10.5564 28.2446L10.2252 27.8002C9.93159 27.4061 9.54694 27.089 9.10411 26.8759C8.66129 26.6627 8.17345 26.56 7.68228 26.5763C7.19111 26.5927 6.7112 26.7277 6.28355 26.9699C5.85591 27.212 5.49323 27.5541 5.22651 27.9669C4.60055 27.5912 3.85883 27.4575 3.1411 27.5908C2.42336 27.7241 1.77916 28.1153 1.32988 28.6907C0.88059 29.2661 0.657235 29.9859 0.701895 30.7146C0.746555 31.4432 1.05615 32.1304 1.57234 32.6466L10.1107 41.1847C13.6911 44.7657 18.5164 46.8253 23.5792 46.9336C28.6419 47.0419 33.5509 45.1904 37.2811 41.7658V43.8125C37.2812 44.0197 37.3635 44.2184 37.51 44.365C37.6565 44.5115 37.8552 44.5938 38.0624 44.5938H40.4061V46.1563C40.4062 46.3635 40.4885 46.5622 40.635 46.7087C40.7815 46.8552 40.9802 46.9375 41.1874 46.9375H46.6561V45.375H41.9686V29.75H46.6561V28.1875H41.1874C40.9802 28.1875 40.7815 28.2698 40.635 28.4163C40.4885 28.5628 40.4062 28.7616 40.4061 28.9688ZM11.7969 29.3031C12.0127 29.1952 12.2481 29.132 12.489 29.1174C12.7298 29.1027 12.9712 29.1369 13.1985 29.2179C13.4258 29.2988 13.6344 29.4249 13.8118 29.5885C13.9891 29.7521 14.1316 29.9499 14.2306 30.1699L16.3191 34.811C16.1557 34.9913 16.0113 35.188 15.8884 35.398L11.4906 29.4979C11.5859 29.4228 11.6885 29.3575 11.7969 29.3031ZM7.02067 28.3487C7.33562 28.1585 7.71016 28.0926 8.07111 28.1639C8.43205 28.2351 8.75344 28.4384 8.97246 28.7341L15.4064 37.366C14.3874 36.7825 13.4507 36.0659 12.621 35.235L6.42225 29.0362C6.54428 28.7497 6.75373 28.509 7.02068 28.3487H7.02067ZM36.7843 40.0795C33.3937 43.4701 28.795 45.375 24 45.375C19.2049 45.3751 14.6063 43.4703 11.2156 40.0797L2.67716 31.5417C2.41036 31.2735 2.26079 30.9105 2.26127 30.5322C2.26174 30.154 2.41222 29.7913 2.6797 29.5238C2.94718 29.2564 3.30982 29.1059 3.68809 29.1054C4.06636 29.1049 4.42938 29.2545 4.69753 29.5213L11.5161 36.3399C12.8972 37.7237 14.5395 38.8192 16.3476 39.5629C16.676 39.9177 17.0741 40.2008 17.5171 40.3943C17.9601 40.5878 18.4383 40.6877 18.9218 40.6875H28.6874V39.125H18.9218C18.4038 39.125 17.907 38.9192 17.5407 38.553C17.1744 38.1867 16.9686 37.6899 16.9686 37.1719C16.9686 36.6539 17.1744 36.1571 17.5407 35.7908C17.907 35.4245 18.4038 35.2188 18.9218 35.2188H28.6874C28.8946 35.2188 29.0933 35.1365 29.2399 34.99L30.8024 33.4275C31.6543 32.5777 32.7971 32.083 33.9998 32.0436C35.2025 32.0041 36.3753 32.4227 37.2811 33.2148V39.5826L36.7843 40.0795ZM38.8436 43.0313V31.3125H40.4061V43.0313H38.8436Z" fill="url(#paint20_radial_1110_6)"/>
<defs>
<radialGradient id="paint0_radial_1110_6" cx="0" cy="0" r="1" gradientUnits="userSpaceOnUse" gradientTransform="translate(4.60185 -3.37157) rotate(47.8195) scale(46.3416 68.9423)">
<stop offset="0.151042" stop-color="#33A6FF"/>
<stop offset="0.907346" stop-color="#36C27F"/>
</radialGradient>
<radialGradient id="paint1_radial_1110_6" cx="0" cy="0" r="1" gradientUnits="userSpaceOnUse" gradientTransform="translate(8.02778 2.54361) rotate(14.6871) scale(25.3958 18.6223)">
<stop offset="0.151042" stop-color="#33A6FF"/>
<stop offset="0.907346" stop-color="#36C27F"/>
</radialGradient>
<radialGradient id="paint2_radial_1110_6" cx="0" cy="0" r="1" gradientUnits="userSpaceOnUse" gradientTransform="translate(8.93056 8.79361) rotate(52.6545) scale(8.09929 11.6783)">
<stop offset="0.151042" stop-color="#33A6FF"/>
<stop offset="0.907346" stop-color="#36C27F"/>
</radialGradient>
<radialGradient id="paint3_radial_1110_6" cx="0" cy="0" r="1" gradientUnits="userSpaceOnUse" gradientTransform="translate(15.1806 8.79361) rotate(52.6545) scale(8.09929 11.6783)">
<stop offset="0.151042" stop-color="#33A6FF"/>
<stop offset="0.907346" stop-color="#36C27F"/>
</radialGradient>
<radialGradient id="paint4_radial_1110_6" cx="0" cy="0" r="1" gradientUnits="userSpaceOnUse" gradientTransform="translate(21.4306 8.79361) rotate(52.6545) scale(8.09929 11.6783)">
<stop offset="0.151042" stop-color="#33A6FF"/>
<stop offset="0.907346" stop-color="#36C27F"/>
</radialGradient>
<radialGradient id="paint5_radial_1110_6" cx="0" cy="0" r="1" gradientUnits="userSpaceOnUse" gradientTransform="translate(21.4306 15.0436) rotate(52.6545) scale(8.09929 11.6783)">
<stop offset="0.151042" stop-color="#33A6FF"/>
<stop offset="0.907346" stop-color="#36C27F"/>
</radialGradient>
<radialGradient id="paint6_radial_1110_6" cx="0" cy="0" r="1" gradientUnits="userSpaceOnUse" gradientTransform="translate(27.7934 16.8207) rotate(60.218) scale(4.94582 6.3748)">
<stop offset="0.151042" stop-color="#33A6FF"/>
<stop offset="0.907346" stop-color="#36C27F"/>
</radialGradient>
<radialGradient id="paint7_radial_1110_6" cx="0" cy="0" r="1" gradientUnits="userSpaceOnUse" gradientTransform="translate(27.7934 9.00824) rotate(60.218) scale(4.94582 6.3748)">
<stop offset="0.151042" stop-color="#33A6FF"/>
<stop offset="0.907346" stop-color="#36C27F"/>
</radialGradient>
<radialGradient id="paint8_radial_1110_6" cx="0" cy="0" r="1" gradientUnits="userSpaceOnUse" gradientTransform="translate(8.93056 15.0436) rotate(52.6545) scale(8.09929 11.6783)">
<stop offset="0.151042" stop-color="#33A6FF"/>
<stop offset="0.907346" stop-color="#36C27F"/>
</radialGradient>
<radialGradient id="paint9_radial_1110_6" cx="0" cy="0" r="1" gradientUnits="userSpaceOnUse" gradientTransform="translate(15.1806 15.0436) rotate(52.6545) scale(8.09929 11.6783)">
<stop offset="0.151042" stop-color="#33A6FF"/>
<stop offset="0.907346" stop-color="#36C27F"/>
</radialGradient>
<radialGradient id="paint10_radial_1110_6" cx="0" cy="0" r="1" gradientUnits="userSpaceOnUse" gradientTransform="translate(8.93056 21.4009) rotate(47.5208) scale(7.27534 10.8341)">
<stop offset="0.151042" stop-color="#33A6FF"/>
<stop offset="0.907346" stop-color="#36C27F"/>
</radialGradient>
<radialGradient id="paint11_radial_1110_6" cx="0" cy="0" r="1" gradientUnits="userSpaceOnUse" gradientTransform="translate(21.4306 21.2936) rotate(52.6545) scale(8.09929 11.6783)">
<stop offset="0.151042" stop-color="#33A6FF"/>
<stop offset="0.907346" stop-color="#36C27F"/>
</radialGradient>
<radialGradient id="paint12_radial_1110_6" cx="0" cy="0" r="1" gradientUnits="userSpaceOnUse" gradientTransform="translate(27.6806 21.2936) rotate(52.6545) scale(8.0993 11.6783)">
<stop offset="0.151042" stop-color="#33A6FF"/>
<stop offset="0.907346" stop-color="#36C27F"/>
</radialGradient>
<radialGradient id="paint13_radial_1110_6" cx="0" cy="0" r="1" gradientUnits="userSpaceOnUse" gradientTransform="translate(21.4306 27.6509) rotate(47.5208) scale(7.27534 10.8341)">
<stop offset="0.151042" stop-color="#33A6FF"/>
<stop offset="0.907346" stop-color="#36C27F"/>
</radialGradient>
<radialGradient id="paint14_radial_1110_6" cx="0" cy="0" r="1" gradientUnits="userSpaceOnUse" gradientTransform="translate(16.8183 27.6509) rotate(58.5984) scale(6.28647 8.35885)">
<stop offset="0.151042" stop-color="#33A6FF"/>
<stop offset="0.907346" stop-color="#36C27F"/>
</radialGradient>
<radialGradient id="paint15_radial_1110_6" cx="0" cy="0" r="1" gradientUnits="userSpaceOnUse" gradientTransform="translate(27.7558 27.8656) rotate(44.5057) scale(4.59276 6.86485)">
<stop offset="0.151042" stop-color="#33A6FF"/>
<stop offset="0.907346" stop-color="#36C27F"/>
</radialGradient>
<radialGradient id="paint16_radial_1110_6" cx="0" cy="0" r="1" gradientUnits="userSpaceOnUse" gradientTransform="translate(15.4296 21.5858) rotate(52.6543) scale(7.30856 10.5381)">
<stop offset="0.151042" stop-color="#33A6FF"/>
<stop offset="0.907346" stop-color="#36C27F"/>
</radialGradient>
<radialGradient id="paint17_radial_1110_6" cx="0" cy="0" r="1" gradientUnits="userSpaceOnUse" gradientTransform="translate(34.2077 10.8468) rotate(67.5833) scale(10.1078 10.6537)">
<stop offset="0.151042" stop-color="#33A6FF"/>
<stop offset="0.907346" stop-color="#36C27F"/>
</radialGradient>
<radialGradient id="paint18_radial_1110_6" cx="0" cy="0" r="1" gradientUnits="userSpaceOnUse" gradientTransform="translate(29.5724 3.17021) rotate(58.0242) scale(27.8336 37.3829)">
<stop offset="0.151042" stop-color="#33A6FF"/>
<stop offset="0.907346" stop-color="#36C27F"/>
</radialGradient>
<radialGradient id="paint19_radial_1110_6" cx="0" cy="0" r="1" gradientUnits="userSpaceOnUse" gradientTransform="translate(34.081 23.6374) rotate(75.7294) scale(6.64389 4.7455)">
<stop offset="0.151042" stop-color="#33A6FF"/>
<stop offset="0.907346" stop-color="#36C27F"/>
</radialGradient>
<radialGradient id="paint20_radial_1110_6" cx="0" cy="0" r="1" gradientUnits="userSpaceOnUse" gradientTransform="translate(-1.51659 23.7775) rotate(30.1418) scale(55.7049 72.3236)">
<stop offset="0.151042" stop-color="#33A6FF"/>
<stop offset="0.907346" stop-color="#36C27F"/>
</radialGradient>
</defs>
</svg>
