<svg width="50" height="51" viewBox="0 0 50 51" fill="none" xmlns="http://www.w3.org/2000/svg">
<path d="M43.4048 12.2615L40.8077 13.9995C40.7225 14.0566 40.6493 14.1299 40.5923 14.2152C40.5354 14.3006 40.4958 14.3963 40.4759 14.4969C40.4559 14.5976 40.456 14.7012 40.4761 14.8018C40.4962 14.9024 40.5359 14.9981 40.593 15.0833C42.657 18.1647 43.7561 21.7913 43.75 25.5001C43.75 35.8388 35.3388 44.2501 25 44.2501C21.685 44.2518 18.4298 43.3677 15.5712 41.6892L17.3297 40.9356C17.424 40.8952 17.5094 40.8366 17.5811 40.7632C17.6527 40.6897 17.7092 40.6029 17.7473 40.5077C17.7854 40.4124 17.8044 40.3106 17.8031 40.208C17.8018 40.1054 17.7804 40.004 17.74 39.9097L16.5086 37.0373C16.4682 36.943 16.4096 36.8575 16.3362 36.7859C16.2628 36.7142 16.176 36.6577 16.0807 36.6196C15.9854 36.5815 15.8836 36.5625 15.781 36.5638C15.6784 36.5651 15.5771 36.5866 15.4828 36.627L9.06725 39.3766C8.92672 39.4369 8.80695 39.537 8.72278 39.6646C8.63862 39.7923 8.59375 39.9418 8.59375 40.0947V47.3751C8.59375 47.5823 8.67606 47.781 8.82258 47.9275C8.96909 48.074 9.1678 48.1563 9.375 48.1563H12.5C12.7072 48.1563 12.9059 48.074 13.0524 47.9275C13.1989 47.781 13.2812 47.5823 13.2813 47.3751V45.7971C16.8425 47.8584 20.8852 48.9418 25 48.9376C37.9235 48.9376 48.4375 38.4235 48.4375 25.5001C48.4446 20.8628 47.0698 16.3286 44.4885 12.4762C44.3733 12.304 44.1943 12.1847 43.9911 12.1444C43.7879 12.1042 43.577 12.1463 43.4048 12.2615ZM25 47.3751C20.7072 47.3795 16.5087 46.1159 12.9313 43.743C12.8136 43.665 12.677 43.6204 12.5359 43.6139C12.3949 43.6074 12.2547 43.6393 12.1303 43.7061C12.0059 43.7729 11.902 43.8722 11.8295 43.9934C11.757 44.1146 11.7187 44.2531 11.7188 44.3943V46.5938H10.1563V40.6098L15.3803 38.3709L15.9961 39.8072L13.5976 40.835C13.4693 40.89 13.358 40.9784 13.2755 41.0909C13.1929 41.2035 13.142 41.3361 13.128 41.475C13.114 41.6139 13.1375 41.754 13.1961 41.8807C13.2546 42.0075 13.346 42.1162 13.4608 42.1956C16.8476 44.5513 20.8745 45.8135 25 45.8126C36.2003 45.8126 45.3125 36.7004 45.3125 25.5001C45.3183 21.7477 44.2799 18.0677 42.3136 14.8718L43.6131 14.0022C45.7515 17.4556 46.8814 21.4382 46.875 25.5001C46.875 37.562 37.0619 47.3751 25 47.3751Z" fill="white"/>
<path d="M43.4048 12.2615L40.8077 13.9995C40.7225 14.0566 40.6493 14.1299 40.5923 14.2152C40.5354 14.3006 40.4958 14.3963 40.4759 14.4969C40.4559 14.5976 40.456 14.7012 40.4761 14.8018C40.4962 14.9024 40.5359 14.9981 40.593 15.0833C42.657 18.1647 43.7561 21.7913 43.75 25.5001C43.75 35.8388 35.3388 44.2501 25 44.2501C21.685 44.2518 18.4298 43.3677 15.5712 41.6892L17.3297 40.9356C17.424 40.8952 17.5094 40.8366 17.5811 40.7632C17.6527 40.6897 17.7092 40.6029 17.7473 40.5077C17.7854 40.4124 17.8044 40.3106 17.8031 40.208C17.8018 40.1054 17.7804 40.004 17.74 39.9097L16.5086 37.0373C16.4682 36.943 16.4096 36.8575 16.3362 36.7859C16.2628 36.7142 16.176 36.6577 16.0807 36.6196C15.9854 36.5815 15.8836 36.5625 15.781 36.5638C15.6784 36.5651 15.5771 36.5866 15.4828 36.627L9.06725 39.3766C8.92672 39.4369 8.80695 39.537 8.72278 39.6646C8.63862 39.7923 8.59375 39.9418 8.59375 40.0947V47.3751C8.59375 47.5823 8.67606 47.781 8.82258 47.9275C8.96909 48.074 9.1678 48.1563 9.375 48.1563H12.5C12.7072 48.1563 12.9059 48.074 13.0524 47.9275C13.1989 47.781 13.2812 47.5823 13.2813 47.3751V45.7971C16.8425 47.8584 20.8852 48.9418 25 48.9376C37.9235 48.9376 48.4375 38.4235 48.4375 25.5001C48.4446 20.8628 47.0698 16.3286 44.4885 12.4762C44.3733 12.304 44.1943 12.1847 43.9911 12.1444C43.7879 12.1042 43.577 12.1463 43.4048 12.2615ZM25 47.3751C20.7072 47.3795 16.5087 46.1159 12.9313 43.743C12.8136 43.665 12.677 43.6204 12.5359 43.6139C12.3949 43.6074 12.2547 43.6393 12.1303 43.7061C12.0059 43.7729 11.902 43.8722 11.8295 43.9934C11.757 44.1146 11.7187 44.2531 11.7188 44.3943V46.5938H10.1563V40.6098L15.3803 38.3709L15.9961 39.8072L13.5976 40.835C13.4693 40.89 13.358 40.9784 13.2755 41.0909C13.1929 41.2035 13.142 41.3361 13.128 41.475C13.114 41.6139 13.1375 41.754 13.1961 41.8807C13.2546 42.0075 13.346 42.1162 13.4608 42.1956C16.8476 44.5513 20.8745 45.8135 25 45.8126C36.2003 45.8126 45.3125 36.7004 45.3125 25.5001C45.3183 21.7477 44.2799 18.0677 42.3136 14.8718L43.6131 14.0022C45.7515 17.4556 46.8814 21.4382 46.875 25.5001C46.875 37.562 37.0619 47.3751 25 47.3751Z" fill="url(#paint0_radial_1110_356)"/>
<path d="M6.01479 38.8642C6.21807 38.9043 6.42897 38.8621 6.60111 38.7467L9.19663 37.0072C9.28185 36.9501 9.35498 36.8768 9.41186 36.7914C9.46874 36.706 9.50824 36.6103 9.52811 36.5096C9.54798 36.409 9.54784 36.3054 9.52768 36.2048C9.50752 36.1042 9.46775 36.0086 9.41063 35.9234C7.34361 32.8406 6.24293 29.2113 6.2493 25.4997C6.2493 15.1609 14.6605 6.74971 24.9993 6.74971C28.3141 6.74803 31.5692 7.63219 34.4277 9.3107L32.6696 10.0642C32.5753 10.1046 32.4899 10.1632 32.4182 10.2366C32.3466 10.31 32.2901 10.3969 32.252 10.4921C32.2139 10.5874 32.1949 10.6892 32.1962 10.7918C32.1975 10.8944 32.2189 10.9957 32.2593 11.09L33.4907 13.9625C33.5311 14.0568 33.5897 14.1422 33.6631 14.2139C33.7365 14.2855 33.8234 14.342 33.9186 14.3801C34.0139 14.4182 34.1157 14.4372 34.2183 14.4359C34.3209 14.4347 34.4222 14.4132 34.5165 14.3728L40.9321 11.6231C41.0726 11.5629 41.1923 11.4628 41.2765 11.3351C41.3607 11.2075 41.4055 11.0579 41.4055 10.9051V3.62471C41.4055 3.41751 41.3232 3.21879 41.1767 3.07228C41.0302 2.92577 40.8315 2.84346 40.6243 2.84346H37.4993C37.2921 2.84346 37.0934 2.92577 36.9469 3.07228C36.8004 3.21879 36.718 3.41751 36.718 3.62471V5.20352C33.157 3.14178 29.1141 2.05806 24.9993 2.06221C12.0758 2.06221 1.5618 12.5762 1.5618 25.4997C1.55455 30.1407 2.9317 34.6785 5.51716 38.5327C5.57426 38.6179 5.6476 38.6911 5.73299 38.7479C5.81837 38.8048 5.91413 38.8443 6.01479 38.8642ZM24.9993 3.62471C29.2922 3.62043 33.4907 4.88432 37.0679 7.25773C37.1856 7.33571 37.3222 7.38033 37.4633 7.38684C37.6044 7.39334 37.7445 7.3615 37.8689 7.29468C37.9934 7.22787 38.0973 7.12858 38.1698 7.00739C38.2423 6.8862 38.2805 6.74763 38.2805 6.60642V4.40596H39.843V10.3899L34.619 12.6289L34.0032 11.1925L36.4013 10.1649C36.5296 10.1099 36.6409 10.0215 36.7235 9.90897C36.806 9.79642 36.857 9.66381 36.8709 9.52491C36.8849 9.38602 36.8614 9.24592 36.8028 9.11919C36.7443 8.99246 36.6529 8.88373 36.5381 8.8043C33.1514 6.4486 29.1247 5.18632 24.9993 5.18721C13.799 5.18721 4.6868 14.2994 4.6868 25.4997C4.6807 29.2552 5.72069 32.9382 7.6902 36.1358L6.39168 37.0061C4.24978 33.5508 3.11795 29.565 3.1243 25.4997C3.1243 13.4378 12.9374 3.62471 24.9993 3.62471Z" fill="white"/>
<path d="M6.01479 38.8642C6.21807 38.9043 6.42897 38.8621 6.60111 38.7467L9.19663 37.0072C9.28185 36.9501 9.35498 36.8768 9.41186 36.7914C9.46874 36.706 9.50824 36.6103 9.52811 36.5096C9.54798 36.409 9.54784 36.3054 9.52768 36.2048C9.50752 36.1042 9.46775 36.0086 9.41063 35.9234C7.34361 32.8406 6.24293 29.2113 6.2493 25.4997C6.2493 15.1609 14.6605 6.74971 24.9993 6.74971C28.3141 6.74803 31.5692 7.63219 34.4277 9.3107L32.6696 10.0642C32.5753 10.1046 32.4899 10.1632 32.4182 10.2366C32.3466 10.31 32.2901 10.3969 32.252 10.4921C32.2139 10.5874 32.1949 10.6892 32.1962 10.7918C32.1975 10.8944 32.2189 10.9957 32.2593 11.09L33.4907 13.9625C33.5311 14.0568 33.5897 14.1422 33.6631 14.2139C33.7365 14.2855 33.8234 14.342 33.9186 14.3801C34.0139 14.4182 34.1157 14.4372 34.2183 14.4359C34.3209 14.4347 34.4222 14.4132 34.5165 14.3728L40.9321 11.6231C41.0726 11.5629 41.1923 11.4628 41.2765 11.3351C41.3607 11.2075 41.4055 11.0579 41.4055 10.9051V3.62471C41.4055 3.41751 41.3232 3.21879 41.1767 3.07228C41.0302 2.92577 40.8315 2.84346 40.6243 2.84346H37.4993C37.2921 2.84346 37.0934 2.92577 36.9469 3.07228C36.8004 3.21879 36.718 3.41751 36.718 3.62471V5.20352C33.157 3.14178 29.1141 2.05806 24.9993 2.06221C12.0758 2.06221 1.5618 12.5762 1.5618 25.4997C1.55455 30.1407 2.9317 34.6785 5.51716 38.5327C5.57426 38.6179 5.6476 38.6911 5.73299 38.7479C5.81837 38.8048 5.91413 38.8443 6.01479 38.8642ZM24.9993 3.62471C29.2922 3.62043 33.4907 4.88432 37.0679 7.25773C37.1856 7.33571 37.3222 7.38033 37.4633 7.38684C37.6044 7.39334 37.7445 7.3615 37.8689 7.29468C37.9934 7.22787 38.0973 7.12858 38.1698 7.00739C38.2423 6.8862 38.2805 6.74763 38.2805 6.60642V4.40596H39.843V10.3899L34.619 12.6289L34.0032 11.1925L36.4013 10.1649C36.5296 10.1099 36.6409 10.0215 36.7235 9.90897C36.806 9.79642 36.857 9.66381 36.8709 9.52491C36.8849 9.38602 36.8614 9.24592 36.8028 9.11919C36.7443 8.99246 36.6529 8.88373 36.5381 8.8043C33.1514 6.4486 29.1247 5.18632 24.9993 5.18721C13.799 5.18721 4.6868 14.2994 4.6868 25.4997C4.6807 29.2552 5.72069 32.9382 7.6902 36.1358L6.39168 37.0061C4.24978 33.5508 3.11795 29.565 3.1243 25.4997C3.1243 13.4378 12.9374 3.62471 24.9993 3.62471Z" fill="url(#paint1_radial_1110_356)"/>
<path d="M11.7188 29.4067C11.5116 29.4067 11.3128 29.489 11.1663 29.6355C11.0198 29.782 10.9375 29.9807 10.9375 30.1879V34.0942C10.9375 34.3014 11.0198 34.5001 11.1663 34.6466C11.3128 34.7931 11.5116 34.8754 11.7188 34.8754H36.7188C36.926 34.8754 37.1247 34.7931 37.2712 34.6466C37.4177 34.5001 37.5 34.3014 37.5 34.0942V30.1879C37.5 29.9807 37.4177 29.782 37.2712 29.6355C37.1247 29.489 36.926 29.4067 36.7188 29.4067H32.8125V24.7192H33.5938C33.7483 24.7192 33.8993 24.6734 34.0278 24.5875C34.1562 24.5017 34.2564 24.3797 34.3155 24.2369C34.3746 24.0942 34.3901 23.9371 34.36 23.7856C34.3298 23.634 34.2555 23.4948 34.1462 23.3855L32.0313 21.2706V15.3442C32.0312 15.137 31.9489 14.9383 31.8024 14.7918C31.6559 14.6453 31.4572 14.563 31.25 14.563H28.125C27.9178 14.563 27.7191 14.6453 27.5726 14.7918C27.4261 14.9383 27.3438 15.137 27.3438 15.3442V16.5831L24.7712 14.0105C24.6247 13.864 24.426 13.7817 24.2188 13.7817C24.0115 13.7817 23.8128 13.864 23.6663 14.0105L14.2913 23.3855C14.182 23.4948 14.1077 23.634 14.0775 23.7856C14.0474 23.9371 14.0629 24.0942 14.122 24.2369C14.1811 24.3797 14.2813 24.5017 14.4097 24.5875C14.5382 24.6734 14.6892 24.7192 14.8438 24.7192H15.625V29.4067H11.7188ZM18.75 33.3129H12.5V30.9692H18.75V33.3129ZM21.875 33.3129H20.3125V27.8442H21.875V33.3129ZM28.125 29.4067H26.5625V27.8442H28.125V29.4067ZM35.9375 33.3129H29.6875V30.9692H35.9375V33.3129ZM28.9063 16.1255H30.4688V19.7081L28.9063 18.1456V16.1255ZM24.2188 15.6678L31.7077 23.1567H16.7298L24.2188 15.6678ZM17.1875 24.7192H31.25V29.4067H29.6875V27.0629C29.6875 26.8557 29.6052 26.657 29.4587 26.5105C29.3122 26.364 29.1135 26.2817 28.9063 26.2817H25.7813C25.5741 26.2817 25.3753 26.364 25.2288 26.5105C25.0823 26.657 25 26.8557 25 27.0629V30.1879C25 30.3951 25.0823 30.5939 25.2288 30.7404C25.3753 30.8869 25.5741 30.9692 25.7813 30.9692H28.125V33.3129H23.4375V27.0629C23.4375 26.8557 23.3552 26.657 23.2087 26.5105C23.0622 26.364 22.8635 26.2817 22.6563 26.2817H19.5313C19.3241 26.2817 19.1253 26.364 18.9788 26.5105C18.8323 26.657 18.75 26.8557 18.75 27.0629V29.4067H17.1875V24.7192Z" fill="white"/>
<path d="M11.7188 29.4067C11.5116 29.4067 11.3128 29.489 11.1663 29.6355C11.0198 29.782 10.9375 29.9807 10.9375 30.1879V34.0942C10.9375 34.3014 11.0198 34.5001 11.1663 34.6466C11.3128 34.7931 11.5116 34.8754 11.7188 34.8754H36.7188C36.926 34.8754 37.1247 34.7931 37.2712 34.6466C37.4177 34.5001 37.5 34.3014 37.5 34.0942V30.1879C37.5 29.9807 37.4177 29.782 37.2712 29.6355C37.1247 29.489 36.926 29.4067 36.7188 29.4067H32.8125V24.7192H33.5938C33.7483 24.7192 33.8993 24.6734 34.0278 24.5875C34.1562 24.5017 34.2564 24.3797 34.3155 24.2369C34.3746 24.0942 34.3901 23.9371 34.36 23.7856C34.3298 23.634 34.2555 23.4948 34.1462 23.3855L32.0313 21.2706V15.3442C32.0312 15.137 31.9489 14.9383 31.8024 14.7918C31.6559 14.6453 31.4572 14.563 31.25 14.563H28.125C27.9178 14.563 27.7191 14.6453 27.5726 14.7918C27.4261 14.9383 27.3438 15.137 27.3438 15.3442V16.5831L24.7712 14.0105C24.6247 13.864 24.426 13.7817 24.2188 13.7817C24.0115 13.7817 23.8128 13.864 23.6663 14.0105L14.2913 23.3855C14.182 23.4948 14.1077 23.634 14.0775 23.7856C14.0474 23.9371 14.0629 24.0942 14.122 24.2369C14.1811 24.3797 14.2813 24.5017 14.4097 24.5875C14.5382 24.6734 14.6892 24.7192 14.8438 24.7192H15.625V29.4067H11.7188ZM18.75 33.3129H12.5V30.9692H18.75V33.3129ZM21.875 33.3129H20.3125V27.8442H21.875V33.3129ZM28.125 29.4067H26.5625V27.8442H28.125V29.4067ZM35.9375 33.3129H29.6875V30.9692H35.9375V33.3129ZM28.9063 16.1255H30.4688V19.7081L28.9063 18.1456V16.1255ZM24.2188 15.6678L31.7077 23.1567H16.7298L24.2188 15.6678ZM17.1875 24.7192H31.25V29.4067H29.6875V27.0629C29.6875 26.8557 29.6052 26.657 29.4587 26.5105C29.3122 26.364 29.1135 26.2817 28.9063 26.2817H25.7813C25.5741 26.2817 25.3753 26.364 25.2288 26.5105C25.0823 26.657 25 26.8557 25 27.0629V30.1879C25 30.3951 25.0823 30.5939 25.2288 30.7404C25.3753 30.8869 25.5741 30.9692 25.7813 30.9692H28.125V33.3129H23.4375V27.0629C23.4375 26.8557 23.3552 26.657 23.2087 26.5105C23.0622 26.364 22.8635 26.2817 22.6563 26.2817H19.5313C19.3241 26.2817 19.1253 26.364 18.9788 26.5105C18.8323 26.657 18.75 26.8557 18.75 27.0629V29.4067H17.1875V24.7192Z" fill="url(#paint2_radial_1110_356)"/>
<defs>
<radialGradient id="paint0_radial_1110_356" cx="0" cy="0" r="1" gradientUnits="userSpaceOnUse" gradientTransform="translate(6.67534 7.0735) rotate(50.4438) scale(65.5777 96.2697)">
<stop offset="0.151042" stop-color="#33A6FF"/>
<stop offset="0.907346" stop-color="#36C27F"/>
</radialGradient>
<radialGradient id="paint1_radial_1110_356" cx="0" cy="0" r="1" gradientUnits="userSpaceOnUse" gradientTransform="translate(-0.356638 -2.99506) rotate(50.4505) scale(65.587 96.279)">
<stop offset="0.151042" stop-color="#33A6FF"/>
<stop offset="0.907346" stop-color="#36C27F"/>
</radialGradient>
<radialGradient id="paint2_radial_1110_356" cx="0" cy="0" r="1" gradientUnits="userSpaceOnUse" gradientTransform="translate(9.65856 10.8843) rotate(46.1428) scale(40.1832 60.0234)">
<stop offset="0.151042" stop-color="#33A6FF"/>
<stop offset="0.907346" stop-color="#36C27F"/>
</radialGradient>
</defs>
</svg>
