<svg width="50" height="51" viewBox="0 0 50 51" fill="none" xmlns="http://www.w3.org/2000/svg">
<path d="M47.6563 30.1875H44.5313V23.7851L46.5678 24.6558C46.6866 24.7066 46.8162 24.7272 46.9449 24.7156C47.0737 24.7041 47.1975 24.6607 47.3053 24.5896C47.4132 24.5184 47.5017 24.4216 47.563 24.3078C47.6242 24.194 47.6563 24.0667 47.6563 23.9375C47.6573 22.5499 47.3309 21.1816 46.7035 19.944C46.0761 18.7063 45.1655 17.6342 44.0456 16.8148L43.5994 13.9144C43.3892 12.5703 42.8472 11.2997 42.0226 10.2177C41.1979 9.13567 40.1165 8.27629 38.8762 7.71727L36.6556 2.536C36.5954 2.39547 36.4952 2.2757 36.3676 2.19153C36.2399 2.10737 36.0904 2.0625 35.9375 2.0625H28.9063V3.625H30.4688V4.31012L29.7109 7.34175C29.6821 7.45693 29.6799 7.57716 29.7045 7.6933C29.7292 7.80944 29.7799 7.91844 29.853 8.01202C29.9261 8.1056 30.0195 8.1813 30.1262 8.23337C30.2329 8.28543 30.35 8.31249 30.4688 8.3125H31.25V9.875C31.2501 10.0719 31.3246 10.2615 31.4585 10.4058C31.5924 10.5501 31.776 10.6385 31.9723 10.6533L30.9676 13.1649C30.8209 13.5322 30.7308 13.9197 30.7005 14.3141L28.4189 17.052L21.2668 20.3528L20.6331 20.0993L16.7174 18.1415L16.9285 17.5609L20.924 18.4501C21.0406 18.476 21.1617 18.4749 21.2778 18.4468C21.394 18.4186 21.5021 18.3642 21.5939 18.2876L26.2814 14.3814C26.2996 14.3663 26.317 14.3504 26.3337 14.3337L28.2868 12.3806C28.5133 12.1541 28.6929 11.8853 28.8155 11.5895C28.938 11.2936 29.0011 10.9765 29.0011 10.6563C29.0011 10.336 28.938 10.0189 28.8155 9.72305C28.6929 9.42718 28.5133 9.15836 28.2868 8.93191C28.0604 8.70547 27.7916 8.52585 27.4957 8.4033C27.1999 8.28074 26.8827 8.21767 26.5625 8.21767C26.2423 8.21767 25.9252 8.28074 25.6293 8.4033C25.3334 8.52585 25.0646 8.70547 24.8382 8.93191L24.2188 9.55135V9.09375C24.2188 8.88655 24.1364 8.68784 23.9899 8.54132C23.8434 8.39481 23.6447 8.3125 23.4375 8.3125C23.2303 8.3125 23.0316 8.39481 22.8851 8.54132C22.7386 8.68784 22.6563 8.88655 22.6563 9.09375V11.0469L20.286 12.8246L16.8379 10.5259C16.9454 10.4548 17.0336 10.3581 17.0946 10.2445C17.1556 10.1309 17.1876 10.0039 17.1875 9.875V8.3125H17.9688C18.0875 8.31249 18.2046 8.28543 18.3113 8.23337C18.418 8.1813 18.5115 8.1056 18.5845 8.01202C18.6576 7.91844 18.7084 7.80944 18.733 7.6933C18.7576 7.57716 18.7554 7.45693 18.7266 7.34175L17.9688 4.31012V3.625H19.5313V2.0625H12.5C12.3471 2.0625 12.1976 2.10737 12.0699 2.19153C11.9423 2.2757 11.8421 2.39547 11.7819 2.536L9.55086 7.74173L7.22771 8.9033C6.47028 9.28507 5.85697 9.90204 5.47973 10.6617C5.10249 11.4214 4.98163 12.2829 5.13526 13.1171L5.69294 16.0915C4.41815 16.9647 3.37564 18.1356 2.65586 19.5029C1.93609 20.8701 1.56078 22.3924 1.56251 23.9375C1.56251 24.0707 1.59655 24.2016 1.6614 24.3179C1.72626 24.4343 1.81976 24.5321 1.93305 24.6021C2.04633 24.6721 2.17564 24.712 2.30867 24.718C2.44171 24.7239 2.57407 24.6958 2.69318 24.6363L6.90065 22.5325L6.97857 22.948L5.07031 25.3334C4.68673 25.8145 4.42182 26.3791 4.29703 26.9816C4.17224 27.5841 4.19107 28.2075 4.352 28.8013L6.15826 35.4244L4.13504 37.4475C4.00967 37.573 3.93067 37.7374 3.91102 37.9137L3.12977 44.9449C3.12665 44.9736 3.12512 45.0024 3.1252 45.0312H3.12501V48.1562C3.12502 48.3634 3.20733 48.5622 3.35384 48.7087C3.50035 48.8552 3.69906 48.9375 3.90626 48.9375H17.1875C17.3598 48.9375 17.5273 48.8806 17.6638 48.7755C17.8004 48.6705 17.8984 48.5233 17.9426 48.3568C17.9869 48.1902 17.9748 48.0138 17.9083 47.8548C17.8418 47.6959 17.7247 47.5634 17.5751 47.4779L12.6202 44.6465L14.8204 35.8457C14.8359 35.7838 14.8438 35.7201 14.8438 35.6562V23.294L14.9181 23.0894L18.4327 24.6514C18.4373 24.6535 18.4421 24.6548 18.4467 24.6568C18.4512 24.6587 18.4554 24.6611 18.4599 24.6629L20.8793 25.6306C21.1734 25.7483 21.4874 25.8086 21.8042 25.8084C22.1844 25.8081 22.5596 25.7229 22.9026 25.559C23.2455 25.395 23.5475 25.1566 23.7866 24.861L31.5578 21.5306C31.6491 21.4915 31.7322 21.4352 31.8025 21.365L32.6016 20.5658L33.5851 23.2702L32.814 35.6075C32.8091 35.6876 32.8164 35.7679 32.8359 35.8457L35.0361 44.6465L30.0812 47.4779C29.9316 47.5634 29.8144 47.6959 29.748 47.8548C29.6815 48.0138 29.6694 48.1902 29.7136 48.3568C29.7578 48.5233 29.8559 48.6705 29.9924 48.7755C30.129 48.8806 30.2965 48.9375 30.4688 48.9375H44.5313C44.65 48.9375 44.7671 48.9104 44.8738 48.8584C44.9805 48.8063 45.074 48.7306 45.147 48.637C45.2201 48.5434 45.2709 48.4344 45.2955 48.3183C45.3201 48.2022 45.3179 48.0819 45.2891 47.9668L44.5313 44.9352V40.3438H47.6563C47.8635 40.3437 48.0622 40.2614 48.2087 40.1149C48.3552 39.9684 48.4375 39.7697 48.4375 39.5625V30.9688C48.4375 30.7616 48.3552 30.5628 48.2087 30.4163C48.0622 30.2698 47.8635 30.1875 47.6563 30.1875ZM41.4063 30.1875V28.625H42.9688V30.1875H41.4063ZM34.9222 22.375L32.3918 15.4166C32.1947 14.8752 32.2042 14.28 32.4184 13.7451L33.2846 11.5795L35.1075 12.0352C35.0277 13.7672 35.3596 15.4934 36.0761 17.0722C36.7925 18.6511 37.8731 20.0376 39.2291 21.118L39.3434 22.375H34.9222ZM45.9899 22.7094L44.5313 22.0858V20.0312C44.5312 19.9915 44.5282 19.9517 44.5222 19.9124L44.4295 19.3097C45.238 20.287 45.776 21.4592 45.9899 22.7094ZM42.055 14.152L42.9688 20.091V27.0625H41.3385L40.6218 19.1792C40.62 19.16 40.6176 19.1407 40.6144 19.1215L39.8332 14.434L38.2918 14.691L38.9612 18.7068C38.1351 17.7552 37.5088 16.6472 37.1194 15.4487C36.73 14.2502 36.5855 12.9857 36.6945 11.7302L38.5299 9.28311C39.4601 9.75875 40.2645 10.4479 40.8773 11.2942C41.49 12.1405 41.8936 13.1198 42.055 14.152L42.055 14.152ZM31.4694 6.75L32.0079 4.59575C32.0234 4.53378 32.0313 4.47013 32.0313 4.40625V3.625H35.4223L37.3853 8.20512L35.6237 10.5537L34.3406 10.233L35.7087 8.86496C35.7813 8.79241 35.8388 8.70628 35.8781 8.61149C35.9174 8.5167 35.9376 8.4151 35.9376 8.3125C35.9376 8.2099 35.9174 8.1083 35.8781 8.01351C35.8388 7.91872 35.7813 7.83258 35.7087 7.76003C35.6362 7.68748 35.55 7.62993 35.4552 7.59067C35.3605 7.5514 35.2589 7.5312 35.1563 7.5312C35.0537 7.5312 34.9521 7.5514 34.8573 7.59067C34.7625 7.62993 34.6763 7.68748 34.6038 7.76003L33.2702 9.09375H32.8125V7.53125C32.8125 7.32405 32.7302 7.12534 32.5837 6.97883C32.4372 6.83232 32.2385 6.75001 32.0313 6.75H31.4694ZM14.558 17.0618L13.016 15.2114C13.2769 14.174 13.3829 13.1036 13.3303 12.0352L15.1529 11.5795L16.0192 13.7451C16.2334 14.28 16.2428 14.8751 16.0457 15.4165L15.3105 17.438L14.558 17.0618ZM25.9431 10.0368C26.0244 9.9555 26.121 9.89097 26.2273 9.84695C26.3336 9.80293 26.4475 9.78027 26.5625 9.78027C26.6775 9.78027 26.7915 9.80293 26.8977 9.84695C27.004 9.89097 27.1006 9.9555 27.1819 10.0368C27.2633 10.1182 27.3278 10.2147 27.3718 10.321C27.4158 10.4273 27.4385 10.5412 27.4385 10.6562C27.4385 10.7713 27.4158 10.8852 27.3718 10.9915C27.3278 11.0978 27.2633 11.1943 27.1819 11.2757L25.7813 12.6764L24.5424 11.4375L25.9431 10.0368ZM20.7812 14.4063L23.3642 12.4691L24.6239 13.7288L20.8886 16.8415L17.467 16.0801L17.5141 15.9505C17.8427 15.0481 17.8269 14.0563 17.4699 13.1649L17.2845 12.7015L19.8792 14.4313C20.0136 14.5209 20.1726 14.5666 20.3342 14.5622C20.4957 14.5577 20.6519 14.5032 20.7812 14.4063ZM13.0152 3.625H16.4063V4.40625C16.4062 4.47013 16.4141 4.53378 16.4296 4.59575L16.9682 6.75H16.4063C16.1991 6.75001 16.0004 6.83232 15.8538 6.97883C15.7073 7.12534 15.625 7.32405 15.625 7.53125V9.09375H15.1673L13.8337 7.76004C13.6872 7.61351 13.4885 7.5312 13.2813 7.5312C13.074 7.5312 12.8753 7.61351 12.7288 7.76004C12.5823 7.90656 12.5 8.10529 12.5 8.3125C12.5 8.51971 12.5823 8.71844 12.7288 8.86496L14.0969 10.233L12.8138 10.5537L11.0522 8.20512L13.0152 3.625ZM7.92657 10.3008L9.92247 9.30287L11.7441 11.7317C11.8013 12.3713 11.7923 13.0152 11.7173 13.653L10.7564 12.4999L9.55611 13.5001L13.4624 18.1876C13.5313 18.2704 13.6167 18.3381 13.7131 18.3863L19.2643 21.1619L18.3851 22.9204L12.1686 20.1575L7.09353 15.0823L6.67105 12.8291C6.57884 12.3286 6.65135 11.8117 6.87771 11.3558C7.10407 10.9 7.47208 10.5298 7.92657 10.3008ZM3.2342 22.6189C3.41355 21.5445 3.81212 20.5186 4.4051 19.605C4.99809 18.6914 5.77278 17.9096 6.68097 17.3083L6.93865 17.1373L9.00806 19.2067C8.30398 19.9069 7.49245 20.49 6.6042 20.9338L3.2342 22.6189ZM4.68751 47.375V45.8125H5.23224L7.57599 47.375H4.68751ZM8.92788 41.0506L9.37501 45.0746V46.6965L6.53844 44.8054L8.92788 41.0506ZM10.9375 47.375V45.8125H11.5113L14.2456 47.375H10.9375ZM11.1088 44.25H10.8555L10.2772 39.0449C10.2734 39.0112 10.2715 38.977 10.2692 38.9428L11.5966 36.8569C11.6764 36.7316 11.7188 36.5861 11.7188 36.4375V29.4062H10.1563V36.21L5.03989 44.25H4.77915L5.43376 38.3587L7.58372 36.2087C7.68109 36.1113 7.75099 35.9899 7.78633 35.8568C7.82166 35.7237 7.82119 35.5836 7.78494 35.4507L5.85938 28.3903C5.76283 28.034 5.75154 27.6599 5.82643 27.2984C5.90132 26.9369 6.06028 26.5981 6.29044 26.3095L8.18804 23.9375H13.2813V35.56L11.1088 44.25ZM8.46091 22.375L8.34134 21.7374C8.98021 21.3256 9.57391 20.8475 10.1126 20.3113L11.1663 21.365C11.2341 21.4328 11.3138 21.4875 11.4015 21.5264L13.3108 22.375H8.46091ZM22.6742 23.718C22.5656 23.9324 22.3809 24.0986 22.1562 24.184C21.9316 24.2695 21.6831 24.268 21.4595 24.1798L19.8285 23.5274L20.6898 21.8048L22.1723 22.3977C22.2955 22.447 22.4072 22.5213 22.5003 22.616C22.5933 22.7107 22.6657 22.8236 22.7129 22.9477C22.7601 23.0718 22.781 23.2043 22.7743 23.3369C22.7677 23.4695 22.7336 23.5992 22.6742 23.718L22.6742 23.718ZM30.804 20.1537L24.3121 22.9358C24.2628 22.5809 24.1381 22.2407 23.9463 21.9381C23.7545 21.6355 23.5001 21.3774 23.2003 21.1814L29.2337 18.3968C29.339 18.3482 29.4321 18.2767 29.5064 18.1876L31.0592 16.3242L32.0124 18.9452L30.804 20.1537ZM35.109 23.9375H39.4854L39.8438 27.8788V30.1875H36.7188C36.5116 30.1875 36.3129 30.2698 36.1663 30.4163C36.0198 30.5628 35.9375 30.7616 35.9375 30.9688V39.5625C35.9375 39.7697 36.0198 39.9684 36.1663 40.1149C36.3129 40.2614 36.5116 40.3437 36.7188 40.3438H37.8375L36.8862 44.25H36.5475L34.381 35.5842L35.109 23.9375ZM38.2813 45.1248L39.2396 41.1895L41.1634 44.775L38.2813 46.6965V45.1248ZM33.4107 47.375L36.145 45.8125H36.7188V47.375H33.4107ZM40.0803 47.375L42.424 45.8125H43.1401L43.5307 47.375H40.0803ZM42.9688 44.25H42.6549L40.5591 40.3438H42.9688V44.25ZM46.875 38.7812H37.5V34.875H41.4063V37.2188H42.9688V34.875H46.875V38.7812ZM46.875 33.3125H37.5V31.75H46.875V33.3125Z" fill="white"/>
<path d="M47.6563 30.1875H44.5313V23.7851L46.5678 24.6558C46.6866 24.7066 46.8162 24.7272 46.9449 24.7156C47.0737 24.7041 47.1975 24.6607 47.3053 24.5896C47.4132 24.5184 47.5017 24.4216 47.563 24.3078C47.6242 24.194 47.6563 24.0667 47.6563 23.9375C47.6573 22.5499 47.3309 21.1816 46.7035 19.944C46.0761 18.7063 45.1655 17.6342 44.0456 16.8148L43.5994 13.9144C43.3892 12.5703 42.8472 11.2997 42.0226 10.2177C41.1979 9.13567 40.1165 8.27629 38.8762 7.71727L36.6556 2.536C36.5954 2.39547 36.4952 2.2757 36.3676 2.19153C36.2399 2.10737 36.0904 2.0625 35.9375 2.0625H28.9063V3.625H30.4688V4.31012L29.7109 7.34175C29.6821 7.45693 29.6799 7.57716 29.7045 7.6933C29.7292 7.80944 29.7799 7.91844 29.853 8.01202C29.9261 8.1056 30.0195 8.1813 30.1262 8.23337C30.2329 8.28543 30.35 8.31249 30.4688 8.3125H31.25V9.875C31.2501 10.0719 31.3246 10.2615 31.4585 10.4058C31.5924 10.5501 31.776 10.6385 31.9723 10.6533L30.9676 13.1649C30.8209 13.5322 30.7308 13.9197 30.7005 14.3141L28.4189 17.052L21.2668 20.3528L20.6331 20.0993L16.7174 18.1415L16.9285 17.5609L20.924 18.4501C21.0406 18.476 21.1617 18.4749 21.2778 18.4468C21.394 18.4186 21.5021 18.3642 21.5939 18.2876L26.2814 14.3814C26.2996 14.3663 26.317 14.3504 26.3337 14.3337L28.2868 12.3806C28.5133 12.1541 28.6929 11.8853 28.8155 11.5895C28.938 11.2936 29.0011 10.9765 29.0011 10.6563C29.0011 10.336 28.938 10.0189 28.8155 9.72305C28.6929 9.42718 28.5133 9.15836 28.2868 8.93191C28.0604 8.70547 27.7916 8.52585 27.4957 8.4033C27.1999 8.28074 26.8827 8.21767 26.5625 8.21767C26.2423 8.21767 25.9252 8.28074 25.6293 8.4033C25.3334 8.52585 25.0646 8.70547 24.8382 8.93191L24.2188 9.55135V9.09375C24.2188 8.88655 24.1364 8.68784 23.9899 8.54132C23.8434 8.39481 23.6447 8.3125 23.4375 8.3125C23.2303 8.3125 23.0316 8.39481 22.8851 8.54132C22.7386 8.68784 22.6563 8.88655 22.6563 9.09375V11.0469L20.286 12.8246L16.8379 10.5259C16.9454 10.4548 17.0336 10.3581 17.0946 10.2445C17.1556 10.1309 17.1876 10.0039 17.1875 9.875V8.3125H17.9688C18.0875 8.31249 18.2046 8.28543 18.3113 8.23337C18.418 8.1813 18.5115 8.1056 18.5845 8.01202C18.6576 7.91844 18.7084 7.80944 18.733 7.6933C18.7576 7.57716 18.7554 7.45693 18.7266 7.34175L17.9688 4.31012V3.625H19.5313V2.0625H12.5C12.3471 2.0625 12.1976 2.10737 12.0699 2.19153C11.9423 2.2757 11.8421 2.39547 11.7819 2.536L9.55086 7.74173L7.22771 8.9033C6.47028 9.28507 5.85697 9.90204 5.47973 10.6617C5.10249 11.4214 4.98163 12.2829 5.13526 13.1171L5.69294 16.0915C4.41815 16.9647 3.37564 18.1356 2.65586 19.5029C1.93609 20.8701 1.56078 22.3924 1.56251 23.9375C1.56251 24.0707 1.59655 24.2016 1.6614 24.3179C1.72626 24.4343 1.81976 24.5321 1.93305 24.6021C2.04633 24.6721 2.17564 24.712 2.30867 24.718C2.44171 24.7239 2.57407 24.6958 2.69318 24.6363L6.90065 22.5325L6.97857 22.948L5.07031 25.3334C4.68673 25.8145 4.42182 26.3791 4.29703 26.9816C4.17224 27.5841 4.19107 28.2075 4.352 28.8013L6.15826 35.4244L4.13504 37.4475C4.00967 37.573 3.93067 37.7374 3.91102 37.9137L3.12977 44.9449C3.12665 44.9736 3.12512 45.0024 3.1252 45.0312H3.12501V48.1562C3.12502 48.3634 3.20733 48.5622 3.35384 48.7087C3.50035 48.8552 3.69906 48.9375 3.90626 48.9375H17.1875C17.3598 48.9375 17.5273 48.8806 17.6638 48.7755C17.8004 48.6705 17.8984 48.5233 17.9426 48.3568C17.9869 48.1902 17.9748 48.0138 17.9083 47.8548C17.8418 47.6959 17.7247 47.5634 17.5751 47.4779L12.6202 44.6465L14.8204 35.8457C14.8359 35.7838 14.8438 35.7201 14.8438 35.6562V23.294L14.9181 23.0894L18.4327 24.6514C18.4373 24.6535 18.4421 24.6548 18.4467 24.6568C18.4512 24.6587 18.4554 24.6611 18.4599 24.6629L20.8793 25.6306C21.1734 25.7483 21.4874 25.8086 21.8042 25.8084C22.1844 25.8081 22.5596 25.7229 22.9026 25.559C23.2455 25.395 23.5475 25.1566 23.7866 24.861L31.5578 21.5306C31.6491 21.4915 31.7322 21.4352 31.8025 21.365L32.6016 20.5658L33.5851 23.2702L32.814 35.6075C32.8091 35.6876 32.8164 35.7679 32.8359 35.8457L35.0361 44.6465L30.0812 47.4779C29.9316 47.5634 29.8144 47.6959 29.748 47.8548C29.6815 48.0138 29.6694 48.1902 29.7136 48.3568C29.7578 48.5233 29.8559 48.6705 29.9924 48.7755C30.129 48.8806 30.2965 48.9375 30.4688 48.9375H44.5313C44.65 48.9375 44.7671 48.9104 44.8738 48.8584C44.9805 48.8063 45.074 48.7306 45.147 48.637C45.2201 48.5434 45.2709 48.4344 45.2955 48.3183C45.3201 48.2022 45.3179 48.0819 45.2891 47.9668L44.5313 44.9352V40.3438H47.6563C47.8635 40.3437 48.0622 40.2614 48.2087 40.1149C48.3552 39.9684 48.4375 39.7697 48.4375 39.5625V30.9688C48.4375 30.7616 48.3552 30.5628 48.2087 30.4163C48.0622 30.2698 47.8635 30.1875 47.6563 30.1875ZM41.4063 30.1875V28.625H42.9688V30.1875H41.4063ZM34.9222 22.375L32.3918 15.4166C32.1947 14.8752 32.2042 14.28 32.4184 13.7451L33.2846 11.5795L35.1075 12.0352C35.0277 13.7672 35.3596 15.4934 36.0761 17.0722C36.7925 18.6511 37.8731 20.0376 39.2291 21.118L39.3434 22.375H34.9222ZM45.9899 22.7094L44.5313 22.0858V20.0312C44.5312 19.9915 44.5282 19.9517 44.5222 19.9124L44.4295 19.3097C45.238 20.287 45.776 21.4592 45.9899 22.7094ZM42.055 14.152L42.9688 20.091V27.0625H41.3385L40.6218 19.1792C40.62 19.16 40.6176 19.1407 40.6144 19.1215L39.8332 14.434L38.2918 14.691L38.9612 18.7068C38.1351 17.7552 37.5088 16.6472 37.1194 15.4487C36.73 14.2502 36.5855 12.9857 36.6945 11.7302L38.5299 9.28311C39.4601 9.75875 40.2645 10.4479 40.8773 11.2942C41.49 12.1405 41.8936 13.1198 42.055 14.152L42.055 14.152ZM31.4694 6.75L32.0079 4.59575C32.0234 4.53378 32.0313 4.47013 32.0313 4.40625V3.625H35.4223L37.3853 8.20512L35.6237 10.5537L34.3406 10.233L35.7087 8.86496C35.7813 8.79241 35.8388 8.70628 35.8781 8.61149C35.9174 8.5167 35.9376 8.4151 35.9376 8.3125C35.9376 8.2099 35.9174 8.1083 35.8781 8.01351C35.8388 7.91872 35.7813 7.83258 35.7087 7.76003C35.6362 7.68748 35.55 7.62993 35.4552 7.59067C35.3605 7.5514 35.2589 7.5312 35.1563 7.5312C35.0537 7.5312 34.9521 7.5514 34.8573 7.59067C34.7625 7.62993 34.6763 7.68748 34.6038 7.76003L33.2702 9.09375H32.8125V7.53125C32.8125 7.32405 32.7302 7.12534 32.5837 6.97883C32.4372 6.83232 32.2385 6.75001 32.0313 6.75H31.4694ZM14.558 17.0618L13.016 15.2114C13.2769 14.174 13.3829 13.1036 13.3303 12.0352L15.1529 11.5795L16.0192 13.7451C16.2334 14.28 16.2428 14.8751 16.0457 15.4165L15.3105 17.438L14.558 17.0618ZM25.9431 10.0368C26.0244 9.9555 26.121 9.89097 26.2273 9.84695C26.3336 9.80293 26.4475 9.78027 26.5625 9.78027C26.6775 9.78027 26.7915 9.80293 26.8977 9.84695C27.004 9.89097 27.1006 9.9555 27.1819 10.0368C27.2633 10.1182 27.3278 10.2147 27.3718 10.321C27.4158 10.4273 27.4385 10.5412 27.4385 10.6562C27.4385 10.7713 27.4158 10.8852 27.3718 10.9915C27.3278 11.0978 27.2633 11.1943 27.1819 11.2757L25.7813 12.6764L24.5424 11.4375L25.9431 10.0368ZM20.7812 14.4063L23.3642 12.4691L24.6239 13.7288L20.8886 16.8415L17.467 16.0801L17.5141 15.9505C17.8427 15.0481 17.8269 14.0563 17.4699 13.1649L17.2845 12.7015L19.8792 14.4313C20.0136 14.5209 20.1726 14.5666 20.3342 14.5622C20.4957 14.5577 20.6519 14.5032 20.7812 14.4063ZM13.0152 3.625H16.4063V4.40625C16.4062 4.47013 16.4141 4.53378 16.4296 4.59575L16.9682 6.75H16.4063C16.1991 6.75001 16.0004 6.83232 15.8538 6.97883C15.7073 7.12534 15.625 7.32405 15.625 7.53125V9.09375H15.1673L13.8337 7.76004C13.6872 7.61351 13.4885 7.5312 13.2813 7.5312C13.074 7.5312 12.8753 7.61351 12.7288 7.76004C12.5823 7.90656 12.5 8.10529 12.5 8.3125C12.5 8.51971 12.5823 8.71844 12.7288 8.86496L14.0969 10.233L12.8138 10.5537L11.0522 8.20512L13.0152 3.625ZM7.92657 10.3008L9.92247 9.30287L11.7441 11.7317C11.8013 12.3713 11.7923 13.0152 11.7173 13.653L10.7564 12.4999L9.55611 13.5001L13.4624 18.1876C13.5313 18.2704 13.6167 18.3381 13.7131 18.3863L19.2643 21.1619L18.3851 22.9204L12.1686 20.1575L7.09353 15.0823L6.67105 12.8291C6.57884 12.3286 6.65135 11.8117 6.87771 11.3558C7.10407 10.9 7.47208 10.5298 7.92657 10.3008ZM3.2342 22.6189C3.41355 21.5445 3.81212 20.5186 4.4051 19.605C4.99809 18.6914 5.77278 17.9096 6.68097 17.3083L6.93865 17.1373L9.00806 19.2067C8.30398 19.9069 7.49245 20.49 6.6042 20.9338L3.2342 22.6189ZM4.68751 47.375V45.8125H5.23224L7.57599 47.375H4.68751ZM8.92788 41.0506L9.37501 45.0746V46.6965L6.53844 44.8054L8.92788 41.0506ZM10.9375 47.375V45.8125H11.5113L14.2456 47.375H10.9375ZM11.1088 44.25H10.8555L10.2772 39.0449C10.2734 39.0112 10.2715 38.977 10.2692 38.9428L11.5966 36.8569C11.6764 36.7316 11.7188 36.5861 11.7188 36.4375V29.4062H10.1563V36.21L5.03989 44.25H4.77915L5.43376 38.3587L7.58372 36.2087C7.68109 36.1113 7.75099 35.9899 7.78633 35.8568C7.82166 35.7237 7.82119 35.5836 7.78494 35.4507L5.85938 28.3903C5.76283 28.034 5.75154 27.6599 5.82643 27.2984C5.90132 26.9369 6.06028 26.5981 6.29044 26.3095L8.18804 23.9375H13.2813V35.56L11.1088 44.25ZM8.46091 22.375L8.34134 21.7374C8.98021 21.3256 9.57391 20.8475 10.1126 20.3113L11.1663 21.365C11.2341 21.4328 11.3138 21.4875 11.4015 21.5264L13.3108 22.375H8.46091ZM22.6742 23.718C22.5656 23.9324 22.3809 24.0986 22.1562 24.184C21.9316 24.2695 21.6831 24.268 21.4595 24.1798L19.8285 23.5274L20.6898 21.8048L22.1723 22.3977C22.2955 22.447 22.4072 22.5213 22.5003 22.616C22.5933 22.7107 22.6657 22.8236 22.7129 22.9477C22.7601 23.0718 22.781 23.2043 22.7743 23.3369C22.7677 23.4695 22.7336 23.5992 22.6742 23.718L22.6742 23.718ZM30.804 20.1537L24.3121 22.9358C24.2628 22.5809 24.1381 22.2407 23.9463 21.9381C23.7545 21.6355 23.5001 21.3774 23.2003 21.1814L29.2337 18.3968C29.339 18.3482 29.4321 18.2767 29.5064 18.1876L31.0592 16.3242L32.0124 18.9452L30.804 20.1537ZM35.109 23.9375H39.4854L39.8438 27.8788V30.1875H36.7188C36.5116 30.1875 36.3129 30.2698 36.1663 30.4163C36.0198 30.5628 35.9375 30.7616 35.9375 30.9688V39.5625C35.9375 39.7697 36.0198 39.9684 36.1663 40.1149C36.3129 40.2614 36.5116 40.3437 36.7188 40.3438H37.8375L36.8862 44.25H36.5475L34.381 35.5842L35.109 23.9375ZM38.2813 45.1248L39.2396 41.1895L41.1634 44.775L38.2813 46.6965V45.1248ZM33.4107 47.375L36.145 45.8125H36.7188V47.375H33.4107ZM40.0803 47.375L42.424 45.8125H43.1401L43.5307 47.375H40.0803ZM42.9688 44.25H42.6549L40.5591 40.3438H42.9688V44.25ZM46.875 38.7812H37.5V34.875H41.4063V37.2188H42.9688V34.875H46.875V38.7812ZM46.875 33.3125H37.5V31.75H46.875V33.3125Z" fill="url(#paint0_radial_1110_289)"/>
<defs>
<radialGradient id="paint0_radial_1110_289" cx="0" cy="0" r="1" gradientUnits="userSpaceOnUse" gradientTransform="translate(-0.694447 -4.37637) rotate(52.6545) scale(80.9929 116.783)">
<stop offset="0.151042" stop-color="#33A6FF"/>
<stop offset="0.907346" stop-color="#36C27F"/>
</radialGradient>
</defs>
</svg>
