<svg width="20" height="21" viewBox="0 0 20 21" fill="none" xmlns="http://www.w3.org/2000/svg">
<path fill-rule="evenodd" clip-rule="evenodd" d="M3.63297 4.71734C3.63463 4.71734 3.59297 4.76068 3.54047 4.81235C3.3388 5.00818 2.9213 5.41568 2.91709 6.26818C2.91047 7.46068 3.69463 9.67484 7.47047 13.4498C11.2288 17.2065 13.4396 17.9998 14.6346 17.9998H14.6521C15.5046 17.9957 15.9113 17.5773 16.108 17.3765C16.168 17.3148 16.2163 17.2698 16.2505 17.2415C17.0805 16.4065 17.5055 15.7848 17.5013 15.3865C17.4955 14.9798 16.9896 14.499 16.2905 13.834C16.068 13.6223 15.8263 13.3923 15.5713 13.1373C14.9105 12.4782 14.583 12.5907 13.863 12.844C12.8671 13.1932 11.5005 13.6682 9.37713 11.544C7.25047 9.41901 7.7263 8.05401 8.07463 7.05818C8.3263 6.33818 8.4413 6.00985 7.77963 5.34818C7.52047 5.08984 7.28797 4.84485 7.0738 4.61985C6.41297 3.92485 5.9363 3.42235 5.53213 3.41651H5.52547C5.1263 3.41651 4.5063 3.84318 3.6288 4.72068C3.6313 4.71818 3.63213 4.71734 3.63297 4.71734ZM14.6355 19.2498C12.5588 19.2498 9.8513 17.5965 6.58713 14.334C3.31047 11.0582 1.65463 8.34234 1.66706 6.26151C1.67463 4.88651 2.39547 4.18235 2.6663 3.91818C2.68047 3.90068 2.7288 3.85318 2.74547 3.83651C3.94047 2.64068 4.7463 2.15735 5.54797 2.16638C6.4788 2.17901 7.1413 2.87568 7.97963 3.75818C8.18713 3.97651 8.41213 4.21401 8.66297 4.46401C9.87963 5.68068 9.53297 6.67318 9.25463 7.46984C8.9513 8.33901 8.6888 9.08901 10.2605 10.6607C11.8338 12.2323 12.5838 11.9698 13.4496 11.664C14.2471 11.3857 15.2371 11.0373 16.4555 12.254C16.7021 12.5007 16.9363 12.7232 17.1521 12.929C18.0388 13.7715 18.7388 14.4373 18.7506 15.3707C18.7605 16.1665 18.2771 16.9773 17.0838 18.1715L16.5555 17.8132L17.0021 18.2498C16.738 18.5207 16.0346 19.2423 14.6588 19.2498H14.6355Z" fill="#8BA1B1"/>
</svg>
