<svg width="20" height="20" viewBox="0 0 20 20" fill="none" xmlns="http://www.w3.org/2000/svg">
<g clip-path="url(#clip0_508_720)">
<path fill-rule="evenodd" clip-rule="evenodd" d="M9.97747 13.6784C9.02456 13.6768 8.11114 13.2976 7.43742 12.6237C6.76369 11.9498 6.38462 11.0363 6.3833 10.0834C6.3844 9.13019 6.76349 8.21634 7.43742 7.54226C8.11135 6.86817 9.02511 6.48887 9.9783 6.48755C10.9316 6.48865 11.8456 6.86785 12.5197 7.54196C13.1938 8.21607 13.573 9.13005 13.5741 10.0834C13.5728 11.0366 13.1935 11.9503 12.5194 12.6243C11.8453 13.2982 10.9315 13.6773 9.9783 13.6784H9.97747Z" fill="#4285F4"/>
<path fill-rule="evenodd" clip-rule="evenodd" d="M11.4924 14.3176C10.7425 14.5898 9.93463 14.6618 9.14842 14.5264C8.36222 14.3911 7.62487 14.0532 7.0091 13.546C6.34525 12.9984 5.84908 12.275 5.57744 11.4585L5.57577 11.4535L1.61327 4.5918C0.192257 6.76614 -0.318258 9.41149 0.191605 11.9585C0.441981 13.2451 0.945049 14.4694 1.6717 15.5604C2.39835 16.6513 3.33414 17.5874 4.42494 18.3143C5.57022 19.0842 6.86366 19.6065 8.22244 19.8476L11.4924 14.3185V14.3176Z" fill="#4AAE48"/>
<path fill-rule="evenodd" clip-rule="evenodd" d="M18.9666 5.5892C18.217 4.08125 17.1011 2.78543 15.7211 1.8204C14.3411 0.855361 12.741 0.25194 11.0674 0.0653847C9.39379 -0.121171 7.70012 0.115101 6.14147 0.752566C4.58281 1.39003 3.20898 2.40832 2.14575 3.7142L5.49242 9.51086C5.63016 8.4376 6.1505 7.45006 6.95788 6.72963C7.76526 6.00921 8.80546 5.60427 9.88742 5.5892H18.9666Z" fill="#EA3939"/>
<path fill-rule="evenodd" clip-rule="evenodd" d="M9.93821 20.0001C12.4465 20.0001 14.8474 19.0592 16.6965 17.3517C18.5528 15.6422 19.6896 13.2908 19.8765 10.7742C19.9842 9.31724 19.7726 7.85432 19.2565 6.48755H12.7099C13.2553 6.91899 13.6955 7.46876 13.9972 8.09531C14.2989 8.72186 14.4543 9.4088 14.4515 10.1042C14.4449 11.1267 14.0984 12.1179 13.4665 12.9217L9.29321 19.9801C9.50821 19.9934 9.72488 20.0001 9.93821 20.0001Z" fill="#FED14B"/>
</g>
<defs>
<clipPath id="clip0_508_720">
<rect width="20" height="20" fill="white"/>
</clipPath>
</defs>
</svg>
