<svg width="20" height="20" viewBox="0 0 20 20" fill="none" xmlns="http://www.w3.org/2000/svg">
<g clip-path="url(#clip0_508_741)">
<path d="M15.6075 1.85645C15.1245 2.42248 14.8981 3.69041 15.3886 4.98097C15.8792 6.27154 16.6339 5.99229 17.1018 7.3055C17.7207 9.04135 17.4339 11.3734 17.4339 11.3734C17.4339 11.3734 18.1811 13.5319 18.7018 11.2376C19.8565 6.92814 15.6075 2.9206 15.6075 1.85645Z" fill="url(#paint0_radial_508_741)"/>
<path d="M9.69059 19.751C14.6642 19.751 18.6868 15.7057 18.6868 10.7095C18.6868 5.71328 14.6566 1.67554 9.69059 1.67554C4.72456 1.67554 0.701915 5.72082 0.701915 10.7095C0.694368 15.7057 4.72456 19.751 9.69059 19.751Z" fill="url(#paint1_radial_508_741)"/>
<path d="M16.4304 16.2867C16.2341 16.4226 16.0304 16.5433 15.8191 16.6565C16.0983 16.2414 16.3625 15.8188 16.5964 15.381C16.7851 15.1697 16.9662 14.9659 17.1096 14.7395C17.1775 14.6263 17.2606 14.498 17.3436 14.3395C17.8492 13.4263 18.4077 11.9546 18.4228 10.4452V10.332C18.4228 9.95463 18.3851 9.56972 18.3096 9.19991C18.3172 9.2301 18.3172 9.26029 18.3247 9.29048C18.3172 9.26783 18.3172 9.24519 18.3096 9.22255C18.3172 9.26029 18.3247 9.30557 18.3323 9.34331C18.4379 10.2188 18.3624 11.0716 17.9926 11.7056C17.9851 11.7131 17.9775 11.7207 17.9775 11.7358C18.1662 10.7773 18.2341 9.72066 18.0228 8.66406C18.0228 8.66406 17.9398 8.15085 17.3058 6.58859C16.9436 5.69048 16.2945 4.95085 15.7285 4.415C15.2304 3.79614 14.77 3.38104 14.5209 3.11689C14.0002 2.56595 13.7813 2.15085 13.6908 1.8867C13.6153 1.84897 12.6115 0.875382 12.536 0.837646C12.0983 1.51689 10.7323 3.6301 11.3813 5.59991C11.6757 6.49802 12.4228 7.42633 13.2077 7.94708C13.2455 7.98482 13.6757 8.45274 13.8794 9.50934C14.0908 10.6037 13.9775 11.449 13.5474 12.7093C13.0341 13.8112 11.7209 14.9056 10.4908 15.0188C7.86434 15.2603 6.8983 13.698 6.8983 13.698C7.83415 14.0754 8.87566 13.9924 9.50962 13.6075C10.1436 13.215 10.5285 12.9207 10.8455 13.0339C11.1549 13.1471 11.3964 12.815 11.1775 12.4678C10.8304 11.932 10.1964 11.6603 9.57 11.7659C8.93604 11.8716 8.34736 12.3773 7.51717 11.8867C7.46434 11.8565 7.41151 11.8188 7.35868 11.781C7.30585 11.7433 7.53981 11.8339 7.47943 11.7961C7.32094 11.7056 7.0266 11.5169 6.95868 11.449C6.94358 11.4339 7.08698 11.4942 7.07188 11.4792C6.29453 10.8376 6.39264 10.3999 6.41528 10.1282C6.43792 9.90934 6.57377 9.6301 6.81528 9.51689C6.92849 9.57727 7.00396 9.6301 7.00396 9.6301C7.00396 9.6301 6.95113 9.53199 6.92849 9.47916C6.93604 9.47161 6.94358 9.47916 6.95868 9.47161C7.05679 9.51689 7.26056 9.63765 7.37377 9.70557C7.51717 9.80368 7.56245 9.89425 7.56245 9.89425C7.56245 9.89425 7.60019 9.87161 7.57 9.78859C7.56245 9.75085 7.51717 9.63765 7.37377 9.52444H7.38132C7.46434 9.56972 7.54736 9.6301 7.62283 9.69048C7.66056 9.54708 7.73604 9.39614 7.72094 9.12444C7.71339 8.93576 7.71339 8.88293 7.68321 8.80746C7.65302 8.74708 7.6983 8.71689 7.75113 8.78482C7.74358 8.73199 7.72849 8.67916 7.70585 8.63387V8.62633C7.77377 8.39991 9.08698 7.80368 9.18509 7.73576C9.34358 7.62255 9.47188 7.47916 9.57 7.31312C9.64547 7.19991 9.6983 7.03387 9.71339 6.78482C9.72094 6.60368 9.63792 6.48293 8.30207 6.34708C7.93981 6.30934 7.72094 6.04519 7.60019 5.80368C7.57754 5.75085 7.5549 5.70557 7.53226 5.65274C7.50962 5.59991 7.49453 5.53953 7.47943 5.47916C7.6983 4.85274 8.06056 4.32444 8.60396 3.92444C8.63415 3.89425 8.48321 3.93199 8.51339 3.9018C8.55113 3.87161 8.77 3.78104 8.81528 3.7584C8.86811 3.73576 8.59641 3.615 8.3549 3.64519C8.11339 3.67538 8.06056 3.70557 7.92471 3.7584C7.97754 3.70557 8.15113 3.6301 8.11339 3.63765C7.84924 3.67538 7.52471 3.83387 7.24547 4.00746C7.24547 3.97727 7.25302 3.94708 7.26056 3.91689C7.13226 3.96972 6.80773 4.19614 6.71717 4.38482C6.72471 4.34708 6.72471 4.30934 6.72471 4.27161C6.6266 4.35463 6.53604 4.44519 6.46056 4.55085L6.41528 4.56595C5.66056 4.26406 4.98887 4.24142 4.43038 4.37727C4.30962 4.25651 4.24924 4.34708 3.96245 3.72821C3.93981 3.69048 3.97754 3.76595 3.96245 3.72821C3.91717 3.60746 3.99264 3.8867 3.96245 3.72821C3.49453 4.10557 2.87566 4.52821 2.57377 4.82255C2.57377 4.83765 2.92094 4.72444 2.57377 4.82255C2.45302 4.86029 2.46056 4.92821 2.44547 5.58482C2.43792 5.63765 2.44547 5.69048 2.43792 5.73576C2.19641 6.03765 2.03792 6.29425 1.97754 6.4301C1.66811 6.9584 1.32849 7.78859 1.00396 9.09425C1.14736 8.73953 1.32094 8.39991 1.52471 8.07538C1.25302 8.76972 0.988865 9.86406 0.936035 11.5395C1.00396 11.1924 1.08698 10.8527 1.19264 10.5131C1.12471 11.9093 1.36622 13.298 1.89453 14.5886C2.0832 15.049 2.39264 15.7509 2.92849 16.5207C4.60396 18.2792 6.95868 19.3735 9.57 19.3735C12.2945 19.3735 14.7474 18.181 16.4304 16.2867Z" fill="url(#paint2_linear_508_741)"/>
<path d="M14.4075 17.5622C17.7057 17.1773 19.1698 13.7811 17.2906 13.7132C15.6 13.6603 12.8453 17.7434 14.4075 17.5622Z" fill="url(#paint3_radial_508_741)"/>
<path d="M17.5322 13.0188C19.8039 11.698 19.2076 8.84521 19.2076 8.84521C19.2076 8.84521 18.3322 9.86408 17.7359 11.4867C17.1548 13.0943 16.1661 13.8188 17.5322 13.0188Z" fill="url(#paint4_radial_508_741)"/>
<path d="M10.3244 19.2527C13.4942 20.264 16.2112 17.7659 14.5357 16.9357C13.0112 16.1886 8.82249 18.7772 10.3244 19.2527Z" fill="url(#paint5_radial_508_741)"/>
<path d="M17.7736 14.2341C17.8491 14.1284 17.9547 13.7812 18.0453 13.6227C18.6038 12.7171 18.6113 12.0001 18.6113 11.985C18.951 10.302 18.9208 9.60764 18.7095 8.33972C18.5434 7.3133 17.8113 5.8416 17.1774 5.13972C16.5283 4.40764 16.9812 4.64915 16.3547 4.1133C15.8038 3.50198 15.2604 2.89066 14.9736 2.64915C12.8604 0.883113 12.9057 0.505754 12.951 0.445377L12.9208 0.475566C12.8981 0.377452 12.8755 0.294434 12.8755 0.294434C12.8755 0.294434 11.7132 1.4416 11.4717 3.36613C11.3132 4.61896 11.7812 5.93217 12.4679 6.76991C12.8227 7.20764 13.2227 7.60009 13.6604 7.94726C14.1736 8.68689 14.4604 9.60009 14.4604 10.5812C14.4604 13.0416 12.4679 15.0265 10.0076 15.0265C9.67549 15.0265 9.33587 14.9888 9.01134 14.9133C7.84908 14.6944 7.18493 14.1058 6.8453 13.7058C6.65662 13.4793 6.57361 13.3133 6.57361 13.3133C7.61511 13.6831 8.76229 13.6076 9.46417 13.2227C10.1661 12.8303 10.5962 12.5435 10.9434 12.6567C11.283 12.7699 11.5547 12.4378 11.3132 12.0982C11.0717 11.7586 10.4529 11.268 9.5321 11.4039C8.83021 11.5095 8.18115 12.0076 7.2604 11.5246C7.20002 11.4944 7.13964 11.4567 7.08681 11.4265C7.02644 11.3888 7.28304 11.4793 7.22266 11.4416C7.04153 11.351 6.72455 11.1624 6.64153 11.0944C6.62644 11.0793 6.77738 11.1397 6.76983 11.1246C5.90945 10.4907 6.01512 10.0605 6.03776 9.78877C6.0604 9.56991 6.21889 9.29821 6.48304 9.185C6.61134 9.24538 6.68681 9.29821 6.68681 9.29821C6.68681 9.29821 6.63398 9.20009 6.60379 9.14726C6.61134 9.13972 6.62644 9.14726 6.63398 9.13972C6.73964 9.185 6.97361 9.29821 7.09436 9.37368C7.25285 9.47179 7.30568 9.56236 7.30568 9.56236C7.30568 9.56236 7.35096 9.53972 7.31323 9.4567C7.29813 9.41896 7.25285 9.30575 7.09436 9.19255H7.10191C7.19247 9.23783 7.28304 9.29821 7.36606 9.35858C7.41134 9.21519 7.48681 9.06425 7.47172 8.79255C7.46417 8.60387 7.46417 8.55104 7.42644 8.48311C7.39625 8.42274 7.44153 8.39255 7.50191 8.46047C7.49436 8.40764 7.47172 8.36236 7.44908 8.30953V8.30198C7.52455 8.07557 8.98115 7.48689 9.08681 7.41896C9.2604 7.3133 9.40379 7.16991 9.517 7.00387C9.60002 6.89066 9.6604 6.72462 9.67549 6.47557C9.68304 6.36236 9.6453 6.27934 9.2604 6.18877C9.02644 6.13594 8.67172 6.09066 8.11323 6.03783C7.71323 6.00009 7.47172 5.74349 7.33587 5.50198C7.31323 5.44915 7.28304 5.40387 7.2604 5.35858C7.23776 5.30575 7.21512 5.24538 7.20002 5.19255C7.44153 4.55858 7.87927 4.02274 8.4453 3.65292C8.47549 3.62274 8.317 3.66047 8.34719 3.63028C8.38493 3.60009 8.63398 3.50953 8.67927 3.48689C8.73964 3.46424 8.43776 3.35104 8.16606 3.37368C7.89436 3.40387 7.84153 3.42651 7.69059 3.48689C7.75096 3.43406 7.93964 3.36613 7.89436 3.36613C7.62266 3.39632 7.2604 3.54726 6.95096 3.72085C6.95096 3.69066 6.95851 3.66047 6.96606 3.63028C6.82266 3.68311 6.46795 3.90953 6.36229 4.09821C6.36983 4.06047 6.36983 4.02274 6.36983 3.99255C6.26417 4.07557 6.15851 4.16613 6.07549 4.27179L6.06795 4.27934C5.23021 3.97745 4.49059 3.95481 3.87172 4.09066C3.73587 3.96991 3.517 3.78123 3.20757 3.16991C3.18493 3.13217 3.17738 3.24538 3.16229 3.20764C3.04153 2.9284 2.96606 2.46802 2.98115 2.15104C2.98115 2.15104 2.7321 2.26424 2.52832 2.73972C2.49059 2.82274 2.46795 2.87557 2.43776 2.92085C2.42266 2.93594 2.4604 2.76236 2.4604 2.77745C2.42266 2.83783 2.3321 2.92085 2.29436 3.03406C2.26417 3.11708 2.22644 3.16236 2.20379 3.26047L2.19625 3.26802C2.19625 3.23783 2.20379 3.14726 2.19625 3.16236C2.09813 3.35858 2.01512 3.56236 1.94719 3.76613C1.83398 4.1284 1.70568 4.62651 1.68304 5.27557C1.67549 5.32085 1.68304 5.38123 1.67549 5.42651C1.41134 5.7284 1.23021 5.985 1.16229 6.1133C0.822663 6.6416 0.445304 7.4567 0.0830401 8.75481C0.241531 8.40009 0.437757 8.06047 0.664172 7.74349C0.362285 8.43028 0.0679457 9.51708 0.00756836 11.1775C0.0830401 10.8303 0.173606 10.4907 0.286814 10.1586C0.233983 11.268 0.362285 12.6492 1.06417 14.2039C1.47927 15.1171 2.43776 16.9737 4.78493 18.4227C4.78493 18.4227 5.58493 19.019 6.95096 19.4642C7.04908 19.502 7.15474 19.5397 7.2604 19.5699C7.23021 19.5548 7.19247 19.5397 7.16228 19.5322C8.07549 19.8039 9.01889 19.9473 9.97738 19.9473C13.5245 19.9473 14.5736 18.5208 14.5736 18.5208L14.5661 18.5284C14.6189 18.4831 14.6642 18.4303 14.7095 18.385C14.151 18.9133 12.8679 18.951 12.3925 18.9133C13.2076 18.6718 13.7434 18.468 14.7849 18.0756C14.9057 18.0303 15.034 17.9775 15.1623 17.9171L15.2 17.8944C15.2227 17.8793 15.2528 17.8718 15.2755 17.8567C15.7812 17.6152 16.2642 17.3209 16.7019 16.9661C17.751 16.1284 17.9774 15.3133 18.0981 14.7775C18.083 14.8303 18.0302 14.951 17.9925 15.0265C17.7208 15.6001 17.1245 15.9624 16.4755 16.2642C16.7849 15.8567 17.0717 15.4341 17.3359 14.9963C17.5472 14.785 17.6076 14.4529 17.7736 14.2341Z" fill="url(#paint6_radial_508_741)"/>
<path d="M16.4981 16.234C16.9283 15.766 17.3057 15.2226 17.6 14.6113C18.3472 13.0415 19.5019 10.4226 18.5962 7.69811C17.8792 5.53962 16.8906 4.36226 15.6377 3.20755C13.6 1.33585 13.0339 0.498113 13.0339 0C13.0339 0 10.6792 2.61887 11.6981 5.35849C12.717 8.09811 14.8075 7.99245 16.1887 10.8453C17.8189 14.2038 14.8755 17.8717 12.4377 18.8981C12.5887 18.8679 17.849 17.6755 18.1283 14.6642C18.1132 14.717 17.9924 15.5547 16.4981 16.234Z" fill="url(#paint7_radial_508_741)"/>
<path d="M9.67539 6.47563C9.68294 6.29449 9.59237 6.18129 8.12068 6.03789C7.5169 5.98506 7.28294 5.42657 7.21502 5.18506C7.0037 5.74355 6.91313 6.33223 6.95841 7.04166C6.9886 7.50959 7.30558 8.0077 7.44898 8.29449C7.44898 8.29449 7.47917 8.24921 7.49426 8.23412C7.77351 7.93978 8.95086 7.49449 9.06407 7.43412C9.19237 7.35864 9.6603 7.01902 9.67539 6.47563Z" fill="url(#paint8_linear_508_741)"/>
<path d="M3.20755 3.16975C3.18491 3.13201 3.17737 3.24522 3.16227 3.20748C3.04152 2.92824 2.96604 2.47541 2.98869 2.15088C2.98869 2.15088 2.73963 2.26409 2.53586 2.73956C2.49812 2.82258 2.47548 2.87541 2.44529 2.92069C2.4302 2.93578 2.46793 2.7622 2.46793 2.77729C2.4302 2.83767 2.33963 2.92069 2.30189 3.02635C2.27171 3.10937 2.23397 3.1622 2.21133 3.26786C2.20378 3.29805 2.21887 3.13956 2.21133 3.1622C1.72831 4.0905 1.63774 5.49428 1.69057 5.4339C2.71699 4.33956 3.8868 4.08295 3.8868 4.08295C3.7434 3.99239 3.47171 3.72069 3.20755 3.16975Z" fill="url(#paint9_linear_508_741)"/>
<path d="M7.08661 14.5962C5.67529 13.9924 4.06774 13.1396 4.12812 11.2075C4.21113 8.66415 6.50547 9.16226 6.50547 9.16226C6.42245 9.1849 6.18849 9.35094 6.10547 9.52452C6.02246 9.74339 5.86396 10.2415 6.33944 10.7623C7.09415 11.5774 4.79227 12.6943 8.33944 14.8075C8.43 14.8528 7.50925 14.7773 7.08661 14.5962Z" fill="url(#paint10_linear_508_741)"/>
<path d="M6.58879 13.3284C7.59256 13.6756 8.75483 13.6152 9.45671 13.2303C9.92464 12.9662 10.5284 12.5511 10.8907 12.6567C10.5737 12.5284 10.3322 12.468 10.0378 12.4605C9.98501 12.4605 9.93218 12.4605 9.87935 12.4529C9.77369 12.4529 9.66803 12.4605 9.56237 12.468C9.38124 12.4831 9.18501 12.5963 9.00388 12.5812C8.99634 12.5812 9.17747 12.5058 9.16237 12.5058C9.06426 12.5284 8.9586 12.5284 8.85294 12.5435C8.78501 12.5511 8.72464 12.5586 8.64916 12.5662C6.5586 12.7397 4.80011 11.4341 4.80011 11.4341C4.64916 11.9322 5.47181 12.936 6.58879 13.3284Z" fill="url(#paint11_linear_508_741)"/>
<path d="M16.4905 16.2492C18.6037 14.1737 19.6679 11.6605 19.215 8.83028C19.215 8.83028 19.3962 10.2793 18.7094 11.7586C19.0415 10.3095 19.0792 8.5133 18.2037 6.64915C17.0415 4.16613 15.1245 2.85292 14.3924 2.30953C13.283 1.47934 12.8226 0.641603 12.815 0.468018C12.483 1.14726 11.4792 3.47179 12.7094 5.47179C13.8565 7.35104 15.6679 7.90198 16.9282 9.62274C19.2679 12.8001 16.4905 16.2492 16.4905 16.2492Z" fill="url(#paint12_linear_508_741)"/>
<path d="M16.1885 10.8527C15.4489 9.32815 14.5281 8.664 13.6602 7.94702C13.7583 8.09042 13.7885 8.1357 13.8413 8.23381C14.6112 9.04891 15.7357 11.0414 14.9206 13.547C13.3734 18.2565 7.19984 16.0376 6.55078 15.4187C6.81493 18.1432 11.3734 19.4489 14.347 17.6829C16.03 16.0678 17.3961 13.3508 16.1885 10.8527Z" fill="url(#paint13_linear_508_741)"/>
</g>
<defs>
<radialGradient id="paint0_radial_508_741" cx="0" cy="0" r="1" gradientUnits="userSpaceOnUse" gradientTransform="translate(18.9616 6.16084) rotate(2.2603) scale(6.95014 10.2441)">
<stop offset="0.1" stop-color="#FFEA00"/>
<stop offset="0.17" stop-color="#FFDE00"/>
<stop offset="0.28" stop-color="#FFBF00"/>
<stop offset="0.43" stop-color="#FF8E00"/>
<stop offset="0.77" stop-color="#FF272D"/>
<stop offset="0.87" stop-color="#E0255A"/>
<stop offset="0.95" stop-color="#CC2477"/>
<stop offset="1" stop-color="#C42482"/>
</radialGradient>
<radialGradient id="paint1_radial_508_741" cx="0" cy="0" r="1" gradientUnits="userSpaceOnUse" gradientTransform="translate(12.6498 3.08503) scale(19.7236)">
<stop stop-color="#00CCDA"/>
<stop offset="0.22" stop-color="#0083FF"/>
<stop offset="0.26" stop-color="#007AF9"/>
<stop offset="0.33" stop-color="#005FE7"/>
<stop offset="0.44" stop-color="#2639AD"/>
<stop offset="0.52" stop-color="#401E84"/>
<stop offset="0.57" stop-color="#4A1475"/>
</radialGradient>
<linearGradient id="paint2_linear_508_741" x1="10.9619" y1="14.7762" x2="7.08223" y2="2.08512" gradientUnits="userSpaceOnUse">
<stop stop-color="#000F43" stop-opacity="0.4"/>
<stop offset="0.48" stop-color="#001962" stop-opacity="0.17"/>
<stop offset="1" stop-color="#002079" stop-opacity="0"/>
</linearGradient>
<radialGradient id="paint3_radial_508_741" cx="0" cy="0" r="1" gradientUnits="userSpaceOnUse" gradientTransform="translate(19.5703 13.2692) rotate(5.61743) scale(6.6304)">
<stop stop-color="#FFEA00"/>
<stop offset="0.5" stop-color="#FF272D"/>
<stop offset="1" stop-color="#C42482"/>
</radialGradient>
<radialGradient id="paint4_radial_508_741" cx="0" cy="0" r="1" gradientUnits="userSpaceOnUse" gradientTransform="translate(19.5956 6.88334) rotate(5.61741) scale(11.0721)">
<stop stop-color="#FFE900"/>
<stop offset="0.16" stop-color="#FFAF0E"/>
<stop offset="0.32" stop-color="#FF7A1B"/>
<stop offset="0.47" stop-color="#FF4E26"/>
<stop offset="0.62" stop-color="#FF2C2E"/>
<stop offset="0.76" stop-color="#FF1434"/>
<stop offset="0.89" stop-color="#FF0538"/>
<stop offset="1" stop-color="#FF0039"/>
</radialGradient>
<radialGradient id="paint5_radial_508_741" cx="0" cy="0" r="1" gradientUnits="userSpaceOnUse" gradientTransform="translate(20.1493 17.251) rotate(5.61742) scale(10.1598)">
<stop stop-color="#FF272D"/>
<stop offset="0.5" stop-color="#C42482"/>
<stop offset="0.99" stop-color="#620700"/>
</radialGradient>
<radialGradient id="paint6_radial_508_741" cx="0" cy="0" r="1" gradientUnits="userSpaceOnUse" gradientTransform="translate(14.4942 7.98546) scale(15.8518)">
<stop offset="0.16" stop-color="#FFEA00"/>
<stop offset="0.23" stop-color="#FFDE00"/>
<stop offset="0.37" stop-color="#FFBF00"/>
<stop offset="0.54" stop-color="#FF8E00"/>
<stop offset="0.76" stop-color="#FF272D"/>
<stop offset="0.8" stop-color="#F92433"/>
<stop offset="0.84" stop-color="#E91C45"/>
<stop offset="0.89" stop-color="#CF0E62"/>
<stop offset="0.94" stop-color="#B5007F"/>
</radialGradient>
<radialGradient id="paint7_radial_508_741" cx="0" cy="0" r="1" gradientUnits="userSpaceOnUse" gradientTransform="translate(13.5852 0.633803) scale(18.0663)">
<stop offset="0.28" stop-color="#FFEA00"/>
<stop offset="0.4" stop-color="#FFDD00"/>
<stop offset="0.63" stop-color="#FFBA00"/>
<stop offset="0.86" stop-color="#FF9100"/>
<stop offset="0.93" stop-color="#FF6711"/>
<stop offset="0.99" stop-color="#FF4A1D"/>
</radialGradient>
<linearGradient id="paint8_linear_508_741" x1="3.01092" y1="7.39969" x2="10.7924" y2="6.2114" gradientUnits="userSpaceOnUse">
<stop stop-color="#C42482" stop-opacity="0.5"/>
<stop offset="0.47" stop-color="#FF272D" stop-opacity="0.5"/>
<stop offset="0.49" stop-color="#FF2C2C" stop-opacity="0.51"/>
<stop offset="0.68" stop-color="#FF7A1A" stop-opacity="0.72"/>
<stop offset="0.83" stop-color="#FFB20D" stop-opacity="0.87"/>
<stop offset="0.94" stop-color="#FFD605" stop-opacity="0.96"/>
<stop offset="1" stop-color="#FFE302"/>
</linearGradient>
<linearGradient id="paint9_linear_508_741" x1="2.9524" y1="5.35888" x2="2.14099" y2="2.44244" gradientUnits="userSpaceOnUse">
<stop stop-color="#891551" stop-opacity="0.6"/>
<stop offset="1" stop-color="#C42482" stop-opacity="0"/>
</linearGradient>
<linearGradient id="paint10_linear_508_741" x1="4.43348" y1="9.45715" x2="6.10497" y2="11.7922" gradientUnits="userSpaceOnUse">
<stop offset="0.01" stop-color="#891551" stop-opacity="0.5"/>
<stop offset="0.48" stop-color="#FF272D" stop-opacity="0.5"/>
<stop offset="1" stop-color="#FF272D" stop-opacity="0"/>
</linearGradient>
<linearGradient id="paint11_linear_508_741" x1="7.69106" y1="13.5225" x2="7.84404" y2="12.0223" gradientUnits="userSpaceOnUse">
<stop stop-color="#C42482"/>
<stop offset="0.08" stop-color="#C42482" stop-opacity="0.81"/>
<stop offset="0.21" stop-color="#C42482" stop-opacity="0.57"/>
<stop offset="0.33" stop-color="#C42482" stop-opacity="0.36"/>
<stop offset="0.45" stop-color="#C42482" stop-opacity="0.2"/>
<stop offset="0.56" stop-color="#C42482" stop-opacity="0.09"/>
<stop offset="0.67" stop-color="#C42482" stop-opacity="0.02"/>
<stop offset="0.77" stop-color="#C42482" stop-opacity="0"/>
</linearGradient>
<linearGradient id="paint12_linear_508_741" x1="12.5728" y1="0.733225" x2="18.7673" y2="14.5847" gradientUnits="userSpaceOnUse">
<stop stop-color="#FFF14F"/>
<stop offset="0.27" stop-color="#FFEE4C"/>
<stop offset="0.45" stop-color="#FFE643"/>
<stop offset="0.61" stop-color="#FFD834"/>
<stop offset="0.76" stop-color="#FFC41E"/>
<stop offset="0.89" stop-color="#FFAB02"/>
<stop offset="0.9" stop-color="#FFA900"/>
<stop offset="0.95" stop-color="#FFA000"/>
<stop offset="1" stop-color="#FF9100"/>
</linearGradient>
<linearGradient id="paint13_linear_508_741" x1="13.8027" y1="8.69978" x2="10.8686" y2="16.5781" gradientUnits="userSpaceOnUse">
<stop stop-color="#FF8E00"/>
<stop offset="0.04" stop-color="#FF8E00" stop-opacity="0.86"/>
<stop offset="0.08" stop-color="#FF8E00" stop-opacity="0.73"/>
<stop offset="0.13" stop-color="#FF8E00" stop-opacity="0.63"/>
<stop offset="0.18" stop-color="#FF8E00" stop-opacity="0.56"/>
<stop offset="0.23" stop-color="#FF8E00" stop-opacity="0.51"/>
<stop offset="0.28" stop-color="#FF8E00" stop-opacity="0.5"/>
<stop offset="0.39" stop-color="#FF8E00" stop-opacity="0.48"/>
<stop offset="0.52" stop-color="#FF8E00" stop-opacity="0.42"/>
<stop offset="0.68" stop-color="#FF8E00" stop-opacity="0.31"/>
<stop offset="0.84" stop-color="#FF8E00" stop-opacity="0.17"/>
<stop offset="1" stop-color="#FF8E00" stop-opacity="0"/>
</linearGradient>
<clipPath id="clip0_508_741">
<rect width="19.3208" height="20" fill="white"/>
</clipPath>
</defs>
</svg>
