<svg width="21" height="20" viewBox="0 0 21 20" fill="none" xmlns="http://www.w3.org/2000/svg">
<g clip-path="url(#clip0_508_614)">
<path d="M20.4243 5.88005C20.3774 4.81738 20.2056 4.0868 19.9594 3.45374C19.7055 2.78176 19.3148 2.18014 18.8029 1.68002C18.3027 1.1721 17.6972 0.777435 17.033 0.527447C16.3962 0.281274 15.6695 0.109427 14.6068 0.0625732C13.5362 0.0117516 13.1963 0 10.4809 0C7.76558 0 7.4257 0.0117516 6.35905 0.0586052C5.29638 0.105459 4.5658 0.277459 3.93289 0.523479C3.26076 0.777435 2.65915 1.16814 2.15902 1.68002C1.65111 2.18014 1.25659 2.78573 1.00645 3.44992C0.760278 4.0868 0.588431 4.81341 0.541577 5.87609C0.490755 6.9467 0.479004 7.28658 0.479004 10.002C0.479004 12.7173 0.490755 13.0572 0.537609 14.1239C0.584463 15.1865 0.756463 15.9171 1.00263 16.5502C1.25659 17.2221 1.65111 17.8238 2.15902 18.3239C2.65915 18.8318 3.26473 19.2265 3.92892 19.4765C4.5658 19.7226 5.29241 19.8945 6.35524 19.9413C7.42173 19.9883 7.76176 19.9999 10.4771 19.9999C13.1925 19.9999 13.5324 19.9883 14.599 19.9413C15.6617 19.8945 16.3923 19.7226 17.0252 19.4765C18.3693 18.9568 19.432 17.8941 19.9516 16.5502C20.1976 15.9133 20.3696 15.1865 20.4165 14.1239C20.4634 13.0572 20.4751 12.7173 20.4751 10.002C20.4751 7.28658 20.4711 6.9467 20.4243 5.88005ZM18.6232 14.0457C18.5802 15.0225 18.4161 15.5499 18.2794 15.9015C17.9433 16.7728 17.2518 17.4643 16.3805 17.8004C16.0289 17.9372 15.4976 18.1012 14.5247 18.1441C13.4698 18.1911 13.1534 18.2027 10.4849 18.2027C7.8164 18.2027 7.49605 18.1911 6.44498 18.1441C5.46822 18.1012 4.94078 17.9372 4.58915 17.8004C4.15556 17.6402 3.76089 17.3862 3.44055 17.0541C3.10845 16.7298 2.8545 16.3391 2.69425 15.9055C2.5575 15.5539 2.39344 15.0225 2.35055 14.0497C2.30355 12.9948 2.29195 12.6783 2.29195 10.0097C2.29195 7.34122 2.30355 7.02087 2.35055 5.96995C2.39344 4.99319 2.5575 4.46575 2.69425 4.11412C2.8545 3.68038 3.10845 3.28586 3.44452 2.96536C3.76867 2.63327 4.15938 2.37931 4.59311 2.21921C4.94475 2.08247 5.47616 1.9184 6.44894 1.87537C7.50384 1.82851 7.82036 1.81676 10.4887 1.81676C13.1612 1.81676 13.4776 1.82851 14.5287 1.87537C15.5054 1.9184 16.0329 2.08247 16.3845 2.21921C16.8181 2.37931 17.2128 2.63327 17.5331 2.96536C17.8652 3.28967 18.1191 3.68038 18.2794 4.11412C18.4161 4.46575 18.5802 4.99701 18.6232 5.96995C18.6701 7.02484 18.6819 7.34122 18.6819 10.0097C18.6819 12.6783 18.6701 12.9908 18.6232 14.0457Z" fill="#BB6BD9"/>
<path d="M10.4803 4.86426C7.64385 4.86426 5.34253 7.16543 5.34253 10.002C5.34253 12.8385 7.64385 15.1397 10.4803 15.1397C13.3168 15.1397 15.618 12.8385 15.618 10.002C15.618 7.16543 13.3168 4.86426 10.4803 4.86426ZM10.4803 13.3347C8.64014 13.3347 7.14754 11.8422 7.14754 10.002C7.14754 8.16172 8.64014 6.66927 10.4803 6.66927C12.3205 6.66927 13.813 8.16172 13.813 10.002C13.813 11.8422 12.3205 13.3347 10.4803 13.3347Z" fill="#BB6BD9"/>
<path d="M17.0201 4.6611C17.0201 5.32346 16.483 5.86052 15.8205 5.86052C15.1582 5.86052 14.6211 5.32346 14.6211 4.6611C14.6211 3.99858 15.1582 3.46167 15.8205 3.46167C16.483 3.46167 17.0201 3.99858 17.0201 4.6611Z" fill="#BB6BD9"/>
</g>
<defs>
<clipPath id="clip0_508_614">
<rect width="20" height="20" fill="white" transform="translate(0.444336)"/>
</clipPath>
</defs>
</svg>
