<svg width="20" height="21" viewBox="0 0 20 21" fill="none" xmlns="http://www.w3.org/2000/svg">
<path fill-rule="evenodd" clip-rule="evenodd" d="M13.8824 2.16675C16.6574 2.16675 18.7499 4.43091 18.7499 7.43341V13.1567C18.7499 14.6934 18.2066 16.0817 17.2191 17.0667C16.3333 17.9492 15.1841 18.4167 13.8958 18.4167H5.68492C4.39909 18.4167 3.25075 17.9501 2.36409 17.0667C1.37659 16.0817 0.833252 14.6934 0.833252 13.1567V7.43341C0.833252 4.43091 2.92575 2.16675 5.70075 2.16675H13.8824ZM13.8824 3.41675H5.70075C3.60492 3.41675 2.08325 5.10591 2.08325 7.43341V13.1567C2.08325 14.3592 2.49659 15.4334 3.24659 16.1809C3.89325 16.8267 4.73742 17.1667 5.68742 17.1667H13.8824C13.8841 17.1651 13.8908 17.1667 13.8958 17.1667C14.8466 17.1667 15.6899 16.8267 16.3366 16.1809C17.0874 15.4334 17.4999 14.3592 17.4999 13.1567V7.43341C17.4999 5.10591 15.9783 3.41675 13.8824 3.41675ZM15.1958 7.27408C15.4133 7.54158 15.3724 7.93491 15.1049 8.15325L11.4016 11.1632C10.9333 11.5349 10.3733 11.7207 9.81409 11.7207C9.25659 11.7207 8.70075 11.5366 8.23575 11.1682L4.49825 8.15491C4.22909 7.93825 4.18742 7.54408 4.40325 7.27575C4.62075 7.00825 5.01409 6.96575 5.28242 7.18158L9.01658 10.1916C9.48575 10.5632 10.1466 10.5632 10.6191 10.1882L14.3158 7.18325C14.5841 6.96408 14.9774 7.00575 15.1958 7.27408Z" fill="#8BA1B1"/>
</svg>
