<svg width="21" height="20" viewBox="0 0 21 20" fill="none" xmlns="http://www.w3.org/2000/svg">
<g clip-path="url(#clip0_508_711)">
<path d="M0.444336 10.0002C0.444336 14.095 2.90668 17.6128 6.4302 19.1595C6.40207 18.4612 6.4252 17.6229 6.60426 16.8631C6.79652 16.0513 7.89098 11.4141 7.89098 11.4141C7.89098 11.4141 7.57152 10.7755 7.57152 9.83187C7.57152 8.34992 8.43043 7.24312 9.50012 7.24312C10.4097 7.24312 10.8492 7.92633 10.8492 8.74445C10.8492 9.65883 10.266 11.0266 9.96605 12.2934C9.71551 13.3541 10.4979 14.2194 11.5444 14.2194C13.4391 14.2194 14.7152 11.7859 14.7152 8.90258C14.7152 6.71086 13.239 5.07039 10.5541 5.07039C7.52066 5.07039 5.6309 7.33258 5.6309 9.85945C5.6309 10.7307 5.88777 11.3451 6.29012 11.8209C6.47512 12.0394 6.50082 12.1273 6.43387 12.3782C6.3859 12.5622 6.27574 13.0052 6.23012 13.1807C6.16355 13.434 5.95832 13.5245 5.72941 13.431C4.33223 12.8606 3.68152 11.3305 3.68152 9.61055C3.68152 6.76984 6.0773 3.36359 10.8286 3.36359C14.6465 3.36359 17.1594 6.12641 17.1594 9.09211C17.1594 13.015 14.9785 15.9457 11.7636 15.9457C10.684 15.9457 9.66848 15.3621 9.32059 14.6992C9.32059 14.6992 8.74004 17.0033 8.61707 17.4482C8.40504 18.2192 7.99004 18.9898 7.61059 19.5905C8.53071 19.8625 9.48522 20.0006 10.4447 20.0005C15.9669 20.0005 20.4444 15.5233 20.4444 10.0002C20.4444 4.47727 15.9669 0 10.4447 0C4.92199 0 0.444336 4.47727 0.444336 10.0002Z" fill="#CB1F27"/>
</g>
<defs>
<clipPath id="clip0_508_711">
<rect width="20" height="20" fill="white" transform="translate(0.444336)"/>
</clipPath>
</defs>
</svg>
