<svg width="20" height="21" viewBox="0 0 20 21" fill="none" xmlns="http://www.w3.org/2000/svg">
<path fill-rule="evenodd" clip-rule="evenodd" d="M9.00396 12.8482L12.0515 17.7923C12.1848 18.009 12.3931 18.0065 12.4773 17.9949C12.5615 17.9832 12.764 17.9315 12.8373 17.6857L16.6481 4.81485C16.7148 4.58735 16.5923 4.43235 16.5373 4.37735C16.484 4.32235 16.3315 4.20485 16.1106 4.26735L3.23062 8.03902C2.98646 8.11068 2.93312 8.31568 2.92146 8.39985C2.90979 8.48568 2.90646 8.69818 3.12229 8.83402L8.12313 11.9615L12.5415 7.49652C12.784 7.25152 13.1798 7.24902 13.4256 7.49152C13.6715 7.73402 13.6731 8.13068 13.4306 8.37568L9.00396 12.8482ZM12.4123 19.2499C11.8323 19.2499 11.3006 18.9549 10.9873 18.4482L7.75646 13.2057L2.45979 9.89318C1.88896 9.53568 1.59062 8.89902 1.68312 8.22985C1.77479 7.56068 2.23396 7.02902 2.87896 6.83985L15.759 3.06818C16.3515 2.89485 16.9865 3.05902 17.4231 3.49402C17.8598 3.93318 18.0223 4.57485 17.8456 5.16985L14.0348 18.0399C13.844 18.6874 13.3106 19.1449 12.6431 19.234C12.5648 19.244 12.489 19.2499 12.4123 19.2499Z" fill="#8BA1B1"/>
</svg>
