<svg width="24" height="24" viewBox="0 0 24 24" fill="none" xmlns="http://www.w3.org/2000/svg">
<path fill-rule="evenodd" clip-rule="evenodd" d="M6.65741 2.0003C7.77441 2.0153 8.57041 2.8523 9.57741 3.9113C9.82641 4.1723 10.0954 4.4573 10.3964 4.7573C11.8554 6.2173 11.4404 7.4083 11.1054 8.3643C10.7414 9.4073 10.4264 10.3073 12.3124 12.1933C14.1984 14.0793 15.0974 13.7643 16.1394 13.3973C17.0964 13.0633 18.2844 12.6453 19.7464 14.1053C20.0434 14.4023 20.3234 14.6683 20.5834 14.9153C21.6464 15.9273 22.4864 16.7263 22.5006 17.8463C22.5114 18.8003 21.9314 19.7743 20.4994 21.2063L19.8654 20.7763L20.4024 21.2993C20.0854 21.6243 19.2424 22.4903 17.5914 22.5003H17.5614C15.0694 22.5003 11.8204 20.5163 7.90441 16.6013C3.97241 12.6703 1.98541 9.4113 2.00033 6.9143C2.00941 5.2643 2.87441 4.4193 3.19941 4.1023L3.22715 4.072L3.29441 4.0043C4.72941 2.5693 5.71541 1.9793 6.65741 2.0003ZM6.63841 3.5003H6.63041C6.18135 3.5003 5.49938 3.9503 4.54824 4.87419L4.35724 5.06176L4.35941 5.0613C4.36061 5.0613 4.34309 5.08002 4.31528 5.10838L4.24841 5.1753C4.00641 5.4103 3.50541 5.8993 3.50036 6.9223C3.49241 8.3533 4.43341 11.0103 8.96441 15.5403C13.4734 20.0483 16.1264 21.0003 17.5614 21.0003H17.5824C18.6054 20.9943 19.0934 20.4933 19.3284 20.2523C19.3994 20.1793 19.4574 20.1243 19.4984 20.0913C20.4954 19.0883 21.0054 18.3433 21.0005 17.8643C20.9944 17.3763 20.3874 16.8003 19.5484 16.0013C19.2814 15.7483 18.9914 15.4713 18.6854 15.1653C17.8914 14.3743 17.5004 14.5093 16.6354 14.8133C15.4404 15.2323 13.8034 15.8063 11.2524 13.2533C8.70041 10.7023 9.27241 9.0653 9.68941 7.8693C9.99141 7.0053 10.1294 6.6123 9.33641 5.8183C9.02641 5.5083 8.74741 5.2143 8.49041 4.9443C7.69641 4.1103 7.12341 3.5073 6.63841 3.5003ZM15.2465 5.5578C17.3275 5.9618 18.9345 7.5678 19.3395 9.6498C19.4185 10.0578 19.1535 10.4508 18.7475 10.5298C18.6985 10.5388 18.6505 10.5438 18.6025 10.5438C18.2505 10.5438 17.9375 10.2958 17.8675 9.9378C17.5795 8.4578 16.4385 7.3168 14.9605 7.0298C14.5535 6.9508 14.2885 6.5578 14.3675 6.1508C14.4465 5.7438 14.8465 5.4778 15.2465 5.5578ZM15.1866 2.006C19.2646 2.459 22.4316 5.622 22.8886 9.699C22.9346 10.111 22.6386 10.482 22.2276 10.528C22.1996 10.531 22.1706 10.533 22.1426 10.533C21.7656 10.533 21.4416 10.25 21.3986 9.86699C21.0196 6.491 18.3976 3.871 15.0206 3.496C14.6096 3.45 14.3126 3.08 14.3586 2.668C14.4036 2.257 14.7706 1.954 15.1866 2.006Z" fill="white"/>
</svg>
