<svg width="24" height="24" viewBox="0 0 24 24" fill="none" xmlns="http://www.w3.org/2000/svg">
<path fill-rule="evenodd" clip-rule="evenodd" d="M4.35941 5.06081C4.36141 5.06081 4.31141 5.11281 4.24841 5.17481C4.00641 5.40981 3.50541 5.89881 3.50036 6.92181C3.49241 8.35281 4.43341 11.0098 8.96441 15.5398C13.4744 20.0478 16.1274 20.9998 17.5614 20.9998H17.5824C18.6054 20.9948 19.0934 20.4928 19.3294 20.2518C19.4014 20.1778 19.4594 20.1238 19.5004 20.0898C20.4964 19.0878 21.0064 18.3418 21.0014 17.8638C20.9944 17.3758 20.3874 16.7988 19.5484 16.0008C19.2814 15.7468 18.9914 15.4708 18.6854 15.1648C17.8924 14.3738 17.4994 14.5088 16.6354 14.8128C15.4404 15.2318 13.8004 15.8018 11.2524 13.2528C8.70041 10.7028 9.27141 9.06481 9.68941 7.86981C9.99141 7.00581 10.1294 6.61181 9.33541 5.81781C9.02441 5.50781 8.74541 5.21381 8.48841 4.94381C7.69541 4.10981 7.12341 3.50681 6.63841 3.49981H6.63041C6.15141 3.49981 5.40741 4.01181 4.35441 5.06481C4.35741 5.06181 4.35841 5.06081 4.35941 5.06081ZM17.5624 22.4998C15.0704 22.4998 11.8214 20.5158 7.90441 16.6008C3.97241 12.6698 1.98541 9.41081 2.00033 6.91381C2.00941 5.26381 2.87441 4.41881 3.19941 4.10181C3.21641 4.08081 3.27441 4.02381 3.29441 4.00381C4.72841 2.56881 5.69541 1.98881 6.65741 1.99966C7.77441 2.01481 8.56941 2.85081 9.57541 3.90981C9.82441 4.17181 10.0944 4.45681 10.3954 4.75681C11.8554 6.21681 11.4394 7.40781 11.1054 8.36381C10.7414 9.40681 10.4264 10.3068 12.3124 12.1928C14.2004 14.0788 15.1004 13.7638 16.1394 13.3968C17.0964 13.0628 18.2844 12.6448 19.7464 14.1048C20.0424 14.4008 20.3234 14.6678 20.5824 14.9148C21.6464 15.9258 22.4864 16.7248 22.5006 17.8448C22.5124 18.7998 21.9324 19.7728 20.5004 21.2058L19.8664 20.7758L20.4024 21.2998C20.0854 21.6248 19.2414 22.4908 17.5904 22.4998H17.5624Z" fill="white"/>
</svg>
