<svg width="21" height="20" viewBox="0 0 21 20" fill="none" xmlns="http://www.w3.org/2000/svg">
<g clip-path="url(#clip0_508_709)">
<path d="M10.4443 0.3125C5.09246 0.3125 0.756836 4.64875 0.756836 10C0.756836 15.3512 5.09309 19.6875 10.4443 19.6875C15.7962 19.6875 20.1318 15.3512 20.1318 10C20.1318 4.64875 15.7956 0.3125 10.4443 0.3125ZM15.2025 6.94938L13.6125 14.4419C13.495 14.9731 13.1787 15.1019 12.7375 14.8519L10.3156 13.0669L9.14746 14.1919C9.01871 14.3206 8.90934 14.43 8.65934 14.43L8.83121 11.965L13.3193 7.91C13.515 7.73812 13.2762 7.64062 13.0181 7.8125L7.47121 11.3044L5.08059 10.5581C4.56121 10.3944 4.54934 10.0387 5.18996 9.78875L14.53 6.18688C14.9637 6.03063 15.3425 6.2925 15.2018 6.94875L15.2025 6.94938Z" fill="#288FE6"/>
</g>
<defs>
<clipPath id="clip0_508_709">
<rect width="20" height="20" fill="white" transform="translate(0.444336)"/>
</clipPath>
</defs>
</svg>
