<svg width="29" height="20" viewBox="0 0 29 20" fill="none" xmlns="http://www.w3.org/2000/svg">
<g clip-path="url(#clip0_508_706)">
<path d="M27.816 3.11944C27.6528 2.51651 27.3346 1.96683 26.8929 1.52514C26.4513 1.08346 25.9016 0.765179 25.2987 0.602C23.0913 0 14.2076 0 14.2076 0C14.2076 0 5.32333 0.0182222 3.116 0.620222C2.51306 0.783411 1.96338 1.10171 1.52171 1.54341C1.08005 1.98512 0.761802 2.53482 0.598666 3.13778C-0.0690006 7.05978 -0.328001 13.036 0.616999 16.8011C0.780152 17.4041 1.09841 17.9537 1.54007 18.3954C1.98174 18.8371 2.5314 19.1554 3.13433 19.3186C5.34167 19.9206 14.2257 19.9206 14.2257 19.9206C14.2257 19.9206 23.1096 19.9206 25.3168 19.3186C25.9197 19.1554 26.4694 18.8371 26.9111 18.3954C27.3528 17.9538 27.6711 17.4041 27.8342 16.8011C28.5384 12.8736 28.7554 6.90111 27.816 3.11956V3.11944Z" fill="#FF0000"/>
<path d="M11.3799 14.2287L18.7498 9.96007L11.38 5.69141L11.3799 14.2287Z" fill="white"/>
</g>
<defs>
<clipPath id="clip0_508_706">
<rect width="28.4444" height="20" fill="white"/>
</clipPath>
</defs>
</svg>
