<svg width="23" height="23" viewBox="0 0 23 23" fill="none" xmlns="http://www.w3.org/2000/svg">
<g clip-path="url(#clip0_1115_8643)">
<path d="M22.4307 6.51802C22.3788 5.34005 22.1883 4.5302 21.9154 3.82846C21.6339 3.08358 21.2008 2.41668 20.6334 1.86229C20.079 1.29927 19.4077 0.861784 18.6715 0.584673C17.9657 0.311792 17.1601 0.121299 15.9821 0.0693622C14.7953 0.0130266 14.4186 0 11.4086 0C8.39861 0 8.02185 0.0130266 6.83948 0.0649637C5.66151 0.116901 4.85166 0.307562 4.15009 0.580275C3.40504 0.861784 2.73814 1.29488 2.18375 1.86229C1.62074 2.41668 1.18342 3.08797 0.906137 3.82423C0.633256 4.5302 0.442764 5.33565 0.390827 6.51362C0.334491 7.7004 0.321465 8.07715 0.321465 11.0871C0.321465 14.0971 0.334491 14.4739 0.386428 15.6562C0.438365 16.8342 0.629027 17.6441 0.901908 18.3458C1.18342 19.0907 1.62074 19.7576 2.18375 20.312C2.73814 20.875 3.40944 21.3125 4.14569 21.5896C4.85166 21.8625 5.65711 22.053 6.83525 22.1049C8.01745 22.157 8.39438 22.1699 11.4044 22.1699C14.4143 22.1699 14.7911 22.157 15.9735 22.1049C17.1514 22.053 17.9613 21.8625 18.6629 21.5896C20.1528 21.0135 21.3308 19.8356 21.9068 18.3458C22.1795 17.6398 22.3702 16.8342 22.4221 15.6562C22.4741 14.4739 22.4871 14.0971 22.4871 11.0871C22.4871 8.07715 22.4827 7.7004 22.4307 6.51802ZM20.4343 15.5696C20.3866 16.6524 20.2047 17.237 20.0531 17.6268C19.6806 18.5926 18.9141 19.3592 17.9483 19.7317C17.5585 19.8833 16.9696 20.0651 15.8911 20.1127C14.7217 20.1648 14.371 20.1777 11.413 20.1777C8.45494 20.1777 8.09984 20.1648 6.93473 20.1127C5.852 20.0651 5.26733 19.8833 4.87754 19.7317C4.39692 19.5541 3.95943 19.2726 3.60433 18.9044C3.2362 18.5449 2.95469 18.1118 2.77706 17.6312C2.62547 17.2414 2.44361 16.6524 2.39607 15.574C2.34396 14.4047 2.33111 14.0538 2.33111 11.0958C2.33111 8.13772 2.34396 7.78261 2.39607 6.61767C2.44361 5.53494 2.62547 4.95027 2.77706 4.56048C2.95469 4.07969 3.2362 3.64236 3.60872 3.28709C3.96805 2.91897 4.40114 2.63746 4.88194 2.45999C5.27173 2.30841 5.8608 2.12655 6.93912 2.07884C8.10847 2.0269 8.45934 2.01387 11.4172 2.01387C14.3797 2.01387 14.7304 2.0269 15.8955 2.07884C16.9782 2.12655 17.5629 2.30841 17.9527 2.45999C18.4333 2.63746 18.8708 2.91897 19.2259 3.28709C19.594 3.64659 19.8755 4.07969 20.0531 4.56048C20.2047 4.95027 20.3866 5.53917 20.4343 6.61767C20.4862 7.78701 20.4993 8.13772 20.4993 11.0958C20.4993 14.0538 20.4862 14.4003 20.4343 15.5696Z" fill="#8BA1B1"/>
<path d="M11.4079 5.39191C8.26378 5.39191 5.71277 7.94275 5.71277 11.0871C5.71277 14.2314 8.26378 16.7822 11.4079 16.7822C14.5522 16.7822 17.1031 14.2314 17.1031 11.0871C17.1031 7.94275 14.5522 5.39191 11.4079 5.39191ZM11.4079 14.7814C9.36816 14.7814 7.71362 13.127 7.71362 11.0871C7.71362 9.04713 9.36816 7.39275 11.4079 7.39275C13.4478 7.39275 15.1022 9.04713 15.1022 11.0871C15.1022 13.127 13.4478 14.7814 11.4079 14.7814Z" fill="#8BA1B1"/>
<path d="M18.6572 5.16678C18.6572 5.90101 18.0619 6.49634 17.3275 6.49634C16.5933 6.49634 15.9979 5.90101 15.9979 5.16678C15.9979 4.43238 16.5933 3.83722 17.3275 3.83722C18.0619 3.83722 18.6572 4.43238 18.6572 5.16678Z" fill="#8BA1B1"/>
</g>
<defs>
<clipPath id="clip0_1115_8643">
<rect width="22.1699" height="22.1699" fill="white" transform="translate(0.283081)"/>
</clipPath>
</defs>
</svg>
