<svg width="23" height="24" viewBox="0 0 23 24" fill="none" xmlns="http://www.w3.org/2000/svg">
<g clip-path="url(#clip0_1149_8553)">
<path d="M22.4308 7.43305C22.3789 6.25508 22.1884 5.44523 21.9155 4.74349C21.634 3.99861 21.2009 3.33171 20.6335 2.77732C20.0791 2.21431 19.4078 1.77682 18.6716 1.4997C17.9657 1.22682 17.1601 1.03633 15.9822 0.984394C14.7954 0.928058 14.4186 0.915031 11.4087 0.915031C8.39867 0.915031 8.02192 0.928058 6.83955 0.979995C5.66158 1.03193 4.85173 1.22259 4.15016 1.49531C3.40511 1.77682 2.73821 2.20991 2.18382 2.77732C1.62081 3.33171 1.18349 4.00301 0.906206 4.73926C0.633325 5.44523 0.442832 6.25068 0.390895 7.42866C0.33456 8.61543 0.321533 8.99218 0.321533 12.0022C0.321533 15.0121 0.33456 15.3889 0.386497 16.5713C0.438434 17.7493 0.629095 18.5591 0.901976 19.2608C1.18349 20.0057 1.62081 20.6726 2.18382 21.227C2.73821 21.79 3.4095 22.2275 4.14576 22.5046C4.85173 22.7775 5.65718 22.968 6.83532 23.0199C8.01752 23.072 8.39445 23.0849 11.4044 23.0849C14.4144 23.0849 14.7912 23.072 15.9735 23.0199C17.1515 22.968 17.9614 22.7775 18.6629 22.5046C20.1529 21.9286 21.3308 20.7506 21.9069 19.2608C22.1796 18.5549 22.3702 17.7493 22.4222 16.5713C22.4741 15.3889 22.4871 15.0121 22.4871 12.0022C22.4871 8.99218 22.4827 8.61543 22.4308 7.43305ZM20.4344 16.4847C20.3867 17.5674 20.2048 18.1521 20.0532 18.5418C19.6807 19.5077 18.9142 20.2742 17.9483 20.6467C17.5585 20.7983 16.9696 20.9802 15.8911 21.0277C14.7218 21.0798 14.3711 21.0927 11.4131 21.0927C8.45501 21.0927 8.09991 21.0798 6.93479 21.0277C5.85207 20.9802 5.2674 20.7983 4.87761 20.6467C4.39698 20.4691 3.9595 20.1876 3.60439 19.8195C3.23627 19.46 2.95476 19.0269 2.77712 18.5462C2.62554 18.1565 2.44368 17.5674 2.39614 16.4891C2.34403 15.3197 2.33118 14.9688 2.33118 12.0108C2.33118 9.05275 2.34403 8.69765 2.39614 7.5327C2.44368 6.44997 2.62554 5.8653 2.77712 5.47552C2.95476 4.99472 3.23627 4.5574 3.60879 4.20213C3.96812 3.834 4.40121 3.55249 4.88201 3.37502C5.27179 3.22344 5.86086 3.04158 6.93919 2.99387C8.10854 2.94193 8.45941 2.92891 11.4173 2.92891C14.3797 2.92891 14.7304 2.94193 15.8955 2.99387C16.9783 3.04158 17.5629 3.22344 17.9527 3.37502C18.4334 3.55249 18.8708 3.834 19.2259 4.20213C19.5941 4.56163 19.8756 4.99472 20.0532 5.47552C20.2048 5.8653 20.3867 6.4542 20.4344 7.5327C20.4863 8.70204 20.4993 9.05275 20.4993 12.0108C20.4993 14.9688 20.4863 15.3153 20.4344 16.4847Z" fill="#8BA1B1"/>
<path d="M11.408 6.30694C8.2639 6.30694 5.71289 8.85778 5.71289 12.0021C5.71289 15.1464 8.2639 17.6972 11.408 17.6972C14.5523 17.6972 17.1032 15.1464 17.1032 12.0021C17.1032 8.85778 14.5523 6.30694 11.408 6.30694ZM11.408 15.6964C9.36828 15.6964 7.71374 14.042 7.71374 12.0021C7.71374 9.96216 9.36828 8.30779 11.408 8.30779C13.448 8.30779 15.1023 9.96216 15.1023 12.0021C15.1023 14.042 13.448 15.6964 11.408 15.6964Z" fill="#8BA1B1"/>
<path d="M18.6573 6.08181C18.6573 6.81604 18.062 7.41137 17.3276 7.41137C16.5934 7.41137 15.998 6.81604 15.998 6.08181C15.998 5.34741 16.5934 4.75225 17.3276 4.75225C18.062 4.75225 18.6573 5.34741 18.6573 6.08181Z" fill="#8BA1B1"/>
</g>
<defs>
<clipPath id="clip0_1149_8553">
<rect width="22.1699" height="22.1699" fill="white" transform="translate(0.283203 0.915031)"/>
</clipPath>
</defs>
</svg>
