<svg width="16" height="17" viewBox="0 0 16 17" fill="none" xmlns="http://www.w3.org/2000/svg">
<path d="M2 6.83008H5V13.3301H2C1.86739 13.3301 1.74021 13.2774 1.64645 13.1836C1.55268 13.0899 1.5 12.9627 1.5 12.8301V7.33008C1.5 7.19747 1.55268 7.07029 1.64645 6.97652C1.74021 6.88276 1.86739 6.83008 2 6.83008V6.83008Z" stroke="#EEF2F4" stroke-linecap="round" stroke-linejoin="round"/>
<path d="M5 6.83008L7.5 1.83008C7.76264 1.83008 8.02272 1.88181 8.26537 1.98232C8.50802 2.08283 8.7285 2.23015 8.91421 2.41586C9.09993 2.60158 9.24725 2.82206 9.34776 3.06471C9.44827 3.30736 9.5 3.56743 9.5 3.83008V5.33008H13.3672C13.509 5.33008 13.6492 5.36023 13.7784 5.41854C13.9077 5.47685 14.0231 5.56198 14.1169 5.66828C14.2107 5.77458 14.2809 5.89962 14.3227 6.0351C14.3645 6.17058 14.3771 6.31341 14.3595 6.45411L13.6095 12.4541C13.5793 12.696 13.4617 12.9185 13.279 13.0798C13.0963 13.2411 12.861 13.3301 12.6172 13.3301H5" stroke="#EEF2F4" stroke-linecap="round" stroke-linejoin="round"/>
</svg>
