<svg width="30" height="31" viewBox="0 0 30 31" fill="none" xmlns="http://www.w3.org/2000/svg">
<path d="M3.74927 12.6875H9.37427V24.875H3.74927C3.50063 24.875 3.26217 24.7762 3.08635 24.6004C2.91054 24.4246 2.81177 24.1861 2.81177 23.9375V13.625C2.81177 13.3764 2.91054 13.1379 3.08635 12.9621C3.26217 12.7863 3.50063 12.6875 3.74927 12.6875V12.6875Z" stroke="#36C27F" stroke-linecap="round" stroke-linejoin="round"/>
<path d="M9.37427 12.6875L14.0618 3.3125C14.5542 3.3125 15.0419 3.4095 15.4968 3.59795C15.9518 3.78641 16.3652 4.06263 16.7134 4.41085C17.0616 4.75907 17.3379 5.17247 17.5263 5.62744C17.7148 6.08241 17.8118 6.57004 17.8118 7.0625V9.875H25.0628C25.3287 9.875 25.5915 9.93154 25.8338 10.0409C26.0762 10.1502 26.2925 10.3098 26.4684 10.5091C26.6444 10.7084 26.7759 10.9429 26.8544 11.1969C26.9328 11.4509 26.9563 11.7188 26.9233 11.9826L25.5171 23.2326C25.4604 23.686 25.24 24.1032 24.8974 24.4056C24.5548 24.7081 24.1136 24.875 23.6566 24.875H9.37427" stroke="#36C27F" stroke-linecap="round" stroke-linejoin="round"/>
</svg>
