<svg width="20" height="21" viewBox="0 0 20 21" fill="none" xmlns="http://www.w3.org/2000/svg">
<path d="M17.3027 11.1738C17.6309 10.7402 17.8125 10.209 17.8125 9.65624C17.8125 8.77928 17.3223 7.94921 16.5332 7.48632C16.3301 7.36717 16.0988 7.30446 15.8633 7.30468H11.1797L11.2969 4.90429C11.3242 4.32421 11.1191 3.77343 10.7207 3.35351C10.5252 3.14654 10.2893 2.98186 10.0276 2.86966C9.76588 2.75746 9.48395 2.70011 9.19922 2.70117C8.18359 2.70117 7.28516 3.38476 7.01562 4.36328L5.33789 10.4375H5.33203V18.7968H14.5566C14.7363 18.7968 14.9121 18.7617 15.0742 18.6914C16.0039 18.2949 16.6035 17.3867 16.6035 16.3789C16.6035 16.1328 16.5684 15.8906 16.498 15.6562C16.8262 15.2226 17.0078 14.6914 17.0078 14.1386C17.0078 13.8926 16.9727 13.6504 16.9023 13.416C17.2305 12.9824 17.4121 12.4512 17.4121 11.8984C17.4082 11.6523 17.373 11.4082 17.3027 11.1738ZM2.1875 11.0625V18.1718C2.1875 18.5175 2.4668 18.7968 2.8125 18.7968H4.08203V10.4375H2.8125C2.4668 10.4375 2.1875 10.7168 2.1875 11.0625Z" fill="#36C27F"/>
</svg>
