<svg width="20" height="21" viewBox="0 0 20 21" fill="none" xmlns="http://www.w3.org/2000/svg">
<path d="M2.69727 9.8242C2.36914 10.2578 2.1875 10.789 2.1875 11.3418C2.1875 12.2187 2.67773 13.0488 3.4668 13.5117C3.66993 13.6308 3.90122 13.6936 4.13672 13.6933L8.82031 13.6933L8.70313 16.0937C8.67578 16.6738 8.88086 17.2246 9.2793 17.6445C9.47483 17.8515 9.71074 18.0162 9.97243 18.1284C10.2341 18.2406 10.516 18.2979 10.8008 18.2968C11.8164 18.2968 12.7148 17.6133 12.9844 16.6347L14.6621 10.5605L14.668 10.5605L14.668 2.20117L5.44336 2.20117C5.26367 2.20117 5.08789 2.23633 4.92578 2.30664C3.9961 2.70312 3.39649 3.61132 3.39649 4.61913C3.39649 4.86523 3.43164 5.10741 3.50195 5.34179C3.17383 5.77538 2.99219 6.30663 2.99219 6.85937C2.99219 7.10546 3.02734 7.34765 3.09766 7.58202C2.76953 8.01561 2.58789 8.54686 2.58789 9.0996C2.5918 9.34569 2.62695 9.58983 2.69727 9.8242ZM17.8125 9.93553L17.8125 2.82617C17.8125 2.48047 17.5332 2.20117 17.1875 2.20117L15.918 2.20117L15.918 10.5605L17.1875 10.5605C17.5332 10.5605 17.8125 10.2812 17.8125 9.93553Z" fill="#FF523A"/>
</svg>
