<svg width="20" height="20" viewBox="0 0 20 20" fill="none" xmlns="http://www.w3.org/2000/svg">
<g clip-path="url(#clip0_503_41)">
<path d="M19.8431 10C19.8431 15.5229 15.5229 20 10 20C8.34961 20 6.79259 19.6002 5.42051 18.8922C3.96808 18.1426 2.8798 16.8516 1.95047 15.52C1.25314 14.5207 0.576784 13.5841 0.281059 12.3641C0.0973725 11.6061 0 10.8144 0 10C0 4.47714 4.47714 0 10 0C14.2841 0.0279608 19.8431 4.47714 19.8431 10Z" fill="url(#paint0_linear_503_41)"/>
<path d="M10 0C9.73591 0 9.47427 0.0104314 9.21533 0.0305098C13.1794 0.338235 16.4948 2.95745 17.816 6.54173C17.8147 6.54427 17.8132 6.54643 17.8118 6.54906C16.7892 8.51337 15.0483 10.7723 12.9103 12.9103C10.7723 15.0482 8.51297 16.7892 6.54913 17.8118C5.81631 18.1931 5.23803 18.4152 4.79199 18.5381C5.64415 19.059 6.58042 19.4555 7.57556 19.7034C9.7214 18.5804 12.1547 16.7098 14.4323 14.4322C15.99 12.8744 17.3571 11.2439 18.4251 9.68227C18.4284 9.7878 18.4307 9.89361 18.4307 9.99996C18.4307 15.2587 14.3714 19.5692 9.21537 19.9695C9.47427 19.9896 9.73591 20 10 20C12.5671 20 14.9082 19.0327 16.6788 17.4429C17.3285 16.8594 17.8445 16.1361 18.3236 15.402C18.8672 14.5689 19.3471 13.7058 19.6241 12.7255C19.869 11.8591 20 10.9449 20 10C20 7.49114 19.0761 5.19808 17.55 3.44247C16.7479 2.51976 15.6618 1.86314 14.5736 1.28408C13.1746 0.539529 11.6954 0 10 0V0Z" fill="url(#paint1_linear_503_41)"/>
<path d="M6.1727 10.1457L5.51568 9.48868C4.30152 8.27452 2.33301 8.27452 1.11886 9.48868C0.352151 10.2554 0.0341121 11.3677 0.295642 12.4199C0.931053 14.9766 2.55027 17.1444 4.72831 18.4984C5.86054 19.2022 7.32733 19.0388 8.27003 18.0961C8.75839 17.6077 9.42082 17.3333 10.1115 17.3333C10.9676 17.3333 11.6615 16.6394 11.6615 15.7833C11.6615 14.3959 10.5367 13.271 9.14921 13.271H8.53968C7.52858 13.271 6.7089 12.4513 6.7089 11.4403C6.7089 10.9547 6.51603 10.489 6.1727 10.1457Z" fill="url(#paint2_linear_503_41)"/>
<path d="M8.26988 18.0961C8.75827 17.6077 9.4207 17.3333 10.1114 17.3333C10.9674 17.3333 11.6614 16.6394 11.6614 15.7833C11.6614 15.2921 11.5199 14.8341 11.2762 14.447C9.65144 15.8807 8.01768 17.0471 6.54913 17.8118C5.81748 18.1925 5.23995 18.4145 4.79419 18.5374C5.91697 19.195 7.34533 19.0207 8.26988 18.0961Z" fill="url(#paint3_linear_503_41)"/>
<path d="M16.3023 9.13726C18.4024 9.13726 19.7293 6.86847 18.6874 5.04518C16.965 2.03129 13.7198 0 9.99988 0C9.96851 0 9.93721 0.000156863 9.90592 0.000431373C8.764 0.0110196 7.84302 0.937922 7.84302 2.07992C7.84302 2.63137 8.06208 3.16024 8.452 3.55016L10.3086 5.40679C10.8153 5.91349 11.6369 5.91349 12.1436 5.40679C12.6503 4.90008 13.4718 4.90008 13.9785 5.40679C14.7276 6.15592 15.1485 7.172 15.1485 8.23145C15.1485 8.73169 15.554 9.13722 16.0543 9.13722H16.3023V9.13726Z" fill="url(#paint4_linear_503_41)"/>
<path d="M9.46045 0.0529412C13.3157 0.447412 16.5222 3.03161 17.816 6.54177C17.8146 6.54431 17.8132 6.54647 17.8118 6.5491C17.3842 7.37043 16.8307 8.24333 16.1754 9.13726H16.3024C18.4025 9.13726 19.7295 6.86847 18.6875 5.04518C16.9652 2.03129 13.72 0 10.0001 0C9.96202 0 9.92417 0.000705882 9.88625 0.00113725C9.7401 0.00384314 9.59774 0.0216863 9.46045 0.0529412Z" fill="url(#paint5_linear_503_41)"/>
<path d="M12.8856 10.4412C13.7301 10.4412 14.4147 9.75654 14.4147 8.91202C14.4147 8.06749 13.7301 7.38287 12.8856 7.38287C12.0411 7.38287 11.3564 8.06749 11.3564 8.91202C11.3564 9.75654 12.0411 10.4412 12.8856 10.4412Z" fill="url(#paint6_linear_503_41)"/>
<path d="M2.94126 7.93138C3.63734 7.93138 4.20161 7.3671 4.20161 6.67103C4.20161 5.97495 3.63734 5.41068 2.94126 5.41068C2.24519 5.41068 1.68091 5.97495 1.68091 6.67103C1.68091 7.3671 2.24519 7.93138 2.94126 7.93138Z" fill="url(#paint7_linear_503_41)"/>
<path d="M19.6238 12.7255H18.554C17.3831 12.7255 16.2602 13.1906 15.4323 14.0185L14.3633 15.0875C13.9398 15.5111 14.2398 16.2353 14.8387 16.2353C15.2201 16.2353 15.5293 16.5445 15.5293 16.9258C15.5293 17.5214 16.2351 17.8403 16.6783 17.4424C18.0654 16.197 19.1026 14.5696 19.6238 12.7255Z" fill="url(#paint8_linear_503_41)"/>
<path d="M18.5541 12.7255C18.3832 12.7255 18.2135 12.7357 18.0455 12.7551C17.5773 14.392 16.7026 15.8569 15.5374 17.0341C15.6165 17.5584 16.2628 17.8155 16.6783 17.4424C18.0655 16.197 19.1026 14.5697 19.6239 12.7255H18.5541V12.7255Z" fill="url(#paint9_linear_503_41)"/>
<path d="M19.048 0.951797C18.3626 0.266424 16.9885 -0.24487 14.2876 0.963757C15.1127 1.35548 15.8755 1.85721 16.557 2.45027C16.7857 2.40293 16.9698 2.38521 17.1143 2.38521C17.2358 2.38521 17.329 2.39764 17.3965 2.41486C17.4644 2.43207 17.5065 2.45407 17.5261 2.47368C17.5882 2.53631 17.6767 2.82905 17.5495 3.44266C17.451 3.91807 17.2228 4.58674 16.7527 5.49019C15.7301 7.4545 13.9892 9.71344 11.8512 11.8514C9.71332 13.9893 7.45387 15.7303 5.49002 16.7529C4.58653 17.2231 3.91791 17.4512 3.44249 17.5497C2.82885 17.6769 2.53614 17.5885 2.47347 17.5263C2.41128 17.4636 2.32281 17.1709 2.45002 16.5573C1.85696 15.8757 1.35524 15.1129 0.963513 14.2878C-0.245114 16.9887 0.26618 18.3623 0.951552 19.0482C1.33751 19.4337 1.94112 19.7647 2.87665 19.7647C3.60316 19.7647 4.53057 19.5647 5.71143 19.0362C5.95775 18.9262 6.21508 18.8019 6.48387 18.6618C8.63759 17.5407 11.084 15.6624 13.3731 13.3734C15.6621 11.0843 17.5404 8.63788 18.6615 6.48415C18.8011 6.21537 18.926 5.9585 19.036 5.71219C19.5645 4.53129 19.7644 3.6034 19.7644 2.87642C19.7645 1.94137 19.434 1.33776 19.048 0.951797Z" fill="url(#paint10_linear_503_41)"/>
</g>
<defs>
<linearGradient id="paint0_linear_503_41" x1="-0.466902" y1="10" x2="19.6151" y2="10" gradientUnits="userSpaceOnUse">
<stop stop-color="#01D0FB"/>
<stop offset="0.6075" stop-color="#26A6FE"/>
<stop offset="1" stop-color="#0182FC"/>
</linearGradient>
<linearGradient id="paint1_linear_503_41" x1="4.43415" y1="10" x2="19.8253" y2="10" gradientUnits="userSpaceOnUse">
<stop stop-color="#01BFFA"/>
<stop offset="0.2539" stop-color="#1F9EFC"/>
<stop offset="0.5724" stop-color="#407AFD"/>
<stop offset="0.8326" stop-color="#5464FF"/>
<stop offset="1" stop-color="#5B5CFF"/>
</linearGradient>
<linearGradient id="paint2_linear_503_41" x1="-0.0640055" y1="13.7555" x2="11.5299" y2="13.7555" gradientUnits="userSpaceOnUse">
<stop stop-color="#B0E7C9"/>
<stop offset="0.593" stop-color="#46CC8D"/>
<stop offset="1" stop-color="#0AB69F"/>
</linearGradient>
<linearGradient id="paint3_linear_503_41" x1="4.23533" y1="16.6897" x2="11.0458" y2="16.6897" gradientUnits="userSpaceOnUse">
<stop stop-color="#46CC8D"/>
<stop offset="0.5484" stop-color="#0AB69F"/>
<stop offset="1" stop-color="#01998D"/>
</linearGradient>
<linearGradient id="paint4_linear_503_41" x1="7.09792" y1="4.56863" x2="18.6682" y2="4.56863" gradientUnits="userSpaceOnUse">
<stop stop-color="#B0E7C9"/>
<stop offset="0.593" stop-color="#46CC8D"/>
<stop offset="1" stop-color="#0AB69F"/>
</linearGradient>
<linearGradient id="paint5_linear_503_41" x1="8.82288" y1="4.56863" x2="18.7235" y2="4.56863" gradientUnits="userSpaceOnUse">
<stop stop-color="#46CC8D"/>
<stop offset="0.5484" stop-color="#0AB69F"/>
<stop offset="1" stop-color="#01998D"/>
</linearGradient>
<linearGradient id="paint6_linear_503_41" x1="11.8451" y1="8.91202" x2="15.2841" y2="8.91202" gradientUnits="userSpaceOnUse">
<stop stop-color="#46CC8D"/>
<stop offset="0.5484" stop-color="#0AB69F"/>
<stop offset="1" stop-color="#01998D"/>
</linearGradient>
<linearGradient id="paint7_linear_503_41" x1="1.33342" y1="6.67103" x2="4.72891" y2="6.67103" gradientUnits="userSpaceOnUse">
<stop stop-color="#B0E7C9"/>
<stop offset="0.593" stop-color="#46CC8D"/>
<stop offset="1" stop-color="#0AB69F"/>
</linearGradient>
<linearGradient id="paint8_linear_503_41" x1="13.294" y1="15.1722" x2="18.7127" y2="15.1722" gradientUnits="userSpaceOnUse">
<stop stop-color="#B0E7C9"/>
<stop offset="0.593" stop-color="#46CC8D"/>
<stop offset="1" stop-color="#0AB69F"/>
</linearGradient>
<linearGradient id="paint9_linear_503_41" x1="14.8853" y1="15.1722" x2="18.9418" y2="15.1722" gradientUnits="userSpaceOnUse">
<stop stop-color="#46CC8D"/>
<stop offset="0.5484" stop-color="#0AB69F"/>
<stop offset="1" stop-color="#01998D"/>
</linearGradient>
<linearGradient id="paint10_linear_503_41" x1="-0.235546" y1="10.0001" x2="19.1865" y2="10.0001" gradientUnits="userSpaceOnUse">
<stop stop-color="#FFF9DF"/>
<stop offset="0.593" stop-color="#FFE177"/>
<stop offset="1" stop-color="#FEB137"/>
</linearGradient>
<clipPath id="clip0_503_41">
<rect width="20" height="20" fill="white"/>
</clipPath>
</defs>
</svg>
