<svg width="204" height="103" viewBox="0 0 204 103" fill="none" xmlns="http://www.w3.org/2000/svg">
<g filter="url(#filter0_d_689_5536)">
<circle r="13.5" transform="matrix(-1 0 0 1 47.5 14)" fill="#36C27F"/>
</g>
<path d="M47.6289 16.8877L45.1904 23H42.043L45.04 16.1357C44.3454 15.7061 43.8405 15.1654 43.5254 14.5137C43.2103 13.8548 43.0527 13.0527 43.0527 12.1074C43.0527 8.89909 44.6462 7.29492 47.833 7.29492H51.6143V23H48.6924V16.8877H47.6289ZM48.6924 9.81934H47.9834C47.3174 9.81934 46.8232 9.99121 46.501 10.335C46.1859 10.6715 46.0283 11.2409 46.0283 12.043C46.0283 12.8164 46.1715 13.4001 46.458 13.7939C46.7516 14.1807 47.2458 14.374 47.9404 14.374H48.6924V9.81934Z" fill="white"/>
<path d="M61.0095 3.45351C60.0619 2.54104 58.1621 1.86033 54.428 3.46944C55.5687 3.99096 56.6234 4.65893 57.5656 5.4485C57.8817 5.38548 58.1363 5.36188 58.336 5.36188C58.504 5.36188 58.6329 5.37844 58.7262 5.40136C58.8201 5.42428 58.8782 5.45356 58.9054 5.47967C58.9913 5.56305 59.1137 5.9528 58.9378 6.76972C58.8016 7.40266 58.4861 8.29289 57.8361 9.4957C56.4223 12.1109 54.0154 15.1183 51.0596 17.9647C48.1038 20.811 44.98 23.1289 42.2649 24.4903C41.0157 25.1162 40.0913 25.42 39.434 25.5511C38.5856 25.7205 38.181 25.6027 38.0943 25.5199C38.0083 25.4365 37.886 25.0468 38.0619 24.2299C37.242 23.3225 36.5483 22.3068 36.0067 21.2084C34.3357 24.8042 35.0426 26.633 35.9902 27.5461C36.5238 28.0593 37.3583 28.5 38.6517 28.5C39.6562 28.5 40.9384 28.2338 42.571 27.5302C42.9115 27.3838 43.2673 27.2182 43.6389 27.0317C46.6166 25.5391 49.9989 23.0385 53.1636 19.991C56.3284 16.9434 58.9251 13.6864 60.4751 10.819C60.6682 10.4612 60.8408 10.1192 60.9929 9.79126C61.7236 8.21906 62 6.98373 62 6.01586C62.0001 4.77097 61.5432 3.96736 61.0095 3.45351Z" fill="url(#paint0_linear_689_5536)"/>
<path d="M86.212 6.6V22H82.692V17.908H79.436L76.708 22H72.946L76.158 17.358C75.1167 16.9327 74.3173 16.2947 73.76 15.444C73.2027 14.5787 72.924 13.5447 72.924 12.342C72.924 11.154 73.1953 10.1347 73.738 9.284C74.2807 8.41867 75.0507 7.75867 76.048 7.304C77.0453 6.83467 78.2187 6.6 79.568 6.6H86.212ZM79.656 9.504C78.644 9.504 77.8667 9.73867 77.324 10.208C76.796 10.6773 76.532 11.374 76.532 12.298C76.532 13.1927 76.7887 13.882 77.302 14.366C77.8153 14.85 78.5707 15.092 79.568 15.092H82.692V9.504H79.656ZM91.0383 22.176C90.4369 22.176 89.9309 21.9707 89.5203 21.56C89.1096 21.1493 88.9043 20.636 88.9043 20.02C88.9043 19.3893 89.1096 18.8833 89.5203 18.502C89.9309 18.106 90.4369 17.908 91.0383 17.908C91.6396 17.908 92.1456 18.106 92.5563 18.502C92.9669 18.8833 93.1723 19.3893 93.1723 20.02C93.1723 20.636 92.9669 21.1493 92.5563 21.56C92.1456 21.9707 91.6396 22.176 91.0383 22.176ZM101.79 15.796H99.3261V22H95.7841V6.6H99.3261V12.826H101.878L105.926 6.6H109.688L104.65 14.036L109.842 22H105.794L101.79 15.796ZM118.501 9.988C119.601 9.988 120.598 10.2447 121.493 10.758C122.402 11.2567 123.114 11.968 123.627 12.892C124.14 13.8013 124.397 14.8647 124.397 16.082C124.397 17.2993 124.14 18.37 123.627 19.294C123.114 20.2033 122.402 20.9147 121.493 21.428C120.598 21.9267 119.601 22.176 118.501 22.176C116.99 22.176 115.802 21.6993 114.937 20.746V26.268H111.505V10.164H114.783V11.528C115.634 10.5013 116.873 9.988 118.501 9.988ZM117.907 19.36C118.787 19.36 119.506 19.0667 120.063 18.48C120.635 17.8787 120.921 17.0793 120.921 16.082C120.921 15.0847 120.635 14.2927 120.063 13.706C119.506 13.1047 118.787 12.804 117.907 12.804C117.027 12.804 116.301 13.1047 115.729 13.706C115.172 14.2927 114.893 15.0847 114.893 16.082C114.893 17.0793 115.172 17.8787 115.729 18.48C116.301 19.0667 117.027 19.36 117.907 19.36ZM138.308 16.126C138.308 16.17 138.286 16.478 138.242 17.05H129.288C129.45 17.7833 129.831 18.3627 130.432 18.788C131.034 19.2133 131.782 19.426 132.676 19.426C133.292 19.426 133.835 19.338 134.304 19.162C134.788 18.9713 135.236 18.678 135.646 18.282L137.472 20.262C136.358 21.538 134.73 22.176 132.588 22.176C131.254 22.176 130.073 21.9193 129.046 21.406C128.02 20.878 127.228 20.152 126.67 19.228C126.113 18.304 125.834 17.2553 125.834 16.082C125.834 14.9233 126.106 13.882 126.648 12.958C127.206 12.0193 127.961 11.2933 128.914 10.78C129.882 10.252 130.96 9.988 132.148 9.988C133.307 9.988 134.356 10.2373 135.294 10.736C136.233 11.2347 136.966 11.9533 137.494 12.892C138.037 13.816 138.308 14.894 138.308 16.126ZM132.17 12.584C131.393 12.584 130.74 12.804 130.212 13.244C129.684 13.684 129.362 14.2853 129.244 15.048H135.074C134.957 14.3 134.634 13.706 134.106 13.266C133.578 12.8113 132.933 12.584 132.17 12.584ZM154.098 19.184V24.552H150.908V22H142.592V24.552H139.402V19.184H139.886C140.619 19.1693 141.125 18.7367 141.404 17.886C141.682 17.0353 141.858 15.8253 141.932 14.256L142.086 10.164H152.404V19.184H154.098ZM145.034 14.498C144.99 15.7007 144.894 16.6833 144.748 17.446C144.616 18.2087 144.359 18.788 143.978 19.184H148.972V12.98H145.1L145.034 14.498ZM156.257 10.164H159.667V17.204L165.431 10.164H168.577V22H165.167V14.96L159.425 22H156.257V10.164ZM181.821 12.98H177.817V22H174.407V12.98H170.403V10.164H181.821V12.98ZM189.876 13.948C191.416 13.9627 192.582 14.3073 193.374 14.982C194.166 15.6567 194.562 16.6247 194.562 17.886C194.562 19.206 194.115 20.2253 193.22 20.944C192.325 21.6627 191.057 22.022 189.414 22.022L183.65 22V10.164H187.06V13.948H189.876ZM195.838 10.164H199.248V22H195.838V10.164ZM189.106 19.58C189.766 19.5947 190.272 19.4553 190.624 19.162C190.976 18.8687 191.152 18.4287 191.152 17.842C191.152 17.27 190.976 16.852 190.624 16.588C190.287 16.324 189.781 16.1847 189.106 16.17L187.06 16.148V19.58H189.106Z" fill="#2B3B47"/>
<defs>
<filter id="filter0_d_689_5536" x="0.577911" y="0.5" width="93.8442" height="102.2" filterUnits="userSpaceOnUse" color-interpolation-filters="sRGB">
<feFlood flood-opacity="0" result="BackgroundImageFix"/>
<feColorMatrix in="SourceAlpha" type="matrix" values="0 0 0 0 0 0 0 0 0 0 0 0 0 0 0 0 0 0 127 0" result="hardAlpha"/>
<feOffset dy="41.7776"/>
<feGaussianBlur stdDeviation="16.711"/>
<feColorMatrix type="matrix" values="0 0 0 0 0 0 0 0 0 0 0 0 0 0 0 0 0 0 0.0503198 0"/>
<feBlend mode="normal" in2="BackgroundImageFix" result="effect1_dropShadow_689_5536"/>
<feBlend mode="normal" in="SourceGraphic" in2="effect1_dropShadow_689_5536" result="shape"/>
</filter>
<linearGradient id="paint0_linear_689_5536" x1="34.349" y1="15.5" x2="61.2009" y2="15.5" gradientUnits="userSpaceOnUse">
<stop stop-color="#FFF9DF"/>
<stop offset="0.593" stop-color="#FFE177"/>
<stop offset="1" stop-color="#FEB137"/>
</linearGradient>
</defs>
</svg>
