<svg width="16" height="17" viewBox="0 0 16 17" fill="none" xmlns="http://www.w3.org/2000/svg">
<path d="M11.2933 2.5C12.1873 2.5 13.0473 2.85333 13.68 3.48733C14.3133 4.12 14.6673 4.97333 14.6673 5.86667V11.1333C14.6673 12.9933 13.154 14.5 11.2933 14.5H4.70732C2.84665 14.5 1.33398 12.9933 1.33398 11.1333V5.86667C1.33398 4.00667 2.83998 2.5 4.70732 2.5H11.2933ZM12.0473 5.96667C11.9073 5.95933 11.774 6.00667 11.6733 6.1L8.66732 8.5C8.28065 8.82067 7.72665 8.82067 7.33398 8.5L4.33398 6.1C4.12665 5.94667 3.83998 5.96667 3.66732 6.14667C3.48732 6.32667 3.46732 6.61333 3.61998 6.81333L3.70732 6.9L6.74065 9.26667C7.11398 9.56 7.56665 9.72 8.04065 9.72C8.51332 9.72 8.97398 9.56 9.34665 9.26667L12.354 6.86L12.4073 6.80667C12.5667 6.61333 12.5667 6.33333 12.4 6.14C12.3073 6.04067 12.18 5.98 12.0473 5.96667Z" fill="white"/>
<path d="M11.2933 2.5C12.1873 2.5 13.0473 2.85333 13.68 3.48733C14.3133 4.12 14.6673 4.97333 14.6673 5.86667V11.1333C14.6673 12.9933 13.154 14.5 11.2933 14.5H4.70732C2.84665 14.5 1.33398 12.9933 1.33398 11.1333V5.86667C1.33398 4.00667 2.83998 2.5 4.70732 2.5H11.2933ZM12.0473 5.96667C11.9073 5.95933 11.774 6.00667 11.6733 6.1L8.66732 8.5C8.28065 8.82067 7.72665 8.82067 7.33398 8.5L4.33398 6.1C4.12665 5.94667 3.83998 5.96667 3.66732 6.14667C3.48732 6.32667 3.46732 6.61333 3.61998 6.81333L3.70732 6.9L6.74065 9.26667C7.11398 9.56 7.56665 9.72 8.04065 9.72C8.51332 9.72 8.97398 9.56 9.34665 9.26667L12.354 6.86L12.4073 6.80667C12.5667 6.61333 12.5667 6.33333 12.4 6.14C12.3073 6.04067 12.18 5.98 12.0473 5.96667Z" fill="url(#paint0_radial_1181_8546)"/>
<defs>
<radialGradient id="paint0_radial_1181_8546" cx="0" cy="0" r="1" gradientUnits="userSpaceOnUse" gradientTransform="translate(0.692009 0.851648) rotate(49.7075) scale(21.6105 31.8711)">
<stop offset="0.151042" stop-color="#33A6FF"/>
<stop offset="0.907346" stop-color="#36C27F"/>
</radialGradient>
</defs>
</svg>
