<svg width="20" height="21" viewBox="0 0 20 21" fill="none" xmlns="http://www.w3.org/2000/svg">
<path fill-rule="evenodd" clip-rule="evenodd" d="M13.8824 2.16699C16.6574 2.16699 18.7499 4.43116 18.7499 7.43366V13.157C18.7499 14.6937 18.2066 16.082 17.2191 17.067C16.3333 17.9495 15.1841 18.417 13.8958 18.417H5.68492C4.39909 18.417 3.25075 17.9503 2.36409 17.067C1.37659 16.082 0.833252 14.6937 0.833252 13.157V7.43366C0.833252 4.43116 2.92575 2.16699 5.70075 2.16699H13.8824ZM13.8824 3.41699H5.70075C3.60492 3.41699 2.08325 5.10616 2.08325 7.43366V13.157C2.08325 14.3595 2.49659 15.4337 3.24659 16.1812C3.89325 16.827 4.73742 17.167 5.68742 17.167H13.8824C13.8841 17.1653 13.8908 17.167 13.8958 17.167C14.8466 17.167 15.6899 16.827 16.3366 16.1812C17.0874 15.4337 17.4999 14.3595 17.4999 13.157V7.43366C17.4999 5.10616 15.9783 3.41699 13.8824 3.41699ZM15.1958 7.27433C15.4133 7.54183 15.3724 7.93516 15.1049 8.15349L11.4016 11.1635C10.9333 11.5352 10.3733 11.721 9.81409 11.721C9.25659 11.721 8.70075 11.5368 8.23575 11.1685L4.49825 8.15516C4.22909 7.93849 4.18742 7.54433 4.40325 7.27599C4.62075 7.00849 5.01409 6.96599 5.28242 7.18183L9.01658 10.1918C9.48575 10.5635 10.1466 10.5635 10.6191 10.1885L14.3158 7.18349C14.5841 6.96433 14.9774 7.00599 15.1958 7.27433Z" fill="#8BA1B1"/>
</svg>
