<svg width="371" height="344" viewBox="0 0 371 344" fill="none" xmlns="http://www.w3.org/2000/svg">
<g clip-path="url(#clip0_1166_8602)">
<path d="M185.501 342.879C287.615 342.879 370.396 338.046 370.396 332.085C370.396 326.123 287.615 321.29 185.501 321.29C83.3858 321.29 0.605469 326.123 0.605469 332.085C0.605469 338.046 83.3858 342.879 185.501 342.879Z" fill="#EEF2F4"/>
<path d="M56.5366 173.607C72.0455 161.937 75.1577 139.905 63.4879 124.396C51.8181 108.887 29.7854 105.775 14.2766 117.444C-1.23227 129.114 -4.34445 151.147 7.32534 166.656C18.9951 182.165 41.0278 185.277 56.5366 173.607Z" fill="#FAC600"/>
<path opacity="0.1" d="M63.5914 154.236C64.7822 149.561 64.7785 144.66 63.5809 139.986C62.3833 135.312 60.0301 131.014 56.7376 127.487C53.4451 123.96 49.3189 121.317 44.7382 119.801C40.1574 118.285 35.2692 117.945 30.5226 118.812C25.776 119.678 21.3234 121.724 17.574 124.761C13.8245 127.798 10.8984 131.728 9.06473 136.191C7.23103 140.654 6.54852 145.506 7.07987 150.302C7.61122 155.098 9.3394 159.683 12.1056 163.636C8.98809 159.632 6.95557 154.892 6.20423 149.873C5.4529 144.855 6.00812 139.727 7.81635 134.985C9.62458 130.244 12.6247 126.049 16.5271 122.805C20.4295 119.561 25.1023 117.378 30.0944 116.466C35.0865 115.555 40.2293 115.946 45.0263 117.601C49.8232 119.257 54.1123 122.121 57.4794 125.918C60.8465 129.715 63.1779 134.315 64.2486 139.276C65.3192 144.236 65.0928 149.389 63.5914 154.236Z" fill="black"/>
<path d="M46.2302 150.611L42.7194 158.045C42.5859 158.328 42.3953 158.58 42.1597 158.786C41.924 158.991 41.6484 159.145 41.3501 159.239C41.0533 159.352 40.7365 159.402 40.4194 159.387C40.1024 159.372 39.7918 159.291 39.507 159.151L32.9681 156.062L30.493 161.328C30.3644 161.614 30.1779 161.87 29.9452 162.08C29.7125 162.29 29.4388 162.449 29.1414 162.548C28.8492 162.654 28.5389 162.701 28.2285 162.686C27.9181 162.671 27.6138 162.594 27.3333 162.46C27.0422 162.33 26.7802 162.142 26.5631 161.909C26.346 161.675 26.1781 161.4 26.0694 161.1C25.9561 160.807 25.9046 160.493 25.9182 160.179C25.9318 159.865 26.0102 159.557 26.1484 159.274L28.6498 154.008L22.1636 150.945C21.5971 150.673 21.1605 150.189 20.9485 149.598C20.7366 149.006 20.7664 148.355 21.0314 147.785C21.2996 147.218 21.7819 146.78 22.3727 146.567C22.9634 146.355 23.6143 146.386 24.1824 146.653L39.3578 153.815L40.8147 150.725L25.7095 143.537C25.4242 143.408 25.1677 143.223 24.9551 142.993C24.7426 142.763 24.5782 142.493 24.4719 142.198C24.3655 141.904 24.3193 141.591 24.3359 141.278C24.3525 140.965 24.4316 140.659 24.5685 140.377L28.0793 132.97C28.2103 132.686 28.3964 132.431 28.6269 132.22C28.8573 132.009 29.1276 131.846 29.4217 131.741C29.7159 131.635 30.0281 131.59 30.3401 131.606C30.6521 131.623 30.9577 131.701 31.239 131.837L37.6726 134.874L40.1477 129.608C40.2802 129.317 40.4709 129.057 40.7081 128.843C40.9453 128.629 41.2239 128.466 41.5267 128.364C41.8295 128.262 42.15 128.223 42.4684 128.25C42.7867 128.277 43.0962 128.368 43.3776 128.52C43.6582 128.646 43.9096 128.83 44.1165 129.057C44.3233 129.285 44.4811 129.554 44.5801 129.845C44.6898 130.138 44.7385 130.45 44.7235 130.762C44.7084 131.075 44.6297 131.381 44.4923 131.662L42.0172 136.928L48.6087 140.035C48.8975 140.167 49.1563 140.356 49.3691 140.592C49.5819 140.827 49.7443 141.104 49.8463 141.404C49.964 141.694 50.0201 142.005 50.011 142.318C50.002 142.631 49.9279 142.939 49.7936 143.221C49.511 143.798 49.0144 144.242 48.4096 144.458C47.8047 144.675 47.1393 144.646 46.5549 144.38L31.3795 137.218L29.9401 140.281L45.054 147.417C45.3439 147.548 45.6039 147.737 45.8181 147.973C46.0324 148.208 46.1965 148.485 46.3004 148.786C46.4188 149.078 46.4738 149.391 46.4617 149.706C46.4496 150.021 46.3707 150.329 46.2302 150.611Z" fill="#FAFAFA"/>
<path d="M164.704 72.6496C169.122 41.3674 147.345 12.4261 116.063 8.00742C84.7807 3.58872 55.8394 25.3659 51.4207 56.6481C47.002 87.9303 68.7792 116.872 100.061 121.29C131.344 125.709 160.285 103.932 164.704 72.6496Z" fill="#FAC600"/>
<path opacity="0.1" d="M150.528 42.2349C146.516 35.4826 140.872 29.8469 134.114 25.8455C127.356 21.8442 119.7 19.6057 111.851 19.3357C104.002 19.0657 96.2107 20.7729 89.1936 24.3004C82.1764 27.8279 76.1584 33.0625 71.6926 39.5232C67.2269 45.9839 64.4566 53.4634 63.6364 61.2744C62.8162 69.0853 63.9723 76.9772 66.9986 84.2246C70.0249 91.472 74.8243 97.8425 80.9557 102.751C87.087 107.659 94.3536 110.947 102.088 112.314C93.8909 111.293 86.0955 108.177 79.4543 103.265C72.8131 98.3534 67.5503 91.8124 64.1741 84.2737C60.7979 76.7351 59.4223 68.4532 60.1801 60.2279C60.9379 52.0026 63.8035 44.1115 68.5003 37.3166C73.1971 30.5217 79.5664 25.0525 86.9932 21.4369C94.4201 17.8213 102.654 16.1816 110.899 16.676C119.144 17.1704 127.123 19.7822 134.065 24.2592C141.006 28.7363 146.676 34.9275 150.528 42.2349Z" fill="black"/>
<path d="M126.373 58.045L130.888 70.6424C131.06 71.1214 131.131 71.6308 131.096 72.1385C131.061 72.6461 130.922 73.1411 130.686 73.5922C130.474 74.0633 130.167 74.4857 129.785 74.8332C129.402 75.1808 128.953 75.4461 128.464 75.6127L117.382 79.5828L120.594 88.4929C120.775 88.9699 120.855 89.4793 120.829 89.9888C120.803 90.4983 120.671 90.9969 120.443 91.4529C120.228 91.9111 119.925 92.3222 119.55 92.6621C119.176 93.002 118.737 93.264 118.26 93.4329C117.775 93.6179 117.258 93.7034 116.739 93.6843C116.22 93.6652 115.71 93.5419 115.24 93.3218C114.772 93.1146 114.352 92.8129 114.006 92.4357C113.66 92.0585 113.396 91.6138 113.23 91.1296L110.047 82.1892L99.0562 86.129C98.0914 86.4684 97.0317 86.4138 96.1069 85.9769C95.1822 85.54 94.4669 84.7562 94.1163 83.7954C93.7717 82.8335 93.8228 81.7742 94.2584 80.8499C94.694 79.9257 95.4785 79.212 96.4398 78.8656L122.15 69.6423L120.271 64.4094L94.6113 73.5215C94.1342 73.7012 93.626 73.7835 93.1166 73.7635C92.6073 73.7435 92.1071 73.6216 91.6457 73.405C91.1842 73.1884 90.7708 72.8815 90.43 72.5024C90.0891 72.1233 89.8277 71.6798 89.6612 71.198L85.1759 58.6309C85 58.1536 84.9209 57.6461 84.9433 57.138C84.9658 56.6299 85.0892 56.1313 85.3065 55.6714C85.5237 55.2115 85.8304 54.7995 86.2087 54.4595C86.5869 54.1195 87.0291 53.8582 87.5094 53.6909L98.4097 49.7814L95.1972 40.8713C95.0151 40.3841 94.9348 39.8648 94.9615 39.3454C94.9881 38.826 95.1211 38.3177 95.3522 37.8518C95.5832 37.3858 95.9074 36.9723 96.3048 36.6368C96.7021 36.3012 97.1641 36.0508 97.6621 35.901C98.1309 35.724 98.631 35.6453 99.1315 35.6696C99.632 35.6939 100.122 35.8208 100.572 36.0424C101.035 36.2533 101.45 36.5565 101.793 36.9334C102.135 37.3103 102.396 37.7531 102.562 38.2346L105.774 47.1447L116.937 43.1342C117.421 42.9534 117.937 42.8735 118.453 42.8996C118.969 42.9256 119.474 43.057 119.937 43.2857C120.407 43.4839 120.829 43.7776 121.179 44.148C121.529 44.5185 121.797 44.9576 121.968 45.4375C122.307 46.4267 122.246 47.5091 121.799 48.4543C121.352 49.3995 120.553 50.133 119.574 50.4986L93.8637 59.7219L95.7326 64.9043L121.342 55.7215C121.827 55.5393 122.344 55.458 122.861 55.4823C123.379 55.5066 123.886 55.6361 124.352 55.8629C124.824 56.0625 125.249 56.3603 125.597 56.7365C125.945 57.1127 126.21 57.5588 126.373 58.045Z" fill="#FAFAFA"/>
<path d="M45.5669 306.08H44.6133V316.846H45.5669V306.08Z" fill="#57B3FF"/>
<path opacity="0.1" d="M45.5669 306.08H44.6133V316.846H45.5669V306.08Z" fill="#536D82"/>
<path d="M326.385 220.789H325.432V235.541H326.385V220.789Z" fill="#57B3FF"/>
<path d="M326.385 243.275H325.432V251.276H326.385V243.275Z" fill="#57B3FF"/>
<path opacity="0.1" d="M326.385 220.789H325.432V235.541H326.385V220.789Z" fill="#536D82"/>
<path opacity="0.1" d="M326.385 243.275H325.432V251.276H326.385V243.275Z" fill="#536D82"/>
<path d="M308.706 156.811H62.303C54.3767 156.811 47.9512 163.237 47.9512 171.163V315.396C47.9512 323.323 54.3767 329.748 62.303 329.748H308.706C316.632 329.748 323.058 323.323 323.058 315.396V171.163C323.058 163.237 316.632 156.811 308.706 156.811Z" fill="#288FE6"/>
<path opacity="0.2" d="M278.525 217.032C288.357 217.032 296.328 209.061 296.328 199.228C296.328 189.395 288.357 181.424 278.525 181.424C268.692 181.424 260.721 189.395 260.721 199.228C260.721 209.061 268.692 217.032 278.525 217.032Z" fill="#536D82"/>
<path d="M255.542 217.032C265.375 217.032 273.346 209.061 273.346 199.228C273.346 189.395 265.375 181.424 255.542 181.424C245.709 181.424 237.738 189.395 237.738 199.228C237.738 209.061 245.709 217.032 255.542 217.032Z" fill="#57B3FF"/>
<path d="M123.266 217.032H80.8591C77.4463 217.032 74.6797 219.798 74.6797 223.211V250.932C74.6797 254.345 77.4463 257.112 80.8591 257.112H123.266C126.679 257.112 129.445 254.345 129.445 250.932V223.211C129.445 219.798 126.679 217.032 123.266 217.032Z" fill="#57B3FF"/>
<path opacity="0.3" d="M123.266 217.032H80.8591C77.4463 217.032 74.6797 219.798 74.6797 223.211V250.932C74.6797 254.345 77.4463 257.112 80.8591 257.112H123.266C126.679 257.112 129.445 254.345 129.445 250.932V223.211C129.445 219.798 126.679 217.032 123.266 217.032Z" fill="white"/>
<path d="M152.609 177.056H79.0568C76.6394 177.056 74.6797 179.014 74.6797 181.429C74.6797 183.844 76.6394 185.801 79.0568 185.801H152.609C155.026 185.801 156.986 183.844 156.986 181.429C156.986 179.014 155.026 177.056 152.609 177.056Z" fill="#57B3FF"/>
<path opacity="0.3" d="M152.609 177.056H79.0568C76.6394 177.056 74.6797 179.014 74.6797 181.429C74.6797 183.844 76.6394 185.801 79.0568 185.801H152.609C155.026 185.801 156.986 183.844 156.986 181.429C156.986 179.014 155.026 177.056 152.609 177.056Z" fill="white"/>
<path d="M114.178 277.004H81.0975C77.553 277.004 74.6797 279.877 74.6797 283.422V289.42C74.6797 292.965 77.553 295.838 81.0975 295.838H114.178C117.723 295.838 120.596 292.965 120.596 289.42V283.422C120.596 279.877 117.723 277.004 114.178 277.004Z" fill="#57B3FF"/>
<path opacity="0.3" d="M114.178 277.004H81.0975C77.553 277.004 74.6797 279.877 74.6797 283.422V289.42C74.6797 292.965 77.553 295.838 81.0975 295.838H114.178C117.723 295.838 120.596 292.965 120.596 289.42V283.422C120.596 279.877 117.723 277.004 114.178 277.004Z" fill="white"/>
<path d="M172.75 277.004H139.67C136.125 277.004 133.252 279.877 133.252 283.422V289.42C133.252 292.965 136.125 295.838 139.67 295.838H172.75C176.295 295.838 179.168 292.965 179.168 289.42V283.422C179.168 279.877 176.295 277.004 172.75 277.004Z" fill="#57B3FF"/>
<path opacity="0.3" d="M172.75 277.004H139.67C136.125 277.004 133.252 279.877 133.252 283.422V289.42C133.252 292.965 136.125 295.838 139.67 295.838H172.75C176.295 295.838 179.168 292.965 179.168 289.42V283.422C179.168 279.877 176.295 277.004 172.75 277.004Z" fill="white"/>
<path d="M231.33 277.004H198.25C194.705 277.004 191.832 279.877 191.832 283.422V289.42C191.832 292.965 194.705 295.838 198.25 295.838H231.33C234.875 295.838 237.748 292.965 237.748 289.42V283.422C237.748 279.877 234.875 277.004 231.33 277.004Z" fill="#57B3FF"/>
<path opacity="0.3" d="M231.33 277.004H198.25C194.705 277.004 191.832 279.877 191.832 283.422V289.42C191.832 292.965 194.705 295.838 198.25 295.838H231.33C234.875 295.838 237.748 292.965 237.748 289.42V283.422C237.748 279.877 234.875 277.004 231.33 277.004Z" fill="white"/>
<path d="M289.901 277.004H256.82C253.276 277.004 250.402 279.877 250.402 283.422V289.42C250.402 292.965 253.276 295.838 256.82 295.838H289.901C293.445 295.838 296.319 292.965 296.319 289.42V283.422C296.319 279.877 293.445 277.004 289.901 277.004Z" fill="#57B3FF"/>
<path opacity="0.3" d="M289.901 277.004H256.82C253.276 277.004 250.402 279.877 250.402 283.422V289.42C250.402 292.965 253.276 295.838 256.82 295.838H289.901C293.445 295.838 296.319 292.965 296.319 289.42V283.422C296.319 279.877 293.445 277.004 289.901 277.004Z" fill="white"/>
<path d="M226.505 94.2356C224.245 100.615 221.737 106.785 219.076 112.955C216.383 119.229 213.294 125.325 209.826 131.207C209.359 131.96 208.873 132.714 208.367 133.467L207.995 134.03L207.49 134.726C207.146 135.164 206.822 135.546 206.536 135.918C205.335 137.257 204.061 138.531 202.722 139.732C200.176 142.088 197.582 144.224 194.959 146.331C189.695 150.508 184.317 154.418 178.748 158.127L175.42 153.998L189.438 140.18C191.755 137.882 194.053 135.565 196.199 133.248C197.258 132.094 198.287 130.911 199.136 129.824C199.346 129.557 199.527 129.29 199.689 129.061L199.89 128.737L200.166 128.241C200.538 127.583 200.929 126.944 201.291 126.267C204.209 120.784 206.784 114.824 209.264 108.778C211.743 102.732 214.127 96.6387 216.416 90.5928L226.505 94.2356Z" fill="#FFAB9F"/>
<path d="M229.184 89.6392C231.349 95.9712 218.627 114.595 218.627 114.595L206.479 107.834C208.549 102.023 210.995 96.3529 213.802 90.8598C218.055 82.8114 226.809 82.6874 229.184 89.6392Z" fill="#288FE6"/>
<path opacity="0.7" d="M229.184 89.6392C231.349 95.9712 218.627 114.595 218.627 114.595L206.479 107.834C208.549 102.023 210.995 96.3529 213.802 90.8598C218.055 82.8114 226.809 82.6874 229.184 89.6392Z" fill="white"/>
<path opacity="0.31" d="M229.365 90.4307C226.637 89.1242 223.5 90.2209 220.191 95.4467C216.882 100.672 214.069 109.398 213.764 111.887L218.637 114.586C218.637 114.586 230.376 97.3825 229.365 90.4307Z" fill="#288FE6"/>
<path d="M220.955 84.7949C220.955 84.7949 211.877 106.146 218.418 145.902H256.229C256.696 140.095 254.026 111.782 260.577 84.4325C256.415 83.6222 252.204 83.087 247.971 82.8304C242.619 82.5251 237.254 82.5251 231.902 82.8304C228.209 83.2055 224.549 83.8622 220.955 84.7949Z" fill="#288FE6"/>
<path opacity="0.7" d="M220.955 84.7949C220.955 84.7949 211.877 106.146 218.418 145.902H256.229C256.696 140.095 254.026 111.782 260.577 84.4325C256.415 83.6222 252.204 83.087 247.971 82.8304C242.619 82.5251 237.254 82.5251 231.902 82.8304C228.209 83.2055 224.549 83.8622 220.955 84.7949Z" fill="white"/>
<path d="M269.616 315.292L264.019 320.308L253.348 309.198L258.955 304.182L269.616 315.292Z" fill="#FFAB9F"/>
<path d="M250.421 325.724H243.355L242.439 309.36H249.506L250.421 325.724Z" fill="#FFAB9F"/>
<path d="M253.357 309.198L258.85 314.929L264.457 309.904L258.965 304.182L253.357 309.198Z" fill="#FF7765"/>
<path d="M249.506 309.36H242.439L242.916 317.8H249.982L249.506 309.36Z" fill="#FF7765"/>
<path d="M218.418 145.902C218.418 145.902 210.97 197.454 208.434 225.509C206.393 248.024 255.074 315.148 255.074 315.148L264.487 306.289C264.487 306.289 228.936 246.107 231.673 221.046C234.324 196.777 243.307 145.873 243.307 145.873L218.418 145.902Z" fill="#288FE6"/>
<path opacity="0.7" d="M218.418 145.902C218.418 145.902 210.97 197.454 208.434 225.509C206.393 248.024 255.074 315.148 255.074 315.148L264.487 306.289C264.487 306.289 228.936 246.107 231.673 221.046C234.324 196.777 243.307 145.873 243.307 145.873L218.418 145.902Z" fill="#536D82"/>
<path opacity="0.2" d="M231.674 221.075C233.037 208.573 236.089 188.986 238.711 172.946C237.338 170.257 233.486 164.812 233.486 164.812C230.034 176.742 222.529 221.714 233.238 282.449C244.395 300.434 255.075 315.177 255.075 315.177L256.534 291.985C246.226 272.589 229.776 238.402 231.674 221.075Z" fill="#536D82"/>
<path d="M231.863 145.902C231.863 145.902 231.196 199.924 232.34 220.169C233.589 242.331 239.883 315.768 239.883 315.768H252.833C252.833 315.768 252.442 244.124 253.205 222.191C254.054 198.351 256.247 145.902 256.247 145.902H231.863Z" fill="#288FE6"/>
<path opacity="0.7" d="M231.863 145.902C231.863 145.902 231.196 199.924 232.34 220.169C233.589 242.331 239.883 315.768 239.883 315.768H252.833C252.833 315.768 252.442 244.124 253.205 222.191C254.054 198.351 256.247 145.902 256.247 145.902H231.863Z" fill="#536D82"/>
<path d="M242.983 324.913H250.927C251.059 324.908 251.188 324.955 251.287 325.044C251.385 325.134 251.444 325.258 251.451 325.39L251.842 331.674C251.843 331.839 251.812 332.001 251.751 332.153C251.689 332.305 251.598 332.444 251.483 332.561C251.368 332.678 251.231 332.771 251.08 332.834C250.929 332.898 250.767 332.932 250.602 332.933C247.837 332.886 246.512 332.723 243.021 332.723C240.876 332.723 231.74 332.952 228.774 332.952C225.809 332.952 225.914 330.015 227.144 329.748C232.78 328.556 239.77 326.887 241.772 325.343C242.117 325.07 242.543 324.919 242.983 324.913Z" fill="#2B3B47"/>
<path d="M262.475 318.295L269.284 313.709C269.395 313.62 269.533 313.572 269.675 313.572C269.817 313.572 269.955 313.62 270.066 313.709L275.273 318.963C275.374 319.078 275.449 319.215 275.492 319.362C275.535 319.51 275.545 319.665 275.522 319.817C275.498 319.969 275.441 320.114 275.355 320.242C275.27 320.369 275.157 320.476 275.025 320.555C270.676 323.903 267.539 326.43 265.06 329.214C262.199 332.466 260.654 332.933 253.979 332.933C250.889 332.933 249.144 330.33 250.403 329.929C261.522 326.411 258.546 324.875 261.255 319.716C261.537 319.149 261.957 318.66 262.475 318.295Z" fill="#2B3B47"/>
<path d="M177.022 153.111L169.65 153.369L171.195 159.148C171.195 159.148 178.9 159.834 179.587 157.507L177.022 153.111Z" fill="#FFAB9F"/>
<path d="M161.697 156.811L166.866 159.825L171.195 159.148L169.65 153.369L161.697 156.811Z" fill="#FFAB9F"/>
<path opacity="0.31" d="M252.127 91.184C251.345 95.6851 252.385 106.442 256.247 118.896C256.549 108.226 257.791 97.6027 259.957 87.1503V87.0931C257.477 86.8451 252.881 86.9595 252.127 91.184Z" fill="#288FE6"/>
<path d="M247.007 64.731C245.815 69.8995 244.47 79.3784 247.96 82.8495C247.96 82.8495 246.453 87.1312 236.841 87.1312C226.275 87.1312 231.892 82.8495 231.892 82.8495C237.709 81.4763 237.709 77.1946 236.841 73.1799L247.007 64.731Z" fill="#FFAB9F"/>
<path d="M236.574 87.1121L233.713 90.1541L235.115 93.0912L237.394 93.1961L239.339 90.3925L236.574 87.1121Z" fill="#288FE6"/>
<path d="M242.869 68.1735L236.852 73.1513C237.068 74.0914 237.202 75.0487 237.252 76.0121C239.464 75.6974 242.573 73.2753 242.888 70.9675C243.056 70.0432 243.05 69.0954 242.869 68.1735Z" fill="#FF7765"/>
<path d="M234.467 47.2036C230.853 48.4338 227.963 58.0175 232.178 60.5541C236.393 63.0907 241.333 44.8673 234.467 47.2036Z" fill="#2B3B47"/>
<path d="M249.267 59.3144C247.111 65.9897 246.196 70.0235 241.847 72.7603C240.445 73.6619 238.822 74.1628 237.155 74.2088C235.488 74.2548 233.84 73.8441 232.39 73.0212C230.94 72.1983 229.742 70.9946 228.926 69.5401C228.111 68.0856 227.708 66.4358 227.763 64.7691C227.848 58.3513 231.358 48.4719 238.748 47.2322C240.341 46.9248 241.987 47.0412 243.52 47.5697C245.054 48.0983 246.422 49.0205 247.487 50.2441C248.552 51.4676 249.277 52.9495 249.59 54.5413C249.902 56.1332 249.79 57.7792 249.267 59.3144Z" fill="#FFAB9F"/>
<path d="M254.607 48.1572C252.452 53.3639 257.468 49.0155 256.171 55.1948C255.332 59.2191 248.066 68.8601 245.262 67.9827C242.458 67.1054 242.487 60.268 246.063 55.4333C248.123 52.6583 243.669 49.5113 233.666 49.8451C223.663 50.1789 217.617 44.5526 230.91 40.4235C230.91 40.4235 226.009 43.2843 228.917 44.2379C233.037 45.7732 258.927 37.7248 254.607 48.1572Z" fill="#2B3B47"/>
<path d="M252.701 50.5412C252.596 50.5412 254.942 49.9595 256.191 45.7732C256.191 45.8399 255.781 52.0098 252.701 50.5412Z" fill="#2B3B47"/>
<path d="M233.98 41.3484C227.829 43.2557 230.375 45.4013 232.921 45.9353L238.757 43.6466C229.889 44.8196 233.98 41.3484 233.98 41.3484Z" fill="#2B3B47"/>
<path d="M250.449 67.4678C249.171 68.7107 247.464 69.417 245.681 69.4418C243.326 69.4418 242.821 67.2103 244.089 65.3413C245.214 63.6629 247.789 61.6413 249.868 62.5472C251.947 63.4531 252.013 65.9325 250.449 67.4678Z" fill="#FFAB9F"/>
<path d="M238.406 58.9425C238.263 59.4956 237.853 59.8962 237.453 59.8008C237.052 59.7054 236.909 59.2 237.052 58.6469C237.195 58.0938 237.605 57.6933 238.006 57.7982C238.406 57.9031 238.549 58.3894 238.406 58.9425Z" fill="#2B3B47"/>
<path d="M232.111 57.5598C231.968 58.1129 231.558 58.5134 231.158 58.418C230.757 58.3227 230.614 57.8268 230.757 57.2737C230.9 56.7206 231.301 56.3201 231.711 56.4155C232.121 56.5108 232.226 57.0067 232.111 57.5598Z" fill="#2B3B47"/>
<path d="M234.037 58.275C232.953 59.819 231.67 61.2136 230.223 62.4232C230.541 62.7771 230.933 63.057 231.372 63.2431C231.81 63.4293 232.283 63.5172 232.759 63.5008L234.037 58.275Z" fill="#FF523A"/>
<path d="M235.087 65.5129C234.693 65.5124 234.299 65.4676 233.915 65.3794C233.872 65.3681 233.836 65.3411 233.813 65.3039C233.79 65.2666 233.782 65.222 233.791 65.1791C233.802 65.1368 233.829 65.1004 233.866 65.0774C233.903 65.0543 233.948 65.0464 233.991 65.0552C234.693 65.2115 235.422 65.207 236.122 65.0418C236.822 64.8767 237.476 64.5552 238.034 64.1015C238.066 64.0707 238.109 64.0534 238.153 64.0534C238.198 64.0534 238.241 64.0707 238.273 64.1015C238.303 64.1335 238.321 64.1763 238.321 64.2207C238.321 64.2652 238.303 64.3079 238.273 64.3399C237.387 65.1022 236.256 65.5188 235.087 65.5129Z" fill="#2B3B47"/>
<path d="M240.903 57.35C240.838 57.3511 240.774 57.3326 240.72 57.2969C240.665 57.2612 240.623 57.2099 240.598 57.1498C240.441 56.7672 240.195 56.428 239.88 56.1607C239.564 55.8935 239.189 55.7061 238.786 55.6144C238.742 55.6086 238.7 55.5941 238.661 55.5716C238.623 55.5492 238.59 55.5193 238.563 55.4838C238.536 55.4483 238.517 55.4078 238.506 55.3648C238.495 55.3217 238.493 55.2769 238.5 55.233C238.514 55.1452 238.562 55.0663 238.633 55.0129C238.704 54.9596 238.793 54.9359 238.881 54.9469C239.395 55.0516 239.876 55.28 240.281 55.6124C240.686 55.9447 241.005 56.371 241.208 56.8541C241.227 56.894 241.237 56.9373 241.239 56.9814C241.24 57.0255 241.233 57.0694 241.217 57.1104C241.201 57.1515 241.176 57.1888 241.145 57.2202C241.114 57.2515 241.077 57.2763 241.037 57.2928C240.997 57.3214 240.951 57.341 240.903 57.35Z" fill="#2B3B47"/>
<path d="M229.985 54.8229C229.908 54.8223 229.834 54.7954 229.775 54.7467C229.706 54.6891 229.663 54.607 229.654 54.5179C229.645 54.4289 229.671 54.3399 229.727 54.2698C230.063 53.8518 230.491 53.5166 230.977 53.2901C231.463 53.0636 231.995 52.9518 232.531 52.9634C232.575 52.967 232.617 52.9793 232.657 52.9994C232.696 53.0196 232.73 53.0474 232.759 53.0811C232.787 53.1147 232.809 53.1537 232.822 53.1957C232.835 53.2377 232.84 53.2819 232.836 53.3258C232.834 53.3701 232.822 53.4136 232.802 53.4533C232.783 53.4931 232.755 53.5284 232.721 53.557C232.687 53.5856 232.647 53.6069 232.605 53.6197C232.562 53.6324 232.518 53.6362 232.474 53.6309C232.045 53.6264 231.62 53.7204 231.234 53.9055C230.847 54.0907 230.508 54.3621 230.242 54.699C230.212 54.7379 230.172 54.7694 230.128 54.7909C230.083 54.8123 230.034 54.8233 229.985 54.8229Z" fill="#2B3B47"/>
<path d="M262.407 89.3054C263.151 90.4593 263.771 91.4796 264.4 92.5858C265.03 93.692 265.631 94.7601 266.222 95.8663C267.385 98.0691 268.482 100.32 269.483 102.618C271.583 107.323 273.16 112.244 274.184 117.294L274.28 117.78L274.327 118.019L274.394 118.419C274.475 118.952 274.517 119.491 274.518 120.031C274.509 120.934 274.413 121.835 274.232 122.72C273.909 124.18 273.443 125.605 272.84 126.973C271.769 129.371 270.493 131.671 269.025 133.848C266.252 137.989 263.097 141.861 259.604 145.416L255.456 142.088C257.763 138.063 260.061 133.887 261.988 129.796C262.935 127.839 263.744 125.819 264.41 123.75C264.682 122.887 264.867 121.999 264.963 121.099C264.996 120.804 264.996 120.507 264.963 120.212C264.963 120.126 264.963 120.05 264.906 120.04C264.849 120.031 264.906 120.04 264.906 119.993L264.849 119.802L264.734 119.411C264.132 117.307 263.415 115.238 262.589 113.212C261.749 111.143 260.815 109.083 259.833 107.033C258.85 104.983 257.792 102.961 256.705 100.939C256.171 99.9286 255.608 98.9273 255.046 97.9356L253.367 95.0748L262.407 89.3054Z" fill="#FFAB9F"/>
<path d="M240.485 326.134C240.009 326.182 239.532 326.049 239.15 325.762C239.042 325.643 238.966 325.498 238.929 325.341C238.893 325.184 238.896 325.021 238.94 324.866C238.961 324.761 239.008 324.664 239.076 324.582C239.144 324.501 239.232 324.438 239.331 324.398C240.199 324.055 242.192 325.428 242.42 325.581C242.449 325.598 242.471 325.625 242.483 325.656C242.495 325.687 242.496 325.721 242.487 325.753C242.482 325.785 242.468 325.815 242.446 325.838C242.424 325.862 242.395 325.879 242.363 325.886C241.747 326.034 241.118 326.117 240.485 326.134ZM239.655 324.675C239.589 324.664 239.521 324.664 239.455 324.675C239.406 324.692 239.364 324.723 239.332 324.764C239.299 324.804 239.279 324.853 239.274 324.904C239.239 325.004 239.231 325.111 239.251 325.215C239.271 325.319 239.319 325.415 239.388 325.495C239.712 325.819 240.637 325.858 241.906 325.61C241.231 325.142 240.463 324.826 239.655 324.685V324.675Z" fill="white"/>
<path d="M242.324 325.896H242.238C241.533 325.476 240.484 323.988 240.646 323.226C240.674 323.086 240.748 322.96 240.858 322.868C240.967 322.776 241.104 322.724 241.246 322.72C241.372 322.704 241.5 322.716 241.621 322.756C241.741 322.795 241.851 322.861 241.943 322.949C242.658 323.645 242.496 325.676 242.496 325.762C242.492 325.791 242.482 325.818 242.465 325.841C242.448 325.864 242.426 325.883 242.4 325.896H242.324ZM241.37 323.035H241.294C241.056 323.035 240.999 323.178 240.979 323.273C240.875 323.779 241.571 324.894 242.181 325.409C242.269 324.636 242.109 323.854 241.723 323.178C241.675 323.131 241.619 323.095 241.556 323.07C241.494 323.045 241.428 323.033 241.361 323.035H241.37Z" fill="white"/>
<path d="M257.897 322.129C257.72 322.134 257.545 322.102 257.382 322.034C257.256 321.983 257.144 321.903 257.056 321.8C256.968 321.697 256.907 321.574 256.876 321.442C256.852 321.362 256.849 321.277 256.867 321.195C256.886 321.113 256.925 321.037 256.981 320.975C257.62 320.203 260.967 320.431 261.349 320.46C261.384 320.461 261.418 320.474 261.446 320.496C261.474 320.519 261.493 320.55 261.501 320.584C261.509 320.618 261.505 320.654 261.492 320.687C261.478 320.719 261.455 320.747 261.425 320.765C260.36 321.467 259.157 321.932 257.897 322.129ZM259.918 320.737C258.745 320.737 257.515 320.851 257.239 321.185C257.223 321.211 257.214 321.24 257.214 321.271C257.214 321.301 257.223 321.331 257.239 321.356C257.255 321.439 257.291 321.516 257.344 321.581C257.397 321.646 257.466 321.697 257.544 321.728C258.078 321.948 259.279 321.585 260.796 320.775L259.918 320.737Z" fill="white"/>
<path d="M261.339 320.794C260.386 320.794 258.24 320.06 258.078 319.297C258.078 319.106 258.078 318.839 258.536 318.62C260.176 317.847 261.444 320.441 261.502 320.527C261.513 320.554 261.519 320.583 261.519 320.613C261.519 320.642 261.513 320.671 261.502 320.698C261.486 320.728 261.462 320.752 261.434 320.769C261.405 320.786 261.373 320.794 261.339 320.794ZM259.137 318.82C258.975 318.818 258.815 318.854 258.669 318.925C258.469 319.02 258.374 319.125 258.393 319.22C258.488 319.669 260.033 320.298 261.044 320.431C260.739 319.917 260.004 318.82 259.137 318.82Z" fill="white"/>
<path d="M257.343 140.543L250.344 139.313L253.958 147.466C253.958 147.466 260.376 147.466 260.09 144.109L257.343 140.543Z" fill="#FFAB9F"/>
<path d="M245.053 143.413L248.362 149.993L253.921 147.466L250.307 139.313L245.053 143.413Z" fill="#FFAB9F"/>
<path d="M265.058 305.784L254.502 315.721L251.098 312.068L263.18 301.064L265.058 305.784Z" fill="#288FE6"/>
<path opacity="0.6" d="M265.058 305.784L254.502 315.721L251.098 312.068L263.18 301.064L265.058 305.784Z" fill="white"/>
<path d="M253.348 315.768H239.358L238.586 310.848L254.025 311.62L253.348 315.768Z" fill="#288FE6"/>
<path opacity="0.6" d="M253.348 315.768H239.358L238.586 310.848L254.025 311.62L253.348 315.768Z" fill="white"/>
<path d="M260.577 84.4325C267.252 85.3861 274.09 108.578 274.09 108.578L259.786 116.512C259.786 116.512 253.978 105.488 251.203 97.3062C248.295 88.7332 253.435 83.3835 260.577 84.4325Z" fill="#288FE6"/>
<path opacity="0.7" d="M260.577 84.4325C267.252 85.3861 274.09 108.578 274.09 108.578L259.786 116.512C259.786 116.512 253.978 105.488 251.203 97.3062C248.295 88.7332 253.435 83.3835 260.577 84.4325Z" fill="white"/>
<path opacity="0.2" d="M236.574 87.1121L233.713 90.1541L235.115 93.0912L237.394 93.1961L239.339 90.3925L236.574 87.1121Z" fill="#536D82"/>
<path d="M235.364 92.5668C235.364 92.5668 229.938 115.043 229.728 119.716C229.432 126.143 232.121 137.119 232.121 137.119C232.121 137.119 235.936 127.993 236.718 119.516C237.5 111.038 236.918 97.3253 237.271 92.5668H235.364Z" fill="#288FE6"/>
<path opacity="0.2" d="M235.364 92.5668C235.364 92.5668 229.938 115.043 229.728 119.716C229.432 126.143 232.121 137.119 232.121 137.119C232.121 137.119 235.936 127.993 236.718 119.516C237.5 111.038 236.918 97.3253 237.271 92.5668H235.364Z" fill="#536D82"/>
<path d="M236.574 87.1121C237.661 88.8712 238.29 90.8742 238.405 92.9387C238.405 92.9387 250.306 88.7428 249.744 82.592C249.744 82.592 248.056 81.5907 246.988 80.7802C246.988 80.7802 246.587 84.6518 236.574 87.1121Z" fill="#288FE6"/>
<path opacity="0.6" d="M236.574 87.1121C237.661 88.8712 238.29 90.8742 238.405 92.9387C238.405 92.9387 250.306 88.7428 249.744 82.592C249.744 82.592 248.056 81.5907 246.988 80.7802C246.988 80.7802 246.587 84.6518 236.574 87.1121Z" fill="white"/>
<path d="M236.575 87.1121C235.481 88.7774 234.694 90.6246 234.249 92.5668C234.249 92.5668 228.861 88.924 230.482 82.8495C231.469 82.4516 232.486 82.1327 233.524 81.8959C233.524 81.8959 232.818 85.8247 236.575 87.1121Z" fill="#288FE6"/>
<path opacity="0.6" d="M236.575 87.1121C235.481 88.7774 234.694 90.6246 234.249 92.5668C234.249 92.5668 228.861 88.924 230.482 82.8495C231.469 82.4516 232.486 82.1327 233.524 81.8959C233.524 81.8959 232.818 85.8247 236.575 87.1121Z" fill="white"/>
</g>
<defs>
<clipPath id="clip0_1166_8602">
<rect width="370" height="343.299" fill="white" transform="translate(0.5)"/>
</clipPath>
</defs>
</svg>
