<svg width="388" height="308" viewBox="0 0 388 308" fill="none" xmlns="http://www.w3.org/2000/svg">
<path opacity="0.2" d="M193.999 302.56C301.082 302.56 387.889 297.492 387.889 291.24C387.889 284.988 301.082 279.92 193.999 279.92C86.9169 279.92 0.109375 284.988 0.109375 291.24C0.109375 297.492 86.9169 302.56 193.999 302.56Z" fill="#536D82"/>
<path d="M161.87 25.7C161.94 37.55 153.45 37.43 153.62 33.75C153.79 30.07 151.69 21.26 153.62 22.11C155.55 22.96 161.84 20.46 161.87 25.7Z" fill="#263238"/>
<path d="M156.53 47.16C157.7 47.07 160.05 48.16 160.26 51.25C160.315 52.1478 160.577 53.0207 161.027 53.7999C161.476 54.579 162.1 55.2432 162.85 55.74C162.85 55.74 158.96 56.21 156.41 54.19C154.33 52.56 153.41 48.99 154.5 48.19C155.097 47.7086 155.789 47.3578 156.53 47.16Z" fill="#263238"/>
<path d="M155 38.74C157 40.51 158.83 45.19 154.32 47.41C149.81 49.63 142.72 44.46 142.72 44.46L150.51 40.85L155 38.74Z" fill="#263238"/>
<path d="M157.22 47.59C157.11 46.9421 156.929 46.3082 156.68 45.7C156.659 45.6421 156.624 45.5899 156.58 45.5471C156.535 45.5043 156.482 45.472 156.423 45.4528C156.365 45.4336 156.302 45.4278 156.241 45.436C156.18 45.4442 156.122 45.4661 156.07 45.5L153.3 47.35C153.244 47.3875 153.199 47.4382 153.167 47.4974C153.136 47.5567 153.119 47.6229 153.119 47.69C153.119 47.7572 153.136 47.8233 153.167 47.8826C153.199 47.9418 153.244 47.9925 153.3 48.03C153.699 48.3223 154.128 48.5705 154.58 48.77C155.23 49.03 156.58 48.29 157.04 47.97C157.103 47.9305 157.154 47.8737 157.186 47.8063C157.218 47.739 157.229 47.6639 157.22 47.59Z" fill="#36C27F"/>
<path opacity="0.3" d="M157.22 47.59C157.11 46.9421 156.929 46.3082 156.68 45.7C156.659 45.6421 156.624 45.5899 156.58 45.5471C156.535 45.5043 156.482 45.472 156.423 45.4528C156.365 45.4336 156.302 45.4278 156.241 45.436C156.18 45.4442 156.122 45.4661 156.07 45.5L153.3 47.35C153.244 47.3875 153.199 47.4382 153.167 47.4974C153.136 47.5567 153.119 47.6229 153.119 47.69C153.119 47.7572 153.136 47.8233 153.167 47.8826C153.199 47.9418 153.244 47.9925 153.3 48.03C153.699 48.3223 154.128 48.5705 154.58 48.77C155.23 49.03 156.58 48.29 157.04 47.97C157.103 47.9305 157.154 47.8737 157.186 47.8063C157.218 47.739 157.229 47.6639 157.22 47.59Z" fill="black"/>
<path d="M127.41 42.68C126.3 42.31 123.76 42.81 122.82 45.77C122.553 46.6289 122.091 47.4143 121.47 48.0649C120.849 48.7154 120.086 49.2135 119.24 49.52C119.24 49.52 122.91 50.9 125.87 49.52C128.27 48.43 129.97 45.17 129.14 44.13C128.675 43.5274 128.085 43.0327 127.41 42.68Z" fill="#263238"/>
<path d="M138.429 22.33C134.379 23.43 128.929 28.23 131.349 34.12C128.959 35.75 125.899 40.44 129.479 43.44C133.329 46.67 142.799 42.14 142.799 42.14L142.869 40.6L143.999 29.14L138.429 22.33Z" fill="#263238"/>
<path d="M126.64 42.94C126.908 42.3346 127.244 41.7611 127.64 41.23C127.679 41.1819 127.729 41.1431 127.785 41.1165C127.841 41.0899 127.902 41.076 127.965 41.076C128.027 41.076 128.088 41.0899 128.144 41.1165C128.201 41.1431 128.25 41.1819 128.29 41.23L130.53 43.68C130.575 43.7299 130.607 43.7899 130.625 43.8549C130.642 43.92 130.643 43.9882 130.628 44.0539C130.614 44.1196 130.583 44.1808 130.54 44.2323C130.497 44.2838 130.442 44.3242 130.38 44.35C129.925 44.5353 129.453 44.6727 128.97 44.76C128.27 44.86 127.19 43.83 126.77 43.41C126.702 43.3549 126.653 43.2801 126.629 43.1958C126.606 43.1116 126.61 43.0221 126.64 42.94Z" fill="#36C27F"/>
<path opacity="0.3" d="M126.64 42.94C126.908 42.3346 127.244 41.7611 127.64 41.23C127.679 41.1819 127.729 41.1431 127.785 41.1165C127.841 41.0899 127.902 41.076 127.965 41.076C128.027 41.076 128.088 41.0899 128.144 41.1165C128.201 41.1431 128.25 41.1819 128.29 41.23L130.53 43.68C130.575 43.7299 130.607 43.7899 130.625 43.8549C130.642 43.92 130.643 43.9882 130.628 44.0539C130.614 44.1196 130.583 44.1808 130.54 44.2323C130.497 44.2838 130.442 44.3242 130.38 44.35C129.925 44.5353 129.453 44.6727 128.97 44.76C128.27 44.86 127.19 43.83 126.77 43.41C126.702 43.3549 126.653 43.2801 126.629 43.1958C126.606 43.1116 126.61 43.0221 126.64 42.94Z" fill="black"/>
<path d="M163.08 64.07C164.99 65.55 167.08 67.13 169.18 68.57C171.28 70.01 173.39 71.46 175.56 72.79C177.73 74.12 179.93 75.36 182.15 76.54L183.82 77.39L185.52 78.18C186.08 78.45 186.65 78.69 187.23 78.91L188.08 79.26C188.37 79.37 188.68 79.51 188.86 79.56C189.905 79.8803 190.976 80.1111 192.06 80.25C193.24 80.42 194.48 80.54 195.74 80.63C198.25 80.79 200.83 80.86 203.42 80.87C206.01 80.88 208.63 80.87 211.24 80.79C213.85 80.71 216.49 80.65 219.09 80.57L219.58 84.5C214.328 85.5592 209.024 86.3436 203.69 86.85C201 87.09 198.3 87.27 195.54 87.29C194.16 87.29 192.76 87.29 191.32 87.16C189.771 87.0688 188.237 86.8174 186.74 86.41C186.28 86.29 185.99 86.17 185.65 86.06L184.65 85.71C183.98 85.49 183.32 85.25 182.65 84.98L180.71 84.2L178.81 83.36C176.299 82.2275 173.852 80.959 171.48 79.56C169.12 78.17 166.8 76.73 164.56 75.19C162.32 73.65 160.16 72.06 157.96 70.19L163.08 64.07Z" fill="#E4897B"/>
<path d="M152.7 59.58C155.19 57.64 165.44 63.99 168.56 66.64L166.29 80.37C166.29 80.37 151.54 74.19 150.65 69.97C149.73 65.56 150.82 61.06 152.7 59.58Z" fill="#FAC600"/>
<path d="M218 80.91L224.18 76.12L224.67 83.53C224.67 83.53 220.41 86.17 217.6 84.53L218 80.91Z" fill="#E4897B"/>
<path d="M229.69 75.39L232.85 78.91L224.63 83.53L224.14 76.12L229.69 75.39Z" fill="#E4897B"/>
<path d="M112.28 281.47L120.07 282.05L122.91 264.12L115.13 263.54L112.28 281.47Z" fill="#E4897B"/>
<path d="M57.1699 256.41L63.7799 260.57L75.5499 246.61L68.9399 242.44L57.1699 256.41Z" fill="#E4897B"/>
<path d="M65.8698 259.08L59.6798 252.85C59.574 252.742 59.4322 252.676 59.2812 252.665C59.1301 252.653 58.9802 252.698 58.8598 252.79L53.2298 257C53.0925 257.111 52.98 257.25 52.8997 257.407C52.8193 257.564 52.7729 257.736 52.7635 257.913C52.7541 258.089 52.7818 258.265 52.8449 258.43C52.908 258.595 53.0051 258.745 53.1298 258.87C55.3198 261 56.4898 261.92 59.2098 264.66C60.8798 266.35 63.1498 268.98 65.4598 271.31C67.7698 273.64 70.1898 271.47 69.4598 270.31C66.0798 265.04 66.6898 263.07 66.4598 260.39C66.4258 259.897 66.2166 259.432 65.8698 259.08Z" fill="#263238"/>
<path d="M120.59 280.93H111.81C111.656 280.93 111.506 280.984 111.387 281.082C111.269 281.181 111.188 281.318 111.16 281.47L109.77 288.41C109.738 288.586 109.746 288.767 109.794 288.939C109.842 289.111 109.929 289.27 110.047 289.404C110.166 289.538 110.313 289.643 110.478 289.712C110.643 289.78 110.822 289.81 111 289.8C114.06 289.75 115.55 289.57 119.41 289.57C121.78 289.57 128.41 289.81 131.72 289.81C135.03 289.81 135.36 286.57 134.01 286.28C127.96 284.96 123.88 283.15 121.91 281.41C121.546 281.09 121.075 280.919 120.59 280.93Z" fill="#263238"/>
<path d="M122.909 264.12L121.329 274.08L113.649 272.79L115.119 263.55L122.909 264.12Z" fill="#CE6F64"/>
<path d="M68.9399 242.45L75.5499 246.61L70.6799 252.39L63.9199 248.4L68.9399 242.45Z" fill="#CE6F64"/>
<path d="M118.2 101.13L149.34 107.2C165.43 63.63 161.93 62.2 161.93 62.2C159.667 60.9565 157.329 59.8544 154.93 58.9L154.51 58.74C152.51 58.01 152.11 57.9 149.45 57.12C144.87 56.03 140.6 55.12 135.31 54.37L134.31 54.23C133.31 54.11 132.4 54.01 131.48 53.92C130.86 53.85 130.24 53.81 129.65 53.77L127.65 53.66C124.23 53.49 121.78 53.54 121.78 53.54C122.73 80.75 121.19 88.56 118.2 101.13Z" fill="#FAC600"/>
<path d="M139.81 38.74C139.81 43.46 139.08 51.97 135.3 54.39C135.3 54.39 135.65 59.25 144.1 60.89C153.4 62.7 149.44 57.14 149.44 57.14C144.61 54.94 145.44 51.2 147.04 47.84L139.81 38.74Z" fill="#E4897B"/>
<path d="M142.76 42.45L147.04 47.84C146.665 48.619 146.357 49.4286 146.12 50.26C144.23 49.6 141.98 46.96 142.12 44.89C142.183 44.0446 142.4 43.2179 142.76 42.45Z" fill="#CE6F64"/>
<path d="M139.359 27.9C138.359 35.59 137.749 38.82 140.829 43.47C145.459 50.47 155.119 50.02 158.409 42.79C161.409 36.28 162.529 24.79 155.679 20.34C154.176 19.3468 152.443 18.7545 150.646 18.6196C148.848 18.4846 147.046 18.8114 145.411 19.569C143.776 20.3265 142.361 21.4896 141.302 22.9477C140.243 24.4059 139.574 26.1106 139.359 27.9Z" fill="#E4897B"/>
<path d="M164.39 15.72C164.53 16.9395 164.438 18.1745 164.12 19.36C164.047 18.9579 163.95 18.5605 163.83 18.17C161.09 9.11002 148.75 11.27 145.03 15.17C139.03 13.45 133.32 14.82 134.08 22.17C134.175 24.0636 134.856 25.8809 136.03 27.37C135.1 29.95 136.03 34.06 139.1 34.18C143.42 34.35 147.52 28.63 149.17 25.49C152.17 26 156.49 26.49 159.77 25.69C160.32 26.02 160.77 26.25 160.77 26.25C164.26 24.38 166.92 22.57 164.39 15.72Z" fill="#263238"/>
<path d="M136.7 33.15C136.577 34.6422 137.048 36.1225 138.01 37.27C139.31 38.78 141.01 37.89 141.62 36.1C142.13 34.48 142.06 31.75 140.32 30.9C139.936 30.7198 139.514 30.6384 139.091 30.6631C138.668 30.6878 138.258 30.8179 137.898 31.0415C137.539 31.2651 137.24 31.5752 137.031 31.9434C136.822 32.3117 136.708 32.7265 136.7 33.15Z" fill="#E4897B"/>
<path d="M148.87 107.2C148.87 107.2 148.99 169.02 143.93 192.3C138.67 216.52 123.2 271.62 123.2 271.62L112 270.17C112 270.17 120.77 214.51 124.5 190.44C128.57 164.21 126.08 102.76 126.08 102.76L148.87 107.2Z" fill="#36C27F"/>
<path d="M148.87 107.2C148.87 107.2 148.99 169.02 143.93 192.3C138.67 216.52 123.2 271.62 123.2 271.62L112 270.17C112 270.17 120.77 214.51 124.5 190.44C128.57 164.21 126.08 102.76 126.08 102.76L148.87 107.2Z" fill="#2B3B47"/>
<path d="M125.11 272.59L110.08 270.65L110.72 265.33L127.78 267.33L125.11 272.59Z" fill="#263238"/>
<path d="M141.12 105.6C141.12 105.6 124.35 156.69 116.02 186.12C107.24 217.17 73.5797 251.51 73.5797 251.51L63.9297 245.93C63.9297 245.93 86.9297 213.33 95.3797 184.36C112.59 125.55 105.52 113.09 118.2 101.13L141.12 105.6Z" fill="#36C27F"/>
<path d="M141.12 105.6C141.12 105.6 124.35 156.69 116.02 186.12C107.24 217.17 73.5797 251.51 73.5797 251.51L63.9297 245.93C63.9297 245.93 86.9297 213.33 95.3797 184.36C112.59 125.55 105.52 113.09 118.2 101.13L141.12 105.6Z" fill="#2B3B47"/>
<path d="M75.1502 253.06L61.7402 245.32L65.0802 240.54L79.9702 248.75L75.1502 253.06Z" fill="#263238"/>
<path d="M150.46 32.27C150.34 32.89 150.569 33.45 150.979 33.53C151.389 33.61 151.809 33.17 151.979 32.53C152.149 31.89 151.87 31.34 151.46 31.26C151.05 31.18 150.58 31.65 150.46 32.27Z" fill="#263238"/>
<path d="M157.45 33.63C157.33 34.25 157.56 34.82 157.97 34.9C158.38 34.98 158.8 34.54 158.92 33.9C159.04 33.26 158.81 32.71 158.4 32.64C157.99 32.57 157.57 33 157.45 33.63Z" fill="#263238"/>
<path d="M158.22 32.65L159.79 32.52C159.79 32.52 158.8 33.53 158.22 32.65Z" fill="#263238"/>
<path d="M155.4 34.34C155.676 35.8562 156.16 37.3268 156.84 38.71C156.481 38.8778 156.091 38.9648 155.695 38.9648C155.299 38.9648 154.908 38.8778 154.55 38.71L155.4 34.34Z" fill="#DE5753"/>
<path d="M151.929 40.71C151.094 40.5732 150.303 40.2362 149.626 39.7277C148.949 39.2192 148.404 38.5544 148.039 37.79C148.03 37.7677 148.025 37.7438 148.024 37.7195C148.024 37.6952 148.029 37.6711 148.038 37.6487C148.048 37.6262 148.061 37.6059 148.079 37.589C148.096 37.572 148.117 37.5588 148.139 37.55C148.185 37.5331 148.235 37.534 148.279 37.5525C148.324 37.5711 148.36 37.606 148.379 37.65C148.729 38.3525 149.238 38.9629 149.867 39.432C150.496 39.901 151.227 40.2155 151.999 40.35C152.023 40.3536 152.046 40.362 152.067 40.3746C152.087 40.3872 152.105 40.4038 152.119 40.4233C152.133 40.4429 152.143 40.4651 152.148 40.4886C152.153 40.512 152.154 40.5363 152.149 40.56C152.14 40.6089 152.111 40.6519 152.07 40.68C152.029 40.708 151.978 40.7188 151.929 40.71Z" fill="#263238"/>
<path d="M148.87 29.61C148.796 29.6094 148.724 29.5867 148.663 29.5447C148.602 29.5028 148.555 29.4435 148.528 29.3746C148.501 29.3058 148.496 29.2304 148.512 29.1583C148.528 29.0862 148.566 29.0206 148.62 28.97C149.049 28.568 149.567 28.2739 150.133 28.1122C150.698 27.9504 151.293 27.9257 151.87 28.04C151.964 28.068 152.044 28.1316 152.093 28.2174C152.142 28.3033 152.155 28.4046 152.13 28.5C152.104 28.5938 152.043 28.6737 151.958 28.7223C151.874 28.771 151.774 28.7845 151.68 28.76C151.222 28.6788 150.751 28.7052 150.305 28.8371C149.859 28.969 149.45 29.2028 149.11 29.52C149.044 29.5784 148.958 29.6105 148.87 29.61Z" fill="#263238"/>
<path d="M161.329 31C161.256 31.0009 161.184 30.9793 161.123 30.9382C161.063 30.8971 161.016 30.8384 160.989 30.77C160.818 30.3369 160.548 29.9496 160.201 29.6389C159.854 29.3282 159.439 29.1026 158.989 28.98C158.941 28.9716 158.896 28.9537 158.855 28.9275C158.814 28.9013 158.778 28.8673 158.75 28.8273C158.722 28.7874 158.703 28.7423 158.692 28.6947C158.682 28.6471 158.681 28.598 158.689 28.55C158.711 28.4555 158.767 28.3724 158.847 28.317C158.926 28.2615 159.023 28.2376 159.119 28.25C159.69 28.3925 160.218 28.6692 160.66 29.0571C161.102 29.445 161.444 29.9328 161.659 30.48C161.679 30.5252 161.689 30.5739 161.69 30.6232C161.691 30.6726 161.681 30.7215 161.663 30.7671C161.644 30.8128 161.616 30.8542 161.582 30.8891C161.547 30.9239 161.505 30.9514 161.459 30.97L161.329 31Z" fill="#263238"/>
<path d="M151.299 37.75C150.99 37.7512 150.684 37.6804 150.406 37.5434C150.129 37.4063 149.887 37.2066 149.699 36.96C149.229 36.2265 148.915 35.4038 148.778 34.5435C148.64 33.6831 148.682 32.8036 148.899 31.96C149.469 28.8 151.449 26.23 153.319 26.23C153.631 26.2337 153.937 26.3076 154.216 26.4461C154.495 26.5846 154.739 26.7842 154.929 27.03C155.398 27.7642 155.711 28.5869 155.849 29.447C155.986 30.307 155.946 31.1862 155.729 32.03C155.159 35.19 153.169 37.75 151.299 37.75ZM153.299 26.51C151.549 26.51 149.669 28.99 149.119 32.03C148.769 34.03 149.049 35.83 149.869 36.8C150.036 37.0159 150.25 37.1911 150.494 37.3123C150.738 37.4336 151.007 37.4978 151.279 37.5C153.039 37.5 154.909 35.03 155.459 31.99H155.579H155.459C155.672 31.1864 155.715 30.3474 155.585 29.5262C155.456 28.7051 155.158 27.9198 154.709 27.22C154.545 27.0055 154.335 26.8303 154.095 26.7075C153.854 26.5846 153.589 26.5172 153.319 26.51H153.299Z" fill="#FAFAFA"/>
<path d="M159.069 38.75C158.746 38.7433 158.428 38.6644 158.139 38.5191C157.85 38.3737 157.598 38.1656 157.399 37.91C156.95 37.2367 156.647 36.4774 156.507 35.6803C156.368 34.8831 156.396 34.0657 156.589 33.28C157.099 30.34 159.019 27.96 160.869 27.96C161.194 27.9679 161.512 28.0484 161.801 28.1955C162.09 28.3426 162.342 28.5526 162.539 28.81C162.985 29.4828 163.287 30.2404 163.427 31.0354C163.566 31.8304 163.54 32.6457 163.349 33.43C162.849 36.38 160.929 38.75 159.069 38.75ZM160.839 28.21C159.099 28.21 157.299 30.5 156.839 33.33C156.659 34.0798 156.634 34.8583 156.765 35.6182C156.895 36.3781 157.179 37.1034 157.599 37.75C157.775 37.9767 157.999 38.1615 158.255 38.2912C158.511 38.4209 158.793 38.4922 159.079 38.5C160.819 38.5 162.629 36.22 163.079 33.39C163.259 32.6407 163.284 31.863 163.155 31.1035C163.027 30.3439 162.746 29.6183 162.329 28.97C162.155 28.7415 161.931 28.5548 161.675 28.4233C161.419 28.2919 161.137 28.219 160.849 28.21H160.839Z" fill="#FAFAFA"/>
<path d="M68.1701 262.71C67.1701 262.71 66.1201 261.17 65.5801 260.28C65.5604 260.25 65.5498 260.216 65.5498 260.18C65.5498 260.144 65.5604 260.11 65.5801 260.08C65.6023 260.051 65.6314 260.029 65.6646 260.015C65.6979 260.001 65.7343 259.996 65.7701 260C66.0901 260.07 68.8401 260.67 69.1901 261.61C69.2299 261.714 69.2407 261.826 69.2213 261.935C69.2019 262.045 69.1531 262.146 69.0801 262.23C68.9817 262.381 68.8465 262.504 68.6873 262.588C68.5281 262.672 68.3501 262.714 68.1701 262.71ZM66.0801 260.46C66.8501 261.62 67.6001 262.31 68.1401 262.34C68.26 262.341 68.3782 262.311 68.4832 262.253C68.5883 262.196 68.6768 262.112 68.7401 262.01C68.7739 261.975 68.7966 261.93 68.8055 261.882C68.8144 261.835 68.8091 261.785 68.7901 261.74C68.6101 261.24 67.1801 260.74 66.0801 260.46Z" fill="#36C27F"/>
<path d="M66.5299 260.46C66.2269 260.465 65.9245 260.431 65.6299 260.36C65.5998 260.35 65.5725 260.333 65.55 260.31C65.5274 260.287 65.5103 260.26 65.4999 260.23C65.4766 260.172 65.4766 260.108 65.4999 260.05C65.5699 259.99 67.0999 258.48 68.2299 258.48H68.3099C68.4499 258.489 68.5863 258.528 68.7104 258.593C68.8344 258.659 68.9433 258.75 69.0299 258.86C69.1319 258.967 69.1952 259.104 69.2097 259.251C69.2242 259.398 69.1891 259.545 69.1099 259.67C68.7899 260.21 67.5099 260.46 66.5299 260.46ZM66.0799 260.07C67.0199 260.18 68.5399 259.91 68.8499 259.46C68.8999 259.39 68.9399 259.28 68.7899 259.09C68.7377 259.016 68.6688 258.956 68.5888 258.915C68.5089 258.873 68.4201 258.851 68.3299 258.85C67.4719 259.015 66.686 259.441 66.0799 260.07Z" fill="#36C27F"/>
<path d="M123.46 282.3C122.632 282.277 121.809 282.177 121 282C120.961 281.992 120.926 281.973 120.899 281.944C120.873 281.915 120.855 281.879 120.85 281.84C120.845 281.802 120.853 281.763 120.87 281.73C120.888 281.696 120.916 281.668 120.95 281.65C121.32 281.47 124.53 279.87 125.46 280.41C125.545 280.463 125.615 280.537 125.663 280.624C125.712 280.712 125.739 280.81 125.74 280.91C125.751 281.079 125.722 281.248 125.654 281.403C125.586 281.558 125.482 281.694 125.35 281.8C124.793 282.173 124.128 282.349 123.46 282.3ZM121.63 281.76C123.34 282.04 124.63 281.97 125.13 281.54C125.215 281.466 125.282 281.373 125.325 281.269C125.369 281.165 125.387 281.053 125.38 280.94C125.382 280.902 125.374 280.865 125.356 280.831C125.338 280.798 125.312 280.77 125.28 280.75C124.78 280.46 123 281.14 121.63 281.76Z" fill="#36C27F"/>
<path d="M121.05 282C121.014 282.01 120.976 282.01 120.94 282C120.91 281.981 120.887 281.954 120.873 281.922C120.859 281.89 120.854 281.855 120.86 281.82C120.86 281.68 121.34 278.5 123.08 278.5H123.23C123.73 278.55 123.87 278.8 123.9 279.01C124.04 279.89 122.1 281.59 121.12 282.01L121.05 282ZM123.05 278.84C121.92 278.84 121.42 280.68 121.25 281.48C122.25 280.89 123.58 279.56 123.5 279.03C123.5 279.03 123.5 278.87 123.15 278.84H123.05Z" fill="#36C27F"/>
<path d="M151.229 31.29L152.799 31.15C152.799 31.15 151.809 32.17 151.229 31.29Z" fill="#263238"/>
<path d="M144.36 67.54C131.36 62.61 127.3 55.23 127.61 53.68L129.61 53.8H129.95C130.43 53.8 130.95 53.87 131.44 53.93C132.36 54.01 133.31 54.11 134.27 54.24L135.27 54.38C140.043 54.958 144.768 55.877 149.41 57.13C151.53 57.75 152.23 57.95 153.41 58.37L154.46 58.75L154.88 58.91C155.92 61.15 155.69 65.73 144.36 67.54Z" fill="#E4897B"/>
<path d="M144.36 67.54C131.36 62.61 127.3 55.23 127.61 53.68L129.61 53.8H129.95C132.59 57.55 138.37 62.73 144.26 63.44C149 62.44 153.47 61.3 153.43 58.37L154.48 58.75L154.9 58.91C155.92 61.15 155.69 65.73 144.36 67.54Z" fill="#36C27F"/>
<path opacity="0.3" d="M144.36 67.54C131.36 62.61 127.3 55.23 127.61 53.68L129.61 53.8H129.95C132.59 57.55 138.37 62.73 144.26 63.44C149 62.44 153.47 61.3 153.43 58.37L154.48 58.75L154.9 58.91C155.92 61.15 155.69 65.73 144.36 67.54Z" fill="black"/>
<path d="M118.09 99.21L116.09 101.73C115.94 101.92 116.16 102.19 116.52 102.26L149.18 108.62C149.46 108.68 149.72 108.62 149.77 108.41L150.59 105.68C150.65 105.49 150.44 105.28 150.13 105.22L118.59 99.08C118.502 99.0616 118.411 99.0637 118.324 99.0863C118.238 99.1088 118.157 99.1512 118.09 99.21Z" fill="#263238"/>
<path d="M121.64 103.56L120.8 103.4C120.63 103.4 120.52 103.26 120.55 103.15L121.65 99.61C121.65 99.5 121.85 99.45 122.01 99.48L122.86 99.64C123.03 99.64 123.14 99.79 123.11 99.89L122.01 103.44C121.97 103.498 121.912 103.541 121.845 103.563C121.778 103.584 121.706 103.583 121.64 103.56Z" fill="#36C27F"/>
<path opacity="0.3" d="M121.64 103.56L120.8 103.4C120.63 103.4 120.52 103.26 120.55 103.15L121.65 99.61C121.65 99.5 121.85 99.45 122.01 99.48L122.86 99.64C123.03 99.64 123.14 99.79 123.11 99.89L122.01 103.44C121.97 103.498 121.912 103.541 121.845 103.563C121.778 103.584 121.706 103.583 121.64 103.56Z" fill="black"/>
<path d="M123.859 65.61C123.479 67.98 123.119 70.61 122.859 73.07C122.599 75.53 122.369 78.07 122.249 80.63C122.183 81.89 122.143 83.15 122.129 84.41C122.129 85.66 122.129 86.91 122.129 88.16C122.179 90.6089 122.369 93.053 122.699 95.48C122.888 96.3111 123.227 97.1007 123.699 97.81C124.298 98.7838 124.966 99.7129 125.699 100.59C127.298 102.486 129.008 104.286 130.819 105.98C132.649 107.74 134.569 109.44 136.539 111.1C138.509 112.76 140.539 114.41 142.539 116L140.389 119.32C135.683 116.741 131.183 113.802 126.929 110.53C124.733 108.848 122.661 107.01 120.729 105.03C119.699 103.968 118.753 102.828 117.899 101.62C116.843 100.191 116.091 98.5609 115.689 96.83L115.319 94.71C115.189 94.02 115.099 93.33 115.019 92.65C114.819 91.27 114.709 89.9 114.599 88.53C114.391 85.8053 114.328 83.0715 114.409 80.34C114.489 77.63 114.639 74.93 114.909 72.24C115.179 69.55 115.519 66.91 116.059 64.13L123.859 65.61Z" fill="#E4897B"/>
<path d="M117.22 55.63C112.94 59.09 113.96 69.37 113.96 69.37L128.36 74.11C128.36 74.11 127.7 62.26 127 58C126.14 52.93 121.42 52.22 117.22 55.63Z" fill="#FAC600"/>
<path d="M140.779 115.36L147.289 112.94L146.289 119.13C146.289 119.13 141.569 120.83 139.149 118.65L140.779 115.36Z" fill="#E4897B"/>
<path d="M155.04 113.86V118.64L146.29 119.13L147.29 112.94L155.04 113.86Z" fill="#E4897B"/>
<path d="M146.79 108.46L145.95 108.3C145.78 108.3 145.67 108.16 145.7 108.05L146.8 104.51C146.8 104.4 147 104.35 147.17 104.38L148.01 104.54C148.18 104.54 148.29 104.69 148.26 104.79L147.16 108.34C147.13 108.44 147 108.5 146.79 108.46Z" fill="#36C27F"/>
<path opacity="0.3" d="M146.79 108.46L145.95 108.3C145.78 108.3 145.67 108.16 145.7 108.05L146.8 104.51C146.8 104.4 147 104.35 147.17 104.38L148.01 104.54C148.18 104.54 148.29 104.69 148.26 104.79L147.16 108.34C147.13 108.44 147 108.5 146.79 108.46Z" fill="black"/>
<path d="M134.219 106L133.369 105.84C133.199 105.84 133.089 105.7 133.129 105.59L134.229 102.05C134.229 101.94 134.419 101.89 134.589 101.92L135.439 102.08C135.599 102.08 135.719 102.23 135.679 102.33L134.579 105.88C134.549 106 134.389 106.05 134.219 106Z" fill="#36C27F"/>
<path opacity="0.3" d="M134.219 106L133.369 105.84C133.199 105.84 133.089 105.7 133.129 105.59L134.229 102.05C134.229 101.94 134.419 101.89 134.589 101.92L135.439 102.08C135.599 102.08 135.719 102.23 135.679 102.33L134.579 105.88C134.549 106 134.389 106.05 134.219 106Z" fill="black"/>
<path d="M70.5301 164.31L122.37 277.53C123.558 280.103 125.717 282.102 128.373 283.089C131.03 284.076 133.97 283.972 136.55 282.8L144.78 279.04L335.35 191.79C337.924 190.605 339.925 188.45 340.914 185.795C341.904 183.139 341.801 180.2 340.63 177.62L294.82 77.62L288.82 64.41C287.63 61.8387 285.471 59.842 282.815 58.8549C280.159 57.8678 277.221 57.9703 274.64 59.14L75.8301 150.14C73.2559 151.325 71.2544 153.479 70.2617 156.133C69.2689 158.788 69.3654 161.727 70.5301 164.31Z" fill="#36C27F"/>
<path d="M70.5301 164.31L122.37 277.53C123.558 280.103 125.717 282.102 128.373 283.089C131.03 284.076 133.97 283.972 136.55 282.8L144.78 279.04L335.35 191.79C337.924 190.605 339.925 188.45 340.914 185.795C341.904 183.139 341.801 180.2 340.63 177.62L294.82 77.62L288.82 64.41C287.63 61.8387 285.471 59.842 282.815 58.8549C280.159 57.8678 277.221 57.9703 274.64 59.14L75.8301 150.14C73.2559 151.325 71.2544 153.479 70.2617 156.133C69.2689 158.788 69.3654 161.727 70.5301 164.31Z" fill="#288FE6"/>
<path d="M117.114 266.05L335.367 166.126L309.824 110.335L91.5712 210.259L117.114 266.05Z" fill="#36C27F"/>
<path d="M117.114 266.05L335.367 166.126L309.824 110.335L91.5712 210.259L117.114 266.05Z" fill="#57B3FF"/>
<path d="M172.005 219.255L309.927 156.109L300.785 136.142L162.863 199.288L172.005 219.255Z" fill="#36C27F"/>
<path opacity="0.8" d="M172.005 219.255L309.927 156.109L300.785 136.142L162.863 199.288L172.005 219.255Z" fill="white"/>
<g style="mix-blend-mode:multiply">
<path d="M100.17 165.73L144.78 279L335.35 191.75C337.924 190.565 339.925 188.41 340.914 185.755C341.904 183.099 341.801 180.16 340.63 177.58L294.82 77.58L106.21 151.86C103.575 152.905 101.461 154.951 100.33 157.549C99.1982 160.148 99.1407 163.089 100.17 165.73Z" fill="#36C27F"/>
</g>
<path d="M352.41 129.927L351.467 130.259L353.028 134.702L353.972 134.371L352.41 129.927Z" fill="#36C27F"/>
<path opacity="0.1" d="M352.41 129.927L351.467 130.259L353.028 134.702L353.972 134.371L352.41 129.927Z" fill="white"/>
<path d="M344.529 107.582L343.586 107.913L349.736 125.425L350.679 125.093L344.529 107.582Z" fill="#36C27F"/>
<path opacity="0.1" d="M344.529 107.582L343.586 107.913L349.736 125.425L350.679 125.093L344.529 107.582Z" fill="white"/>
<path d="M113.44 152.25L319.74 79.8C322.416 78.8686 325.352 79.0348 327.907 80.2622C330.461 81.4896 332.425 83.6784 333.37 86.35L374.63 203.84C375.562 206.516 375.398 209.453 374.172 212.008C372.947 214.564 370.76 216.531 368.09 217.48L161.79 289.93C159.112 290.859 156.176 290.692 153.621 289.465C151.066 288.238 149.099 286.051 148.15 283.38L106.89 165.89C105.958 163.212 106.124 160.275 107.351 157.719C108.579 155.163 110.768 153.197 113.44 152.25Z" fill="#36C27F"/>
<path opacity="0.1" d="M113.44 152.25L319.74 79.8C322.416 78.8686 325.352 79.0348 327.907 80.2622C330.461 81.4896 332.425 83.6784 333.37 86.35L374.63 203.84C375.562 206.516 375.398 209.453 374.172 212.008C372.947 214.564 370.76 216.531 368.09 217.48L161.79 289.93C159.112 290.859 156.176 290.692 153.621 289.465C151.066 288.238 149.099 286.051 148.15 283.38L106.89 165.89C105.958 163.212 106.124 160.275 107.351 157.719C108.579 155.163 110.768 153.197 113.44 152.25Z" fill="white"/>
<path d="M140.631 261.955L367.111 182.421L349.163 131.311L122.682 210.845L140.631 261.955Z" fill="#36C27F"/>
<path opacity="0.3" d="M140.631 261.955L367.111 182.421L349.163 131.311L122.682 210.845L140.631 261.955Z" fill="white"/>
<path d="M277.797 130.176L324.614 113.735L322.053 106.442L275.236 122.883L277.797 130.176Z" fill="#36C27F"/>
<path opacity="0.8" d="M277.797 130.176L324.614 113.735L322.053 106.442L275.236 122.883L277.797 130.176Z" fill="white"/>
<path d="M317.198 212.755L354.759 199.565L353.42 195.753L315.859 208.943L317.198 212.755Z" fill="#36C27F"/>
<path opacity="0.8" d="M317.198 212.755L354.759 199.565L353.42 195.753L315.859 208.943L317.198 212.755Z" fill="white"/>
<path d="M308.915 223.858L357.317 206.861L355.979 203.049L307.577 220.047L308.915 223.858Z" fill="#36C27F"/>
<path opacity="0.8" d="M308.915 223.858L357.317 206.861L355.979 203.049L307.577 220.047L308.915 223.858Z" fill="white"/>
<path d="M162.071 275.427L186.272 266.928L183.393 258.729L159.192 267.228L162.071 275.427Z" fill="#36C27F"/>
<path opacity="0.8" d="M162.071 275.427L186.272 266.928L183.393 258.729L159.192 267.228L162.071 275.427Z" fill="white"/>
<path d="M312.79 188.5L341.05 178.58C342.54 178.05 343.76 176.953 344.445 175.528C345.131 174.103 345.226 172.465 344.71 170.97C344.18 169.48 343.083 168.26 341.658 167.575C340.233 166.889 338.595 166.794 337.1 167.31L308.83 177.24C307.34 177.77 306.12 178.867 305.435 180.292C304.749 181.717 304.654 183.355 305.17 184.85C305.702 186.34 306.801 187.56 308.229 188.244C309.656 188.927 311.295 189.019 312.79 188.5Z" fill="#36C27F"/>
<path d="M264.38 205.5L292.65 195.57C294.128 195.038 295.339 193.946 296.021 192.531C296.704 191.115 296.804 189.488 296.3 188C295.767 186.512 294.67 185.294 293.245 184.611C291.82 183.927 290.183 183.834 288.69 184.35L260.43 194.28C258.94 194.81 257.72 195.907 257.034 197.332C256.349 198.757 256.254 200.395 256.77 201.89C257.31 203.371 258.411 204.579 259.835 205.255C261.259 205.93 262.891 206.018 264.38 205.5Z" fill="#36C27F"/>
<path d="M216 222.5L244.27 212.57C245.745 212.034 246.951 210.941 247.629 209.526C248.308 208.111 248.405 206.486 247.9 205C247.368 203.512 246.27 202.294 244.845 201.611C243.42 200.927 241.783 200.834 240.29 201.35L212 211.24C210.512 211.772 209.294 212.87 208.611 214.295C207.927 215.72 207.834 217.357 208.35 218.85C208.882 220.347 209.986 221.573 211.42 222.257C212.854 222.941 214.501 223.029 216 222.5Z" fill="#36C27F"/>
<path d="M167.57 239.5L195.84 229.57C197.32 229.04 198.533 227.949 199.218 226.533C199.902 225.118 200.004 223.49 199.5 222C198.968 220.512 197.87 219.294 196.445 218.611C195.021 217.927 193.384 217.834 191.89 218.35L163.62 228.28C162.13 228.81 160.91 229.907 160.225 231.332C159.539 232.757 159.444 234.395 159.96 235.89C160.5 237.371 161.601 238.579 163.025 239.255C164.449 239.93 166.082 240.018 167.57 239.5Z" fill="#36C27F"/>
<g opacity="0.8">
<path opacity="0.8" d="M312.79 188.5L341.05 178.58C342.54 178.05 343.76 176.953 344.445 175.528C345.131 174.103 345.226 172.465 344.71 170.97C344.18 169.48 343.083 168.26 341.658 167.575C340.233 166.889 338.595 166.794 337.1 167.31L308.83 177.24C307.34 177.77 306.12 178.867 305.435 180.292C304.749 181.717 304.654 183.355 305.17 184.85C305.702 186.34 306.801 187.56 308.229 188.244C309.656 188.927 311.295 189.019 312.79 188.5Z" fill="white"/>
<path opacity="0.8" d="M264.38 205.5L292.65 195.57C294.128 195.038 295.339 193.946 296.021 192.531C296.704 191.115 296.804 189.488 296.3 188C295.767 186.512 294.67 185.294 293.245 184.611C291.82 183.927 290.183 183.834 288.69 184.35L260.43 194.28C258.94 194.81 257.72 195.907 257.034 197.332C256.349 198.757 256.254 200.395 256.77 201.89C257.31 203.371 258.411 204.579 259.835 205.255C261.259 205.93 262.891 206.018 264.38 205.5Z" fill="white"/>
<path opacity="0.8" d="M216 222.5L244.27 212.57C245.745 212.034 246.951 210.941 247.629 209.526C248.308 208.111 248.405 206.486 247.9 205C247.368 203.512 246.27 202.294 244.845 201.611C243.42 200.927 241.783 200.834 240.29 201.35L212 211.24C210.512 211.772 209.294 212.87 208.611 214.295C207.927 215.72 207.834 217.357 208.35 218.85C208.882 220.347 209.986 221.573 211.42 222.257C212.854 222.941 214.501 223.029 216 222.5Z" fill="white"/>
<path opacity="0.8" d="M167.57 239.5L195.84 229.57C197.32 229.04 198.533 227.949 199.218 226.533C199.902 225.118 200.004 223.49 199.5 222C198.968 220.512 197.87 219.294 196.445 218.611C195.021 217.927 193.384 217.834 191.89 218.35L163.62 228.28C162.13 228.81 160.91 229.907 160.225 231.332C159.539 232.757 159.444 234.395 159.96 235.89C160.5 237.371 161.601 238.579 163.025 239.255C164.449 239.93 166.082 240.018 167.57 239.5Z" fill="white"/>
</g>
<path d="M310.273 165.756L335.428 156.922C337.564 156.172 338.688 153.832 337.937 151.695L332.696 136.769C331.945 134.632 329.605 133.509 327.469 134.259L302.315 143.092C300.178 143.843 299.055 146.183 299.805 148.319L305.047 163.246C305.797 165.382 308.137 166.506 310.273 165.756Z" fill="#36C27F"/>
<path opacity="0.3" d="M310.273 165.756L335.428 156.922C337.564 156.172 338.688 153.832 337.937 151.695L332.696 136.769C331.945 134.632 329.605 133.509 327.469 134.259L302.315 143.092C300.178 143.843 299.055 146.183 299.805 148.319L305.047 163.246C305.797 165.382 308.137 166.506 310.273 165.756Z" fill="black"/>
<path d="M162 181.21C158.371 181.211 154.875 179.849 152.202 177.395C149.529 174.94 147.876 171.571 147.569 167.955C147.261 164.34 148.323 160.74 150.544 157.87C152.764 155 155.981 153.068 159.558 152.457C163.135 151.846 166.811 152.6 169.859 154.57C172.906 156.541 175.103 159.583 176.013 163.096C176.924 166.609 176.482 170.335 174.776 173.538C173.07 176.741 170.224 179.186 166.8 180.39C165.258 180.933 163.635 181.211 162 181.21ZM162 153.21C160.464 153.213 158.94 153.473 157.49 153.98C154.093 155.174 151.31 157.668 149.751 160.914C148.193 164.16 147.987 167.893 149.18 171.29C150.007 173.636 151.463 175.71 153.388 177.285C155.314 178.859 157.635 179.874 160.099 180.219C162.562 180.564 165.073 180.225 167.357 179.239C169.641 178.253 171.61 176.658 173.048 174.629C174.487 172.6 175.341 170.214 175.515 167.733C175.69 165.252 175.179 162.77 174.039 160.559C172.899 158.349 171.173 156.494 169.049 155.198C166.926 153.902 164.488 153.214 162 153.21Z" fill="#36C27F"/>
<path opacity="0.8" d="M162 181.21C158.371 181.211 154.875 179.849 152.202 177.395C149.529 174.94 147.876 171.571 147.569 167.955C147.261 164.34 148.323 160.74 150.544 157.87C152.764 155 155.981 153.068 159.558 152.457C163.135 151.846 166.811 152.6 169.859 154.57C172.906 156.541 175.103 159.583 176.013 163.096C176.924 166.609 176.482 170.335 174.776 173.538C173.07 176.741 170.224 179.186 166.8 180.39C165.258 180.933 163.635 181.211 162 181.21ZM162 153.21C160.464 153.213 158.94 153.473 157.49 153.98C154.093 155.174 151.31 157.668 149.751 160.914C148.193 164.16 147.987 167.893 149.18 171.29C150.007 173.636 151.463 175.71 153.388 177.285C155.314 178.859 157.635 179.874 160.099 180.219C162.562 180.564 165.073 180.225 167.357 179.239C169.641 178.253 171.61 176.658 173.048 174.629C174.487 172.6 175.341 170.214 175.515 167.733C175.69 165.252 175.179 162.77 174.039 160.559C172.899 158.349 171.173 156.494 169.049 155.198C166.926 153.902 164.488 153.214 162 153.21Z" fill="white"/>
<path d="M128.08 178.67C129.002 181.279 130.676 183.556 132.891 185.214C135.107 186.872 137.763 187.836 140.526 187.985C143.289 188.134 146.034 187.461 148.415 186.051C150.796 184.641 152.705 182.557 153.902 180.063C155.099 177.568 155.53 174.775 155.141 172.035C154.751 169.296 153.559 166.733 151.714 164.671C149.869 162.609 147.455 161.14 144.775 160.449C142.096 159.758 139.272 159.877 136.66 160.79C134.921 161.398 133.319 162.343 131.946 163.572C130.573 164.8 129.455 166.288 128.658 167.949C127.861 169.61 127.4 171.412 127.301 173.252C127.201 175.092 127.466 176.933 128.08 178.67Z" fill="#36C27F"/>
<path opacity="0.8" d="M128.08 178.67C129.002 181.279 130.676 183.556 132.891 185.214C135.107 186.872 137.763 187.836 140.526 187.985C143.289 188.134 146.034 187.461 148.415 186.051C150.796 184.641 152.705 182.557 153.902 180.063C155.099 177.568 155.53 174.775 155.141 172.035C154.751 169.296 153.559 166.733 151.714 164.671C149.869 162.609 147.455 161.14 144.775 160.449C142.096 159.758 139.272 159.877 136.66 160.79C134.921 161.398 133.319 162.343 131.946 163.572C130.573 164.8 129.455 166.288 128.658 167.949C127.861 169.61 127.4 171.412 127.301 173.252C127.201 175.092 127.466 176.933 128.08 178.67Z" fill="white"/>
</svg>
