<svg width="20" height="21" viewBox="0 0 20 21" fill="none" xmlns="http://www.w3.org/2000/svg">
<path fill-rule="evenodd" clip-rule="evenodd" d="M3.6329 4.7171C3.63457 4.7171 3.5929 4.76043 3.5404 4.8121C3.33874 5.00793 2.92124 5.41543 2.91703 6.26793C2.9104 7.46043 3.69457 9.6746 7.4704 13.4496C11.2287 17.2063 13.4396 17.9996 14.6346 17.9996H14.6521C15.5046 17.9954 15.9112 17.5771 16.1079 17.3763C16.1679 17.3146 16.2162 17.2696 16.2504 17.2413C17.0804 16.4063 17.5054 15.7846 17.5013 15.3863C17.4954 14.9796 16.9896 14.4988 16.2904 13.8338C16.0679 13.6221 15.8262 13.3921 15.5712 13.1371C14.9104 12.4779 14.5829 12.5904 13.8629 12.8438C12.8671 13.1929 11.5004 13.6679 9.37707 11.5438C7.2504 9.41877 7.72624 8.05377 8.07457 7.05793C8.32624 6.33793 8.44124 6.0096 7.77957 5.34793C7.5204 5.0896 7.2879 4.8446 7.07374 4.6196C6.4129 3.9246 5.93624 3.4221 5.53207 3.41627H5.5254C5.12624 3.41627 4.50624 3.84293 3.62874 4.72043C3.63124 4.71793 3.63207 4.7171 3.6329 4.7171ZM14.6354 19.2496C12.5587 19.2496 9.85124 17.5963 6.58707 14.3338C3.3104 11.0579 1.65457 8.3421 1.667 6.26127C1.67457 4.88627 2.3954 4.1821 2.66624 3.91793C2.6804 3.90043 2.72874 3.85293 2.7454 3.83627C3.9404 2.64043 4.74624 2.1571 5.5479 2.16614C6.47874 2.17877 7.14124 2.87543 7.97957 3.75793C8.18707 3.97627 8.41207 4.21377 8.66291 4.46377C9.87957 5.68043 9.53291 6.67293 9.25457 7.4696C8.95124 8.33877 8.68874 9.08877 10.2604 10.6604C11.8337 12.2321 12.5837 11.9696 13.4496 11.6638C14.2471 11.3854 15.2371 11.0371 16.4554 12.2538C16.7021 12.5004 16.9362 12.7229 17.1521 12.9288C18.0387 13.7713 18.7387 14.4371 18.7506 15.3704C18.7604 16.1663 18.2771 16.9771 17.0837 18.1713L16.5554 17.8129L17.0021 18.2496C16.7379 18.5204 16.0346 19.2421 14.6587 19.2496H14.6354Z" fill="#8BA1B1"/>
</svg>
