<svg width="30" height="39" viewBox="0 0 30 39" fill="none" xmlns="http://www.w3.org/2000/svg">
<path d="M12.5 30.1852V34.2761L16.1404 32.4099L15 30.1852C16.1404 32.4099 16.1413 32.4094 16.1423 32.409L16.1444 32.4079L16.1492 32.4054L16.1616 32.3989L16.1973 32.3802C16.2259 32.3651 16.2638 32.3448 16.3104 32.3194C16.4037 32.2684 16.5322 32.1966 16.6909 32.1039C17.0078 31.9187 17.4471 31.6491 17.968 31.295C19.0056 30.5897 20.3896 29.5338 21.7801 28.1238C24.5462 25.3187 27.5 20.9349 27.5 15.0295C27.5 8.1166 21.9105 2.5 15 2.5C8.0895 2.5 2.5 8.1166 2.5 15.0295C2.5 17.9728 3.24076 20.3466 4.48049 22.2117C5.71007 24.0615 7.33218 25.2642 8.87933 26.0401C10.1845 26.6946 11.4679 27.0622 12.5 27.2711V30.1852Z" fill="white"/>
<path d="M12.5 30.1852V34.2761L16.1404 32.4099L15 30.1852C16.1404 32.4099 16.1413 32.4094 16.1423 32.409L16.1444 32.4079L16.1492 32.4054L16.1616 32.3989L16.1973 32.3802C16.2259 32.3651 16.2638 32.3448 16.3104 32.3194C16.4037 32.2684 16.5322 32.1966 16.6909 32.1039C17.0078 31.9187 17.4471 31.6491 17.968 31.295C19.0056 30.5897 20.3896 29.5338 21.7801 28.1238C24.5462 25.3187 27.5 20.9349 27.5 15.0295C27.5 8.1166 21.9105 2.5 15 2.5C8.0895 2.5 2.5 8.1166 2.5 15.0295C2.5 17.9728 3.24076 20.3466 4.48049 22.2117C5.71007 24.0615 7.33218 25.2642 8.87933 26.0401C10.1845 26.6946 11.4679 27.0622 12.5 27.2711V30.1852Z" stroke="white" stroke-width="5"/>
<path d="M12.5 30.1852V34.2761L16.1404 32.4099L15 30.1852C16.1404 32.4099 16.1413 32.4094 16.1423 32.409L16.1444 32.4079L16.1492 32.4054L16.1616 32.3989L16.1973 32.3802C16.2259 32.3651 16.2638 32.3448 16.3104 32.3194C16.4037 32.2684 16.5322 32.1966 16.6909 32.1039C17.0078 31.9187 17.4471 31.6491 17.968 31.295C19.0056 30.5897 20.3896 29.5338 21.7801 28.1238C24.5462 25.3187 27.5 20.9349 27.5 15.0295C27.5 8.1166 21.9105 2.5 15 2.5C8.0895 2.5 2.5 8.1166 2.5 15.0295C2.5 17.9728 3.24076 20.3466 4.48049 22.2117C5.71007 24.0615 7.33218 25.2642 8.87933 26.0401C10.1845 26.6946 11.4679 27.0622 12.5 27.2711V30.1852Z" stroke="url(#paint0_radial_801_6547)" stroke-width="5"/>
<defs>
<radialGradient id="paint0_radial_801_6547" cx="0" cy="0" r="1" gradientUnits="userSpaceOnUse" gradientTransform="translate(4.03704 1.5405) rotate(58.7861) scale(40.4507 53.6033)">
<stop offset="0.151042" stop-color="#33A6FF"/>
<stop offset="0.907346" stop-color="#36C27F"/>
</radialGradient>
</defs>
</svg>
