<svg width="16" height="16" viewBox="0 0 16 16" fill="none" xmlns="http://www.w3.org/2000/svg">
<path fill-rule="evenodd" clip-rule="evenodd" d="M8.16602 1.33337C11.1987 1.33337 13.666 3.81937 13.666 6.87537C13.666 10.632 9.36202 14.3334 8.16602 14.3334C6.97002 14.3334 2.66602 10.632 2.66602 6.87537C2.66602 3.81937 5.13335 1.33337 8.16602 1.33337ZM8.16602 2.33337C5.68468 2.33337 3.66602 4.37137 3.66602 6.87537C3.66602 10.0614 7.41535 13.1654 8.16602 13.3307C8.91668 13.1647 12.666 10.0607 12.666 6.87537C12.666 4.37137 10.6473 2.33337 8.16602 2.33337ZM8.16668 4.66671C9.36135 4.66671 10.3333 5.63871 10.3333 6.83404C10.3333 8.02871 9.36135 9.00004 8.16668 9.00004C6.97202 9.00004 6.00002 8.02871 6.00002 6.83404C6.00002 5.63871 6.97202 4.66671 8.16668 4.66671ZM8.16668 5.66671C7.52335 5.66671 7.00002 6.19004 7.00002 6.83404C7.00002 7.47737 7.52335 8.00004 8.16668 8.00004C8.81002 8.00004 9.33335 7.47737 9.33335 6.83404C9.33335 6.19004 8.81002 5.66671 8.16668 5.66671Z" fill="#288FE6"/>
</svg>
