<svg width="31" height="30" viewBox="0 0 31 30" fill="none" xmlns="http://www.w3.org/2000/svg">
<g clip-path="url(#clip0_1166_8603)">
<path d="M16.1235 21.0346H2.22436C1.51473 21.0346 0.939453 20.4593 0.939453 19.7497V18.1325C0.939453 17.4228 1.51473 16.8476 2.22436 16.8476H16.1235C16.8331 16.8476 17.4084 17.4228 17.4084 18.1325V19.7497C17.4084 20.4593 16.8331 21.0346 16.1235 21.0346Z" fill="#F1E64C"/>
<path d="M4.89846 21.0347H2.22482C1.51479 21.0347 0.939453 20.4593 0.939453 19.75V18.1325C0.939453 17.4231 1.51484 16.8477 2.22482 16.8477H4.89846C4.18906 16.8477 3.61373 17.4231 3.61373 18.1325V19.75C3.61373 20.4593 4.18912 21.0347 4.89846 21.0347Z" fill="#FFC250"/>
<path d="M17.4084 18.7283V19.7502C17.4084 20.4598 16.833 21.0346 16.1234 21.0346H2.22441C1.51484 21.0346 0.939453 20.4598 0.939453 19.7502V18.7283C0.939453 19.4379 1.51484 20.0133 2.22441 20.0133H16.1234C16.833 20.0133 17.4084 19.4379 17.4084 18.7283Z" fill="#FFC250"/>
<path d="M18.5054 16.8477H4.60619C3.89656 16.8477 3.32129 16.2724 3.32129 15.5628V13.9456C3.32129 13.2359 3.89656 12.6607 4.60619 12.6607H18.5054C19.215 12.6607 19.7903 13.2359 19.7903 13.9456V15.5628C19.7903 16.2724 19.215 16.8477 18.5054 16.8477Z" fill="#F1E64C"/>
<path d="M7.28029 16.8479H4.60666C3.89662 16.8479 3.32129 16.2725 3.32129 15.5631V13.9456C3.32129 13.2362 3.89668 12.6609 4.60666 12.6609H7.28029C6.5709 12.6609 5.99557 13.2363 5.99557 13.9456V15.5631C5.99557 16.2725 6.5709 16.8479 7.28029 16.8479Z" fill="#FFC250"/>
<path d="M19.7902 14.5414V15.5633C19.7902 16.2729 19.2148 16.8477 18.5053 16.8477H4.60625C3.89668 16.8477 3.32129 16.2729 3.32129 15.5633V14.5414C3.32129 15.251 3.89668 15.8264 4.60625 15.8264H18.5053C19.2148 15.8264 19.7902 15.251 19.7902 14.5414Z" fill="#FFC250"/>
<path d="M16.8305 12.6607H2.93139C2.22176 12.6607 1.64648 12.0854 1.64648 11.3758V9.75857C1.64648 9.04894 2.22176 8.47366 2.93139 8.47366H16.8305C17.5402 8.47366 18.1154 9.04894 18.1154 9.75857V11.3758C18.1154 12.0854 17.5402 12.6607 16.8305 12.6607Z" fill="#F1E64C"/>
<path d="M5.60451 12.6609H2.93088C2.22084 12.6609 1.64551 12.0855 1.64551 11.3762V9.75867C1.64551 9.04927 2.2209 8.47394 2.93088 8.47394H5.60451C4.89512 8.47394 4.31979 9.04933 4.31979 9.75867V11.3762C4.31973 12.0855 4.89512 12.6609 5.60451 12.6609Z" fill="#FFC250"/>
<path d="M18.1145 10.3545V11.3763C18.1145 12.0859 17.5391 12.6607 16.8295 12.6607H2.93047C2.2209 12.6607 1.64551 12.0859 1.64551 11.3763V10.3545C1.64551 11.064 2.2209 11.6394 2.93047 11.6394H16.8295C17.5391 11.6394 18.1145 11.064 18.1145 10.3545Z" fill="#FFC250"/>
<path d="M17.2954 25.2216H3.39623C2.6866 25.2216 2.11133 24.6463 2.11133 23.9367V22.3195C2.11133 21.6099 2.6866 21.0346 3.39623 21.0346H17.2954C18.005 21.0346 18.5803 21.6099 18.5803 22.3195V23.9367C18.5803 24.6463 18.005 25.2216 17.2954 25.2216Z" fill="#F1E64C"/>
<path d="M18.5803 22.9153V23.9372C18.5803 24.6468 18.0049 25.2216 17.2953 25.2216H3.39629C2.68672 25.2216 2.11133 24.6468 2.11133 23.9372V22.9153C2.11133 23.6249 2.68672 24.2003 3.39629 24.2003H17.2953C18.0049 24.2003 18.5803 23.6249 18.5803 22.9153Z" fill="#FFC250"/>
<path d="M6.07033 25.2217H3.3967C2.68666 25.2217 2.11133 24.6463 2.11133 23.937V22.3195C2.11133 21.6101 2.68672 21.0347 3.3967 21.0347H6.07033C5.36094 21.0347 4.78561 21.6101 4.78561 22.3195V23.937C4.78561 24.6463 5.361 25.2217 6.07033 25.2217Z" fill="#FFC250"/>
<path d="M16.4165 29.4086H2.51732C1.8077 29.4086 1.23242 28.8333 1.23242 28.1237V26.5065C1.23242 25.7969 1.8077 25.2216 2.51732 25.2216H16.4165C17.1261 25.2216 17.7014 25.7969 17.7014 26.5065V28.1237C17.7014 28.8333 17.1261 29.4086 16.4165 29.4086Z" fill="#F1E64C"/>
<path d="M17.7014 27.1023V28.1242C17.7014 28.8337 17.126 29.4085 16.4164 29.4085H2.51738C1.80781 29.4085 1.23242 28.8337 1.23242 28.1242V27.1023C1.23242 27.8119 1.80781 28.3873 2.51738 28.3873H16.4164C17.126 28.3873 17.7014 27.8119 17.7014 27.1023Z" fill="#FFC250"/>
<path d="M5.19143 29.4087H2.51779C1.80775 29.4087 1.23242 28.8333 1.23242 28.124V26.5064C1.23242 25.797 1.80781 25.2217 2.51779 25.2217H5.19143C4.48203 25.2217 3.9067 25.7971 3.9067 26.5064V28.124C3.9067 28.8333 4.48209 29.4087 5.19143 29.4087Z" fill="#FFC250"/>
<path d="M21.8263 29.4088C26.374 29.4088 30.0607 25.7221 30.0607 21.1743C30.0607 16.6265 26.374 12.9398 21.8263 12.9398C17.2785 12.9398 13.5918 16.6265 13.5918 21.1743C13.5918 25.7221 17.2785 29.4088 21.8263 29.4088Z" fill="#F1E64C"/>
<path d="M22.5227 29.3793C22.2934 29.3991 22.0609 29.4086 21.8262 29.4086C17.2782 29.4086 13.5918 25.7222 13.5918 21.1743C13.5918 16.6263 17.2782 12.9399 21.8262 12.9399C22.061 12.9399 22.2934 12.9494 22.5227 12.9693C18.3 13.3223 14.984 16.8604 14.984 21.1743C14.984 25.4882 18.3 29.0262 22.5227 29.3793Z" fill="#FFC250"/>
<path d="M21.827 26.7346C24.8979 26.7346 27.3873 24.2452 27.3873 21.1743C27.3873 18.1034 24.8979 15.6139 21.827 15.6139C18.7561 15.6139 16.2666 18.1034 16.2666 21.1743C16.2666 24.2452 18.7561 26.7346 21.827 26.7346Z" fill="#FFC250"/>
<path d="M12.0638 18.1649V11.3859H13.2225C14.6294 11.3859 15.5086 9.86289 14.8051 8.64461L11.0911 2.21242C10.3877 0.994255 8.62942 0.994197 7.92595 2.21236L4.21151 8.64449C3.50798 9.86283 4.38718 11.3859 5.79407 11.3859H6.95341V18.1649C6.95341 18.8001 7.46827 19.3149 8.10343 19.3149H10.9138C11.5489 19.3149 12.0638 18.8 12.0638 18.1649Z" fill="#95D6A4"/>
<path d="M9.16144 19.3151H8.1033C7.46838 19.3151 6.95369 18.8004 6.95369 18.1655V11.3857H5.79394C4.38705 11.3857 3.50773 9.86297 4.21179 8.64439L7.92564 2.21238C8.27738 1.60342 8.89285 1.29926 9.50838 1.29926C9.09605 1.29926 8.68373 1.60342 8.44847 2.21238L5.96029 8.64439C5.48855 9.86297 6.07795 11.3857 7.02019 11.3857H7.49662C7.99045 11.3857 8.39082 11.7861 8.39082 12.2799V18.1648C8.39082 18.8 8.73605 19.3151 9.16144 19.3151Z" fill="#78C2A4"/>
<path d="M22.375 9.66113L22.3414 9.53568C22.2228 9.09329 22.4671 8.63462 22.9003 8.48609L24.233 8.02917C24.7103 7.86552 25.2264 8.14038 25.357 8.62777L25.4405 8.93943C25.5711 9.42681 25.2615 9.92292 24.7663 10.0198L23.3838 10.2905C22.9344 10.3785 22.4935 10.1035 22.375 9.66113Z" fill="#F7F493"/>
<path d="M20.2464 5.90662L20.1546 5.8148C19.8307 5.49096 19.8129 4.97164 20.1139 4.62641L21.0395 3.5644C21.3711 3.18401 21.9555 3.16397 22.3122 3.5208L22.5404 3.74897C22.8973 4.1058 22.8772 4.69016 22.4968 5.02168L21.4348 5.94734C21.0896 6.24828 20.5703 6.23047 20.2464 5.90662Z" fill="#F7F493"/>
<path d="M16.5252 3.71952L16.3997 3.68589C15.9574 3.56735 15.6823 3.1265 15.7703 2.67702L16.0409 1.2945C16.1378 0.799269 16.6339 0.489777 17.1213 0.620382L17.433 0.703878C17.9204 0.834484 18.1952 1.35058 18.0316 1.82788L17.5747 3.16054C17.4263 3.59384 16.9676 3.83806 16.5252 3.71952Z" fill="#F7F493"/>
<path d="M28.141 15.228C27.9746 15.0513 27.6964 15.0431 27.5197 15.2095C27.3431 15.3759 27.3348 15.654 27.5012 15.8307C28.8682 17.2819 29.6211 19.1796 29.6211 21.1742C29.6211 25.4726 26.1241 28.9695 21.8258 28.9695C17.5278 28.9695 14.0311 25.4726 14.0311 21.1742C14.0311 16.8762 17.5278 13.3795 21.8258 13.3795C23.4127 13.3795 24.9393 13.8534 26.2405 14.7498C26.4404 14.8874 26.7141 14.8371 26.8517 14.6372C26.9895 14.4374 26.939 14.1637 26.7392 14.026C25.2906 13.0281 23.5916 12.5006 21.8258 12.5006C21.1105 12.5006 20.4153 12.5883 19.7499 12.7523C19.4278 12.4153 18.9815 12.2212 18.5047 12.2212H18.3321C18.4734 11.9712 18.5545 11.6828 18.5545 11.3757V9.75853C18.5545 8.80767 17.7809 8.03412 16.8301 8.03412H14.9606L11.4725 1.99287C11.0624 1.28301 10.3284 0.859314 9.50873 0.859314C9.50861 0.859314 9.50838 0.859314 9.50826 0.859314C8.68912 0.85949 7.95559 1.28306 7.54619 1.99234L4.05752 8.03412H2.93105C1.9802 8.03412 1.20664 8.80767 1.20664 9.75853V11.3757C1.20664 12.3266 1.9802 13.1001 2.93105 13.1001H3.10361C2.96234 13.3502 2.88125 13.6386 2.88125 13.9456V15.5628C2.88125 15.8699 2.96234 16.1583 3.10361 16.4083H2.22441C1.27355 16.4083 0.5 17.1817 0.5 18.1322V19.7494C0.5 20.5932 1.10932 21.2968 1.911 21.4447C1.7593 21.7013 1.67188 22.0002 1.67188 22.3193V23.9365C1.67188 24.2836 1.77529 24.6068 1.95242 24.8776C1.2783 25.1121 0.792969 25.7535 0.792969 26.5064V28.1236C0.792969 29.0745 1.56652 29.848 2.51738 29.848H16.4164C17.0691 29.848 17.6492 29.4783 17.941 28.9282C19.1103 29.5165 20.43 29.8485 21.8258 29.8485C26.6088 29.8485 30.5 25.9572 30.5 21.1742C30.5 18.9546 29.6622 16.8429 28.141 15.228ZM2.55078 23.9365V22.3193C2.55078 21.8531 2.93006 21.4738 3.39629 21.4738H13.1579C13.198 22.6506 13.4735 23.7685 13.9389 24.782H3.39629C2.93006 24.782 2.55078 24.4028 2.55078 23.9365ZM18.6318 13.1101C16.9683 13.7713 15.5565 14.9331 14.5826 16.4084H12.5041V13.1002H16.8301H18.5047C18.5477 13.1002 18.5901 13.1038 18.6318 13.1101ZM17.6756 9.75859V11.3758C17.6756 11.842 17.2963 12.2213 16.8301 12.2213H12.5041V11.8256H13.223C14.0427 11.8256 14.7767 11.4017 15.1865 10.6917C15.5056 10.1388 15.5749 9.50265 15.3969 8.91303H16.8301C17.2963 8.91308 17.6756 9.29236 17.6756 9.75859ZM2.08555 11.3758V9.75859C2.08555 9.29236 2.46482 8.91308 2.93105 8.91308H3.62094C3.51049 9.28123 3.4952 9.67164 3.58051 10.0502C3.63383 10.2869 3.86908 10.4356 4.1058 10.3823C4.34258 10.3289 4.49129 10.0937 4.43791 9.85697C4.38441 9.61949 4.36789 9.25451 4.59307 8.86433L8.30738 2.43185C8.55799 1.99767 9.00699 1.7384 9.5085 1.73828H9.50873C10.0107 1.73828 10.4604 1.99779 10.7114 2.4325L14.4252 8.86439C14.6761 9.29881 14.6762 9.81771 14.4253 10.2524C14.1743 10.6871 13.7249 10.9467 13.223 10.9467H12.0646C11.822 10.9467 11.6252 11.1435 11.6252 11.3862V18.1649C11.6252 18.5567 11.3064 18.8756 10.9145 18.8756H8.1043C7.71242 18.8756 7.39355 18.5568 7.39355 18.1649V11.3862C7.39355 11.1435 7.1968 10.9467 6.9541 10.9467H5.79512C5.62818 10.9467 5.46717 10.9189 5.31658 10.8642C5.08836 10.7812 4.83635 10.8989 4.75344 11.127C4.67047 11.3551 4.78813 11.6072 5.01623 11.6901C5.26338 11.78 5.52541 11.8256 5.79512 11.8256H6.51465V12.2213H4.60566H2.93105C2.46482 12.2213 2.08555 11.842 2.08555 11.3758ZM3.76016 15.5629V13.9457C3.76016 13.4795 4.13943 13.1002 4.60566 13.1002H6.51465V16.4084H4.60566C4.13943 16.4084 3.76016 16.0291 3.76016 15.5629ZM1.37891 19.7494V18.1322C1.37891 17.6663 1.75818 17.2873 2.22441 17.2873H4.60566H6.51465V18.1649C6.51465 19.0414 7.22773 19.7545 8.1043 19.7545H10.9145C11.791 19.7545 12.5041 19.0414 12.5041 18.1649V17.2873H14.0734C13.5666 18.2941 13.2504 19.4124 13.172 20.5949H3.39629H2.22441C1.75818 20.5949 1.37891 20.2156 1.37891 19.7494ZM16.4164 28.9691H2.51738C2.05115 28.9691 1.67188 28.5899 1.67188 28.1236V26.5064C1.67188 26.0402 2.05115 25.6609 2.51738 25.6609H3.39629H14.405C15.0988 26.8043 16.0493 27.7753 17.1758 28.4936C17.0376 28.7766 16.7462 28.9691 16.4164 28.9691Z" fill="black"/>
<path d="M22.694 20.7182C22.5385 20.6729 22.3792 20.6253 22.2204 20.5756V18.6284C22.6922 18.6981 22.9741 18.8968 22.9953 18.9123C23.1885 19.0566 23.4622 19.0183 23.6083 18.826C23.7551 18.6327 23.7174 18.357 23.5241 18.2102C23.4958 18.1887 23.0102 17.8289 22.2204 17.744V17.3644C22.2204 17.1217 22.0237 16.9249 21.781 16.9249C21.5382 16.9249 21.3415 17.1217 21.3415 17.3644V17.7722C21.2567 17.7865 21.1701 17.8044 21.0816 17.8263C20.3407 18.0101 19.7876 18.5754 19.6724 19.2664C19.5753 19.8493 19.8131 20.4039 20.293 20.714C20.557 20.8845 20.8871 21.0408 21.3415 21.2067V23.6732C20.8853 23.654 20.5837 23.5772 20.0874 23.3098C19.8737 23.1946 19.6072 23.2746 19.4921 23.4882C19.377 23.7019 19.4569 23.9684 19.6706 24.0836C20.3266 24.437 20.7514 24.5319 21.3416 24.5527V24.9842C21.3416 25.2269 21.5383 25.4237 21.781 25.4237C22.0238 25.4237 22.2205 25.2269 22.2205 24.9842V24.5241C23.3782 24.3512 24.0837 23.5293 24.197 22.7188C24.3245 21.8064 23.7345 21.0211 22.694 20.7182ZM20.7699 19.9756C20.5053 19.8048 20.5206 19.5237 20.5394 19.4108C20.5851 19.1363 20.8072 18.7999 21.2932 18.6793C21.3095 18.6753 21.3254 18.672 21.3415 18.6683V20.2638C21.1236 20.1731 20.9272 20.0772 20.7699 19.9756ZM23.3265 22.5971C23.2647 23.0386 22.873 23.4855 22.2204 23.6299V21.4947C22.2942 21.5168 22.3697 21.5392 22.4482 21.5621C23.0729 21.7439 23.393 22.1211 23.3265 22.5971Z" fill="black"/>
<path d="M21.8259 15.1744C18.5176 15.1744 15.8262 17.8659 15.8262 21.1743C15.8262 24.4826 18.5176 27.174 21.8259 27.174C25.1343 27.174 27.8257 24.4825 27.8257 21.1742C27.8257 17.8659 25.1343 15.1744 21.8259 15.1744ZM21.8259 26.2951C19.0023 26.2951 16.7051 23.9979 16.7051 21.1742C16.7051 18.3505 19.0023 16.0533 21.8259 16.0533C24.6496 16.0533 26.9468 18.3505 26.9468 21.1742C26.9468 23.9979 24.6496 26.2951 21.8259 26.2951Z" fill="black"/>
<path d="M21.9165 9.64933L21.9501 9.77478C21.9502 9.77478 21.9502 9.77484 21.9502 9.77484C22.1057 10.3552 22.6359 10.7462 23.2174 10.7462C23.3002 10.7462 23.384 10.7382 23.4679 10.7218L24.8504 10.4511C25.2056 10.3816 25.5191 10.1657 25.7107 9.85869C25.9022 9.55171 25.9583 9.17519 25.8646 8.82574L25.7812 8.51396C25.6875 8.16445 25.4506 7.86644 25.1312 7.6964C24.8118 7.5263 24.4324 7.49612 24.0901 7.61343L22.7575 8.07029C22.1083 8.29294 21.7389 8.98652 21.9165 9.64933ZM23.0426 8.90179L24.3752 8.44493C24.4895 8.40568 24.6114 8.4154 24.7181 8.47224C24.8249 8.52908 24.901 8.62476 24.9322 8.74154L25.0157 9.05331C25.047 9.17009 25.029 9.29091 24.965 9.39357C24.901 9.49623 24.8003 9.56548 24.6817 9.58875L23.2991 9.85939C23.0765 9.90281 22.8577 9.76582 22.7992 9.5475L22.7656 9.42199C22.707 9.20355 22.8287 8.97509 23.0426 8.90179Z" fill="black"/>
<path d="M19.9352 6.21738C20.1893 6.47145 20.5255 6.59983 20.8626 6.59983C21.1693 6.59983 21.4766 6.49342 21.7231 6.27861L22.7851 5.35295C23.0579 5.11524 23.2214 4.77147 23.2339 4.40982C23.2463 4.04818 23.1066 3.69404 22.8508 3.43822L22.6225 3.21C22.3667 2.95418 22.0128 2.81414 21.6509 2.82691C21.2893 2.83928 20.9455 3.00287 20.7078 3.27563L19.7821 4.33764C19.3313 4.85496 19.3582 5.64029 19.8434 6.12557L19.9352 6.21738ZM20.4447 4.91514L21.3705 3.85313C21.4498 3.76195 21.5602 3.70945 21.6811 3.70535C21.6862 3.70518 21.6914 3.70506 21.6965 3.70506C21.8116 3.70506 21.9193 3.74965 22.0012 3.8315L22.2294 4.05973C22.3149 4.14522 22.3597 4.25889 22.3555 4.37977C22.3514 4.50065 22.2989 4.61098 22.2078 4.69043L21.1457 5.61609C20.9754 5.76457 20.7167 5.75572 20.5568 5.59588L20.465 5.50412C20.3051 5.34422 20.2962 5.08553 20.4447 4.91514Z" fill="black"/>
<path d="M16.2849 4.11048L16.4102 4.14405C16.5225 4.17411 16.6357 4.18852 16.7472 4.18852C17.2945 4.18852 17.8044 3.84235 17.9892 3.30311L18.4461 1.97051C18.5635 1.62821 18.5332 1.24876 18.3631 0.929362C18.193 0.610026 17.895 0.373131 17.5456 0.279498L17.2339 0.196002C16.8843 0.102311 16.5079 0.158444 16.2008 0.350045C15.8939 0.541588 15.6779 0.855123 15.6084 1.2102L15.3378 2.59278C15.206 3.26614 15.622 3.93282 16.2849 4.11048ZM16.2004 2.76153L16.471 1.37901C16.4942 1.26036 16.5635 1.15969 16.6661 1.09571C16.7358 1.05223 16.8139 1.02997 16.8935 1.02997C16.9311 1.02997 16.9689 1.03495 17.0064 1.04497L17.3181 1.12846C17.4349 1.15975 17.5306 1.23581 17.5874 1.34251C17.6443 1.44926 17.654 1.57108 17.6148 1.68551L17.1579 3.01811C17.0846 3.23192 16.8562 3.3535 16.6378 3.29514C16.6378 3.29514 16.6378 3.29514 16.6377 3.29514L16.5123 3.26157C16.2939 3.20298 16.1569 2.98337 16.2004 2.76153Z" fill="black"/>
</g>
<defs>
<clipPath id="clip0_1166_8603">
<rect width="30" height="30" fill="white" transform="translate(0.5)"/>
</clipPath>
</defs>
</svg>
