<svg width="30" height="30" viewBox="0 0 30 30" fill="none" xmlns="http://www.w3.org/2000/svg">
<path d="M15.2806 2.65392C11.2689 2.5079 7.25774 2.64865 3.24655 3.07548C2.13073 3.1939 1.2571 4.08752 1.16797 5.20562C0.589844 12.4551 0.589844 19.7046 1.16797 26.9547C1.2571 28.0729 2.13073 28.9664 3.24655 29.0849C9.22956 29.7216 15.2131 29.7216 21.1967 29.0849C22.312 28.9664 23.1862 28.0728 23.2753 26.9547C23.7069 21.5399 23.8165 16.1256 23.6031 10.7113" fill="#F9F6F6"/>
<path d="M23.6027 10.7112C21.6309 10.6403 19.659 10.4996 17.6866 10.2897C16.5714 10.1713 15.6971 9.27764 15.608 8.15954C15.4614 6.32431 15.3523 4.48903 15.2803 2.65381C17.2521 2.72465 23.5306 8.87595 23.6027 10.7112Z" fill="#EEF2F4"/>
<path d="M3.8524 14.1722C3.11301 14.1722 2.51367 13.5728 2.51367 12.8334C2.51367 12.7317 2.52504 12.6326 2.54655 12.5373C2.72023 11.7681 3.85245 11.8943 3.85245 12.6828H12.4204C12.4204 11.8942 13.5527 11.7681 13.7264 12.5373C13.7479 12.6326 13.7592 12.7317 13.7592 12.8334C13.7592 13.5728 13.1598 14.1722 12.4205 14.1722" fill="#FFA564"/>
<path d="M9.29815 16.6329H6.97498C5.25051 16.6329 3.85254 15.235 3.85254 13.5105V9.10682L8.13668 6.47314L12.4206 9.10682V13.5105C12.4206 15.235 11.0226 16.6329 9.29815 16.6329Z" fill="#C38959"/>
<path d="M12.4208 7.60011V9.43715C12.4208 9.43715 11.7962 8.40899 10.8077 8.40899C9.81967 8.40899 9.41739 9.62999 8.13668 9.62999C6.85638 9.62999 6.45363 8.40899 5.46562 8.40899C4.4776 8.40899 3.85254 9.43715 3.85254 9.43715V7.60011C3.85254 6.42264 4.80733 5.46826 5.98479 5.46826H10.2886C11.4661 5.46826 12.4208 6.42264 12.4208 7.60011Z" fill="#536D82"/>
<path d="M5.98479 5.46826H8.04667C6.8692 5.46826 5.91442 6.42264 5.91442 7.60011V8.49818C5.77659 8.44227 5.62899 8.40899 5.46562 8.40899C4.47754 8.40899 3.85254 9.43715 3.85254 9.43715V7.60011C3.85254 6.42264 4.80733 5.46826 5.98479 5.46826Z" fill="#536D82"/>
<path d="M9.02578 16.6332H6.97498C5.25056 16.6332 3.85254 15.2352 3.85254 13.5112V9.43734C3.85254 9.43734 4.47754 8.40918 5.46562 8.40918C5.62477 8.40918 5.76892 8.44076 5.90375 8.49409V13.5112C5.90375 15.2352 7.30137 16.6332 9.02578 16.6332Z" fill="#FFA564"/>
<path d="M23.6087 11.7507C26.7323 11.7507 29.2644 9.21859 29.2644 6.09507C29.2644 2.97156 26.7323 0.439453 23.6087 0.439453C20.4852 0.439453 17.9531 2.97156 17.9531 6.09507C17.9531 9.21859 20.4852 11.7507 23.6087 11.7507Z" fill="#73CCA1"/>
<path d="M24.2477 11.7151C24.0383 11.7389 23.8249 11.7508 23.609 11.7508C20.4853 11.7508 17.9531 9.21863 17.9531 6.0949C17.9531 2.97164 20.4853 0.439453 23.609 0.439453C23.8248 0.439453 24.0383 0.451348 24.2477 0.475081C21.4248 0.792329 19.2304 3.18739 19.2304 6.09484C19.2304 9.00287 21.4248 11.3979 24.2477 11.7151Z" fill="#73CCA1"/>
<path d="M21.9502 9.40621L20.182 6.44819C20.0116 6.16317 20.1045 5.79395 20.3896 5.6236L21.2816 5.09037C21.5666 4.91996 21.9359 5.0129 22.1062 5.29798L23.0035 6.79902L24.8465 3.08093C24.994 2.78343 25.3547 2.66178 25.6523 2.80927L26.5834 3.27079C26.8809 3.41828 27.0026 3.77901 26.8551 4.07657L24.2582 9.31556C24.1605 9.51268 23.9629 9.64071 23.7431 9.64933L22.49 9.69861C22.2701 9.70716 22.0631 9.59507 21.9502 9.40621Z" fill="#F9F6F6"/>
<path d="M29.7036 6.0951C29.7036 2.73429 26.9694 0 23.6086 0C21.1326 0 18.9968 1.48416 18.0437 3.6095C16.8516 2.70868 15.9299 2.23961 15.3005 2.21529C15.2991 2.21517 15.2979 2.21476 15.2966 2.2147C11.2842 2.06873 7.21447 2.21119 3.2004 2.63819C1.87492 2.77947 0.83616 3.8446 0.730509 5.1709C0.224751 11.5132 0.161056 17.942 0.541238 24.2787C0.555243 24.5121 0.748791 24.6919 0.97949 24.6919C0.988339 24.6919 0.997245 24.6916 1.00621 24.6911C1.24851 24.6766 1.4331 24.4684 1.41856 24.2261C1.0409 17.93 1.10413 11.5424 1.60666 5.24069C1.6788 4.33559 2.38824 3.60863 3.29352 3.51217C7.13085 3.10398 11.0194 2.95936 14.8587 3.08007C14.9304 4.77976 15.0349 6.49802 15.1705 8.19437C15.2763 9.52137 16.3153 10.5864 17.6406 10.7268C18.388 10.8066 19.1513 10.8771 19.9116 10.9374C20.8395 11.6475 21.9764 12.0972 23.2126 12.1768C23.3531 17.0742 23.2275 22.0316 22.837 26.9193C22.765 27.8248 22.0558 28.5518 21.1507 28.6479C15.2259 29.2786 9.21792 29.2786 3.29334 28.6479C2.38812 28.5519 1.67874 27.825 1.60666 26.9196C1.58393 26.6327 1.55744 26.2928 1.53312 25.9461C1.51613 25.704 1.30524 25.5214 1.06399 25.5384C0.821862 25.5554 0.639331 25.7655 0.656324 26.0076C0.680876 26.3577 0.707597 26.7001 0.73045 26.9891C0.836102 28.3161 1.87498 29.3813 3.20046 29.5218C6.19381 29.8405 9.20732 29.9999 12.2219 29.9998C15.2358 29.9998 18.2507 29.8405 21.2436 29.5218C22.5689 29.3811 23.6075 28.316 23.7132 26.9892C24.1057 22.0765 24.2324 17.0935 24.0917 12.1709C27.2276 11.9239 29.7036 9.29331 29.7036 6.0951ZM16.0468 8.12446C15.9168 6.49837 15.8152 4.85178 15.7441 3.22141C16.132 3.37828 16.7638 3.72412 17.7317 4.47769C17.5897 4.993 17.5135 5.53526 17.5135 6.0951C17.5135 7.56526 18.0367 8.91553 18.9067 9.96947C18.5132 9.93314 18.1213 9.89423 17.7337 9.8528C16.8284 9.75694 16.1189 9.03009 16.0468 8.12446ZM23.6086 11.3112C20.7324 11.3112 18.3924 8.97132 18.3924 6.0951C18.3924 3.21889 20.7324 0.878966 23.6086 0.878966C26.4847 0.878966 28.8247 3.21895 28.8247 6.0951C28.8247 8.97126 26.4847 11.3112 23.6086 11.3112Z" fill="#2B3B47"/>
<path d="M26.7791 2.87662L25.8482 2.41557C25.599 2.29199 25.3166 2.27283 25.053 2.36184C24.7896 2.45073 24.5764 2.63684 24.4528 2.88605L22.9681 5.88233L22.4836 5.07216C22.1891 4.58017 21.5489 4.41909 21.0565 4.71331L20.1644 5.24666C19.9262 5.38935 19.7574 5.61618 19.6894 5.88538C19.6212 6.15528 19.6623 6.43532 19.805 6.67369L21.5737 9.63206C21.7626 9.9472 22.1017 10.1386 22.4659 10.1385C22.4798 10.1385 22.4938 10.1383 22.5077 10.1377L23.7614 10.0885C24.1427 10.0732 24.4842 9.85139 24.6521 9.51059L25.8264 7.14207C25.9342 6.92461 25.8453 6.66092 25.6278 6.5531C25.4104 6.44522 25.1467 6.53417 25.0388 6.75163L23.8641 9.1212C23.8382 9.17377 23.7853 9.20793 23.7265 9.21027L22.4728 9.2595C22.4141 9.26178 22.3583 9.23149 22.3279 9.18074L20.5593 6.22249C20.5296 6.17298 20.5355 6.12504 20.5415 6.1009C20.5477 6.07647 20.5656 6.03105 20.6158 6.00099L21.5075 5.46781C21.5843 5.4221 21.6837 5.44718 21.7294 5.52354L22.6271 7.02481C22.7096 7.16281 22.8602 7.2452 23.0216 7.2384C23.1822 7.23207 23.3266 7.13849 23.398 6.9944L25.2402 3.27655C25.2663 3.22404 25.3101 3.20277 25.3339 3.19475C25.3577 3.18666 25.4053 3.17717 25.4578 3.20318L26.3887 3.66423C26.4686 3.7039 26.5014 3.80135 26.4615 3.8818L25.82 5.17652C25.7121 5.39398 25.8009 5.65767 26.0184 5.76555C26.2359 5.87342 26.4995 5.78453 26.6074 5.56713L27.249 4.27206C27.5042 3.75775 27.2935 3.13181 26.7791 2.87662Z" fill="#2B3B47"/>
<path d="M6.12831 12.7576C6.35343 12.7576 6.53592 12.4556 6.53592 12.0832C6.53592 11.7107 6.35343 11.4087 6.12831 11.4087C5.9032 11.4087 5.7207 11.7107 5.7207 12.0832C5.7207 12.4556 5.9032 12.7576 6.12831 12.7576Z" fill="#2B3B47"/>
<path d="M10.1459 12.7576C10.371 12.7576 10.5535 12.4556 10.5535 12.0832C10.5535 11.7107 10.371 11.4087 10.1459 11.4087C9.92077 11.4087 9.73828 11.7107 9.73828 12.0832C9.73828 12.4556 9.92077 12.7576 10.1459 12.7576Z" fill="#2B3B47"/>
<path d="M8.40079 14.0667C8.25547 14.2121 8.01873 14.2122 7.87329 14.0667C7.7016 13.8951 7.42338 13.8951 7.25175 14.0667C7.08012 14.2383 7.08018 14.5166 7.25175 14.6883C7.49587 14.9323 7.81645 15.0543 8.13698 15.0543C8.45757 15.0543 8.77816 14.9323 9.02222 14.6882C9.19385 14.5166 9.19385 14.2383 9.02222 14.0667C8.8507 13.8951 8.57242 13.8951 8.40079 14.0667Z" fill="#2B3B47"/>
<path d="M10.2894 5.02881H5.98542C4.56747 5.02881 3.41392 6.18242 3.41392 7.60031V11.6048C3.38134 11.5984 3.34817 11.5931 3.31436 11.5893C2.73835 11.5253 2.24654 11.8751 2.11885 12.4407C2.0899 12.569 2.0752 12.7012 2.0752 12.8336C2.0752 13.7218 2.72985 14.46 3.58204 14.5911C4.04068 16.0285 5.38843 17.0725 6.97584 17.0725H9.29907C10.8865 17.0725 12.2343 16.0284 12.6929 14.591C13.5451 14.4599 14.1997 13.7217 14.1997 12.8335C14.1997 12.7011 14.185 12.569 14.156 12.4406C14.0283 11.8751 13.5368 11.5252 12.9605 11.5892C12.9266 11.593 12.8935 11.5984 12.8609 11.6048V7.60037C12.8609 6.18242 11.7073 5.02881 10.2894 5.02881ZM5.98542 5.90777H10.2894C11.2227 5.90777 11.9819 6.66708 11.9819 7.60031V8.35933C11.6694 8.14258 11.2744 7.96954 10.8087 7.96954C10.1925 7.96954 9.76217 8.31356 9.38245 8.6171C8.99752 8.9248 8.6651 9.19054 8.1376 9.19054C7.60987 9.19054 7.27739 8.92474 6.8924 8.61693C6.64242 8.41711 6.38395 8.21043 6.06635 8.08521C5.87227 8.00845 5.67046 7.96948 5.46654 7.96948C5.00063 7.96948 4.60545 8.14269 4.29289 8.35956V7.60037C4.29289 6.66708 5.05214 5.90777 5.98542 5.90777ZM2.95416 12.8336C2.95416 12.7662 2.9616 12.6991 2.97619 12.6343C3.01417 12.4661 3.1432 12.4548 3.21691 12.4629C3.29051 12.4711 3.41392 12.5106 3.41392 12.683H3.41404V13.5108C3.41404 13.5471 3.41568 13.583 3.41679 13.6191C3.14115 13.4653 2.95416 13.171 2.95416 12.8336ZM9.29907 16.1937H6.97584C5.49648 16.1937 4.293 14.9901 4.293 13.5108V9.57394C4.4521 9.35953 4.89175 8.8485 5.46654 8.8485C5.56059 8.8485 5.65101 8.8662 5.74347 8.90276C5.93849 8.97964 6.13526 9.13698 6.34357 9.30351C6.77046 9.64479 7.30176 10.0695 8.13766 10.0695C8.97326 10.0695 9.50451 9.64485 9.93134 9.30363C10.2843 9.02148 10.5156 8.8485 10.8087 8.8485C11.3837 8.8485 11.8235 9.35989 11.982 9.57336V13.5108C11.9819 14.9901 10.7784 16.1937 9.29907 16.1937ZM13.0579 12.4629C13.1315 12.4548 13.2607 12.4661 13.2987 12.6342C13.3133 12.6991 13.3207 12.7662 13.3207 12.8336C13.3207 13.171 13.1337 13.4652 12.8581 13.6191C12.8592 13.583 12.8609 13.5471 12.8609 13.5108V12.683C12.8609 12.5106 12.9843 12.4711 13.0579 12.4629Z" fill="#2B3B47"/>
<path d="M15.5039 12.9605H21.888C22.1308 12.9605 22.3275 12.7637 22.3275 12.521C22.3275 12.2783 22.1308 12.0815 21.888 12.0815H15.5039C15.2612 12.0815 15.0645 12.2783 15.0645 12.521C15.0645 12.7637 15.2612 12.9605 15.5039 12.9605Z" fill="#2B3B47"/>
<path d="M15.5039 15.0166H21.888C22.1308 15.0166 22.3275 14.8199 22.3275 14.5772C22.3275 14.3345 22.1308 14.1377 21.888 14.1377H15.5039C15.2612 14.1377 15.0645 14.3345 15.0645 14.5772C15.0645 14.8199 15.2612 15.0166 15.5039 15.0166Z" fill="#2B3B47"/>
<path d="M15.5039 17.0723H19.168C19.4108 17.0723 19.6075 16.8755 19.6075 16.6328C19.6075 16.3901 19.4108 16.1934 19.168 16.1934H15.5039C15.2612 16.1934 15.0645 16.3901 15.0645 16.6328C15.0645 16.8755 15.2612 17.0723 15.5039 17.0723Z" fill="#2B3B47"/>
<path d="M5.30762 19.5274C5.30762 19.7701 5.50439 19.9668 5.7471 19.9668H21.8884C22.1311 19.9668 22.3279 19.7701 22.3279 19.5274C22.3279 19.2847 22.1311 19.0879 21.8884 19.0879H5.7471C5.50439 19.0879 5.30762 19.2847 5.30762 19.5274Z" fill="#2B3B47"/>
<path d="M3.24905 22.1304H13.8168C14.0595 22.1304 14.2563 21.9337 14.2563 21.6909C14.2563 21.4482 14.0595 21.2515 13.8168 21.2515H3.24905C3.00634 21.2515 2.80957 21.4482 2.80957 21.6909C2.80957 21.9337 3.00634 22.1304 3.24905 22.1304Z" fill="#2B3B47"/>
<path d="M22.3279 23.855C22.3279 23.6123 22.1312 23.4155 21.8884 23.4155H5.7471C5.50439 23.4155 5.30762 23.6123 5.30762 23.855C5.30762 24.0977 5.50439 24.2945 5.7471 24.2945H21.8884C22.1311 24.2945 22.3279 24.0977 22.3279 23.855Z" fill="#2B3B47"/>
<path d="M3.24905 26.4581H19.7413C19.9841 26.4581 20.1808 26.2613 20.1808 26.0186C20.1808 25.7759 19.9841 25.5791 19.7413 25.5791H3.24905C3.00634 25.5791 2.80957 25.7759 2.80957 26.0186C2.80957 26.2613 3.00634 26.4581 3.24905 26.4581Z" fill="#2B3B47"/>
</svg>
