<svg width="17" height="16" viewBox="0 0 17 16" fill="none" xmlns="http://www.w3.org/2000/svg">
<path d="M2.5 6.5H5.5V13H2.5C2.36739 13 2.24021 12.9473 2.14645 12.8536C2.05268 12.7598 2 12.6326 2 12.5V7C2 6.86739 2.05268 6.74021 2.14645 6.64645C2.24021 6.55268 2.36739 6.5 2.5 6.5V6.5Z" stroke="#8BA1B1" stroke-linecap="round" stroke-linejoin="round"/>
<path d="M5.5 6.5L8 1.5C8.26264 1.5 8.52272 1.55173 8.76537 1.65224C9.00802 1.75275 9.2285 1.90007 9.41421 2.08579C9.59993 2.2715 9.74725 2.49198 9.84776 2.73463C9.94827 2.97728 10 3.23736 10 3.5V5H13.8672C14.009 5 14.1492 5.03015 14.2784 5.08846C14.4077 5.14677 14.5231 5.2319 14.6169 5.3382C14.7107 5.4445 14.7809 5.56954 14.8227 5.70502C14.8645 5.84051 14.8771 5.98334 14.8595 6.12403L14.1095 12.124C14.0793 12.3659 13.9617 12.5884 13.779 12.7497C13.5963 12.911 13.361 13 13.1172 13H5.5" stroke="#8BA1B1" stroke-linecap="round" stroke-linejoin="round"/>
</svg>
