<svg width="17" height="16" viewBox="0 0 17 16" fill="none" xmlns="http://www.w3.org/2000/svg">
<path d="M2.5 9.5L5.5 9.5L5.5 3L2.5 3C2.36739 3 2.24022 3.05268 2.14645 3.14645C2.05268 3.24021 2 3.36739 2 3.5L2 9C2 9.13261 2.05268 9.25979 2.14645 9.35355C2.24021 9.44732 2.36739 9.5 2.5 9.5V9.5Z" stroke="#8BA1B1" stroke-linecap="round" stroke-linejoin="round"/>
<path d="M5.5 9.5L8 14.5C8.26264 14.5 8.52272 14.4483 8.76537 14.3478C9.00802 14.2473 9.2285 14.0999 9.41421 13.9142C9.59993 13.7285 9.74725 13.508 9.84776 13.2654C9.94827 13.0227 10 12.7626 10 12.5L10 11L13.8672 11C14.009 11 14.1492 10.9698 14.2784 10.9115C14.4077 10.8532 14.5231 10.7681 14.6169 10.6618C14.7107 10.5555 14.7809 10.4305 14.8227 10.295C14.8645 10.1595 14.8771 10.0167 14.8595 9.87597L14.1095 3.87597C14.0793 3.63411 13.9617 3.41163 13.779 3.25032C13.5963 3.08902 13.361 3 13.1172 3L5.5 3" stroke="#8BA1B1" stroke-linecap="round" stroke-linejoin="round"/>
</svg>
