<svg width="29" height="30" viewBox="0 0 29 30" fill="none" xmlns="http://www.w3.org/2000/svg">
<path d="M26.8831 0.439453H19.1709C18.3538 0.439453 17.6914 1.10186 17.6914 1.91895V9.63117C17.6914 10.4483 18.3538 11.1107 19.1709 11.1107H20.5546C20.9575 11.1107 21.2841 11.4373 21.2841 11.8402V13.0879C21.2841 13.35 21.616 13.4636 21.7766 13.2565L23.2309 11.3826C23.364 11.211 23.5689 11.1107 23.786 11.1107H26.8831C27.7002 11.1107 28.3626 10.4483 28.3626 9.63117V1.91895C28.3626 1.10186 27.7002 0.439453 26.8831 0.439453Z" fill="#FAC600"/>
<path d="M26.8825 0.439453H25.2842C26.1013 0.439453 26.7637 1.10186 26.7637 1.91895V9.63117C26.7637 10.4483 26.1013 11.1107 25.2842 11.1107H26.8825C27.6996 11.1107 28.362 10.4483 28.362 9.63117V1.91895C28.362 1.10186 27.6996 0.439453 26.8825 0.439453Z" fill="#FFA564"/>
<path d="M17.3118 29.5605H1.73242L1.94682 26.618C2.07813 24.8173 3.43357 23.3451 5.21787 23.066L6.45156 22.8725C7.07887 22.7749 7.54064 22.2345 7.54064 21.6002V17.0713H12.1697V21.6002C12.1697 22.2345 12.6321 22.7749 13.2588 22.8725L14.4931 23.066C16.2768 23.3451 17.6329 24.8173 17.7636 26.6181L17.9296 28.8963C17.9557 29.2551 17.6716 29.5605 17.3118 29.5605Z" fill="#FAA68E"/>
<path d="M6.47641 25.6813C6.53002 25.4751 6.71605 25.3312 6.92904 25.3312H8.87365C9.92705 25.3312 10.781 24.4773 10.781 23.4239V22.6222C10.781 22.4344 10.9332 22.2823 11.121 22.2823H12.3664C12.2418 22.0832 12.1697 21.8491 12.1697 21.6V20.2526H8.08082C7.86197 20.2526 7.73389 20.0065 7.85945 19.8276L8.67895 18.6566C8.80645 18.4752 8.86416 18.2653 8.85719 18.0585C8.84957 17.7617 8.70813 17.4718 8.44938 17.284L8.42846 17.2688C8.16092 17.0747 7.8335 17.0279 7.54064 17.1113V21.5999C7.54064 22.2342 7.07887 22.7746 6.45156 22.8723L5.21781 23.0658C4.38373 23.1963 3.6434 23.5875 3.07797 24.1512L1.75598 29.237L1.73242 29.5602H5.46807L6.47641 25.6813Z" fill="#E09380"/>
<path d="M17.3118 29.5607H1.73242L1.94682 26.6182C2.07813 24.8175 3.43357 23.3453 5.21787 23.0662L6.45156 22.8727C6.5391 22.8588 6.62348 22.8366 6.70398 22.8068C7.46576 23.6307 8.58467 24.1515 9.83166 24.1515C11.0857 24.1515 12.2096 23.6257 12.9721 22.7935C13.0621 22.8303 13.1586 22.8569 13.2588 22.8727L14.4931 23.0662C16.2767 23.3453 17.6328 24.8175 17.7635 26.6183L17.9296 28.8965C17.9556 29.2548 17.6714 29.5607 17.3118 29.5607Z" fill="#20AA68"/>
<path d="M6.92904 25.3316H8.87365C9.70029 25.3316 10.4039 24.8056 10.6686 24.0702C10.3981 24.1226 10.1185 24.1514 9.83166 24.1514C8.58467 24.1514 7.46576 23.6306 6.70398 22.8066C5.95844 23.0831 4.40863 22.8252 3.07797 24.1515L1.75598 29.2373L1.73242 29.5606H5.46807L6.47646 25.6815C6.52996 25.4755 6.71605 25.3316 6.92904 25.3316Z" fill="#36C27F"/>
<path d="M17.9289 28.8964L17.7629 26.6182C17.6982 25.7265 17.3319 24.9062 16.7475 24.2716C15.4167 22.8263 13.7641 23.0699 13.0336 22.8167C13.0308 22.8157 13.0281 22.8146 13.0252 22.8136C13.0071 22.8072 12.989 22.8007 12.9714 22.7935C12.8419 22.9349 12.7011 23.0666 12.5518 23.1893L12.8879 23.242C14.6715 23.5211 16.0276 24.9933 16.1583 26.7941L16.3242 29.0721C16.3381 29.2629 16.2638 29.438 16.1377 29.5607H17.3111C17.671 29.5607 17.9551 29.2553 17.9289 28.8964Z" fill="#36C27F"/>
<path d="M10.6833 2.396H8.71887C6.43254 2.396 4.43807 3.64521 3.38039 5.49824C1.91004 5.88344 0.838187 7.24246 0.884242 8.83486L1.05387 14.703H18.2422V9.95482C18.2422 5.78019 14.858 2.396 10.6833 2.396Z" fill="#536D82"/>
<path d="M4.7833 15.6903H1.75576C1.02879 15.6903 0.439453 15.101 0.439453 14.374V13.9613C0.439453 13.2344 1.02879 12.645 1.75576 12.645H4.7833V15.6903Z" fill="#FAA68E"/>
<path d="M14.5273 15.6903H17.5549C18.2819 15.6903 18.8712 15.101 18.8712 14.374V13.9613C18.8712 13.2344 18.2819 12.645 17.5549 12.645H14.5273V15.6903Z" fill="#FAA68E"/>
<path d="M16.7648 13.6653C16.7648 18.0039 12.3878 20.4944 9.83064 20.4944C7.27414 20.4944 2.89648 18.0039 2.89648 13.6653C2.89648 10.894 3.66682 8.79655 4.91328 7.39C5.19371 7.07354 5.68783 7.07676 5.96797 7.39352C6.25297 7.71579 6.55297 8.02364 6.87969 8.30424C7.26453 8.63477 7.71881 8.93647 8.22529 8.94198C8.56338 8.94608 8.91406 8.76479 9.09617 8.49385C9.24699 8.2695 9.54635 8.20024 9.79127 8.31467C11.4062 9.0693 13.1879 9.53184 14.9744 9.6318C15.6927 9.672 16.3037 10.1788 16.4664 10.8797C16.6606 11.7164 16.7648 12.6453 16.7648 13.6653Z" fill="#FAA68E"/>
<path d="M16.4665 10.8803C16.3373 10.3234 15.9244 9.88992 15.4 9.71484C15.5566 10.49 15.6402 11.3385 15.6402 12.2601C15.6402 16.6903 11.1707 19.2334 8.55957 19.2334C7.34528 19.2334 5.72867 18.6829 4.34668 17.6483C5.8516 19.4911 8.20795 20.4951 9.83077 20.4951C12.388 20.4951 16.7649 18.0045 16.7649 13.666C16.7649 12.6459 16.6607 11.7171 16.4665 10.8803Z" fill="#E09380"/>
<path d="M4.21483 29.5602L5.47911 24.6967C5.53313 24.4888 5.72075 24.3438 5.93549 24.3438H7.87711C8.93051 24.3438 9.78446 23.4898 9.78446 22.4364V21.6347C9.78446 21.4469 9.93668 21.2947 10.1244 21.2947H12.0203C12.5817 21.2947 13.0567 20.8501 13.0612 20.2887C13.0637 20.0045 12.9496 19.7477 12.7644 19.5625C12.5804 19.3785 12.3267 19.265 12.0464 19.265H7.08428C6.86543 19.265 6.73735 19.0189 6.86291 18.84L7.68241 17.6691C7.80991 17.4876 7.86762 17.2777 7.86065 17.0709C7.85303 16.7741 7.71159 16.4842 7.45278 16.2964L7.43186 16.2812C6.96944 15.9456 6.32754 16.0478 5.99584 16.5077C5.41037 17.3195 2.83705 20.8824 2.5827 21.2351L0.555765 29.0327C0.48639 29.2996 0.687836 29.5601 0.963637 29.5601H4.21483V29.5602Z" fill="#F9B1A0"/>
<path d="M23.027 2.14697C21.9033 2.14697 20.9893 3.06109 20.9893 4.18475C20.9893 4.42744 21.186 4.6242 21.4287 4.6242C21.6715 4.6242 21.8682 4.42744 21.8682 4.18475C21.8682 3.54572 22.388 3.02588 23.027 3.02588C23.666 3.02588 24.1858 3.54572 24.1858 4.18475C24.1858 4.82377 23.666 5.34362 23.027 5.34362H22.7481C22.5053 5.34362 22.3086 5.54038 22.3086 5.78307V7.28653C22.3086 7.52923 22.5053 7.72598 22.7481 7.72598C22.9908 7.72598 23.1875 7.52923 23.1875 7.28653V6.21626C24.2363 6.13411 25.0647 5.25432 25.0647 4.18475C25.0647 3.06109 24.1506 2.14697 23.027 2.14697Z" fill="#2B3B47"/>
<path d="M22.748 8.39551C22.5053 8.39551 22.3086 8.59227 22.3086 8.83496V8.96369C22.3086 9.20639 22.5053 9.40314 22.748 9.40314C22.9908 9.40314 23.1875 9.20639 23.1875 8.96369V8.83496C23.1875 8.59227 22.9907 8.39551 22.748 8.39551Z" fill="#2B3B47"/>
<path d="M26.8828 0H19.1707C18.1126 0 17.2518 0.860801 17.2518 1.91895V5.39625C15.8056 3.31893 13.4008 1.95645 10.6834 1.95645H8.71875C6.42135 1.95645 4.28168 3.16588 3.09111 5.12461C1.47539 5.63121 0.395801 7.13619 0.444902 8.84748L0.555879 12.6821C0.214102 13.0028 0 13.4579 0 13.9624V14.3749C0 15.3428 0.787734 16.1303 1.75605 16.1303H2.93408C3.23396 16.8721 3.67031 17.5641 4.23621 18.1946C3.92473 18.626 2.3243 20.8423 2.22609 20.9784C2.19428 21.0226 2.1709 21.0723 2.15719 21.1249L0.130254 28.9226C0.0626953 29.1824 0.118125 29.4534 0.282422 29.6658C0.44666 29.8782 0.694922 30.0001 0.963398 30.0001H17.3109C17.604 30.0001 17.8866 29.877 18.0862 29.6625C18.2859 29.4479 18.3884 29.1571 18.3674 28.8642L18.201 26.5863C18.1592 26.0098 18.0062 25.458 17.746 24.9464C17.6359 24.7301 17.3713 24.6438 17.1551 24.7539C16.9387 24.8638 16.8526 25.1285 16.9625 25.3448C17.1694 25.7515 17.2911 26.1906 17.3244 26.6501L17.4908 28.9277C17.4957 28.9961 17.4628 29.0423 17.4429 29.0638C17.423 29.0852 17.3792 29.1212 17.3109 29.1212H15.284V27.3256C15.284 27.0829 15.0873 26.8862 14.8445 26.8862C14.6018 26.8862 14.4051 27.0829 14.4051 27.3256V29.1211H4.78295L5.90426 24.8077C5.90795 24.7935 5.92072 24.7836 5.93537 24.7836H7.87699C8.27104 24.7836 8.64246 24.6855 8.96889 24.5132C9.25107 24.5644 9.54018 24.5907 9.83086 24.5907C11.0633 24.5907 12.2395 24.1199 13.1005 23.2904L13.1021 23.2907C13.1879 23.3085 13.1229 23.2954 14.4247 23.5003C14.902 23.5748 15.349 23.7447 15.7536 24.0051C15.8272 24.0525 15.9095 24.0751 15.9911 24.0751C16.1355 24.0751 16.277 24.004 16.361 23.8735C16.4923 23.6695 16.4334 23.3975 16.2293 23.2661C15.7211 22.9389 15.1596 22.7256 14.5606 22.632C13.433 22.4429 13.3295 22.4599 13.149 22.3905C12.8318 22.2681 12.6149 21.9661 12.6094 21.6135C13.1291 21.3905 13.4959 20.8826 13.5005 20.293C13.502 20.1308 13.4767 19.9728 13.4275 19.8234C14.467 19.2071 15.9575 18.041 16.7281 16.1303H17.5553C18.5232 16.1303 19.3107 15.3428 19.3107 14.3748V13.9623C19.3107 13.4228 19.066 12.9394 18.682 12.6171V11.4864C18.8407 11.5282 19.005 11.55 19.1708 11.55H20.5547C20.7146 11.55 20.8447 11.6801 20.8447 11.84V13.0881C20.8447 13.3983 21.0344 13.6637 21.328 13.764C21.4062 13.7907 21.4857 13.8037 21.5638 13.8037C21.7792 13.8037 21.9844 13.7054 22.1235 13.5257L23.5775 11.6522C23.628 11.5873 23.7041 11.55 23.7861 11.55H26.8834C27.9415 11.55 28.8023 10.6892 28.8023 9.63105V1.91895C28.8023 0.860801 27.9412 0 26.8828 0V0ZM0.878906 14.3748V13.9623C0.878906 13.4787 1.27236 13.0852 1.75605 13.0852H2.46914C2.43891 13.8493 2.45871 14.4785 2.64955 15.2514H1.75605C1.27236 15.2514 0.878906 14.8581 0.878906 14.3748ZM9.84598 23.7114C10.0846 23.344 10.2238 22.9065 10.2238 22.4368V21.7346H11.7353C11.7687 22.1736 11.9638 22.5681 12.2665 22.8549C11.5983 23.4006 10.7421 23.7079 9.84598 23.7114ZM12.0202 20.8556H10.1243C9.69451 20.8556 9.34488 21.2053 9.34488 21.635V22.4368C9.34488 23.2461 8.68641 23.9047 7.87699 23.9047H5.93537C5.52059 23.9047 5.15801 24.185 5.05365 24.5865L3.8748 29.1211H0.986836L2.98711 21.4258C3.14209 21.2111 5.9925 17.2638 6.35203 16.7652C6.44326 16.6388 6.5782 16.5555 6.73195 16.5308C6.88752 16.5058 7.04449 16.5436 7.17311 16.6369L7.19455 16.6526C7.33418 16.7539 7.41674 16.9106 7.42131 17.0861C7.42529 17.2049 7.39119 17.3193 7.32223 17.4175L6.50309 18.5878C6.35045 18.8052 6.33176 19.0867 6.45422 19.3224C6.5768 19.5582 6.81814 19.7048 7.0841 19.7048H12.0462C12.2 19.7048 12.3446 19.7647 12.4535 19.8735C12.5633 19.9834 12.623 20.1295 12.6216 20.2856C12.6192 20.5999 12.3493 20.8556 12.0202 20.8556ZM18.4318 14.3748C18.4318 14.8581 18.0386 15.2514 17.5553 15.2514H17.0128C17.1397 14.7371 17.2048 14.2062 17.2048 13.6658C17.2048 13.4699 17.2007 13.2759 17.1932 13.0852H17.5553C18.0386 13.0852 18.4318 13.4787 18.4318 13.9623V14.3748ZM17.5553 12.2063H17.1303C17.0788 11.7127 17.0003 11.2346 16.8952 10.7808C16.6899 9.89748 15.9104 9.24475 14.9994 9.19348C13.2968 9.09803 11.5603 8.65658 9.9774 7.91678C9.5342 7.71006 8.99894 7.85279 8.73217 8.24889C8.63144 8.39854 8.4198 8.5074 8.23107 8.50312C7.9234 8.49955 7.58508 8.33051 7.1666 7.97127C6.88441 7.72857 6.60006 7.44445 6.29766 7.10297C6.08021 6.85682 5.76738 6.71549 5.43937 6.7152H5.43826C5.11219 6.7152 4.80117 6.855 4.58473 7.09898C4.16186 7.57617 3.795 8.12402 3.49436 8.72719C3.38607 8.94439 3.47437 9.20824 3.69158 9.31658C3.90885 9.42486 4.17264 9.33656 4.28098 9.11936C4.54728 8.5851 4.87078 8.10147 5.24244 7.68211C5.31029 7.60564 5.39414 7.59416 5.43832 7.59416C5.48367 7.59486 5.56922 7.60594 5.63935 7.68533C5.96877 8.05728 6.2809 8.36883 6.59385 8.63795C6.96146 8.95354 7.53012 9.37406 8.22064 9.38203C8.70973 9.38701 9.19459 9.13582 9.46119 8.73984C9.48773 8.70041 9.55266 8.68852 9.60557 8.71318C11.2887 9.4998 13.1369 9.96932 14.9501 10.071C15.4738 10.1005 15.9216 10.4742 16.039 10.9794C16.1625 11.5128 16.247 12.0841 16.2902 12.6785C16.3139 12.9954 16.3259 13.3276 16.3259 13.6659C16.3259 14.3146 16.2197 14.9471 16.0102 15.5458C15.3536 17.4229 13.8843 18.5441 12.9087 19.109C12.6602 18.9253 12.3608 18.8259 12.0462 18.8259H7.40924L8.04176 17.9222C8.22094 17.6672 8.31012 17.3679 8.29975 17.0601C8.28826 16.6123 8.07351 16.2045 7.71117 15.9416L7.68978 15.926C7.37033 15.6943 6.98074 15.601 6.59279 15.6631C6.20672 15.725 5.8681 15.9339 5.63918 16.2512C5.47383 16.4805 5.14969 16.9295 4.7642 17.4635C4.26545 16.8754 3.89209 16.2323 3.65203 15.5457C3.31371 14.5793 3.29484 13.7113 3.37201 12.6778C3.41625 12.0708 3.50396 11.4867 3.6327 10.9415C3.68848 10.7053 3.54223 10.4686 3.30598 10.4128C3.06978 10.357 2.83307 10.5033 2.77728 10.7395C2.66707 11.2063 2.58521 11.6984 2.53201 12.2064H1.75605C1.64191 12.2064 1.53047 12.2177 1.4223 12.2386L1.32346 8.82229C1.28432 7.4601 2.17611 6.26818 3.49213 5.92371C3.60645 5.89377 3.70394 5.81906 3.76254 5.71641C4.77656 3.93926 6.6757 2.83535 8.71875 2.83535H10.6834C14.6092 2.83535 17.8031 6.02924 17.8031 9.95508V12.2241C17.7221 12.2126 17.6394 12.2063 17.5553 12.2063ZM27.9234 9.63105C27.9234 10.2046 27.4569 10.6711 26.8834 10.6711H23.7861C23.4309 10.6711 23.1021 10.832 22.8836 11.1129L21.7236 12.6075V11.84C21.7236 11.1955 21.1993 10.6711 20.5547 10.6711H19.1707C18.9968 10.6711 18.831 10.629 18.682 10.549V9.95508C18.682 8.9257 18.4864 7.94121 18.1307 7.03658V1.91895C18.1307 1.34543 18.5972 0.878906 19.1707 0.878906H26.8828C27.4566 0.878906 27.9234 1.34543 27.9234 1.91895V9.63105Z" fill="#2B3B47"/>
<path d="M7.61035 14.101C7.85305 14.101 8.0498 13.9043 8.0498 13.6616V13.1709C8.0498 12.9282 7.85305 12.7314 7.61035 12.7314C7.36766 12.7314 7.1709 12.9282 7.1709 13.1709V13.6616C7.1709 13.9043 7.36766 14.101 7.61035 14.101Z" fill="#2B3B47"/>
<path d="M14.1777 14.101C14.4205 14.101 14.6172 13.9043 14.6172 13.6616V13.1709C14.6172 12.9282 14.4205 12.7314 14.1777 12.7314C13.935 12.7314 13.7383 12.9282 13.7383 13.1709V13.6616C13.7383 13.9043 13.935 14.101 14.1777 14.101Z" fill="#2B3B47"/>
<path d="M10.1366 16.2633C10.7357 15.9138 11.2937 15.9138 11.8929 16.2633C11.9625 16.3039 12.0387 16.3232 12.1139 16.3231C12.2651 16.3231 12.4122 16.245 12.4939 16.1051C12.6162 15.8954 12.5453 15.6264 12.3357 15.5041C11.4715 14.9999 10.5579 14.9999 9.69371 15.5041C9.48406 15.6264 9.41322 15.8955 9.53551 16.1051C9.65779 16.3148 9.92697 16.3856 10.1366 16.2633Z" fill="#2B3B47"/>
</svg>
