<svg width="30" height="30" viewBox="0 0 30 30" fill="none" xmlns="http://www.w3.org/2000/svg">
<g clip-path="url(#clip0_808_11882)">
<path d="M16.5941 23.4478C17.0715 23.5754 17.6243 23.7447 18.2065 23.9629C18.9092 24.2258 19.6543 24.561 20.3599 24.9838C20.7304 25.2061 20.9815 25.5836 21.0468 26.0105C21.1609 26.7626 21.3472 28.0887 21.4849 29.5605H8.51367C8.65125 28.0887 8.8377 26.7626 8.95178 26.0105C9.01705 25.5836 9.26813 25.2061 9.63861 24.9838C10.3443 24.561 11.0893 24.2258 11.7921 23.9629C12.3742 23.7448 12.927 23.5754 13.4045 23.4478" fill="#57B3FF"/>
<path d="M16.1414 29.5606H13.8574C13.9433 28.9191 14.0897 28.2093 14.3402 27.6577H15.6581C15.9086 28.2093 16.0556 28.9191 16.1414 29.5606Z" fill="#FF7765"/>
<path d="M13.4041 26.5489L14.3406 27.6576H14.9995H15.6583L16.5948 26.5489V24.2134H12.8984" fill="#FF7765"/>
<path d="M10.7965 24.3763C10.5101 24.6169 10.3155 25.0208 10.2649 25.4771C10.1708 26.3316 10.0138 27.8723 9.90498 29.5605H8.51367C8.65131 28.0887 8.8377 26.7626 8.95178 26.0105C9.01705 25.5836 9.26813 25.2061 9.63861 24.9838C10.0173 24.7568 10.4078 24.5551 10.7965 24.3763Z" fill="#288FE6"/>
<path d="M18.2064 23.9631L17.1003 27.0351L14.9992 25.0152L12.8981 27.0352L11.792 23.9632C13.0904 23.4757 14.2447 23.2352 14.7411 23.1458C14.9122 23.1146 15.0863 23.1146 15.2574 23.1458C15.7537 23.2352 16.908 23.4756 18.2064 23.9631Z" fill="#288FE6"/>
<path d="M16.5948 20.7561V23.4201C16.5948 24.3008 15.8806 25.015 14.9998 25.015C14.1186 25.015 13.4043 24.3008 13.4043 23.4201V20.7561H16.5948Z" fill="#C38959"/>
<path d="M15.5206 24.9282C15.3574 24.9843 15.1822 25.015 14.9998 25.015C14.1186 25.015 13.4043 24.3008 13.4043 23.4201V20.7561H14.4459V23.42C14.4459 24.1189 14.8952 24.7126 15.5206 24.9282Z" fill="#B17A4A"/>
<path d="M8.33541 18.5378C7.18527 18.5378 6.25293 17.6055 6.25293 16.4553C6.25293 16.2971 6.27057 16.1429 6.30402 15.9947C6.5742 14.7983 8.33541 14.9945 8.33541 16.2211H21.6633C21.6633 14.9945 23.4245 14.7983 23.6946 15.9947C23.7281 16.1429 23.7457 16.2971 23.7457 16.4553C23.7457 17.6055 22.8134 18.5378 21.6633 18.5378" fill="#B17A4A"/>
<path d="M13.4043 20.756H16.5948V23.2102H13.4043V20.756Z" fill="#B17A4A"/>
<path d="M16.8058 22.3658H13.192C10.5095 22.3658 8.33496 20.1912 8.33496 17.5088V10.6586L14.9991 6.56189L21.6628 10.6586V17.5088C21.6628 20.1912 19.4882 22.3658 16.8058 22.3658Z" fill="#C38959"/>
<path d="M21.6632 8.31446V11.172C21.6632 11.172 20.6917 9.5727 19.1541 9.5727C17.6171 9.5727 16.9913 11.472 14.9991 11.472C13.0075 11.472 12.381 9.5727 10.8441 9.5727C9.30721 9.5727 8.33496 11.172 8.33496 11.172V8.31446C8.33496 6.48282 9.8202 4.99829 11.6518 4.99829H18.3464C20.178 4.99835 21.6632 6.48288 21.6632 8.31446Z" fill="#8BA1B1"/>
<path d="M11.6518 4.99841H14.8591C13.0275 4.99841 11.5423 6.48295 11.5423 8.31459V9.71152C11.3279 9.62457 11.0983 9.57283 10.8441 9.57283C9.30715 9.57283 8.33496 11.1722 8.33496 11.1722V8.31453C8.33496 6.48295 9.82019 4.99841 11.6518 4.99841Z" fill="#536D82"/>
<path d="M16.3831 22.3655H13.193C10.5106 22.3655 8.33594 20.1908 8.33594 17.509V11.1721C8.33594 11.1721 9.30812 9.57275 10.8451 9.57275C11.0927 9.57275 11.3169 9.62186 11.5267 9.70482V17.5091C11.5267 20.1908 13.7007 22.3655 16.3831 22.3655Z" fill="#B17A4A"/>
<path d="M19.2078 4.85801L18.3453 5.69889C18.0797 5.9577 17.9584 6.33047 18.0212 6.69598L18.2248 7.88314C18.3827 8.80336 17.417 9.50508 16.5904 9.07055L15.5243 8.51016C15.1961 8.33742 14.8042 8.33742 14.476 8.51016L13.4099 9.07055C12.5834 9.50508 11.6177 8.80336 11.7755 7.88314L11.9791 6.69598C12.0419 6.33047 11.9206 5.9577 11.655 5.69889L10.7925 4.85801C10.124 4.20639 10.493 3.07119 11.4168 2.93689L12.6088 2.76363C12.9757 2.71031 13.293 2.47992 13.457 2.14746L13.9901 1.06723C14.1966 0.64875 14.5984 0.439453 15.0001 0.439453C15.4019 0.439453 15.8036 0.64875 16.0102 1.06729L16.5433 2.14752C16.7074 2.47998 17.0247 2.71037 17.3915 2.76369L18.5836 2.93695C19.5072 3.07119 19.8763 4.20639 19.2078 4.85801Z" fill="#FAC600"/>
<path d="M12.2672 5.0042C12.6199 5.90086 13.143 6.50051 12.7756 7.34707C12.4082 8.19393 12.5939 9.30604 14.476 8.5101L13.4099 9.07049C12.5834 9.50502 11.6177 8.8033 11.7755 7.88309L11.9791 6.69592C12.0419 6.33041 11.9206 5.95764 11.655 5.69883L10.7925 4.85801C10.124 4.20639 10.493 3.07119 11.4168 2.93689L12.6088 2.76363C12.9757 2.71031 13.293 2.47992 13.457 2.14746L13.9901 1.06723C14.1966 0.64875 14.5984 0.439453 15.0001 0.439453C14.2074 0.439453 14.5369 2.72549 13.4021 3.32514C12.2672 3.92508 11.9144 4.10754 12.2672 5.0042Z" fill="#FFA564"/>
<path d="M9.93357 6.93822L9.22289 7.63103C9.00404 7.84426 8.90414 8.15141 8.95587 8.45258L9.12363 9.43068C9.25365 10.1889 8.458 10.767 7.77703 10.409L6.89859 9.94731C6.62824 9.80498 6.30527 9.80498 6.03492 9.94731L5.15648 10.409C4.4755 10.767 3.6798 10.1889 3.80988 9.43068L3.97763 8.45258C4.02937 8.15146 3.92947 7.84432 3.71062 7.63103L2.99994 6.93822C2.44921 6.40133 2.75326 5.46605 3.51433 5.35537L4.49648 5.21263C4.79871 5.16869 5.06015 4.97884 5.19533 4.70498L5.63455 3.815C5.80476 3.47017 6.13576 3.29773 6.46681 3.29773C6.79781 3.29773 7.12886 3.47017 7.29908 3.815L7.7383 4.70498C7.87347 4.9789 8.13492 5.16875 8.43714 5.21263L9.41929 5.35537C10.1803 5.46605 10.4844 6.40133 9.93357 6.93822Z" fill="#FAC600"/>
<path d="M4.215 7.05869C4.50562 7.79744 4.93658 8.29156 4.63388 8.98906C4.33119 9.6868 4.48423 10.6031 6.03492 9.94731L5.15648 10.409C4.4755 10.767 3.6798 10.1889 3.80988 9.43068L3.97763 8.45258C4.02937 8.15146 3.92947 7.84432 3.71062 7.63103L2.99994 6.93822C2.44921 6.40133 2.75326 5.46605 3.51433 5.35537L4.49648 5.21263C4.79871 5.16869 5.06015 4.97884 5.19533 4.70498L5.63455 3.815C5.80476 3.47017 6.13576 3.29773 6.46681 3.29773C5.81367 3.29773 6.08513 5.18123 5.15009 5.67535C4.215 6.16953 3.92437 6.31988 4.215 7.05869Z" fill="#FFA564"/>
<path d="M26.997 6.93822L26.2864 7.63103C26.0675 7.84426 25.9676 8.15141 26.0193 8.45258L26.1871 9.43068C26.3171 10.1889 25.5215 10.767 24.8405 10.409L23.9621 9.94731C23.6917 9.80498 23.3687 9.80498 23.0984 9.94731L22.22 10.409C21.539 10.767 20.7433 10.1889 20.8734 9.43068L21.0411 8.45258C21.0928 8.15146 20.9929 7.84432 20.7741 7.63103L20.0634 6.93822C19.5127 6.40133 19.8167 5.46605 20.5778 5.35537L21.56 5.21263C21.8622 5.16869 22.1236 4.97884 22.2588 4.70498L22.698 3.815C22.8682 3.47017 23.1992 3.29773 23.5303 3.29773C23.8613 3.29773 24.1923 3.47017 24.3625 3.815L24.8018 4.70498C24.9369 4.9789 25.1984 5.16875 25.5006 5.21263L26.4828 5.35537C27.2437 5.46605 27.5478 6.40133 26.997 6.93822Z" fill="#FAC600"/>
<path d="M21.2794 7.05869C21.5701 7.79744 22.001 8.29156 21.6983 8.98906C21.3956 9.6868 21.5487 10.6031 23.0994 9.94731L22.2209 10.409C21.54 10.767 20.7443 10.1889 20.8743 9.43068L21.0421 8.45258C21.0938 8.15146 20.9939 7.84432 20.7751 7.63103L20.0644 6.93822C19.5137 6.40133 19.8177 5.46605 20.5788 5.35537L21.561 5.21263C21.8632 5.16869 22.1247 4.97884 22.2598 4.70498L22.6991 3.815C22.8693 3.47017 23.2003 3.29773 23.5313 3.29773C22.8782 3.29773 23.1496 5.18123 22.2146 5.67535C21.2794 6.16953 20.9888 6.31988 21.2794 7.05869Z" fill="#FFA564"/>
<path d="M11.8751 14.243C11.5277 14.243 11.2451 14.7118 11.2451 15.2881C11.2451 15.8643 11.5277 16.3331 11.8751 16.3331C12.2225 16.3331 12.5051 15.8643 12.5051 15.2881C12.5051 14.7118 12.2225 14.243 11.8751 14.243Z" fill="black"/>
<path d="M18.1241 14.243C17.7767 14.243 17.4941 14.7118 17.4941 15.2881C17.4941 15.8643 17.7767 16.3331 18.1241 16.3331C18.4715 16.3331 18.7541 15.8643 18.7541 15.2881C18.7541 14.7118 18.4715 14.243 18.1241 14.243Z" fill="black"/>
<path d="M15.583 18.5466C15.2616 18.868 14.7385 18.868 14.4171 18.5466C14.2455 18.3749 13.9673 18.375 13.7957 18.5466C13.6241 18.7182 13.6241 18.9965 13.7957 19.168C14.1278 19.5001 14.5639 19.6661 15.0001 19.6661C15.4362 19.6661 15.8725 19.5 16.2045 19.168C16.3762 18.9964 16.3762 18.7181 16.2045 18.5465C16.0329 18.3751 15.7546 18.375 15.583 18.5466Z" fill="black"/>
<path d="M27.6519 5.85123C27.4898 5.35254 27.0669 4.99588 26.548 4.92047L25.5658 4.77768C25.4066 4.75453 25.2691 4.65457 25.1979 4.51037L24.7587 3.62033C24.5266 3.15018 24.0567 2.85814 23.5323 2.85814C23.008 2.85814 22.5381 3.15023 22.306 3.62039L21.8668 4.51043C21.7956 4.65463 21.6581 4.75453 21.4988 4.77773L20.5167 4.92053C20.3901 4.93893 20.2694 4.97432 20.1567 5.02412C20.0324 4.95551 19.905 4.89357 19.7743 4.83984C19.9967 4.46068 20.0509 4.00195 19.9103 3.56836C19.7249 2.99725 19.2407 2.58861 18.6462 2.50184L17.4539 2.32898C17.2305 2.29646 17.0372 2.1559 16.937 1.95299L16.4036 0.872227C16.1378 0.334219 15.5997 0 14.9996 0C14.3996 0 13.8616 0.334219 13.5954 0.872519L13.0632 1.95094C13.0452 1.98691 13.0254 2.01973 13.0046 2.04844C12.8615 2.24449 12.9045 2.51941 13.1006 2.66244C13.2967 2.80541 13.5716 2.76246 13.7146 2.56641C13.7642 2.49838 13.8096 2.42355 13.8504 2.34193L14.3834 1.26176C14.5019 1.02199 14.7323 0.878906 14.9996 0.878906C15.267 0.878906 15.4973 1.02199 15.6157 1.26146L16.149 2.34205C16.3773 2.80441 16.8179 3.12463 17.3278 3.19881L18.5198 3.3716C18.7845 3.41021 18.9919 3.58523 19.0744 3.83965C19.1569 4.09377 19.0919 4.35686 18.9005 4.54336L18.0378 5.3843C17.6689 5.74436 17.5005 6.2625 17.5875 6.77027L17.791 7.95768C17.8363 8.22106 17.7343 8.47207 17.5181 8.62916C17.3018 8.78643 17.0312 8.80588 16.7943 8.68125L15.7288 8.12133C15.2721 7.88074 14.7269 7.8808 14.2707 8.12115L13.2048 8.68137C12.968 8.80594 12.6975 8.78643 12.4812 8.62922C12.2651 8.47213 12.163 8.22106 12.2084 7.95738L12.4117 6.77033C12.4987 6.2625 12.3305 5.74436 11.9613 5.38412L11.0987 4.5433C10.9074 4.3568 10.8423 4.09377 10.9248 3.83965C11.0074 3.58518 11.2148 3.41021 11.4793 3.3716L11.8015 3.32473C12.0417 3.28975 12.208 3.06674 12.1731 2.82656C12.1382 2.58633 11.9151 2.41992 11.675 2.45496L11.3525 2.50189C10.7584 2.58855 10.2742 2.99725 10.0888 3.56836C9.94809 4.00201 10.0024 4.4608 10.2249 4.84002C10.0943 4.89369 9.96695 4.95557 9.84262 5.02418C9.72982 4.97432 9.60906 4.93893 9.48244 4.92053L8.50029 4.77773C8.34104 4.75453 8.20346 4.65463 8.13232 4.51043L7.69311 3.62045C7.46107 3.15029 6.99121 2.8582 6.4668 2.8582C5.94238 2.8582 5.47252 3.15029 5.24049 3.62045L4.80127 4.51043C4.73008 4.65463 4.59256 4.75459 4.43324 4.77773L3.45109 4.92053C2.93225 4.99594 2.50926 5.3526 2.34725 5.85123C2.18523 6.34986 2.31777 6.88693 2.69318 7.25291L3.40393 7.94578C3.51918 8.05811 3.57174 8.21977 3.54449 8.37832L3.3768 9.35643C3.28814 9.87328 3.49656 10.3858 3.92078 10.694C4.16049 10.8681 4.44092 10.9566 4.72328 10.9566C4.94061 10.9566 5.1591 10.9042 5.36102 10.798L6.23975 10.3362C6.38195 10.2613 6.55182 10.2613 6.6942 10.3363L7.57258 10.798C7.67687 10.8528 7.78568 10.8925 7.89637 10.9188V14.8719C7.76477 14.8173 7.62221 14.7795 7.4701 14.7625C6.70188 14.677 6.04598 15.1437 5.8757 15.898C5.83463 16.0799 5.81377 16.2675 5.81377 16.4554C5.81377 17.7666 6.81971 18.8468 8.10033 18.9659C8.71475 21.11 10.6499 22.7013 12.965 22.7998V23.1148C12.5134 23.2442 12.0684 23.3901 11.6392 23.5513C10.8208 23.8569 10.072 24.212 9.41383 24.6067C8.93066 24.896 8.60412 25.3832 8.51775 25.9447C8.38961 26.7927 8.20914 28.1013 8.07701 29.5198C8.06553 29.6429 8.10648 29.7652 8.18975 29.8565C8.27301 29.9479 8.39096 30 8.51459 30H21.4854C21.609 30 21.727 29.9479 21.8103 29.8564C21.8935 29.765 21.9344 29.6428 21.9229 29.5196C21.7881 28.0788 21.6085 26.7802 21.4816 25.9443C21.4567 25.7808 21.41 25.6204 21.3428 25.4673C21.2451 25.2451 20.9859 25.1442 20.7636 25.2418C20.5414 25.3395 20.4404 25.5987 20.5381 25.8209C20.5742 25.9032 20.5994 25.9892 20.6126 26.0763C20.7235 26.8066 20.8751 27.895 21.0007 29.121H16.5199C16.4306 28.5868 16.3122 28.1236 16.1663 27.7372L16.6282 27.1904L16.7961 27.3518C16.9035 27.455 17.0557 27.4969 17.2008 27.4629C17.3458 27.429 17.4637 27.324 17.5142 27.1839L18.4673 24.537C18.7901 24.6686 19.1004 24.808 19.3926 24.9543C19.4557 24.9859 19.5229 25.0008 19.589 25.0008C19.7501 25.0008 19.9052 24.9119 19.9823 24.758C20.0909 24.541 20.0031 24.277 19.786 24.1683C19.3429 23.9465 18.8634 23.7389 18.3615 23.5516C17.9301 23.3898 17.4849 23.2438 17.0344 23.1146V22.7998C19.3495 22.7014 21.2847 21.11 21.8992 18.9659C23.1797 18.8467 24.1856 17.7664 24.1856 16.4553C24.1856 16.2673 24.1648 16.0798 24.1236 15.8978C23.9534 15.1436 23.2971 14.6767 22.5293 14.7625C22.3772 14.7794 22.2346 14.8172 22.1031 14.8719V10.9193C22.2137 10.893 22.3224 10.8528 22.4267 10.7979L23.3054 10.3361C23.4475 10.2613 23.6172 10.2612 23.7599 10.3362L24.6382 10.7979C25.1025 11.042 25.6543 11.0021 26.0785 10.6939C26.5026 10.3857 26.7111 9.87316 26.6225 9.35637L26.4547 8.37803C26.4275 8.21965 26.48 8.05805 26.5953 7.94566L27.306 7.25285C27.6814 6.88693 27.8139 6.34986 27.6519 5.85123ZM11.3476 6.0133C11.5097 6.17145 11.5836 6.39896 11.5454 6.62186L11.3421 7.80867C11.2403 8.40035 11.4788 8.98717 11.9645 9.34014C12.2389 9.53959 12.5601 9.64096 12.8834 9.64096C13.1324 9.64096 13.3826 9.5809 13.6138 9.45926L14.68 8.89893C14.8802 8.79352 15.1191 8.79352 15.3196 8.8991L16.3853 9.4592C16.9171 9.73887 17.5491 9.69316 18.0348 9.34008C18.5205 8.98717 18.7589 8.40029 18.6572 7.80896L18.4538 6.6218C18.4156 6.39891 18.4895 6.17145 18.6515 6.01348L19.1304 5.54654C19.2516 5.58059 19.3699 5.62254 19.4851 5.67223C19.4573 5.72953 19.4331 5.78924 19.4129 5.85117C19.2508 6.3498 19.3834 6.88687 19.7588 7.25285L20.4696 7.94578C20.5848 8.05811 20.6374 8.21971 20.6102 8.3782L20.4424 9.35631C20.4371 9.38713 20.433 9.41789 20.4299 9.44865C20.0598 9.26127 19.6328 9.13324 19.1549 9.13324C18.2821 9.13324 17.6755 9.61811 17.0888 10.0871C16.4805 10.5733 15.906 11.0326 14.9999 11.0326C14.0934 11.0326 13.5188 10.5732 12.9105 10.0869C12.5358 9.78732 12.1483 9.47754 11.6882 9.29613C11.4112 9.1865 11.1353 9.13324 10.845 9.13324C10.3668 9.13324 9.93971 9.26145 9.56945 9.44895C9.56623 9.41812 9.56219 9.38725 9.55686 9.35637L9.3891 8.37809C9.36186 8.21971 9.41441 8.05805 9.52973 7.94566L10.2404 7.25285C10.6158 6.88687 10.7484 6.3498 10.5863 5.85117C10.5662 5.7893 10.5421 5.72965 10.5143 5.6724C10.6295 5.62266 10.7478 5.58064 10.8689 5.5466L11.3476 6.0133ZM7.10342 9.5584C6.70475 9.34857 6.22885 9.34857 5.83059 9.55828L4.95209 10.02C4.78369 10.1085 4.59133 10.0946 4.43746 9.98291C4.28365 9.87111 4.211 9.69246 4.24316 9.50496L4.41086 8.52703C4.48715 8.0833 4.34008 7.63072 4.01752 7.31643L3.30684 6.62361C3.17072 6.4909 3.12449 6.30369 3.18326 6.12287C3.24203 5.94199 3.38951 5.81766 3.57766 5.79029L4.5598 5.6475C5.00535 5.5827 5.39025 5.30303 5.58947 4.89937L6.02869 4.00939C6.11283 3.83889 6.27666 3.73711 6.46686 3.73711C6.65705 3.73711 6.82088 3.83889 6.90502 4.00939L7.34424 4.89937C7.5434 5.30303 7.92836 5.5827 8.37391 5.6475L9.35605 5.79029C9.54426 5.81766 9.69174 5.94199 9.75051 6.12287C9.80922 6.30369 9.76305 6.4909 9.62693 6.62355L8.91631 7.31631C8.59369 7.63072 8.44662 8.0833 8.52291 8.52686L8.69066 9.50502C8.72283 9.69252 8.65018 9.87117 8.49631 9.98297C8.34244 10.0948 8.15002 10.1087 7.98162 10.0201L7.10342 9.5584ZM6.69262 16.4554C6.69262 16.3325 6.70615 16.21 6.73293 16.0915C6.84338 15.6024 7.28523 15.6262 7.3726 15.636C7.45439 15.6451 7.84146 15.7106 7.89086 16.1299C7.81117 16.1036 7.72703 16.0836 7.63768 16.0746C7.39627 16.0499 7.18059 16.2258 7.15598 16.4672C7.13137 16.7087 7.30727 16.9244 7.54867 16.9489C7.67916 16.9622 7.81094 17.0682 7.89625 17.1555V17.5088C7.89625 17.6901 7.90545 17.8693 7.92332 18.046C7.21633 17.8626 6.69262 17.219 6.69262 16.4554ZM13.0824 26.2487L12.3549 24.228C12.5838 24.149 12.8164 24.0748 13.0511 24.005C13.2164 24.5546 13.6081 25.0072 14.1177 25.2534L13.0824 26.2487ZM15.0002 24.5757C14.9998 24.5757 14.9995 24.5757 14.999 24.5757C14.3641 24.5753 13.8476 24.0604 13.8442 23.4261C13.844 23.4243 13.844 23.4224 13.8439 23.4206C13.8439 23.4204 13.8439 23.4202 13.8439 23.42V22.8053H16.1555V23.42C16.1554 24.057 15.6372 24.5753 15.0002 24.5757ZM9.38646 26.0772C9.43275 25.7764 9.60725 25.5153 9.86547 25.3607C10.3657 25.0607 10.9252 24.785 11.5321 24.5374L12.485 27.1839C12.5355 27.324 12.6534 27.429 12.7984 27.4629C12.8316 27.4707 12.8652 27.4744 12.8985 27.4744C13.0108 27.4744 13.1203 27.4314 13.2031 27.3518L13.371 27.1904L13.8328 27.7371C13.6872 28.1229 13.5691 28.5862 13.4797 29.121H8.99904C9.12273 27.911 9.27484 26.8161 9.38646 26.0772ZM14.3716 29.1211C14.4433 28.7271 14.5318 28.3845 14.6362 28.097H15.3624C15.4663 28.3841 15.5556 28.7299 15.6275 29.1211H14.3716ZM15.4544 27.2181H14.5448L14.0059 26.5801L14.9996 25.6247L15.9934 26.5801L15.4544 27.2181ZM16.9168 26.2487L15.8816 25.2534C16.3912 25.0072 16.7829 24.5546 16.9482 24.0049C17.1825 24.0745 17.4151 24.1487 17.6444 24.2279L16.9168 26.2487ZM16.8067 21.9262H13.1928C10.757 21.9262 8.77527 19.9446 8.77527 17.5087V11.3057C8.99769 10.9915 9.77693 10.0122 10.8449 10.0122C11.0226 10.0122 11.1926 10.0453 11.3653 10.1136C11.7028 10.2467 12.0228 10.5026 12.3616 10.7734C13.0289 11.3068 13.7852 11.9115 14.9999 11.9115C16.2141 11.9115 16.9704 11.307 17.6376 10.7736C18.1487 10.3651 18.5902 10.0121 19.1549 10.0121C20.2227 10.0121 21.0018 10.9911 21.224 11.3048V16.9848C21.224 16.9884 21.224 16.9919 21.224 16.9954V17.5087C21.224 19.9446 19.2424 21.9262 16.8067 21.9262ZM22.6265 15.636C22.7139 15.6261 23.1558 15.6023 23.2663 16.0915C23.293 16.21 23.3066 16.3325 23.3066 16.4554C23.3066 17.2189 22.7829 17.8625 22.0759 18.0459C22.0938 17.8692 22.1029 17.69 22.1029 17.5087V17.1548C22.2029 17.053 22.3561 16.9385 22.4939 16.9481C22.7357 16.9648 22.9459 16.7821 22.9627 16.5401C22.9795 16.298 22.7968 16.0881 22.5546 16.0713C22.3927 16.0601 22.2435 16.0837 22.1087 16.1278C22.1591 15.7106 22.5449 15.6451 22.6265 15.636ZM26.6924 6.62355L25.9818 7.31631C25.6592 7.63072 25.5121 8.0833 25.5883 8.52686L25.7561 9.50502C25.7883 9.69252 25.7156 9.87117 25.5617 9.98291C25.408 10.0947 25.2156 10.1087 25.0471 10.0201L24.169 9.55846C23.7703 9.34857 23.2944 9.34869 22.8961 9.55834L22.0176 10.0201C21.8493 10.1087 21.6568 10.0947 21.503 9.98291C21.3491 9.87111 21.2765 9.69246 21.3087 9.50502L21.4764 8.52697C21.5526 8.08324 21.4056 7.63061 21.083 7.31643L20.3724 6.62355C20.2363 6.49084 20.19 6.30369 20.2488 6.12281C20.3076 5.94193 20.4551 5.81766 20.6432 5.79029L21.6254 5.6475C22.0709 5.58275 22.4559 5.30303 22.655 4.89943L23.0942 4.00939C23.1784 3.83889 23.3421 3.73711 23.5324 3.73711C23.7227 3.73711 23.8864 3.83895 23.9706 4.00939L24.4098 4.89943C24.609 5.30309 24.994 5.5827 25.4395 5.6475L26.4216 5.79029C26.6099 5.81766 26.7573 5.94199 26.8161 6.12287C26.8748 6.30369 26.8286 6.49084 26.6924 6.62355Z" fill="black"/>
</g>
<defs>
<clipPath id="clip0_808_11882">
<rect width="30" height="30" fill="white"/>
</clipPath>
</defs>
</svg>
