<svg width="24" height="25" viewBox="0 0 24 25" fill="none" xmlns="http://www.w3.org/2000/svg">
<path fill-rule="evenodd" clip-rule="evenodd" d="M16.084 2.5C19.622 2.5 22 4.776 22 8.165V16.834C22 20.223 19.622 22.5 16.084 22.5H7.916C4.378 22.5 2 20.223 2 16.834V8.165C2 4.776 4.378 2.5 7.916 2.5H16.084ZM16.084 4H7.916C5.233 4 3.5 5.635 3.5 8.165V16.834C3.5 19.364 5.233 21 7.916 21H16.084C18.767 21 20.5 19.364 20.5 16.834V8.165C20.5 5.635 18.767 4 16.084 4ZM12.8513 8.221L16.6086 11.9623C16.6366 11.9896 16.6626 12.019 16.6861 12.0504L16.6153 11.969C16.6507 12.0039 16.6822 12.0421 16.7096 12.0828C16.7215 12.1012 16.7331 12.1203 16.7439 12.1399C16.7527 12.1552 16.7607 12.1712 16.7682 12.1875C16.775 12.2031 16.7815 12.2188 16.7876 12.2347C16.7938 12.2503 16.7992 12.2661 16.804 12.2822C16.8209 12.3388 16.8316 12.3983 16.8348 12.4597C16.8359 12.4733 16.8363 12.4866 16.8363 12.5L16.833 12.539L16.8291 12.6017C16.8237 12.6415 16.8151 12.6803 16.8037 12.7178C16.7992 12.7339 16.7938 12.7497 16.7879 12.7654C16.7815 12.7812 16.775 12.7969 16.7679 12.8123C16.7607 12.8288 16.7527 12.8448 16.7441 12.8605C16.7331 12.8797 16.7215 12.8988 16.7091 12.9172C16.7022 12.9282 16.6945 12.939 16.6866 12.9496C16.6647 12.9781 16.6413 13.0051 16.6162 13.0302L16.6153 13.031L12.8513 16.779C12.7053 16.925 12.5133 16.998 12.3223 16.998C12.1303 16.998 11.9373 16.925 11.7913 16.777C11.4993 16.483 11.5003 16.009 11.7933 15.717L14.27 13.25H7.9139C7.4999 13.25 7.1639 12.914 7.1639 12.5C7.1639 12.086 7.4999 11.75 7.9139 11.75H14.27L11.7933 9.283C11.5003 8.991 11.4993 8.517 11.7913 8.223C12.0833 7.929 12.5573 7.929 12.8513 8.221Z" fill="white"/>
<path fill-rule="evenodd" clip-rule="evenodd" d="M16.084 2.5C19.622 2.5 22 4.776 22 8.165V16.834C22 20.223 19.622 22.5 16.084 22.5H7.916C4.378 22.5 2 20.223 2 16.834V8.165C2 4.776 4.378 2.5 7.916 2.5H16.084ZM16.084 4H7.916C5.233 4 3.5 5.635 3.5 8.165V16.834C3.5 19.364 5.233 21 7.916 21H16.084C18.767 21 20.5 19.364 20.5 16.834V8.165C20.5 5.635 18.767 4 16.084 4ZM12.8513 8.221L16.6086 11.9623C16.6366 11.9896 16.6626 12.019 16.6861 12.0504L16.6153 11.969C16.6507 12.0039 16.6822 12.0421 16.7096 12.0828C16.7215 12.1012 16.7331 12.1203 16.7439 12.1399C16.7527 12.1552 16.7607 12.1712 16.7682 12.1875C16.775 12.2031 16.7815 12.2188 16.7876 12.2347C16.7938 12.2503 16.7992 12.2661 16.804 12.2822C16.8209 12.3388 16.8316 12.3983 16.8348 12.4597C16.8359 12.4733 16.8363 12.4866 16.8363 12.5L16.833 12.539L16.8291 12.6017C16.8237 12.6415 16.8151 12.6803 16.8037 12.7178C16.7992 12.7339 16.7938 12.7497 16.7879 12.7654C16.7815 12.7812 16.775 12.7969 16.7679 12.8123C16.7607 12.8288 16.7527 12.8448 16.7441 12.8605C16.7331 12.8797 16.7215 12.8988 16.7091 12.9172C16.7022 12.9282 16.6945 12.939 16.6866 12.9496C16.6647 12.9781 16.6413 13.0051 16.6162 13.0302L16.6153 13.031L12.8513 16.779C12.7053 16.925 12.5133 16.998 12.3223 16.998C12.1303 16.998 11.9373 16.925 11.7913 16.777C11.4993 16.483 11.5003 16.009 11.7933 15.717L14.27 13.25H7.9139C7.4999 13.25 7.1639 12.914 7.1639 12.5C7.1639 12.086 7.4999 11.75 7.9139 11.75H14.27L11.7933 9.283C11.5003 8.991 11.4993 8.517 11.7913 8.223C12.0833 7.929 12.5573 7.929 12.8513 8.221Z" fill="url(#paint0_radial_1185_8731)"/>
<defs>
<radialGradient id="paint0_radial_1185_8731" cx="0" cy="0" r="1" gradientUnits="userSpaceOnUse" gradientTransform="translate(1.03704 -0.247253) rotate(52.6545) scale(34.557 49.8273)">
<stop offset="0.151042" stop-color="#33A6FF"/>
<stop offset="0.907346" stop-color="#36C27F"/>
</radialGradient>
</defs>
</svg>
