<svg width="18" height="19" viewBox="0 0 18 19" fill="none" xmlns="http://www.w3.org/2000/svg">
<path fill-rule="evenodd" clip-rule="evenodd" d="M8.80425 2C12.8318 2 16.1078 5.276 16.1078 9.3035C16.1078 11.2037 15.3785 12.9367 14.1852 14.2374L16.5333 16.5805C16.7531 16.8003 16.7538 17.1558 16.5341 17.3755C16.4246 17.4865 16.2798 17.5413 16.1358 17.5413C15.9926 17.5413 15.8486 17.4865 15.7383 17.377L13.3619 15.0073C12.1118 16.0084 10.5268 16.6077 8.80425 16.6077C4.77675 16.6077 1.5 13.331 1.5 9.3035C1.5 5.276 4.77675 2 8.80425 2ZM8.80425 3.125C5.397 3.125 2.625 5.89625 2.625 9.3035C2.625 12.7108 5.397 15.4827 8.80425 15.4827C12.2108 15.4827 14.9828 12.7108 14.9828 9.3035C14.9828 5.89625 12.2108 3.125 8.80425 3.125Z" fill="white"/>
</svg>
