<svg width="20" height="21" viewBox="0 0 20 21" fill="none" xmlns="http://www.w3.org/2000/svg">
<path fill-rule="evenodd" clip-rule="evenodd" d="M9.00402 12.8479L12.0515 17.7921C12.1849 18.0088 12.3932 18.0063 12.4774 17.9946C12.5615 17.9829 12.764 17.9313 12.8374 17.6854L16.6482 4.81461C16.7149 4.58711 16.5924 4.43211 16.5374 4.37711C16.484 4.32211 16.3315 4.20461 16.1107 4.26711L3.23069 8.03877C2.98652 8.11044 2.93319 8.31544 2.92152 8.39961C2.90985 8.48544 2.90652 8.69794 3.12235 8.83377L8.12319 11.9613L12.5415 7.49627C12.784 7.25127 13.1799 7.24877 13.4257 7.49127C13.6715 7.73377 13.6732 8.13044 13.4307 8.37544L9.00402 12.8479ZM12.4124 19.2496C11.8324 19.2496 11.3007 18.9546 10.9874 18.4479L7.75652 13.2054L2.45985 9.89294C1.88902 9.53544 1.59069 8.89877 1.68319 8.22961C1.77485 7.56044 2.23402 7.02877 2.87902 6.83961L15.759 3.06794C16.3515 2.89461 16.9865 3.05877 17.4232 3.49377C17.8599 3.93294 18.0224 4.57461 17.8457 5.16961L14.0349 18.0396C13.844 18.6871 13.3107 19.1446 12.6432 19.2338C12.5649 19.2438 12.489 19.2496 12.4124 19.2496Z" fill="#8BA1B1"/>
</svg>
