<svg width="31" height="31" viewBox="0 0 31 31" fill="none" xmlns="http://www.w3.org/2000/svg">
<path fill-rule="evenodd" clip-rule="evenodd" d="M15.4237 2.75C22.1362 2.75 27.5963 8.21 27.5963 14.9225C27.5963 18.0894 26.3809 20.9778 24.3921 23.1456L28.3055 27.0509C28.6718 27.4171 28.673 28.0096 28.3068 28.3759C28.1243 28.5609 27.883 28.6521 27.643 28.6521C27.4043 28.6521 27.1642 28.5609 26.9805 28.3784L23.0198 24.4288C20.9363 26.0973 18.2946 27.0962 15.4237 27.0962C8.71125 27.0962 3.25 21.635 3.25 14.9225C3.25 8.21 8.71125 2.75 15.4237 2.75ZM15.4237 4.625C9.745 4.625 5.125 9.24375 5.125 14.9225C5.125 20.6012 9.745 25.2212 15.4237 25.2212C21.1012 25.2212 25.7213 20.6012 25.7213 14.9225C25.7213 9.24375 21.1012 4.625 15.4237 4.625Z" fill="white"/>
</svg>
