<svg width="31" height="30" viewBox="0 0 31 30" fill="none" xmlns="http://www.w3.org/2000/svg">
<path fill-rule="evenodd" clip-rule="evenodd" d="M15.834 2.50049C16.729 2.50049 17.599 2.86799 18.2228 3.50674C18.8453 4.14924 19.189 5.03049 19.1628 5.92424C19.1653 6.12549 19.2315 6.35799 19.3515 6.56174C19.5503 6.89924 19.864 7.13674 20.2365 7.23424C20.609 7.32674 20.999 7.27674 21.3303 7.08049C22.9303 6.16674 24.9665 6.71424 25.8803 8.30174L26.659 9.65049C26.679 9.68674 26.6965 9.72174 26.7115 9.75799C27.539 11.3217 26.9865 13.2905 25.449 14.1892C25.2253 14.318 25.044 14.498 24.919 14.7155C24.7253 15.0517 24.6715 15.4517 24.769 15.8192C24.869 16.1942 25.1078 16.5055 25.444 16.698C26.2028 17.1342 26.769 17.8692 26.9953 18.718C27.2215 19.5655 27.0978 20.4855 26.6565 21.2442L25.8265 22.6267C24.9128 24.1967 22.8765 24.7405 21.2928 23.8255C21.0815 23.7042 20.8378 23.638 20.5953 23.6317H20.5878C20.2265 23.6317 19.8553 23.7855 19.5853 24.0542C19.3115 24.328 19.1615 24.693 19.164 25.0805C19.1553 26.9167 17.6615 28.4017 15.834 28.4017H14.2678C12.4315 28.4017 10.9378 26.9092 10.9378 25.073C10.9353 24.8467 10.8703 24.6117 10.749 24.408C10.5528 24.0655 10.2353 23.8205 9.869 23.723C9.50525 23.6255 9.1065 23.6792 8.779 23.8692C7.994 24.3067 7.07025 24.413 6.22525 24.1755C5.3815 23.9367 4.65275 23.3567 4.22525 22.588L3.444 21.2417C2.53025 19.6567 3.074 17.6255 4.6565 16.7105C5.10525 16.4517 5.384 15.9692 5.384 15.4517C5.384 14.9342 5.10525 14.4505 4.6565 14.1917C3.07275 13.2717 2.53025 11.2355 3.44275 9.65049L4.29025 8.25924C5.1915 6.69174 7.229 6.13924 8.81775 7.05174C9.034 7.18049 9.269 7.24549 9.50775 7.24799C10.2865 7.24799 10.9378 6.60549 10.9503 5.81549C10.9453 4.94424 11.289 4.10799 11.9153 3.47674C12.544 2.84674 13.379 2.50049 14.2678 2.50049H15.834ZM15.834 4.37549H14.2678C13.8803 4.37549 13.5178 4.52674 13.244 4.79924C12.9715 5.07299 12.8228 5.43674 12.8253 5.82424C12.799 7.65174 11.3053 9.12299 9.4965 9.12299C8.9165 9.11674 8.35775 8.96049 7.87275 8.67049C7.1915 8.28299 6.3015 8.52174 5.90275 9.21549L5.0565 10.6067C4.669 11.2792 4.9065 12.168 5.5965 12.5692C6.62025 13.1617 7.259 14.2667 7.259 15.4517C7.259 16.6367 6.62025 17.7405 5.594 18.3342C4.90775 18.7317 4.67025 19.6155 5.06775 20.303L5.8565 21.663C6.0515 22.0142 6.37025 22.268 6.739 22.3717C7.1065 22.4742 7.5115 22.4305 7.849 22.243C8.34525 21.9517 8.92275 21.8005 9.50275 21.8005C9.789 21.8005 10.0753 21.8367 10.3553 21.9117C11.2003 22.1392 11.934 22.7042 12.369 23.463C12.6515 23.9392 12.8078 24.4955 12.8128 25.063C12.8128 25.8755 13.4653 26.5267 14.2678 26.5267H15.834C16.6328 26.5267 17.2853 25.8792 17.289 25.0805C17.284 24.198 17.629 23.3592 18.2603 22.728C18.8828 22.1055 19.7528 21.7317 20.6228 21.7567C21.1928 21.7705 21.7415 21.9242 22.2253 22.1992C22.9215 22.598 23.8103 22.3605 24.2128 21.673L25.0428 20.2892C25.2278 19.9705 25.2815 19.5705 25.1828 19.2017C25.0853 18.833 24.8403 18.513 24.5103 18.3242C23.7378 17.8792 23.1865 17.1617 22.9578 16.3017C22.7315 15.458 22.8553 14.5367 23.2965 13.778C23.584 13.278 24.0053 12.8567 24.5103 12.5667C25.1878 12.1705 25.4253 11.2842 25.0315 10.5942C25.0153 10.5667 25.0003 10.538 24.9878 10.508L24.2553 9.23799C23.8565 8.54424 22.969 8.30549 22.2728 8.70174C21.5203 9.14674 20.6253 9.27424 19.7653 9.04799C18.9065 8.82549 18.1865 8.28174 17.7378 7.51424C17.4503 7.03424 17.294 6.47549 17.289 5.90674C17.3003 5.47924 17.1503 5.09549 16.8778 4.81424C16.6065 4.53424 16.2253 4.37549 15.834 4.37549ZM15.0564 11.2181C17.3901 11.2181 19.2889 13.1181 19.2889 15.4519C19.2889 17.7856 17.3901 19.6831 15.0564 19.6831C12.7226 19.6831 10.8239 17.7856 10.8239 15.4519C10.8239 13.1181 12.7226 11.2181 15.0564 11.2181ZM15.0564 13.0931C13.7564 13.0931 12.6989 14.1519 12.6989 15.4519C12.6989 16.7519 13.7564 17.8081 15.0564 17.8081C16.3564 17.8081 17.4139 16.7519 17.4139 15.4519C17.4139 14.1519 16.3564 13.0931 15.0564 13.0931Z" fill="white"/>
</svg>
