<svg width="21" height="20" viewBox="0 0 21 20" fill="none" xmlns="http://www.w3.org/2000/svg">
<path fill-rule="evenodd" clip-rule="evenodd" d="M10.5024 3.33373C13.949 3.33623 17.044 5.75207 18.7824 9.79707C18.8507 9.95457 18.8507 10.1329 18.7824 10.2904C17.0449 14.3362 13.949 16.7521 10.5024 16.7546H10.4974C7.05071 16.7521 3.95571 14.3362 2.21737 10.2904C2.14987 10.1329 2.14987 9.95457 2.21737 9.79707C3.95571 5.75207 7.05154 3.33623 10.4974 3.33373H10.5024ZM10.4999 4.58373C7.63654 4.58457 5.02487 6.6204 3.47487 10.0437C5.02487 13.4679 7.63571 15.5037 10.4999 15.5046C13.364 15.5037 15.9749 13.4679 17.5249 10.0437C15.9749 6.6204 13.364 4.58457 10.4999 4.58373ZM10.4996 6.7844C12.2971 6.7844 13.7596 8.2469 13.7596 10.0444C13.7596 11.8411 12.2971 13.3027 10.4996 13.3027C8.70212 13.3027 7.24046 11.8411 7.24046 10.0444C7.24046 8.2469 8.70212 6.7844 10.4996 6.7844ZM10.4996 8.0344C9.39129 8.0344 8.49046 8.93607 8.49046 10.0444C8.49046 11.1519 9.39129 12.0527 10.4996 12.0527C11.608 12.0527 12.5096 11.1519 12.5096 10.0444C12.5096 8.93607 11.608 8.0344 10.4996 8.0344Z" fill="#288FE6"/>
</svg>
