<svg width="16" height="17" viewBox="0 0 16 17" fill="none" xmlns="http://www.w3.org/2000/svg">
<path fill-rule="evenodd" clip-rule="evenodd" d="M8.00151 2.99707C10.7588 2.99907 13.2348 4.93174 14.6255 8.16774C14.6802 8.29374 14.6802 8.4364 14.6255 8.5624C13.2355 11.7991 10.7588 13.7317 8.00151 13.7337H7.99751C5.24017 13.7317 2.76417 11.7991 1.37351 8.5624C1.31951 8.4364 1.31951 8.29374 1.37351 8.16774C2.76417 4.93174 5.24084 2.99907 7.99751 2.99707H8.00151ZM7.99951 3.99707C5.70884 3.99774 3.61951 5.6264 2.37951 8.36507C3.61951 11.1044 5.70817 12.7331 7.99951 12.7337C10.2908 12.7331 12.3795 11.1044 13.6195 8.36507C12.3795 5.6264 10.2908 3.99774 7.99951 3.99707ZM7.99931 5.7576C9.43731 5.7576 10.6073 6.9276 10.6073 8.3656C10.6073 9.80294 9.43731 10.9723 7.99931 10.9723C6.56131 10.9723 5.39197 9.80294 5.39197 8.3656C5.39197 6.9276 6.56131 5.7576 7.99931 5.7576ZM7.99931 6.7576C7.11264 6.7576 6.39197 7.47894 6.39197 8.3656C6.39197 9.2516 7.11264 9.97227 7.99931 9.97227C8.88598 9.97227 9.60731 9.2516 9.60731 8.3656C9.60731 7.47894 8.88598 6.7576 7.99931 6.7576Z" fill="#EEF2F4"/>
</svg>
