<svg width="23" height="20" viewBox="0 0 23 20" fill="none" xmlns="http://www.w3.org/2000/svg">
<path d="M22.793 3.12593C21.9685 3.48758 21.0901 3.72729 20.1742 3.84368C21.1164 3.28112 21.8355 2.3971 22.1736 1.33155C21.2951 1.85532 20.3252 2.22528 19.2915 2.43174C18.4574 1.54355 17.2685 0.993462 15.9716 0.993462C13.4553 0.993462 11.4295 3.03587 11.4295 5.53968C11.4295 5.89995 11.46 6.24635 11.5348 6.57613C7.75622 6.39184 4.41272 4.58083 2.16663 1.82206C1.7745 2.5024 1.54448 3.28112 1.54448 4.11942C1.54448 5.69349 2.35507 7.08881 3.56333 7.89663C2.83311 7.88277 2.11675 7.67077 1.50984 7.33683C1.50984 7.35069 1.50984 7.3687 1.50984 7.38672C1.50984 9.5954 3.0853 11.43 5.15126 11.8526C4.7813 11.9537 4.37808 12.0022 3.95962 12.0022C3.66864 12.0022 3.37489 11.9856 3.09915 11.9246C3.68804 13.7245 5.3591 15.0478 7.34608 15.0908C5.79973 16.3004 3.8363 17.0293 1.71076 17.0293C1.33803 17.0293 0.980537 17.0126 0.623047 16.9669C2.63635 18.2652 5.02239 19.0065 7.59549 19.0065C15.9591 19.0065 20.5317 12.0784 20.5317 6.07315C20.5317 5.87223 20.5247 5.67825 20.515 5.48564C21.4171 4.84549 22.175 4.04598 22.793 3.12593Z" fill="#8BA1B1"/>
</svg>
