<svg width="23" height="23" viewBox="0 0 23 23" fill="none" xmlns="http://www.w3.org/2000/svg">
<g clip-path="url(#clip0_1115_8711)">
<path d="M22.7929 4.2109C21.9684 4.57255 21.0899 4.81226 20.174 4.92865C21.1163 4.36609 21.8354 3.48206 22.1735 2.41652C21.295 2.94029 20.3251 3.31025 19.2914 3.5167C18.4573 2.62852 17.2684 2.07843 15.9714 2.07843C13.4552 2.07843 11.4294 4.12084 11.4294 6.62465C11.4294 6.98491 11.4599 7.33132 11.5347 7.6611C7.7561 7.47681 4.4126 5.6658 2.16651 2.90703C1.77438 3.58737 1.54436 4.36609 1.54436 5.20439C1.54436 6.77846 2.35495 8.17378 3.56321 8.98159C2.83299 8.96774 2.11662 8.75574 1.50972 8.4218C1.50972 8.43566 1.50972 8.45367 1.50972 8.47168C1.50972 10.6804 3.08517 12.5149 5.15113 12.9375C4.78117 13.0387 4.37796 13.0872 3.9595 13.0872C3.66852 13.0872 3.37477 13.0706 3.09903 13.0096C3.68792 14.8095 5.35898 16.1328 7.34596 16.1757C5.79961 17.3854 3.83618 18.1142 1.71064 18.1142C1.33791 18.1142 0.980415 18.0976 0.622925 18.0519C2.63623 19.3502 5.02227 20.0915 7.59537 20.0915C15.959 20.0915 20.5315 13.1634 20.5315 7.15812C20.5315 6.9572 20.5246 6.76321 20.5149 6.57061C21.4169 5.93046 22.1749 5.13095 22.7929 4.2109Z" fill="#8BA1B1"/>
</g>
<defs>
<clipPath id="clip0_1115_8711">
<rect width="22.1699" height="22.1699" fill="white" transform="translate(0.622925)"/>
</clipPath>
</defs>
</svg>
