<svg width="22" height="23" viewBox="0 0 22 23" fill="none" xmlns="http://www.w3.org/2000/svg">
<g clip-path="url(#clip0_1149_8552)">
<path d="M21.0934 16.3161C21.0362 16.2203 20.6824 15.4514 18.9796 13.871C17.197 12.2162 17.4365 12.4849 19.5835 9.62341C20.8912 7.88072 21.414 6.81649 21.2504 6.36153C21.0948 5.92785 20.133 6.04226 20.133 6.04226L16.9349 6.06088C16.9349 6.06088 16.6981 6.02895 16.5212 6.13405C16.3496 6.23781 16.2392 6.47726 16.2392 6.47726C16.2392 6.47726 15.7323 7.82618 15.0566 8.97289C13.6318 11.3927 13.0611 11.5204 12.8283 11.3701C12.2869 11.0202 12.4226 9.96263 12.4226 9.21235C12.4226 6.86704 12.7778 5.88927 11.7295 5.63652C11.381 5.55271 11.1255 5.49683 10.2356 5.48752C9.09418 5.47555 8.12706 5.49151 7.58031 5.7589C7.21581 5.93716 6.93512 6.33492 7.10672 6.35754C7.31824 6.38547 7.79715 6.48657 8.05123 6.83245C8.37981 7.2781 8.36784 8.28114 8.36784 8.28114C8.36784 8.28114 8.55674 11.0415 7.92751 11.3847C7.49517 11.6202 6.90319 11.1399 5.63276 8.94363C4.98224 7.81953 4.49004 6.5757 4.49004 6.5757C4.49004 6.5757 4.39559 6.34423 4.22664 6.22051C4.02177 6.07019 3.73443 6.0223 3.73443 6.0223L0.69338 6.04092C0.69338 6.04092 0.237089 6.05423 0.0694722 6.25244C-0.0795206 6.42937 0.0574996 6.79387 0.0574996 6.79387C0.0574996 6.79387 2.43872 12.3638 5.1339 15.1721C7.60691 17.7462 10.4138 17.5772 10.4138 17.5772H11.6856C11.6856 17.5772 12.07 17.5347 12.2656 17.3232C12.4465 17.1289 12.4399 16.7644 12.4399 16.7644C12.4399 16.7644 12.4146 15.0577 13.2074 14.8062C13.9883 14.5588 14.9914 16.4558 16.0543 17.1861C16.8578 17.7382 17.4684 17.6172 17.4684 17.6172L20.3112 17.5772C20.3112 17.5772 21.7985 17.4855 21.0934 16.3161Z" fill="#8BA1B1"/>
</g>
<defs>
<clipPath id="clip0_1149_8552">
<rect width="21.2831" height="21.2831" fill="white" transform="translate(0 0.915031)"/>
</clipPath>
</defs>
</svg>
