<svg width="22" height="22" viewBox="0 0 22 22" fill="none" xmlns="http://www.w3.org/2000/svg">
<g clip-path="url(#clip0_1115_8612)">
<path d="M21.0934 15.4011C21.0362 15.3053 20.6823 14.5364 18.9796 12.956C17.197 11.3011 17.4364 11.5698 19.5835 8.70836C20.8912 6.96568 21.414 5.90144 21.2504 5.44648C21.0947 5.0128 20.1329 5.12721 20.1329 5.12721L16.9349 5.14583C16.9349 5.14583 16.6981 5.11391 16.5212 5.219C16.3496 5.32276 16.2392 5.56221 16.2392 5.56221C16.2392 5.56221 15.7323 6.91113 15.0565 8.05785C13.6318 10.4777 13.0611 10.6054 12.8283 10.455C12.2869 10.1052 12.4225 9.04759 12.4225 8.2973C12.4225 5.95199 12.7777 4.97422 11.7295 4.72147C11.3809 4.63766 11.1255 4.58179 10.2355 4.57248C9.09416 4.5605 8.12703 4.57647 7.58028 4.84386C7.21578 5.02212 6.93509 5.41987 7.1067 5.44249C7.31821 5.47042 7.79712 5.57153 8.05121 5.9174C8.37979 6.36305 8.36782 7.36609 8.36782 7.36609C8.36782 7.36609 8.55672 10.1265 7.92749 10.4697C7.49514 10.7051 6.90316 10.2249 5.63273 8.02858C4.98222 6.90448 4.49001 5.66066 4.49001 5.66066C4.49001 5.66066 4.39556 5.42919 4.22661 5.30547C4.02175 5.15514 3.7344 5.10725 3.7344 5.10725L0.693353 5.12588C0.693353 5.12588 0.237062 5.13918 0.0694455 5.3374C-0.0795473 5.51432 0.0574729 5.87882 0.0574729 5.87882C0.0574729 5.87882 2.4387 11.4488 5.13387 14.257C7.60689 16.8311 10.4138 16.6622 10.4138 16.6622H11.6856C11.6856 16.6622 12.07 16.6196 12.2656 16.4081C12.4465 16.2139 12.4398 15.8494 12.4398 15.8494C12.4398 15.8494 12.4146 14.1426 13.2074 13.8912C13.9883 13.6438 14.9913 15.5408 16.0543 16.2711C16.8577 16.8232 17.4684 16.7021 17.4684 16.7021L20.3112 16.6622C20.3112 16.6622 21.7985 16.5704 21.0934 15.4011Z" fill="#8BA1B1"/>
</g>
<defs>
<clipPath id="clip0_1115_8612">
<rect width="21.2831" height="21.2831" fill="white"/>
</clipPath>
</defs>
</svg>
