<svg width="31" height="30" viewBox="0 0 31 30" fill="none" xmlns="http://www.w3.org/2000/svg">
<path fill-rule="evenodd" clip-rule="evenodd" d="M21.302 3.75C25.4357 3.75 28.7982 7.1125 28.7982 11.2475V20.2188C28.7982 24.3525 25.4357 27.7163 21.302 27.7163H10.497C6.36325 27.7163 2.9995 24.3525 2.9995 20.2188V11.2475C2.9995 7.1125 6.36325 3.75 10.497 3.75H21.302ZM21.302 5.625H10.497C7.397 5.625 4.8745 8.1475 4.8745 11.2475V20.2188C4.8745 23.3188 7.397 25.8413 10.497 25.8413H21.302C24.402 25.8413 26.9232 23.3188 26.9232 20.2188V19.8688L22.8009 19.8695C20.4296 19.8695 18.4996 17.9408 18.4984 15.5708C18.4984 13.1983 20.4284 11.2682 22.8009 11.267L26.9232 11.2663V11.2475C26.9232 8.1475 24.402 5.625 21.302 5.625ZM26.9232 13.1413L22.8009 13.142C21.4621 13.1432 20.3734 14.232 20.3734 15.5695C20.3734 16.9057 21.4634 17.9945 22.8009 17.9945L26.9232 17.9938V13.1413ZM23.3729 14.5545C23.8904 14.5545 24.3104 14.9745 24.3104 15.492C24.3104 16.0095 23.8904 16.4295 23.3729 16.4295H22.9829C22.4654 16.4295 22.0454 16.0095 22.0454 15.492C22.0454 14.9745 22.4654 14.5545 22.9829 14.5545H23.3729ZM16.3557 9.42262C16.8732 9.42262 17.2932 9.84262 17.2932 10.3601C17.2932 10.8776 16.8732 11.2976 16.3557 11.2976H9.607C9.0895 11.2976 8.6695 10.8776 8.6695 10.3601C8.6695 9.84262 9.0895 9.42262 9.607 9.42262H16.3557Z" fill="white"/>
</svg>
