<svg width="29" height="30" viewBox="0 0 29 30" fill="none" xmlns="http://www.w3.org/2000/svg">
<path d="M26.0163 16.1452C26.0163 23.2035 20.2937 28.9255 13.2354 28.9255C11.5039 28.9255 9.85322 28.5813 8.34789 27.9571C4.23282 26.2526 1.20183 22.4606 0.575184 17.9017C0.495709 17.3277 0.455078 16.7411 0.455078 16.1452C0.455078 9.08624 6.17706 3.36426 13.2354 3.36426C20.2937 3.36426 26.0163 9.08624 26.0163 16.1452Z" fill="#937DE2"/>
<path d="M13.2345 3.36426C12.5587 3.36426 11.8955 3.41717 11.248 3.51807C17.3632 4.47244 22.0428 9.762 22.0428 16.1452C22.0428 22.5276 17.3636 27.8169 11.2492 28.7715C11.8961 28.8724 12.5589 28.9255 13.2345 28.9255C20.2928 28.9255 26.0154 23.2035 26.0154 16.1452C26.0154 9.08624 20.2928 3.36426 13.2345 3.36426Z" fill="#7570D6"/>
<path d="M27.6118 15.2001L20.3135 20.0329C19.7936 20.3773 19.1638 20.514 18.5481 20.4155C17.931 20.3173 17.2997 20.4521 16.7784 20.7973L15.8017 21.4444L10.332 13.382L11.674 7.58453C11.7784 7.13335 11.83 6.67592 11.83 6.22028C11.83 5.04155 11.4853 3.878 10.8241 2.8792C10.6615 2.63363 10.5839 2.35569 10.5839 2.08155C10.5839 1.61251 10.8113 1.15263 11.2317 0.874243C11.7983 0.498746 12.5493 0.568621 13.0371 1.04168L13.9064 1.88375C14.9007 2.84839 15.6676 4.02288 16.1493 5.32172L16.6208 6.59086L21.4753 3.38351C22.2506 2.87027 23.2996 3.09463 23.7946 3.88871C24.2721 4.65377 24.027 5.66462 23.2746 6.16268C23.2655 6.16871 23.265 6.17831 23.2679 6.18568C23.2722 6.19349 23.2813 6.19907 23.2916 6.19483C23.4834 6.12071 23.6841 6.08499 23.8832 6.08499C24.2009 6.08499 24.5159 6.17652 24.7853 6.35065C24.9708 6.47076 25.1351 6.63038 25.2651 6.82616C25.5156 7.20479 25.5903 7.64882 25.5084 8.06138C25.3796 8.71169 24.9072 9.04655 24.8143 9.10973C24.7985 9.12067 24.7942 9.14233 24.8052 9.15884C24.8052 9.15952 24.8059 9.15996 24.8065 9.15996C24.8168 9.1747 24.838 9.17894 24.8532 9.16911C24.9853 9.13697 25.12 9.12179 25.2548 9.12179C25.5834 9.12179 25.9105 9.21533 26.1884 9.39236C26.3764 9.51246 26.5427 9.67141 26.6713 9.86608C27.176 10.628 26.9673 11.6552 26.2047 12.1599C26.186 12.1726 26.1672 12.1854 26.1484 12.1974C26.1375 12.2061 26.1344 12.22 26.14 12.2298C26.1411 12.232 26.1435 12.2345 26.146 12.2358C26.1545 12.2425 26.1679 12.243 26.1788 12.2345C26.6525 12.0731 27.1682 12.1465 27.5832 12.4153C27.7743 12.5379 27.9436 12.7029 28.0775 12.9056C28.5823 13.6684 28.3738 14.6953 27.6118 15.2001Z" fill="#FDD7BD"/>
<path d="M15.8727 22.9747L12.7939 25.0136L8.34887 27.9573C4.23381 26.2526 1.20282 22.4608 0.576172 17.9017L5.73468 14.4856L8.87484 12.4061C9.23627 12.1663 9.72406 12.2659 9.9636 12.628L16.0946 21.885C16.3343 22.2473 16.2348 22.7345 15.8727 22.9747Z" fill="#87DBFF"/>
<path d="M15.8704 22.9747L12.7916 25.0136L5.73242 14.4856L8.87258 12.4061C9.23401 12.1663 9.7218 12.2659 9.96134 12.628L16.0923 21.885C16.3321 22.2473 16.2325 22.7345 15.8704 22.9747Z" fill="#6FC7FF"/>
<path d="M24.7855 6.35087L22.357 7.65038C22.0123 7.83433 21.5852 7.73833 21.3535 7.42467L23.2681 6.18589C23.2723 6.19393 23.2815 6.19928 23.2917 6.19504C23.4835 6.12092 23.6842 6.08521 23.8833 6.08521C24.2012 6.08521 24.516 6.17696 24.7855 6.35087Z" fill="#FAC5AA"/>
<path d="M26.1896 9.39289L23.814 10.6631C23.4693 10.8475 23.0423 10.7518 22.8105 10.4381L24.7251 9.19933L24.8077 9.16049C24.818 9.17522 24.8392 9.17947 24.8543 9.16964C24.9867 9.1375 25.1213 9.12231 25.256 9.12231C25.5848 9.12231 25.9119 9.21563 26.1896 9.39289Z" fill="#FAC5AA"/>
<path d="M27.584 12.4158L25.4915 13.5352C25.1477 13.7189 24.7205 13.6231 24.4883 13.3095L26.1468 12.2364C26.1552 12.2431 26.1686 12.2435 26.1796 12.235C26.6533 12.0736 27.169 12.1471 27.584 12.4158Z" fill="#FAC5AA"/>
<path d="M28.457 12.6548C28.1536 12.1967 27.6937 11.881 27.159 11.7613C27.5039 11.1017 27.4899 10.2786 27.0505 9.61529C26.738 9.14313 26.2665 8.83818 25.7533 8.72276C25.8448 8.54818 25.9124 8.35976 25.9528 8.16108C26.0649 7.60855 25.9555 7.04552 25.6441 6.57559C25.3407 6.11727 24.8808 5.80161 24.3461 5.68217C24.6911 5.02248 24.677 4.19938 24.2376 3.5359C23.5954 2.5659 22.2831 2.29912 21.3129 2.94162L19.2122 4.33288C18.0924 3.76495 16.9014 3.36199 15.6653 3.13249C15.2746 2.53933 14.8203 1.98792 14.3118 1.495L13.4427 0.652695C12.8062 0.0356471 11.8081 -0.0569994 11.0691 0.432576C10.1949 1.01145 9.95469 2.19375 10.5336 3.06798C10.5563 3.10258 10.5787 3.13741 10.6008 3.17223C7.75194 3.74865 5.15561 5.26046 3.23392 7.47572C1.14859 9.87984 0 12.9588 0 16.1454C0 16.7562 0.0417467 17.3681 0.124347 17.9637C0.760817 22.5941 3.84516 26.5843 8.17343 28.3777C9.77855 29.0429 11.4817 29.3805 13.2348 29.3805C16.0113 29.3805 18.669 28.5301 20.9209 26.9216C23.1239 25.3478 24.7721 23.1758 25.6876 20.6407C25.7731 20.4045 25.6506 20.1435 25.4144 20.0582C25.178 19.9729 24.9172 20.0953 24.8319 20.3317C23.9794 22.6925 22.4441 24.7151 20.3918 26.1811C18.2953 27.6789 15.8204 28.4705 13.2348 28.4705C11.898 28.4705 10.5927 28.2596 9.34345 27.8434L13.0453 25.392C13.0455 25.3918 13.0457 25.3918 13.046 25.3915C13.0462 25.3915 13.0462 25.3913 13.0464 25.3911L16.1229 23.3538H16.1232C16.3993 23.1707 16.588 22.8912 16.654 22.5664C16.7201 22.2416 16.6558 21.9103 16.4728 21.6341L16.4321 21.5725L17.0298 21.1767C17.4562 20.8943 17.9689 20.7835 18.4739 20.8646C19.2051 20.982 19.9476 20.8213 20.5646 20.4125L25.5215 17.1299C25.4876 17.5599 25.4318 17.9874 25.3539 18.4078C25.3079 18.6549 25.4711 18.8924 25.7182 18.9382C25.7461 18.9436 25.7742 18.946 25.8017 18.946C26.0167 18.946 26.2078 18.7929 26.2484 18.5739C26.3745 17.8954 26.4471 17.2005 26.4659 16.5046L27.8627 15.5795C28.3326 15.2683 28.6534 14.7926 28.7655 14.2402C28.8778 13.6877 28.7682 13.1247 28.457 12.6548ZM18.3288 4.91778L16.9387 5.83844L16.665 5.10106C16.5507 4.79343 16.4196 4.49183 16.2745 4.1967C16.9797 4.37552 17.6665 4.61662 18.3288 4.91778ZM3.92129 8.072C5.76819 5.94292 8.28393 4.5117 11.0361 4.01543C11.4777 5.08521 11.5835 6.28047 11.3196 7.41968L10.2103 12.2121C10.036 12.0259 9.80958 11.8975 9.55464 11.8457C9.2296 11.7794 8.89852 11.8439 8.62237 12.027L5.48021 14.1076C5.47998 14.1076 5.47998 14.1076 5.47976 14.1079C5.47976 14.1079 5.47954 14.1079 5.47954 14.1081L0.947673 17.1092C0.922893 16.7895 0.909944 16.4673 0.909944 16.1454C0.909944 13.1781 1.97951 10.3107 3.92129 8.072ZM15.7624 22.3849C15.7448 22.4715 15.6943 22.5463 15.6204 22.5952H15.6206L12.9185 24.3845L7.9033 16.9051C7.76333 16.6964 7.4807 16.6408 7.27197 16.7808C7.06345 16.9207 7.00764 17.2031 7.14762 17.4119L12.1597 24.887L8.30224 27.4416C4.46913 25.765 1.72613 22.2244 1.06666 18.1044L5.60388 15.1096L6.12605 15.8887C6.21401 16.0195 6.35778 16.0903 6.50445 16.0903C6.59152 16.0903 6.6797 16.0655 6.75739 16.0133C6.96612 15.8733 7.02193 15.5907 6.88196 15.3819L6.36336 14.6084L9.12489 12.7856C9.19834 12.7367 9.28652 12.7197 9.37314 12.7374C9.45976 12.755 9.53455 12.8055 9.58344 12.8791L15.7142 22.1366C15.7628 22.2101 15.78 22.2983 15.7624 22.3849ZM27.8739 14.059C27.81 14.3733 27.6276 14.6439 27.3602 14.8209L25.7633 15.8784C25.7629 15.8786 25.7624 15.8791 25.7617 15.8793L20.0621 19.6539C19.6357 19.9363 19.1229 20.0473 18.6179 19.966C17.887 19.8488 17.1445 20.0093 16.5272 20.4181L15.9296 20.8139L10.9084 13.2319L12.2063 7.62507C12.5405 6.18067 12.3644 4.65926 11.7277 3.33386C11.7219 3.32002 11.7156 3.30663 11.7085 3.29345C11.5862 3.04297 11.4473 2.79986 11.2922 2.56545C10.9903 2.10959 11.1156 1.49321 11.5717 1.19116C11.957 0.935992 12.4776 0.984213 12.8093 1.30591L13.6784 2.14843C14.6185 3.05994 15.3563 4.19045 15.8117 5.41785L16.285 6.6928C16.2859 6.69525 16.2868 6.69726 16.2877 6.69949C16.2888 6.7024 16.2901 6.70552 16.2913 6.70842C16.2946 6.71624 16.2977 6.72338 16.3011 6.72941C16.3102 6.74861 16.3203 6.76758 16.3323 6.78567C16.4712 6.99529 16.7534 7.05267 16.9628 6.91381L21.8154 3.70043C22.3673 3.33498 23.1136 3.48656 23.4791 4.03842C23.8445 4.59028 23.6929 5.33659 23.1411 5.70204L22.7198 5.98109C22.7198 5.98109 22.7196 5.98109 22.7194 5.98132L21.7797 6.60372C21.7784 6.60462 21.7775 6.60551 21.7762 6.60618C21.7708 6.60997 21.7657 6.61355 21.7614 6.61712C21.5672 6.75977 21.517 7.03101 21.6516 7.23417C21.7902 7.44379 22.0726 7.50117 22.2823 7.36231L23.2226 6.73946C23.4898 6.56287 23.8097 6.50058 24.1238 6.56443C24.4379 6.62828 24.7087 6.81067 24.8855 7.07812C25.0625 7.34534 25.125 7.6657 25.0612 7.9798C24.9974 8.29413 24.815 8.5647 24.5475 8.74174L23.1862 9.64342C22.9765 9.78205 22.9192 10.0642 23.058 10.2739C23.1455 10.406 23.2902 10.4777 23.4378 10.4777C23.5239 10.4777 23.6112 10.4531 23.6885 10.402L23.8992 10.2625L24.6283 9.7796C25.1804 9.41415 25.9265 9.56573 26.2919 10.1176C26.6574 10.6697 26.5058 11.4158 25.954 11.7814L25.274 12.2317C25.2704 12.2339 25.2668 12.2364 25.2632 12.2389L24.5926 12.6829C24.383 12.8215 24.3256 13.1039 24.4645 13.3136C24.552 13.4457 24.6966 13.5174 24.8442 13.5174C24.9304 13.5174 25.0177 13.4928 25.0949 13.4417L25.3057 13.3022C25.3057 13.3022 25.3057 13.302 25.3059 13.302L26.035 12.8193C26.3022 12.6423 26.6223 12.5798 26.9367 12.6438C27.251 12.7075 27.5216 12.8901 27.6986 13.1573C27.8754 13.4245 27.9377 13.7449 27.8739 14.059Z" fill="black"/>
</svg>
